<?xml version="1.0" encoding="UTF-8"?>
<svg id="a" data-name="Layer 1" xmlns="http://www.w3.org/2000/svg" xmlns:xlink="http://www.w3.org/1999/xlink" viewBox="0 0 5000 3258.71">
  <defs>
    <clipPath id="c">
      <path d="M3297.59,3147.23s580.36-119.34,748.72-495.43c0,0,57.71-105.54,41.91-283.45-15.81-177.91-237.32-705.56-237.32-705.56l-921.33-22.42-227.36,585.66s255.24,789.25,595.37,921.2Z" fill="none" stroke-width="0"/>
    </clipPath>
  </defs>
  <g id="b" data-name="Downhill">
    <g>
      <ellipse cx="2771.6" cy="300.49" rx="128.65" ry="128.96" fill="#fff" stroke-width="0"/>
      <path d="M2771.61,433.41c-73.12,0-132.61-59.63-132.61-132.92s59.49-132.92,132.61-132.92,132.61,59.63,132.61,132.92-59.49,132.92-132.61,132.92ZM2771.61,175.48c-68.76,0-124.7,56.08-124.7,125.01s55.94,125.01,124.7,125.01,124.69-56.08,124.69-125.01-55.94-125.01-124.69-125.01Z" stroke-width="0"/>
    </g>
    <g>
      <g>
        <path d="M3966.75,1910.85c7.23,24.87,14.46,48.86,21.58,72.03l-2499.38,876.71c-33.59-23.2-66.23-47.64-97.81-73.42-2.57-1.98-5.14-4.09-7.67-6.19-3.08-2.54-6.32-5.28-9.76-8.29-15.73-13.64-35.25-32.01-57.46-54.81-96.9-99.63-244.97-284.3-354.12-532.32l512.31-514.63c69.08-69.41,181.15-69.49,250.3-.12l219.92,220.49,23.95,24.04c69.16,69.33,181.19,69.25,250.27-.12l1278.79-1284.61c69.16-69.41,181.27-69.41,250.38,0l128.63,129.18c-1.07,120.46-35.84,253.65-30.23,468.3,2.49,96.7,13.16,209.94,38.77,345.98,11.62,61.6,24.19,118.87,37.15,172.42,14.46,59.49,29.48,114.35,44.38,165.36Z" fill="#fff" stroke-width="0"/>
        <path d="M962.14,2188.52c-1.01,0-2.02-.38-2.79-1.15-1.55-1.54-1.56-4.05-.02-5.6l512.31-514.63c34.17-34.33,79.6-53.25,127.94-53.27h.08c48.3,0,93.72,18.87,127.89,53.15l243.86,244.52c32.67,32.75,76.09,50.79,122.26,50.79h.08c46.21-.02,89.65-18.1,122.32-50.91l1278.79-1284.61c34.2-34.32,79.66-53.22,128.01-53.22h.03c48.34,0,93.79,18.91,127.96,53.22l128.63,129.18c1.54,1.55,1.53,4.05-.01,5.6-1.55,1.54-4.06,1.54-5.6-.01l-128.63-129.18c-32.67-32.81-76.12-50.89-122.35-50.89h-.03c-46.24,0-89.7,18.07-122.4,50.89l-1278.79,1284.61c-34.17,34.31-79.6,53.22-127.93,53.24h-.08c-48.29,0-93.69-18.86-127.86-53.12l-243.86-244.52c-32.67-32.77-76.1-50.82-122.28-50.82h-.08c-46.22.02-89.67,18.11-122.34,50.94l-512.31,514.63c-.77.78-1.79,1.17-2.81,1.17Z" stroke-width="0"/>
        <g>
          <path d="M1418.79,1913.15l28.63-28.73c7.99-8.02,20.94-8.02,28.93,0l122.77,123.12c7.99,8.02,20.95,8.01,28.94,0l143.3-143.82c7.99-8.02,20.95-8.02,28.94,0l70.83,71.07c7.97,8,20.89,8.02,28.89.05l44.64-44.5-219.92-220.51c-69.15-69.34-181.22-69.28-250.3.13l-163.52,164.31,78.96,78.93c8,7.99,20.93,7.98,28.91-.03Z" fill="#fff" stroke-width="0"/>
          <path d="M1613.6,2017.5c-6.52,0-12.65-2.55-17.27-7.17l-122.77-123.12c-3.12-3.13-7.26-4.85-11.67-4.85-4.4,0-8.55,1.72-11.67,4.85l-28.63,28.73c-4.61,4.62-10.73,7.17-17.25,7.18h-.02c-6.51,0-12.63-2.54-17.24-7.14l-78.96-78.93c-1.54-1.54-1.55-4.04,0-5.59l163.53-164.31c34.16-34.32,79.59-53.24,127.92-53.26h.1c48.3,0,93.71,18.86,127.88,53.13l219.92,220.51c.74.74,1.16,1.75,1.16,2.8s-.42,2.06-1.16,2.8l-44.64,44.5c-4.61,4.59-10.72,7.12-17.21,7.12h-.04c-6.51-.01-12.63-2.56-17.23-7.18l-70.83-71.07c-3.12-3.13-7.26-4.85-11.67-4.85s-8.55,1.72-11.67,4.85l-143.3,143.82c-4.61,4.63-10.75,7.18-17.27,7.18ZM1461.89,1874.45c6.53,0,12.66,2.55,17.27,7.17l122.77,123.12c3.12,3.13,7.26,4.85,11.67,4.85,4.4,0,8.55-1.72,11.67-4.85l143.3-143.82c4.61-4.63,10.75-7.18,17.27-7.18s12.66,2.55,17.27,7.18l70.83,71.07c3.11,3.12,7.24,4.84,11.64,4.85h.03c4.39,0,8.51-1.71,11.63-4.81l41.84-41.71-217.13-217.71c-32.67-32.76-76.1-50.8-122.28-50.8h-.1c-46.21.02-89.66,18.11-122.31,50.93l-160.74,161.52,76.17,76.14c3.11,3.11,7.25,4.83,11.64,4.83h.02c4.4,0,8.54-1.73,11.65-4.85l28.63-28.73c4.61-4.63,10.75-7.18,17.27-7.18Z" stroke-width="0"/>
        </g>
        <path d="M3747.13,629.61l127.7,129.02v.16c37.29,102.22-10.14,236.13-24.73,468.3l-34.22,30.14c-9.76,9.76-25.34,9.76-35.1,0l-196.17-196.97c-9.76-9.8-25.51-9.8-35.27,0l-63.99,64.29c-9.76,9.76-25.55,9.76-35.32,0l-67.05-67.19c-9.76-9.76-25.57-9.76-35.33.04l-80.93,81.23c-9.76,9.76-25.53,9.8-35.33.04l-120.49-120.5,386.3-388.58c69.16-69.41,180.8-69.41,249.92,0Z" fill="#fff" stroke-width="0"/>
        <path d="M3798.33,1268.45c-7.37,0-14.74-2.8-20.35-8.41l-196.17-196.97c-3.97-3.99-9.24-6.18-14.83-6.18s-10.86,2.2-14.83,6.18l-63.98,64.29c-11.29,11.28-29.64,11.28-40.92,0l-67.06-67.19c-3.97-3.97-9.24-6.15-14.85-6.15h-.02c-5.61,0-10.88,2.2-14.86,6.19l-80.93,81.23c-11.28,11.27-29.63,11.29-40.92.05l-120.49-120.5c-1.54-1.54-1.55-4.04,0-5.59l386.3-388.58c34.2-34.32,79.57-53.22,127.78-53.22h.03c48.2,0,93.55,18.91,127.72,53.22l127.71,129.03c.73.74,1.14,1.74,1.14,2.78,0,2.19-1.77,4.04-3.96,4.04-1.41,0-2.65-.71-3.35-1.8l-127.16-128.48c-32.66-32.8-76.03-50.88-122.11-50.88h-.02c-46.09,0-89.47,18.07-122.17,50.89l-383.51,385.78,117.7,117.71c8.2,8.16,21.54,8.15,29.73-.04l80.92-81.22c5.46-5.48,12.72-8.51,20.45-8.52h.03c7.72,0,14.98,3.01,20.44,8.47l67.06,67.19c8.19,8.19,21.52,8.18,29.72,0l63.98-64.29c5.47-5.49,12.73-8.51,20.44-8.51s14.97,3.02,20.44,8.51l196.17,196.97c8.26,8.26,21.23,8.26,29.5,0,1.55-1.54,4.05-1.54,5.6,0,1.55,1.55,1.55,4.05,0,5.6-5.61,5.61-12.98,8.41-20.35,8.41Z" stroke-width="0"/>
      </g>
      <g>
        <path d="M4088.22,2339.37c.24,66.91-1.15,135.61-3.6,203.95-6,26.1-14.46,52.59-25.65,79.88-96.03,234.29-320.45,345.11-463.9,415.91-299.46,147.86-728.63,209.26-1157.99,158.65l-667.42-180.43c-98.6-44.5-192.85-96.98-280.73-157.74-33.59-23.2-66.23-47.64-97.81-73.42,84.49-48.71,190.51-117.76,290.46-205.06,213.4-186.42,695.47-333.17,941.87-349.63,246.39-16.46,310.77-15.27,555.78-285.38,212.92-234.73,635.92-210.89,743.13-200.62,14.46,59.49,29.48,114.35,44.38,165.36,7.23,24.87,14.46,48.86,21.58,72.03,1.86,6.11,3.72,12.1,5.57,18.09,41.49,133.86,78.36,240.28,94.33,338.41Z" fill="#fff" stroke-width="0"/>
        <path d="M1391.14,2790.13c-1.37,0-2.7-.71-3.43-1.98-1.09-1.89-.44-4.31,1.45-5.4,108.47-62.53,205.98-131.37,289.83-204.61,217.55-190.05,704.53-334.59,944.21-350.6l15.32-1.02c235.66-15.63,299.01-19.83,537.79-283.07,91.24-100.59,230.38-165.67,413.54-193.44,147.23-22.32,281.85-13.35,332.9-8.46,2.18.21,3.77,2.14,3.56,4.32-.2,2.17-2.05,3.79-4.32,3.56-120.65-11.56-530.57-31.35-739.83,199.34-240.92,265.6-310.99,270.25-543.12,285.65l-15.32,1.02c-238.59,15.94-723.2,159.69-939.52,348.66-84.23,73.58-182.17,142.72-291.09,205.51-.62.36-1.3.53-1.97.53Z" stroke-width="0"/>
        <path d="M1972.42,2799.25c-.69,0-1.39-.18-2.02-.56-1.88-1.12-2.49-3.55-1.38-5.42.52-.88,52.31-88.37,59.93-142.3,7.81-55.27,226.29-38.47,266.75-34.88,13.5-119.81,191.53-170.58,199.19-172.71,1.27-.41,141.39-45.9,164.19-116.15,24.53-75.6,159.72-45.45,165.46-44.13,2.13.49,3.46,2.61,2.97,4.74-.49,2.13-2.62,3.46-4.74,2.97-1.34-.31-133.86-29.88-156.16,38.86-24.05,74.11-163.53,119.4-169.46,121.29-1.99.56-184.44,52.59-193.95,169.74-.09,1.05-.59,2.03-1.4,2.71-.81.68-1.87,1-2.91.91-70.87-6.64-256.12-14.6-262.11,27.75-7.84,55.51-58.8,141.6-60.96,145.24-.74,1.24-2.06,1.93-3.4,1.93Z" stroke-width="0"/>
        <path d="M2387.36,3041.2c-.69,0-1.38-.18-2.02-.56-1.88-1.12-2.49-3.55-1.38-5.42.52-.88,52.3-88.37,59.92-142.3,7.82-55.26,226.29-38.47,266.76-34.88,13.5-119.81,191.53-170.58,199.19-172.71,0,0,14.32-4.6,34.3-13.02,2.01-.84,4.34.09,5.19,2.11.85,2.01-.1,4.33-2.11,5.18-20.33,8.57-34.97,13.26-35.12,13.31-1.99.56-184.44,52.59-193.95,169.74-.09,1.05-.59,2.03-1.4,2.71s-1.86,1-2.91.91c-70.87-6.64-256.13-14.6-262.11,27.75-7.84,55.51-58.79,141.6-60.96,145.24-.74,1.24-2.06,1.93-3.4,1.93Z" stroke-width="0"/>
      </g>
    </g>
    <g>
      <g>
        <path d="M2091.15,149.81c-2.19,0-3.96-1.77-3.96-3.96v-30.77c0-2.19,1.77-3.96,3.96-3.96s3.96,1.77,3.96,3.96v30.77c0,2.19-1.77,3.96-3.96,3.96Z" stroke-width="0"/>
        <path d="M2091.15,221.48c-2.19,0-3.96-1.77-3.96-3.96v-30.77c0-2.19,1.77-3.96,3.96-3.96s3.96,1.77,3.96,3.96v30.77c0,2.19-1.77,3.96-3.96,3.96Z" stroke-width="0"/>
        <path d="M2070.74,170.26h-30.7c-2.19,0-3.96-1.77-3.96-3.96s1.77-3.96,3.96-3.96h30.7c2.19,0,3.96,1.77,3.96,3.96s-1.77,3.96-3.96,3.96Z" stroke-width="0"/>
        <path d="M2142.25,170.26h-30.7c-2.19,0-3.96-1.77-3.96-3.96s1.77-3.96,3.96-3.96h30.7c2.19,0,3.96,1.77,3.96,3.96s-1.77,3.96-3.96,3.96Z" stroke-width="0"/>
      </g>
      <g>
        <path d="M964.09,1851.01c-2.19,0-3.96-1.77-3.96-3.96v-30.77c0-2.19,1.77-3.96,3.96-3.96s3.96,1.77,3.96,3.96v30.77c0,2.19-1.77,3.96-3.96,3.96Z" stroke-width="0"/>
        <path d="M964.09,1922.69c-2.19,0-3.96-1.77-3.96-3.96v-30.77c0-2.19,1.77-3.96,3.96-3.96s3.96,1.77,3.96,3.96v30.77c0,2.19-1.77,3.96-3.96,3.96Z" stroke-width="0"/>
        <path d="M943.69,1871.47h-30.7c-2.19,0-3.96-1.77-3.96-3.96s1.77-3.96,3.96-3.96h30.7c2.19,0,3.96,1.77,3.96,3.96s-1.77,3.96-3.96,3.96Z" stroke-width="0"/>
        <path d="M1015.2,1871.47h-30.7c-2.19,0-3.96-1.77-3.96-3.96s1.77-3.96,3.96-3.96h30.7c2.19,0,3.96,1.77,3.96,3.96s-1.77,3.96-3.96,3.96Z" stroke-width="0"/>
      </g>
      <path d="M2318.72,135.56c-5.42,0-10.85-1.01-16.05-3.03-11.38-4.42-20.33-13.12-25.23-24.49-9.98-23.19.37-50.38,23.08-60.6,10.92-4.92,23.08-5.23,34.22-.9,11.38,4.42,20.34,13.12,25.24,24.49,9.98,23.19-.37,50.38-23.08,60.61-5.82,2.62-11.99,3.93-18.17,3.93ZM2318.7,51.41c-5.08,0-10.15,1.08-14.93,3.23-18.79,8.46-27.34,31.01-19.05,50.26,4.05,9.41,11.44,16.6,20.82,20.25,9.15,3.56,19.13,3.3,28.11-.74,18.79-8.46,27.35-31.01,19.06-50.26-4.05-9.41-11.45-16.6-20.83-20.25-4.28-1.66-8.73-2.49-13.18-2.49Z" stroke-width="0"/>
      <path d="M1072.49,1734.17c-1.07,0-2.14-.43-2.92-1.28-1.48-1.61-1.37-4.12.24-5.59l339.57-311.02c15.43-14.12,17.53-38.19,4.79-54.79l-26.54-34.59c-16.76-21.84-13.94-53.45,6.42-71.96l306.67-278.81c1.61-1.47,4.12-1.35,5.59.27,1.47,1.62,1.35,4.12-.27,5.59l-306.67,278.81c-17.34,15.76-19.74,42.68-5.47,61.28l26.54,34.59c15.47,20.16,13.01,48.29-5.72,65.45l-339.57,311.02c-.76.7-1.72,1.04-2.67,1.04Z" stroke-width="0"/>
    </g>
    <g>
      <g>
        <path d="M2581.63,1321.72s-152.66,227.94-169.78,326.03c-18.58,106.46,252.02,208.12,345.64,248.72,16.12,6.99,23.1,26.1,15.28,41.87-9.23,18.6-6.53,39.47,1.51,39.76,25.52.95,111.59-67.88,109.56-89.01-3.18-33.21-281.41-180.83-286.4-228.16-4.99-47.33,217.96-253.59,182.58-359.89-35.38-106.29-198.39,20.68-198.39,20.68Z" stroke-width="0"/>
        <g>
          <g>
            <path d="M2887.59,1870.51c10.45,13.14,29.39,37.84,43.7,61.57,8.98,14.88,5.19,34.15-8.52,44.82-38.75,30.16-130.36,92.24-215.69,132.73-5.84,2.77-18.03,4.52-28.92-7.75-35.77-40.28,25.42-96.76,92.13-179.84,5.46-6.79,14.34-9.83,22.8-7.79l7.95,1.92c17.82,4.31,41.3-4.27,52.18-19.06l19.32-26.29c3.7-5.04,11.15-5.2,15.04-.31Z" fill="#fff" stroke-width="0"/>
            <path d="M2697.92,2115.57c-7.21,0-15.46-2.91-22.71-11.07-32.06-36.1,6.35-82,59.5-145.53,10.51-12.57,21.38-25.56,32.51-39.41,6.39-7.96,16.91-11.55,26.82-9.16l7.95,1.92c16.17,3.91,38.18-4.13,48.06-17.56l19.32-26.29c2.51-3.41,6.36-5.41,10.58-5.49,4.32-.07,8.12,1.76,10.74,5.06h0c10.2,12.83,29.48,37.94,43.99,61.98,9.97,16.53,5.9,38.02-9.47,49.99-40.32,31.39-131.23,92.75-216.42,133.18-3.03,1.44-6.78,2.37-10.87,2.37ZM2787.87,1917.58c-5.54,0-10.93,2.5-14.49,6.93-11.17,13.92-22.07,26.94-32.61,39.54-50.61,60.49-87.17,104.2-59.64,135.2,10.9,12.27,22.12,7.82,24.27,6.8,84.61-40.15,174.9-101.1,214.95-132.27,12.21-9.51,15.46-26.55,7.56-39.65-14.28-23.67-33.32-48.47-43.4-61.15-1.08-1.35-2.79-2.1-4.4-2.07-1.74.03-3.32.86-4.36,2.27l-19.32,26.29c-11.76,16-37.01,25.23-56.29,20.57l-7.95-1.92c-1.42-.34-2.87-.51-4.3-.51Z" stroke-width="0"/>
          </g>
          <g>
            <path d="M2929.12,1928.53s1.47,2.39,2.17,3.55c8.98,14.88,5.19,34.15-8.52,44.82-38.75,30.16-130.36,92.24-215.69,132.73-5.84,2.77-18.03,4.52-28.92-7.75-3.34-3.76-7.33-11.73-7.33-11.73l5.91-3.11c84.22-44.31,165.09-94.74,241.96-150.9l10.41-7.61Z" fill="#fff" stroke-width="0"/>
            <path d="M2697.92,2115.57c-7.21,0-15.46-2.91-22.71-11.07-3.64-4.1-7.74-12.24-7.91-12.59-.97-1.93-.21-4.27,1.69-5.28l5.92-3.11c83.76-44.07,165-94.74,241.47-150.59l10.41-7.61c.89-.65,2.03-.9,3.09-.69,1.09.21,2.03.87,2.61,1.81l2.19,3.58c9.97,16.53,5.9,38.02-9.47,49.99-40.32,31.39-131.23,92.75-216.42,133.18-3.03,1.44-6.78,2.37-10.87,2.37ZM2676.2,2091.79c1.44,2.56,3.35,5.69,4.92,7.46,10.88,12.26,22.12,7.82,24.27,6.8,84.61-40.15,174.9-101.1,214.95-132.27,12.17-9.47,15.44-26.44,7.64-39.52l-6.94,5.07c-76.77,56.09-158.35,106.96-242.45,151.21l-2.39,1.26Z" stroke-width="0"/>
          </g>
        </g>
      </g>
      <g>
        <g>
          <path d="M2629.27,2242.33l-144.42,53.55,144.42-53.55Z" stroke-width="0"/>
          <path d="M2484.85,2299.83c-1.61,0-3.12-.99-3.71-2.58-.76-2.05.29-4.33,2.33-5.09l144.42-53.55c2.04-.76,4.32.29,5.09,2.33.76,2.05-.29,4.33-2.33,5.09l-144.42,53.55c-.45.17-.92.25-1.38.25Z" stroke-width="0"/>
        </g>
        <g>
          <path d="M2785.63,2075.46l25.46,16.76-95.57,142.76c-4.62,7.05-14.06,9.01-21.09,4.38-7.03-4.63-8.99-14.09-4.37-21.14l95.57-142.76Z" fill="#fff" stroke-width="0"/>
          <g>
            <polygon points="2727.79 2096.04 2829.67 2041.08 2848.71 2076.54 2746.83 2131.5 2727.79 2096.04" fill="#fff" stroke-width="0"/>
            <path d="M2746.83,2135.46c-.38,0-.77-.06-1.14-.17-1.01-.3-1.85-.99-2.35-1.92l-19.04-35.46c-1.03-1.92-.31-4.32,1.61-5.35l101.88-54.96c.93-.5,2.01-.61,3.01-.31,1.01.3,1.85.99,2.35,1.92l19.04,35.46c1.03,1.92.31,4.32-1.61,5.35l-101.88,54.96c-.58.31-1.23.47-1.88.47ZM2733.15,2097.65l15.29,28.49,94.91-51.21-15.29-28.49-94.92,51.21Z" stroke-width="0"/>
          </g>
        </g>
        <g>
          <g>
            <path d="M1958.61,1944.44c-181.02,43.97-292.2,226.71-248.34,408.17,43.87,181.46,226.17,292.91,407.19,248.94,181.02-43.97,292.2-226.71,248.34-408.17-43.86-181.45-226.17-292.91-407.19-248.94ZM2105.15,2550.62c-152.96,37.16-307.01-57.02-344.07-210.35-37.07-153.33,56.88-307.75,209.84-344.9,152.96-37.16,307.01,57.02,344.07,210.35,37.07,153.33-56.88,307.75-209.85,344.9Z" fill="#fff" stroke-width="0"/>
            <path d="M2037.42,2615.14c-61.8,0-122.6-16.95-176.73-49.96-77.98-47.56-132.77-122.72-154.26-211.65-44.31-183.28,68.4-368.53,251.25-412.94l.94,3.84-.94-3.84c88.46-21.49,179.97-7.2,257.71,40.21,77.98,47.56,132.76,122.72,154.25,211.64,44.31,183.28-68.4,368.53-251.25,412.94-26.86,6.53-54.01,9.75-80.97,9.75ZM2038.63,1938.76c-26.33,0-52.85,3.15-79.09,9.52-178.61,43.39-288.71,224.35-245.43,403.39,21,86.87,74.52,160.29,150.69,206.75,75.94,46.31,165.33,60.26,251.72,39.28,178.62-43.39,288.71-224.35,245.43-403.4-21-86.86-74.51-160.29-150.68-206.74-52.87-32.24-112.27-48.8-172.64-48.8ZM2037.52,2562.72c-52.33,0-103.83-14.35-149.66-42.31-66.03-40.27-112.42-103.92-130.62-179.22-37.52-155.2,57.92-312.06,212.75-349.67,74.89-18.19,152.4-6.1,218.23,34.05,66.03,40.27,112.42,103.92,130.62,179.21,37.52,155.2-57.92,312.07-212.75,349.68-22.75,5.53-45.74,8.26-68.57,8.26ZM2038.54,1991.18c-22.21,0-44.56,2.66-66.68,8.03-150.6,36.58-243.43,189.16-206.93,340.13,17.7,73.24,62.82,135.15,127.05,174.32,64.03,39.05,139.41,50.81,212.24,33.12l.94,3.84-.94-3.84c150.6-36.58,243.43-189.16,206.94-340.13-17.7-73.24-62.82-135.15-127.05-174.32-44.58-27.19-94.66-41.15-145.56-41.15Z" stroke-width="0"/>
          </g>
          <path d="M2121.96,2620.13c-190.95,46.38-383.95-71.61-430.22-263.02-46.27-191.41,71.43-384.88,262.39-431.26,190.95-46.38,383.95,71.61,430.22,263.02,46.27,191.41-71.43,384.88-262.39,431.26ZM1963.11,1963.03c-170.5,41.42-275.61,214.16-234.29,385.08,41.32,170.92,213.65,276.27,384.15,234.85,170.5-41.42,275.61-214.16,234.29-385.08-41.32-170.92-213.65-276.27-384.15-234.85Z" stroke-width="0"/>
        </g>
        <g>
          <g>
            <path d="M3083.94,1671.09c-181.02,43.97-292.2,226.71-248.34,408.17,43.87,181.46,226.17,292.91,407.19,248.94,181.02-43.97,292.2-226.71,248.34-408.17-43.86-181.45-226.17-292.91-407.19-248.94ZM3230.48,2277.27c-152.96,37.16-307.01-57.02-344.07-210.35-37.07-153.33,56.88-307.75,209.84-344.9,152.96-37.16,307.01,57.02,344.07,210.35,37.07,153.33-56.88,307.75-209.85,344.9Z" fill="#fff" stroke-width="0"/>
            <path d="M3162.75,2341.79c-61.8,0-122.6-16.95-176.73-49.96-77.98-47.56-132.76-122.72-154.26-211.64-44.31-183.28,68.4-368.53,251.25-412.94l.94,3.84-.94-3.84c88.46-21.49,179.98-7.2,257.71,40.21,77.98,47.56,132.76,122.72,154.25,211.64,44.31,183.28-68.4,368.53-251.25,412.94-26.86,6.53-54.01,9.75-80.97,9.75ZM3163.97,1665.41c-26.33,0-52.85,3.15-79.09,9.52-178.61,43.39-288.71,224.35-245.43,403.39,21,86.86,74.51,160.29,150.69,206.75,75.94,46.31,165.34,60.26,251.72,39.28,178.61-43.38,288.71-224.35,245.43-403.4-21-86.86-74.51-160.29-150.68-206.74-52.87-32.24-112.27-48.8-172.64-48.8ZM3162.85,2289.37c-52.33,0-103.82-14.35-149.66-42.31-66.04-40.27-112.42-103.92-130.63-179.22-37.52-155.2,57.92-312.07,212.75-349.67,74.89-18.19,152.4-6.1,218.23,34.05,66.04,40.27,112.42,103.92,130.63,179.22,37.52,155.2-57.92,312.07-212.76,349.68-22.75,5.53-45.74,8.26-68.57,8.26ZM3163.87,1717.83c-22.21,0-44.56,2.66-66.68,8.03-150.6,36.58-243.43,189.16-206.94,340.13,17.71,73.24,62.83,135.15,127.06,174.32,64.03,39.05,139.4,50.81,212.24,33.12,150.6-36.58,243.43-189.16,206.94-340.13-17.71-73.24-62.83-135.15-127.06-174.32-44.57-27.19-94.66-41.15-145.55-41.15Z" stroke-width="0"/>
          </g>
          <path d="M3247.29,2346.78c-190.96,46.38-383.96-71.61-430.23-263.02-46.27-191.41,71.44-384.88,262.39-431.26,190.95-46.38,383.95,71.61,430.22,263.02,46.27,191.41-71.44,384.88-262.39,431.26ZM3088.44,1689.67c-170.5,41.42-275.61,214.16-234.29,385.08,41.32,170.92,213.65,276.27,384.15,234.85,170.5-41.42,275.61-214.16,234.29-385.08-41.32-170.92-213.65-276.27-384.15-234.85Z" stroke-width="0"/>
          <path d="M3399.85,2087.81c-.44,0-.89-.07-1.33-.23l-140.61-50.07c-2.06-.73-3.13-3-2.4-5.05.73-2.06,2.98-3.13,5.06-2.4l140.61,50.07c2.06.73,3.13,3,2.4,5.05-.58,1.62-2.1,2.63-3.73,2.63Z" stroke-width="0"/>
        </g>
        <g>
          <ellipse cx="3163.37" cy="1999.64" rx="66.15" ry="66.31" fill="#fff" stroke-width="0"/>
          <path d="M3163.24,2069.93c-12.7,0-25.19-3.48-36.32-10.27-16.02-9.77-27.28-25.21-31.69-43.48-9.1-37.65,14.05-75.71,51.62-84.84,18.19-4.42,36.99-1.48,52.96,8.26,16.02,9.77,27.28,25.21,31.69,43.48,9.1,37.65-14.05,75.71-51.62,84.84-5.52,1.34-11.1,2-16.64,2ZM3163.48,1937.26c-4.91,0-9.86.59-14.76,1.78-33.33,8.1-53.88,41.87-45.8,75.29,3.92,16.21,13.91,29.92,28.12,38.58,14.17,8.64,30.85,11.24,46.97,7.33,33.33-8.1,53.88-41.87,45.8-75.29h0c-3.92-16.21-13.9-29.91-28.12-38.58-9.87-6.02-20.95-9.11-32.21-9.11Z" stroke-width="0"/>
        </g>
        <path d="M1902.07,2481.9c-.75,0-1.51-.21-2.18-.66-1.82-1.21-2.32-3.66-1.11-5.48l86.07-129.75c1.21-1.82,3.66-2.32,5.48-1.11,1.82,1.21,2.32,3.66,1.11,5.48l-86.07,129.75c-.76,1.15-2.02,1.77-3.3,1.77Z" stroke-width="0"/>
        <path d="M1978.22,2207.64c-1.11,0-2.21-.46-2.99-1.37l-105.6-122.36c-1.43-1.65-1.24-4.15.41-5.58,1.65-1.43,4.15-1.25,5.58.41l105.6,122.36c1.43,1.65,1.24,4.15-.41,5.58-.75.65-1.67.96-2.59.96Z" stroke-width="0"/>
        <g>
          <g>
            <path d="M2675.86,2211.13l-47.13,22.17,20.68,43.95,530.42-250.73c18.94-8.95,23.17-34.1,8.21-48.78l-409.64-401.89,8.73-102.91-48.23-4.8-8.85,104.29-598.2,37.78,3.05,48.49,591-37.32-42.51,501.18-533.85-431.8-30.44,37.81,559.33,452.41-2.56,30.16ZM3120.08,2002.17l-393.55,185.13,46.55-548.83,350.38,343.67c6.15,6.03,4.4,16.37-3.39,20.03Z" fill="#fff" stroke-width="0"/>
            <path d="M2649.41,2281.2c-.45,0-.9-.08-1.34-.23-.99-.36-1.8-1.09-2.24-2.04l-20.68-43.94c-.44-.95-.49-2.04-.14-3.03s1.09-1.79,2.04-2.24l45.07-21.2,2.19-25.8-557.7-451.08c-1.7-1.37-1.96-3.86-.6-5.56l30.44-37.81c.66-.82,1.62-1.34,2.66-1.45,1.04-.11,2.09.2,2.91.86l528.04,427.11,41.5-489.17-586.42,37.03c-1.1.07-2.08-.29-2.87-.98-.79-.69-1.27-1.67-1.33-2.72l-3.05-48.49c-.14-2.18,1.52-4.06,3.7-4.2l594.8-37.56,8.56-100.89c.09-1.06.6-2.03,1.41-2.71.82-.68,1.89-1,2.92-.89l48.23,4.8c2.15.21,3.74,2.12,3.55,4.27l-8.57,101.05,408.31,400.58c7.96,7.81,11.6,19.04,9.74,30.04-1.88,11.16-8.82,20.32-19.03,25.15l-530.42,250.73c-.54.25-1.11.38-1.69.38ZM2634,2235.2l17.3,36.78,526.83-249.04c7.84-3.71,13.16-10.74,14.61-19.31,1.45-8.58-1.28-16.99-7.48-23.07l-409.64-401.89c-.84-.83-1.27-1.98-1.17-3.16l8.4-99.02-40.36-4.02-8.51,100.29c-.17,1.95-1.73,3.49-3.69,3.61l-594.26,37.53,2.55,40.59,587.05-37.07c1.19-.07,2.28.36,3.08,1.18.8.82,1.21,1.96,1.11,3.1l-42.52,501.18c-.12,1.46-1.04,2.73-2.39,3.31-1.34.57-2.9.36-4.04-.56l-530.76-429.3-25.48,31.65,556.26,449.92c1.02.83,1.57,2.1,1.45,3.41l-2.56,30.16c-.12,1.41-.98,2.65-2.26,3.25l-43.55,20.49ZM2675.86,2211.13h.04-.04ZM2726.52,2191.26c-.8,0-1.58-.24-2.26-.71-1.16-.81-1.8-2.17-1.68-3.58l46.55-548.83c.13-1.53,1.13-2.84,2.57-3.38,1.43-.53,3.05-.19,4.15.88l350.39,343.67c3.81,3.74,5.56,9.12,4.66,14.39-.89,5.27-4.31,9.77-9.14,12.04l-393.55,185.13c-.54.25-1.11.38-1.68.38ZM2776.31,1647.18l-45.26,533.62,387.35-182.21c2.52-1.19,4.24-3.45,4.71-6.21.47-2.76-.41-5.46-2.4-7.42l-344.39-337.78ZM3120.08,2002.17h.04-.04Z" stroke-width="0"/>
          </g>
          <g>
            <path d="M2694.73,1449.08l-69.3,5.71c-9.47.78-17.78-6.27-18.59-15.76-1.54-18.13,11.4-34.28,29.4-36.67l98.29-13.08c25.22-3.36,50.19-8.34,74.77-14.92l38.36-10.27c23.21-6.22,46.98,7.94,52.64,31.35,2.68,11.09-2.53,22.59-12.63,27.87l-99.93,52.19-48.23-4.8c-9.92-14.8-27.05-23.06-44.78-21.6Z" fill="#fff" stroke-width="0"/>
            <path d="M2787.74,1479.45c-.13,0-.26,0-.39-.02l-48.23-4.8c-1.18-.12-2.24-.75-2.9-1.73-9.11-13.59-24.84-21.2-41.16-19.86l-69.3,5.71c-11.64.97-21.87-7.73-22.86-19.36-1.73-20.27,12.69-38.25,32.81-40.93l98.29-13.08c24.96-3.32,49.95-8.31,74.26-14.82l38.36-10.27c12.25-3.28,25-1.52,35.91,4.96,10.94,6.5,18.61,16.9,21.6,29.28,3.12,12.89-2.91,26.17-14.64,32.3l-99.93,52.19c-.57.3-1.19.45-1.83.45ZM2741.71,1466.93l45.24,4.51,98.88-51.64c8.51-4.44,12.87-14.08,10.61-23.43-2.49-10.29-8.87-18.94-17.96-24.34-9.06-5.38-19.66-6.84-29.82-4.12l-38.36,10.27c-24.64,6.6-49.97,11.65-75.27,15.02l-98.29,13.08c-15.93,2.12-27.34,16.36-25.97,32.42.62,7.3,7.01,12.74,14.32,12.15l69.3-5.71c18.53-1.53,36.46,6.8,47.31,21.79Z" stroke-width="0"/>
          </g>
          <g>
            <path d="M2043.18,2297.66l-39.9-16.54s86.03-143.78,73.18-318.37l18.92-448.13,49.15-14.56-21.73,533.51c-2.57,118.04-79.61,264.09-79.61,264.09Z" fill="#fff" stroke-width="0"/>
            <path d="M2043.18,2301.62c-.51,0-1.02-.1-1.51-.3l-39.9-16.54c-1.06-.44-1.88-1.32-2.24-2.41-.36-1.09-.23-2.29.36-3.27.85-1.43,85.23-144.8,72.63-316.05-.01-.15-.02-.31,0-.46l18.92-448.13c.07-1.69,1.21-3.15,2.83-3.63l49.15-14.56c1.23-.37,2.55-.11,3.55.67,1.01.78,1.58,2.01,1.52,3.28l-21.73,533.51c-2.55,117.53-79.29,264.31-80.06,265.78-.7,1.34-2.07,2.11-3.5,2.11ZM2008.93,2279.18l32.4,13.43c11.16-22.04,75.2-152.96,77.51-259.13l21.51-528.06-41.14,12.19-18.79,445.07c11.53,157.72-57.95,292-71.5,316.49Z" stroke-width="0"/>
          </g>
          <g>
            <ellipse cx="2034.95" cy="2273.74" rx="35.97" ry="36.06" fill="#fff" stroke-width="0"/>
            <path d="M2034.87,2313.77c-7.23,0-14.35-1.98-20.69-5.85-9.12-5.56-15.53-14.36-18.04-24.76-5.19-21.44,8-43.11,29.39-48.31,10.36-2.52,21.07-.84,30.17,4.71,9.12,5.56,15.53,14.36,18.04,24.76,5.19,21.44-8,43.11-29.39,48.31-3.15.76-6.33,1.14-9.48,1.14ZM2035,2241.63c-2.53,0-5.07.3-7.59.91-17.16,4.17-27.73,21.56-23.57,38.76,2.02,8.35,7.16,15.4,14.47,19.86,7.29,4.45,15.87,5.79,24.17,3.77,17.16-4.17,27.73-21.55,23.57-38.76h0c-2.02-8.35-7.16-15.4-14.47-19.86-5.08-3.1-10.78-4.69-16.58-4.69Z" stroke-width="0"/>
          </g>
        </g>
        <ellipse cx="2702.44" cy="2218.39" rx="93.07" ry="93.29" stroke-width="0"/>
        <path d="M2779.96,2092.86c-1.57,0-3.06-.94-3.68-2.5-.8-2.03.19-4.33,2.22-5.14l296.72-117.92c2.03-.81,4.33.18,5.14,2.22.8,2.03-.19,4.33-2.22,5.14l-296.72,117.92c-.48.19-.97.28-1.46.28Z" stroke-width="0"/>
        <path d="M2743.14,2304.95c-1.41,0-2.78-.76-3.49-2.09-1.03-1.93-.31-4.32,1.62-5.36l447.99-239.87c32.22-17.81,44.72-47.61,33.39-79.71-11.07-31.36-44.63-48.46-76.38-38.95-2.1.63-4.3-.56-4.93-2.66-.63-2.09.56-4.3,2.65-4.93,35.83-10.73,73.64,8.56,86.12,43.89,12.54,35.51-1.67,69.73-37.07,89.29l-448.03,239.89c-.6.32-1.23.47-1.86.47Z" stroke-width="0"/>
        <g>
          <polygon points="2517.4 2307.89 2406.6 2341.3 2395.03 2302.74 2505.82 2269.32 2517.4 2307.89" fill="#fff" stroke-width="0"/>
          <path d="M2406.6,2345.26c-.65,0-1.29-.16-1.87-.47-.92-.5-1.62-1.34-1.92-2.35l-11.57-38.56c-.63-2.09.56-4.29,2.65-4.93l110.79-33.41c1.01-.3,2.09-.19,3.02.3.92.5,1.62,1.34,1.92,2.35l11.57,38.56c.63,2.09-.56,4.29-2.65,4.93l-110.79,33.41c-.37.11-.76.17-1.14.17ZM2399.96,2305.38l9.3,30.98,103.21-31.13-9.3-30.98-103.21,31.13Z" stroke-width="0"/>
        </g>
        <g>
          <path d="M1897.58,1564.23l274.24-66.62,10.43,43.12-264.72,64.3c-.46.11-.9.26-1.34.39-6.83-2.28-13.64-4.67-20.42-7.15-16.31-5.97-15.48-29.75,1.38-33.94.14-.04.29-.07.43-.11Z" fill="#fff" stroke-width="0"/>
          <path d="M1916.19,1609.38c-.42,0-.85-.07-1.25-.2-6.6-2.2-13.5-4.61-20.53-7.19-9.23-3.38-14.86-11.96-14.32-21.86.52-9.63,6.84-17.34,16.11-19.64l.45-.11,274.25-66.62c1.02-.25,2.1-.08,2.99.47.9.55,1.54,1.43,1.79,2.45l10.43,43.13c.51,2.12-.79,4.26-2.91,4.77l-265.92,64.65c-.35.1-.72.15-1.08.15ZM1898.52,1568.07l-.41.1c-7.07,1.76-9.86,7.55-10.12,12.39-.26,4.82,1.98,11.38,9.14,14,6.54,2.39,12.97,4.65,19.13,6.72.11-.03.22-.06.34-.09l260.87-63.37-8.56-35.43-270.4,65.68Z" stroke-width="0"/>
        </g>
      </g>
      <g>
        <g>
          <g>
            <path d="M2508.1,2119.06c-5.11-6.31-8.75-19.15-9.89-27.2-9.64-67.57-4.4-125.63,7.8-158.2,42.7-114.08,30.36-208.88,19.7-254.03-4.19-17.75,1.88-36.35,15.88-48,57.24-47.62,200.16-174.83,255.26-300.41,69.63-158.69-147.28-244.85-147.28-244.85,0,0-271.22,471.14-283.79,527.89-12.56,56.75,55.39,424.47,49.66,478.7-6.37,60.38-34.59,111.14-34.59,111.14,0,0,40.8-20.96,71.91-32.6,35.74-13.38,61.57-44.71,55.32-52.43Z" fill="#fff" stroke-width="0"/>
            <path d="M2380.87,2208.05c-1.05,0-2.08-.42-2.84-1.2-1.21-1.25-1.46-3.15-.61-4.67.28-.5,27.9-50.81,34.11-109.63,2.5-23.72-9.71-111-22.63-203.41-16.75-119.77-34.08-243.61-26.97-275.73,12.55-56.69,273.14-509.75,284.23-529.01.98-1.7,3.08-2.42,4.89-1.7,4.78,1.9,117.33,47.44,153.02,134.35,15.15,36.89,13.95,75.84-3.57,115.77-55.26,125.94-197.69,253.06-256.36,301.87-12.87,10.7-18.45,27.58-14.56,44.05,10.99,46.57,23.03,141.79-19.85,256.33-10.46,27.94-17.95,83.67-7.59,156.26,1.18,8.29,4.76,19.96,9.05,25.26h0c1.29,1.6,2.56,4.5,1.27,9.26-3.96,14.51-28.87,38.36-58.28,49.37-30.54,11.43-71.09,32.21-71.49,32.42-.57.29-1.19.44-1.81.44ZM2651.26,1091.37c-23.3,40.57-269.84,470.58-281.61,523.74-6.8,30.73,11.19,159.4,27.08,272.93,13.56,96.94,25.27,180.65,22.66,205.34-4.71,44.67-20.95,83.65-29.59,101.83,14.31-7.05,40.31-19.45,61.6-27.42,27.71-10.37,48.55-31.42,52.95-42.63.88-2.24.78-3.38.67-3.62-6.31-7.81-9.77-22.45-10.72-29.11-8.84-61.96-5.77-123.33,8.01-160.15,42.14-112.58,30.34-206.04,19.55-251.73-4.58-19.41,2.01-39.31,17.21-51.95,58.24-48.45,199.59-174.57,254.17-298.96,16.63-37.88,17.8-74.75,3.5-109.58-31.18-75.93-126.86-120.59-145.48-128.68Z" stroke-width="0"/>
          </g>
          <g>
            <path d="M2365.79,1614.25c12.56-56.75,283.79-527.89,283.79-527.89,0,0,216.92,86.16,147.28,244.85-55.1,125.58-198.02,252.79-255.27,300.41-14,11.65-20.07,30.25-15.88,48,7,29.64,14.72,80.67,7.12,144.5-47.57-7.27-97.68,3.05-146.54,17.69-14.02-101.46-26.53-200.33-20.5-227.57Z" stroke-width="0"/>
            <path d="M2386.29,1845.78c-.75,0-1.5-.21-2.14-.63-.97-.63-1.62-1.64-1.78-2.79-16.41-118.77-26.16-203.16-20.45-228.96,12.55-56.69,273.13-509.74,284.22-529,.98-1.7,3.08-2.42,4.89-1.7,4.78,1.9,117.33,47.44,153.02,134.35,15.15,36.89,13.95,75.84-3.57,115.77-55.27,125.94-197.69,253.06-256.36,301.87-12.87,10.7-18.45,27.58-14.56,44.05,7.45,31.56,14.74,82.48,7.2,145.88-.13,1.06-.68,2.03-1.53,2.68-.85.65-1.92.92-2.99.76-50.58-7.73-103.95,5.33-144.8,17.57-.37.11-.75.17-1.14.17ZM2651.26,1091.37c-23.3,40.57-269.84,470.58-281.61,523.73-5.7,25.72,6.1,121.22,19.93,221.61,39.93-11.74,90.73-23.54,139.78-17.08,6.64-60.38-.36-108.84-7.5-139.1-4.58-19.41,2.01-39.31,17.2-51.95,58.24-48.45,199.59-174.56,254.17-298.96,16.63-37.88,17.8-74.75,3.5-109.58-31.18-75.93-126.86-120.59-145.48-128.68ZM2365.79,1614.25h.04-.04Z" stroke-width="0"/>
          </g>
          <g>
            <path d="M2412.15,1541.74l10.23,34.82c.56,1.92.75,3.93.54,5.91l-14.81,143.34c-.44,4.25-2.63,8.13-6.04,10.69l-19.86,14.94c-9.49,7.14-23.12,1.21-24.41-10.61l-14.09-129.43c-.37-3.35.38-6.74,2.13-9.62l38.52-63.68c6.9-11.4,24.02-9.17,27.78,3.62Z" fill="#fff" stroke-width="0"/>
            <path d="M2373.08,1758.51c-2.59,0-5.2-.53-7.7-1.62-6.45-2.79-10.75-8.63-11.51-15.63l-14.08-129.43c-.46-4.19.49-8.49,2.68-12.1l38.52-63.68c4.01-6.64,11.29-10.14,18.95-9.14,7.69,1,13.82,6.25,16,13.69l10.22,34.82c.71,2.41.94,4.92.68,7.44l-14.81,143.35c-.55,5.32-3.32,10.23-7.59,13.45l-19.86,14.94c-3.43,2.58-7.45,3.9-11.52,3.9ZM2397.35,1534.67c-3.96,0-7.47,1.98-9.59,5.49l-38.52,63.68c-1.29,2.13-1.85,4.67-1.58,7.14l14.08,129.43c.45,4.13,2.99,7.57,6.79,9.22,3.77,1.64,8.01,1.14,11.31-1.34l19.86-14.94c2.52-1.9,4.16-4.79,4.48-7.94l14.81-143.35c.15-1.49.02-2.97-.4-4.39l-10.23-34.82c-1.54-5.25-5.88-7.61-9.43-8.08-.53-.07-1.06-.1-1.58-.1Z" stroke-width="0"/>
          </g>
          <g>
            <path d="M2504.3,2132.15l-6.09-40.28c-28.03,9.27-55.88,15.06-82.76,1.09l-12.07,86.88c47.7,7.96,72.28-6.98,100.92-47.69Z" stroke-width="0"/>
            <path d="M2426.61,2185.93c-7.38,0-15.29-.75-23.88-2.19-2.11-.35-3.56-2.32-3.26-4.45l12.07-86.88c.18-1.27.96-2.38,2.1-2.97,1.14-.59,2.5-.59,3.64,0,24.42,12.69,49.51,8.64,79.69-1.34,1.1-.37,2.32-.22,3.31.39.99.61,1.67,1.63,1.84,2.78l6.09,40.28c.15,1.01-.09,2.03-.67,2.87-25.69,36.51-48.04,51.51-80.93,51.51ZM2407.84,2176.53c40.91,5.97,63.94-5.47,92.31-45.37l-5.15-34.1c-24.82,7.85-50.97,12.77-76.37,1.78l-10.79,77.69Z" stroke-width="0"/>
          </g>
          <g>
            <g>
              <path d="M2523.32,2130.3c7.41,16.63,20.57,47.69,29.17,76.46,5.39,18.05-3.8,37.23-21.07,44.69-48.81,21.09-161.7,61.28-262.15,80.53-6.88,1.32-20.13-.17-28.23-15.99-27.79-54.27,68.67-106,166.21-180.54l23.53,20.66c14.78,7.9,32.84,6.15,45.84-4.44l30.85-25.14c5.25-4.27,13.1-2.42,15.86,3.77Z" fill="#fff" stroke-width="0"/>
              <path d="M2265.18,2336.33c-9.24,0-20.6-4.72-27.67-18.53-23.97-46.82,36-90.03,111.92-144.74,18-12.97,36.62-26.39,55.41-40.75,1.5-1.15,3.59-1.07,5.02.17l23.18,20.35c13.32,6.93,29.4,5.29,41.08-4.23l30.85-25.14c3.47-2.83,7.95-3.85,12.3-2.82,4.34,1.03,7.86,3.97,9.68,8.04,7.23,16.23,20.65,47.81,29.34,76.94,5.94,19.89-4.07,41.15-23.29,49.46-50.77,21.94-162.7,61.57-262.98,80.79-1.51.29-3.14.45-4.83.45ZM2407.06,2140.57c-18,13.69-35.78,26.5-53.01,38.91-72.84,52.49-130.37,93.95-109.51,134.71,8.22,16.05,21.41,14.4,23.97,13.91,99.65-19.1,210.88-58.47,261.33-80.28,15.53-6.71,23.64-23.88,18.84-39.93-8.57-28.7-21.84-59.92-28.99-75.98-.81-1.81-2.37-3.11-4.29-3.56-1.92-.46-3.92,0-5.46,1.25l-30.85,25.14c-14.27,11.63-33.98,13.53-50.2,4.86-.27-.14-.52-.32-.75-.52l-21.09-18.52Z" stroke-width="0"/>
            </g>
            <g>
              <path d="M2551.17,2202.45s.9,2.91,1.32,4.31c5.39,18.05-3.8,37.23-21.07,44.69-48.81,21.09-161.7,61.28-262.15,80.53-6.88,1.32-20.13-.17-28.23-15.99-2.48-4.85-4.52-14.3-4.52-14.3l7.04-1.65c100.33-23.56,198.81-54.46,294.63-92.45l12.98-5.14Z" fill="#fff" stroke-width="0"/>
              <path d="M2265.18,2336.33c-9.24,0-20.6-4.72-27.67-18.53-2.69-5.25-4.77-14.86-4.86-15.27-.45-2.11.87-4.19,2.96-4.68l7.04-1.65c99.81-23.44,198.75-54.49,294.08-92.27l12.98-5.14c1.02-.41,2.17-.37,3.17.11.99.48,1.74,1.35,2.07,2.4l1.33,4.34c5.94,19.9-4.07,41.16-23.29,49.46-50.77,21.94-162.7,61.57-262.98,80.79-1.51.29-3.14.45-4.83.45ZM2241.29,2304.64c.83,3.15,2.03,7.16,3.26,9.55,8.22,16.05,21.41,14.4,23.97,13.91,99.65-19.1,210.88-58.47,261.33-80.28,15.53-6.71,23.64-23.88,18.84-39.93l-.06-.19-8.99,3.56c-95.68,37.93-195,69.09-295.19,92.62l-3.17.74Z" stroke-width="0"/>
            </g>
            <path d="M2395.95,2221.1c-.65,0-1.31-.16-1.92-.5l-48.4-26.9c-1.91-1.06-2.6-3.47-1.54-5.38,1.06-1.91,3.47-2.6,5.38-1.54l48.4,26.9c1.91,1.06,2.6,3.47,1.54,5.38-.72,1.3-2.07,2.04-3.46,2.04Z" stroke-width="0"/>
            <path d="M2360.12,2235.64c-.68,0-1.36-.17-1.98-.54l-39.01-22.65c-1.89-1.1-2.53-3.52-1.44-5.41,1.1-1.89,3.52-2.53,5.41-1.43l39.01,22.65c1.89,1.1,2.53,3.52,1.44,5.41-.73,1.26-2.06,1.97-3.43,1.97Z" stroke-width="0"/>
          </g>
        </g>
        <g>
          <g>
            <g>
              <path d="M2122.43,1004.54c-14.73,6.36-31.89,1.23-40.75-12.18l-34.76-52.65c-3.43-5.07-9.73-7.36-15.61-5.68l-33.86,9.7c-7.22,2.07-14.93-.94-18.85-7.36l-26.26-42.97c-.04-.07-.11-.11-.19-.12l-18.79-1.96c-3.74-.39-6.48-3.7-6.17-7.46l3.14-38.37c.61-7.47-9.4-44.07-2.35-46.58,0,0,99.7-88.7,153.83-54.56,14.34,9.04,22.3,25.51,22.11,42.49l-.24,21.49c-.27,24.21,7.96,48.05,24.34,65.84,4.37,4.75,9.24,9.08,14.55,12.9l53.85,37.55c9.22,6.43,9.9,19.87,1.35,27.16-19.48,16.61-52.04,42.69-75.32,52.74Z" fill="#fff" stroke-width="0"/>
              <path d="M2109.33,1011.22c-12.14,0-23.88-5.99-30.94-16.68l-34.76-52.65c-2.45-3.62-6.96-5.27-11.22-4.05l-33.86,9.7c-8.89,2.55-18.48-1.19-23.32-9.1l-25.31-41.4-16.97-1.77c-5.83-.61-10.19-5.87-9.71-11.72l3.14-38.37c.17-2-.87-8.06-1.87-13.92-3.39-19.86-5.02-32.41,1.29-35.69,8.38-7.37,103.44-89.02,158.11-54.55,14.99,9.45,24.17,27.03,23.96,45.88l-.24,21.49c-.27,24.09,8,46.51,23.29,63.12,4.22,4.58,8.91,8.74,13.95,12.37l53.8,37.52c5.42,3.78,8.71,9.73,9.03,16.34.32,6.59-2.37,12.81-7.38,17.08-22.14,18.87-53.35,43.45-76.32,53.36-4.76,2.06-9.75,3.04-14.68,3.04ZM2035.23,929.52c5.89,0,11.53,2.89,14.97,7.97l34.79,52.69c7.8,11.82,22.9,16.33,35.87,10.73,23.23-10.02,56.54-36.96,74.33-52.12,3.13-2.67,4.81-6.56,4.61-10.67-.2-4.14-2.26-7.86-5.65-10.23l-53.85-37.55c-5.52-3.98-10.62-8.5-15.19-13.47-16.67-18.1-25.68-42.45-25.38-68.57l.24-21.49c.18-16.12-7.59-31.11-20.26-39.1-51.01-32.18-148.12,53.3-149.09,54.17-.22.2-.47.37-.73.51-1.67,3.55,1.09,19.68,2.43,27.53,1.37,8,2.19,13.05,1.96,15.9l-3.14,38.37c-.13,1.6,1.05,3.04,2.64,3.2l18.79,1.96c1.2.13,2.47.91,3.11,1.93l26.3,43.03c2.98,4.88,8.91,7.19,14.39,5.62l33.86-9.7c1.66-.48,3.34-.71,5-.71ZM1929.31,802.65s0,0,0,0c0,0,0,0,0,0Z" stroke-width="0"/>
            </g>
            <path d="M2040.06,818.19c-1.49-20.92,7.24-31.51,1.49-40-3.15-4.65-8.87-6.02-12.13-6.8-16.17-3.88-30.28,8.41-60.6,28.22-37.65,24.59-41.81,27.73-50.77,27.87-22.77.37-43.82-19.12-52.85-38.58-2.53-5.46-15.18-34.77,3.61-60.37,13.56-18.48,38.12-27.68,62.71-23.59-.65-6.44-.42-15.98,5.72-23.17,14.56-17.05,50.77-7.3,63.44-3.89,11.72,3.15,33.45,10.85,55.17,31.26,2.79-3.53,13.51-16.24,30.32-17.64,25-2.08,41.54,22.66,43.06,25.02,17.81,27.53,4.01,63.7-6.41,91.01-7.49,19.64-11.43,24.47-17.99,34.1-1.72-.19-3.92-.44-6.2-.7-6.8-.77-11.57-7.09-10.45-13.85l.08-.47c1.18-7.17.97-14.54-1.04-21.52-1.6-5.56-4.32-10.98-8.93-12.43-7.43-2.35-15.56,4.59-16.73,5.59-7.43,6.34-9.04,15.49-9.07,22.11-.02,4.39-11.94,4.72-12.43-2.19Z" stroke-width="0"/>
          </g>
          <g>
            <g>
              <path d="M2156.1,890.62c32.79-75.82,43.71-163.91,17.73-208.73-35.73-50.54-127.66-47.05-200.33-25.63-73.42,27.17-122.78,81.25-179.45,114.04l79.12-6.16,12.56,36.08c25.29,7.79,49.3-1.12,73.59-6.5,12.65,21.61,30,84.23,33.19,108.53-17.15,17.65-41.27,8.37-57.91,34.2.06,26.7,16.74,42.36,39.23,68.96,102.4-39.84,166.31-74.86,182.27-114.79Z" fill="#fff" stroke-width="0"/>
              <path d="M1973.82,1009.37c-1.14,0-2.25-.49-3.02-1.4-2.72-3.22-5.36-6.29-7.9-9.23-18.69-21.69-32.2-37.37-32.26-62.28,0-.76.22-1.51.63-2.15,10.16-15.78,23.28-19.6,34.85-22.97,8.06-2.35,15.7-4.57,22.19-10.53-3.65-24.48-19.29-80.32-31.02-102.57-3.23.75-6.46,1.55-9.68,2.35-20.21,5-41.11,10.17-63.04,3.42-1.21-.37-2.16-1.29-2.57-2.48l-11.56-33.19-76.08,5.92c-1.71.14-3.54-1-4.08-2.77-.55-1.76.2-3.67,1.8-4.6,20.92-12.11,40.67-27.02,61.57-42.8,35.34-26.69,71.89-54.29,118.49-71.53,71.05-20.95,167.15-26.37,204.93,27.05,25.24,43.51,18.05,130.78-17.3,212.54-15.03,37.52-70.22,72.5-184.49,116.96-.47.18-.95.27-1.43.27ZM1938.57,937.62c.47,21.32,12.41,35.17,30.32,55.96,1.98,2.3,4.02,4.67,6.12,7.13,110.31-43.11,163.41-76.52,177.41-111.55.02-.03.03-.07.04-.1,34.44-79.62,41.81-163.99,17.93-205.18-35.17-49.71-127.47-43.95-195.78-23.82-45.24,16.75-81.32,43.99-116.21,70.34-16.39,12.38-32.08,24.23-48.28,34.69l62.74-4.88c1.68-.13,3.45.95,4.04,2.64l11.89,34.15c19.16,5.26,37.52.71,56.92-4.09,4.25-1.05,8.49-2.1,12.75-3.05,1.69-.37,3.41.38,4.27,1.86,12.81,21.88,30.36,84.59,33.7,110.01.16,1.2-.24,2.4-1.09,3.27-8.22,8.47-17.77,11.25-27.01,13.93-10.95,3.19-21.31,6.21-29.76,18.68Z" stroke-width="0"/>
            </g>
            <path d="M1873.17,768.11c-1.2,0-2.38-.54-3.16-1.57-1.32-1.74-.98-4.22.77-5.54l113.14-85.67c1.74-1.32,4.22-.97,5.54.77,1.32,1.74.98,4.22-.77,5.54l-113.14,85.67c-.71.54-1.55.8-2.38.8Z" stroke-width="0"/>
            <path d="M1974.12,815.51c92.25-12.55,201.32-24.04,221-41.15l-9.25,37.92c-47.34,17.04-119.87,28.02-200.24,37.11l-11.51-33.89Z" stroke-width="0"/>
            <path d="M1942.44,923.34c-.95,0-1.9-.34-2.66-1.03-30.44-27.63-44.99-65.44-43.24-112.36.08-2.18,1.98-3.89,4.1-3.81,2.18.08,3.89,1.92,3.81,4.1-1.68,45.11,11.62,79.85,40.65,106.21,1.62,1.47,1.74,3.97.27,5.59-.78.86-1.85,1.3-2.93,1.3Z" stroke-width="0"/>
            <path d="M1944.1,929.74c-1.57,0-3.06-.94-3.67-2.49-.81-2.03.18-4.33,2.21-5.14l158.09-63.02c2.03-.81,4.33.18,5.14,2.21.81,2.03-.18,4.33-2.21,5.14l-158.09,63.02c-.48.19-.98.28-1.46.28Z" stroke-width="0"/>
            <path d="M1966.05,633.21l21.09-5.49c2.64-.69,4.22-3.39,3.54-6.03l-10.78-41.61c-.69-2.64-3.38-4.23-6.02-3.54l-21.09,5.49c-2.64.69-4.22,3.39-3.54,6.03l10.78,41.61c.69,2.64,3.38,4.23,6.02,3.54Z" stroke-width="0"/>
            <path d="M1985.83,655.24c-1.76,0-3.37-1.18-3.83-2.96l-14.92-57.58c-.55-2.12.72-4.27,2.84-4.82,2.11-.55,4.28.72,4.82,2.84l14.92,57.58c.55,2.12-.72,4.28-2.84,4.82-.33.09-.67.13-1,.13Z" stroke-width="0"/>
          </g>
        </g>
        <g>
          <g>
            <path d="M2166.8,1001.66c33.17-19.93,53.42,19.9,65.78,56.64,17.94,53.35,18.52,219.27,15.22,248.06-4.33,37.82-91.53,145.68-174.26,235.82,0,0,4.09,43.24-42.73,63.03-46.82,19.79-93.88-17.6-100.61-37.47-6.73-19.87,83.8-70.47,83.8-70.47,0,0,115.86-173.84,113.76-251.86-1.31-48.59-15.79-100.39-15.39-161.96.19-29.45-13.04-57.87,8.41-78,6.51-6.11,38.15.95,46.03-3.79Z" fill="#fff" stroke-width="0"/>
            <path d="M2003.16,1614.8c-13.85,0-26.07-3.79-35.27-7.92-22.14-9.95-37.61-26.58-41.43-37.87-7.13-21.06,61.96-61.91,84.78-74.72,8.44-12.81,114.55-175.55,112.57-248.77-.57-21.1-3.66-42.87-6.92-65.92-4.27-30.15-8.69-61.32-8.47-96.17.05-8.2-.98-16.45-1.99-24.43-2.63-20.93-5.12-40.7,11.64-56.43,4.66-4.37,15.03-3.93,27.06-3.41,7.55.33,16.94.73,19.64-.89,10.16-6.11,20.01-7.47,29.26-4.07,16.26,5.98,30.1,26.54,42.3,62.83,18.08,53.76,18.81,219.95,15.4,249.77-4.51,39.47-92.72,147.98-174.17,236.84.14,8.82-1.9,46.89-45.21,65.19-10.18,4.3-20.04,5.96-29.19,5.96ZM2134.52,1006.77c-5.07,0-9.73.33-11.04,1.56-13.82,12.97-11.68,29.98-9.21,49.67,1.04,8.24,2.11,16.75,2.05,25.47-.22,34.26,4.16,65.14,8.39,95.01,3.3,23.28,6.42,45.27,7,66.82,2.11,78.37-109.66,247.02-114.42,254.16-.35.52-.82.95-1.36,1.26-42.16,23.56-85.49,55.4-81.99,65.74,3.2,9.43,17.31,24.27,37.18,33.19,13.84,6.22,35.19,11.6,58.13,1.9,43.46-18.37,40.49-57.37,40.34-59.02-.1-1.11.27-2.22,1.03-3.04,77.21-84.13,168.91-195.79,173.24-233.59,3.37-29.48,2.73-193.51-15.04-246.35-11.23-33.41-23.86-52.9-37.53-57.93-6.98-2.57-14.34-1.45-22.45,3.42-4.73,2.84-13.68,2.46-24.06,2.01-2.94-.13-6.7-.29-10.26-.29ZM2166.8,1001.66h.04-.04Z" stroke-width="0"/>
          </g>
          <g>
            <path d="M2153.41,873.84c72.6-10.56,316.63-20.46,586.82,253.22-61.35,65-126.44,126.39-227.7,152.89l-259.76-112.17c.22,24.53,8.31,174.05-10.42,172.78-48.31-3.28-113.95-76.88-113.95-76.88,0,0-21.67-148.14-36.12-213.92-15.3-69.63,8.8-124.47,25.5-152.1,7.77-12.87,20.77-21.66,35.62-23.82Z" fill="#fff" stroke-width="0"/>
            <path d="M2242.58,1344.52c-.17,0-.34,0-.5-.02-49.35-3.35-113.91-75.14-116.63-78.19-.52-.58-.85-1.29-.96-2.06-.22-1.48-21.82-148.75-36.07-213.65-15.7-71.46,9.54-127.79,25.98-155,8.45-14,22.47-23.36,38.44-25.69l.57,3.92-.57-3.92c69.54-10.12,317.69-21.68,590.21,254.36,1.5,1.52,1.52,3.95.06,5.5-59.58,63.12-126.38,127-229.58,154-.85.22-1.76.15-2.57-.2l-254.11-109.72c.09,3.32.22,7.4.37,12.08,2.4,74.25,2.95,144.56-9.15,156.24-1.96,1.89-4,2.35-5.49,2.35ZM2132.15,1261.91c7.52,8.21,67.1,71.75,110.47,74.7,5.05-2.68,10.56-31,6.7-150.42-.27-8.29-.47-14.72-.51-18.38-.01-1.34.65-2.59,1.77-3.33,1.11-.74,2.53-.87,3.76-.34l258.5,111.62c98.93-26.27,164.01-87.55,221.88-148.65-268.86-270.63-512.35-259.32-580.75-249.37-13.62,1.98-25.58,9.98-32.8,21.95-15.83,26.2-40.14,80.43-25.03,149.21,13.63,62.04,33.9,198.75,36,213Z" stroke-width="0"/>
          </g>
          <path d="M2252.92,1188.09c-2.03,0-3.76-1.56-3.94-3.62-6.92-81.36-7.72-108.6-7.72-108.86-.06-2.18,1.67-4,3.85-4.06,2.24-.03,4,1.66,4.06,3.85,0,.26.8,27.36,7.69,108.41.19,2.18-1.43,4.09-3.61,4.28-.12,0-.23.01-.34.01Z" stroke-width="0"/>
          <g>
            <path d="M2077.35,1532.07c-25.72-4.83-44.59-18.44-58.89-37.94-38.91,24.02-79.8,48.53-84.59,64.03,15.49,39.25,42.82,62.4,104.96,38.24,21.28-9.37,29.93-36.8,38.52-64.33Z" stroke-width="0"/>
            <path d="M1994.18,1610.18c-29.85,0-50.6-16.66-63.99-50.58-.33-.84-.36-1.76-.1-2.62,4.97-16.11,41.51-38.62,80.18-62.46l6.11-3.77c1.76-1.09,4.05-.64,5.27,1.03,14.76,20.13,33.22,32.04,56.43,36.39,1.11.21,2.08.88,2.66,1.85.58.97.73,2.14.39,3.22-8.68,27.84-17.66,56.63-40.7,66.77-17.38,6.76-32.75,10.17-46.25,10.17ZM1938.12,1558.1c18,44.29,47.79,54.63,99.28,34.6,18.55-8.17,27.1-32.86,34.88-57.66-22.12-5.11-40.11-16.82-54.8-35.66l-3.05,1.88c-33.04,20.37-70.37,43.37-76.31,56.84Z" stroke-width="0"/>
          </g>
        </g>
        <path d="M2538.68,1793.94c-.15,0-.31,0-.47-.03-2.17-.26-3.72-2.23-3.46-4.4,6.11-51.52,4.73-87.54-4.95-128.45-.5-2.13.82-4.26,2.94-4.76,2.12-.5,4.25.81,4.76,2.94,9.9,41.89,11.33,78.68,5.1,131.2-.24,2.01-1.95,3.49-3.93,3.49Z" fill="#fff" stroke-width="0"/>
      </g>
    </g>
    <g clip-path="url(#c)">
      <g>
        <g>
          <path d="M3393.02,2909.63s53.11,8.56,130.11,33.5c5.51,1.78,10.02,5.83,12.38,11.14l20.21,45.45c1.48,3.32,6.37,2.6,6.83-1.01l1.84-14.46c1.68-13.18,15.25-21.32,27.58-16.47,45.19,17.77,96.75,41.29,146.32,69.89-56.62,29.34-118.44,54.57-182.66,74.64l-1.06-.93c-10.83-11.67-4.74-30.74,10.83-33.93l10.16-2.08c4.24-.87,3.6-7.13-.72-7.12l-50.04.1c-5.86.01-11.44-2.49-15.31-6.91-14-15.99-28.2-32.73-42.27-50.11-8.62-10.65-4.63-26.63,8.02-31.85,5.32-2.2,4.32-10.04-1.38-10.82l-35.71-4.9c-5.49-.75-10.46-3.7-13.71-8.2-10.85-15-21.38-30.32-31.41-45.92Z" fill="#fff" stroke-width="0"/>
          <path d="M3555.62,3116.25c-.94,0-1.87-.34-2.6-.97l-1.06-.93c-.1-.09-.2-.19-.3-.29-6.08-6.55-8.08-15.55-5.34-24.08,2.72-8.5,9.56-14.63,18.28-16.42l6.65-1.36-46.45.1h-.05c-7.01,0-13.65-3.01-18.25-8.26-14.99-17.11-29.25-34.01-42.37-50.23-4.92-6.08-6.64-13.92-4.71-21.5,1.92-7.53,7.13-13.54,14.29-16.5,1.04-.43,1.09-1.3,1.03-1.79-.06-.48-.33-1.31-1.43-1.46l-35.71-4.9c-6.55-.9-12.52-4.47-16.38-9.8-11.35-15.69-21.96-31.2-31.53-46.1-.85-1.31-.84-3,.02-4.31.85-1.31,2.38-1.99,3.94-1.74.53.09,54.29,8.9,130.7,33.64,6.58,2.13,11.97,6.98,14.78,13.3l19.67,44.22,1.67-13.14c.96-7.54,5.25-14.08,11.77-17.94,6.47-3.83,14.18-4.46,21.17-1.71,51.91,20.41,102.69,44.67,146.85,70.14,1.25.72,2.01,2.07,1.98,3.52-.03,1.45-.85,2.76-2.14,3.42-56.84,29.46-118.5,54.66-183.3,74.9-.39.12-.78.18-1.18.18ZM3574.84,3064.29c3.94,0,7.09,2.85,7.5,6.78.41,3.94-2.11,7.38-5.99,8.18l-10.16,2.08c-5.88,1.2-10.49,5.35-12.33,11.08-1.73,5.4-.66,11.07,2.86,15.41,61.07-19.21,119.31-42.86,173.27-70.34-42.32-23.96-90.37-46.72-139.47-66.02-4.7-1.85-9.89-1.43-14.24,1.15-4.41,2.61-7.31,7.03-7.96,12.13l-1.84,14.46c-.43,3.4-2.99,6.02-6.38,6.52-3.43.51-6.59-1.27-7.99-4.4l-20.21-45.45c-1.89-4.27-5.53-7.54-9.98-8.98-57.76-18.7-102.36-28.21-120.57-31.72,8.15,12.4,16.97,25.17,26.3,38.07,2.59,3.59,6.62,5.99,11.04,6.6l35.71,4.9c4.35.6,7.65,3.93,8.21,8.29.56,4.37-1.8,8.43-5.86,10.11-4.84,1.99-8.35,6.05-9.65,11.14-1.31,5.13-.15,10.44,3.19,14.57,13.06,16.14,27.25,32.96,42.17,50,3.1,3.53,7.57,5.56,12.3,5.56h.03l50.03-.1h.02Z" stroke-width="0"/>
        </g>
        <g>
          <g>
            <path d="M3595.8,2291.25l.79-1.95c3.03-7.46,11.97-10.46,18.85-6.33,169.7,101.79,337.46,274.47,344.68,560.47-53.07,68.15-121.29,116.95-177.81,153.81-16.91-94.51-81.84-352.09-310.94-593.36-13.92-14.66-29.62-31.11-46.35-49.06-5.54-5.94-4.42-15.48,2.36-19.96l14-9.25c9.24-6.11,4.82-20.55-6.25-20.39l-48.48.69c-3.82.05-7.47-1.55-10-4.43-33.85-38.54-68.98-81.55-100.58-127.33-6.78-9.83,1.97-22.92,13.6-20.32,51.92,11.62,161.61,41.04,277.52,102.02,4.24,2.23,6.92,6.65,6.99,11.46l.28,19.89c.17,12.1,16.77,15.25,21.32,4.04Z" fill="#fff" stroke-width="0"/>
            <path d="M3782.32,3001.2c-.53,0-1.07-.11-1.57-.32-1.22-.53-2.09-1.63-2.33-2.94-17.56-98.16-82.92-352.28-309.92-591.34l-6.87-7.23c-11.93-12.55-25.46-26.78-39.5-41.85-3.44-3.69-5.07-8.68-4.47-13.7.6-5.01,3.34-9.48,7.54-12.25l14-9.26c3.3-2.18,3.65-5.61,2.89-8.1-.75-2.44-2.93-5.04-6.77-5.04-.04,0-.09,0-.12,0l-48.48.69c-5.11.09-9.75-2.04-13.03-5.77-39.99-45.52-72.98-87.29-100.86-127.69-4.03-5.85-4.07-13.43-.1-19.32,4.01-5.94,10.82-8.67,17.82-7.1,54.54,12.21,163.25,41.74,278.5,102.38,5.53,2.91,9.01,8.62,9.11,14.9l.28,19.89c.06,4.32,3.04,6.41,5.81,6.93,2.76.51,6.28-.34,7.89-4.33,0,0,0,0,0,0l.8-1.95c1.88-4.63,5.68-8.2,10.41-9.78,4.72-1.57,9.87-1.01,14.14,1.55,98.38,59.01,177.26,130.44,234.47,212.29,71.08,101.69,108.81,219.95,112.13,351.48.02.91-.27,1.81-.83,2.53-53.12,68.21-120.18,116.48-178.77,154.69-.65.42-1.4.64-2.16.64ZM3435.31,2301.26c6.73,0,12.34,4.15,14.34,10.62,2.02,6.56-.36,13.25-6.08,17.03l-14,9.25c-2.25,1.49-3.72,3.89-4.05,6.59-.32,2.7.56,5.39,2.4,7.37,14.01,15.04,27.53,29.26,39.44,41.8l6.88,7.23c224.08,235.98,291.69,486.69,310.89,589.51,56.5-37.12,120.22-83.75,170.99-148.55-6.41-236.19-121.71-423.18-342.72-555.76-2.28-1.37-5.03-1.67-7.56-.83-2.54.85-4.57,2.76-5.59,5.25l-.8,1.95c-2.77,6.82-9.51,10.47-16.68,9.13-7.23-1.36-12.16-7.23-12.26-14.6l-.28-19.89c-.05-3.38-1.92-6.45-4.88-8.01-114.44-60.21-222.38-89.54-276.55-101.66-4.45-1-7.84,1.31-9.52,3.81-1.7,2.53-2.59,6.58.05,10.4,27.7,40.14,60.51,81.67,100.29,126.96,1.73,1.96,4.22,3.08,6.84,3.08.04,0,.08,0,.13,0l48.47-.69c.08,0,.16,0,.24,0Z" stroke-width="0"/>
          </g>
          <path d="M3845.74,2741.17c-1.58,0-3.08-.96-3.69-2.52-82.43-211.92-226.74-331.43-228.19-332.61-1.69-1.38-1.94-3.87-.56-5.57,1.38-1.69,3.86-1.95,5.56-.56,1.46,1.19,147.34,121.92,230.56,335.87.79,2.04-.22,4.33-2.25,5.12-.47.18-.95.27-1.43.27Z" stroke-width="0"/>
        </g>
        <g>
          <g>
            <path d="M3894.49,2579.48l-33.56-26.14c-3.03-2.36-4.94-5.87-5.24-9.71-6.7-84.09-5.42-174.57,10.8-264.36.91-5.06,6.92-7.27,10.92-4.05l8.76,7.05c5.32,4.28,12.85-1.28,10.35-7.65l-14.93-38.12c-2.48-6.34-2.95-13.32-1.21-19.91,2.02-7.63,4.16-15.24,6.43-22.83,1.91-6.4,10.83-6.72,13.27-.51,61.85,157.34,124.51,272.26,143.15,370.41,11.67,66.26-9.33,136.05-11.17,142.42-20.89,72.64-61.2,130.16-106.75,177.42-19.33-58.69-46.51-154.5-61.8-267.3-1.16-8.54,5.73-16.04,14.3-15.54l8.55.5c11.85.7,17.49-14.38,8.11-21.69Z" stroke-width="0"/>
            <path d="M3925.32,2887.45c-.29,0-.59-.03-.88-.1-1.35-.31-2.44-1.3-2.88-2.62-19.87-60.32-46.75-155.79-61.96-268.01-.71-5.27.95-10.52,4.56-14.42,3.58-3.87,8.63-5.91,13.9-5.6l8.55.5c4.39.28,7.05-2.55,8.07-5.26,1.03-2.73.88-6.62-2.62-9.35l-33.55-26.14c-3.9-3.04-6.37-7.6-6.76-12.51-7.53-94.54-3.88-183.83,10.85-265.38.68-3.75,3.22-6.79,6.8-8.13,3.59-1.34,7.51-.71,10.49,1.7l8.76,7.05c1.46,1.17,2.77.44,3.26.08.4-.29,1.63-1.38.92-3.2l-14.93-38.13c-2.79-7.15-3.27-15.09-1.34-22.37,2.04-7.72,4.22-15.44,6.46-22.95,1.36-4.54,5.29-7.6,10.03-7.8,4.7-.21,8.97,2.54,10.71,6.98,21.27,54.1,43.06,104.17,62.28,148.34,36.9,84.77,68.77,157.99,81.07,222.78,10.73,60.93-5.78,125.4-11.09,143.71l-.16.54c-18.56,64.56-53.79,123.13-107.7,179.07-.75.78-1.79,1.21-2.85,1.21ZM3877.02,2604.6c-2.68,0-5.23,1.11-7.07,3.1-1.99,2.15-2.91,5.06-2.52,7.97,14.61,107.8,40.05,200.06,59.58,260.31,50.43-53.54,83.57-109.53,101.24-170.99l.16-.56c5.2-17.9,21.34-80.88,10.91-140.08-12.13-63.87-43.83-136.71-80.54-221.05-19.25-44.23-41.07-94.37-62.39-148.6-.75-1.91-2.48-1.98-3.02-1.97-.65.03-2.22.29-2.78,2.16-2.22,7.43-4.37,15.07-6.39,22.72-1.5,5.66-1.12,11.86,1.07,17.46l14.93,38.12c1.79,4.56.34,9.57-3.61,12.46-3.93,2.88-9.12,2.76-12.91-.29l-8.76-7.05c-1.14-.92-2.32-.62-2.77-.45-.45.17-1.52.71-1.77,2.12-14.61,80.88-18.23,169.48-10.75,263.34.21,2.7,1.57,5.22,3.73,6.9l33.55,26.14c5.68,4.42,7.71,11.64,5.17,18.39-2.53,6.72-8.79,10.8-15.94,10.37l-8.55-.5c-.19-.01-.38-.02-.57-.02Z" stroke-width="0"/>
          </g>
          <path d="M3970.25,2777.59c-.19,0-.37-.01-.56-.04-2.16-.31-3.67-2.31-3.36-4.47,37.35-262.3-39.58-408.52-40.36-409.96-1.04-1.92-.32-4.32,1.6-5.36,1.93-1.04,4.32-.32,5.36,1.59.8,1.47,78.99,149.74,41.24,414.84-.28,1.97-1.97,3.4-3.91,3.4Z" fill="#fff" stroke-width="0"/>
        </g>
        <g>
          <g>
            <path d="M3522.87,2661.3l18.29-39.9c4.1-8.95,14.68-12.95,23.59-8.8,126.48,58.9,264.78,169.92,349.38,378.96-35.18,27.06-69.98,49.3-99.37,68.07-6.99,4.46-14.08,8.82-21.23,13.13-52.42-22.35-142.86-65.92-234.68-133.39-10.79-7.93-9.36-24.55,2.64-30.49l48.21-23.89c5.88-2.91,3.68-11.81-2.88-11.63l-117.46,3.38c-4.62.13-9.11-1.52-12.52-4.65-35.5-32.6-69.48-69.09-99.64-109.67-7.52-10.12-2.6-24.67,9.53-28.01l17.06-4.71c6.35-1.75,5.82-10.95-.68-11.97l-54.1-8.46c-5.26-.82-9.91-3.94-12.6-8.56-27.22-46.78-49.01-98.12-62.7-154.25,0,0,86.52-3.64,199.6,31.05,5.27,1.62,9.47,5.65,11.4,10.84l26.9,72.51c1.9,5.11,9,5.38,11.27.42Z" stroke-width="0"/>
            <path d="M3793.53,3076.73c-.53,0-1.05-.11-1.55-.32-57.98-24.72-145.89-68.01-235.46-133.84-6.2-4.55-9.49-11.85-8.83-19.53.67-7.67,5.17-14.28,12.05-17.69l48.21-23.89c1.41-.7,1.27-1.97,1.14-2.48-.12-.51-.65-1.7-2.15-1.64l-117.46,3.38c-5.54.17-11.14-1.85-15.31-5.69-38.08-34.97-71.77-72.06-100.14-110.22-4.33-5.83-5.51-13.4-3.15-20.26,2.34-6.81,7.87-12.02,14.8-13.93l17.06-4.71c1.51-.42,1.61-1.69,1.58-2.22-.03-.53-.27-1.78-1.82-2.02l-54.1-8.46c-6.51-1.02-12.13-4.84-15.41-10.48-28.84-49.56-50.08-101.81-63.13-155.3-.28-1.15-.03-2.37.68-3.32.71-.95,1.81-1.53,2.99-1.57.85-.04,88.5-3.27,200.92,31.22,6.39,1.96,11.6,6.91,13.95,13.25l26.9,72.51c.46,1.22,1.5,1.39,1.94,1.41.39.02,1.48-.07,2.03-1.26l18.29-39.9c2.45-5.34,6.82-9.39,12.31-11.41,5.43-2,11.31-1.76,16.54.68,161.21,75.06,279.43,203.27,351.38,381.07.67,1.65.15,3.54-1.26,4.62-35.54,27.34-71.09,50.03-99.65,68.26-6.35,4.05-13.13,8.24-21.32,13.19-.63.38-1.33.57-2.04.57ZM3607.02,2869.41c4.7,0,8.59,3.04,9.74,7.64,1.18,4.72-.95,9.33-5.3,11.49l-48.21,23.89c-4.38,2.17-7.25,6.39-7.68,11.29-.43,4.9,1.68,9.56,5.63,12.47,88.01,64.68,174.42,107.46,232.02,132.14,7.37-4.46,13.58-8.31,19.42-12.03,27.79-17.74,62.22-39.72,96.7-66.03-71.28-174.42-187.76-300.27-346.25-374.07-3.31-1.54-7.02-1.69-10.46-.42-3.5,1.29-6.29,3.88-7.86,7.28l-18.29,39.9c-1.7,3.72-5.41,6.02-9.52,5.87-4.08-.15-7.64-2.73-9.06-6.56l-26.9-72.51c-1.5-4.04-4.8-7.19-8.84-8.43-96.06-29.47-173.67-31.11-193.4-30.97,12.95,51.07,33.49,100.97,61.08,148.39,2.08,3.57,5.65,5.99,9.79,6.64l54.1,8.46c4.8.75,8.22,4.52,8.5,9.39.28,4.87-2.69,9.01-7.38,10.3l-17.06,4.71c-4.47,1.23-7.91,4.47-9.42,8.87-1.53,4.46-.8,9.18,2.02,12.97,28.07,37.77,61.43,74.48,99.14,109.11,2.64,2.43,5.95,3.7,9.73,3.61l117.46-3.38c.1,0,.21,0,.31,0ZM3522.87,2661.3h.04-.04Z" stroke-width="0"/>
          </g>
          <path d="M3886.17,2942.2c-.49,0-.99-.09-1.47-.28-1.59-.63-160.56-64.98-321.53-194.62-1.7-1.37-1.97-3.86-.6-5.56,1.37-1.7,3.86-1.97,5.56-.6,160.06,128.9,317.92,192.8,319.5,193.43,2.03.81,3.02,3.11,2.21,5.14-.62,1.55-2.11,2.49-3.67,2.49Z" fill="#fff" stroke-width="0"/>
        </g>
      </g>
    </g>
  </g>
</svg>