<?xml version="1.0" encoding="UTF-8"?>
<svg id="a" data-name="Layer 1" xmlns="http://www.w3.org/2000/svg" viewBox="0 0 5000 3258.71">
  <g>
    <path d="M3821.74,2844.69c-.24,0-.48-.02-.72-.07-91-16.73-199.03-42.26-312.41-73.85-378.02-105.36-802-273.34-857.18-372.07-6.01-10.75-7.75-20.76-5.16-29.76,17.62-61.34,96.26-76.46,179.51-92.47,119.45-22.97,254.85-49.01,248.83-215.51-5.27-145.03-251.38-289.17-449.12-404.98-147.15-86.18-274.23-160.61-283.26-219.93-6.29-41.28,6.55-80.57,38.16-116.77,90.88-104.08,329.78-171.16,594.36-166.95l23.76.39c306.27,5.04,570.77,9.37,716.28-123.36,65.97-60.18,150.81-113.93,252.16-159.77,2.01-.91,4.37-.02,5.28,1.99.91,2.01.02,4.37-1.99,5.28-100.58,45.49-184.72,98.78-250.07,158.39-147.85,134.86-413.81,130.5-721.79,125.45l-23.76-.39c-262.26-4.21-498.81,61.81-588.22,164.22-29.99,34.35-42.2,71.47-36.28,110.32,8.46,55.55,134.02,129.09,279.41,214.25,209.82,122.89,447.63,262.17,453.06,411.58,6.26,173.33-132.69,200.06-255.3,223.63-80.78,15.53-157.08,30.21-173.35,86.84-1.97,6.88-.48,14.84,4.46,23.67,24.53,43.88,132.03,107.7,302.69,179.69,157.08,66.26,357.43,135,549.68,188.58,113.16,31.52,220.94,57,311.71,73.69,2.17.4,3.6,2.48,3.2,4.64-.35,1.92-2.03,3.27-3.92,3.27Z" stroke-width="0"/>
    <path d="M2084.47,3190.64c-.35,0-.71-.05-1.06-.14-50.91-14.02-91.62-67.52-130.98-119.27-35.41-46.55-72.03-94.68-114.88-111.88-31.1-12.49-53.44-20.58-73.16-27.73-40.93-14.83-67.97-24.63-130.15-58.49-40.55-22.09-104.66-27.47-166.65-32.67-73.44-6.16-149.38-12.54-193.47-46.07-82.16-62.52-147.79-124.29-200.65-188.84-56.61-69.09-95.67-138.99-116.09-207.75-10.85-36.44-16.6-73.14-17.07-109.08-.8-58.63,18.2-112.64,58.09-165.11,39.48-51.95,97.34-94.09,167.32-121.86,63.95-25.37,138.36-40.52,227.5-46.32,76.68-4.95,161.19-2.72,258.38,6.83,77.94,7.69,163.08,20.14,260.3,38.04,76.06,14.01,150.55,29.76,233.06,47.42l24.85,5.35c49.36,10.66,100.4,21.68,151,29.63,131.05,20.65,206.85,9.76,225.31-32.38,31.38-71.65-105.45-237.54-366.05-443.77-107.19-84.84-148.51-176.8-119.51-265.93,24.65-75.77,100.25-147.72,212.86-202.6,105.87-51.59,237.4-84.04,360.86-89.03,181.66-7.34,324.61-.34,439.45,5.28,209.47,10.26,347.86,17.03,512.02-71.99,55.65-30.18,93.82-54.42,127.49-75.81,59.53-37.8,106.55-67.67,215.35-110.17,2.06-.8,4.37.21,5.17,2.26.8,2.05-.21,4.36-2.26,5.17-108.08,42.22-154.81,71.9-213.98,109.48-33.78,21.45-72.07,45.77-127.97,76.08-166.11,90.08-305.37,83.27-516.21,72.94-114.69-5.61-257.42-12.6-438.74-5.28-264.49,10.69-518.6,139.05-566.46,286.13-27.88,85.68,12.54,174.62,116.87,257.21,126.58,100.17,415.87,344.87,368.4,453.23-20.1,45.88-98.78,58.35-233.86,37.06-50.82-7.98-101.97-19.03-151.44-29.71l-24.83-5.35c-82.45-17.64-156.87-33.38-232.83-47.37-96.99-17.86-181.92-30.28-259.63-37.95-96.75-9.51-180.85-11.74-257.09-6.81-88.29,5.74-161.91,20.71-225.07,45.77-68.63,27.24-125.31,68.48-163.92,119.27-38.77,51-57.24,103.4-56.46,160.18.46,35.21,6.09,71.18,16.74,106.91,20.11,67.74,58.68,136.7,114.62,204.97,52.46,64.06,117.66,125.4,199.31,187.54,42.25,32.12,117.01,38.4,189.31,44.47,65.7,5.52,127.77,10.73,169.8,33.61,61.66,33.58,88.47,43.29,129.05,58,19.78,7.17,42.19,15.29,73.41,27.83,44.9,18.02,82.19,67.05,118.26,114.46,38.56,50.69,78.44,103.11,126.75,116.41,2.12.59,3.37,2.78,2.79,4.9-.49,1.77-2.09,2.93-3.84,2.93Z" stroke-width="0"/>
  </g>
  <path d="M1794.34,2018.46c-.09,0-.18,0-.26,0-13.4-.87-26.93-2.37-40.19-4.43-2.18-.34-3.67-2.38-3.33-4.55.34-2.18,2.39-3.65,4.55-3.33,13.03,2.03,26.32,3.5,39.48,4.36,2.2.14,3.86,2.04,3.72,4.24-.14,2.11-1.89,3.73-3.98,3.73ZM1707.68,2004.18c-.34,0-.69-.04-1.03-.14-15.62-4.18-31.05-9.25-45.88-15.05-2.05-.8-3.06-3.12-2.26-5.17.8-2.05,3.11-3.06,5.17-2.26,14.55,5.7,29.7,10.67,45.03,14.78,2.13.57,3.39,2.76,2.82,4.88-.48,1.78-2.09,2.96-3.85,2.96ZM1618.77,1969.26c-.63,0-1.28-.15-1.88-.47-14.24-7.6-28.08-16.11-41.16-25.3-1.8-1.27-2.24-3.75-.97-5.56,1.27-1.81,3.75-2.23,5.56-.97,12.81,9,26.37,17.34,40.33,24.79,1.94,1.04,2.68,3.45,1.64,5.4-.72,1.34-2.1,2.11-3.52,2.11ZM1540.74,1914.16c-.96,0-1.92-.34-2.69-1.05-11.87-10.86-23.22-22.5-33.75-34.61-1.44-1.66-1.27-4.18.4-5.63,1.66-1.45,4.18-1.27,5.63.4,10.33,11.88,21.47,23.31,33.11,33.96,1.63,1.49,1.74,4.01.25,5.63-.79.86-1.86,1.3-2.94,1.3ZM1478.13,1841.96c-1.28,0-2.54-.62-3.31-1.75-9.17-13.56-17.37-27.62-24.39-41.77-.98-1.97-.17-4.37,1.8-5.35,1.97-.98,4.37-.17,5.35,1.8,6.86,13.83,14.89,27.57,23.86,40.84,1.23,1.82.75,4.3-1.07,5.54-.69.46-1.46.68-2.23.68ZM1435.93,1756.39c-1.68,0-3.25-1.07-3.79-2.76-4.99-15.43-8.78-31.27-11.25-47.09-.34-2.18,1.15-4.22,3.32-4.56,2.17-.34,4.22,1.15,4.56,3.32,2.41,15.4,6.1,30.84,10.97,45.87.68,2.1-.47,4.34-2.57,5.02-.41.13-.82.19-1.23.19ZM1421.3,1662.25h-.08c-2.2-.05-3.95-1.87-3.91-4.07.18-8.53.93-26.15,4.03-48.26.31-2.18,2.32-3.71,4.5-3.39,2.18.31,3.7,2.32,3.39,4.5-3.05,21.7-3.79,38.96-3.96,47.32-.04,2.17-1.82,3.91-3.99,3.91ZM1635.32,1659.15h-.09c-15.24-.34-31.45-2.06-48.17-5.11-2.17-.4-3.6-2.47-3.21-4.64.4-2.17,2.48-3.59,4.64-3.21,16.31,2.98,32.09,4.66,46.92,4.99,2.2.05,3.95,1.87,3.9,4.07-.05,2.17-1.82,3.9-3.98,3.9ZM1682.88,1655.04c-1.84,0-3.5-1.28-3.9-3.15-.46-2.15.91-4.27,3.07-4.74,16.25-3.48,30.69-9.21,42.92-17.03,1.85-1.19,4.32-.64,5.51,1.21,1.19,1.86.64,4.32-1.21,5.51-13.04,8.34-28.36,14.43-45.55,18.11-.28.06-.56.09-.84.09ZM1541.34,1642.58c-.39,0-.79-.06-1.18-.18-14.99-4.65-30.23-10.26-45.28-16.66-2.03-.86-2.97-3.21-2.11-5.23.86-2.03,3.2-2.97,5.23-2.11,14.81,6.3,29.79,11.81,44.52,16.39,2.1.65,3.28,2.89,2.63,4.99-.53,1.71-2.11,2.81-3.81,2.81ZM1453.31,1605.26c-.64,0-1.29-.15-1.89-.48-14.24-7.71-28.13-16.1-41.28-24.94-1.83-1.23-2.32-3.71-1.09-5.53,1.23-1.83,3.71-2.31,5.53-1.09,12.95,8.7,26.62,16.96,40.63,24.54,1.94,1.05,2.66,3.47,1.61,5.41-.72,1.33-2.09,2.09-3.51,2.09ZM1761.26,1604.35c-.81,0-1.62-.24-2.33-.75-1.79-1.29-2.19-3.78-.91-5.57,8.9-12.37,16.07-26.29,21.31-41.38.72-2.08,2.99-3.18,5.08-2.46,2.08.72,3.18,2.99,2.46,5.08-5.49,15.81-13.02,30.42-22.37,43.42-.78,1.08-2,1.66-3.24,1.66ZM1434.59,1567.47c-.33,0-.67-.04-1-.13-2.13-.55-3.41-2.73-2.86-4.86,4.2-16.18,9.34-31.63,15.27-45.94.84-2.04,3.18-3,5.21-2.16,2.03.84,3,3.18,2.16,5.21-5.79,13.97-10.81,29.07-14.92,44.89-.47,1.8-2.08,2.99-3.86,2.99ZM1374.08,1551.81c-.91,0-1.81-.31-2.56-.93-8.35-7.01-16.31-14.26-23.64-21.54-3.89-3.86-7.71-7.84-11.36-11.82-1.49-1.62-1.38-4.15.24-5.63,1.62-1.49,4.14-1.38,5.63.24,3.57,3.89,7.3,7.78,11.1,11.55,7.17,7.12,14.96,14.22,23.14,21.09,1.69,1.42,1.91,3.93.49,5.62-.79.94-1.92,1.42-3.06,1.42ZM1792.28,1515.15c-.06,0-.13,0-.19,0-2.2-.11-3.9-1.97-3.8-4.17.11-2.36.17-4.71.17-7.06,0-13.68-1.92-26.74-5.69-38.83-.66-2.1.52-4.34,2.62-5,2.1-.65,4.34.52,5,2.62,4.02,12.86,6.06,26.73,6.06,41.21,0,2.47-.06,4.96-.18,7.44-.1,2.14-1.87,3.8-3.98,3.8ZM1309.67,1481.43c-1.27,0-2.51-.6-3.29-1.73-9.04-13.12-17.35-27.1-24.68-41.57-1-1.96-.21-4.36,1.75-5.36,1.97-.99,4.37-.21,5.36,1.75,7.17,14.15,15.29,27.82,24.13,40.65,1.25,1.81.79,4.3-1.02,5.55-.69.48-1.48.7-2.26.7ZM1471.67,1479.6c-.74,0-1.48-.2-2.15-.63-1.85-1.19-2.4-3.65-1.21-5.51,9.05-14.12,19.31-26.86,30.5-37.87,1.57-1.55,4.1-1.53,5.64.04,1.55,1.57,1.53,4.09-.04,5.64-10.76,10.6-20.65,22.88-29.38,36.5-.76,1.19-2.05,1.84-3.36,1.84ZM1763.14,1426.6c-1.08,0-2.16-.44-2.95-1.3-10.03-11-22.63-19.9-37.45-26.46-2.02-.89-2.92-3.25-2.03-5.26.89-2.02,3.25-2.92,5.26-2.03,15.84,7.01,29.33,16.56,40.11,28.38,1.48,1.63,1.37,4.15-.26,5.63-.76.7-1.73,1.04-2.69,1.04ZM1539.53,1413.53c-1.38,0-2.72-.72-3.46-2-1.1-1.91-.44-4.35,1.47-5.44,7.45-4.28,15.31-8.1,23.36-11.37,6.77-2.74,14.01-5.23,21.52-7.4,2.1-.61,4.32.61,4.94,2.73.61,2.12-.61,4.33-2.73,4.94-7.25,2.09-14.22,4.49-20.74,7.12-7.72,3.13-15.25,6.79-22.39,10.89-.62.36-1.31.53-1.98.53ZM1266.38,1396.39c-1.64,0-3.17-1.01-3.75-2.64-5.31-14.8-9.91-30.37-13.68-46.29-.51-2.14.82-4.29,2.96-4.8,2.13-.5,4.29.82,4.8,2.96,3.7,15.63,8.22,30.92,13.43,45.44.74,2.07-.33,4.36-2.41,5.1-.45.16-.9.24-1.35.24ZM1678.29,1386.93c-.16,0-.33,0-.49-.03-14.78-1.81-30.77-2-46.93-.54-2.16.19-4.13-1.42-4.33-3.61-.2-2.19,1.42-4.13,3.61-4.33,16.71-1.51,33.27-1.31,48.61.57,2.19.27,3.74,2.26,3.47,4.44-.25,2.02-1.97,3.5-3.95,3.5ZM1244.15,1303.47c-1.96,0-3.68-1.45-3.95-3.45-2.09-15.5-3.55-31.65-4.32-48-.1-2.2,1.59-4.07,3.79-4.17,2.13-.07,4.07,1.59,4.17,3.8.77,16.12,2.2,32.04,4.26,47.31.29,2.18-1.24,4.19-3.42,4.49-.18.02-.36.04-.54.04ZM1239.45,1207.97s-.08,0-.11,0c-2.2-.06-3.94-1.9-3.87-4.1.45-15.7,1.47-31.86,3.03-48.03.21-2.19,2.12-3.77,4.35-3.59,2.19.21,3.8,2.16,3.58,4.35-1.54,15.99-2.55,31.97-2.99,47.49-.06,2.16-1.83,3.87-3.98,3.87ZM1248.54,1112.73c-.21,0-.42-.02-.63-.05-2.18-.34-3.66-2.39-3.31-4.56,2.48-15.56,5.4-31.02,8.92-47.26.47-2.15,2.6-3.51,4.74-3.05,2.15.47,3.52,2.59,3.05,4.74-3.49,16.09-6.38,31.4-8.84,46.82-.31,1.96-2.01,3.36-3.93,3.36ZM1268.81,1019.22c-.36,0-.72-.05-1.09-.15-2.12-.6-3.35-2.8-2.75-4.92,4.33-15.32,9.3-30.72,14.79-45.76.76-2.07,3.04-3.14,5.11-2.38,2.07.75,3.14,3.04,2.38,5.11-5.42,14.85-10.33,30.06-14.6,45.19-.5,1.76-2.1,2.91-3.84,2.91ZM1301.49,929.48c-.55,0-1.1-.11-1.63-.35-2.01-.9-2.91-3.26-2-5.27,6.49-14.45,13.63-28.97,21.22-43.14,1.04-1.94,3.45-2.67,5.4-1.63,1.94,1.04,2.67,3.46,1.63,5.4-7.5,14.01-14.56,28.36-20.98,42.64-.66,1.48-2.12,2.35-3.64,2.35ZM1346.56,845.22c-.72,0-1.45-.19-2.11-.6-1.87-1.17-2.44-3.63-1.27-5.5,8.34-13.37,17.31-26.79,26.66-39.89,1.28-1.8,3.77-2.21,5.56-.93,1.79,1.28,2.21,3.77.93,5.56-9.26,12.97-18.13,26.25-26.39,39.48-.76,1.21-2.06,1.88-3.39,1.88ZM1401.97,767.48c-.88,0-1.76-.29-2.5-.88-1.72-1.38-1.99-3.89-.61-5.61,9.87-12.26,20.34-24.55,31.12-36.55,1.47-1.64,4-1.77,5.63-.3,1.64,1.47,1.77,3.99.3,5.63-10.69,11.89-21.06,24.08-30.84,36.22-.79.98-1.94,1.49-3.11,1.49ZM1465.79,696.37c-1.02,0-2.03-.39-2.81-1.16-1.56-1.55-1.57-4.08-.02-5.64,11.09-11.16,22.73-22.33,34.6-33.22,1.62-1.49,4.15-1.38,5.63.24,1.49,1.62,1.38,4.15-.24,5.63-11.78,10.81-23.33,21.9-34.33,32.97-.78.78-1.81,1.18-2.83,1.18ZM1536.23,631.69c-1.14,0-2.27-.48-3.06-1.42-1.42-1.69-1.2-4.2.49-5.62,12.06-10.14,24.64-20.29,37.39-30.17,1.74-1.35,4.24-1.03,5.59.71,1.35,1.74,1.03,4.24-.71,5.59-12.67,9.82-25.17,19.9-37.14,29.97-.75.63-1.66.93-2.56.93ZM1611.9,573c-1.24,0-2.47-.58-3.25-1.66-1.28-1.79-.87-4.28.92-5.57,12.81-9.18,26.11-18.37,39.52-27.3,1.83-1.22,4.31-.73,5.53,1.11,1.22,1.83.72,4.31-1.11,5.53-13.34,8.88-26.56,18.01-39.3,27.14-.7.5-1.51.75-2.32.75ZM1691.62,519.89c-1.33,0-2.64-.67-3.39-1.89-1.16-1.87-.59-4.33,1.29-5.49,13.39-8.3,27.25-16.6,41.21-24.68,1.91-1.11,4.34-.45,5.45,1.46,1.1,1.91.45,4.35-1.46,5.45-13.89,8.03-27.68,16.29-41,24.55-.65.41-1.38.6-2.1.6ZM1774.55,471.9c-1.42,0-2.79-.76-3.51-2.09-1.05-1.94-.33-4.36,1.61-5.41,13.95-7.54,28.27-15.02,42.57-22.25,1.96-.99,4.36-.2,5.36,1.76.99,1.97.2,4.37-1.76,5.36-14.23,7.19-28.49,14.64-42.38,22.15-.6.33-1.25.48-1.89.48ZM1860.09,428.66c-1.49,0-2.93-.84-3.61-2.28-.94-1.99-.09-4.37,1.9-5.31,14.4-6.8,29.1-13.52,43.7-19.96,2.02-.88,4.37.02,5.26,2.04.89,2.02-.02,4.37-2.04,5.26-14.54,6.41-29.18,13.1-43.52,19.87-.55.26-1.13.38-1.7.38ZM1947.81,389.95c-1.57,0-3.06-.93-3.69-2.47-.84-2.04.13-4.37,2.17-5.2,14.82-6.09,29.85-12.05,44.69-17.7,2.06-.78,4.36.25,5.15,2.31s-.25,4.36-2.31,5.15c-14.78,5.63-29.75,11.56-44.5,17.62-.5.2-1.01.3-1.51.3ZM2037.47,355.83c-1.65,0-3.19-1.03-3.77-2.68-.72-2.08.37-4.35,2.45-5.08,15.96-5.57,31.36-10.67,45.77-15.15,2.1-.65,4.34.52,4.99,2.62.65,2.1-.52,4.34-2.62,4.99-14.33,4.45-29.64,9.52-45.51,15.06-.43.15-.88.22-1.31.22Z" stroke-width="0"/>
  <g>
    <path d="M2617.71,2505.91c12.41-.17,22.45-10.43,22.32-22.79l-20.83-1928.59c-.13-12.36-10.4-22.33-22.8-22.16-12.41.17-22.45,10.43-22.32,22.79l20.83,1928.59c.13,12.36,10.4,22.33,22.8,22.16Z" stroke-width="0"/>
    <g>
      <g>
        <path d="M1494.48,1166.25c373.06-200.7,752.59,195.8,1125.65-4.9-2.05-189.29-4.09-378.59-6.13-567.88-373.06,200.7-752.59-195.8-1125.65,4.9,2.04,189.29,4.09,378.59,6.13,567.88Z" fill="#fff" stroke-width="0"/>
        <path d="M2380.09,1223.62c-108.69,0-217.27-28.25-323.78-55.96-184.26-47.94-374.78-97.5-559.93,2.1-1.23.66-2.71.63-3.92-.08-1.2-.71-1.95-2-1.96-3.39l-6.13-567.88c-.02-1.48.79-2.85,2.1-3.56,187.91-101.09,379.97-51.12,565.72-2.8,184.25,47.94,374.78,97.5,559.93-2.1,1.22-.66,2.71-.63,3.92.08,1.2.71,1.94,2,1.96,3.39l6.13,567.88c.02,1.48-.79,2.85-2.1,3.56-80.16,43.12-161.08,58.76-241.94,58.76ZM1734.53,1103.98c108.69,0,217.27,28.25,323.78,55.96,183.54,47.75,373.33,97.12,557.81-.97l-6.04-558.92c-186.05,96.98-376.08,47.55-559.91-.28-183.55-47.75-373.33-97.12-557.81.97l6.04,558.92c78.25-40.79,157.22-55.68,236.13-55.68Z" stroke-width="0"/>
      </g>
      <g>
        <path d="M2430.08,936.03c62.48-5.8,124.83-22.66,187.01-56.11-.52-47.74-1.03-95.48-1.55-143.22-62.18,33.45-124.53,50.31-187.01,56.11.52,47.74,1.03,95.48,1.55,143.22Z" stroke-width="0"/>
        <path d="M2433.12,1217.46c62.48-5.8,124.83-22.66,187.01-56.11-.52-47.74-1.03-95.48-1.55-143.22-62.18,33.45-124.53,50.31-187.01,56.11.52,47.74,1.03,95.48,1.55,143.22Z" stroke-width="0"/>
        <path d="M2240.8,782.56c62.66,10.79,125.26,16.04,187.73,10.24-.52-47.74-1.03-95.48-1.55-143.22-62.48,5.8-125.08.55-187.73-10.24.52,47.74,1.03,95.48,1.55,143.22Z" stroke-width="0"/>
        <path d="M2243.87,1066.5c62.66,10.79,125.26,16.04,187.73,10.24-.52-47.74-1.03-95.48-1.55-143.22-62.48,5.8-125.08.55-187.73-10.24.52,47.74,1.03,95.48,1.55,143.22Z" stroke-width="0"/>
        <path d="M2054.27,882.36c62.71,16.32,125.43,32.63,188.08,43.42-.51-47.74-1.03-95.48-1.55-143.22-62.65-10.79-125.37-27.1-188.08-43.42.51,47.74,1.03,95.48,1.55,143.22Z" stroke-width="0"/>
        <path d="M2057.31,1163.8c62.71,16.32,125.43,32.63,188.08,43.42-.51-47.74-1.03-95.48-1.55-143.22-62.65-10.79-125.37-27.1-188.08-43.42.51,47.74,1.03,95.48,1.55,143.22Z" stroke-width="0"/>
        <path d="M1864.64,695.72c62.66,10.79,125.38,27.1,188.08,43.42-.52-47.74-1.03-95.48-1.55-143.22-62.71-16.32-125.43-32.63-188.08-43.42.52,47.74,1.03,95.48,1.55,143.22Z" stroke-width="0"/>
        <path d="M1867.7,979.66c62.66,10.79,125.38,27.1,188.08,43.42-.52-47.74-1.03-95.48-1.55-143.22-62.71-16.32-125.43-32.63-188.08-43.42.52,47.74,1.03,95.48,1.55,143.22Z" stroke-width="0"/>
        <path d="M1678.45,828.7c62.48-5.8,125.08-.55,187.73,10.24-.51-47.74-1.03-95.48-1.55-143.22-62.66-10.79-125.26-16.04-187.73-10.24.52,47.74,1.03,95.48,1.55,143.22Z" stroke-width="0"/>
        <path d="M1681.49,1110.14c62.48-5.8,125.08-.54,187.73,10.24-.51-47.74-1.03-95.48-1.55-143.22-62.66-10.79-125.26-16.04-187.73-10.24.52,47.74,1.03,95.48,1.55,143.22Z" stroke-width="0"/>
        <path d="M1489.9,741.6c62.18-33.45,124.53-50.31,187.01-56.11-.52-47.74-1.03-95.48-1.55-143.22-62.48,5.8-124.83,22.66-187.01,56.11.52,47.74,1.03,95.48,1.55,143.22Z" stroke-width="0"/>
        <path d="M1492.96,1025.53c62.18-33.45,124.53-50.31,187.01-56.11-.52-47.74-1.03-95.48-1.55-143.22-62.48,5.8-124.83,22.66-187.01,56.11.52,47.74,1.03,95.48,1.55,143.22Z" stroke-width="0"/>
      </g>
      <path d="M2380.09,1223.62c-108.69,0-217.27-28.25-323.78-55.96-184.26-47.94-374.78-97.5-559.93,2.1-1.23.66-2.71.63-3.92-.08-1.2-.71-1.95-2-1.96-3.39l-6.13-567.88c-.02-1.48.79-2.85,2.1-3.56,187.91-101.09,379.97-51.12,565.72-2.8,184.25,47.94,374.78,97.5,559.93-2.1,1.22-.66,2.71-.63,3.92.08,1.2.71,1.94,2,1.96,3.39l6.13,567.88c.02,1.48-.79,2.85-2.1,3.56-80.16,43.12-161.08,58.76-241.94,58.76ZM1734.53,1103.98c108.69,0,217.27,28.25,323.78,55.96,183.54,47.75,373.33,97.12,557.81-.97l-6.04-558.92c-186.05,96.98-376.08,47.55-559.91-.28-183.55-47.75-373.33-97.12-557.81.97l6.04,558.92c78.25-40.79,157.22-55.68,236.13-55.68Z" stroke-width="0"/>
    </g>
  </g>
  <g>
    <g>
      <g>
        <path d="M3654.39,1462.06c-1.28,0-2.53-.61-3.3-1.74l-12.86-18.9c-1.24-1.82-.77-4.3,1.06-5.54,1.82-1.24,4.3-.77,5.54,1.05l12.86,18.9c1.24,1.82.77,4.3-1.06,5.54-.69.47-1.47.69-2.24.69Z" stroke-width="0"/>
        <path d="M3716,1552.57c-1.28,0-2.53-.61-3.3-1.74l-12.86-18.9c-1.24-1.82-.77-4.3,1.06-5.54,1.82-1.24,4.3-.77,5.54,1.05l12.86,18.9c1.24,1.82.77,4.3-1.06,5.54-.69.47-1.47.69-2.24.69Z" stroke-width="0"/>
        <path d="M3714.34,1473.7c-1.28,0-2.53-.61-3.3-1.75-1.24-1.82-.76-4.3,1.06-5.54l18.77-12.75c1.82-1.24,4.3-.76,5.54,1.06,1.24,1.82.76,4.3-1.06,5.54l-18.77,12.75c-.69.47-1.46.69-2.24.69Z" stroke-width="0"/>
        <path d="M3624.41,1534.79c-1.28,0-2.53-.61-3.3-1.75-1.24-1.82-.76-4.3,1.06-5.54l18.78-12.75c1.82-1.24,4.3-.76,5.54,1.06,1.24,1.82.76,4.3-1.06,5.54l-18.78,12.75c-.69.47-1.46.69-2.24.69Z" stroke-width="0"/>
      </g>
      <g>
        <path d="M3472.72,1772.96c-1.28,0-2.53-.61-3.3-1.74l-7.7-11.31c-1.24-1.82-.77-4.3,1.06-5.54,1.82-1.24,4.3-.77,5.54,1.05l7.7,11.31c1.24,1.82.77,4.3-1.06,5.54-.69.47-1.47.69-2.24.69Z" stroke-width="0"/>
        <path d="M3509.58,1827.11c-1.28,0-2.53-.61-3.3-1.74l-7.7-11.31c-1.24-1.82-.77-4.3,1.06-5.54,1.82-1.24,4.3-.77,5.54,1.05l7.7,11.31c1.24,1.82.77,4.3-1.06,5.54-.69.47-1.47.69-2.24.69Z" stroke-width="0"/>
        <path d="M3508.58,1779.92c-1.28,0-2.53-.61-3.3-1.75-1.24-1.82-.76-4.3,1.06-5.54l11.24-7.63c1.82-1.24,4.3-.76,5.54,1.06,1.24,1.82.76,4.3-1.06,5.54l-11.24,7.63c-.69.47-1.46.69-2.24.69Z" stroke-width="0"/>
        <path d="M3454.78,1816.47c-1.28,0-2.53-.61-3.3-1.75-1.24-1.82-.76-4.3,1.06-5.54l11.23-7.63c1.82-1.23,4.3-.76,5.54,1.06,1.24,1.82.76,4.3-1.06,5.54l-11.23,7.63c-.69.47-1.46.69-2.24.69Z" stroke-width="0"/>
      </g>
      <path d="M3754.08,1788.16c-9.66,0-19.04-3.09-26.97-8.97-20.1-14.92-24.44-43.35-9.69-63.39,7.13-9.67,17.6-15.98,29.5-17.77,11.99-1.8,23.98,1.21,33.76,8.47,20.1,14.92,24.45,43.35,9.69,63.39-7.13,9.68-17.6,15.99-29.5,17.77-2.27.34-4.53.51-6.79.51ZM3753.69,1705.5c-1.85,0-3.72.14-5.59.42-9.78,1.47-18.4,6.65-24.25,14.61-12.16,16.51-8.57,39.95,8.01,52.26,8.07,5.98,17.93,8.46,27.83,6.99,9.78-1.47,18.4-6.66,24.25-14.61,12.16-16.51,8.56-39.95-8.01-52.26-6.54-4.85-14.28-7.4-22.24-7.4Z" stroke-width="0"/>
    </g>
    <g>
      <path d="M1170.05,748.8c-.47,0-.94-.08-1.41-.26-2.06-.78-3.1-3.08-2.33-5.14,68.57-182.05,304.8-422.98,607.55-510.89,2.12-.61,4.33.6,4.94,2.72.61,2.11-.6,4.33-2.72,4.94-300.26,87.19-534.43,325.8-602.31,506.05-.6,1.6-2.12,2.58-3.73,2.58Z" stroke-width="0"/>
      <path d="M1185.38,570.19c-.65,0-1.31-.16-1.92-.49-1.93-1.06-2.63-3.49-1.57-5.42,79.63-144.54,231.05-274.44,426.35-365.75,162.4-75.93,339.94-118.26,463.4-110.46,2.2.14,3.87,2.03,3.73,4.23-.14,2.2-1.98,3.92-4.23,3.73-209.77-13.29-697.75,137.2-882.26,472.1-.73,1.32-2.09,2.06-3.5,2.06Z" stroke-width="0"/>
      <path d="M2233.93,109.4c-1.64,0-3.3-.13-4.97-.4-8.21-1.32-15.39-5.75-20.24-12.47-4.82-6.68-6.75-14.83-5.43-22.96,2.73-16.81,18.69-28.26,35.57-25.55,8.21,1.32,15.39,5.75,20.24,12.47,4.82,6.68,6.75,14.83,5.43,22.96-2.46,15.15-15.67,25.95-30.61,25.95ZM2233.9,55.6c-11.1,0-20.91,8.02-22.74,19.26-.98,6.01.45,12.06,4.02,17.01,3.6,4.99,8.94,8.28,15.04,9.26,12.54,2.01,24.4-6.49,26.44-18.96.98-6.01-.45-12.06-4.02-17.01-3.6-4.99-8.94-8.28-15.04-9.26-1.24-.2-2.48-.3-3.7-.3ZM2260.6,82.8h.04-.04Z" stroke-width="0"/>
      <path d="M1841.36,250.05c-.45,0-.91-.08-1.34-.23-1.39-.5-2.39-1.72-2.6-3.18l-7.88-53.89c-.2-1.36.32-2.73,1.37-3.62,1.05-.89,2.49-1.17,3.8-.75,24.14,7.81,47.74,17.74,47.98,17.83,1.25.53,2.15,1.66,2.38,3,.23,1.34-.24,2.71-1.25,3.62l-39.77,36.17c-.75.68-1.71,1.04-2.68,1.04ZM1838.36,197.99l5.86,40.08,29.56-26.88c-7.39-2.98-20.94-8.29-35.42-13.19Z" stroke-width="0"/>
    </g>
    <g>
      <path d="M1100.99,1853.34c-.72-.05-1.44-.24-2.13-.57-2.97-1.42-4.24-4.97-2.81-7.94l13.37-27.78c1.43-2.96,4.99-4.22,7.98-2.79,2.97,1.42,4.24,4.97,2.81,7.94l-13.37,27.78c-1.1,2.28-3.46,3.54-5.85,3.36Z" stroke-width="0"/>
      <path d="M1069.84,1918.06c-.72-.05-1.44-.24-2.13-.57-2.97-1.42-4.24-4.97-2.81-7.94l13.37-27.78c1.42-2.96,4.99-4.22,7.98-2.8,2.97,1.42,4.24,4.97,2.81,7.94l-13.37,27.78c-1.1,2.28-3.46,3.54-5.85,3.36Z" stroke-width="0"/>
      <path d="M1073.54,1862.96c-.72-.05-1.44-.24-2.13-.57l-27.92-13.3c-2.97-1.42-4.24-4.97-2.81-7.94,1.43-2.96,4.99-4.22,7.98-2.79l27.92,13.3c2.97,1.42,4.24,4.97,2.81,7.94-1.1,2.28-3.46,3.54-5.85,3.36Z" stroke-width="0"/>
      <path d="M1138.59,1893.96c-.72-.05-1.44-.24-2.13-.57l-27.92-13.3c-2.97-1.42-4.24-4.97-2.81-7.94,1.43-2.96,4.99-4.22,7.98-2.79l27.92,13.3c2.97,1.42,4.24,4.97,2.81,7.94-1.1,2.28-3.46,3.54-5.85,3.36Z" stroke-width="0"/>
    </g>
  </g>
  <g>
    <path d="M2085.67,2337.63c-10.16-7.13-12.68-21.26-5.61-31.4l1103.11-1582.1c7.07-10.14,21.17-12.6,31.32-5.47s12.68,21.26,5.61,31.4l-1103.11,1582.1c-7.07,10.14-21.17,12.6-31.32,5.47Z" stroke-width="0"/>
    <g>
      <g>
        <path d="M3768.23,1862.94c-195.3-375.92-732.2-261.94-927.5-637.85,108.27-155.28,216.55-310.57,324.81-465.85,195.3,375.92,732.2,261.94,927.5,637.85-108.27,155.28-216.54,310.57-324.81,465.85Z" fill="#fff" stroke-width="0"/>
        <path d="M3768.23,1866.93c-.09,0-.17,0-.26,0-1.39-.09-2.64-.9-3.28-2.14-96.93-186.57-282.29-252.88-461.55-317.01-180.71-64.65-367.57-131.49-465.95-320.84-.68-1.32-.58-2.9.27-4.12l324.81-465.85c.8-1.14,2.14-1.79,3.53-1.7,1.39.09,2.64.9,3.28,2.14,96.93,186.57,282.29,252.88,461.56,317.01,180.71,64.65,367.57,131.49,465.94,320.84.68,1.32.58,2.9-.27,4.12l-324.82,465.85c-.75,1.07-1.97,1.71-3.27,1.71ZM2845.39,1225.39c97.24,184.93,281.87,250.99,460.44,314.88,178.85,63.98,363.72,130.13,462.88,315.03l319.69-458.5c-97.24-184.93-281.87-250.99-460.44-314.88-178.85-63.98-363.72-130.13-462.88-315.03l-319.69,458.5Z" stroke-width="0"/>
      </g>
      <g>
        <path d="M3124.66,1145.88c-48.36-39.97-90.4-89.01-122.95-151.67,27.31-39.16,54.62-78.32,81.92-117.49,32.55,62.66,74.59,111.7,122.95,151.67-27.31,39.16-54.61,78.33-81.92,117.49Z" stroke-width="0"/>
        <path d="M2963.69,1376.76c-48.36-39.97-90.4-89.01-122.95-151.67,27.31-39.16,54.62-78.32,81.92-117.49,32.55,62.66,74.59,111.7,122.95,151.67-27.31,39.16-54.61,78.33-81.92,117.49Z" stroke-width="0"/>
        <path d="M3367.5,1125.64c-57.86-26.37-112.55-57.27-160.91-97.24,27.31-39.16,54.61-78.33,81.92-117.49,48.37,39.97,103.06,70.88,160.91,97.24-27.31,39.16-54.62,78.32-81.92,117.49Z" stroke-width="0"/>
        <path d="M3205.09,1358.56c-57.86-26.37-112.55-57.27-160.91-97.24,27.31-39.16,54.61-78.33,81.92-117.49,48.37,39.97,103.06,70.88,160.91,97.24-27.31,39.16-54.62,78.33-81.92,117.49Z" stroke-width="0"/>
        <path d="M3465.46,1313.14c-61.01-21.82-122.03-43.65-179.88-70.02,27.3-39.17,54.61-78.33,81.92-117.49,57.85,26.36,118.87,48.19,179.88,70.02-27.3,39.17-54.61,78.33-81.92,117.49Z" stroke-width="0"/>
        <path d="M3304.48,1544.02c-61.01-21.82-122.03-43.65-179.88-70.02,27.3-39.17,54.61-78.33,81.92-117.49,57.85,26.36,118.87,48.19,179.88,70.02-27.3,39.17-54.61,78.33-81.92,117.49Z" stroke-width="0"/>
        <path d="M3727.26,1265.67c-57.86-26.36-118.87-48.19-179.88-70.02,27.31-39.16,54.62-78.32,81.92-117.49,61.01,21.82,122.03,43.65,179.88,70.02-27.31,39.16-54.62,78.32-81.92,117.49Z" stroke-width="0"/>
        <path d="M3564.85,1498.6c-57.86-26.37-118.87-48.19-179.88-70.02,27.31-39.16,54.62-78.32,81.92-117.49,61.01,21.82,122.03,43.65,179.88,70.02-27.31,39.16-54.62,78.32-81.92,117.49Z" stroke-width="0"/>
        <path d="M3806.26,1480.4c-48.37-39.98-103.06-70.88-160.91-97.24,27.3-39.16,54.61-78.33,81.92-117.49,57.86,26.37,112.55,57.27,160.91,97.24-27.31,39.16-54.61,78.33-81.92,117.49Z" stroke-width="0"/>
        <path d="M3645.28,1711.27c-48.37-39.98-103.06-70.88-160.91-97.24,27.3-39.17,54.61-78.33,81.92-117.49,57.85,26.37,112.55,57.27,160.91,97.24-27.31,39.16-54.61,78.33-81.92,117.49Z" stroke-width="0"/>
        <path d="M4011.13,1514.58c-32.55-62.65-74.59-111.7-122.95-151.67,27.31-39.16,54.61-78.33,81.92-117.49,48.36,39.97,90.41,89.02,122.95,151.67-27.31,39.16-54.61,78.33-81.92,117.49Z" stroke-width="0"/>
        <path d="M3848.72,1747.51c-32.55-62.66-74.59-111.7-122.95-151.67,27.31-39.16,54.61-78.33,81.92-117.49,48.36,39.97,90.41,89.02,122.95,151.67-27.31,39.16-54.61,78.33-81.92,117.49Z" stroke-width="0"/>
      </g>
      <path d="M3768.23,1866.93c-.09,0-.17,0-.26,0-1.39-.09-2.64-.9-3.28-2.14-96.93-186.57-282.29-252.88-461.55-317.01-180.71-64.65-367.57-131.49-465.95-320.84-.68-1.32-.58-2.9.27-4.12l324.81-465.85c.8-1.14,2.14-1.79,3.53-1.7,1.39.09,2.64.9,3.28,2.14,96.93,186.57,282.29,252.88,461.56,317.01,180.71,64.65,367.57,131.49,465.94,320.84.68,1.32.58,2.9-.27,4.12l-324.82,465.85c-.75,1.07-1.97,1.71-3.27,1.71ZM2845.39,1225.39c97.24,184.93,281.87,250.99,460.44,314.88,178.85,63.98,363.72,130.13,462.88,315.03l319.69-458.5c-97.24-184.93-281.87-250.99-460.44-314.88-178.85-63.98-363.72-130.13-462.88-315.03l-319.69,458.5Z" stroke-width="0"/>
    </g>
  </g>
  <g>
    <g>
      <polygon points="1405.68 2334.55 1419.85 2772.37 1886.99 2909.2 2470.02 2775.55 2771.13 2781.93 3407.02 2960.23 3107.5 2665.85 2221.35 2367.57 1405.68 2334.55" fill="#fff" stroke-width="0"/>
      <path d="M3407.03,2964.22c-.36,0-.72-.05-1.07-.15l-635.41-178.16-300.11-6.35-582.54,133.53c-.67.15-1.36.13-2.01-.06l-467.15-136.83c-1.65-.48-2.81-1.97-2.86-3.7l-14.17-437.82c-.04-1.11.39-2.18,1.18-2.96.79-.78,1.84-1.16,2.97-1.15l815.67,33.01c.38.02.75.08,1.11.2l886.16,298.28c.57.19,1.09.51,1.52.93l299.52,294.38c1.3,1.28,1.57,3.27.65,4.84-.72,1.25-2.06,1.99-3.45,1.99ZM2470.02,2771.57h.08l301.11,6.38c.33,0,.67.06.99.15l620.97,174.11-287.81-282.87-884.74-297.81-810.82-32.82,13.94,430.64,463.38,135.73,582.01-133.41c.29-.07.59-.1.89-.1Z" stroke-width="0"/>
    </g>
    <g>
      <polygon points="1864.17 2412.93 1864.17 2917.89 2499.66 2788.19 2769.11 2778.13 3407.02 2960.23 2768.51 2465.87 2263.4 2381.72 1929.96 2381.72 1864.17 2412.93" fill="#fff" stroke-width="0"/>
      <path d="M3407.03,2964.22c-.36,0-.73-.05-1.09-.15l-637.31-181.92-268.48,10.02-635.18,129.63c-1.18.23-2.39-.06-3.32-.82-.93-.76-1.47-1.89-1.47-3.09v-504.95c0-1.54.89-2.94,2.28-3.6l65.79-31.21c.53-.26,1.12-.39,1.71-.39h333.45c.22,0,.44.02.66.05l505.11,84.15c.65.11,1.27.38,1.79.78l638.51,494.36c1.51,1.17,1.98,3.25,1.12,4.95-.69,1.37-2.09,2.19-3.56,2.19ZM2769.11,2774.14c.37,0,.74.05,1.09.15l618.02,176.42-621.36-481.07-503.79-83.93h-332.22l-62.7,29.75v497.55l630.71-128.72c.21-.04.43-.07.65-.08l269.45-10.06s.1,0,.15,0Z" stroke-width="0"/>
    </g>
    <g>
      <g>
        <ellipse cx="3720.45" cy="2637.04" rx="181.98" ry="385.71" transform="translate(-327.22 536.53) rotate(-7.9)" stroke-width="0"/>
        <polygon points="3689.02 2252.03 3387.83 2293.3 3493.59 3057.44 3794.78 3016.17 3689.02 2252.03" stroke-width="0"/>
      </g>
      <g>
        <ellipse cx="3440.71" cy="2675.37" rx="181.98" ry="385.71" transform="translate(-335.14 498.44) rotate(-7.9)" fill="#fff" stroke-width="0"/>
        <path d="M3481.87,3062.23c-97.77,0-197.13-157.3-225.4-361.61-20.51-148.19,1.62-290.62,56.38-362.87,21.44-28.29,46.49-44.58,74.45-48.41,101.57-13.92,208.21,147.92,237.67,360.77,20.51,148.19-1.62,290.62-56.38,362.87-21.44,28.29-46.49,44.58-74.45,48.41-4.08.56-8.17.84-12.26.84ZM3399.84,2296.47c-3.83,0-7.65.26-11.47.78-25.78,3.53-49.06,18.78-69.18,45.32-53.54,70.65-75.06,210.76-54.83,356.95,28.87,208.5,131.58,367.29,228.69,353.96,25.78-3.53,49.06-18.78,69.18-45.32,53.54-70.65,75.06-210.76,54.83-356.95-27.73-200.3-123.51-354.74-217.22-354.74Z" stroke-width="0"/>
      </g>
      <path d="M3433.66,2897.87c-54.24,0-109.23-86.43-124.77-198.73-11.25-81.26.96-159.45,31.09-199.21,11.99-15.82,26.05-24.94,41.79-27.1,56.44-7.73,115.43,81.22,131.63,198.27,11.25,81.25-.96,159.45-31.09,199.21-11.99,15.82-26.05,24.94-41.79,27.1-2.29.31-4.58.47-6.87.47ZM3388.94,2480.33c-2.03,0-4.06.14-6.08.41-13.56,1.86-25.85,9.94-36.52,24.01-28.92,38.16-40.52,114.03-29.55,193.29,15.6,112.7,70.65,198.59,122.65,191.46,13.56-1.86,25.85-9.94,36.52-24.01,28.92-38.16,40.52-114.03,29.55-193.29-14.99-108.32-66.4-191.87-116.57-191.87Z" stroke-width="0"/>
      <ellipse cx="3433.04" cy="2669.58" rx="56.87" ry="120.54" transform="translate(-334.42 497.33) rotate(-7.9)" stroke-width="0"/>
    </g>
    <g>
      <polygon points="2977.2 2323.77 2977.2 2415.38 2790.7 2343.66 2977.2 2323.77" fill="#fff" stroke-width="0"/>
      <path d="M2977.2,2419.37c-.48,0-.97-.09-1.43-.26l-186.5-71.72c-1.72-.66-2.76-2.41-2.52-4.24.24-1.83,1.7-3.25,3.53-3.45l186.5-19.89c1.15-.12,2.25.24,3.09,1,.84.76,1.32,1.83,1.32,2.97v91.6c0,1.31-.65,2.54-1.73,3.29-.67.46-1.46.7-2.26.7ZM2807.56,2345.87l165.65,63.7v-81.36l-165.65,17.66Z" stroke-width="0"/>
    </g>
    <g>
      <polygon points="1529.7 2338.34 1448.28 2103.59 1579.62 2103.59 1703.47 2338.34 1529.7 2338.34" stroke-width="0"/>
      <g>
        <g>
          <rect x="1145.17" y="1905.39" width="1228.74" height="204" transform="translate(-118.58 110.48) rotate(-3.48)" stroke-width="0"/>
          <path d="M1152.55,2150.47c-2.09,0-3.85-1.63-3.98-3.74l-12.5-203.61c-.06-1.06.29-2.1.99-2.89.7-.79,1.69-1.27,2.75-1.34l1226.47-74.57c2.19-.14,4.09,1.54,4.22,3.73l12.5,203.61c.06,1.06-.29,2.1-.99,2.89-.7.79-1.69,1.27-2.75,1.34l-1226.47,74.57c-.08,0-.16,0-.25,0ZM1144.27,1946.61l12.02,195.65,1218.51-74.09-12.02-195.65-1218.51,74.09Z" stroke-width="0"/>
        </g>
        <g>
          <polygon points="1146.42 2046.67 2372.77 1970.1 2379.02 2071.91 1152.55 2146.48 1146.42 2046.67" fill="#fff" stroke-width="0"/>
          <path d="M1152.55,2150.47c-2.09,0-3.85-1.63-3.98-3.74l-6.13-99.81c-.13-2.2,1.53-4.09,3.73-4.23l1226.35-76.57c1.05-.07,2.1.29,2.89.99.79.7,1.28,1.69,1.34,2.74l6.25,101.81c.06,1.06-.29,2.1-.99,2.89-.7.79-1.69,1.27-2.75,1.34l-1226.47,74.57c-.08,0-.16,0-.25,0ZM1150.65,2050.4l5.64,91.86,1218.51-74.09-5.76-93.84-1218.39,76.07Z" stroke-width="0"/>
        </g>
      </g>
    </g>
    <g>
      <g>
        <path d="M2264.06,1952.4s-295.37-96.44-511.68,366.34l268.53-19.55s53.34-192.6,149.45-236.43c96.1-43.83,93.7-110.36,93.7-110.36Z" fill="#fff" stroke-width="0"/>
        <path d="M1752.38,2322.73c-1.31,0-2.54-.64-3.28-1.73-.8-1.17-.93-2.67-.33-3.95,112.33-240.34,246.52-327.78,339.3-358.8,100.97-33.77,174.16-10.64,177.23-9.64,1.59.52,2.69,1.98,2.75,3.65.1,2.83,1.38,69.7-96.03,114.13-93.3,42.55-146.73,231.96-147.26,233.87-.45,1.62-1.87,2.79-3.55,2.91l-268.53,19.55c-.1,0-.19,0-.29,0ZM2196.78,1948.14c-28.91,0-65.62,4.04-106.7,17.85-90.35,30.37-220.81,115.52-331.18,348.28l258.94-18.86c7.13-24.59,59.29-194.52,150.86-236.28,81.44-37.14,90.32-90.89,91.27-103.75-7.68-2.05-30.42-7.24-63.19-7.24Z" stroke-width="0"/>
      </g>
      <g>
        <path d="M2175.99,2027.43l136.57,10.13s-130.57,138.99-115.53,252.17l-187.65,10.29s57.43-223.33,166.6-272.59Z" fill="#fff" stroke-width="0"/>
        <path d="M2009.39,2304.01c-1.19,0-2.32-.53-3.08-1.46-.81-.98-1.1-2.29-.78-3.52,2.36-9.19,59.16-225.75,168.82-275.23.61-.27,1.28-.39,1.93-.34l136.57,10.13c1.53.11,2.86,1.1,3.42,2.53.56,1.43.24,3.06-.81,4.18-1.29,1.38-129.1,138.93-114.48,248.92.15,1.1-.17,2.21-.88,3.07-.71.85-1.74,1.38-2.85,1.44l-187.65,10.29c-.07,0-.15,0-.22,0ZM2176.72,2031.49c-96.36,44.49-152.51,230.41-162.02,264.26l177.89-9.76c-10.24-100.65,86.69-217.05,111.53-245.05l-127.4-9.45Z" stroke-width="0"/>
      </g>
      <path d="M2317.37,2016.67c0,29.91-19.94,35.19-62.76,35.19s-78.62-9.19-78.62-24.43c0-29.91,34.52-76.38,77.34-76.38s64.04,51.67,64.04,65.62Z" stroke-width="0"/>
    </g>
    <g>
      <path d="M3761,2947.28s-147.82-148.3-337.79-303.79c-95.75-78.37-204.26-150.29-316.02-210-62.95-33.63-131.21-63.35-193.88-81.39-22.19-6.39-45.33-12.49-67.16-16.33l123.71-13.68-392.83-66.73-450.58,27.74-725.37,40.67,463.09,97.98,353.92-27.52s614.39,106.21,1234.26,619.19l308.66-66.15Z" fill="#fff" stroke-width="0"/>
      <path d="M3452.35,3017.41c-.92,0-1.82-.32-2.54-.92-319.71-264.58-637.75-418.6-848.26-501.23-221.77-87.04-373.95-115.27-383.66-117.02l-353.41,27.48c-.39.02-.76,0-1.14-.07l-463.09-97.98c-1.96-.41-3.3-2.21-3.15-4.21s1.76-3.57,3.75-3.68l725.37-40.67,450.56-27.74c.3-.02.61,0,.92.05l392.83,66.73c1.96.33,3.38,2.06,3.32,4.05-.06,1.99-1.57,3.63-3.55,3.85l-98.65,10.91c15.52,3.61,30.4,7.75,42.76,11.31,59.18,17.04,126.49,45.29,194.65,81.71,112.21,59.95,221.72,132.71,316.67,210.43,187.95,153.84,336.61,302.57,338.09,304.06,1.03,1.03,1.41,2.55,1,3.95-.42,1.4-1.56,2.46-2.99,2.77l-308.66,66.14c-.28.06-.56.09-.84.09ZM2218.09,2390.25c.23,0,.46.02.68.06,1.54.27,156.64,27.66,385.46,117.44,210.79,82.71,529.06,236.79,849.18,501.37l299.57-64.2c-27.89-27.57-164.38-160.92-332.29-298.34-94.56-77.39-203.61-149.86-315.38-209.57-67.67-36.15-134.44-64.19-193.1-81.08-18.7-5.38-43.18-12.09-66.75-16.24-1.95-.34-3.36-2.07-3.29-4.06.07-1.98,1.58-3.62,3.55-3.84l95.42-10.55-364.32-61.88-450.13,27.71-695.46,39,433.2,91.65,353.35-27.47c.1,0,.21-.01.31-.01Z" stroke-width="0"/>
    </g>
    <g>
      <g>
        <ellipse cx="2387.03" cy="2809.43" rx="181.99" ry="385.7" transform="translate(-295.33 280.45) rotate(-6.33)" stroke-width="0"/>
        <polygon points="2433.14 3192.3 2148.77 3223.54 2063.92 2456.82 2353.22 2425.56 2433.14 3192.3" stroke-width="0"/>
      </g>
      <g>
        <ellipse cx="2106.34" cy="2840.18" rx="181.99" ry="385.7" transform="translate(-300.44 249.67) rotate(-6.33)" fill="#fff" stroke-width="0"/>
        <path d="M2139.38,3228.04c-98.6,0-195.03-160.89-217.9-367.6-16.45-148.68,9.55-290.46,66.26-361.2,22.21-27.7,47.69-43.31,75.75-46.38,101.96-11.17,204.09,153.5,227.73,367.07,16.45,148.68-9.56,290.46-66.26,361.2-22.21,27.7-47.69,43.31-75.75,46.38-3.27.36-6.55.54-9.82.54ZM2073.54,2460.29c-3.06,0-6.12.17-9.19.5-25.87,2.84-49.56,17.45-70.39,43.44-55.45,69.17-80.79,208.65-64.56,355.33,23.15,209.21,121.44,370.75,218.93,360.01,25.87-2.84,49.56-17.45,70.39-43.44,55.45-69.17,80.79-208.65,64.56-355.33-22.42-202.63-115.28-360.52-209.74-360.52Z" stroke-width="0"/>
      </g>
      <path d="M2093.35,3051.21c-54.7,0-108.09-88.41-120.67-202.05-9.02-81.53,5.31-159.36,36.52-198.29,12.42-15.49,26.73-24.23,42.52-25.96,56.6-6.19,113.17,84.31,126.17,201.75,9.02,81.53-5.31,159.36-36.52,198.29-12.42,15.5-26.73,24.23-42.52,25.96-1.83.2-3.67.3-5.5.3ZM2057.45,2632.57c-1.63,0-3.24.09-4.87.27-13.61,1.49-26.12,9.24-37.16,23.02-29.95,37.36-43.62,112.89-34.81,192.42,12.51,113.08,65.14,200.5,117.38,194.7,13.61-1.49,26.12-9.24,37.16-23.02,29.95-37.36,43.62-112.89,34.81-192.42-12.13-109.56-61.94-194.97-112.51-194.97Z" stroke-width="0"/>
      <ellipse cx="2100.32" cy="2847.66" rx="56.87" ry="120.53" transform="translate(-301.3 249.06) rotate(-6.33)" stroke-width="0"/>
    </g>
    <g>
      <g>
        <ellipse cx="1296.41" cy="2511.61" rx="151.95" ry="322.05" transform="translate(-269.13 158.33) rotate(-6.33)" stroke-width="0"/>
        <polygon points="1337.45 2830.86 1097.47 2857.38 1026.62 2217.19 1278.95 2189.54 1337.45 2830.86" stroke-width="0"/>
      </g>
      <g>
        <ellipse cx="1062.05" cy="2537.28" rx="151.95" ry="322.05" transform="translate(-273.4 132.63) rotate(-6.33)" fill="#fff" stroke-width="0"/>
        <path d="M1089.65,2861.79c-82.66,0-163.48-134.59-182.62-307.52-13.76-124.31,8.02-242.88,55.47-302.08,18.66-23.27,40.08-36.38,63.69-38.97,85.47-9.39,171.1,128.39,190.87,307.07,13.76,124.31-8.02,242.88-55.47,302.08-18.65,23.27-40.08,36.38-63.69,38.97-2.75.3-5.51.45-8.25.45ZM1034.68,2220.74c-2.54,0-5.08.14-7.62.42-21.42,2.35-41.05,14.47-58.33,36.03-46.2,57.63-67.3,173.9-53.76,296.21,18.69,168.85,95.92,300.42,174.46,300.44,2.54,0,5.07-.14,7.62-.42,21.42-2.35,41.05-14.47,58.33-36.03,46.2-57.63,67.3-173.9,53.76-296.21-18.69-168.85-95.92-300.44-174.45-300.44Z" stroke-width="0"/>
      </g>
      <path d="M1050.97,2714.15c-46.62,0-90.48-72.59-101.19-169.31-7.67-69.29,4.07-132.91,30.63-166.05,10.49-13.08,22.58-20.45,35.95-21.92,48.39-5.32,95,68.95,106.08,169.04,7.67,69.29-4.07,132.91-30.63,166.05-10.48,13.08-22.58,20.45-35.94,21.92-1.63.18-3.26.27-4.89.27ZM1021.24,2364.58c-1.34,0-2.68.07-4.01.22-11.19,1.22-21.48,7.61-30.59,18.98-24.9,31.07-36.26,93.94-28.93,160.18,10.09,91.14,51.38,162.2,93.27,162.21,1.34,0,2.68-.07,4.02-.22,11.18-1.22,21.48-7.61,30.59-18.98,24.9-31.07,36.26-93.94,28.93-160.19-10.08-91.15-51.38-162.21-93.27-162.21Z" stroke-width="0"/>
      <ellipse cx="1057.02" cy="2543.52" rx="47.49" ry="100.64" transform="translate(-274.12 132.12) rotate(-6.33)" stroke-width="0"/>
    </g>
    <polygon points="1947.76 2296.11 2245.37 2372.04 2650.44 2338.19 2437.93 2276.06 1947.76 2296.11" stroke-width="0"/>
    <g>
      <g>
        <path d="M2440.61,2332.82s13.1-133.24-74.03-171.8c-87.13-38.55-171.59-.23-195.87,92.41-6.69,25.51-2.97,70.93-2.97,70.93,49.74,9.06,103.18,21.22,272.88,8.46Z" fill="#fff" stroke-width="0"/>
        <path d="M2312.46,2342.37c-69.15,0-105.07-6.63-138.04-12.72l-7.41-1.36c-1.78-.32-3.11-1.8-3.26-3.6-.15-1.88-3.69-46.39,3.09-72.26,11.83-45.13,38.5-79.69,75.09-97.32,37.39-18.01,82.23-17.21,126.25,2.27,88.75,39.27,76.93,170.28,76.38,175.83-.19,1.93-1.74,3.44-3.67,3.59-53.06,3.99-94.71,5.57-128.44,5.57ZM2171.49,2321l4.38.81c48.24,8.9,102.86,18.99,261,7.29,1.22-20.62,4.01-130.84-71.91-164.43-41.86-18.52-84.32-19.36-119.56-2.38-34.46,16.6-59.61,49.33-70.84,92.16-5.46,20.82-3.74,56.05-3.07,66.56ZM2440.61,2332.82h.04-.04Z" stroke-width="0"/>
      </g>
      <g>
        <path d="M2210.68,2247.53c-14.44,10.25-17.5,48.54-4.76,56.51,12.74,7.97,163.05,16.16,235.33,4.67,4.39-.7-19.01-99.82-22.95-98.71-24.65,6.94-184.28,20.96-207.62,37.54Z" fill="#fff" stroke-width="0"/>
        <path d="M2343.28,2318.3c-64.43,0-130.07-4.99-139.48-10.88-8.12-5.08-9.67-17.2-9.87-23.97-.4-13.65,3.95-31.73,14.43-39.17,16.14-11.46,88.86-21.06,147.29-28.78,28.64-3.78,53.38-7.04,61.57-9.35,1.58-.44,3.24.05,4.44,1.32,6.02,6.35,26.42,94.12,23.72,102.08-.57,1.67-1.88,2.83-3.51,3.09-25.32,4.02-61.76,5.66-98.59,5.66ZM2416.63,2214.51c-10.37,2.35-32.54,5.28-59.93,8.89-51.44,6.79-129.19,17.06-143.71,27.37-6.72,4.77-11.48,18.72-11.08,32.43.25,8.55,2.6,15.24,6.12,17.44,10.52,6.58,154.19,15.77,229.79,4.54-.7-13.91-15.65-77.97-21.19-90.68ZM2210.68,2247.53h.04-.04Z" stroke-width="0"/>
      </g>
      <path d="M2200.54,2267.81c-1.98,0-3.7-1.48-3.95-3.5-.27-2.19,1.29-4.18,3.47-4.45l228.88-28.15c2.19-.24,4.18,1.29,4.45,3.47s-1.29,4.18-3.47,4.45l-228.88,28.15c-.17.02-.33.03-.49.03Z" stroke-width="0"/>
    </g>
    <g>
      <polygon points="3882.31 2638.26 3774.25 2619.99 3840.96 2794.71 3579.03 2968.01 2672.93 2938 2605.41 2846.03 2481.04 2809.48 2596.55 3133.51 2847.34 3175.54 3724.05 3109.75 4064.16 2936.62 3882.31 2638.26" fill="#fff" stroke-width="0"/>
      <path d="M2847.34,3179.53c-.22,0-.44-.02-.66-.05l-250.78-42.03c-1.43-.24-2.61-1.23-3.1-2.59l-115.52-324.03c-.5-1.41-.17-2.99.86-4.08,1.03-1.09,2.59-1.51,4.02-1.09l124.37,36.55c.84.25,1.57.76,2.09,1.47l66.38,90.4,902.9,29.91,258.21-170.84-65.58-171.74c-.51-1.34-.26-2.84.64-3.95.9-1.1,2.34-1.66,3.75-1.4l108.06,18.27c1.14.19,2.14.87,2.74,1.86l181.85,298.36c.58.95.74,2.1.43,3.16-.3,1.07-1.04,1.96-2.03,2.47l-340.11,173.13c-.47.24-.99.38-1.51.42l-876.71,65.79c-.1,0-.2.01-.3.01ZM2599.52,3129.96l247.99,41.56,875.44-65.69,335.56-170.82-178.66-293.13-99.39-16.81,64.23,168.2c.67,1.74.03,3.72-1.53,4.75l-261.93,173.3c-.69.46-1.5.71-2.33.66l-906.1-30.01c-1.22-.04-2.36-.64-3.08-1.63l-66.73-90.88-115.57-33.96,112.1,314.45Z" stroke-width="0"/>
    </g>
    <g>
      <polygon points="1660.54 2787.86 1622.09 2776.07 1672.44 2614.08 1710.31 2626.37 1660.54 2787.86" stroke-width="0"/>
      <polygon points="1718.77 2805.27 1680.32 2793.48 1730.67 2631.49 1768.54 2643.78 1718.77 2805.27" stroke-width="0"/>
      <polygon points="1602.32 2771.12 1506.65 2742.25 1557 2580.25 1652.09 2609.63 1602.32 2771.12" stroke-width="0"/>
    </g>
  </g>
</svg>