<?xml version="1.0" encoding="UTF-8"?>
<svg id="a" data-name="Layer 1" xmlns="http://www.w3.org/2000/svg" viewBox="0 0 5000 1815.38">
  <g>
    <ellipse cx="3381.53" cy="599.05" rx="128.65" ry="128.96" fill="#fff" stroke-width="0"/>
    <path d="M3381.54,731.97c-73.12,0-132.61-59.63-132.61-132.92s59.49-132.92,132.61-132.92,132.61,59.63,132.61,132.92-59.49,132.92-132.61,132.92ZM3381.54,474.05c-68.76,0-124.7,56.08-124.7,125.01s55.94,125.01,124.7,125.01,124.69-56.08,124.69-125.01-55.94-125.01-124.69-125.01Z" stroke-width="0"/>
  </g>
  <g>
    <path d="M2795.41,182.84c-2.19,0-3.96-1.77-3.96-3.96v-30.77c0-2.19,1.77-3.96,3.96-3.96s3.96,1.77,3.96,3.96v30.77c0,2.19-1.77,3.96-3.96,3.96Z" stroke-width="0"/>
    <path d="M2795.41,254.51c-2.19,0-3.96-1.77-3.96-3.96v-30.77c0-2.19,1.77-3.96,3.96-3.96s3.96,1.77,3.96,3.96v30.77c0,2.19-1.77,3.96-3.96,3.96Z" stroke-width="0"/>
    <path d="M2775,203.29h-30.7c-2.19,0-3.96-1.77-3.96-3.96s1.77-3.96,3.96-3.96h30.7c2.19,0,3.96,1.77,3.96,3.96s-1.77,3.96-3.96,3.96Z" stroke-width="0"/>
    <path d="M2846.51,203.29h-30.7c-2.19,0-3.96-1.77-3.96-3.96s1.77-3.96,3.96-3.96h30.7c2.19,0,3.96,1.77,3.96,3.96s-1.77,3.96-3.96,3.96Z" stroke-width="0"/>
  </g>
  <g>
    <path d="M1561.71,1571.6c-2.19,0-3.96-1.77-3.96-3.96v-30.77c0-2.19,1.77-3.96,3.96-3.96s3.96,1.77,3.96,3.96v30.77c0,2.19-1.77,3.96-3.96,3.96Z" stroke-width="0"/>
    <path d="M1561.71,1643.27c-2.19,0-3.96-1.77-3.96-3.96v-30.77c0-2.19,1.77-3.96,3.96-3.96s3.96,1.77,3.96,3.96v30.77c0,2.19-1.77,3.96-3.96,3.96Z" stroke-width="0"/>
    <path d="M1541.3,1592.05h-30.7c-2.19,0-3.96-1.77-3.96-3.96s1.77-3.96,3.96-3.96h30.7c2.19,0,3.96,1.77,3.96,3.96s-1.77,3.96-3.96,3.96Z" stroke-width="0"/>
    <path d="M1612.81,1592.05h-30.7c-2.19,0-3.96-1.77-3.96-3.96s1.77-3.96,3.96-3.96h30.7c2.19,0,3.96,1.77,3.96,3.96s-1.77,3.96-3.96,3.96Z" stroke-width="0"/>
  </g>
  <path d="M3022.98,168.59c-5.42,0-10.85-1.01-16.05-3.03-11.38-4.42-20.33-13.12-25.23-24.49-9.98-23.19.37-50.38,23.08-60.6,10.92-4.92,23.08-5.23,34.22-.9,11.38,4.42,20.34,13.12,25.24,24.49,9.98,23.19-.37,50.38-23.08,60.61-5.82,2.62-11.99,3.93-18.17,3.93ZM3022.96,84.44c-5.08,0-10.15,1.08-14.93,3.23-18.79,8.46-27.34,31.01-19.05,50.26,4.05,9.41,11.44,16.6,20.82,20.25,9.15,3.56,19.13,3.3,28.11-.74,18.79-8.46,27.35-31.01,19.06-50.26-4.05-9.41-11.45-16.6-20.83-20.25-4.28-1.66-8.73-2.49-13.18-2.49Z" stroke-width="0"/>
  <g>
    <ellipse cx="940.28" cy="573.6" rx="66.15" ry="66.31" fill="#fff" stroke-width="0"/>
    <path d="M940.15,643.89c-12.7,0-25.19-3.48-36.32-10.27-16.02-9.77-27.28-25.21-31.69-43.48-9.1-37.65,14.05-75.71,51.62-84.84,18.19-4.42,36.99-1.48,52.96,8.26,16.02,9.77,27.28,25.21,31.69,43.48,9.1,37.65-14.05,75.71-51.62,84.84-5.52,1.34-11.1,2-16.64,2ZM940.39,511.22c-4.91,0-9.86.59-14.76,1.78-33.33,8.1-53.88,41.87-45.8,75.29,3.92,16.21,13.91,29.92,28.12,38.58,14.17,8.64,30.85,11.24,46.97,7.33,33.33-8.1,53.88-41.87,45.8-75.29h0c-3.92-16.21-13.9-29.91-28.12-38.58-9.87-6.02-20.95-9.11-32.21-9.11Z" stroke-width="0"/>
  </g>
  <path d="M2915.29,813.02c-13.72-4.71-27.55-9.07-41.49-13.08,2.34-9.57,4.5-19.02,6.41-28.3,31.41-152.46,10.88-275.28-59.25-315.72-67.24-38.77-177.21,1.66-288.26,98.31-10.95,9.54-21.65,19.36-32.1,29.44-7-6.71-14.11-13.28-21.35-19.72-116.4-103.34-233.06-146.9-303.12-106.35-67.18,38.89-87.07,154.35-58.8,298.84,2.81,14.31,5.99,28.55,9.53,42.7-16.51,4.69-32.45,9.69-47.7,15-136.46,47.58-223.61,122.14-223.61,199.48s93.56,160,235.69,208.58c11.52,3.92,23.14,7.56,34.85,10.9-3.8,15.24-7.18,30.58-10.12,46.01-26.96,141.98-5.91,254.72,61.09,293.36,69.2,39.91,185.34-1.11,298.43-99.97,9.17-8.04,18.14-16.3,26.9-24.79,11.32,10.92,22.93,21.52,34.84,31.79,109.55,94.26,217.74,132.33,284.67,93.58,69.13-40.02,91.6-161.13,62.43-308.47-2.3-11.54-4.88-23.03-7.73-34.45,8.16-2.42,16.16-4.9,23.97-7.49,147.76-48.95,243.9-128.1,243.9-209.05s-89.96-152.69-229.17-200.61M2883.24,1170.41c-7.05,2.33-14.28,4.58-21.65,6.77-16.31-51.64-38.33-106.55-65.27-163.29,25.71-55.38,46.87-109.59,62.73-160.9,13.19,3.82,25.98,7.84,38.32,12.08,119.28,41.06,192.03,101.77,192.03,148.55,0,49.82-78.57,114.51-206.16,156.78M2830.3,1275.3c12.9,65.15,14.74,124.06,6.19,170.11-7.67,41.38-23.11,68.97-42.2,80.02-40.62,23.51-127.48-7.05-221.16-87.67-11.07-9.55-21.88-19.4-32.41-29.55,36.32-39.72,72.62-85.89,108.04-137.18,62.31-5.53,121.18-14.57,174.56-26.91,2.57,10.34,4.9,20.73,6.98,31.18M2294.96,1521.37c-39.68,14.01-71.29,14.41-90.4,3.4-40.66-23.45-57.56-113.97-34.5-235.39,2.74-14.35,5.88-28.62,9.41-42.79,52.8,11.68,111.23,20.08,173.69,25.14,35.67,50.18,73.01,96.31,110.65,136.7-8,7.74-16.19,15.28-24.55,22.62-50.01,43.71-100.12,74.73-144.29,90.32M2109.05,1170.1c-62.85-21.48-114.75-49.4-150.33-79.87-31.97-27.37-48.11-54.56-48.11-76.61,0-46.93,69.97-106.8,186.67-147.49,14.16-4.93,28.99-9.59,44.37-13.96,16.13,52.46,37.29,107.32,62.82,162.79-25.86,56.29-47.32,112.02-63.61,165.1-10.68-3.06-21.29-6.38-31.81-9.96M2171.37,745.87c-24.22-123.79-8.14-217.17,32.35-240.61,43.12-24.96,138.47,10.63,238.97,99.87,6.55,5.83,13,11.78,19.34,17.85-37.45,40.21-74.45,85.99-109.8,135.88-60.62,5.62-118.65,14.64-171.99,26.73-3.29-13.16-6.24-26.4-8.86-39.71M2727.35,883.16c-12.6-21.77-25.67-43.26-39.2-64.46,41.12,5.2,80.53,12.1,117.53,20.54-11.11,35.61-24.95,72.83-41.25,110.99-11.91-22.6-24.28-44.97-37.08-67.07M2500.62,662.33c25.4,27.52,50.83,58.23,75.85,91.56-50.75-2.4-101.59-2.41-152.34-.03,25.04-33.02,50.7-63.7,76.49-91.53M2272.44,883.53c-12.65,21.93-24.78,44.15-36.39,66.65-16.03-38.03-29.75-75.42-40.95-111.53,36.77-8.23,75.99-14.95,116.85-20.06-13.68,21.33-26.85,42.98-39.51,64.93h0ZM2313.12,1212.57c-42.22-4.71-82.02-11.09-118.79-19.1,11.38-36.75,25.4-74.94,41.78-113.79,11.65,22.51,23.84,44.75,36.54,66.69,13.06,22.56,26.58,44.65,40.47,66.19M2502.14,1368.8c-26.1-28.15-52.13-59.31-77.55-92.81,24.68.97,49.84,1.46,75.41,1.46s52.24-.59,77.8-1.73c-25.1,34.11-50.44,65.3-75.66,93.07M2764.95,1077.7c17.23,39.27,31.75,77.26,43.28,113.38-37.37,8.53-77.72,15.4-120.23,20.5,13.62-21.6,26.82-43.46,39.57-65.58,12.97-22.49,25.43-45.26,37.38-68.3M2679.87,1118.49c-19.52,33.92-40.15,67.19-61.83,99.77-39.28,2.78-78.65,4.16-118.04,4.14-40.11,0-79.13-1.25-116.7-3.69-22.25-32.5-43.27-65.83-63-99.92h0c-19.64-33.91-37.98-68.55-55-103.85,16.97-35.31,35.26-69.97,54.83-103.9h0c19.57-33.94,40.41-67.13,62.5-99.49,38.33-2.9,77.64-4.41,117.36-4.41h0c39.91,0,79.26,1.53,117.58,4.45,21.86,32.31,42.58,65.39,62.1,99.16,19.64,33.86,38.17,68.35,55.56,103.42-17.22,35.42-35.69,70.22-55.38,104.33M2793.45,503.62c43.16,24.89,59.94,125.27,32.83,256.91-1.73,8.4-3.68,16.95-5.79,25.63-53.48-12.35-111.55-21.52-172.34-27.23-35.41-50.43-72.11-96.29-108.95-135.98,9.65-9.31,19.54-18.37,29.65-27.19,95.16-82.81,184.09-115.5,224.61-92.14M2500,898.53c63.56,0,115.1,51.53,115.1,115.1s-51.53,115.1-115.1,115.1-115.1-51.53-115.1-115.1,51.53-115.1,115.1-115.1" stroke-width="0"/>
</svg>