<?xml version="1.0" encoding="UTF-8"?>
<svg id="a" data-name="Layer 1" xmlns="http://www.w3.org/2000/svg" viewBox="0 0 5000 3258.71">
  <g id="b" data-name="Group Call">
    <g>
      <path d="M1117.83,1737.89c1.24,2.1,3.95,2.8,6.08,1.55,21.12-12.53,22.42-41.81,36.87-57.14,1.68-1.78,1.6-4.6-.19-6.28-1.81-1.68-4.6-1.61-6.28.19-15.65,16.64-16.89,44.91-34.94,55.6-2.11,1.25-2.8,3.98-1.55,6.08Z" stroke-width="0"/>
      <path d="M1152.7,1815.85c-2.37-.64-4.79.79-5.41,3.18l-.27,1.1c-11.12,8.87-18.05,22.48-18.62,36.74-.1,2.45,1.81,4.51,4.26,4.61h.17c2.38,0,4.34-1.87,4.44-4.26.48-11.95,6.74-23.81,16.33-30.95,1.85-1.38,1.71-3.26,2.29-5.02.62-2.37-.81-4.79-3.18-5.41Z" stroke-width="0"/>
      <path d="M1144.92,1958.26c-13.23,11.66-32.36,23.83-28.58,39.38.5,2.03,2.3,3.38,4.31,3.38,2.93,0,4.98-2.72,4.31-5.49-2.01-8.26,8.42-15.21,25.83-30.61,1.83-1.62,2.02-4.42.4-6.27-1.64-1.83-4.45-2.02-6.27-.4Z" stroke-width="0"/>
      <path d="M1103.64,2111.05c-7.78,10.79-17.98,19.95-29.48,26.47-2.13,1.21-2.87,3.93-1.67,6.06,1.19,2.09,3.87,2.88,6.06,1.67,12.61-7.16,23.77-17.19,32.31-29,1.42-1.99.98-4.77-1-6.21-1.99-1.4-4.77-.99-6.21,1Z" stroke-width="0"/>
      <path d="M1008.25,2104.14c.91,2.35,3.56,3.39,5.75,2.53,2.28-.88,3.42-3.46,2.53-5.75-4.19-10.79-10.58-20.99-18.51-29.47-1.68-1.78-4.5-1.87-6.28-.21-1.78,1.67-1.88,4.48-.21,6.28,7.16,7.66,12.95,16.86,16.72,26.62Z" stroke-width="0"/>
      <path d="M1009.65,1964.66c-2.01-1.34-4.78-.79-6.14,1.26-1.35,2.04-.79,4.79,1.26,6.14,10.16,6.71,18.3,16.64,22.89,27.92.94,2.3,3.56,3.35,5.79,2.44,2.27-.93,3.37-3.52,2.44-5.79-5.26-12.93-14.58-24.29-26.24-31.99Z" stroke-width="0"/>
      <path d="M1018.72,1852.53c-1.05-2.24-3.75-3.15-5.91-2.12-2.22,1.05-3.17,3.69-2.12,5.91l20.42,43.16c1.05,2.25,3.73,3.14,5.91,2.12,2.22-1.05,3.17-3.7,2.12-5.91l-20.42-43.16Z" stroke-width="0"/>
      <path d="M1038.67,1730.8c2.02,1.31,4.78.79,6.14-1.29,1.34-2.04.77-4.79-1.29-6.14l-36.88-24.14c-1.99-1.29-4.78-.77-6.14,1.29-1.34,2.04-.77,4.79,1.29,6.14l36.88,24.14Z" stroke-width="0"/>
      <path d="M1018.81,1602.65c1.49,1.91,4.25,2.31,6.23.81,1.93-1.5,2.3-4.29.81-6.23l-15.63-20.34c-1.51-1.94-4.27-2.29-6.23-.81-1.93,1.5-2.3,4.29-.81,6.23l15.63,20.34Z" stroke-width="0"/>
      <path d="M1097.29,1573.52c2.21.74,4.81-.46,5.59-2.86l17.41-53.84c.76-2.33-.52-4.83-2.86-5.59-2.3-.76-4.83.53-5.59,2.86l-17.41,53.84c-.76,2.33.52,4.83,2.86,5.59Z" stroke-width="0"/>
      <path d="M1235.31,2258.72l-12.05,20.13c-1.26,2.09-.58,4.83,1.52,6.08,2,1.23,4.79.64,6.08-1.52l12.08-20.13c3.01-5.07-4.62-9.57-7.63-4.56Z" stroke-width="0"/>
      <path d="M1184.06,2293.18c-2.25-.9-4.86.26-5.72,2.58-4.74,12.45-23.31,22.27-20.87,40.18.82,5.9,9.59,4.57,8.8-1.21-1.71-12.43,15.25-22.3,20.38-35.81.87-2.29-.28-4.86-2.58-5.72Z" stroke-width="0"/>
      <path d="M1095.65,2343.32c-2.5-.51-4.47,2.27-4.51,4.72l-.68,45.91c-.04,2.45,1.92,4.47,4.37,4.5h.06c2.43,0,4.41-1.94,4.43-4.37l.69-46.59c.04-2.44-1.92-4.13-4.37-4.16Z" stroke-width="0"/>
      <path d="M1041.62,2403.22c-2.43.31-4.16,2.51-3.87,4.96l6.55,53.1c.28,2.24,2.19,3.89,4.41,3.89.17,0,.36,0,.55-.02,2.43-.3,4.16-2.51,3.87-4.96l-6.55-53.1c-.3-2.42-2.45-4.26-4.96-3.87Z" stroke-width="0"/>
      <path d="M1012.01,2472.96c-1.02-2.24-3.67-3.25-5.87-2.21-2.23,1-3.22,3.64-2.21,5.87l14.61,32.18c1.04,2.28,3.71,3.2,5.87,2.21,2.23-1,3.22-3.64,2.21-5.87l-14.61-32.18Z" stroke-width="0"/>
      <path d="M1060.9,2550.4h-.17c-2.38,0-4.35,1.87-4.44,4.26-.1,2.45,1.82,4.52,4.26,4.61,15.64.6,19.04,1.85,31.19,11.6,1.86,1.5,4.68,1.25,6.24-.69,1.52-1.92,1.21-4.71-.69-6.24-13.61-10.88-18.79-12.86-36.4-13.53Z" stroke-width="0"/>
      <path d="M1145.71,2492.18c-9.93-5.18-17.31-1.4-56.13,11.27-2.33.77-3.6,3.27-2.85,5.6.79,2.39,3.34,3.58,5.6,2.85,34.47-11.01,42.64-15.34,49.27-11.84,2.18,1.11,4.86.28,6-1.88,1.13-2.17.28-4.86-1.88-6Z" stroke-width="0"/>
      <path d="M1216.09,2418.03c-25.22.87-50.67,9.07-71.64,23.1-2.04,1.36-2.59,4.13-1.23,6.16,6.16,9.28,19.77-18.57,73.17-20.39,2.45-.09,4.37-2.13,4.29-4.58-.09-2.45-2.17-4.05-4.58-4.29Z" stroke-width="0"/>
      <path d="M1237.66,2375.29l-22.86,6.66c-2.35.68-3.7,3.15-3.02,5.5.7,2.43,3.27,3.7,5.5,3.02l22.88-6.66c2.35-.69,3.7-3.16,3.01-5.51-.68-2.34-3.11-3.7-5.51-3.01Z" stroke-width="0"/>
      <path d="M1295.64,2313.26l-22.83,7.41c-2.34.76-3.62,3.26-2.86,5.59,2.32,7.2,11.74-.35,28.43-4.55,2.34-.76,3.62-3.26,2.86-5.59-.76-2.34-3.28-3.63-5.6-2.86Z" stroke-width="0"/>
      <path d="M624.56,2000.31c-2.33.78-3.59,3.3-2.81,5.61l4.97,14.94c1.85,5.57,10.29,2.75,8.42-2.8-3.77-8.41-3.85-20.15-10.58-17.75Z" stroke-width="0"/>
      <path d="M681.66,2030.18c-2.37.66-3.74,3.11-3.08,5.46,2.09,7.54,2.63,15.63,1.51,23.39-.35,2.43,1.34,4.68,3.77,5.03,2.62.31,4.7-1.48,5.03-3.77,1.28-8.97.67-18.32-1.76-27.03-.66-2.37-3.1-3.73-5.46-3.08Z" stroke-width="0"/>
      <path d="M730.72,2073.48c-2.42.4-4.06,2.68-3.68,5.09l4.29,26.54c.36,2.18,2.24,3.73,4.39,3.73,2.77,0,4.81-2.48,4.39-5.14l-4.29-26.54c-.4-2.42-2.75-4.04-5.09-3.68Z" stroke-width="0"/>
      <path d="M773.59,2106.43c-2.44.25-4.22,2.42-3.99,4.86.98,9.85-.17,19.98-3.33,29.32-.79,2.33.46,4.84,2.78,5.62,2.42.83,4.87-.54,5.62-2.77,3.57-10.53,4.87-21.95,3.78-33.04-.25-2.43-2.38-4.34-4.86-3.99Z" stroke-width="0"/>
      <path d="M817.37,2170.38c-2.42-.64-4.79.83-5.4,3.2l-5.7,22.34c-.61,2.37.83,4.78,3.21,5.39,2.19.61,4.76-.71,5.39-3.21l5.7-22.31c.61-2.38-.83-4.79-3.2-5.4Z" stroke-width="0"/>
      <path d="M736.53,2198.81c5.3-1.93,12.83,9.92,21.64,11.12,2.6.31,4.68-1.48,5-3.79.33-2.43-1.36-4.67-3.79-5-7.17-1-13.9-15.49-26.13-10.58-2.28.9-3.39,3.49-2.49,5.76.92,2.29,3.51,3.39,5.76,2.49Z" stroke-width="0"/>
      <path d="M689.77,2140.37c6.14.59,12.2,3.43,16.6,7.76,1.75,1.71,4.56,1.69,6.28-.06,1.71-1.75,1.68-4.56-.06-6.28-5.9-5.8-13.7-9.44-21.95-10.26-2.7-.29-4.62,1.55-4.86,3.99-.24,2.44,1.55,4.61,3.99,4.86Z" stroke-width="0"/>
      <path d="M647.85,2106.39c8.11,2.11,15.83,6.02,22.31,11.32,1.81,1.51,4.65,1.33,6.24-.62,1.56-1.9,1.28-4.7-.62-6.24-7.47-6.12-16.35-10.64-25.71-13.06-2.42-.64-4.79.83-5.41,3.18-.62,2.38.82,4.79,3.18,5.41Z" stroke-width="0"/>
      <path d="M554.66,2047.84c-.28,2.43,1.45,4.63,3.89,4.93,17.23,2.04,32.19,4,45.3,15.29,1.85,1.57,4.65,1.39,6.27-.47,1.6-1.87,1.39-4.67-.47-6.27-14.73-12.65-30.82-15.08-50.06-17.37-2.34-.26-4.63,1.45-4.93,3.89Z" stroke-width="0"/>
      <path d="M4643.66,3158.89h-202.08v-861.79c30.25-28.76,57.53-60.61,81.17-95.17h95.46c3.55,0,6.34-2.92,6.34-6.34v-89.18c0-3.43-2.79-6.34-6.34-6.34h-39.56c30.19-70.86,46.92-148.76,46.92-230.5v-411.39c0-27.13-25.8-44.84-44.4-41.74v-.13h-150.83c-9.51-24.61-21.44-45.41-36.15-61.53-30.31-32.99-123.61-44.49-206.68-47.92,6-13.63-2.65-49.69-14.7-50.97-6.5-.69-18.17-.59-32.47.12l-5.04-33.64,2.45-.15c46.46-61.03,93.05-170.94,92.07-245.67-1.52-114.94-53.18-164.5-189.51-168.82-187.96-5.96-213.7,64.49-184.71,117.42,6.52,11.9,18.23,18.1,32.37,21.2l.21,6.79c-3.17,1.14-6.09,2.79-8.63,4.82-13.57,10.78-18.4,31.59-14.72,63.3,3.04,25.62,12.56,52.01,27.4,70.15l1.01,36.03c1.65,55.44,44.91,99.58,98.82,101.36l7.2,47.61c-8.39,2.56-15.32,5.29-19.65,8.19-7.32,4.9-18.07,23.38-22.42,37.71-16,3.48-32.84,7.56-49.24,12.29-92.9-128.21-53.83-91.47-85.77-84.67,13.8-47.54,39.38-157.47-8.49-168.69-7.87-1.85-14.82-.52-20.73,3.89-13.28,9.92-18.55,34.04-20.99,58.05-14.95-33.67-48.96-104.25-74.26-111.66-16.72-4.91-29.14,4.48-26.69,23.6-16.42-17.14-32.24-14.93-39.03-6.6-6.02,7.41-5.78,19.59.42,33.99-.07-.02-.15-.07-.22-.09-20.17-5.85-36.08,9.3-21.29,41.16-22.34-11.44-42.92,6.93-23.01,44.07,45.44,84.8,77.8,140.18,108.03,157.66-7.26,5.36-17.68,7.57-14.67,13.61,14.97,30.45,41.86,85.12,72.94,145.63-7.24,19.63-14.21,41.25-21.22,64.24-10.44,22.39-29.72,117.82-75.2,236.78-2.05.43-2.71,1.18-3.62,2.37l-337.99,37.73c-2.28.25-3.93,2.28-3.93,4.57l.27,8c-14.96-19.96-44.85-56-75.88-71.05V580.32c0-37.55-30.57-68.12-68.12-68.12h-641.17l-44.77-56.96c64.36-24.27,106.99-85.37,106.99-154.79,0-94.04-79.21-165.68-159.96-165.68-10.23,0-49.71,0-47.44,0-91.21,0-165.42,74.34-165.42,165.68,0,69.52,42.63,130.66,106.94,154.76l-44.69,56.99h-748.08c-.05,0-.1-.03-.15-.03h-65.84c-37.55,0-68.12,30.57-68.12,68.12v1201.71c0,37.55,30.57,68.12,68.12,68.12h65.59c.1,0,.2.03.3.03h494.87l-75.25,249.91h-547.36c-3.42,0-6.34,2.92-6.34,6.34v89.18c0,12.04,14.46,3.75,130.15,6.34v32.86c-155.42-54.36-327.11-26.59-447.93,63.3-142.26,105.67-144.33,248.71-81.87,317.93-15.98,50.85-26.18,107.87-27.95,171.56h-59.1c-37.8-115.25,5.46-256.45,100.39-475.03,51.6-11.67,150.07-115.6,190.43-173.16,66.85-95.65,105.93-205.38,112.9-317.4,6.72-108.97-17.76-212.1-69.01-290.37-58.35-89.43-154.64-147.66-251.3-152.1-84.16-3.78-130.28,36.93-135.1,131.93-7.62,145.69,61.23,216.48,78.27,288.09,19.59,83.42-21.3,168.68-34.25,254.22-53.03-87.36-161.18-102.6-263.1-96.79-97.81,5.45-213.15,31.64-260.44,121.91-.45.84-.63,1.74-.55,2.61-30.31,55.78-28.31,125.19.81,177.02,35.72,63.26,98.76,67.6,151.34,37.42,62.81-35.8,87.41-101.59,118.99-107.74,3.79,1.58,18.24-4.52,26.64,14.37,0,.27,0,.39-.02.43.04-.22.69-1.56,5.98,18.98,17.82,62.77,83.14,105.7,152.52,88.76,37.58,109.62,56.25,263.32,22.8,476.15-.04.24.03.46.03.69h-192.18l22.95,101.18h36.31l50.23,270.14h-418.29c-3.51,0-6.34,2.84-6.34,6.34s2.84,6.34,6.34,6.34h4287.31c3.51,0,6.34-2.84,6.34-6.34s-2.84-6.34-6.34-6.34ZM4572.9,2112.75h38.97v76.49h-80.79c15.75-24.34,29.74-49.88,41.83-76.49ZM3888.4,969.01s.13,0,.13-.13l1.09,36.82c-5.14,1.13-9.07,2.13-11.55,2.8-1.05-19.85,2.47-33.14,10.33-39.5ZM3878.67,1015.93c1.93-.53,5.87-1.55,11.17-2.71l1.48,50.05c-7.2-15.18-11.01-30.81-12.65-47.33ZM945.21,1797.51c-17.89-75.08-85.7-141.79-78.02-285.68,4.58-89.91,45.79-126.51,125.84-123.43,93.87,4.31,187.37,61.02,244.33,148.04,50.11,76.75,74.08,177.98,67.49,284.92-6.85,110.49-45.41,218.7-111.38,312.96-45.18,64.79-135.85,153.17-178.63,167.79,113.06-261.68,56.32-643.1,55.73-646.93-.37-2.44-2.66-4.17-5.05-3.72-2.43.37-4.09,2.64-3.72,5.05,27.99,184.05,22.96,463.11-57.69,648.19-20.36,2.69-34.56-8.97-45.84-26.03-14.21-21.44-25.75-45.03-34.13-70.03,5.99-36.22,5.71-99.38-14.59-141.95,10.78-91.02,56.81-179.11,35.65-269.19ZM569.92,2013.71c-2.42-.66-4.78.84-5.39,3.21-.61,2.38.83,4.79,3.21,5.39,92.67,24.63,206.89,121.57,263.78,279.99-64.21,15.38-124.67-25.03-140.92-82.74-.37-3.81-6.6-20.18-6.6-20.93-6.36-14.32-19.07-20.3-31.59-19.16-130.53-112.14-223.65-111.63-260.56-105.04,80.86-124.59,314.54-123.3,401.25-93.49,63.48,21.87,103.22,66.75,114.68,104.91,10.46,29.4,12.12,69.73,9.89,100.85-5.51,104.98-75.14,111.18-77.59,113.17-57.23-159.9-176.45-263.02-270.17-286.16ZM866.18,2787.57c33.48-213.71,14.73-368.52-23.15-479.27,1.7-.49,3.3-.98,5.01-1.59v-.06c37.89-9.53,63.13-44.43,72.69-81.51,14.2,36.75,40.08,90.17,79.43,88.75-93.6,216.1-136.43,357.31-99.59,473.68h-34.39ZM1526.84,3158.89h-426.33l50.23-270.14h36.31l22.95-101.18h-232.02c1.72-60.94,11.34-115.61,26.33-164.6,24.3,19.02,119.45,30.15,202.22-9.52,125.18-59.88,137.81-165.87,156.03-193.58.25-.38.94-2.55,1.04-2.91,32.95-45,110.68-4,163.24,10.14v731.79ZM1526.84,2245.82c-36.15,14.46-67.49,32.35-93.37,53.66-38.56,31.71-66.6,72.94-78.78,116.07-17.7,27.77-32.55,132.62-151.97,189.78-83.2,40.08-175.47,26.57-195.53,8.33,85.5-263.29,327.52-356.91,330.54-358.04,2.3-.85,3.47-3.42,2.61-5.71-.87-2.29-3.44-3.42-5.71-2.61-3.05,1.14-246.16,95.13-334.31,358.97-147.45-187.35,180.74-483.52,526.51-362.1v1.65ZM1606.89,3158.89h-67.36v-956.96h67.36v956.96ZM1864.51,3158.89h-244.94v-730.65c24.48-9.26,48.21-29.68,52.65-58.99,4.26-27.83-8.9-62.74-52.65-90.58v-76.75h244.94v956.96ZM3895.76,965.33l-.38-14.33-.1-3.31c25.9,3.66,57.89-.96,82.12-1.06-5.05,18.6-6.84,37.06-6.53,53.4-28.48-2.8-55.76.67-73.95,4.18l-1.15-38.88ZM3998.77,1224.62c-.25-1.78-1.77-3.04-3.55-3.04h-1.14c-50.87-.76-91.97-42.24-93.49-94.38-.04-1.28-1.62-54.1-1.52-50.74l-1.92-64.74c17.88-3.46,45.53-7.02,74.02-4.13,1.65,27.04,9.18,46.62,17.17,47.69,4.28.57,10.35-23.4,19.59-39.59,6.78,2.45,13.4,5.35,19.63,9.08,4.2,2.46,7.89-3.81,3.76-6.29-6.17-3.69-12.67-6.58-19.29-9.09,7.23-9.47,16.17-12.74,27.36,1.95,34.95,45.87-42.36,119.88-48.73,147.65-8.42,36.75,23.17,70.66,60.8,68.41l76.52-4.58,5.05,33.59c-38.51,2.37-92.62,8.85-126.72,17.94l-7.52-49.72ZM3595.72,1163.47c-9.93-18.51-11.12-38.9,8.63-33.2,14.67,4.27,24.8,27.44,58.96,86.07,2.93,5.06,10.63.6,7.66-4.48-16.7-28.7-38.63-66.66-49.91-87.7-9.93-18.51-11.11-38.93,8.63-33.21,11.82,3.47,16.28,19.18,56.11,86.43,2.93,5.06,10.63.6,7.66-4.48-23.6-40.02-85.67-134.01-41.25-120.81,18.8,5.42,46.16,61.04,63.24,90.58,1.26,2.19,4.04,2.81,6.06,1.62,2.13-1.23,2.85-3.94,1.62-6.06-29.07-50.4-51.22-83.78-41.18-96.12,22.18-27.26,73.6,84.68,87.39,117.34-32.3,19.2-26.05,70.4-16.15,67.84,2.39-.53,3.88-2.92,3.33-5.31-11.17-49.11,22.28-53.48,22.87-60.11,1.53-17.32,3.4-58.06,18.88-69.61,3.75-2.82,8.16-3.59,13.38-2.37,40.58,9.49,12.04,124.8-.11,164.6-1.27.78-113.81,69.85-106.67,65.48-30.69-12.58-68.52-80.7-109.15-156.5ZM3691.01,1338.67c70.56-42.22,145.75-87.2,147.15-88.04l60.89,86.64c-36.28,11.04-69.01,25.37-83.34,42.88h-.13c-23.6,20.68-41.36,52.65-57.09,93.11-30.32-59.24-55.69-110.49-67.49-134.59ZM3317.6,1988.67l.72,21.07c.13,2.41,1.9,4.19,4.18,4.31,107.74,5.39,325.4,14.14,432.84,6.22-4.31,23.97-9.13,46.94-14.59,68.37-14.72.63-70.53,3.55-141.32,11.42h-89.53v-38.9c0-2.06-1.31-4.73-3.79-5.81l-70.4-30.87c-.81-.35-1.67-.53-2.55-.53h-762.78l-.14-.06c-1.9-.84-4.08-.68-5.82.4-1.77,1.07-2.9,2.94-3.04,4.99l-4.45,66.65c-.1,1.5.42,2.94,1.31,4.14h-30.77v-70.15c0-3.3-2.67-5.96-6.09-5.96h-218.7l53.53-173.79h617.16c-4.43,11.25,2.22,20.47,13.45,25.37-22.8,5.18-29.11,20.31-25.25,30.32,3.3,9.01,13.95,14.97,29.43,16.87-.13,0-.13.13-.13.13-15.39,14.33-10.51,35.63,24.1,39.33-8.02,5.34-13.82,15.32-10.4,24.61,3.81,10.4,17.38,16.75,37.17,17.63,57.06,2.24,123.3,5.65,175.87-15.75ZM3491.34,2887.08h149.44l1.4,51.63c-2.04,0-30.58,0-29.3,0h-172.27c-24.54-117.21-61.19-265.54-73.83-399.22l19.83-73.17c.37-.22.72-.48,1.04-.79,24.41.21-10.71.92,232.33-6.02l-98.64,45.15c-3.18,1.46-4.58,5.23-3.13,8.41,5.05,10.9,14.92-2.6,111.03-43.84l11.17,405.14h-149.06c-3.43,0-6.34,2.79-6.34,6.34s2.92,6.34,6.34,6.34ZM3409.39,2376.1c-23.22,0-41.86,18.65-41.86,41.86,0,17.38,10.53,32.22,25.5,38.56h-5.25c-.11-.11-.16-.26-.29-.36l-72.34-61.52c-2.68-2.27-6.68-1.96-8.94.72s-1.94,6.68.72,8.94l70.86,60.26c-.35,1.29-21.59,80.16-20.28,75.3l-93.87,347.84-170.75-38.44c-3.43-.63-6.85,1.4-7.61,4.82-.76,3.43,1.4,6.85,4.82,7.61l170.24,38.18-17.13,63.18c-53.25-10.15-134.26-25.59-212.99-40.6,2.76-17.51,15.7-117.25,37.5-238.36,1.87-.82,3.34-2.48,3.72-4.65,18.06-101.76,87.5-173.66,88.2-174.38,2.44-2.5,2.4-6.52-.1-8.97-2.48-2.43-6.49-2.4-8.97.1-2.12,2.17-38.69,40.16-66.13,100.46,22.76-111.62,71.29-337.41,156.1-394.75,95.26-65.37,399.25-104.53,502.48-104.53,1.3.91,54.73,35.53,84.1,58.23-74.93,108.25-162.45,149.04-187.11,164.79-.13,0-.25.13-.38.13-69.14,35.52-147.41,55.56-230.24,55.56ZM3198.68,2963.7l-8.24,38.65-90.81,7.75-42.39-43.92,6.07-28.35,135.35,25.88ZM3749.24,2090.8c5.58-22.33,10.66-46.3,15.1-71.29,47.05-4.37,82.83-5.02,151.33-145.43-.9,102.08-32.09,196.87-83.46,273.94-35.66-25.84-57.33-40.45-82.96-57.21ZM2699.87,2036.63h731.95l41.46,18.19h-731.95l-41.46-18.19ZM2733.66,2065.32v28.17l-63.65-3.17,3.41-51.21,60.24,26.21ZM2746.35,2067.5h750.86v26.31h-750.86v-26.31ZM2389.34,2023.95h-352.79l52.39-173.79h354.06l-53.66,173.79ZM3313.03,1854.13l1.72,50.67.77,75.25c-36.28,15.1-89.31,17-89.69,17-75.08,0-107.79.66-112.9-13.32-2.03-5.2,2.28-10.15,4.95-12.69,6.24-5.94,25.1-7.99,23.82-7.68,4.76,0,9.02-1.21,8.4-5.54-.8-5.62-3.73-2.58-29.05-4.16-21.44-.88-39.23-10.61-24.1-24.36,12.65-12.07,46.58,1,46.58-9.97,0-7.51-10.07-3.3-33.52-4.49v.23s-.07.01-.1.02l-.02-.12c-.25.13-.63.13-.89.25-5.44-1.08-34.11.3-39.2-12.43-1.9-5.08,2.28-10.02,4.95-12.56,10.3-9.94,49.27-9.34,50.54-9.5,12.07,2.19,10.41-10.3,4.19-8.81-7.08-1.4-42.72,2.37-48.13-12.39-1.66-4.47,1.59-9.68,4.95-12.56,20.08-18.59,119.08-4.22,128.17-2.59,4.74-.17,5.88-5.89,2.49-8.06-16.61-8.36-48.02-41.52-30.06-58.36,37.14-33.61,97.19,35.1,126.14,76.15ZM2511.16,512.16h-174.33l42.78-54.43c2.57,1.2-1.98.37,89.26.63l42.29,53.8ZM2271.13,300.44c0-84.36,68.63-152.99,152.86-152.99h.1c84.24.06,152.75,68.66,152.75,152.99,0,66.46-42.34,124.63-105.47,145.23-93.46.47-89.18-1.01-92.46,1.09-.38-.22-.68-.55-1.11-.68-63.81-20.04-106.69-78.65-106.69-145.63ZM1530.88,1837.47c-.05,0-.1-.03-.15-.03-30.39,0-55.44-24.72-55.44-55.44V580.29c0-29.59,24.78-55.4,55.48-55.4h1637.72c30.57,0,55.44,24.86,55.44,55.44v1181.92c-2.79-.89-5.58-1.4-8.37-1.78-13.07-1.65-24.74,2.03-34.63,11.04-18.38,16.46-3.99,42.04,14.33,58.99-1.27.76-2.54,1.4-3.8,1.9-31.84-3.81-85.63-7.86-107.19,5.07h-1553.38ZM1944.58,3158.89h-67.38v-956.96h67.38v956.96ZM1950.92,2189.21h-12.52v-76.46h1564.99c-96.16,15.1-198.4,39.07-259.42,76.49h-1292.88c-.06,0-.11-.03-.17-.03ZM2305.39,3117.97h-34.41l-7.07-51.63,3.1-3.1,46.56,46.56-8.17,8.17ZM2681.68,2843.52l-.61,4.45-44.03,44.15-46.68-46.69,46.68-46.56,44.64,44.64ZM2648.97,2798.37h38.9l-4.68,34.21-34.21-34.21ZM2577.93,2951.24l-46.68,46.56-46.56-46.56,46.56-46.68,46.68,46.68ZM2537.59,2898.34l46.56-46.56,46.56,46.56-46.56,46.56-46.56-46.56ZM2478.47,2944.89l-46.68-46.56,46.68-46.56,46.56,46.56-46.56,46.56ZM2472.13,2951.24l-46.56,46.56-46.56-46.56,46.56-46.68,46.56,46.68ZM2372.67,2944.89l-46.56-46.56,46.56-46.56,46.68,46.56-46.68,46.56ZM2366.46,2951.24l-46.56,46.56-46.68-46.56,46.68-46.68,46.56,46.68ZM2366.46,3056.91l-46.56,46.56-46.68-46.56,46.68-46.56,46.56,46.56ZM2326.12,3004.01l46.56-46.56,46.68,46.56-46.68,46.69-46.56-46.69ZM2425.57,3010.35l46.56,46.56-46.56,46.56-46.56-46.56,46.56-46.56ZM2431.79,3004.01l46.68-46.56,46.56,46.56-46.56,46.69-46.68-46.69ZM2531.24,3010.35l46.68,46.56-46.68,46.56-46.56-46.56,46.56-46.56ZM2537.59,3004.01l46.56-46.56,46.56,46.56-46.56,46.69-46.56-46.69ZM2637.04,3010.35l19.17,19.17-8.69,63.47-10.48,10.48-46.68-46.56,46.68-46.56ZM2643.26,3004.01l19.06-19.05-4.59,33.52-14.47-14.47ZM2637.04,2997.79l-46.68-46.56,46.68-46.68,31.91,31.91-4.67,34.09-27.24,27.24ZM2643.26,2898.34l35.82-35.82-8.63,63.02-27.19-27.2ZM2584.14,2839.22l-40.85-40.85h81.7l-40.85,40.85ZM2577.93,2845.44l-46.68,46.69-46.56-46.69,46.56-46.56,46.68,46.56ZM2478.47,2839.22l-40.96-40.85h81.81l-40.85,40.85ZM2472.13,2845.44l-46.56,46.69-46.56-46.69,46.56-46.56,46.56,46.56ZM2372.67,2839.22l-40.85-40.85h81.81l-40.96,40.85ZM2366.46,2845.44l-46.56,46.69-46.68-46.69,46.68-46.56,46.56,46.56ZM2267,2839.22l-39.63-39.63-.17-1.22h80.64l-40.85,40.85ZM2260.79,2845.44l-23.87,23.87-7.56-55.18,31.42,31.31ZM2267,2851.78l46.56,46.56-46.56,46.56-22.86-22.86-5.71-41.68,28.57-28.57ZM2260.79,2951.24l-11.13,11.04-3.52-25.69,14.65,14.65ZM2267,2957.45l46.56,46.56-46.56,46.69-6.07-6.07-9.77-71.33,15.84-15.84ZM2317.95,3117.97l1.95-1.95,1.95,1.95h-3.9ZM2411.17,3117.97h-76.88l-8.17-8.17,46.56-46.56,46.68,46.56-8.19,8.17ZM2423.63,3117.97l1.95-1.95,1.95,1.95h-3.9ZM2516.86,3117.97h-76.88l-8.19-8.17,46.68-46.56,46.56,46.56-8.17,8.17ZM2529.29,3117.97l1.95-1.95,1.96,1.95h-3.91ZM2622.53,3117.97h-76.78l-8.17-8.17,46.56-46.68,46.56,46.68-8.17,8.17ZM2635.09,3117.97l1.96-1.95,1.95,1.95h-3.91ZM2644.98,3111.53l-1.72-1.72,2.27-2.27-.55,3.99ZM2647.45,3158.89l49.87-364.14c.02-.07.09-.11.1-.19l7.61-55.82c.29-2.91-2.01-5.08-4.44-5.08h-486.11c-2.48,0-4.72,2.2-4.44,5.08l7.61,55.82c.01.07.09.11.1.18l49.87,364.15h-310.37v-956.96h1268.32c-86.56,66.41-140.52,341.51-160.89,449.9-1.02,3.87-6.74,25.1-5.31,28.78-18.97,104.98-29.89,185.54-38.55,244.78-.38,2.41,1.27,4.57,3.55,5.08l26.51,5.07-5.96,27.76-131.33,44.71-56.13-5.98c-72.56-7.71-110.01,85.25-58.23,96.33l283.19,60.53h-434.99ZM2800.08,3038.46c12.99-16.52,33.7-26.14,56.05-23.82,59.92,6.19,57.8,6.67,60.23,5.83l132.22-45.02c47.46,48.85,44.5,47.26,48.29,47.42.11,0,.21.06.32.06h.14c.12,0,.25.06.37.05l90.21-7.69-19.62,101.86-368.21-78.7ZM3170.01,3158.89c6.29-8.53,2.14,4.84,41.24-192.91l34.38,6.6h.76c2.03,0,3.81-1.27,4.31-3.3.35-1.29,22.31-82.76,20.93-77.64v-.13l88.42-327.04c15.08,130.37,50.82,274.01,72.56,379.56,1.16,6.16,8.9,2.48,28.92,3.55l-1.94,32.78-123.11,63.88-56.4,2.5c-38.84,1.73-69.89,32.31-72.22,71.12-.5,8.28,2.25,16.24,7.76,22.45,14.84,16.75,24.86,7.78,157.44,18.57h-203.04ZM3175.84,3145.05c.04-.2.06-.32.09-.47-.03.15-.06.31-.09.47ZM3604.65,3113.95l-375.83-22.58c10.39-18.31,29.44-30.96,51.83-31.96,60.08-2.86,58.21-2.09,60.44-3.27l123.97-64.33c5.17,3.95-18.73-14.3,50.57,38.59,3.48,2.52,2.35,1.59,93.16-20.09l-4.14,103.64ZM3520.77,3018.37l-25.79-19.66-22.79-17.41,2.03-33.7h138.15l-3.04,49.54-88.55,21.24ZM3610.26,3158.89c5.81-7.89,5.59-15.12,5.99-17.16.02-.43.04-.76.05-1.09,0,.05,0,.1,0,.15.27-5.94,1.86-41.09,8.76-193.21,21.52-.46,22.42,1.05,24.86-1.39.76-.89,1.27-2.03,1.27-3.17-.04-1.3-2.03-71.64-1.9-67.23l-11.26-411.08c.32-.34.52-.75.77-1.14,34.4-8.32-17.04-.59,272.61-4.46-.03.25-.15.46-.15.72v103.26c0,12.56,10.27,22.83,22.83,22.83h1.23v420.58l-140.06,152.39h-184.98ZM3616.35,3139.54c.06-1.31.04-.86,0,0h0ZM4048.31,2459.5c14.44-.31,28.77-1.05,42.94-2.39v622.29l-67.04-72.98v-420.5h1.46c12.56,0,22.71-10.27,22.71-22.83v-103.26c0-.12-.06-.21-.06-.33ZM4035.68,2563.09c0,5.58-4.44,10.15-10.02,10.15-2.13,0-93.51,0-91.59,0-5.58,0-10.15-4.57-10.15-10.15v-96.92c1.94,0,114.43,0,111.76,0v96.92ZM4011.2,2585.92v416.72h-63.21v-416.72h63.21ZM3813.43,3157.92l130.89-142.56h70.84c1.18,1.28,139.75,152.06,131.01,142.56h-332.74ZM4348.82,3158.89h-184.58l-60.3-65.67v-637.5c89.16-10.37,172.3-40.7,244.88-86.41v789.59ZM3954.75,1416.43c-21.69,1.52-38.95,19.66-38.95,41.74v394.82c-41.79,89.68-80.51,141.79-112.9,151.42-68.29,20.38-404.22,4.46-475.84,1.01,0,.04,0,.05,0,0h0c-.79-28.08-3.54-154.33-5.83-171.38l333.69-37.3,47.99,63.59c5.06,6.71,15.18-.95,10.13-7.63l-47.48-62.91c68.9-179.75,60.35-297.61,195.22-330.89,3.41-.81,5.53-4.21,4.72-7.62-.79-3.39-4.08-5.54-7.62-4.73-3.27.77-64.16,15.89-105.46,70.01,44.04-134.12,77.83-156.52,202.81-184.61-.24,4.74,1.12,7.96,4.84,8.26,19.76,1.58,156.29-9.59,211.62-24.9,85.04,2.55,185.92,12.76,215.88,45.55,13.45,14.59,24.36,33.36,33.24,55.44-498.13,0-464.49-.07-466.07.13ZM4428.89,3158.89h-67.39v-797.73c23.72-15.8,46.24-33.26,67.39-52.23v849.96Z" stroke-width="0"/>
      <path d="M3327.06,2005.43h0q-.03-1.27,0,0Z" stroke-width="0"/>
      <path d="M3616.29,3140.8c-.02.49-.04.8-.04.94,0,.03,0,.05,0,.09h0c0,.22.02-.33.05-1.02Z" stroke-width="0"/>
      <path d="M3214.46,1844.39c-.07,0-.1.06-.17.06,1.11.15,1.09.11.17-.06Z" stroke-width="0"/>
      <path d="M3176.13,3143.58s0,.04,0,.05c0-.05.01-.07,0-.05Z" stroke-width="0"/>
      <path d="M676,2202.99s0,.03,0,0h0Z" stroke-width="0"/>
      <path d="M3279.55,2425.73c-2.49,2.47-2.51,6.48-.05,8.97l27.03,27.29c2.46,2.48,6.47,2.52,8.97.05,2.49-2.47,2.51-6.48.05-8.97l-27.03-27.29c-2.45-2.49-6.47-2.51-8.97-.05Z" stroke-width="0"/>
      <path d="M3542.35,2552.38l39.21-19.68c3.12-1.57,4.39-5.39,2.82-8.52-1.59-3.15-5.43-4.4-8.52-2.82l-39.21,19.68c-3.12,1.57-4.39,5.39-2.82,8.52,1.59,3.16,5.43,4.37,8.52,2.82Z" stroke-width="0"/>
      <path d="M3664.03,1839.13c-2.19-2.74-6.18-3.15-8.92-.97-2.73,2.19-3.16,6.18-.97,8.92l21.54,26.82c5.23,6.53,15.15-1.38,9.89-7.95l-21.54-26.82Z" stroke-width="0"/>
      <path d="M3165.59,1597.48v-1009.9c0-2.45-1.98-4.43-4.43-4.43h-1623.14c-2.45,0-4.44,1.98-4.44,4.43v.03s-.01.04-.01.07v1009.78c0,1.5.75,2.71,1.83,3.51.74.56,1.62.95,2.62.95h1623.14c2.45,0,4.43-1.98,4.43-4.43ZM1677.93,1433.68c-43.89,0-79.54-35.65-79.54-79.54s35.65-79.67,79.54-79.67,79.67,35.65,79.67,79.67-35.65,79.54-79.67,79.54ZM1677.93,1172.11c-43.89,0-79.54-35.65-79.54-79.54s35.65-79.67,79.54-79.67,79.67,35.65,79.67,79.67-35.65,79.54-79.67,79.54ZM1677.93,910.65c-43.89,0-79.54-35.65-79.54-79.54s35.65-79.66,79.54-79.66,79.67,35.65,79.67,79.66-35.65,79.54-79.67,79.54ZM3156.72,1593.04h-1334.31v-1001.03h1334.31v1001.03Z" stroke-width="0"/>
      <path d="M2372.17,1673.09c-26.05,0-47.01,20.95-47.01,46.72s20.95,47.01,47.01,47.01,47.01-20.96,47.01-47.01-20.96-46.72-47.01-46.72Z" stroke-width="0"/>
      <path d="M1860.82,1073.63h601.49c2.45,0,4.44-1.98,4.44-4.44v-433.34c0-2.45-1.98-4.43-4.44-4.43h-601.49c-2.45,0-4.43,1.98-4.43,4.43v433.34c0,2.45,1.98,4.44,4.43,4.44ZM1949.47,1064.76c12.46-23.98,24.97-42.94,33.22-54.54-1.56,8.64-1.62,19.05,3.44,29.17.79,1.59,2.7,2.2,4.25,1.42,1.57-.78,2.21-2.69,1.42-4.25-8.68-17.35.19-36.99,2.45-41.47,24.49-30.92,63.12-48.96,117.84-55.05,18.36,61.59,104.67,64.46,126.8,3.82,64.16,10.91,114.96,57.83,131.05,120.9h-420.48ZM2135.05,840.95c-1.47-4.17-21.06,2.39-24.29-32.61,3.26-.96,58.55,9.02,69.47-55.33,18.67,19.83,42.13,26.12,68.83,25.46,3.79,15.49,14.36,66.76-4.57,92.79-10.87,14.95-39.57,26.7-65.94,2.03,3.11,4.37,14.89,18.95,32.01,21.83-2.8,42.98-1.63,44.64,1.73,45,6.22.69,12.92,1.59,20.39,2.73-20.65,53.43-97.08,50.7-114.33-3.47,5.08-.47,10.02-.83,14.74-1.08,1.42-.09,2.63-1.1,2.92-2.5,8.37-38.69,8.06-68.83-.95-94.86ZM1865.25,640.28h592.62v424.47h-81.56c-16.45-67.15-67.71-119.57-160.55-130.61-.07-8.2.07-16.12.33-23.84,35.52,4.65,85-15.36,69.98-39.99-21.31-34.89,31.46-134.85-33.49-174.81-35.77-21.95-53.91-6.72-64.95-5.46-24.86-9.64-59.37-14.08-93.75,9.9-64.95,45.54,3.68,135.48-20.81,170.37-19.22,27.42,30.37,49.06,61.23,37.34-.9,7.75-2.21,15.87-4.01,24.46-5.25.31-10.74.76-16.38,1.33-.04,0-.07.06-.11.06-92.18,9.47-128.88,47.84-171.49,131.25h-77.07v-424.47Z" stroke-width="0"/>
      <path d="M2509.87,1073.63h601.49c2.45,0,4.44-1.98,4.44-4.44v-433.34c0-2.45-1.98-4.43-4.44-4.43h-601.49c-2.45,0-4.43,1.98-4.43,4.43v433.34c0,2.45,1.98,4.44,4.43,4.44ZM2619.89,1064.76c12.54-32.03,35.24-59.46,64.52-77.73,31.54-19.52,42.36-24.15,79.29-27.66l46.68,54.04c1.46,1.47,3.99,1.39,5.07-.51l33.36-54.8c19.47,1.34,44.6,4,62.54,11.42,42.7,16.71,75.15,51.22,90.19,95.24h-381.66ZM2779.17,809.42c5.2.63,10.91.13,14.59-3.17,4.31-4.06,5.07-10.78,2.16-20.3-1.27-4.31.13-8.88,3.55-11.42,4.92-3.5,12.36-6.7,22.93-6.24l2.68,13.88,65.84,45.74c2.35,13.32,3.57,26.67,3.57,38.84,0,23.34-4.06,42.37-10.78,48.97-9.13,8.8-35.16,8.63-38.02,9.99-4.39-.23-20.39-2.03-26.28-15.92-1.12-2.61-5.09-1.8-5.09,1.01,0,.87.24,27.65,29.43,34.41,0,1.28,0,10.48,0,9.2-.78,1.27-33.55,54.92-31.46,51.5-1.11-1.28-47.53-55.1-44.65-51.76,0-1.9.85-74.12,1.14-98.82,1.14-.25,2.16-1.27,2.41-2.54.25-1.65-.76-3.3-2.28-3.55-1.27-1.27-12.59-1.47-18.79-19.6-7.71-22.26,9.08-35.96,23.99-16.56,1.02,1.4,3.04,1.65,4.44.51,1.27-1.01,1.65-2.79.63-4.19ZM2514.3,640.28h592.62v424.47h-98.82c-16.69-50.86-55.6-89.68-105.38-105.01-13.7-3.81-32.22-6.6-52.65-7.99v-20.42c19.54-1.52,32.09-5.2,38.06-11.04,12.54-12.19,16.49-52.59,9.4-92.61,15.56-16.7,13.12-40.44,9.98-53.77,4.69-3.16,8.84-7.44,11.96-13.46,7.99-15.6,7.48-33.74-1.4-49.6-12.05-21.06-36.79-34.89-66.22-36.66-48.08-2.92-79.67,27.02-87.41,35.27-3.55-2.79-11.03-7.86-20.55-7.99h-.13c-7.99,0-15.35,3.55-22.2,10.27-13.96,13.96-24.48,110.75-3.81,165.42,9.64,25.06,24.25,38.87,43.51,41.3v34.68c-36.48,3.88-47.58,8.31-80.3,28.54-31.17,19.27-54.99,48.67-67.77,83.06h-98.91v-424.47Z" stroke-width="0"/>
      <path d="M1860.82,1561.48h601.49c2.45,0,4.44-1.98,4.44-4.43v-433.36c0-2.45-1.98-4.43-4.44-4.43h-601.49c-2.45,0-4.43,1.98-4.43,4.43v433.36c0,2.45,1.98,4.43,4.43,4.43ZM1974.07,1552.61c1.45-10.64,3.26-20.77,5.46-30.39,1.47,8.86,4.81,19.28,11.75,30.39h-17.21ZM1985.09,1514.5l6.9,26.16c-4.65-9.89-6.43-18.92-6.9-26.16ZM2001.71,1552.61l-14.87-56.33c18.89-56.28,53.53-90.92,103.58-103.27l71.06,159.61h-159.76ZM2168.45,1552.61l-71.75-161c1.53-.31,8.54-1.83,15.97-2.71l37.17,55.82c.75,1.12,2.41,1.52,3.17,1.14l34.82-9.14,8,85.23c.41,4.19,6.71,3.62,6.32-.59l-7.93-84.45,34.02,8.96c1.47.49,3.46-.44,3.81-2.54l4.7-57.85c4.49,1.09,9.63,2.66,15.34,4.77l-24.79,162.36h-58.83ZM2137.04,1343.08c.85-18.45,4.37-65.05,18.29-70.07,7.18-2.59,13.57,8.22,13.16,27.55-.38,17.65,10.14-23.3-4.63-45.57,3.1,1.36,7.25,2.96,12.2,4.53,18.17,9.55,47.01,20.08,67.31,5.62.33,3.33.63,6.68.76,10.15-9.93-3.41-15.45,1.65-15.7,1.9-1.23,1.2-1.25,3.13-.07,4.4s3.13,1.34,4.46.19c.16-.13,3.84-3.12,11.33.36-.05,10.69-1.03,21.48-3.48,31.04-8.23,33.44-29.01,32.62-31.28,33.63-3.3-.97-9.38-3.25-15.76-8.29-.75-.58-1.78.21-1.38,1.09.28.64,6.52,14.2,14.49,19.43.03,8.06,1.81,14.08,4.87,20.55-.59,1.28-22.66,49.43-22.07,48.15l-53.41-47.7c3.44-12.2,3.59-24.93.91-36.94ZM2233.67,1552.61l24.41-160.05c19.64,7.91,35.37,21.07,47.81,37.3l-12.58,31.58c-.64,1.64.15,3.47,1.77,4.13,1.68.65,3.49-.18,4.13-1.77l11.1-27.87c19.09,27.79,32.11,66.75,38.77,116.68h-115.4ZM1865.25,1128.12h592.62v424.49h-102.34c-11.8-88.02-45.81-167.3-133.77-176.26-1.27-.29-6.41-1.45-5.14-1.16-2.96-6.79-4.32-12.99-3.23-22.82,26.64-4.81,35.7-34.77,37.04-61.78,7.86-24.58,15.96-47.14,10.67-66.92.42-12.49-1.59-24.82-7.14-30.2-5.2-5.03-12.13-5.01-19.12-3.04-10.3-11.62-30.31-19.59-53.57-19.59-33.69,0-60.99,16.53-60.99,36.99,0,2.23.46,4.38,1.08,6.5-9.02,2.95-14.77,10.35-16.6,27.02-3.17,28.86,13.85,70.97,24.3,93.54.18,1.42.44,2.86.6,4.28,3.92,12.98,3.96,26.66.08,39.57-34.21,6.99-28.23,5.13-38.27,7.49-69.54,15.88-111.15,71.92-123.86,166.37h-102.37v-424.49Z" stroke-width="0"/>
      <path d="M2509.87,1561.48h601.49c2.45,0,4.44-1.98,4.44-4.43v-433.36c0-2.45-1.98-4.43-4.44-4.43h-601.49c-2.45,0-4.43,1.98-4.43,4.43v433.36c0,2.45,1.98,4.43,4.43,4.43ZM2650.34,1552.61c-2.31-12.47-3.11-25.65-2.19-38.67.05-.14.19-.22.22-.38,7.04-39.75,44.21-52.45,44.59-52.58,1.66-.55,2.56-2.34,2.02-4-.53-1.66-2.27-2.59-4-2.02-1.23.4-22.74,7.76-37.19,28.8,7.81-24.66,23.57-45.72,49.65-55.66,17.13-6.6,41.36-9.39,64.95-10.4l43.76,53.15c1.18,1.77,3.87,1.73,5.08-.38l29.94-51c3.71.74,46.21-.99,84.98,19.46,4.49,4.57,31.24,33.15,25.17,59.23-.95,4.09,5.23,5.53,6.17,1.44,4.22-18.17-4.95-36.65-13.85-49.41,5.59,4.26,10.91,8.8,15.63,13.93,30.41,33.11,33.45,75.34,33.6,88.48h-348.53ZM2792.5,1241.16s47.09,41.12,94.45,19.21c2.66,11.83,6.25,31.42,6.51,52.17.25,20.42-2.79,41.86-13.07,57.34-7.36,11.03-18.14,17.89-31.84,20.3-2.91-1.74-23.24-.91-41.36-15.35-1.4-1.14-3.3-1.14-4.82-.38-1.52,1.02-2.28,2.67-2.03,4.44.13.25,5.33,27.91,42.75,29.3,0,1.28,0,6.86,0,5.58-1.04,1.78-30.94,52.82-29.05,49.6-1.04-1.27-43.41-53.14-40.72-49.85,0-1.57,0-57.7,0-56.32,0-.25-.13-.63-.13-.89-1.27-4.06-1.9-8.63-2.03-14.08-.13-1.65-1.27-2.92-2.92-3.04-.89-.13-21.31-2.16-20.55-21.44.25-3.93,1.4-6.34,3.68-7.61,6.09-3.42,19.41,2.16,23.6,4.44,1.14.63,2.54.51,3.55-.38.55-.41.87-1.01,1.03-1.68,3.53-3.86,14.24-19.86,12.94-71.35ZM2514.3,1128.12h592.62v424.49h-101.74c-.05-14.07-2.95-57.63-35.22-92.79-27.02-29.43-67.61-45.16-120.51-46.56,0-1.28,0-18.02,0-16.75,10.78-3.56,23.84-4.45,36.28-23.21,11.04-16.62,14.21-39.2,13.96-60.76,20.81-24.1,10.93-53.11,5.7-64.51,3.52-3.16,7.9-7.41,12.18-12.42,4.04-4.73-.68-11.73-6.64-9.95-4.38,1.3-9.3,2.22-14.54,2.27,0,0,6.77-3.55,16.74-15.93,3.43-4.26,0-10.59-5.45-10.09-13.76,1.25-33.96,2.24-42.29-1.54-13.18-5.99-81.12-41.9-115.3,25.45,0,0-44.35.93-8.84,97.73,1.45,1.96,3.13,17.6,23.7,21.61.25,4.57.89,8.75,2.03,12.43v53.66c-23.72,1.14-48.08,4.31-65.84,11.03-52.12,19.87-66,80.38-57.23,130.34h-129.62v-424.49Z" stroke-width="0"/>
      <path d="M1715.16,811.19l-10.98,9.68v-15.78c0-1.71-1.39-3.1-3.1-3.1h-62.4c-1.71,0-3.1,1.39-3.1,3.1v51.87c0,1.71,1.39,3.1,3.1,3.1h62.4c1.71,0,3.1-1.39,3.1-3.1v-15.85l10.97,9.72c2,1.77,5.15.35,5.15-2.32v-34.98c0-2.67-3.15-4.09-5.15-2.33Z" stroke-width="0"/>
      <circle cx="1635.23" cy="1089.01" r="12.9" transform="translate(3.34 2183.02) rotate(-67.5)" stroke-width="0"/>
      <circle cx="1677.94" cy="1089.01" r="12.9" transform="translate(-152.77 282.84) rotate(-9.22)" stroke-width="0"/>
      <path d="M1720.66,1076.11c-7.08,0-12.9,5.71-12.9,12.9s5.82,12.9,12.9,12.9,12.9-5.82,12.9-12.9-5.71-12.9-12.9-12.9Z" stroke-width="0"/>
      <path d="M1699.97,1352.37c-8.47,0-15.58,5.35-18.23,12.88-8.41-4-15.23-10.88-19.35-19.29,7.53-2.59,12.94-9.76,12.94-18.23,0-25.53-38.75-25.66-38.75,0,0,34.99,28.35,63.4,63.34,63.4h.06c25.69,0,25.49-38.75,0-38.75Z" stroke-width="0"/>
      <path d="M2233.52,794.47c2.02-1.9,4-.93,4.58-.58,1.46.9,3.41.51,4.35-.97.95-1.46.53-3.43-.94-4.39-2.24-1.46-7.73-3.04-12.33,1.3-1.28,1.2-1.34,3.21-.15,4.48,1.23,1.3,3.23,1.32,4.48.15Z" stroke-width="0"/>
      <path d="M2237.52,799.73c-1.95.02-3.51,1.65-3.49,3.56.02,1.96,1.61,3.51,3.56,3.49,1.96-.02,3.51-1.61,3.49-3.56-.02-1.92-1.61-3.51-3.56-3.49Z" stroke-width="0"/>
      <path d="M2218.2,843.77c17.96,5.78,21.64-7.32,12.28-13.5-3.18-2.11-5.22-19.7-5.12-34.79.01-1.76-1.4-3.18-3.15-3.2h-.02c-1.75,0-3.16,1.41-3.17,3.15-.05,8.14.37,35.08,7.95,40.13,1.86,1.23,2.22,2.43,2.14,2.64-.2.45-2.9,1.5-8.98-.47-1.66-.48-3.44.38-3.99,2.06-.53,1.66.38,3.44,2.06,3.99Z" stroke-width="0"/>
      <path d="M2202.15,797.3c1.44.93,3.39.51,4.35-.94.97-1.47.55-3.43-.92-4.39-7.25-4.76-17.12,1.74-13.29,5.85,3.1,3.28,5.51-3.09,9.86-.52Z" stroke-width="0"/>
      <path d="M2201.36,803.96c-2.14.02-3.84,1.8-3.82,3.9.02,2.14,1.76,3.84,3.9,3.82,2.14-.02,3.84-1.76,3.82-3.9-.02-2.1-1.76-3.84-3.9-3.82Z" stroke-width="0"/>
      <path d="M2231.85,863.61c-1.04-1.41-3.04-1.67-4.43-.64-7.74,5.01-10.5-4.82-14.23-.48-1.16,1.31-1.03,3.32.28,4.47,9.09,7.99,22.01,1.48,18.38-3.34Z" stroke-width="0"/>
      <path d="M2867.77,826.9c2.02-1.9,4-.92,4.57-.58,1.44.92,3.39.51,4.35-.94.97-1.47.55-3.43-.92-4.39-2.23-1.46-7.69-3.07-12.34,1.28-1.28,1.2-1.34,3.21-.15,4.48,1.23,1.3,3.23,1.32,4.48.15Z" stroke-width="0"/>
      <path d="M2871.77,832.17c-1.96.02-3.51,1.65-3.49,3.56.02,1.96,1.61,3.51,3.56,3.49,1.95-.02,3.51-1.61,3.49-3.56-.02-1.92-1.61-3.51-3.56-3.49Z" stroke-width="0"/>
      <path d="M2852.43,876.21c18.03,5.76,21.62-7.32,12.3-13.5-3.18-2.11-5.22-19.7-5.13-34.79.01-1.76-1.4-3.18-3.15-3.2h-.02c-1.75,0-3.16,1.41-3.17,3.15-.05,8.14.38,35.08,7.97,40.11,1.87,1.25,2.22,2.44,2.14,2.65-.14.28-2.42,1.67-8.98-.47-1.65-.52-3.46.38-4,2.04-.53,1.67.38,3.46,2.04,4Z" stroke-width="0"/>
      <path d="M2831.02,830.42c2.42-2.28,4.88-.98,5.38-.68,1.45.93,3.41.51,4.35-.94.97-1.46.55-3.43-.92-4.39-2.38-1.56-8.16-3.26-13.14,1.38-1.28,1.2-1.34,3.21-.15,4.48,1.23,1.3,3.23,1.32,4.48.15Z" stroke-width="0"/>
      <path d="M2835.61,836.4c-2.14.02-3.84,1.8-3.82,3.9.02,2.14,1.76,3.85,3.9,3.82,2.14-.02,3.84-1.76,3.82-3.9-.02-2.1-1.76-3.84-3.9-3.82Z" stroke-width="0"/>
      <path d="M2865.45,900.47c1.41-1.05,1.7-3.04.64-4.44-1.04-1.41-3.04-1.67-4.43-.64-.21.14-4.87,3.53-9.76-.77-1.33-1.14-3.32-1-4.48.3-1.15,1.33-1.02,3.32.3,4.48,5.79,5.05,13.15,4.51,17.74,1.07Z" stroke-width="0"/>
      <path d="M2304.65,1478.66c-.64,1.64.15,3.47,1.77,4.13,1.68.65,3.49-.18,4.13-1.77l4.93-12.36c.64-1.64-.15-3.47-1.77-4.13-1.6-.61-3.47.15-4.13,1.77l-4.93,12.36Z" stroke-width="0"/>
      <path d="M2188.08,1280.65c.16-.14,3.96-3.38,11.82.52,1.66.81,3.51.08,4.25-1.42.78-1.57.14-3.48-1.42-4.25-12.07-6-18.73.3-19.02.57-1.23,1.2-1.25,3.13-.07,4.4,1.16,1.26,3.15,1.35,4.45.19Z" stroke-width="0"/>
      <path d="M2194.64,1287.33c-2.21,0-3.98,1.77-3.98,3.98s1.77,3.98,3.98,3.98,3.98-1.77,3.98-3.98-1.77-3.98-3.98-3.98Z" stroke-width="0"/>
      <path d="M2238.34,1295.69c2.21,0,3.98-1.77,3.98-3.98s-1.77-3.98-3.98-3.98-3.98,1.77-3.98,3.98,1.77,3.98,3.98,3.98Z" stroke-width="0"/>
      <path d="M2219.29,1312.89c-.19.58-1.25,1.35-3.61,1.64-1.75.21-2.99,1.78-2.77,3.52.19,1.61,1.56,2.8,3.15,2.8,1.27-.6,7.35-.26,9.25-5.96,1.14-3.43-.35-7.41-4.06-10.93-2.86-2.71-2.21-13.84-.85-20.5.35-1.72-.77-3.39-2.48-3.74-1.66-.27-3.38.77-3.74,2.48-.68,3.33-3.73,20.28,2.71,26.37,2.01,1.9,2.65,3.57,2.4,4.32Z" stroke-width="0"/>
      <path d="M2204.54,1333.74c8.01,6.61,23.06.44,19.45-4.83-1-1.44-2.97-1.77-4.41-.82-6.17,4.25-10.49,1.14-11.01.74-1.34-1.08-3.31-.92-4.43.43-1.11,1.35-.93,3.36.41,4.47Z" stroke-width="0"/>
      <path d="M2866.12,1347.4c1.3-3.9-.76-7.51-2.25-10.13-5.13-9.01-8.24-19.31-9.01-29.82-.12-1.73-1.42-3.18-3.39-2.92-1.75.12-3.06,1.65-2.92,3.39.83,11.43,4.22,22.67,9.82,32.49.95,1.67,2.14,3.75,1.73,4.99-.33,1.03-2.25,1.6-3.8,1.13-2.22-.64-4.22-2.71-5.98-4.52-1.23-1.25-3.23-1.29-4.48-.07-1.26,1.23-1.29,3.23-.07,4.48,9.88,10.16,18.41,6.86,20.37.98Z" stroke-width="0"/>
      <path d="M2810.52,1299.91c12.78-6.95,18.97-.92,19.25-.61,1.18,1.24,3.17,1.33,4.45.15,1.29-1.19,1.38-3.18.19-4.47-.38-.42-9.6-10.07-26.91-.64-1.54.84-2.11,2.76-1.28,4.3.82,1.54,2.75,2.11,4.3,1.28Z" stroke-width="0"/>
      <path d="M2824.16,1307.68c-2.88,0-5.26,2.37-5.26,5.34s2.37,5.26,5.26,5.26,5.34-2.37,5.34-5.26-2.37-5.34-5.34-5.34Z" stroke-width="0"/>
      <path d="M2867.51,1299.3c.25-.27,6.43-6.34,19.25.61,1.55.83,3.47.27,4.3-1.28.83-1.54.26-3.47-1.28-4.3-17.41-9.44-26.54.22-26.91.64-1.18,1.28-1.09,3.23.16,4.42,1.25,1.2,3.25,1.18,4.47-.1Z" stroke-width="0"/>
      <path d="M2876.78,1307.68c-2.97,0-5.34,2.37-5.34,5.34s2.37,5.26,5.34,5.26,5.26-2.37,5.26-5.26-2.38-5.34-5.26-5.34Z" stroke-width="0"/>
      <path d="M2870.84,1371.24c1.57-.78,2.21-2.69,1.42-4.25-.78-1.56-2.71-2.17-4.25-1.42-.11.06-10.74,5.27-22.29-1.18-1.52-.85-3.46-.3-4.31,1.24-.84,1.52-.3,3.46,1.24,4.31,9.84,5.46,21.49,4.77,28.18,1.3Z" stroke-width="0"/>
      <path d="M2536.24,300.35c0-61.91-50.36-112.27-112.27-112.27s-112.27,50.36-112.27,112.27,50.23,112.27,112.27,112.27,112.27-50.23,112.27-112.27ZM2369.55,300.35c0-30.07,24.36-54.42,54.42-54.42s54.55,24.36,54.55,54.42-24.48,54.55-54.55,54.55-54.42-24.48-54.42-54.55Z" stroke-width="0"/>
      <path d="M2453.66,301.49c0-18.61-17.1-31.76-32.47-29.56,11.73,15.08-13.31,32.84-23.47,15.73-2.16,4.06-3.43,8.75-3.43,13.83,0,16.36,13.32,29.68,29.69,29.68s29.68-13.32,29.68-29.68ZM2430.95,306.95c3.93,0,7.1,3.17,7.1,6.98s-3.17,6.98-7.1,6.98-6.98-3.04-6.98-6.98,3.17-6.98,6.98-6.98Z" stroke-width="0"/>
      <path d="M2478.12,2615.43s16.93,76.1,74.34,76.1,88.14-98.79,88.14-98.79l-69.52-62.2s-35.18,79.03-92.96,84.88Z" stroke-width="0"/>
      <path d="M2374.64,2524.57c-89.44,40.6-73.62,96.51-73.62,96.51,0,0,13.31,27.95,73.62,21.96,60.31-5.99,83.45-85.19,83.45-85.19-53.91,11.98-83.45-33.28-83.45-33.28Z" stroke-width="0"/>
      <path d="M3019.86,436.72c2.82,2.05,6.8,1.42,8.86-1.42,2.06-2.85,1.41-6.81-1.42-8.86l-45.63-32.93c-2.84-2.06-6.8-1.41-8.86,1.42-2.06,2.85-1.41,6.81,1.42,8.86l45.63,32.93Z" stroke-width="0"/>
      <path d="M3595.07,508.64c2.82,2.05,6.8,1.42,8.86-1.42,2.06-2.85,1.41-6.81-1.42-8.86l-45.61-32.94c-2.84-2.03-6.8-1.41-8.86,1.42-2.06,2.84-1.41,6.8,1.42,8.86l45.61,32.94Z" stroke-width="0"/>
      <path d="M3945.01,662.03c14.81,0,26.79-12.02,26.79-26.82s-11.98-26.79-26.79-26.79-26.82,11.98-26.82,26.79,12.02,26.82,26.82,26.82Z" stroke-width="0"/>
      <path d="M2068.73,2515.78c-2.85-2.06-6.8-1.41-8.86,1.42-2.06,2.85-1.41,6.81,1.42,8.86l45.61,32.94c1.13.81,2.43,1.2,3.72,1.2,1.96,0,3.9-.92,5.14-2.63,2.06-2.84,1.41-6.8-1.42-8.86l-45.61-32.94Z" stroke-width="0"/>
      <path d="M2626,2423.04c-2.84-2.06-6.8-1.41-8.86,1.42s-1.41,6.8,1.42,8.86l45.63,32.94c1.13.82,2.43,1.2,3.72,1.2,1.96,0,3.9-.92,5.14-2.63,2.06-2.85,1.41-6.81-1.42-8.86l-45.63-32.94Z" stroke-width="0"/>
      <path d="M2343.12,2344.68c14.81,0,26.79-12.02,26.79-26.82s-11.98-26.79-26.79-26.79-26.82,11.98-26.82,26.79,12.02,26.82,26.82,26.82Z" stroke-width="0"/>
      <path d="M4576.96,2948.34c14.81,0,26.79-12.02,26.79-26.82s-11.98-26.79-26.79-26.79-26.82,11.98-26.82,26.79,12.02,26.82,26.82,26.82Z" stroke-width="0"/>
      <path d="M1014.62,672.17c2.82,2.05,6.8,1.42,8.86-1.42,2.06-2.84,1.41-6.8-1.42-8.86l-45.63-32.94c-2.85-2.06-6.8-1.41-8.86,1.42-2.06,2.85-1.41,6.81,1.42,8.86l45.63,32.94Z" stroke-width="0"/>
      <path d="M818.37,871.35c19.97,4.81,37.45-12.74,32.65-32.69-2.26-9.37-9.94-17.06-19.31-19.32-19.95-4.8-37.5,12.68-32.69,32.65,2.26,9.39,9.96,17.09,19.36,19.35Z" stroke-width="0"/>
      <path d="M1250.82,457.86c14.81,0,26.79-12.02,26.79-26.82s-11.98-26.79-26.79-26.79-26.82,11.98-26.82,26.79,12.02,26.82,26.82,26.82Z" stroke-width="0"/>
      <path d="M1226.45,1162.83c19.97,4.81,37.45-12.74,32.65-32.69-2.25-9.37-9.94-17.06-19.31-19.31-19.95-4.81-37.5,12.68-32.69,32.65,2.26,9.39,9.96,17.09,19.35,19.35Z" stroke-width="0"/>
      <path d="M625.84,1517.7c6.77,4.91,14.25-5.34,7.43-10.28l-45.63-32.94c-2.84-2.07-6.8-1.41-8.86,1.42-2.06,2.85-1.41,6.81,1.42,8.86l45.63,32.94Z" stroke-width="0"/>
      <path d="M2046.25,359.69c3.12-1.59,4.37-5.4,2.77-8.52-1.57-3.12-5.4-4.36-8.52-2.78-22.97,11.67-44.82,26.03-64.96,42.69-2.7,2.24-3.08,6.23-.85,8.93,8.15,9.82,13.19-10.66,71.57-40.32Z" stroke-width="0"/>
      <path d="M3390.73,944.78c19.44-16.08,40.5-29.93,62.62-41.17,3.12-1.59,4.37-5.4,2.77-8.52-1.57-3.12-5.41-4.35-8.52-2.78-22.96,11.66-44.81,26.02-64.95,42.68-2.7,2.24-3.08,6.23-.85,8.93,2.25,2.71,6.23,3.07,8.93.85Z" stroke-width="0"/>
      <path d="M4584.25,2507.23c0-14.81-11.98-26.79-26.79-26.79s-26.82,11.98-26.82,26.79,12.02,26.82,26.82,26.82,26.79-12.02,26.79-26.82Z" stroke-width="0"/>
      <path d="M2976.78,2351.88c10.86-9.01,22.39-17.41,34.24-24.95,2.96-1.88,3.83-5.8,1.94-8.76-1.88-2.96-5.82-3.8-8.76-1.95-12.3,7.83-24.26,16.55-35.53,25.89-2.69,2.23-3.07,6.23-.83,8.93,2.22,2.68,6.2,3.07,8.93.83Z" stroke-width="0"/>
      <path d="M2814.48,2859.3c19.41-16.08,40.49-29.93,62.62-41.15,3.12-1.59,4.37-5.41,2.79-8.54-1.59-3.13-5.38-4.32-8.54-2.79-22.97,11.67-44.82,26.03-64.98,42.71-2.69,2.23-3.07,6.23-.83,8.93,2.22,2.68,6.2,3.07,8.93.83Z" stroke-width="0"/>
      <path d="M1738.03,2999.97c19.97,4.81,37.45-12.74,32.65-32.69-2.26-9.37-9.94-17.06-19.31-19.31-19.95-4.8-37.5,12.68-32.69,32.65,2.26,9.39,9.96,17.09,19.35,19.35Z" stroke-width="0"/>
      <path d="M4533.17,1084.89c1.96,0,3.9-.92,5.14-2.63,2.06-2.85,1.41-6.81-1.42-8.86l-45.63-32.93c-2.85-2.06-6.8-1.41-8.86,1.42-2.06,2.85-1.41,6.81,1.42,8.86,47.62,33.82,45.54,34.13,49.34,34.13Z" stroke-width="0"/>
    </g>
  </g>
</svg>