<?xml version="1.0" encoding="UTF-8"?>
<svg id="a" data-name="Layer 1" xmlns="http://www.w3.org/2000/svg" viewBox="0 0 5000 1815.38">
  <g>
    <ellipse cx="3381.53" cy="599.05" rx="128.65" ry="128.96" fill="#fff" stroke-width="0"/>
    <path d="M3381.54,731.97c-73.12,0-132.61-59.63-132.61-132.92s59.49-132.92,132.61-132.92,132.61,59.63,132.61,132.92-59.49,132.92-132.61,132.92ZM3381.54,474.05c-68.76,0-124.7,56.08-124.7,125.01s55.94,125.01,124.7,125.01,124.69-56.08,124.69-125.01-55.94-125.01-124.69-125.01Z" stroke-width="0"/>
  </g>
  <g>
    <path d="M2795.41,182.84c-2.19,0-3.96-1.77-3.96-3.96v-30.77c0-2.19,1.77-3.96,3.96-3.96s3.96,1.77,3.96,3.96v30.77c0,2.19-1.77,3.96-3.96,3.96Z" stroke-width="0"/>
    <path d="M2795.41,254.51c-2.19,0-3.96-1.77-3.96-3.96v-30.77c0-2.19,1.77-3.96,3.96-3.96s3.96,1.77,3.96,3.96v30.77c0,2.19-1.77,3.96-3.96,3.96Z" stroke-width="0"/>
    <path d="M2775,203.29h-30.7c-2.19,0-3.96-1.77-3.96-3.96s1.77-3.96,3.96-3.96h30.7c2.19,0,3.96,1.77,3.96,3.96s-1.77,3.96-3.96,3.96Z" stroke-width="0"/>
    <path d="M2846.51,203.29h-30.7c-2.19,0-3.96-1.77-3.96-3.96s1.77-3.96,3.96-3.96h30.7c2.19,0,3.96,1.77,3.96,3.96s-1.77,3.96-3.96,3.96Z" stroke-width="0"/>
  </g>
  <g>
    <path d="M1561.71,1571.6c-2.19,0-3.96-1.77-3.96-3.96v-30.77c0-2.19,1.77-3.96,3.96-3.96s3.96,1.77,3.96,3.96v30.77c0,2.19-1.77,3.96-3.96,3.96Z" stroke-width="0"/>
    <path d="M1561.71,1643.27c-2.19,0-3.96-1.77-3.96-3.96v-30.77c0-2.19,1.77-3.96,3.96-3.96s3.96,1.77,3.96,3.96v30.77c0,2.19-1.77,3.96-3.96,3.96Z" stroke-width="0"/>
    <path d="M1541.3,1592.05h-30.7c-2.19,0-3.96-1.77-3.96-3.96s1.77-3.96,3.96-3.96h30.7c2.19,0,3.96,1.77,3.96,3.96s-1.77,3.96-3.96,3.96Z" stroke-width="0"/>
    <path d="M1612.81,1592.05h-30.7c-2.19,0-3.96-1.77-3.96-3.96s1.77-3.96,3.96-3.96h30.7c2.19,0,3.96,1.77,3.96,3.96s-1.77,3.96-3.96,3.96Z" stroke-width="0"/>
  </g>
  <path d="M3022.98,168.59c-5.42,0-10.85-1.01-16.05-3.03-11.38-4.42-20.33-13.12-25.23-24.49-9.98-23.19.37-50.38,23.08-60.6,10.92-4.92,23.08-5.23,34.22-.9,11.38,4.42,20.34,13.12,25.24,24.49,9.98,23.19-.37,50.38-23.08,60.61-5.82,2.62-11.99,3.93-18.17,3.93ZM3022.96,84.44c-5.08,0-10.15,1.08-14.93,3.23-18.79,8.46-27.34,31.01-19.05,50.26,4.05,9.41,11.44,16.6,20.82,20.25,9.15,3.56,19.13,3.3,28.11-.74,18.79-8.46,27.35-31.01,19.06-50.26-4.05-9.41-11.45-16.6-20.83-20.25-4.28-1.66-8.73-2.49-13.18-2.49Z" stroke-width="0"/>
  <g>
    <ellipse cx="940.28" cy="573.6" rx="66.15" ry="66.31" fill="#fff" stroke-width="0"/>
    <path d="M940.15,643.89c-12.7,0-25.19-3.48-36.32-10.27-16.02-9.77-27.28-25.21-31.69-43.48-9.1-37.65,14.05-75.71,51.62-84.84,18.19-4.42,36.99-1.48,52.96,8.26,16.02,9.77,27.28,25.21,31.69,43.48,9.1,37.65-14.05,75.71-51.62,84.84-5.52,1.34-11.1,2-16.64,2ZM940.39,511.22c-4.91,0-9.86.59-14.76,1.78-33.33,8.1-53.88,41.87-45.8,75.29,3.92,16.21,13.91,29.92,28.12,38.58,14.17,8.64,30.85,11.24,46.97,7.33,33.33-8.1,53.88-41.87,45.8-75.29h0c-3.92-16.21-13.9-29.91-28.12-38.58-9.87-6.02-20.95-9.11-32.21-9.11Z" stroke-width="0"/>
  </g>
  <path d="M2500,681.27c-139.46,0-226.62,69.73-261.48,209.19,52.3-69.73,113.31-95.88,183.04-78.45,39.78,9.94,68.22,38.81,99.7,70.76,51.28,52.05,110.62,112.28,240.23,112.28,139.46,0,226.62-69.73,261.48-209.19-52.3,69.73-113.31,95.88-183.04,78.45-39.78-9.94-68.22-38.81-99.7-70.76-51.28-52.05-110.62-112.28-240.23-112.28M2238.52,995.05c-139.46,0-226.62,69.73-261.48,209.19,52.3-69.73,113.31-95.88,183.04-78.45,39.78,9.94,68.22,38.81,99.7,70.76,51.28,52.05,110.62,112.28,240.23,112.28,139.46,0,226.62-69.73,261.48-209.19-52.3,69.73-113.31,95.88-183.04,78.45-39.78-9.94-68.22-38.81-99.7-70.76-51.28-52.05-110.62-112.28-240.23-112.28" stroke-width="0"/>
</svg>