<svg id="ee7a62de-edf2-44ae-b7f2-4ad4f289ad73" data-name="Layer 1" xmlns="http://www.w3.org/2000/svg" viewBox="0 0 768 384"><title>accordion</title><rect x="172" y="97.02" width="424" height="189.96" rx="26.79" fill="none" stroke="#212121" stroke-dasharray="12.08 12.08"/><rect x="208.4" y="147.3" width="351.2" height="89.4" rx="18.04" fill="#fff" stroke="#212121"/><path d="M412.19,185.15h-173a2.57,2.57,0,0,1-2.39-2.7v-2.7a2.57,2.57,0,0,1,2.39-2.7h173a2.57,2.57,0,0,1,2.39,2.7v2.7A2.47,2.47,0,0,1,412.19,185.15Z" fill="#7c5eea" opacity="0.5" style="isolation:isolate"/><path d="M366.24,206.45H238.54c-.95,0-1.77-1.2-1.77-2.7v-2.7c0-1.5.82-2.7,1.77-2.7h127.7c.95,0,1.77,1.2,1.77,2.7v2.7C368.08,205.25,367.26,206.45,366.24,206.45Z" fill="#7c5eea" opacity="0.5" style="isolation:isolate"/><polyline points="522.5 186.5 512.5 196.5 502.5 186.5" fill="none" stroke="#212121" stroke-width="2"/></svg>