<?xml version="1.0" encoding="utf-8"?>
<!-- Generator: Adobe Illustrator 28.1.0, SVG Export Plug-In . SVG Version: 6.00 Build 0)  -->
<svg version="1.1" id="b7bf039b-63ac-4db8-b174-3c7b37fa3e1f"
	 xmlns="http://www.w3.org/2000/svg" xmlns:xlink="http://www.w3.org/1999/xlink" x="0px" y="0px" viewBox="0 0 768 384"
	 style="enable-background:new 0 0 768 384;" xml:space="preserve">
<style type="text/css">
	.st0{fill:none;stroke:#212121;stroke-dasharray:12.08,12.08;}
	.st1{fill:#EAEFF4;stroke:#212121;}
	.st2{fill:#FFFFFF;stroke:#212121;}
	.st3{fill:#EAC23F;}
</style>
<path class="st0" d="M611.2,315.6H156.8c-7.9,0-14.3-10.9-14.3-24.4V92.8c0-13.5,6.4-24.4,14.3-24.4h454.3
	c7.9,0,14.3,10.9,14.3,24.4v198.4C625.5,304.5,619.1,315.6,611.2,315.6z"/>
<path class="st1" d="M247.6,199.7h-40.8c-5.6,0-10.2-4.5-10.2-10.2c0,0,0,0,0,0l0,0c0-5.6,4.5-10.2,10.2-10.2c0,0,0,0,0,0h40.8
	c5.6,0,10.2,4.5,10.2,10.2c0,0,0,0,0,0l0,0C257.8,195.1,253.2,199.7,247.6,199.7z"/>
<path class="st1" d="M347.2,199.7h-40.8c-5.6,0-10.2-4.5-10.2-10.2c0,0,0,0,0,0l0,0c0-5.6,4.5-10.2,10.2-10.2c0,0,0,0,0,0h40.8
	c5.6,0,10.2,4.5,10.2,10.2c0,0,0,0,0,0l0,0C357.4,195.1,352.8,199.7,347.2,199.7z"/>
<path class="st1" d="M445.4,199.7h-40.8c-5.6,0-10.2-4.5-10.2-10.2c0,0,0,0,0,0l0,0c0-5.6,4.5-10.2,10.2-10.2c0,0,0,0,0,0h40.8
	c5.6,0,10.2,4.5,10.2,10.2c0,0,0,0,0,0l0,0c0,5.6-4.5,10.2-10,10.2C445.5,199.7,445.5,199.7,445.4,199.7z"/>
<path class="st1" d="M543.7,199.8h-40.8c-5.6,0-10.2-4.5-10.2-10.2c0,0,0,0,0,0l0,0c0-5.6,4.5-10.2,10.2-10.2c0,0,0,0,0,0h40.8
	c5.6,0,10.2,4.5,10.2,10.2c0,0,0,0,0,0l0,0C553.9,195.2,549.4,199.8,543.7,199.8C543.7,199.8,543.7,199.8,543.7,199.8z"/>
<path class="st2" d="M252.2,213.5L252.2,213.5c-13.3,0-24.1-10.8-24.1-24.1l0,0c0-13.3,10.8-24.1,24.1-24.1l0,0
	c13.3,0,24.1,10.8,24.1,24.1l0,0c0.1,13.3-10.6,24-23.9,24.1C252.3,213.5,252.3,213.5,252.2,213.5z"/>
<path class="st2" d="M350.9,213.5L350.9,213.5c-13.3,0-24.1-10.8-24.1-24.1l0,0c0-13.3,10.8-24.1,24.1-24.1l0,0
	c13.3,0,24.1,10.8,24.1,24.1l0,0c0.1,13.3-10.6,24-23.9,24.1C351,213.5,351,213.5,350.9,213.5z"/>
<path class="st2" d="M449.1,213.5L449.1,213.5c-13.3,0-24.1-10.8-24.1-24.1l0,0c0-13.3,10.8-24.1,24.1-24.1l0,0
	c13.3,0,24.1,10.8,24.1,24.1l0,0c0.1,13.3-10.6,24-23.9,24.1C449.2,213.5,449.2,213.5,449.1,213.5z"/>
<path class="st2" d="M547.4,213.5L547.4,213.5c-13.3,0-24.1-10.8-24.1-24.1l0,0c0-13.3,10.8-24.1,24.1-24.1l0,0
	c13.3,0,24.1,10.8,24.1,24.1l0,0c0.1,13.3-10.6,24-23.9,24.1C547.5,213.5,547.5,213.5,547.4,213.5z"/>
<path class="st3" d="M250.7,178.3v-4h2.7v4H250.7z M250.7,203.7v-4h2.7v4H250.7z M262.7,190.3v-2.7h4v2.7H262.7z M237.3,190.3v-2.7
	h4v2.7H237.3z M260.9,181.9l-1.9-1.9l2.3-2.4l1.9,1.9L260.9,181.9z M242.6,200.3l-1.9-1.9l2.4-2.3l1.9,1.9L242.6,200.3z
	 M261.4,200.3l-2.3-2.4l1.9-1.9l2.4,2.3L261.4,200.3z M243.1,181.9l-2.4-2.3l1.9-1.9l2.3,2.4L243.1,181.9z M252,197
	c-4.4,0-8-3.6-8-8c0-4.4,3.6-8,8-8c4.4,0,8,3.6,8,8c0,2.1-0.9,4.1-2.4,5.6C256.2,196.2,254.1,197,252,197z"/>
<path class="st3" d="M447.7,178.3v-4h2.7v4H447.7z M447.7,203.7v-4h2.7v4H447.7z M459.7,190.3v-2.7h4v2.7H459.7z M434.3,190.3v-2.7
	h4v2.7H434.3z M457.9,181.9l-1.9-1.9l2.3-2.4l1.9,1.9L457.9,181.9z M439.6,200.3l-1.9-1.9l2.4-2.3l1.9,1.9L439.6,200.3z
	 M458.4,200.3l-2.3-2.4l1.9-1.9l2.4,2.3L458.4,200.3z M440.1,181.9l-2.4-2.3l1.9-1.9l2.3,2.4L440.1,181.9z M449,197
	c-4.4,0-8-3.6-8-8s3.6-8,8-8c4.4,0,8,3.6,8,8c0,2.1-0.9,4.1-2.4,5.6C453.2,196.2,451.1,197,449,197z"/>
<path class="st3" d="M351,201c-6.6,0-12-5.3-12.1-11.9c0-3,1.1-5.8,3.1-8.1c2-2.3,4.7-3.7,7.7-4c0.5-0.1,1,0.2,1.3,0.6
	c0.3,0.4,0.3,1,0,1.5c-0.8,1.2-1.2,2.5-1.2,3.9c0,4,3.2,7.2,7.1,7.2c0,0,0,0,0.1,0c0.7,0,1.4-0.1,2-0.3c0.6-0.2,1.3-0.5,1.8-0.8
	c0.4-0.3,1-0.3,1.4,0c0.5,0.2,0.7,0.8,0.6,1.3c-0.3,3-1.7,5.7-3.9,7.6C356.8,200,353.9,201,351,201z"/>
<path class="st3" d="M547,201c-6.6,0-12-5.3-12.1-11.9c0-3,1.1-5.8,3.1-8.1c2-2.3,4.7-3.7,7.7-4c0.5-0.1,1,0.2,1.3,0.6
	c0.3,0.4,0.3,1,0,1.5c-0.8,1.2-1.2,2.5-1.2,3.9c0,4,3.2,7.2,7.1,7.2c0,0,0,0,0.1,0c0.7,0,1.4-0.1,2-0.3c0.6-0.2,1.3-0.5,1.8-0.8
	c0.4-0.3,1-0.3,1.4,0c0.5,0.2,0.7,0.8,0.6,1.3c-0.3,2.9-1.6,5.7-3.9,7.6C552.8,200,549.9,201,547,201z"/>
</svg>
