<?xml version="1.0" encoding="utf-8"?>
<!-- Generator: Adobe Illustrator 28.1.0, SVG Export Plug-In . SVG Version: 6.00 Build 0)  -->
<svg version="1.1" id="ee7a62de-edf2-44ae-b7f2-4ad4f289ad73"
	 xmlns="http://www.w3.org/2000/svg" xmlns:xlink="http://www.w3.org/1999/xlink" x="0px" y="0px" viewBox="0 0 768 384"
	 style="enable-background:new 0 0 768 384;" xml:space="preserve">
<style type="text/css">
	.st0{fill:none;stroke:#CBD5E1;stroke-dasharray:12.08,12.08;}
	.st1{fill:#020617;stroke:#1E293B;}
	.st2{opacity:0.5;fill:#94A3B8;enable-background:new    ;}
	.st3{fill:#101316;stroke:#35393D;}
	.st4{fill:none;stroke:#FFFFFF;stroke-width:2;stroke-linecap:round;stroke-linejoin:round;}
	.st5{clip-path:url(#SVGID_00000176028628088511116760000016859665028738126245_);}
	.st6{fill:#EDBD43;}
	.st7{clip-path:url(#SVGID_00000037654029562117293160000014073521986696239025_);}
	.st8{fill:#764074;}
	.st9{fill:#38312D;}
	.st10{fill:#F2844F;}
	.st11{fill:#F95939;}
	.st12{fill:#E56324;}
	.st13{fill:#150F0C;}
	.st14{fill:#FDB697;}
	.st15{fill:#45362F;}
	.st16{fill:#160E0B;}
	.st17{fill:#FCB48E;}
	.st18{fill:#BE6547;}
	.st19{fill:#B65B36;}
	.st20{fill:#FBB38E;}
	.st21{fill:#B65A35;}
	.st22{fill:#FBB48F;}
	.st23{fill:#FBA187;}
	.st24{fill:#FFFFFF;}
	.st25{fill:#CC492F;}
	.st26{fill:#FBB898;}
	.st27{fill:#FFB18D;}
	.st28{fill:#4F2A4D;}
</style>
<path class="st0" d="M198.8,97h370.4c14.8,0,26.8,12,26.8,26.8v136.4c0,14.8-12,26.8-26.8,26.8H198.8c-14.8,0-26.8-12-26.8-26.8
	V123.8C172,109,184,97,198.8,97z"/>
<path class="st1" d="M226.4,147.3h315.1c10,0,18,8.1,18,18v53.3c0,10-8.1,18-18,18H226.4c-10,0-18-8.1-18-18v-53.3
	C208.4,155.4,216.5,147.3,226.4,147.3z"/>
<path class="st2" d="M457,188.5H284c-1.4-0.1-2.5-1.3-2.4-2.7v-2.7c-0.1-1.4,1-2.6,2.4-2.7h173c1.4,0.1,2.5,1.3,2.4,2.7v2.7
	c0.1,1.4-0.9,2.6-2.2,2.7C457.1,188.5,457,188.5,457,188.5z"/>
<path class="st2" d="M411,203.5H283.3c-0.9,0-1.8-1.2-1.8-2.7v-2.7c0-1.5,0.8-2.7,1.8-2.7H411c1,0,1.8,1.2,1.8,2.7v2.7
	C412.9,202.3,412.1,203.5,411,203.5z"/>
<path class="st3" d="M529.4,207.6h-18.6c-3.5,0-6.4-2.9-6.4-6.4v-18.6c0-3.5,2.9-6.4,6.4-6.4h18.6c3.5,0,6.4,2.9,6.4,6.4v18.6
	C535.7,204.8,532.9,207.6,529.4,207.6z"/>
<polyline class="st4" points="514.5,191.8 518.4,194.8 525.6,187.9 "/>
<g>
	<g>
		<g>
			<g>
				<defs>
					<circle id="SVGID_1_" cx="249" cy="191.3" r="23.1"/>
				</defs>
				<clipPath id="SVGID_00000168810535922509739180000010091327930458560432_">
					<use xlink:href="#SVGID_1_"  style="overflow:visible;"/>
				</clipPath>
				<g style="clip-path:url(#SVGID_00000168810535922509739180000010091327930458560432_);">
					<g>
						<g>
							<rect id="SVGID_4_" x="225.8" y="168.2" class="st6" width="46.3" height="46.3"/>
						</g>
						<g>
							<g>
								<g>
									<g>
										<defs>
											<rect id="SVGID_00000091730183703555862620000006477185510070416801_" x="225.8" y="168.2" width="46.3" height="46.3"/>
										</defs>
										<clipPath id="SVGID_00000085962069438961143630000008637115081912703894_">
											<use xlink:href="#SVGID_00000091730183703555862620000006477185510070416801_"  style="overflow:visible;"/>
										</clipPath>
										<g style="clip-path:url(#SVGID_00000085962069438961143630000008637115081912703894_);">
											<g>
												<g>
													<path class="st8" d="M269.6,217.4L269.6,217.4c-0.2-0.9-0.5-1.7-0.9-2.5c-0.4-0.8-0.9-1.5-1.5-2.2
														c-0.5-0.7-1.1-1.2-1.8-1.7c-0.2-0.2-0.5-0.4-0.8-0.5c-0.7-0.8-1.6-1.5-2.5-2.1c-0.7-0.4-1.4-1-2-1.5
														c-0.5-0.5-1.1-0.9-1.6-1.4c-0.5-0.4-0.9-1-1.5-1.4c-0.7-0.4-1.4-0.9-2-1.4c-0.4-0.3-1-0.4-1.5-0.5
														c-1.1-0.2-2.2-0.2-3.3-0.2c-2.1,0.1-4.2,0.4-6.2,0.8c-0.4,0.1-0.8,0.2-1.2,0.1c-0.3,0-0.6,0.1-0.9,0.2
														c-0.4,0.1-0.7,0.2-1,0.4s-0.5,0.5-0.7,0.8c-0.5,0.5-1.2,1.1-1.8,1.6c-0.5,0.4-1,0.8-1.5,1.1c-0.7,0.6-1.4,1.3-2.1,1.8
														c-0.8,0.5-1.5,1-2.3,1.5c-0.1,0.1-0.1,0.1-0.2,0.1c-0.1,0.1-0.2,0.1-0.2,0.1c-0.4,0.2-0.8,0.4-1.1,0.6
														c-0.8,0.5-1.5,1-2.1,1.7c-0.7,0.7-1.2,1.5-1.7,2.2c-0.4,0.7-0.8,1.5-1.1,2.3L269.6,217.4L269.6,217.4z"/>
													<path class="st9" d="M252.7,176.1c0.5-0.2,1-0.3,1.6-0.3c0.3,0,0.6,0.1,0.8,0.3c0.1,0.2,0,0.5-0.1,0.7
														c-0.3,0.4-0.8,0.7-1.2,1c0.4-0.3,0.9-0.5,1.5-0.6c0.2,0,0.5,0,0.7,0.1c0.2,0.1,0.2,0.4,0.1,0.6
														c-0.1,0.3-0.3,0.5-0.5,0.7c0.3-0.2,0.7-0.3,1.1-0.4c0.1,0,0.3,0,0.4,0.1c0,0.2-0.1,0.4-0.3,0.5c-0.4,0.5-1.1,0.8-1.7,1
														c0.2,0.2,0.5,0.4,0.8,0.7c0.7,0.7,1.1,1.6,1.4,2.5c0.2,0.5,0.3,1,0.2,1.5c0,0.6-0.1,1.2-0.2,1.7
														c-0.1,0.4-0.2,0.7-0.4,1.1c-0.1,0.2-0.1,0.4-0.2,0.7c-0.1,0.4-0.2,0.9-0.4,1.2c-0.1,0.2-0.2,0.4-0.4,0.5
														c-0.5,0.5-1.2,1.1-1.9,1.5c-0.6,0.3-1.3,0.5-2,0.5c-0.8,0-1.6,0-2.5,0c-0.5,0-1-0.1-1.5-0.1c-0.5-0.1-1-0.2-1.6-0.2
														c-0.5-0.1-1-0.1-1.5-0.1c-0.4,0-0.9,0-1.4-0.1c-0.4-0.1-0.6-0.4-0.8-0.7c-0.7-1-1.1-2.3-1.5-3.5
														c-0.2-0.7-0.2-1.4-0.2-2.1c0.1-0.8,0.1-1.6,0.3-2.4c0.2-0.5,0.4-1,0.7-1.5c0.2-0.3,0.4-0.5,0.7-0.8
														c0.4-0.2,0.8-0.5,1.2-0.4c0-0.4,0.1-0.7,0.2-1c0.2-0.4,0.3-0.8,0.5-1c0.2-0.2,0.5-0.4,0.8-0.5c0.4-0.2,0.8-0.3,1.1-0.3
														c0.9,0,1.8,0,2.7-0.1c0.5-0.1,1-0.1,1.5-0.2C251.6,176.6,252.2,176.3,252.7,176.1z"/>
												</g>
												<g>
													<path class="st10" d="M247.5,179.6c1.1-0.4,2.4-0.7,3.6-0.7c0.3,0.1,0.7,0.1,1,0.2c0.2,0.1,0.4,0.2,0.5,0.2
														c0.4,0.2,0.8,0.4,1.1,0.5c0.2,0.1,0.4,0.1,0.5,0.2c0.2,0.1,0.4,0.2,0.5,0.3c0,0.3,0,0.7,0,1c-0.1,0.5,0,1,0.1,1.6
														c0.1,0.8,0.2,1.5,0.3,2.3c0.1,0.3,0.1,0.7,0.2,1c0,0.6,0.3,1.1,0.2,1.7c0,0.5-0.3,1-0.3,1.5v0.1
														c-0.3,0.4-0.4,1-0.5,1.5c-0.2,0.6-0.3,1.2-0.5,1.8c-0.1,0.3-0.2,0.7-0.4,0.9c-0.1,0.1-0.1,0.2-0.1,0.3
														c-0.3,0.1-0.5,0.3-0.7,0.4c-0.3,0.2-0.7,0.3-1,0.4c-0.7,0.2-1.4,0.1-2.1,0.1c-0.7-0.1-1.4,0.1-2.1,0.1
														c-0.8,0-1.6,0-2.3-0.3c-0.7-0.3-1.4-0.7-1.8-1.1c-0.2-0.3-0.5-0.5-0.7-0.9c0.1,0.3,0.2,0.5,0.3,0.8
														c0.2,0.4,0.3,0.8,0.5,1.1c0.2,0.3,0.4,0.6,0.5,0.9c0.2,0.3,0.4,0.5,0.5,0.9c0.1,0.3,0.3,0.6,0.4,0.9
														c0.2,0.3,0.4,0.7,0.7,0.8c0.4,0.1,0.7-0.1,1-0.2c0.4-0.1,0.8-0.1,1.2-0.1c0.8,0.1,1.5,0.4,2.2,0.5
														c0.2,0.1,0.3,0.2,0.5,0.2c0.7,0.2,1.2,0.4,1.8,0.6c0.3,0.1,0.5,0.2,0.9,0.3c0-0.2,0-0.3,0-0.4c0,0.6,0,1.2,0.1,1.8
														c0.1,0.9,0.1,1.9,0.1,2.8c0.1,0.5-0.1,1.1-0.2,1.7c-0.2,0.7-0.4,1.4-0.7,2c-0.2,0.4-0.4,0.8-0.7,1.2
														c-0.2,0.3-0.5,0.7-0.8,0.9c-0.3,0.3-0.5,0.5-0.9,0.8c-0.3,0.3-0.7,0.5-1,0.9c-0.3,0.2-0.5,0.4-0.9,0.5
														c-0.2,0.1-0.5,0.3-0.8,0.3c-0.2,0.1-0.4,0-0.7,0c-0.4-0.1-0.8-0.2-1.1-0.5c-0.3-0.2-0.7-0.5-0.9-0.8
														c-0.5-0.6-1.1-1.2-1.5-1.9c-0.3-0.4-0.5-0.9-0.9-1.2c-0.2-0.4-0.5-0.8-0.7-1.2c-0.3-0.8-0.2-1.6-0.1-2.4
														c0-0.5,0.1-0.9,0.2-1.4c0.2-0.9,0.2-1.9,0.3-2.8c0.1-0.9,0.2-1.9,0.2-2.8c-0.1-0.8,0.1-1.6,0-2.4
														c0.1-0.2,0.1-0.4,0.1-0.7c0.1-1,0.1-2.1,0.1-3.1c0-0.3,0-0.5-0.1-0.8c0.1-0.3,0-0.6,0-0.9c-0.1-0.6,0-1.2,0.1-1.8
														c0.2-0.6,0.4-1.2,0.4-1.9c0.2-0.9,0.2-1.7,0.3-2.5c0.1-0.4,0.2-0.8,0.3-1.1c0-0.1,0.1-0.2,0.2-0.3
														c0.4-0.2,0.7-0.4,1-0.6C246,180.1,246.8,179.8,247.5,179.6z"/>
													<path class="st11" d="M256.8,187.6c0.4,0,0.9,0.2,1.1,0.6c0.3,0.4,0.3,1,0.3,1.5c0,0.4-0.2,0.8-0.3,1.2
														c-0.1,0.4-0.3,0.9-0.5,1.2c-0.4,0.6-0.8,1.1-1.4,1.5c-0.4,0.3-1,0.5-1.5,0.3c-0.2,0-0.3-0.1-0.4-0.1H254
														c0-0.1,0.1-0.2,0.1-0.3c0.2-0.3,0.3-0.6,0.4-0.9c0.2-0.6,0.3-1.2,0.5-1.8c0.1-0.5,0.2-1,0.5-1.5c0,0,0,0,0.1,0
														c0.2-0.3,0.4-0.7,0.7-1C256.3,188.2,256.5,187.9,256.8,187.6z"/>
													<path class="st11" d="M241.1,188.4c0.3-0.1,0.5-0.1,0.8,0.1c0.5,0.3,0.8,0.8,1,1.2c0.1,0.3,0.1,0.5,0.1,0.8
														c0,1,0.1,2.1-0.1,3.1c0,0.2,0,0.4-0.1,0.7c-0.2-0.1-0.4,0-0.5-0.1c-0.5-0.2-0.9-0.5-1.2-0.9c-0.5-0.5-0.8-1.2-1-2
														c-0.2-0.6-0.2-1.3,0.1-2C240.4,189,240.7,188.5,241.1,188.4z"/>
													<path class="st12" d="M243.3,192.7c0.2,0.3,0.4,0.5,0.7,0.9c0.5,0.5,1.1,0.9,1.8,1.1c0.8,0.3,1.5,0.3,2.3,0.3
														c0.7,0,1.4-0.1,2.1-0.1c0.7,0,1.4,0.1,2.1-0.1c0.3-0.1,0.7-0.2,1-0.4c0.3-0.1,0.5-0.4,0.7-0.4h0.1c0,0.3,0,0.5,0,0.8
														c0,0.2-0.1,0.4-0.2,0.7c0.1,0,0.1,0,0.2,0c-0.1,1.1,0,2.3,0,3.5c0,0.2,0,0.3,0,0.4c-0.3-0.1-0.5-0.2-0.9-0.3
														c-0.6-0.2-1.2-0.4-1.8-0.6c-0.2-0.1-0.3-0.2-0.5-0.2c-0.8-0.1-1.5-0.5-2.2-0.5c-0.4,0-0.9,0-1.2,0.1
														c-0.3,0.1-0.7,0.3-1,0.2c-0.3-0.1-0.5-0.4-0.7-0.8c-0.2-0.3-0.3-0.6-0.4-0.9c-0.1-0.3-0.4-0.5-0.5-0.9
														c-0.2-0.3-0.4-0.6-0.5-0.9c-0.2-0.4-0.3-0.8-0.5-1.1C243.4,193.1,243.3,192.9,243.3,192.7z"/>
												</g>
												<g>
													<path class="st12" d="M250.1,184.3c0.2-0.3,0.4-0.6,0.8-0.7v0.1l0.1,0.1c0-0.1,0-0.1,0-0.1c0.3-0.1,0.5,0,0.8,0
														c-0.3,0.2-0.5,0.4-0.7,0.7c-0.2,0.3-0.4,0.7-0.4,1c0,0.2-0.1,0.4,0,0.5c0.2,0.3,0.4,0.5,0.3,0.9
														c-0.1,0.1-0.2,0.2-0.3,0.2c0-0.1,0.2-0.2,0.2-0.3c0-0.3-0.2-0.5-0.3-0.7c-0.1-0.3-0.3-0.5-0.4-0.7
														C250,184.9,250,184.6,250.1,184.3z"/>
													<path class="st12" d="M253.8,195.3c0.1-0.2,0.2-0.4,0.2-0.7c0,0.2,0,0.4,0,0.7C254,195.3,253.9,195.3,253.8,195.3z"/>
													<path class="st13" d="M252.3,177c0.5-0.2,1-0.5,1.6-0.6c-0.2,0.1-0.4,0.2-0.6,0.3c-0.3,0.2-0.6,0.3-0.9,0.4
														c-0.5,0.2-1,0.3-1.5,0.4c-0.4,0.1-0.8,0.1-1.1,0.1C250.6,177.4,251.5,177.3,252.3,177z"/>
													<path class="st13" d="M253.8,177c0.1,0,0.1-0.1,0.2-0.1c-0.3,0.3-0.7,0.4-1,0.5c-0.3,0.1-0.7,0.3-1.1,0.2
														C252.6,177.5,253.2,177.3,253.8,177z"/>
													<path class="st13" d="M245.7,178.4c0.4-0.4,0.9-0.7,1.4-0.9h0.1c-0.5,0.2-0.9,0.5-1.4,0.9c-0.3,0.3-0.5,0.7-0.7,1
														c-0.1,0.2-0.1,0.4-0.2,0.6c0-0.1,0-0.3,0-0.4C245.1,179.2,245.4,178.7,245.7,178.4z"/>
													<path class="st13" d="M247.1,178.3c0.4-0.2,0.8-0.4,1.1-0.5c-0.1,0.1-0.2,0.1-0.3,0.2c-0.4,0.2-0.9,0.4-1.2,0.7
														c-0.4,0.3-0.8,0.8-1,1.2c0-0.3,0.2-0.5,0.4-0.8C246.4,178.7,246.8,178.5,247.1,178.3z"/>
													<path class="st13" d="M253.4,178.5c0.6-0.2,1.2-0.4,1.7-0.7c-0.1,0.2-0.4,0.3-0.5,0.4c-0.3,0.1-0.6,0.3-0.9,0.4
														C253.6,178.5,253.5,178.5,253.4,178.5z"/>
													<path class="st13" d="M249.3,178.3c0.5-0.1,1-0.1,1.5-0.1c-0.1,0.1-0.2,0.1-0.3,0.1c-0.6,0-1.1,0.1-1.7,0.3
														c-0.3,0.1-0.5,0.2-0.7,0.3C248.4,178.5,248.8,178.3,249.3,178.3z"/>
													<path class="st13" d="M243,181.1c0.1-0.1,0.2-0.2,0.3-0.2c-0.1,0.2-0.2,0.2-0.3,0.3c-0.5,0.5-0.7,1.2-0.9,1.8
														c-0.1,0.4-0.2,0.7-0.2,1.1c-0.1-0.7,0.1-1.3,0.4-1.9C242.4,181.9,242.7,181.5,243,181.1z"/>
													<path class="st13" d="M255.3,181c0.1,0.1,0.2,0.2,0.2,0.3c0.1,0.5,0.2,0.9,0.2,1.4c0,0.5-0.1,1.1-0.2,1.6
														c0,0.2-0.1,0.3-0.1,0.4c0.2-0.7,0.2-1.4,0.2-2.1C255.6,182.1,255.5,181.5,255.3,181z"/>
													<path class="st14" d="M246.1,181.7c0.4-0.2,0.9-0.2,1.2-0.2c-0.2,0-0.5,0-0.7,0.1C246.6,181.6,246.4,181.7,246.1,181.7
														z"/>
													<path class="st13" d="M243.3,181.8c0.1-0.1,0.2-0.2,0.3-0.3c-0.1,0.2-0.3,0.4-0.4,0.5c-0.3,0.6-0.5,1.2-0.6,1.8
														c-0.1,0.3-0.1,0.5-0.1,0.8c-0.1-0.2-0.1-0.5-0.1-0.7c0.1-0.4,0.2-0.9,0.3-1.3C242.9,182.5,243,182.1,243.3,181.8z"/>
													<path class="st13" d="M256.1,181.7c0.1,0.1,0.2,0.3,0.2,0.4c0.2,0.6,0.1,1.3,0.1,2c0,0.3,0,0.6-0.1,0.9
														c0,0.2-0.1,0.3-0.2,0.4c0.2-0.5,0.2-1.1,0.2-1.7C256.3,182.9,256.2,182.2,256.1,181.7z"/>
													<path class="st15" d="M246.8,182c0.4-0.1,0.8-0.1,1.2,0.1c0.4,0.2,0.6,0.7,0.5,1.1c-0.1,0-0.2,0-0.3,0
														c-0.3-0.1-0.7-0.1-1-0.1c-0.6,0.1-1.2,0.1-1.8,0.3c-0.4,0.1-0.8,0.4-1.2,0.5c0-0.2,0.1-0.3,0.1-0.4
														c0.3-0.4,0.6-0.8,1-1C245.8,182.2,246.3,182.1,246.8,182z"/>
													<path class="st15" d="M250.5,182.4c0.2-0.2,0.5-0.2,0.9-0.2c0.9,0.1,1.8,0.4,2.5,0.9c0.2,0.1,0.4,0.3,0.5,0.5
														c-0.1,0-0.1,0-0.2,0c-1-0.2-1.9-0.4-2.9-0.5c-0.4,0-0.8,0-1.1,0.1c-0.1,0-0.2,0-0.2-0.1
														C250.1,182.8,250.3,182.6,250.5,182.4z"/>
													<path class="st16" d="M245.6,184.5c0.1-0.1,0.3-0.1,0.3,0.1c0.1,0.2,0.1,0.5-0.1,0.7c-0.1,0.1-0.3,0.1-0.3-0.1
														C245.5,184.9,245.4,184.6,245.6,184.5z"/>
													<path class="st13" d="M242.8,185.3c0.1-0.3,0.1-0.6,0.3-0.9c-0.2,0.7-0.4,1.3-0.4,2
														C242.6,186.1,242.7,185.7,242.8,185.3z"/>
													<path class="st13" d="M257,184.4c0.3,0.5,0.1,1-0.1,1.5c-0.2,0.4-0.2,0.9-0.5,1.2c0.2-0.5,0.4-1.1,0.5-1.7
														C257,185.2,257,184.8,257,184.4z"/>
													<path class="st16" d="M252.5,184.6c0.1-0.1,0.3,0,0.3,0.1c0,0.2-0.1,0.4-0.2,0.6c-0.1,0.1-0.4,0.1-0.4-0.1
														C252.3,185,252.3,184.7,252.5,184.6z"/>
													<path class="st17" d="M248.7,185.4c0.2-0.2,0.5-0.2,0.7-0.1c0.1,0,0.1,0.1,0.2,0.1
														C249.3,185.3,249.1,185.4,248.7,185.4z"/>
													<path class="st13" d="M242,186.1c0-0.3-0.1-0.6,0.1-0.9c0,0.5,0.1,1,0.2,1.5c0.1,0.3,0.2,0.7,0.2,1
														C242.2,187.2,242,186.7,242,186.1z"/>
													<path class="st18" d="M245,185.5c0.2,0,0.5,0,0.7,0c0.2,0,0.4,0,0.6,0c-0.3,0.1-0.6,0.1-0.9,0.1
														C245.3,185.6,245.2,185.6,245,185.5z"/>
													<path class="st19" d="M252,185.6c0.4,0.1,0.7,0.1,1.1,0c-0.1,0.1-0.1,0.1-0.2,0.1c-0.2,0.1-0.5,0.1-0.7,0
														C252.1,185.7,252.1,185.7,252,185.6z"/>
													<path class="st13" d="M255.9,185.9c0.1,0.1,0.2,0.1,0.2,0.2c0.1,0.4,0,0.8-0.1,1.2H256
														C256,186.8,256,186.4,255.9,185.9z"/>
													<path class="st20" d="M244.8,186.1c0.4,0,0.8,0,1.2,0c-0.2,0.1-0.5,0.1-0.7,0.1C245.2,186.3,245,186.3,244.8,186.1z"/>
													<path class="st21" d="M248,186.7c0-0.3,0.4-0.4,0.7-0.3c0.1,0.1,0.1,0.2,0.1,0.2c-0.1,0.2-0.4,0.3-0.6,0.3
														C248.1,186.9,248,186.8,248,186.7z"/>
													<path class="st21" d="M249.8,186.4c0.2-0.1,0.3,0,0.5,0.1c0.1,0.1,0.2,0.2,0.2,0.3s-0.2,0.1-0.3,0.1
														c-0.2,0-0.4,0-0.5-0.1C249.6,186.6,249.7,186.5,249.8,186.4z"/>
													<path class="st22" d="M252,187.1c0.2-0.2,0.5-0.2,0.8-0.2c0.2,0,0.5,0,0.7,0.2c-0.2,0-0.5-0.1-0.7-0.1
														C252.5,187,252.3,187,252,187.1z"/>
													<path class="st11" d="M244.9,187.1c0.4-0.1,0.9,0,1.2,0.3c0.4,0.4,0.4,1.2-0.1,1.6c-0.4,0.3-0.9,0.5-1.3,0.4
														c-0.3-0.1-0.7-0.2-0.9-0.5c-0.2-0.2-0.2-0.6-0.1-0.9c0.1-0.4,0.4-0.7,0.7-0.9C244.6,187.1,244.8,187.1,244.9,187.1z"/>
													<path class="st11" d="M252.8,187.4c0.3-0.1,0.7,0,1,0.2c0.3,0.2,0.6,0.4,0.7,0.8c0.1,0.6-0.4,1.2-1,1.4
														c-0.4,0.1-0.9,0-1.2-0.3c-0.3-0.2-0.5-0.5-0.5-0.9s0.2-0.7,0.5-0.9C252.4,187.6,252.6,187.5,252.8,187.4z"/>
													<path class="st23" d="M252.6,187.8C252.6,187.8,252.6,187.8,252.6,187.8L252.6,187.8z"/>
													<path class="st12" d="M247.3,188.3c0.3-0.2,0.5-0.3,0.8-0.4c0.2-0.1,0.4,0,0.7,0c0.2,0,0.4-0.1,0.5,0
														c0.3,0.1,0.5,0.3,0.9,0.5c0.3,0.2,0.6,0.5,0.8,1c0.1,0.2,0.1,0.4,0.2,0.6c0,0-0.1-0.1-0.1-0.1l-0.1,0.1
														c-0.8-0.3-1.6-0.4-2.5-0.5c-0.6,0-1.1,0.1-1.7,0.2c-0.2,0.1-0.4,0.1-0.5,0.1c0.1-0.3,0.3-0.5,0.4-0.7
														C246.7,188.7,247,188.4,247.3,188.3z"/>
													<path class="st24" d="M247.8,188.5c0.3-0.1,0.7-0.2,1-0.2c0.2,0,0.3,0,0.5,0.1c0.4,0.2,0.8,0.4,1.1,0.7
														c0.2,0.2,0.4,0.4,0.5,0.7c-0.5-0.2-1.1-0.3-1.7-0.4c-1-0.1-2,0-2.9,0.2C246.8,189.1,247.2,188.8,247.8,188.5z"/>
													<path class="st25" d="M256.9,189.5c0.1-0.1,0.2-0.1,0.2-0.1c-0.3,0.3-0.5,0.8-0.8,1.2c-0.2,0.3-0.4,0.7-0.5,1
														c-0.1,0.2-0.1,0.3-0.2,0.4c0.1-0.6,0.4-1.1,0.7-1.7C256.4,190.1,256.6,189.8,256.9,189.5z"/>
													<path class="st26" d="M248,189.7c0.1-0.1,0.3-0.1,0.5-0.1c0.3,0,0.7,0,1,0.1c-0.2,0-0.4,0-0.5,0
														C248.6,189.7,248.4,189.7,248,189.7z"/>
													<path class="st25" d="M241.2,189.9c0.3,0.2,0.4,0.5,0.5,0.8c0.2,0.6,0.4,1.2,0.5,1.9c-0.1-0.7-0.3-1.5-0.6-2.1
														C241.5,190.3,241.3,190.1,241.2,189.9z"/>
													<path class="st12" d="M247.4,190.3c0.1-0.1,0.2-0.1,0.3-0.1c0.5,0,1-0.1,1.5,0c0.1,0,0.2,0.1,0.3,0.1
														c-0.1,0.2-0.3,0.4-0.3,0.7c-0.1,0-0.2,0-0.4,0c-0.4,0-0.8,0-1.1,0.1C247.7,190.8,247.6,190.5,247.4,190.3z"/>
													<path class="st27" d="M247.5,192.1c0.2-0.1,0.3-0.2,0.5-0.2c0.4-0.1,0.8-0.1,1.1,0c0.1,0,0.2,0.1,0.3,0.1
														c-0.3,0-0.6-0.1-0.9,0C248.1,192,247.8,192.1,247.5,192.1z"/>
													<path class="st14" d="M246.7,200.7c0.2,0.5,0.2,1.1,0.2,1.6c0,0.5,0,1-0.2,1.5c0-0.3,0.1-0.5,0.1-0.8
														c0-0.5,0-1-0.1-1.5C246.7,201.3,246.7,201,246.7,200.7z"/>
													<path class="st28" d="M240.6,205.1c0.1,0.4,0,0.7,0,1.1c0,0.8,0.3,1.5,0.6,2.2c0.2,0.5,0.5,0.9,0.7,1.4
														c-0.3-0.5-0.6-1.1-0.9-1.6c-0.3-0.5-0.5-1-0.5-1.6C240.5,206,240.6,205.5,240.6,205.1z"/>
													<path class="st28" d="M254.9,205.8c0-0.1,0-0.1,0-0.2c0.1,0.1,0.1,0.1,0.1,0.2c0.1,0.4,0,0.8-0.1,1.2
														c-0.1,0.5-0.3,1-0.6,1.4c0,0.1-0.1,0.1-0.2,0.1c0.1-0.2,0.3-0.5,0.4-0.8C254.7,207.2,254.9,206.5,254.9,205.8z"/>
													<path class="st28" d="M239.7,205.8c0,0,0.1,0.1,0.1,0.1c0.1,0.2,0.1,0.5,0.1,0.7c0.2,0.9,0.6,1.7,1,2.5
														c0.1,0.2,0.2,0.3,0.3,0.5c-0.1-0.1-0.2-0.3-0.3-0.4c-0.4-0.5-0.7-1.1-0.9-1.7C239.8,207,239.6,206.4,239.7,205.8z"/>
													<path class="st28" d="M252.3,209.7c0.2-0.2,0.4-0.5,0.6-0.8c0,0.1,0.1,0.2,0,0.3c-0.1,0.3-0.4,0.5-0.6,0.8
														c-0.3,0.3-0.7,0.7-0.9,1c-0.1,0.1-0.2,0.2-0.3,0.3c0-0.1,0-0.1,0.1-0.2C251.4,210.6,251.8,210.1,252.3,209.7z"/>
													<path class="st28" d="M252.9,211.2c0.1-0.1,0.2-0.2,0.4-0.3c-0.1,0.2-0.2,0.3-0.4,0.5c-0.2,0.3-0.5,0.5-0.7,0.9
														c-0.1,0.1-0.1,0.2-0.2,0.2C252.3,212,252.6,211.6,252.9,211.2z"/>
													<path class="st28" d="M247.7,211.8c-0.2,0-0.4,0-0.6-0.1c0,0-0.1,0-0.1-0.1c0,0-0.1,0-0.1,0c-0.1-0.1-0.1-0.1-0.2-0.1
														l0,0c0.2,0.2,0.4,0.4,0.6,0.6c0.1,0.1,0.3,0.2,0.4,0.4l0,0l0,0c0.1,0,0.1-0.1,0.1-0.1l0,0l0,0c0.3-0.1,0.4-0.3,0.6-0.5
														c0.1-0.1,0.2-0.2,0.2-0.3C248.5,211.8,248.1,211.8,247.7,211.8z"/>
													<path class="st28" d="M249.7,212.2c0.1-0.1,0.2-0.2,0.3-0.2c-0.1,0.2-0.3,0.4-0.4,0.6c-0.1,0.2-0.2,0.4-0.3,0.5
														c0,0-0.1,0-0.1,0C249.3,212.7,249.5,212.4,249.7,212.2z"/>
													<path class="st28" d="M247.6,212c0.1-0.1,0.2,0,0.1,0.1C247.7,212.2,247.5,212.1,247.6,212z"/>
													<path class="st28" d="M259.8,217.4c0-0.5,0.1-1,0.2-1.4c0.3-1.2,0.7-2.3,1.3-3.4c0-0.1,0.1-0.1,0-0.2
														c-0.1,0-0.2,0.1-0.2,0.2c-0.3,0.5-0.5,1.1-0.8,1.7c-0.2,0.6-0.4,1.2-0.5,1.8c-0.1,0.4-0.1,0.8-0.1,1.2
														c0,0.1,0,0.1,0,0.1L259.8,217.4L259.8,217.4z"/>
													<path class="st28" d="M244.9,212.8c0.1-0.1,0.2,0,0.2,0c0.4,0.2,0.8,0.5,1.1,0.8c0.2,0.2,0.5,0.4,0.5,0.7
														c-0.2-0.1-0.2-0.2-0.4-0.3C246,213.5,245.5,213.1,244.9,212.8z"/>
													<path class="st28" d="M260.5,217.4c0-0.1,0.1-0.2,0.1-0.4c0.2-1,0.5-2.1,0.9-3.1c0.1-0.2,0.1-0.3,0.1-0.4
														c-0.1,0.1-0.1,0.1-0.2,0.2c-0.3,0.5-0.5,1-0.7,1.6c-0.2,0.7-0.3,1.4-0.4,2.1H260.5L260.5,217.4z"/>
													<path class="st28" d="M232,217.4h0.2c-0.1-1-0.4-2.1-0.6-3.1c-0.1-0.2-0.1-0.3-0.2-0.4c0,0-0.1,0-0.1,0
														c0,0.2,0.1,0.3,0.1,0.5C231.7,215.3,231.9,216.3,232,217.4z"/>
													<path class="st28" d="M232.8,217.4h0.2c0-0.1,0-0.2-0.1-0.3c-0.1-0.5-0.2-1.1-0.4-1.6c-0.1-0.3-0.2-0.7-0.3-1
														c0-0.1-0.1-0.1-0.2-0.2C232.3,215.2,232.6,216.3,232.8,217.4L232.8,217.4z"/>
													<path class="st28" d="M245.9,214.4c0.1,0,0.2,0.1,0.3,0.1c0.3,0.2,0.5,0.5,0.6,0.9c0,0.1,0.1,0.3-0.1,0.2
														c-0.1-0.2-0.2-0.3-0.3-0.5c-0.1-0.2-0.4-0.3-0.5-0.5C245.9,214.6,245.8,214.5,245.9,214.4z"/>
													<path class="st28" d="M247.7,215c0,0,0.1-0.1,0.1-0.1c0.2,0.4,0.3,0.8,0.4,1.1c0,0.1,0.1,0.3,0,0.4
														c-0.2-0.2-0.2-0.5-0.3-0.8C247.9,215.5,247.8,215.2,247.7,215z"/>
												</g>
											</g>
										</g>
									</g>
								</g>
							</g>
						</g>
					</g>
				</g>
			</g>
		</g>
	</g>
</g>
</svg>
