<?xml version="1.0" encoding="utf-8"?>
<!-- Generator: Adobe Illustrator 28.3.0, SVG Export Plug-In . SVG Version: 6.00 Build 0)  -->
<svg version="1.1" id="Layer_1" xmlns="http://www.w3.org/2000/svg" xmlns:xlink="http://www.w3.org/1999/xlink" x="0px" y="0px"
	 viewBox="0 0 768 384" style="enable-background:new 0 0 768 384;" xml:space="preserve">
<style type="text/css">
	.st0{fill:none;stroke:#CBD5E1;stroke-dasharray:12.08,12.08;}
	.st1{fill:#020617;stroke:#1E293B;}
	.st2{opacity:0.5;fill:#94A3B8;enable-background:new    ;}
</style>
<g>
	<path class="st0" d="M611.2,264.6H156.8c-7.9,0-14.3-6.4-14.3-14.3V133.8c0-7.9,6.4-14.3,14.3-14.3h454.3c7.9,0,14.3,6.4,14.3,14.3
		v116.5C625.5,258.1,619.1,264.6,611.2,264.6z"/>
</g>
<path class="st1" d="M200.4,155.2h367.1c9.2,0,16.7,7.5,16.7,16.7v21.9c0,9.2-7.5,16.7-16.7,16.7H200.4c-9.2,0-16.7-7.5-16.7-16.7
	v-21.9C183.7,162.7,191.2,155.2,200.4,155.2z"/>
<path class="st2" d="M443.1,187.8H206.9c-1.8,0-3.3-1.5-3.3-3.3v-3.3c0-1.8,1.5-3.3,3.3-3.3h236.2c1.8,0,3.3,1.5,3.3,3.3v3.3
	C446.4,186.3,444.9,187.8,443.1,187.8z"/>
<path class="st2" d="M427,228.9H190.8c-1.8,0-3.3-1.1-3.3-2.4V224c0-1.3,1.5-2.4,3.3-2.4H427c1.8,0,3.3,1.1,3.3,2.4v2.4
	C430.3,227.8,428.8,228.9,427,228.9z"/>
</svg>
