<?xml version="1.0" encoding="utf-8"?>
<!-- Generator: Adobe Illustrator 28.1.0, SVG Export Plug-In . SVG Version: 6.00 Build 0)  -->
<svg version="1.1" id="Layer_1" xmlns="http://www.w3.org/2000/svg" xmlns:xlink="http://www.w3.org/1999/xlink" x="0px" y="0px"
	 viewBox="0 0 768 384" style="enable-background:new 0 0 768 384;" xml:space="preserve">
<style type="text/css">
	.st0{fill:none;stroke:#212121;stroke-dasharray:12.0753,12.0753;}
	.st1{fill:#FFFFFF;stroke:#212121;}
	.st2{opacity:0.5;fill:#94A3B8;enable-background:new    ;}
</style>
<g>
	<path class="st0" d="M611.2,275.3H156.8c-7.9,0-14.3-7.3-14.3-16.4V125.1c0-9.1,6.4-16.4,14.3-16.4h454.3c7.9,0,14.3,7.3,14.3,16.4
		v133.8C625.5,267.8,619.1,275.3,611.2,275.3z"/>
</g>
<g>
	<g>
		<path class="st1" d="M259.6,187.2h-48.3c-4.5,0-8.2-3.7-8.2-8.2v-10.3c0-4.5,3.7-8.2,8.2-8.2h48.3c4.5,0,8.2,3.7,8.2,8.2V179
			C267.8,183.5,264.1,187.2,259.6,187.2z"/>
		<path class="st2" d="M254.9,176.7h-40.5c-0.3,0-0.5-0.9-0.5-1.9v-1.9c0-1,0.2-1.9,0.5-1.9h40.5c0.3,0,0.5,0.9,0.5,1.9v1.9
			C255.4,175.8,255.2,176.7,254.9,176.7z"/>
	</g>
	<g>
		<path class="st1" d="M333.9,187.2h-48.3c-4.5,0-8.2-3.7-8.2-8.2v-10.3c0-4.5,3.7-8.2,8.2-8.2h48.3c4.5,0,8.2,3.7,8.2,8.2V179
			C342,183.5,338.4,187.2,333.9,187.2z"/>
		<path class="st2" d="M329.2,176.7h-40.5c-0.3,0-0.5-0.9-0.5-1.9v-1.9c0-1,0.2-1.9,0.5-1.9h40.5c0.3,0,0.5,0.9,0.5,1.9v1.9
			C329.7,175.8,329.5,176.7,329.2,176.7z"/>
	</g>
	<g>
		<path class="st1" d="M408.1,187.2h-48.3c-4.5,0-8.2-3.7-8.2-8.2v-10.3c0-4.5,3.7-8.2,8.2-8.2h48.3c4.5,0,8.2,3.7,8.2,8.2V179
			C416.3,183.5,412.7,187.2,408.1,187.2z"/>
		<path class="st2" d="M403.5,176.7H363c-0.3,0-0.5-0.9-0.5-1.9v-1.9c0-1,0.2-1.9,0.5-1.9h40.5c0.3,0,0.5,0.9,0.5,1.9v1.9
			C404,175.8,403.7,176.7,403.5,176.7z"/>
	</g>
	<g>
		<path class="st1" d="M482.4,187.2h-48.3c-4.5,0-8.2-3.7-8.2-8.2v-10.3c0-4.5,3.7-8.2,8.2-8.2h48.3c4.5,0,8.2,3.7,8.2,8.2V179
			C490.6,183.5,486.9,187.2,482.4,187.2z"/>
		<path class="st2" d="M477.7,176.7h-40.5c-0.3,0-0.5-0.9-0.5-1.9v-1.9c0-1,0.2-1.9,0.5-1.9h40.5c0.3,0,0.5,0.9,0.5,1.9v1.9
			C478.2,175.8,478,176.7,477.7,176.7z"/>
	</g>
	<g>
		<path class="st1" d="M556.7,187.2h-48.3c-4.5,0-8.2-3.7-8.2-8.2v-10.3c0-4.5,3.7-8.2,8.2-8.2h48.3c4.5,0,8.2,3.7,8.2,8.2V179
			C564.9,183.5,561.2,187.2,556.7,187.2z"/>
		<path class="st2" d="M552,176.7h-40.5c-0.3,0-0.5-0.9-0.5-1.9v-1.9c0-1,0.2-1.9,0.5-1.9H552c0.3,0,0.5,0.9,0.5,1.9v1.9
			C552.5,175.8,552.3,176.7,552,176.7z"/>
	</g>
	<g>
		<path class="st1" d="M259.6,223.5h-48.3c-4.5,0-8.2-3.7-8.2-8.2V205c0-4.5,3.7-8.2,8.2-8.2h48.3c4.5,0,8.2,3.7,8.2,8.2v10.3
			C267.8,219.8,264.1,223.5,259.6,223.5z"/>
		<path class="st2" d="M254.9,213h-40.5c-0.3,0-0.5-0.9-0.5-1.9v-1.9c0-1,0.2-1.9,0.5-1.9h40.5c0.3,0,0.5,0.9,0.5,1.9v1.9
			C255.4,212.1,255.2,213,254.9,213z"/>
	</g>
	<g>
		<path class="st1" d="M333.9,223.5h-48.3c-4.5,0-8.2-3.7-8.2-8.2V205c0-4.5,3.7-8.2,8.2-8.2h48.3c4.5,0,8.2,3.7,8.2,8.2v10.3
			C342,219.8,338.4,223.5,333.9,223.5z"/>
		<path class="st2" d="M329.2,213h-40.5c-0.3,0-0.5-0.9-0.5-1.9v-1.9c0-1,0.2-1.9,0.5-1.9h40.5c0.3,0,0.5,0.9,0.5,1.9v1.9
			C329.7,212.1,329.5,213,329.2,213z"/>
	</g>
	<g>
		<path class="st1" d="M408.1,223.5h-48.3c-4.5,0-8.2-3.7-8.2-8.2V205c0-4.5,3.7-8.2,8.2-8.2h48.3c4.5,0,8.2,3.7,8.2,8.2v10.3
			C416.3,219.8,412.7,223.5,408.1,223.5z"/>
		<path class="st2" d="M403.5,213H363c-0.3,0-0.5-0.9-0.5-1.9v-1.9c0-1,0.2-1.9,0.5-1.9h40.5c0.3,0,0.5,0.9,0.5,1.9v1.9
			C404,212.1,403.7,213,403.5,213z"/>
	</g>
	<g>
		<path class="st1" d="M482.4,223.5h-48.3c-4.5,0-8.2-3.7-8.2-8.2V205c0-4.5,3.7-8.2,8.2-8.2h48.3c4.5,0,8.2,3.7,8.2,8.2v10.3
			C490.6,219.8,486.9,223.5,482.4,223.5z"/>
		<path class="st2" d="M477.7,213h-40.5c-0.3,0-0.5-0.9-0.5-1.9v-1.9c0-1,0.2-1.9,0.5-1.9h40.5c0.3,0,0.5,0.9,0.5,1.9v1.9
			C478.2,212.1,478,213,477.7,213z"/>
	</g>
	<g>
		<path class="st1" d="M556.7,223.5h-48.3c-4.5,0-8.2-3.7-8.2-8.2V205c0-4.5,3.7-8.2,8.2-8.2h48.3c4.5,0,8.2,3.7,8.2,8.2v10.3
			C564.9,219.8,561.2,223.5,556.7,223.5z"/>
		<path class="st2" d="M552,213h-40.5c-0.3,0-0.5-0.9-0.5-1.9v-1.9c0-1,0.2-1.9,0.5-1.9H552c0.3,0,0.5,0.9,0.5,1.9v1.9
			C552.5,212.1,552.3,213,552,213z"/>
	</g>
</g>
</svg>
