<?xml version="1.0" encoding="utf-8"?>
<!-- Generator: Adobe Illustrator 28.1.0, SVG Export Plug-In . SVG Version: 6.00 Build 0)  -->
<svg version="1.1" id="Layer_1" xmlns="http://www.w3.org/2000/svg" xmlns:xlink="http://www.w3.org/1999/xlink" x="0px" y="0px"
	 viewBox="0 0 768 384" style="enable-background:new 0 0 768 384;" xml:space="preserve">
<style type="text/css">
	.st0{fill:none;stroke:#212121;stroke-dasharray:12.0753,12.0753;}
	.st1{fill:#FFFFFF;stroke:#212121;}
	.st2{fill:none;stroke:#212121;}
	.st3{fill:none;stroke:#212121;stroke-width:2;}
	.st4{opacity:0.5;fill:#94A3B8;enable-background:new    ;}
</style>
<path class="st0" d="M563.4,300.9H204.6c-10,0-18.2-8.2-18.2-18.2V101.3c0-10,8.1-18.2,18.2-18.2h358.7c10,0,18.2,8.2,18.2,18.2
	v181.4C581.6,292.7,573.4,300.9,563.4,300.9z"/>
<g>
	<path class="st1" d="M552.3,281.7H215.7c-6,0-10.9-4.9-10.9-11V113.3c0-6,4.9-11,10.9-11h336.5c6,0,10.9,4.9,10.9,11v157.3
		C563.2,276.7,558.3,281.7,552.3,281.7z"/>
	<line class="st2" x1="204.8" y1="141.6" x2="563.2" y2="141.6"/>
	<g>
		<line class="st3" x1="544.1" y1="116.2" x2="530.8" y2="129.5"/>
		<line class="st3" x1="544.1" y1="129.5" x2="530.8" y2="116.2"/>
	</g>
	<path class="st4" d="M503.3,177.4H236.6c-1.9,0-3.4-1.2-3.4-2.7V172c0-1.5,1.6-2.7,3.4-2.7h266.7c1.9,0,3.4,1.2,3.4,2.7v2.7
		C506.7,176.2,505.2,177.4,503.3,177.4z"/>
	<path class="st4" d="M479.7,194.7H236.6c-1.9,0-3.4-1.2-3.4-2.7v-2.7c0-1.5,1.6-2.7,3.4-2.7h243.1c1.9,0,3.4,1.2,3.4,2.7v2.7
		C483.1,193.6,481.6,194.7,479.7,194.7z"/>
	<path class="st4" d="M495,212H236.6c-1.8,0-3.3-1.2-3.3-2.7v-2.7c0-1.5,1.5-2.7,3.3-2.7H495c1.8,0,3.3,1.2,3.3,2.7v2.7
		C498.3,210.8,496.8,212,495,212z"/>
	<path class="st4" d="M490.1,229.3H236.7c-1.9,0-3.5-1.2-3.5-2.7v-2.7c0-1.5,1.6-2.7,3.5-2.7H490c1.9,0,3.5,1.2,3.5,2.7v2.7
		C493.6,228.1,492,229.3,490.1,229.3z"/>
	<path class="st4" d="M422.8,246.6h-187c-1.4,0-2.6-1.2-2.6-2.7v-2.7c0-1.5,1.2-2.7,2.6-2.7h187c1.4,0,2.6,1.2,2.6,2.7v2.7
		C425.5,245.4,424.3,246.6,422.8,246.6z"/>
</g>
</svg>
