<?xml version="1.0" encoding="utf-8"?>
<!-- Generator: Adobe Illustrator 28.1.0, SVG Export Plug-In . SVG Version: 6.00 Build 0)  -->
<svg version="1.1" id="Layer_1" xmlns="http://www.w3.org/2000/svg" xmlns:xlink="http://www.w3.org/1999/xlink" x="0px" y="0px"
	 viewBox="0 0 768 384" style="enable-background:new 0 0 768 384;" xml:space="preserve">
<style type="text/css">
	.st0{fill:none;stroke:#CBD5E1;stroke-dasharray:12.08,12.08;}
	.st1{fill:#FFFFFF;}
	.st2{fill:#020617;stroke:#1E293B;}
	.st3{fill:none;stroke:#020617;stroke-width:3;stroke-linecap:round;stroke-linejoin:round;}
</style>
<g>
	<path class="st0" d="M611.2,315.6H156.8c-7.9,0-14.3-10.9-14.3-24.4V92.8c0-13.5,6.4-24.4,14.3-24.4h454.3
		c7.9,0,14.3,10.9,14.3,24.4v198.4C625.5,304.5,619.1,315.6,611.2,315.6z"/>
</g>
<g>
	<path class="st1" d="M288.2,213.5h-41.6c-13.3,0-24.1-10.8-24.1-24.1v0c0-13.3,10.8-24.1,24.1-24.1h41.6
		c13.3,0,24.1,10.8,24.1,24.1v0C312.3,202.7,301.5,213.5,288.2,213.5z"/>
	<g>
		<path class="st2" d="M289.2,213.5L289.2,213.5c-13.3,0-24.1-10.8-24.1-24.1l0,0c0-13.3,10.8-24.1,24.1-24.1l0,0
			c13.3,0,24.1,10.8,24.1,24.1l0,0C313.3,202.8,302.6,213.5,289.2,213.5z"/>
	</g>
	<polyline class="st3" points="240.8,189.9 245.4,193.5 253.9,185.2 	"/>
</g>
<g>
	<path class="st1" d="M404.3,213.5h-41.6c-13.3,0-24.1-10.8-24.1-24.1v0c0-13.3,10.8-24.1,24.1-24.1h41.6
		c13.3,0,24.1,10.8,24.1,24.1v0C428.4,202.7,417.6,213.5,404.3,213.5z"/>
	<g>
		<path class="st2" d="M405.3,213.5L405.3,213.5c-13.3,0-24.1-10.8-24.1-24.1l0,0c0-13.3,10.8-24.1,24.1-24.1l0,0
			c13.3,0,24.1,10.8,24.1,24.1l0,0C429.4,202.8,418.7,213.5,405.3,213.5z"/>
	</g>
	<polyline class="st3" points="356.9,189.9 361.5,193.5 370,185.2 	"/>
</g>
<g>
	<path class="st1" d="M520.4,213.5h-41.6c-13.3,0-24.1-10.8-24.1-24.1v0c0-13.3,10.8-24.1,24.1-24.1h41.6
		c13.3,0,24.1,10.8,24.1,24.1v0C544.5,202.7,533.7,213.5,520.4,213.5z"/>
	<g>
		<path class="st2" d="M521.4,213.5L521.4,213.5c-13.3,0-24.1-10.8-24.1-24.1l0,0c0-13.3,10.8-24.1,24.1-24.1l0,0
			c13.3,0,24.1,10.8,24.1,24.1l0,0C545.5,202.8,534.8,213.5,521.4,213.5z"/>
	</g>
	<polyline class="st3" points="473,189.9 477.6,193.5 486.1,185.2 	"/>
</g>
</svg>
