<?xml version="1.0" encoding="utf-8"?>
<!-- Generator: Adobe Illustrator 28.1.0, SVG Export Plug-In . SVG Version: 6.00 Build 0)  -->
<svg version="1.1" id="f9ec34a6-c505-43b0-867a-d5ad739f0911"
	 xmlns="http://www.w3.org/2000/svg" xmlns:xlink="http://www.w3.org/1999/xlink" x="0px" y="0px" viewBox="0 0 768 384"
	 style="enable-background:new 0 0 768 384;" xml:space="preserve">
<style type="text/css">
	.st0{fill:#FFFFFF;stroke:#212121;}
	.st1{opacity:0.5;fill:#94A3B8;enable-background:new    ;}
	.st2{fill:none;stroke:#212121;stroke-dasharray:12.08,12.08;}
</style>
<path class="st0" d="M228.8,134.5h30.4c5.1,0,9.3,4.2,9.3,9.3v30.4c0,5.1-4.2,9.3-9.3,9.3h-30.4c-5.1,0-9.3-4.2-9.3-9.3v-30.4
	C219.5,138.7,223.7,134.5,228.8,134.5z"/>
<path class="st1" d="M251.6,164.4h-15.5c-2,0-3.5-1.6-3.4-3.6l0,0v-3.6l0,0c-0.1-2,1.4-3.6,3.4-3.6h15.5c1.9,0,3.5,1.7,3.4,3.6l0,0
	v3.6l0,0.1C255.1,162.8,253.6,164.4,251.6,164.4z"/>
<path class="st0" d="M298.8,134.5h30.4c5.1,0,9.3,4.2,9.3,9.3v30.4c0,5.1-4.2,9.3-9.3,9.3h-30.4c-5.1,0-9.3-4.2-9.3-9.3v-30.4
	C289.5,138.7,293.7,134.5,298.8,134.5z"/>
<path class="st1" d="M321.6,164.4h-15.5c-2,0-3.5-1.6-3.4-3.6l0,0v-3.6l0,0c-0.1-1.9,1.4-3.6,3.4-3.6h15.5c2,0,3.5,1.6,3.4,3.6l0,0
	v3.6l0,0C325.1,162.7,323.6,164.4,321.6,164.4z"/>
<path class="st0" d="M368.8,134.5h30.4c5.1,0,9.3,4.2,9.3,9.3v30.4c0,5.1-4.2,9.3-9.3,9.3h-30.4c-5.1,0-9.3-4.2-9.3-9.3v-30.4
	C359.5,138.7,363.7,134.5,368.8,134.5z"/>
<path class="st1" d="M391.6,164.4h-15.4c-2,0-3.5-1.6-3.4-3.6l0,0v-3.6l0,0c-0.1-2,1.4-3.6,3.4-3.6h15.4c2,0,3.5,1.7,3.4,3.6l0,0
	v3.6l0,0C395.1,162.8,393.6,164.4,391.6,164.4z"/>
<path class="st0" d="M438.8,134.5h30.4c5.1,0,9.3,4.2,9.3,9.3v30.4c0,5.1-4.2,9.3-9.3,9.3h-30.4c-5.1,0-9.3-4.2-9.3-9.3v-30.4
	C429.5,138.7,433.7,134.5,438.8,134.5z"/>
<path class="st1" d="M461.6,164.4h-15.4c-2,0-3.5-1.7-3.4-3.6l0,0v-3.6l0,0c-0.1-2,1.4-3.6,3.4-3.6h15.5c1.9,0,3.5,1.7,3.4,3.6l0,0
	v3.6l0,0C465.1,162.8,463.6,164.4,461.6,164.4z"/>
<path class="st0" d="M508.8,134.5h30.4c5.1,0,9.3,4.2,9.3,9.3v30.4c0,5.1-4.2,9.3-9.3,9.3h-30.4c-5.1,0-9.3-4.2-9.3-9.3v-30.4
	C499.5,138.7,503.7,134.5,508.8,134.5z"/>
<path class="st1" d="M531.5,164.4h-15.3c-2,0-3.6-1.6-3.5-3.6c0,0,0,0,0,0v-3.6c0,0,0,0,0,0c-0.1-2,1.5-3.6,3.5-3.6h15.3
	c2,0,3.6,1.6,3.5,3.6c0,0,0,0,0,0v3.6c0,0,0,0,0,0.1C535.1,162.8,533.5,164.4,531.5,164.4z"/>
<path class="st0" d="M228.8,200.5h30.4c5.1,0,9.3,4.2,9.3,9.3v30.4c0,5.1-4.2,9.3-9.3,9.3h-30.4c-5.1,0-9.3-4.2-9.3-9.3v-30.4
	C219.5,204.7,223.7,200.5,228.8,200.5z"/>
<path class="st1" d="M251.6,230.4h-15.5c-2,0-3.5-1.7-3.4-3.6l0,0v-3.6l0,0c-0.1-2,1.4-3.6,3.4-3.6h15.5c1.9,0,3.5,1.7,3.4,3.6l0,0
	v3.6l0,0.1C255.1,228.8,253.6,230.4,251.6,230.4z"/>
<path class="st0" d="M298.8,200.5h30.4c5.1,0,9.3,4.2,9.3,9.3v30.4c0,5.1-4.2,9.3-9.3,9.3h-30.4c-5.1,0-9.3-4.2-9.3-9.3v-30.4
	C289.5,204.7,293.7,200.5,298.8,200.5z"/>
<path class="st1" d="M321.6,230.4h-15.5c-2,0-3.5-1.6-3.4-3.6l0,0v-3.6l0,0c-0.1-1.9,1.4-3.6,3.4-3.6h15.5c2,0,3.5,1.6,3.4,3.6l0,0
	v3.6l0,0C325.1,228.7,323.6,230.4,321.6,230.4z"/>
<path class="st0" d="M368.8,200.5h30.4c5.1,0,9.3,4.2,9.3,9.3v30.4c0,5.1-4.2,9.3-9.3,9.3h-30.4c-5.1,0-9.3-4.2-9.3-9.3v-30.4
	C359.5,204.7,363.7,200.5,368.8,200.5z"/>
<path class="st1" d="M391.6,230.4h-15.4c-2,0-3.5-1.6-3.4-3.6l0,0v-3.6l0,0c-0.1-2,1.4-3.6,3.4-3.6h15.4c2,0,3.5,1.7,3.4,3.6l0,0
	v3.6l0,0C395.1,228.8,393.6,230.4,391.6,230.4z"/>
<path class="st0" d="M438.8,200.5h30.4c5.1,0,9.3,4.2,9.3,9.3v30.4c0,5.1-4.2,9.3-9.3,9.3h-30.4c-5.1,0-9.3-4.2-9.3-9.3v-30.4
	C429.5,204.7,433.7,200.5,438.8,200.5z"/>
<path class="st1" d="M461.6,230.4h-15.4c-2,0-3.5-1.7-3.4-3.6l0,0v-3.6l0,0c-0.1-2,1.4-3.6,3.4-3.6h15.5c1.9,0,3.5,1.7,3.4,3.6l0,0
	v3.6l0,0C465.1,228.8,463.6,230.4,461.6,230.4z"/>
<path class="st0" d="M508.8,200.5h30.4c5.1,0,9.3,4.2,9.3,9.3v30.4c0,5.1-4.2,9.3-9.3,9.3h-30.4c-5.1,0-9.3-4.2-9.3-9.3v-30.4
	C499.5,204.7,503.7,200.5,508.8,200.5z"/>
<path class="st1" d="M531.5,230.4h-15.3c-2,0-3.6-1.6-3.5-3.6c0,0,0,0,0,0v-3.6c0,0,0,0,0,0c-0.1-2,1.5-3.6,3.5-3.6h15.3
	c2,0,3.6,1.6,3.5,3.6c0,0,0,0,0,0v3.6c0,0,0,0,0,0.1C535.1,228.8,533.5,230.4,531.5,230.4z"/>
<path class="st2" d="M203.3,96h361.3c9,0,16.3,7.3,16.3,16.3v159.3c0,9-7.3,16.3-16.3,16.3H203.3c-9,0-16.3-7.3-16.3-16.3V112.3
	C187,103.3,194.3,96,203.3,96z"/>
</svg>
