<?xml version="1.0" encoding="utf-8"?>
<!-- Generator: Adobe Illustrator 28.1.0, SVG Export Plug-In . SVG Version: 6.00 Build 0)  -->
<svg version="1.1" id="Layer_1" xmlns="http://www.w3.org/2000/svg" xmlns:xlink="http://www.w3.org/1999/xlink" x="0px" y="0px"
	 viewBox="0 0 768 384" style="enable-background:new 0 0 768 384;" xml:space="preserve">
<style type="text/css">
	.st0{fill:none;stroke:#212121;stroke-dasharray:12.0753,12.0753;}
	.st1{fill:#FFFFFF;stroke:#212121;}
	.st2{fill:#FFFFFF;stroke:#212121;stroke-width:5;stroke-linecap:round;stroke-linejoin:round;}
</style>
<g>
	<path class="st0" d="M611.2,315.6H156.8c-7.9,0-14.3-10.9-14.3-24.4V92.8c0-13.5,6.4-24.4,14.3-24.4h454.3
		c7.9,0,14.3,10.9,14.3,24.4v198.4C625.5,304.5,619.1,315.6,611.2,315.6z"/>
</g>
<path class="st1" d="M270.9,214.7h-35.7c-6.7,0-12.2-5.5-12.2-12.2v-35.7c0-6.7,5.5-12.2,12.2-12.2h35.7c6.7,0,12.2,5.5,12.2,12.2
	v35.7C283.1,209.2,277.6,214.7,270.9,214.7z"/>
<path class="st1" d="M358.2,214.7h-35.7c-6.7,0-12.2-5.5-12.2-12.2v-35.7c0-6.7,5.5-12.2,12.2-12.2h35.7c6.7,0,12.2,5.5,12.2,12.2
	v35.7C370.4,209.2,364.9,214.7,358.2,214.7z"/>
<path class="st1" d="M445.5,214.7h-35.7c-6.7,0-12.2-5.5-12.2-12.2v-35.7c0-6.7,5.5-12.2,12.2-12.2h35.7c6.7,0,12.2,5.5,12.2,12.2
	v35.7C457.7,209.2,452.2,214.7,445.5,214.7z"/>
<path class="st1" d="M532.8,214.7h-35.7c-6.7,0-12.2-5.5-12.2-12.2v-35.7c0-6.7,5.5-12.2,12.2-12.2h35.7c6.7,0,12.2,5.5,12.2,12.2
	v35.7C545,209.2,539.6,214.7,532.8,214.7z"/>
<polyline class="st2" points="242.5,184.4 249.9,190.2 263.6,176.8 "/>
<polyline class="st2" points="329.8,184.4 337.2,190.2 350.9,176.8 "/>
<polyline class="st2" points="417.1,184.4 424.5,190.2 438.2,176.8 "/>
<polyline class="st2" points="504.4,184.4 511.8,190.2 525.5,176.8 "/>
</svg>
