<?xml version="1.0" encoding="utf-8"?>
<!-- Generator: Adobe Illustrator 28.1.0, SVG Export Plug-In . SVG Version: 6.00 Build 0)  -->
<svg version="1.1" id="b0dc27b4-ac01-4bcf-8250-299b18238fa0"
	 xmlns="http://www.w3.org/2000/svg" xmlns:xlink="http://www.w3.org/1999/xlink" x="0px" y="0px" viewBox="0 0 768 384"
	 style="enable-background:new 0 0 768 384;" xml:space="preserve">
<style type="text/css">
	.st0{fill:#020617;stroke:#1E293B;}
	.st1{fill:none;stroke:#CBD5E1;stroke-dasharray:12.08,12.08;}
	.st2{opacity:0.5;fill:#94A3B8;enable-background:new    ;}
</style>
<path class="st0" d="M226.4,83.9h315.1c10,0,18,8.1,18,18V282c0,10-8.1,18-18,18H226.4c-10,0-18-8.1-18-18V101.9
	C208.4,92,216.5,83.9,226.4,83.9z"/>
<path class="st1" d="M198.8,46.6h370.4C584,46.6,596,59.3,596,75v234c0,15.7-12,28.3-26.8,28.3H198.8c-14.8,0-26.8-12.7-26.8-28.3
	V75C172,59.3,184,46.6,198.8,46.6z"/>
<path class="st2" d="M517.3,156.4H250.6c-1.9,0-3.4-1.2-3.4-2.7V151c0-1.5,1.6-2.7,3.4-2.7h266.7c1.9,0,3.4,1.2,3.4,2.7v2.7
	C520.8,155.2,519.2,156.4,517.3,156.4z"/>
<path class="st2" d="M493.8,175.8H250.6c-1.9,0-3.4-1.2-3.4-2.7v-2.7c0-1.5,1.6-2.7,3.4-2.7h243.1c1.9,0,3.4,1.2,3.4,2.7v2.7
	C497.1,174.6,495.6,175.8,493.8,175.8z"/>
<path class="st2" d="M509,194.1H250.6c-1.8,0-3.3-1.2-3.3-2.7v-2.7c0-1.5,1.5-2.7,3.3-2.7H509c1.8,0,3.3,1.2,3.3,2.7v2.7
	C512.3,192.9,510.9,194.1,509,194.1z"/>
<path class="st2" d="M504.1,214.4H250.8c-1.9,0-3.5-1.2-3.5-2.7V209c0-1.5,1.6-2.7,3.5-2.7H504c1.9,0,3.5,1.2,3.5,2.7v2.7
	C507.6,213.1,506,214.4,504.1,214.4z"/>
<path class="st2" d="M436.9,235.6h-187c-1.5,0-2.6-1.2-2.6-2.7v-2.7c0-1.5,1.1-2.7,2.6-2.7h187c1.5,0,2.6,1.2,2.6,2.7v2.8
	c0.1,1.4-1,2.6-2.4,2.6C437,235.7,436.9,235.7,436.9,235.6z"/>
</svg>
