<?xml version="1.0" encoding="utf-8"?>
<!-- Generator: Adobe Illustrator 28.1.0, SVG Export Plug-In . SVG Version: 6.00 Build 0)  -->
<svg version="1.1" id="fc2e30f3-4823-4b60-a39f-4ef1b1954838"
	 xmlns="http://www.w3.org/2000/svg" xmlns:xlink="http://www.w3.org/1999/xlink" x="0px" y="0px" viewBox="0 0 768 384"
	 style="enable-background:new 0 0 768 384;" xml:space="preserve">
<style type="text/css">
	.st0{fill:none;stroke:#212121;stroke-dasharray:12.08,12.08;}
	.st1{fill:none;stroke:#B3BDC6;stroke-width:6;}
	.st2{fill:none;stroke:#CBCFD1;stroke-width:6;}
	.st3{fill:none;stroke:#020617;stroke-width:6;stroke-linecap:round;}
	.st4{fill:none;stroke:#020617;stroke-width:4;stroke-linecap:round;stroke-linejoin:round;}
</style>
<path class="st0" d="M198.8,97h370.4c14.8,0,26.8,12,26.8,26.8v136.4c0,14.8-12,26.8-26.8,26.8H198.8c-14.8,0-26.8-12-26.8-26.8
	V123.8C172,109,184,97,198.8,97z"/>
<circle class="st1" cx="265.8" cy="192" r="44.5"/>
<circle class="st2" cx="265.8" cy="192" r="44.5"/>
<circle class="st2" cx="385.2" cy="192.5" r="44.5"/>
<circle class="st2" cx="502.2" cy="192.5" r="44.5"/>
<path class="st3" d="M265.5,147c24.6,0,44.5,19.9,44.5,44.5S290.1,236,265.5,236S221,216.1,221,191.5"/>
<path class="st3" d="M385.5,148c24.6,0,44.5,19.9,44.5,44.5S410.1,237,385.5,237"/>
<path class="st3" d="M502.5,148c24.6,0,44.5,19.9,44.5,44.5"/>
<polyline class="st4" points="254,193 262.3,199.5 277.6,184.5 "/>
<polyline class="st4" points="372.2,193 380.5,199.5 395.8,184.5 "/>
<polyline class="st4" points="490.8,193.4 499.1,199.9 514.4,184.9 "/>
</svg>
