<?xml version="1.0" encoding="utf-8"?>
<!-- Generator: Adobe Illustrator 28.1.0, SVG Export Plug-In . SVG Version: 6.00 Build 0)  -->
<svg version="1.1" id="f87a8e0a-9847-4b64-9d65-5722a6674775"
	 xmlns="http://www.w3.org/2000/svg" xmlns:xlink="http://www.w3.org/1999/xlink" x="0px" y="0px" viewBox="0 0 768 384"
	 style="enable-background:new 0 0 768 384;" xml:space="preserve">
<style type="text/css">
	.st0{fill:none;stroke:#CBD5E1;stroke-dasharray:12.08,12.08;}
	.st1{fill:#020617;stroke:#1E293B;}
	.st2{enable-background:new    ;}
	.st3{fill:#F9F9F9;}
</style>
<path class="st0" d="M203.3,120.8h361.3c9,0,16.3,7.3,16.3,16.3v109.8c0,9-7.3,16.3-16.3,16.3H203.3c-9,0-16.3-7.3-16.3-16.3V137.1
	C187,128.1,194.3,120.8,203.3,120.8z"/>
<rect x="219.5" y="167.5" class="st1" width="49" height="49"/>
<path class="st1" d="M294.9,167.5h38.1c3,0,5.4,2.4,5.4,5.4v38.1c0,3-2.4,5.4-5.4,5.4h-38.1c-3,0-5.4-2.4-5.4-5.4v-38.1
	C289.5,169.9,291.9,167.5,294.9,167.5z"/>
<path class="st1" d="M368.8,167.5h30.4c5.1,0,9.3,4.2,9.3,9.3v30.4c0,5.1-4.2,9.3-9.3,9.3h-30.4c-5.1,0-9.3-4.2-9.3-9.3v-30.4
	C359.5,171.7,363.7,167.5,368.8,167.5z"/>
<path class="st1" d="M443.2,167.5h21.6c7.6,0,13.7,6.1,13.7,13.7v21.6c0,7.6-6.1,13.7-13.7,13.7h-21.6c-7.6,0-13.7-6.1-13.7-13.7
	v-21.6C429.5,173.6,435.6,167.5,443.2,167.5z"/>
<path class="st1" d="M524,167.5L524,167.5c13.5,0,24.5,11,24.5,24.5l0,0c0,13.5-11,24.5-24.5,24.5l0,0c-13.5,0-24.5-11-24.5-24.5
	l0,0C499.5,178.5,510.5,167.5,524,167.5z"/>
<g class="st2">
	<path class="st3" d="M236.9,198.6c-0.3,0-0.5-0.1-0.7-0.3c-0.4-0.4-0.4-1,0-1.4l13.2-13.3c0.4-0.4,1-0.3,1.4,0.1
		c0.3,0.4,0.3,0.9,0,1.3l-13.2,13.3C237.4,198.5,237.2,198.6,236.9,198.6z"/>
</g>
<g class="st2">
	<path class="st3" d="M250.1,198.6c-0.3,0-0.5-0.1-0.7-0.3L236.2,185c-0.4-0.4-0.5-1-0.1-1.4c0.4-0.4,1-0.5,1.4-0.1
		c0,0,0.1,0.1,0.1,0.1l13.2,13.3c0.4,0.4,0.4,1,0,1.4C250.6,198.5,250.4,198.6,250.1,198.6z"/>
</g>
<g class="st2">
	<path class="st3" d="M307.9,198.6c-0.3,0-0.5-0.1-0.7-0.3c-0.4-0.4-0.4-1,0-1.4l13.2-13.3c0.4-0.4,1-0.3,1.4,0.1
		c0.3,0.4,0.3,0.9,0,1.3l-13.2,13.3C308.4,198.5,308.2,198.6,307.9,198.6z"/>
</g>
<g class="st2">
	<path class="st3" d="M321.1,198.6c-0.3,0-0.5-0.1-0.7-0.3L307.2,185c-0.4-0.4-0.5-1-0.1-1.4c0.4-0.4,1-0.5,1.4-0.1
		c0,0,0.1,0.1,0.1,0.1l13.2,13.3c0.4,0.4,0.4,1,0,1.4C321.6,198.5,321.4,198.6,321.1,198.6z"/>
</g>
<g class="st2">
	<path class="st3" d="M376.9,198.6c-0.3,0-0.5-0.1-0.7-0.3c-0.4-0.4-0.4-1,0-1.4l13.2-13.3c0.4-0.4,1-0.3,1.4,0.1
		c0.3,0.4,0.3,0.9,0,1.3l-13.2,13.3C377.4,198.5,377.2,198.6,376.9,198.6z"/>
</g>
<g class="st2">
	<path class="st3" d="M390.1,198.6c-0.3,0-0.5-0.1-0.7-0.3L376.2,185c-0.4-0.4-0.5-1-0.1-1.4c0.4-0.4,1-0.5,1.4-0.1
		c0,0,0.1,0.1,0.1,0.1l13.2,13.3c0.4,0.4,0.4,1,0,1.4C390.6,198.5,390.4,198.6,390.1,198.6z"/>
</g>
<g class="st2">
	<path class="st3" d="M447.9,198.6c-0.3,0-0.5-0.1-0.7-0.3c-0.4-0.4-0.4-1,0-1.4l13.2-13.3c0.4-0.4,1-0.3,1.4,0.1
		c0.3,0.4,0.3,0.9,0,1.3l-13.2,13.3C448.4,198.5,448.2,198.6,447.9,198.6z"/>
</g>
<g>
	<path class="st3" d="M461.1,198.6c-0.3,0-0.5-0.1-0.7-0.3L447.2,185c-0.4-0.4-0.5-1-0.1-1.4c0.4-0.4,1-0.5,1.4-0.1
		c0,0,0.1,0.1,0.1,0.1l13.2,13.3c0.4,0.4,0.4,1,0,1.4C461.6,198.5,461.4,198.6,461.1,198.6z"/>
</g>
<g class="st2">
	<path class="st3" d="M517.9,198.6c-0.3,0-0.5-0.1-0.7-0.3c-0.4-0.4-0.4-1,0-1.4l13.2-13.3c0.4-0.4,1-0.3,1.4,0.1
		c0.3,0.4,0.3,0.9,0,1.3l-13.2,13.3C518.4,198.5,518.2,198.6,517.9,198.6z"/>
</g>
<g class="st2">
	<path class="st3" d="M531.1,198.6c-0.3,0-0.5-0.1-0.7-0.3L517.2,185c-0.4-0.4-0.5-1-0.1-1.4c0.4-0.4,1-0.5,1.4-0.1
		c0,0,0.1,0.1,0.1,0.1l13.2,13.3c0.4,0.4,0.4,1,0,1.4C531.6,198.5,531.4,198.6,531.1,198.6z"/>
</g>
</svg>
