<?xml version="1.0" encoding="utf-8"?>
<!-- Generator: Adobe Illustrator 28.1.0, SVG Export Plug-In . SVG Version: 6.00 Build 0)  -->
<svg version="1.1" id="Layer_1" xmlns="http://www.w3.org/2000/svg" xmlns:xlink="http://www.w3.org/1999/xlink" x="0px" y="0px"
	 viewBox="0 0 768 384" style="enable-background:new 0 0 768 384;" xml:space="preserve">
<style type="text/css">
	.st0{fill:#FFFFFF;stroke:#212121;}
	.st1{fill:#FFFFFF;stroke:#212121;stroke-width:5;stroke-linecap:round;stroke-linejoin:round;}
	.st2{fill:#FFFFFF;stroke:#212121;stroke-linecap:round;stroke-linejoin:round;}
	.st3{fill:none;stroke:#212121;}
	.st4{opacity:0.5;fill:#94A3B8;enable-background:new    ;}
	.st5{fill:none;stroke:#212121;stroke-dasharray:12.0753,12.0753;}
</style>
<path class="st0" d="M756.2,516.7h-35.7c-6.7,0-12.2-5.5-12.2-12.2v-35.7c0-6.7,5.5-12.2,12.2-12.2h35.7c6.7,0,12.2,5.5,12.2,12.2
	v35.7C768.4,511.2,762.9,516.7,756.2,516.7z"/>
<path class="st0" d="M843.5,516.7h-35.7c-6.7,0-12.2-5.5-12.2-12.2v-35.7c0-6.7,5.5-12.2,12.2-12.2h35.7c6.7,0,12.2,5.5,12.2,12.2
	v35.7C855.7,511.2,850.2,516.7,843.5,516.7z"/>
<path class="st0" d="M930.8,516.7h-35.7c-6.7,0-12.2-5.5-12.2-12.2v-35.7c0-6.7,5.5-12.2,12.2-12.2h35.7c6.7,0,12.2,5.5,12.2,12.2
	v35.7C943,511.2,937.6,516.7,930.8,516.7z"/>
<polyline class="st1" points="727.8,486.4 735.2,492.2 748.9,478.8 "/>
<polyline class="st1" points="815.1,486.4 822.5,492.2 836.2,478.8 "/>
<polyline class="st1" points="902.4,486.4 909.8,492.2 923.5,478.8 "/>
<g>
	<path class="st0" d="M273.9,102.2H266c-1.5,0-2.7-1.2-2.7-2.7v-7.9c0-1.5,1.2-2.7,2.7-2.7h7.9c1.5,0,2.7,1.2,2.7,2.7v7.9
		C276.6,101,275.3,102.2,273.9,102.2z"/>
	<polyline class="st2" points="267.6,95.5 269.2,96.8 272.2,93.8 	"/>
	<path class="st0" d="M273.9,152.3H266c-1.5,0-2.7-1.2-2.7-2.7v-7.9c0-1.5,1.2-2.7,2.7-2.7h7.9c1.5,0,2.7,1.2,2.7,2.7v7.9
		C276.6,151,275.3,152.3,273.9,152.3z"/>
	<polyline class="st2" points="267.6,145.6 269.2,146.8 272.2,143.9 	"/>
	<path class="st0" d="M273.9,227.5H266c-1.5,0-2.7-1.2-2.7-2.7v-7.9c0-1.5,1.2-2.7,2.7-2.7h7.9c1.5,0,2.7,1.2,2.7,2.7v7.9
		C276.6,226.3,275.3,227.5,273.9,227.5z"/>
	<polyline class="st2" points="267.6,220.8 269.2,222.1 272.2,219.1 	"/>
	<path class="st0" d="M331.4,246.4h-7.9c-1.5,0-2.7-1.2-2.7-2.7v-7.9c0-1.5,1.2-2.7,2.7-2.7h7.9c1.5,0,2.7,1.2,2.7,2.7v7.9
		C334.1,245.2,332.8,246.4,331.4,246.4z"/>
	<polyline class="st2" points="325.1,239.7 326.7,241 329.8,238 	"/>
	<path class="st0" d="M331.4,291.2h-7.9c-1.5,0-2.7-1.2-2.7-2.7v-7.9c0-1.5,1.2-2.7,2.7-2.7h7.9c1.5,0,2.7,1.2,2.7,2.7v7.9
		C334.1,289.9,332.8,291.2,331.4,291.2z"/>
	<polyline class="st2" points="325.1,284.5 326.7,285.7 329.8,282.8 	"/>
	<line class="st3" x1="303" y1="96.3" x2="303" y2="221.3"/>
	<line class="st3" x1="287" y1="96.3" x2="354.5" y2="96.3"/>
	<line class="st3" x1="287" y1="145.6" x2="354.5" y2="145.6"/>
	<polyline class="st3" points="287,220.8 354.5,220.8 354.5,276.3 354.5,284.5 	"/>
	<line class="st3" x1="342.3" y1="239.7" x2="382.3" y2="239.7"/>
	<line class="st3" x1="342.3" y1="284.5" x2="382.3" y2="284.5"/>
	<path class="st4" d="M469.3,99.6H365.4c-0.8-0.1-1.5-1.3-1.4-2.7v-2.7c-0.1-1.4,0.6-2.6,1.4-2.7h103.9c0.8,0.1,1.5,1.3,1.4,2.7v2.7
		c0.1,1.4-0.5,2.6-1.3,2.7C469.3,99.6,469.3,99.6,469.3,99.6z"/>
	<path class="st4" d="M439.1,113.4H365c-0.6-0.1-1.1-1.3-1-2.7V108c0-1.4,0.4-2.6,1-2.7h74.1c0.6,0.1,1.1,1.3,1,2.7v2.7
		C440.2,112.1,439.7,113.3,439.1,113.4C439.1,113.4,439.1,113.4,439.1,113.4z"/>
	<path class="st4" d="M469.3,142.4H365.4c-0.8-0.1-1.5-1.3-1.4-2.7V137c-0.1-1.4,0.6-2.6,1.4-2.7h103.9c0.8,0.1,1.5,1.3,1.4,2.7v2.7
		c0.1,1.4-0.5,2.6-1.3,2.7C469.3,142.4,469.3,142.4,469.3,142.4z"/>
	<path class="st4" d="M439.1,156.2H365c-0.6-0.1-1.1-1.3-1-2.7v-2.7c0-1.4,0.4-2.6,1-2.7h74.1c0.6,0.1,1.1,1.3,1,2.7v2.7
		C440.2,154.9,439.7,156.1,439.1,156.2C439.1,156.2,439.1,156.2,439.1,156.2z"/>
	<path class="st4" d="M503.3,236.9H399.4c-0.8-0.1-1.5-1.3-1.4-2.7v-2.7c-0.1-1.4,0.6-2.6,1.4-2.7h103.9c0.8,0.1,1.5,1.3,1.4,2.7
		v2.7c0.1,1.4-0.5,2.6-1.3,2.7C503.4,236.9,503.3,236.9,503.3,236.9z"/>
	<path class="st4" d="M473.1,250.6H399c-0.6-0.1-1.1-1.3-1-2.7v-2.7c0-1.4,0.4-2.6,1-2.7h74.1c0.6,0.1,1.1,1.3,1,2.7v2.7
		C474.2,249.3,473.7,250.5,473.1,250.6C473.1,250.6,473.1,250.6,473.1,250.6z"/>
	<path class="st4" d="M503.3,281.3H399.4c-0.8-0.1-1.5-1.3-1.4-2.7v-2.7c-0.1-1.4,0.6-2.6,1.4-2.7h103.9c0.8,0.1,1.5,1.3,1.4,2.7
		v2.7c0.1,1.4-0.5,2.6-1.3,2.7C503.4,281.3,503.3,281.3,503.3,281.3z"/>
	<path class="st4" d="M473.1,295.1H399c-0.6-0.1-1.1-1.3-1-2.7v-2.7c0-1.4,0.4-2.6,1-2.7h74.1c0.6,0.1,1.1,1.3,1,2.7v2.7
		C474.2,293.8,473.7,295,473.1,295.1C473.1,295.1,473.1,295.1,473.1,295.1z"/>
</g>
<path class="st5" d="M569.1,335.4H198.9c-12.1,0-21.8-9.8-21.8-21.8V70.4c0-12.1,9.8-21.8,21.8-21.8h370.2
	c12.1,0,21.8,9.8,21.8,21.8v243.2C590.9,325.7,581.2,335.4,569.1,335.4z"/>
</svg>
