<?xml version="1.0" encoding="utf-8"?>
<!-- Generator: Adobe Illustrator 28.1.0, SVG Export Plug-In . SVG Version: 6.00 Build 0)  -->
<svg version="1.1" id="Layer_1" xmlns="http://www.w3.org/2000/svg" xmlns:xlink="http://www.w3.org/1999/xlink" x="0px" y="0px"
	 viewBox="0 0 768 384" style="enable-background:new 0 0 768 384;" xml:space="preserve">
<style type="text/css">
	.st0{fill:none;stroke:#CBD5E1;stroke-dasharray:12.08,12.08;}
	.st1{fill:#020617;stroke:#1E293B;}
	.st2{opacity:0.5;fill:#94A3B8;enable-background:new    ;}
	.st3{fill:#FFFFFF;}
</style>
<g>
	<path class="st0" d="M611.2,264.6H156.8c-7.9,0-14.3-6.4-14.3-14.3V133.8c0-7.9,6.4-14.3,14.3-14.3h454.3c7.9,0,14.3,6.4,14.3,14.3
		v116.5C625.5,258.1,619.1,264.6,611.2,264.6z"/>
</g>
<path class="st1" d="M199.8,164.4h368.4c8.9,0,16.1,7.2,16.1,16.1v23.2c0,8.9-7.2,16.1-16.1,16.1H199.8c-8.9,0-16.1-7.2-16.1-16.1
	v-23.2C183.7,171.6,190.9,164.4,199.8,164.4z"/>
<path class="st2" d="M448,197H211.8c-1.8,0-3.3-1.5-3.3-3.3v-3.3c0-1.8,1.5-3.3,3.3-3.3H448c1.8,0,3.3,1.5,3.3,3.3v3.3
	C451.3,195.5,449.8,197,448,197z"/>
<g>
	<path class="st3" d="M547.1,197.8c-0.3,0-0.6-0.1-0.9-0.3l-7.3-7.3c-0.5-0.5-0.5-1.2,0-1.7c0.5-0.5,1.2-0.5,1.7,0l6.4,6.4l6.4-6.4
		c0.5-0.5,1.2-0.5,1.7,0c0.5,0.5,0.5,1.2,0,1.7l-7.3,7.3C547.7,197.7,547.4,197.8,547.1,197.8z"/>
</g>
</svg>
