<?xml version="1.0" encoding="utf-8"?>
<!-- Generator: Adobe Illustrator 28.1.0, SVG Export Plug-In . SVG Version: 6.00 Build 0)  -->
<svg version="1.1" id="b0dc27b4-ac01-4bcf-8250-299b18238fa0"
	 xmlns="http://www.w3.org/2000/svg" xmlns:xlink="http://www.w3.org/1999/xlink" x="0px" y="0px" viewBox="0 0 768 384"
	 style="enable-background:new 0 0 768 384;" xml:space="preserve">
<style type="text/css">
	.st0{fill:none;stroke:#CBD5E1;stroke-dasharray:12.08,12.08;}
	.st1{fill:#020617;stroke:#1E293B;}
	.st2{opacity:0.5;fill:#94A3B8;enable-background:new    ;}
	.st3{opacity:0.5;fill:#586472;enable-background:new    ;}
	.st4{fill:#FFFFFF;enable-background:new    ;}
</style>
<path class="st0" d="M198.8,97h370.4c14.8,0,26.8,12,26.8,26.8v136.4c0,14.8-12,26.8-26.8,26.8H198.8c-14.8,0-26.8-12-26.8-26.8
	V123.8C172,109,184,97,198.8,97z"/>
<path class="st1" d="M538.2,258.3H229.8c-5.9,0-10.8-4.8-10.8-10.8V136.4c0-5.9,4.8-10.8,10.8-10.8h308.4c5.9,0,10.8,4.8,10.8,10.8
	v111.1C549,253.5,544.2,258.3,538.2,258.3z"/>
<path class="st2" d="M481.4,156.4H250.1c-1.6,0-2.9-1.2-2.9-2.7V151c0-1.5,1.4-2.7,2.9-2.7h231.2c1.6,0,2.9,1.2,2.9,2.7v2.7
	C484.4,155.2,483,156.4,481.4,156.4z"/>
<path class="st2" d="M461,175.8H250.1c-1.6,0-2.9-1.2-2.9-2.7v-2.7c0-1.5,1.4-2.7,2.9-2.7h210.8c1.6,0,2.9,1.2,2.9,2.7v2.7
	C463.9,174.6,462.6,175.8,461,175.8z"/>
<path class="st2" d="M474.2,194.1h-224c-1.6,0-2.9-1.2-2.9-2.7v-2.7c0-1.5,1.3-2.7,2.9-2.7h224c1.6,0,2.9,1.2,2.9,2.7v2.7
	C477.1,192.9,475.8,194.1,474.2,194.1z"/>
<path class="st2" d="M469.9,214.4H250.3c-1.6,0-3-1.2-3-2.7V209c0-1.5,1.4-2.7,3-2.7h219.5c1.6,0,3,1.2,3,2.7v2.7
	C473,213.1,471.6,214.4,469.9,214.4z"/>
<path class="st2" d="M411.7,235.6H249.5c-1.3,0-2.3-1.2-2.3-2.7v-2.7c0-1.5,1-2.7,2.3-2.7h162.1c1.3,0,2.3,1.2,2.3,2.7v2.8
	c0.1,1.4-0.9,2.6-2.1,2.6C411.8,235.7,411.7,235.7,411.7,235.6z"/>
<path class="st3" d="M531.4,239.4L531.4,239.4c-1.5,0-2.6-1.2-2.6-2.6v-93.4c0-1.5,1.2-2.6,2.6-2.6l0,0c1.5,0,2.6,1.2,2.6,2.6v93.4
	C534,238.2,532.9,239.4,531.4,239.4z"/>
<path class="st4" d="M531.4,181.5L531.4,181.5c-1.5,0-2.6-1.2-2.6-2.6v-15.1c0-1.5,1.2-2.6,2.6-2.6l0,0c1.5,0,2.6,1.2,2.6,2.6v15.1
	C534,180.4,532.9,181.5,531.4,181.5z"/>
</svg>
