<?xml version="1.0" encoding="utf-8"?>
<!-- Generator: Adobe Illustrator 28.1.0, SVG Export Plug-In . SVG Version: 6.00 Build 0)  -->
<svg version="1.1" id="b36ca9af-e8d0-4d96-9540-4fa0ea37d71e"
	 xmlns="http://www.w3.org/2000/svg" xmlns:xlink="http://www.w3.org/1999/xlink" x="0px" y="0px" viewBox="0 0 768 384"
	 style="enable-background:new 0 0 768 384;" xml:space="preserve">
<style type="text/css">
	.st0{fill:none;stroke:#212121;stroke-dasharray:12.08,12.08;}
	.st1{fill:#FFFFFF;stroke:#212121;}
	.st2{opacity:0.5;fill:#94A3B8;enable-background:new    ;}
	.st3{fill:#212121;}
</style>
<path class="st0" d="M611.2,275.3H156.8c-7.9,0-14.3-7.3-14.3-16.4V125.1c0-9.1,6.4-16.4,14.3-16.4h454.3c7.9,0,14.3,7.3,14.3,16.4
	v133.8C625.5,267.8,619.1,275.3,611.2,275.3z"/>
<path class="st1" d="M195,176.5h60c8.6,0,15.5,6.9,15.5,15.5l0,0c0,8.6-6.9,15.5-15.5,15.5h-60c-8.6,0-15.5-6.9-15.5-15.5l0,0
	C179.5,183.4,186.4,176.5,195,176.5z"/>
<path class="st2" d="M235.4,193.9h-45.1c-0.3,0-0.6-0.8-0.6-1.6v-1.6c0-0.9,0.3-1.6,0.6-1.6h45.1c0.3,0,0.6,0.8,0.6,1.6v1.6
	C236,193.2,235.7,193.9,235.4,193.9z"/>
<g>
	<path class="st3" d="M248.6,196.5c-0.2,0-0.3-0.1-0.4-0.2c-0.2-0.2-0.2-0.6,0-0.8l7.8-7.9c0.2-0.2,0.6-0.2,0.8,0c0,0,0,0,0,0
		c0.2,0.2,0.2,0.6,0,0.8l-7.8,7.9C248.9,196.4,248.7,196.5,248.6,196.5z"/>
</g>
<g>
	<path class="st3" d="M256.4,196.5c-0.2,0-0.3-0.1-0.4-0.2l-7.8-7.9c-0.2-0.2-0.2-0.6,0-0.8c0.2-0.2,0.6-0.2,0.8,0c0,0,0,0,0,0
		l7.8,7.9c0.2,0.2,0.2,0.6,0,0.8C256.7,196.4,256.6,196.5,256.4,196.5z"/>
</g>
<path class="st1" d="M301,176.5h60c8.6,0,15.5,6.9,15.5,15.5l0,0c0,8.6-6.9,15.5-15.5,15.5h-60c-8.6,0-15.5-6.9-15.5-15.5l0,0
	C285.5,183.4,292.4,176.5,301,176.5z"/>
<path class="st2" d="M341.4,193.9h-45.1c-0.3,0-0.6-0.8-0.6-1.6v-1.6c0-0.9,0.3-1.6,0.6-1.6h45.1c0.3,0,0.6,0.8,0.6,1.6v1.6
	C342,193.2,341.7,193.9,341.4,193.9z"/>
<g>
	<path class="st3" d="M354.6,196.5c-0.2,0-0.3-0.1-0.4-0.2c-0.2-0.2-0.2-0.6,0-0.8l7.8-7.9c0.2-0.2,0.6-0.2,0.8,0c0,0,0,0,0,0
		c0.2,0.2,0.2,0.6,0,0.8l-7.8,7.9C354.9,196.4,354.7,196.5,354.6,196.5z"/>
</g>
<g>
	<path class="st3" d="M362.4,196.5c-0.2,0-0.3-0.1-0.4-0.2l-7.8-7.9c-0.2-0.2-0.2-0.6,0-0.8c0.2-0.2,0.6-0.2,0.8,0c0,0,0,0,0,0
		l7.8,7.9c0.2,0.2,0.2,0.6,0,0.8C362.7,196.4,362.6,196.5,362.4,196.5z"/>
</g>
<path class="st1" d="M407,176.5h60c8.6,0,15.5,6.9,15.5,15.5l0,0c0,8.6-6.9,15.5-15.5,15.5h-60c-8.6,0-15.5-6.9-15.5-15.5l0,0
	C391.5,183.4,398.4,176.5,407,176.5z"/>
<path class="st2" d="M447.4,193.9h-45.1c-0.3,0-0.6-0.8-0.6-1.6v-1.6c0-0.9,0.3-1.6,0.6-1.6h45.1c0.3,0,0.6,0.8,0.6,1.6v1.6
	C448,193.2,447.7,193.9,447.4,193.9z"/>
<g>
	<path class="st3" d="M460.6,196.5c-0.2,0-0.3-0.1-0.4-0.2c-0.2-0.2-0.2-0.6,0-0.8l7.8-7.9c0.2-0.2,0.6-0.2,0.8,0c0,0,0,0,0,0
		c0.2,0.2,0.2,0.6,0,0.8l-7.8,7.9C460.9,196.4,460.7,196.5,460.6,196.5z"/>
</g>
<g>
	<path class="st3" d="M468.4,196.5c-0.2,0-0.3-0.1-0.4-0.2l-7.8-7.9c-0.2-0.2-0.2-0.6,0-0.8c0.2-0.2,0.6-0.2,0.8,0c0,0,0,0,0,0
		l7.8,7.9c0.2,0.2,0.2,0.6,0,0.8C468.7,196.4,468.6,196.5,468.4,196.5z"/>
</g>
<path class="st1" d="M513,176.5h60c8.6,0,15.5,6.9,15.5,15.5l0,0c0,8.6-6.9,15.5-15.5,15.5h-60c-8.6,0-15.5-6.9-15.5-15.5l0,0
	C497.5,183.4,504.4,176.5,513,176.5z"/>
<path class="st2" d="M553.4,193.9h-45.1c-0.3,0-0.6-0.8-0.6-1.6v-1.6c0-0.9,0.3-1.6,0.6-1.6h45.1c0.3,0,0.6,0.8,0.6,1.6v1.6
	C554,193.2,553.7,193.9,553.4,193.9z"/>
<g>
	<path class="st3" d="M566.6,196.5c-0.2,0-0.3-0.1-0.4-0.2c-0.2-0.2-0.2-0.6,0-0.8l7.8-7.9c0.2-0.2,0.6-0.2,0.8,0c0,0,0,0,0,0
		c0.2,0.2,0.2,0.6,0,0.8l-7.8,7.9C566.9,196.4,566.7,196.5,566.6,196.5z"/>
</g>
<g>
	<path class="st3" d="M574.4,196.5c-0.2,0-0.3-0.1-0.4-0.2l-7.8-7.9c-0.2-0.2-0.2-0.6,0-0.8c0.2-0.2,0.6-0.2,0.8,0c0,0,0,0,0,0
		l7.8,7.9c0.2,0.2,0.2,0.6,0,0.8C574.7,196.4,574.6,196.5,574.4,196.5z"/>
</g>
</svg>
