<?xml version="1.0" encoding="utf-8"?>
<!-- Generator: Adobe Illustrator 28.1.0, SVG Export Plug-In . SVG Version: 6.00 Build 0)  -->
<svg version="1.1" id="f1156dd3-8de5-449e-85e8-a8ace2a37168"
	 xmlns="http://www.w3.org/2000/svg" xmlns:xlink="http://www.w3.org/1999/xlink" x="0px" y="0px" viewBox="0 0 768 384"
	 style="enable-background:new 0 0 768 384;" xml:space="preserve">
<style type="text/css">
	.st0{fill:none;stroke:#212121;stroke-dasharray:12.08,12.08;}
	.st1{fill:#FFFFFF;stroke:#212121;}
	.st2{opacity:0.5;fill:#94A3B8;enable-background:new    ;}
</style>
<path class="st0" d="M611.2,275.3H156.8c-7.9,0-14.3-7.3-14.3-16.4V125.1c0-9.1,6.4-16.4,14.3-16.4h454.3c7.9,0,14.3,7.3,14.3,16.4
	v133.8C625.5,267.8,619.1,275.3,611.2,275.3z"/>
<path class="st1" d="M190.5,175.7h79.7c4,0,7.2,3.9,7.2,8.7v15.2c0,4.8-3.2,8.7-7.2,8.7h-79.7c-4,0-7.2-3.9-7.2-8.7v-15.3
	C183.3,179.6,186.5,175.7,190.5,175.7z"/>
<path class="st2" d="M262,194.9h-63.4c-0.4,0-0.8-0.9-0.8-1.9v-1.9c0-1,0.4-1.9,0.8-1.9H262c0.4,0,0.8,0.9,0.8,1.9v1.9
	C262.7,194.1,262.4,194.9,262,194.9z"/>
<path class="st1" d="M292.8,175.7h79.7c4,0,7.2,3.9,7.2,8.7v15.2c0,4.8-3.2,8.7-7.2,8.7h-79.7c-4,0-7.2-3.9-7.2-8.7v-15.3
	C285.6,179.6,288.8,175.7,292.8,175.7z"/>
<path class="st2" d="M364.4,194.9H301c-0.4,0-0.8-0.9-0.8-1.9v-1.9c0-1,0.4-1.9,0.8-1.9h63.4c0.4,0,0.8,0.9,0.8,1.9v1.9
	C365.1,194.1,364.8,194.9,364.4,194.9z"/>
<path class="st1" d="M395.5,175.7h79.7c4,0,7.2,3.9,7.2,8.7v15.2c0,4.8-3.2,8.7-7.2,8.7h-79.7c-4,0-7.2-3.9-7.2-8.7v-15.3
	C388.3,179.6,391.5,175.7,395.5,175.7z"/>
<path class="st2" d="M467,194.9h-63.4c-0.4,0-0.8-0.9-0.8-1.9v-1.9c0-1,0.4-1.9,0.8-1.9H467c0.4,0,0.8,0.9,0.8,1.9v1.9
	C467.7,194.1,467.4,194.9,467,194.9z"/>
<path class="st1" d="M497.8,175.7h79.7c4,0,7.2,3.9,7.2,8.7v15.2c0,4.8-3.2,8.7-7.2,8.7h-79.7c-4,0-7.2-3.9-7.2-8.7v-15.3
	C490.6,179.6,493.8,175.7,497.8,175.7z"/>
<path class="st2" d="M569.4,194.9H506c-0.4,0-0.8-0.9-0.8-1.9v-1.9c0-1,0.4-1.9,0.8-1.9h63.4c0.4,0,0.8,0.9,0.8,1.9v1.9
	C570.1,194.1,569.8,194.9,569.4,194.9z"/>
</svg>
