<?xml version="1.0" encoding="utf-8"?>
<!-- Generator: Adobe Illustrator 28.1.0, SVG Export Plug-In . SVG Version: 6.00 Build 0)  -->
<svg version="1.1" id="b0dc27b4-ac01-4bcf-8250-299b18238fa0"
	 xmlns="http://www.w3.org/2000/svg" xmlns:xlink="http://www.w3.org/1999/xlink" x="0px" y="0px" viewBox="0 0 768 384"
	 style="enable-background:new 0 0 768 384;" xml:space="preserve">
<style type="text/css">
	.st0{opacity:0.5;fill:#94A3B8;enable-background:new    ;}
	.st1{fill:none;stroke:#CBD5E1;stroke-dasharray:12.08,12.08;}
</style>
<path class="st0" d="M517.3,156.4H250.6c-1.9,0-3.4-1.2-3.4-2.7V151c0-1.5,1.6-2.7,3.4-2.7h266.7c1.9,0,3.4,1.2,3.4,2.7v2.7
	C520.8,155.2,519.2,156.4,517.3,156.4z"/>
<path class="st0" d="M493.8,175.8H250.6c-1.9,0-3.4-1.2-3.4-2.7v-2.7c0-1.5,1.6-2.7,3.4-2.7h243.1c1.9,0,3.4,1.2,3.4,2.7v2.7
	C497.1,174.6,495.6,175.8,493.8,175.8z"/>
<path class="st0" d="M509,194.1H250.6c-1.8,0-3.3-1.2-3.3-2.7v-2.7c0-1.5,1.5-2.7,3.3-2.7H509c1.8,0,3.3,1.2,3.3,2.7v2.7
	C512.3,192.9,510.9,194.1,509,194.1z"/>
<path class="st0" d="M504.1,214.4H250.8c-1.9,0-3.5-1.2-3.5-2.7V209c0-1.5,1.6-2.7,3.5-2.7H504c1.9,0,3.5,1.2,3.5,2.7v2.7
	C507.6,213.1,506,214.4,504.1,214.4z"/>
<path class="st0" d="M436.9,235.6h-187c-1.5,0-2.6-1.2-2.6-2.7v-2.7c0-1.5,1.1-2.7,2.6-2.7h187c1.5,0,2.6,1.2,2.6,2.7v2.8
	c0.1,1.4-1,2.6-2.4,2.6C437,235.7,436.9,235.7,436.9,235.6z"/>
<path class="st1" d="M198.8,97h370.4c14.8,0,26.8,12,26.8,26.8v136.4c0,14.8-12,26.8-26.8,26.8H198.8c-14.8,0-26.8-12-26.8-26.8
	V123.8C172,109,184,97,198.8,97z"/>
</svg>
