<?xml version="1.0" encoding="utf-8"?>
<!-- Generator: Adobe Illustrator 28.1.0, SVG Export Plug-In . SVG Version: 6.00 Build 0)  -->
<svg version="1.1" id="Layer_1" xmlns="http://www.w3.org/2000/svg" xmlns:xlink="http://www.w3.org/1999/xlink" x="0px" y="0px"
	 viewBox="0 0 768 384" style="enable-background:new 0 0 768 384;" xml:space="preserve">
<style type="text/css">
	.st0{fill:#FFFFFF;stroke:#212121;}
	.st1{clip-path:url(#SVGID_00000121272378704366344620000011402026176535339191_);}
	.st2{fill:#C72DE2;}
	.st3{clip-path:url(#SVGID_00000047761578572278451750000006992886781086155416_);}
	.st4{fill:#D0434E;}
	.st5{fill:#FEF3DB;}
	.st6{fill:#88B5BD;}
	.st7{fill:#F2844F;}
	.st8{fill:#ED5E2D;}
	.st9{fill:#FCB492;}
	.st10{fill:#91332E;}
	.st11{fill:#453730;}
	.st12{fill:#BA6442;}
	.st13{fill:#16100D;}
	.st14{fill:#CC492F;}
	.st15{fill:#FCBB9C;}
	.st16{fill:#B75D38;}
	.st17{fill:#FCB897;}
	.st18{fill:#F95939;}
	.st19{fill:#FCBEA3;}
	.st20{fill:#8C2B26;}
	.st21{fill:#FBA886;}
	.st22{fill:#B65B36;}
	.st23{fill:#B95D38;}
	.st24{fill:#FBAF8D;}
	.st25{fill:#FA7A60;}
	.st26{fill:#76A1A9;}
	.st27{fill:#A3343E;}
	.st28{clip-path:url(#SVGID_00000039118796205757525900000012180487891744410283_);}
	.st29{fill:#806AEA;}
	.st30{clip-path:url(#SVGID_00000036971228792439488700000006075536441127397009_);}
	.st31{fill:#DFAF33;}
	.st32{fill:#38312D;}
	.st33{fill:#CA7852;}
	.st34{fill:#E56324;}
	.st35{fill:#FCB692;}
	.st36{fill:#160E0B;}
	.st37{fill:#FDB694;}
	.st38{fill:#BF6948;}
	.st39{fill:#BB613E;}
	.st40{fill:#FDB693;}
	.st41{fill:#BA5F3B;}
	.st42{fill:#FEB797;}
	.st43{fill:#FB9980;}
	.st44{fill:#FF8066;}
	.st45{fill:#B85C37;}
	.st46{fill:#B75B37;}
	.st47{fill:#FCB693;}
	.st48{fill:#B08C29;}
	.st49{clip-path:url(#SVGID_00000163783188850148532530000008619262524300912554_);}
	.st50{fill:#EDBD43;}
	.st51{clip-path:url(#SVGID_00000016047944115141476650000010226728829613659535_);}
	.st52{fill:#764074;}
	.st53{fill:#150F0C;}
	.st54{fill:#FDB697;}
	.st55{fill:#45362F;}
	.st56{fill:#FCB48E;}
	.st57{fill:#BE6547;}
	.st58{fill:#FBB38E;}
	.st59{fill:#B65A35;}
	.st60{fill:#FBB48F;}
	.st61{fill:#FBA187;}
	.st62{fill:#FFFFFF;}
	.st63{fill:#FBB898;}
	.st64{fill:#FFB18D;}
	.st65{fill:#4F2A4D;}
	.st66{opacity:0.5;fill:#94A3B8;enable-background:new    ;}
	.st67{fill:none;stroke:#212121;stroke-dasharray:12.0753,12.0753;}
</style>
<path class="st0" d="M486.8,320.4H281.2c-5.5,0-10-4.5-10-10V100.6c0-5.5,4.5-10,10-10h205.6c5.5,0,10,4.5,10,10v209.8
	C496.8,315.9,492.3,320.4,486.8,320.4z"/>
<g>
	<g>
		<g>
			<g>
				<g>
					<defs>
						<circle id="SVGID_00000071541986979329063200000015584789105781024169_" cx="321.4" cy="144.4" r="16.9"/>
					</defs>
					<clipPath id="SVGID_00000139291227339226306430000002710397828703444402_">
						<use xlink:href="#SVGID_00000071541986979329063200000015584789105781024169_"  style="overflow:visible;"/>
					</clipPath>
					<g style="clip-path:url(#SVGID_00000139291227339226306430000002710397828703444402_);">
						<g>
							<g>
								<rect id="SVGID_2_" x="304.5" y="127.5" class="st2" width="33.8" height="33.8"/>
							</g>
							<g>
								<g>
									<g>
										<g>
											<g>
												<defs>
													
														<rect id="SVGID_00000098178820018578962720000010357899006060292503_" x="304.5" y="127.5" width="33.8" height="33.8"/>
												</defs>
												<clipPath id="SVGID_00000123420583783074994950000008554129963867333042_">
													<use xlink:href="#SVGID_00000098178820018578962720000010357899006060292503_"  style="overflow:visible;"/>
												</clipPath>
												<g style="clip-path:url(#SVGID_00000123420583783074994950000008554129963867333042_);">
													<g>
														<path class="st4" d="M321.5,133c0.3-0.1,0.6,0,0.9,0c0.3,0,0.5,0.1,0.7,0.1c0.3,0.1,0.7,0.2,1,0.3
															c0.2,0.1,0.3,0.2,0.5,0.3c0.3,0.2,0.5,0.3,0.8,0.5c0.2,0.2,0.5,0.3,0.6,0.5c0.3,0.3,0.7,0.7,1,1.1
															c0.1,0.2,0.2,0.3,0.3,0.6c0.2,0.3,0.3,0.6,0.5,0.9c0.2,0.5,0.3,0.9,0.5,1.4c0.1,0.4,0.1,0.8,0.1,1.2
															c0,0.5,0,1-0.1,1.5c0,0.2-0.1,0.4-0.1,0.6c-0.1,0.3-0.1,0.6-0.2,0.9c-0.1,0.4-0.2,0.8-0.2,1.2
															c-0.1,0.2-0.1,0.5-0.1,0.7c-0.1,0.3-0.1,0.6-0.1,0.9c0,0.2,0,0.5,0.1,0.8c0.1,0.2,0.1,0.5,0.1,0.7
															c0.2,0.7,0.5,1.5,0.6,2.3c0.1,0.3,0.1,0.7,0.1,1.1c0,0.3,0,0.5,0,0.9c0,0.2,0,0.4,0,0.6c0,0.2,0,0.3,0,0.5
															c0,0.5-0.1,0.9-0.2,1.5c-0.1,0.5-0.1,0.9-0.2,1.4c-0.1,0.2-0.1,0.3-0.1,0.5h0.1c-0.2-0.1-0.3-0.2-0.5-0.3
															c-0.3-0.1-0.5-0.3-0.7-0.5c-0.3-0.2-0.5-0.4-0.7-0.7c-0.1-0.1-0.2-0.3-0.2-0.4c-0.1-0.2-0.1-0.3-0.2-0.5
															s-0.1-0.5-0.1-0.7c-0.1-0.2,0-0.5,0-0.7c0-0.5,0.1-0.9,0.1-1.4c0-0.3,0-0.5-0.1-0.8c-0.1-0.2-0.1-0.3-0.2-0.5
															c-0.1-0.1-0.2-0.3-0.3-0.3c-0.2-0.1-0.3-0.3-0.5-0.3c-0.2-0.1-0.5-0.2-0.7-0.3s-0.5,0-0.7,0c-0.5,0.1-0.9,0.1-1.4,0.1
															c-0.7,0.1-1.5,0.2-2.2,0.3c-0.2,0-0.3,0.1-0.5,0.1c-0.2,0.1-0.5,0.2-0.7,0.3c-0.5,0.2-0.9,0.5-1.1,0.9
															c-0.1,0.2-0.2,0.3-0.3,0.5c-0.1,0.3-0.2,0.7-0.2,1.1c0,0.5,0.1,1.1,0.1,1.6c0,0.3,0,0.5-0.1,0.7c0,0.1,0,0.2-0.1,0.3
															c-0.1,0.2-0.2,0.3-0.3,0.5c-0.1,0.2-0.2,0.3-0.3,0.4c-0.1,0.1-0.1,0.1-0.1,0.2c-0.1,0.1-0.1,0.1-0.2,0.1
															c-0.1-0.2-0.1-0.3-0.2-0.5s-0.2-0.5-0.2-0.6c-0.1-0.3-0.2-0.7-0.3-1c-0.1-0.2-0.1-0.5-0.2-0.7s-0.1-0.4-0.2-0.6
															c-0.1-0.2-0.1-0.5-0.1-0.7c-0.1-0.7-0.2-1.4-0.2-2.1c-0.1-0.5,0-0.9,0-1.3c0-0.4,0-0.7,0.1-1.1c0-0.3,0.1-0.6,0.1-0.9
															c0.1-0.7,0.1-1.4,0-2.1c0-0.5-0.1-0.9-0.1-1.3c0-0.3-0.1-0.6-0.1-0.9c0-0.2,0-0.4,0-0.6c0-0.3,0-0.6,0-0.9
															c0-0.5,0.1-1.1,0.2-1.6c0.1-0.3,0.1-0.6,0.2-0.9c0.1-0.3,0.2-0.7,0.3-1c0.2-0.3,0.3-0.6,0.5-0.9
															c0.3-0.5,0.9-0.9,1.3-1.3c0.3-0.2,0.6-0.5,1-0.6c0.3-0.2,0.7-0.3,1-0.3c0.3-0.1,0.6-0.1,0.9-0.2
															c0.2-0.1,0.3-0.1,0.5-0.1c0.1,0,0.2,0,0.3,0c0.2-0.1,0.3-0.1,0.5-0.2C321.2,133,321.3,133,321.5,133z"/>
														<path class="st5" d="M337.8,169c0.1-0.1,0.1-0.3,0.1-0.5c-0.1-1.5-0.3-2.9-0.8-4.4c-0.2-0.7-0.5-1.4-0.9-2.1
															c-0.3-0.7-0.7-1.3-1.1-1.8c-0.1-0.1-0.2-0.2-0.2-0.2s0-0.1-0.1-0.1c-0.3-0.5-0.7-0.8-1.1-1.1
															c-0.1-0.1-0.1-0.1-0.2-0.2c-0.1-0.1-0.2-0.2-0.4-0.2c-0.1-0.1-0.1-0.1-0.1-0.1c-0.3-0.2-0.7-0.5-1.1-0.6
															c-0.3-0.1-0.5-0.3-0.7-0.4c-0.3-0.2-0.7-0.3-1-0.5c-0.3-0.1-0.5-0.3-0.7-0.4c-0.3-0.2-0.6-0.3-0.9-0.5
															c-0.1-0.1-0.2-0.1-0.2-0.2h-0.1c-0.2-0.1-0.3-0.2-0.5-0.3c-0.3-0.1-0.5-0.3-0.7-0.5c-0.3-0.2-0.6-0.4-0.7-0.7
															c-0.1-0.1-0.2-0.3-0.2-0.4c-0.1-0.2-0.1-0.3-0.2-0.5c-0.1-0.2-0.1-0.5-0.1-0.7c-0.1-0.2,0-0.5,0-0.7
															c0-0.5,0.1-0.9,0.1-1.4c0-0.3,0-0.5-0.1-0.8c-0.1-0.2-0.1-0.3-0.2-0.5c-0.1-0.1-0.2-0.3-0.3-0.3
															c-0.2-0.1-0.3-0.2-0.5-0.3c-0.2-0.1-0.5-0.2-0.7-0.3c-0.2-0.1-0.5,0-0.7,0c-0.5,0-0.9,0.1-1.4,0.1
															c-0.7,0.1-1.5,0.2-2.2,0.3c-0.2,0-0.3,0.1-0.5,0.1c-0.2,0.1-0.5,0.2-0.7,0.3c-0.5,0.2-0.9,0.5-1.1,0.9
															c-0.1,0.2-0.2,0.3-0.3,0.5c-0.1,0.3-0.2,0.7-0.2,1.1c0,0.5,0.1,1.1,0.1,1.6c0,0.3,0,0.5-0.1,0.7c0,0.1,0,0.2-0.1,0.3
															c-0.1,0.2-0.2,0.3-0.3,0.5c-0.1,0.2-0.2,0.3-0.3,0.4c-0.1,0.1-0.1,0.1-0.1,0.2c-0.1,0.1-0.1,0.1-0.2,0.1
															c-0.2,0.3-0.5,0.5-0.9,0.7c-0.5,0.4-1.1,0.7-1.7,1.1c-0.3,0.2-0.7,0.5-1.1,0.6c-0.6,0.3-1.2,0.7-1.8,1.2
															c-0.3,0.2-0.6,0.5-0.9,0.7c-0.3,0.2-0.5,0.5-0.7,0.7c-0.2,0.2-0.5,0.5-0.7,0.7c-0.1,0.1-0.1,0.1-0.2,0.2
															c-0.1,0.1-0.3,0.2-0.4,0.3c-0.2,0.2-0.3,0.4-0.5,0.6c-0.2,0.2-0.3,0.5-0.5,0.7c-0.3,0.5-0.5,1.1-0.7,1.7
															c-0.2,0.7-0.3,1.3-0.3,1.9c-0.1,0.7-0.2,1.3-0.3,2L337.8,169l0.1-0.1h-0.1V169z"/>
														<path class="st6" d="M325,150.2c0.1-0.1,0.1-0.1,0.2-0.1C325.2,150.1,325.2,150.2,325,150.2c0,0.1,0,0.2,0,0.3
															c-0.3,0.3-0.5,0.5-0.9,0.8c-0.3,0.3-0.7,0.7-0.9,1.1c-0.2,0.3-0.3,0.5-0.5,0.9c-0.5,0.5-1.1,0.9-1.7,0.9
															c-0.2,0-0.3,0-0.5-0.1c-0.3-0.1-0.6-0.2-0.9-0.5c-0.2-0.1-0.3-0.3-0.4-0.5c-0.1-0.1-0.2-0.2-0.3-0.3
															c-0.3-0.2-0.6-0.5-0.9-0.7c-0.3-0.2-0.5-0.5-0.6-0.9c-0.1-0.2-0.1-0.3-0.1-0.5c0-0.1-0.1-0.2,0-0.3
															c0-0.1,0.1-0.1,0.1-0.1s0,0.1,0.1,0.1c0.2,0.1,0.2,0.2,0.3,0.2c0.1,0.1,0.2,0.2,0.2,0.2c0.1,0.1,0.1,0.1,0.1,0.1
															c0.1,0.1,0.1,0.1,0.1,0.2s0.1,0.1,0.2,0.1c0.1,0.1,0.2,0.2,0.3,0.2c0.1,0.1,0.3,0.1,0.4,0.2c0.1,0.1,0.2,0.1,0.2,0.1
															c0.1,0.1,0.2,0.2,0.3,0.2c0.1,0.1,0.1,0.1,0.1,0.1c0.2,0.1,0.3,0.1,0.5,0.2c0.1,0.1,0.2,0.1,0.3,0.1
															c0.1,0,0.2,0,0.2,0c0.3,0,0.5,0,0.8,0c0.3-0.1,0.7-0.2,1-0.4c0.2-0.1,0.3-0.2,0.5-0.3c0.1-0.1,0.1-0.1,0.2-0.2
															c0.1-0.1,0.1-0.1,0.1-0.1c0.1-0.1,0.1-0.2,0.2-0.2c0.2-0.2,0.3-0.3,0.5-0.3c0.1-0.1,0.3-0.2,0.3-0.3
															c0.1-0.1,0.2-0.2,0.3-0.3C324.9,150.3,324.9,150.2,325,150.2z"/>
													</g>
													<g>
														<path class="st7" d="M320.4,135.6c0.1-0.1,0.2-0.1,0.2-0.2c0.2,0.2,0.5,0.5,0.7,0.6h-0.1c0.1,0.2,0.2,0.3,0.3,0.4
															c0.2,0.2,0.4,0.5,0.6,0.7c0.5,0.4,1,0.7,1.5,1c0.5,0.3,1.1,0.5,1.6,0.9c0.5,0.4,0.9,0.9,1.3,1.4
															c0.1,0.2,0.2,0.3,0.2,0.5c0,0.1,0.1,0.1,0.1,0.2c0.1,0.1,0,0.1,0,0.2c0,0.2,0,0.5,0,0.7c0,0.3-0.1,0.6-0.1,0.9
															c0,0.3-0.1,0.5-0.1,0.7c-0.1,0.3-0.1,0.5-0.2,0.8c-0.1,0.3-0.2,0.7-0.3,1.1c-0.1,0.2-0.1,0.4-0.2,0.6
															c-0.1,0.2-0.1,0.3-0.2,0.6c-0.1,0.3-0.2,0.6-0.3,0.9c-0.2,0.5-0.4,0.9-0.6,1.3v-0.1c-0.1,0.1-0.1,0.1-0.1,0.2
															c-0.2,0.3-0.3,0.6-0.5,0.9c-0.1,0.2-0.3,0.5-0.4,0.7c-0.1,0.2-0.2,0.3-0.3,0.5c-0.1,0.1-0.1,0.2-0.2,0.2
															c-0.1,0.1-0.2,0.2-0.3,0.3c-0.2,0.2-0.3,0.3-0.5,0.5c-0.1,0.1-0.2,0.2-0.3,0.2c-0.2,0.1-0.3,0.2-0.5,0.2
															c-0.3,0.1-0.5,0.1-0.8,0.1c-0.2,0-0.5,0-0.7,0c-0.3-0.1-0.7-0.1-1-0.3c-0.2-0.1-0.3-0.2-0.5-0.3c0,0-0.1,0-0.1-0.1
															h0.1v-0.1c-0.1-0.1-0.2-0.2-0.3-0.2c-0.3-0.3-0.7-0.8-1-1.2c-0.1-0.1-0.1-0.2-0.2-0.3s-0.2-0.2-0.2-0.3
															c0,0.1-0.1,0.1-0.1,0.1c-0.1-0.2-0.2-0.4-0.3-0.6c-0.1-0.2-0.2-0.5-0.3-0.7c-0.2-0.5-0.5-0.9-0.6-1.5
															c0,0,0-0.1-0.1-0.1c-0.1-0.1-0.1-0.3-0.1-0.3c-0.1-0.4-0.2-0.8-0.3-1.2c-0.1-0.2-0.1-0.3-0.1-0.5
															c0.1,0.1,0.1,0.2,0.2,0.3c0.2,0.3,0.3,0.7,0.4,1.1c0,0.1,0,0.1,0,0.1c0,0,0,0,0.1,0c0-0.2-0.1-0.3-0.1-0.5
															c-0.1-0.2-0.1-0.3-0.1-0.5s-0.1-0.5-0.2-0.6c-0.2-0.3-0.3-0.7-0.3-1.1c-0.1-0.2-0.1-0.5-0.1-0.7c0-0.2,0-0.5,0-0.6
															c0-0.3,0.1-0.5,0.1-0.8v0.1c0.1-0.1,0.1-0.2,0.2-0.3c0.1-0.3,0.3-0.5,0.5-0.9c0.2-0.3,0.4-0.6,0.7-0.9
															c0.5-0.5,0.9-0.9,1.5-1.3c0.2-0.2,0.5-0.3,0.6-0.5c0.3-0.3,0.6-0.6,0.9-0.9c0.2-0.2,0.4-0.5,0.6-0.7
															C320.3,136,320.4,135.8,320.4,135.6L320.4,135.6z"/>
														<path class="st8" d="M319.7,136.1c0.3-0.1,0.5-0.3,0.7-0.5h0.1c-0.1,0.1-0.2,0.2-0.2,0.3c-0.2,0.2-0.3,0.5-0.6,0.7
															c-0.3,0.3-0.6,0.6-0.9,0.9c-0.2,0.2-0.5,0.3-0.6,0.5c-0.5,0.5-1,0.9-1.5,1.3c-0.2,0.3-0.5,0.6-0.7,0.9
															s-0.3,0.5-0.5,0.9c-0.1,0.1-0.1,0.2-0.2,0.3v-0.1c0.1-0.3,0.1-0.5,0.1-0.8c0.1-0.5,0.3-1.1,0.7-1.5
															c0.2-0.3,0.5-0.6,0.7-0.9c0.2-0.2,0.3-0.4,0.5-0.5c0.2-0.2,0.3-0.3,0.5-0.5C318.5,136.9,319,136.4,319.7,136.1z"/>
														<path class="st8" d="M321.3,136L321.3,136c0.2,0.1,0.3,0.2,0.5,0.2c0.3,0.1,0.5,0.3,0.9,0.3c0.2,0.1,0.3,0.1,0.5,0.2
															c0.3,0.1,0.7,0.2,1,0.3c0.3,0.1,0.7,0.3,1,0.5c0.2,0.1,0.3,0.2,0.4,0.3c0.2,0.2,0.3,0.3,0.5,0.5
															c0.2,0.2,0.3,0.3,0.4,0.6c0.2,0.3,0.5,0.7,0.5,1.2c0.1,0.2,0.2,0.5,0.2,0.7c-0.1-0.1-0.1-0.1-0.1-0.2
															c-0.1-0.2-0.2-0.3-0.2-0.5c-0.3-0.5-0.7-1-1.3-1.4c-0.5-0.3-1.1-0.7-1.6-0.9c-0.5-0.3-1.1-0.6-1.5-1
															c-0.2-0.2-0.5-0.5-0.6-0.7C321.4,136.3,321.3,136.2,321.3,136z"/>
														<path class="st8" d="M327.6,143.1c0.1-0.3,0.1-0.5,0.1-0.8c0.2,0,0.4,0.1,0.6,0.2c0.1,0.1,0.2,0.2,0.2,0.3
															c0.1,0.2,0.1,0.5,0.1,0.7c0,0.4-0.1,0.9-0.2,1.2c-0.1,0.3-0.2,0.5-0.3,0.9c-0.2,0.4-0.5,0.8-0.9,1.1
															c0-0.3,0-0.5,0.1-0.8c0.1-0.5,0.1-0.9,0.2-1.3C327.4,144,327.4,143.6,327.6,143.1z"/>
														<path class="st8" d="M323.7,142.4c0.3,0,0.7,0,1.1,0c0.1,0,0.3,0.1,0.4,0.1c0.1,0,0.1,0,0.1,0.1
															c-0.1,0-0.1,0.1-0.1,0.1c-0.1,0.1-0.2,0.1-0.3,0.2c-0.3,0.2-0.8,0.5-1.2,0.5c-0.2,0.1-0.4,0.1-0.6,0
															c-0.1,0-0.2,0-0.3,0c-0.2,0-0.3,0-0.5,0c-0.2,0-0.3,0-0.5-0.1c-0.1,0-0.1-0.1-0.1-0.1c0-0.2,0.2-0.4,0.3-0.5
															c0.1-0.1,0.1,0,0.2-0.1c0.1,0,0.1-0.1,0.1-0.1c0.3-0.1,0.5-0.1,0.7-0.1C323.1,142.5,323.5,142.4,323.7,142.4z"/>
														<path class="st8" d="M317.6,142.5c0.2,0,0.3,0,0.5,0c0.2,0,0.5,0.1,0.7,0.1c0.2,0.1,0.5,0.1,0.6,0.2
															c0.1,0.1,0.2,0.2,0.3,0.3v0.1c0,0-0.1,0-0.1,0.1c-0.4,0.1-0.7,0.1-1.1,0.2c-0.2,0-0.4,0.1-0.6,0.1c-0.2,0-0.3,0-0.5,0
															c-0.2,0-0.5-0.1-0.7-0.1c-0.2-0.1-0.3-0.1-0.5-0.1c-0.1-0.1-0.2-0.1-0.3-0.1c-0.1-0.1-0.2-0.1-0.3-0.1
															c-0.1,0-0.1-0.1,0-0.1c0.1,0,0.1,0,0.2-0.1c0.1,0,0.1-0.1,0.1-0.1c0.2-0.1,0.3-0.1,0.5-0.1
															C316.8,142.6,317.2,142.5,317.6,142.5z"/>
														<path class="st8" d="M314.1,142.9c0.1-0.2,0.3-0.3,0.5-0.3c0.1,0,0.2,0,0.3,0c0,0.2,0.1,0.5,0.1,0.7
															c0.1,0.2,0.1,0.5,0.2,0.7c0.1,0.2,0.1,0.3,0.2,0.5c0.1,0.2,0.2,0.3,0.2,0.5c0,0.2,0.1,0.3,0.1,0.5
															c0.1,0.4,0.2,0.8,0.3,1.2c0.1,0.1,0.1,0.2,0.1,0.3v0.1c-0.2,0-0.3-0.1-0.5-0.1c-0.2,0-0.3-0.1-0.5-0.1
															c-0.2-0.1-0.3-0.3-0.5-0.4c-0.2-0.2-0.3-0.5-0.5-0.7c-0.2-0.3-0.3-0.6-0.3-0.9c-0.1-0.2-0.1-0.5-0.1-0.6
															c0.1-0.3,0.1-0.5,0.1-0.9C313.9,143.1,314,143,314.1,142.9z"/>
														<path class="st7" d="M328.2,144.1C328.4,144.1,328.2,144.1,328.2,144.1L328.2,144.1z"/>
														<path class="st8" d="M320.5,147.2c0.1,0,0.1,0,0.2,0s0.1,0.1,0.1,0.1c-0.1,0.1-0.1,0.2-0.1,0.2
															c-0.1,0.1-0.2,0.2-0.3,0.3c-0.1,0.1-0.1,0-0.2,0c-0.1-0.1-0.1-0.2-0.1-0.2c0-0.1-0.1-0.2,0-0.3c0-0.1,0.1-0.1,0.1-0.1
															C320.3,147.2,320.4,147.2,320.5,147.2z"/>
														<path class="st8" d="M325,149c0.1-0.1,0.1-0.1,0.1-0.2v0.1c0,0.2-0.1,0.3-0.1,0.5c-0.1,0.2-0.1,0.5-0.1,0.7
															c-0.1,0.1-0.2,0.2-0.2,0.2c-0.3,0.2-0.6,0.5-0.9,0.7c-0.1,0.1-0.1,0.1-0.2,0.1c0-0.1,0.1-0.2,0.2-0.2
															c0.1-0.2,0.2-0.3,0.3-0.5c0.1-0.2,0.3-0.5,0.4-0.7C324.7,149.6,324.9,149.3,325,149z"/>
														<path class="st8" d="M317.4,149.7c0-0.1,0-0.1,0.1-0.1c0.1,0.1,0.1,0.2,0.2,0.3c0.1,0.1,0.1,0.2,0.2,0.3
															c0.3,0.5,0.6,0.9,1,1.2c0.1,0.1,0.2,0.2,0.3,0.2v0.1h0c-0.1,0-0.2-0.1-0.3-0.2c-0.3-0.2-0.6-0.4-0.9-0.6
															c-0.1-0.1-0.1-0.1-0.2-0.2l-0.1-0.1c0-0.1-0.1-0.1-0.1-0.2c0-0.2-0.1-0.3-0.1-0.5C317.4,150,317.4,149.9,317.4,149.7
															L317.4,149.7z"/>
														<path class="st8" d="M320.4,149.9c0.2-0.1,0.3-0.1,0.5-0.1s0.5,0.1,0.6,0.2c0.1,0.1,0.2,0.1,0.3,0.2
															c0.1,0,0.1,0.1,0.1,0.1c-0.1,0-0.1-0.1-0.2-0.1c-0.1,0-0.2,0-0.2,0c-0.2,0-0.4-0.1-0.6-0.1s-0.5,0-0.7,0
															c-0.2,0.1-0.3,0.1-0.5,0.1C320,150,320.3,149.9,320.4,149.9z"/>
													</g>
													<g>
														<path class="st9" d="M318.1,139c0.1-0.1,0.1-0.1,0.2-0.1c0,0.1,0,0.1-0.1,0.1c-0.4,0.2-0.7,0.5-1,0.9h-0.1
															c0-0.1,0.1-0.2,0.2-0.2C317.6,139.4,317.8,139.2,318.1,139z"/>
														<g>
															<path class="st10" d="M328,139.5c-0.1-0.4-0.2-0.9-0.3-1.2c-0.2-0.4-0.3-0.9-0.6-1.2c-0.3-0.3-0.5-0.7-0.9-1.1
																c-0.3-0.3-0.7-0.7-1.1-1c-0.3-0.2-0.5-0.4-0.8-0.5c-0.3-0.2-0.5-0.3-0.9-0.5c-0.2-0.1-0.5-0.2-0.7-0.2
																c-0.2-0.1-0.5-0.1-0.7-0.2c-0.2-0.1-0.3-0.1-0.5-0.1c-0.1-0.1-0.2,0-0.3-0.1v0.1c0.1,0,0.1,0.1,0.1,0.1
																c0.3,0.1,0.6,0.1,0.9,0.2c0.7,0.2,1.3,0.3,1.9,0.7c0.2,0.2,0.5,0.3,0.7,0.5c0.2,0.2,0.5,0.3,0.7,0.5
																c0.3,0.3,0.7,0.7,0.9,1.1c0.3,0.3,0.5,0.7,0.7,1.1c0.2,0.3,0.3,0.7,0.5,1.1c0.1,0.3,0.2,0.7,0.2,1
																c0,0.3,0.1,0.5,0.1,0.9c0,0.2-0.1,0.5-0.1,0.7c0,0.1-0.1,0.2,0,0.3l0,0c0,0.1-0.1,0.2-0.1,0.3c0,0.1-0.1,0.2-0.1,0.2
																s0,0,0.1,0c0.1-0.2,0.1-0.3,0.1-0.5l0,0c0.1-0.2,0.1-0.4,0.1-0.6C328.2,140.3,328.1,139.9,328,139.5z"/>
															<path class="st10" d="M321.3,134.1L321.3,134.1c-0.1,0.1,0.1,0.1,0.1,0.2c0.2,0.3,0.5,0.5,0.9,0.7
																c0.3,0.2,0.5,0.3,0.9,0.5c0.4,0.2,0.9,0.4,1.2,0.6c0.5,0.3,1,0.5,1.5,0.9c0.3,0.2,0.5,0.4,0.8,0.7l0.1,0.1l0,0
																c0.1,0.1,0.1,0.1,0.1,0.1l0,0c0,0.1,0,0.1,0.1,0.1c-0.1-0.1-0.1-0.1-0.1-0.2s-0.1-0.2-0.2-0.2
																c-0.5-0.5-1.1-0.9-1.7-1.2c-0.3-0.2-0.7-0.3-1.1-0.5c-0.3-0.2-0.6-0.3-0.9-0.5c-0.3-0.2-0.5-0.3-0.9-0.5
																c-0.2-0.2-0.5-0.3-0.6-0.5l0,0C321.3,134.2,321.3,134.1,321.3,134.1z"/>
															<path class="st10" d="M317.6,136.9c0.6-0.5,1.2-0.8,1.9-1.2c0.3-0.2,0.7-0.5,1-0.7c0.1-0.1,0.1-0.1,0.1-0.2
																c-0.2,0.2-0.3,0.4-0.6,0.6c-0.3,0.2-0.5,0.4-0.9,0.5c-0.3,0.2-0.7,0.5-1.1,0.7c-0.3,0.2-0.6,0.5-0.9,0.7
																c-0.8,0.7-1.5,1.5-1.8,2.6c0,0.1,0,0.1,0,0.1l0,0c-0.2,0.5-0.3,1.1-0.3,1.7c0,0.2,0,0.3,0,0.5c0,0.1,0,0.2,0,0.2
																c0.1-0.5,0.1-1,0.1-1.5c0.1-0.3,0.1-0.5,0.2-0.8c0.1-0.5,0.3-0.9,0.6-1.3C316.4,138,316.8,137.4,317.6,136.9z"/>
															<path class="st10" d="M327.4,141.2c0-0.3,0-0.5-0.1-0.9c-0.1-0.3-0.2-0.7-0.3-1.1c-0.2-0.4-0.4-0.8-0.7-1.2
																c-0.1-0.2-0.3-0.3-0.5-0.5c-0.2-0.2-0.3-0.3-0.5-0.5c-0.2-0.2-0.5-0.3-0.6-0.3c-0.3-0.2-0.7-0.3-1.1-0.5
																c-0.3-0.1-0.7-0.3-0.9-0.4c-0.3-0.2-0.6-0.3-0.9-0.5c-0.2-0.1-0.3-0.3-0.4-0.5c-0.1-0.2-0.2-0.3-0.2-0.6
																c0-0.1,0-0.1,0-0.1c-0.1,0-0.1,0.1-0.1,0.1c0.1,0.2,0.1,0.5,0.2,0.6c0.1,0.1,0.2,0.3,0.5,0.5s0.3,0.3,0.6,0.3
																c0.2,0.1,0.3,0.2,0.5,0.2c0.2,0.1,0.4,0.2,0.6,0.3c0.2,0.1,0.4,0.2,0.6,0.2c0.6,0.2,1.2,0.5,1.7,0.9
																c0.2,0.2,0.3,0.3,0.5,0.5c0.7,0.8,1.1,1.9,1.2,2.9c0,0.2,0,0.5,0,0.7c0,0.1,0,0.2,0,0.2c-0.1,0.5-0.1,0.9-0.2,1.4
																c0.1,0,0.1-0.1,0.1-0.1c0.1-0.4,0.1-0.9,0.2-1.3c0-0.1,0-0.2,0-0.2C327.4,141.5,327.4,141.3,327.4,141.2z"/>
															<path class="st10" d="M320.5,135.4c-0.1,0.1-0.2,0.2-0.3,0.3c-0.2,0.2-0.4,0.2-0.6,0.3c-0.2,0.1-0.3,0.2-0.5,0.2
																c-0.2,0.1-0.3,0.2-0.5,0.3c-0.2,0.1-0.3,0.2-0.5,0.3c-0.1,0.1-0.1,0.1-0.1,0.1c-0.1,0.1-0.2,0.2-0.3,0.2
																c-0.2,0.2-0.3,0.3-0.5,0.5c-0.2,0.3-0.5,0.5-0.6,0.9c-0.2,0.3-0.3,0.6-0.5,0.9c-0.1,0.1-0.1,0.3-0.2,0.4
																c-0.1,0.3-0.2,0.6-0.3,0.9c0,0.1,0,0.1,0,0.1c0.1-0.4,0.2-0.8,0.4-1.1c0.1-0.1,0.1-0.2,0.2-0.3
																c0.3-0.5,0.5-0.9,0.9-1.3c0.2-0.3,0.5-0.5,0.8-0.8l0,0c0.2-0.2,0.5-0.4,0.8-0.6c0.5-0.3,1-0.5,1.5-0.9
																C320.1,135.9,320.3,135.7,320.5,135.4c0.1-0.1,0.1-0.1,0.1-0.2C320.5,135.3,320.5,135.3,320.5,135.4z"/>
															<path class="st10" d="M315.5,137.8c-0.1,0.1-0.1,0.2-0.1,0.3c0,0,0,0,0.1,0c0.1-0.1,0.1-0.2,0.2-0.3
																c0.2-0.3,0.3-0.7,0.6-1c0.3-0.5,0.6-0.9,1-1.3c0.5-0.5,1.1-1,1.9-1.3c0.5-0.2,0.9-0.3,1.3-0.5c0,0,0,0,0-0.1
																c-0.2,0.1-0.5,0.2-0.7,0.2c-0.2,0.1-0.3,0.1-0.5,0.2c-0.3,0.1-0.6,0.3-0.9,0.5c-0.7,0.4-1.2,1-1.7,1.6
																c-0.1,0.2-0.3,0.3-0.4,0.5c0,0,0,0,0,0.1l0,0C315.8,137.1,315.7,137.5,315.5,137.8z"/>
															<path class="st10" d="M314.8,139.7c0-0.2,0.1-0.4,0.1-0.6c0-0.1,0-0.2,0.1-0.2c0.1-0.3,0.1-0.5,0.2-0.9
																c0.1-0.5,0.3-0.9,0.5-1.3c0.3-0.5,0.7-1.1,1.1-1.5c0.3-0.3,0.5-0.5,0.9-0.7c0.2-0.2,0.5-0.3,0.7-0.4
																c0.3-0.2,0.6-0.3,0.9-0.4c0.3-0.1,0.7-0.2,1-0.3c-0.1,0-0.1,0-0.2,0c-0.6,0.1-1.2,0.3-1.7,0.6
																c-0.3,0.1-0.5,0.3-0.8,0.5c-0.5,0.3-1,0.7-1.3,1.2c-0.3,0.3-0.5,0.7-0.7,1.1c-0.2,0.3-0.3,0.6-0.4,1
																c-0.1,0.3-0.2,0.6-0.2,1c0,0.1-0.1,0.2-0.1,0.3s0,0.1,0,0.1c0,0.2-0.1,0.5-0.1,0.7
																C314.8,139.8,314.8,139.7,314.8,139.7z"/>
															<path class="st10" d="M327.7,140L327.7,140c0-0.1,0-0.1-0.1-0.2c-0.1-0.3-0.1-0.5-0.2-0.7c-0.1-0.4-0.3-0.7-0.5-1.1
																c-0.2-0.4-0.5-0.7-0.7-1.1c-0.3-0.3-0.6-0.6-0.9-0.9c-0.5-0.3-1-0.7-1.5-1c-0.1-0.1-0.1-0.1-0.2-0.1l0,0
																c-0.3-0.2-0.5-0.3-0.9-0.5c-0.3-0.2-0.7-0.3-1.1-0.5c-0.2-0.1-0.5-0.2-0.7-0.2c0,0,0,0,0,0.1
																c0.2,0.1,0.4,0.1,0.6,0.2c0.3,0.2,0.7,0.3,1.1,0.5c0.3,0.2,0.5,0.3,0.9,0.5c0.5,0.3,0.9,0.5,1.3,0.9
																c0.4,0.3,0.7,0.6,1.1,0.9c0.4,0.3,0.6,0.7,0.9,1.1c0.2,0.3,0.3,0.7,0.5,1c0.1,0.3,0.2,0.7,0.3,1.1H327.7
																c-0.1,0.1-0.1,0.1-0.1,0.2c0.1,0.2,0.1,0.4,0.1,0.6l0.1-0.1C327.8,140.5,327.8,140.3,327.7,140z"/>
															<path class="st10" d="M326.9,140.7c-0.1-0.2-0.1-0.5-0.2-0.7c-0.2-0.3-0.3-0.7-0.5-1.1c-0.2-0.2-0.3-0.5-0.5-0.6l0,0
																c0-0.1-0.1-0.1-0.1-0.1c-0.3-0.3-0.6-0.6-1-0.9c-0.3-0.2-0.7-0.3-1.1-0.5c-0.4-0.1-0.7-0.3-1.1-0.5
																c-0.3-0.2-0.7-0.3-1-0.5c-0.2-0.1-0.2-0.1-0.3-0.2l-0.1-0.1c0-0.1-0.1-0.2-0.1-0.2c-0.1-0.2-0.1-0.3-0.1-0.6
																c0-0.5,0.1-0.5,0-0.9c0-0.1,0-0.1,0-0.2h-0.1c-0.1,0.1,0,0.2,0,0.3c0,0.2,0,0.3,0,0.4s0,0.2,0,0.3c0,0.1,0,0.2,0,0.2
																s0,0.2,0.1,0.3l0,0c0,0.1,0,0.1,0.1,0.2c0.1,0.2,0.3,0.3,0.5,0.5c0.3,0.2,0.7,0.3,1.1,0.5c0.2,0.1,0.4,0.2,0.6,0.2
																c0.3,0.2,0.7,0.3,1.1,0.4c0.3,0.1,0.6,0.3,0.9,0.5c0.3,0.2,0.5,0.5,0.8,0.7c0.2,0.3,0.5,0.6,0.7,1
																c0.1,0.2,0.2,0.4,0.3,0.6c0.1,0.1,0.1,0.2,0.2,0.4C326.9,140.5,326.9,140.6,326.9,140.7c0.1,0.2,0.1,0.4,0.1,0.5
																c0.1,0.3,0.1,0.7,0.1,1c0,0.4-0.1,0.8-0.1,1.2c0.1-0.1,0-0.1,0.1-0.2c0-0.2,0.1-0.3,0.1-0.5c0.1-0.5,0.1-0.9,0.1-1.4
																C327,141.2,327,140.9,326.9,140.7z"/>
															<path class="st10" d="M327.7,141.3c0,0.1-0.1,0.2-0.1,0.2s-0.1,0.2,0,0.3c0,0.1,0,0.3-0.1,0.5l0.1,0.1
																c0-0.1,0-0.3,0-0.3C327.8,141.7,327.8,141.5,327.7,141.3z"/>
															<path class="st10" d="M314.8,141.6c0-0.5,0.1-0.9,0.1-1.4c0.1-0.3,0.2-0.7,0.3-1c0.1-0.1,0.1-0.2,0.2-0.3
																c0.1-0.1,0.1-0.2,0.2-0.3l0,0c0.1-0.2,0.3-0.5,0.5-0.7c0.2-0.3,0.5-0.5,0.7-0.8c0.2-0.2,0.5-0.5,0.7-0.7
																c0.1-0.1,0.1-0.1,0.2-0.2l0,0c0.3-0.2,0.6-0.5,1-0.7s0.8-0.5,1.1-0.7c0.2-0.2,0.5-0.3,0.7-0.6V134
																c-0.1,0-0.1,0.1-0.2,0.1c-0.2,0.2-0.5,0.5-0.8,0.7s-0.5,0.3-0.9,0.5s-0.7,0.5-1.1,0.7c-0.3,0.2-0.5,0.5-0.9,0.7
																c-0.3,0.3-0.5,0.5-0.7,0.9c-0.2,0.2-0.3,0.5-0.5,0.7c-0.1,0.2-0.2,0.5-0.3,0.7c-0.1,0.2-0.1,0.4-0.2,0.6
																c-0.1,0.4-0.2,0.9-0.2,1.3c0,0.2,0,0.3,0,0.5c0,0.1,0,0.2,0,0.3c0,0.2,0,0.3,0,0.5h0.1
																C314.8,142,314.8,141.8,314.8,141.6z"/>
														</g>
														<path class="st11" d="M316.7,142.4c0.2-0.1,0.5-0.1,0.7-0.1c0.3,0,0.6,0,0.9,0.1c0.3,0.1,0.7,0.1,1.1,0.3
															c0.1,0.1,0.2,0.1,0.2,0.2c-0.1,0-0.2,0-0.2,0c-0.2-0.1-0.3-0.1-0.5-0.1c-0.2-0.1-0.4-0.1-0.6-0.1c-0.3,0-0.5,0-0.9,0
															c-0.3,0-0.7,0.1-1,0.1c-0.2,0.1-0.3,0.1-0.6,0.1h-0.1c0-0.1,0.1-0.2,0.2-0.2C316.2,142.7,316.4,142.5,316.7,142.4z"/>
														<path class="st11" d="M325.3,142.5c-0.1-0.1-0.2-0.1-0.3-0.2c-0.2-0.1-0.5-0.1-0.7-0.2c-0.3-0.1-0.5-0.1-0.9-0.1
															c-0.3,0.1-0.7,0.1-1.1,0.2c-0.2,0.1-0.4,0.2-0.5,0.4c-0.1,0.1,0,0.1,0,0.1c0.1-0.1,0.2-0.1,0.3-0.1
															c0.2-0.1,0.5-0.1,0.7-0.2c0.6-0.2,1.3-0.1,1.9-0.1c0.1,0.1,0.3,0.1,0.4,0.1C325.2,142.6,325.3,142.6,325.3,142.5
															C325.4,142.6,325.4,142.6,325.3,142.5C325.4,142.6,325.3,142.5,325.3,142.5z"/>
														<path class="st12" d="M319.7,143L319.7,143c0.1,0.1,0.1,0.1,0.2,0.2c0.1,0.2,0.1,0.5,0.1,0.7c0.1,0.3,0.1,0.6,0.1,0.9
															c0,0.3,0,0.7-0.1,1.1c-0.1,0.3-0.1,0.6-0.2,0.9c0,0.1-0.1,0.2-0.1,0.3c0,0.1,0.1,0.1,0.1,0.1c0.2,0,0.3,0,0.5,0
															c0.1,0,0.2,0,0.3,0v0.1c-0.1,0.1-0.2,0.1-0.3,0.1c-0.2,0-0.3,0-0.5,0c-0.1,0-0.2-0.1-0.3-0.1
															c-0.1-0.2,0.1-0.4,0.1-0.6c0.1-0.3,0.1-0.7,0.2-1c0-0.2,0-0.5,0-0.7c0-0.3-0.1-0.7-0.1-1.1c0-0.2-0.1-0.4-0.2-0.5
															C319.7,143.1,319.7,143,319.7,143z"/>
														<path class="st13" d="M317.4,143.2c0.1,0,0.2,0,0.2,0.1c0.1,0.1,0.1,0.2,0.1,0.3c0,0.1-0.1,0.2-0.1,0.2
															c-0.1,0.1-0.2,0.1-0.2,0c-0.1-0.1-0.1-0.2-0.1-0.2S317.3,143.3,317.4,143.2C317.4,143.3,317.4,143.3,317.4,143.2z"/>
														<path class="st13" d="M323.3,143.3c0.1-0.1,0.1,0,0.2,0c0.1,0.1,0.1,0.2,0.1,0.3c0,0.1-0.1,0.2-0.1,0.3
															c-0.1,0.1-0.2,0-0.2-0.1c-0.1-0.1-0.1-0.2-0.1-0.3C323.1,143.3,323.2,143.3,323.3,143.3z"/>
														<path class="st14" d="M327.6,143.5c0-0.1,0-0.1,0-0.1C327.6,143.4,327.6,143.4,327.6,143.5c0.1,0.2,0.1,0.4,0.1,0.6
															c-0.1,0.3-0.2,0.7-0.4,1.1h-0.1v-0.1c0.1-0.1,0.1-0.2,0.2-0.3c0.1-0.2,0.2-0.5,0.2-0.7
															C327.6,143.9,327.6,143.7,327.6,143.5z"/>
														<path class="st14" d="M314.6,143.8c0.1-0.1,0.1-0.2,0.3-0.3h0.1c0,0,0,0,0,0.1c-0.1,0.1-0.2,0.2-0.2,0.3
															c-0.1,0.3,0,0.7,0.2,0.9c0.2,0.3,0.3,0.5,0.6,0.7l0.1,0.1h-0.1c-0.2-0.1-0.3-0.2-0.5-0.3c-0.2-0.3-0.5-0.6-0.5-0.9
															C314.4,144.2,314.4,144,314.6,143.8z"/>
														<path class="st15" d="M317,143.7c0.1,0,0.2,0.1,0.3,0.1c0.2,0.1,0.3,0.1,0.5,0.1v0.1c-0.2,0-0.3-0.1-0.5-0.1
															c-0.1,0-0.2-0.1-0.2-0.1C317,143.9,317,143.8,317,143.7z"/>
														<g>
															<path class="st16" d="M324.5,144c-0.1,0.1-0.1,0.1-0.2,0.2c-0.3,0.2-0.5,0.3-0.9,0.3c-0.1,0-0.3,0-0.4,0
																c-0.1,0-0.2,0-0.3-0.1l0,0c-0.1,0-0.1-0.1-0.1,0c-0.1,0.1,0,0.1,0.1,0.2c0.1,0.1,0.2,0.1,0.3,0.1
																c0.3,0.1,0.5,0,0.9-0.1c0.2-0.1,0.3-0.2,0.5-0.3c0.1-0.1,0.2-0.1,0.2-0.2C324.5,144,324.5,144,324.5,144z"/>
															<path class="st16" d="M318.5,144.1c-0.1,0.1-0.1,0.1-0.1,0.1c-0.3,0.2-0.6,0.3-0.9,0.2c-0.2-0.1-0.5-0.1-0.6-0.2
																h-0.1c0,0.1,0.1,0.1,0.1,0.1c0.2,0.1,0.3,0.2,0.5,0.2c0.2,0.1,0.4,0.1,0.6-0.1c0.2-0.1,0.3-0.2,0.5-0.3
																c0.1-0.1,0.1-0.1,0.1-0.1V144C318.5,144.1,318.5,144.1,318.5,144.1z"/>
														</g>
														<path class="st17" d="M320.4,145.1L320.4,145.1c0.1,0.1,0.1,0.2,0.1,0.3c0,0.2-0.1,0.5-0.1,0.7
															c-0.1,0.2-0.1,0.3-0.1,0.5h-0.1c0-0.1,0.1-0.1,0.1-0.2C320.4,145.9,320.4,145.4,320.4,145.1z"/>
														<path class="st18" d="M323.7,145.2c0.2-0.1,0.5,0,0.7,0.1c0.2,0.1,0.3,0.3,0.5,0.5c0.2,0.4,0.1,0.9-0.1,1.3
															c-0.1,0.2-0.3,0.3-0.5,0.5c-0.2,0.1-0.5,0.2-0.7,0.2c-0.2-0.1-0.5-0.1-0.6-0.3c-0.2-0.1-0.3-0.3-0.3-0.5
															c-0.1-0.2-0.1-0.3-0.1-0.5c0-0.1,0.1-0.2,0.1-0.3c0.1-0.1,0.1-0.3,0.2-0.3c0.1-0.2,0.2-0.3,0.3-0.5
															C323.3,145.4,323.5,145.2,323.7,145.2z"/>
														<path class="st19" d="M314.8,145.2L314.8,145.2c0.2,0.2,0.3,0.3,0.5,0.5v0.1c-0.2-0.1-0.3-0.2-0.4-0.3
															C314.8,145.4,314.8,145.4,314.8,145.2z"/>
														<path class="st15" d="M316.8,145.4c0.1,0,0.2,0.2,0.3,0.2c0,0,0,0,0.1,0l0,0l-0.1,0.1l0,0
															C317,145.6,316.9,145.6,316.8,145.4L316.8,145.4z"/>
														<path class="st20" d="M327.4,145.4c0.1-0.1,0.1-0.1,0.2-0.1c0.1,0,0.1,0.1,0.1,0.1c-0.1,0.1-0.1,0.1-0.2,0.1l-0.1-0.1
															C327.3,145.6,327.3,145.5,327.4,145.4z"/>
														<path class="st18" d="M317.1,145.6c0.3-0.1,0.5-0.1,0.9-0.1c0.2,0.1,0.3,0.1,0.5,0.2c0.3,0.2,0.5,0.6,0.5,1
															c0,0.3-0.2,0.7-0.4,0.9c-0.2,0.2-0.4,0.3-0.6,0.3c-0.3,0.1-0.6,0-0.9-0.1c-0.3-0.2-0.5-0.5-0.7-0.8
															c-0.1-0.2,0-0.5,0.1-0.7c0.1-0.3,0.2-0.5,0.5-0.7l0,0c0.1,0.1,0.3,0.3,0.4,0.4c0,0,0-0.1,0.1-0.1
															C317.2,145.9,317.2,145.8,317.1,145.6C317,145.6,317.1,145.6,317.1,145.6z"/>
														<path class="st14" d="M315.5,145.6c0.1,0.1,0.2,0.1,0.3,0.2v0.1c-0.1,0-0.1-0.1-0.2-0.1c-0.1,0-0.1-0.1-0.1-0.1h0.1
															C315.5,145.7,315.5,145.6,315.5,145.6z"/>
														<path class="st21" d="M317,145.7L317,145.7c0.2,0.1,0.3,0.2,0.4,0.3c0,0,0,0.1-0.1,0.1
															C317.2,145.9,317.1,145.8,317,145.7z"/>
														<path class="st9" d="M315.3,146.2c0.1,0,0.1-0.1,0.2,0c0.1,0,0.1,0.1,0.1,0.1c0,0.1-0.1,0.1-0.1,0.1l0,0
															c-0.1,0-0.1-0.1-0.1-0.1C315.3,146.2,315.3,146.2,315.3,146.2C315.4,146.1,315.3,146.2,315.3,146.2z"/>
														<path class="st20" d="M315.3,146.3c-0.1-0.1,0-0.2,0.1-0.2h0.1c0,0.1,0,0.1,0,0.2c0.1,0,0.1,0.1,0.1,0.1
															C315.4,146.4,315.3,146.4,315.3,146.3z"/>
														<path class="st17" d="M320.9,146.6c0.1-0.1,0.3,0,0.3,0.1c0,0.1,0,0.1,0,0.1c-0.1-0.1-0.1-0.1-0.1-0.1
															C321,146.7,321,146.7,320.9,146.6C320.9,146.7,320.9,146.6,320.9,146.6z"/>
														<path class="st15" d="M320.1,146.9C320.1,146.8,320.1,146.8,320.1,146.9c0.1,0,0.2,0.1,0.2,0.1v0.1
															C320.3,147.1,320.1,147,320.1,146.9z"/>
														<path class="st22" d="M320.7,146.9c0.1,0,0.2-0.1,0.2,0v0.1c-0.1,0.1-0.2,0.1-0.3,0.1
															C320.7,147,320.7,146.9,320.7,146.9z"/>
														<path class="st23" d="M326,147.1c-0.1,0.1-0.1,0.2-0.1,0.3c-0.1,0.2-0.1,0.3-0.2,0.5c-0.2,0.3-0.3,0.7-0.5,1.1
															c-0.1,0.2-0.2,0.3-0.3,0.5c-0.1,0.2-0.2,0.3-0.3,0.5c-0.1,0.2-0.2,0.3-0.3,0.5c-0.1,0.1-0.2,0.2-0.3,0.3
															c-0.2,0.2-0.3,0.4-0.5,0.6c-0.1,0.2-0.2,0.3-0.3,0.5c-0.1,0.1-0.3,0.2-0.4,0.3c-0.1,0.1-0.2,0.1-0.2,0.2l0,0
															c-0.3,0.2-0.6,0.2-0.9,0.3c-0.1,0.1-0.2,0.1-0.3,0.1c-0.1,0-0.2,0-0.3,0c-0.2,0-0.5-0.1-0.7-0.2
															c-0.1-0.1-0.2-0.1-0.3-0.1c-0.2-0.1-0.3-0.1-0.4-0.2c-0.2-0.1-0.3-0.3-0.5-0.4c-0.1-0.1-0.2-0.2-0.3-0.3
															c-0.1-0.1-0.3-0.3-0.4-0.5c-0.3-0.3-0.5-0.7-0.7-1c-0.1-0.2-0.3-0.4-0.4-0.6c-0.1-0.2-0.2-0.3-0.3-0.5
															c-0.2-0.5-0.5-0.9-0.7-1.3c-0.1-0.1-0.1-0.2-0.2-0.3c0,0-0.1,0.1,0,0.1c0,0.1,0.1,0.2,0.1,0.3c0.1,0.3,0.3,0.7,0.5,1
															l0.1,0.1c0.1,0.1,0.1,0.2,0.2,0.3c0.2,0.3,0.3,0.5,0.5,0.8c0.1,0.1,0.1,0.2,0.2,0.3c0.1,0.2,0.3,0.4,0.4,0.6
															c0.2,0.3,0.4,0.5,0.6,0.7c0.1,0.1,0.3,0.3,0.4,0.4c0.2,0.1,0.3,0.3,0.5,0.4c0.1,0.1,0.3,0.2,0.4,0.2
															c0.2,0.1,0.3,0.1,0.5,0.2c0.2,0.1,0.3,0.1,0.5,0.1c0.1,0,0.2,0,0.3,0c0.2,0,0.3-0.1,0.5-0.1c0.2-0.1,0.4-0.1,0.6-0.2
															c0.1,0,0.1-0.1,0.2-0.1c0.2-0.1,0.3-0.2,0.5-0.3c0.1-0.1,0.2-0.2,0.3-0.3c0.2-0.2,0.4-0.5,0.5-0.7
															c0.2-0.2,0.3-0.5,0.5-0.7c0.1-0.2,0.2-0.5,0.4-0.7c0.2-0.3,0.3-0.6,0.5-0.9c0.1-0.2,0.1-0.3,0.2-0.5
															c0.1-0.2,0.2-0.3,0.2-0.5c0-0.1,0.1-0.2,0.1-0.2C325.9,147.3,325.9,147.2,326,147.1L326,147.1z"/>
														<path class="st23" d="M320.7,147.8L320.7,147.8c0.1,0.2,0.1,0.3,0,0.5h-0.1C320.7,148.2,320.7,147.9,320.7,147.8z"/>
														<path class="st18" d="M320.7,148.6c0.1,0,0.2,0,0.3,0c0.5,0,0.9,0.1,1.3,0.3c-0.2,0-0.5,0-0.7-0.1
															c-0.2,0-0.3-0.1-0.5,0c-0.2,0-0.3,0.1-0.5,0.1c-0.1,0-0.2,0-0.3,0c-0.2,0-0.3,0.1-0.5,0.1c-0.2,0.1-0.3,0.1-0.5,0.2
															c0-0.1,0.1-0.1,0.1-0.2c0.1-0.1,0.2-0.1,0.2-0.1c0.1,0,0.2,0,0.2-0.1c0.2-0.1,0.4-0.1,0.6-0.2
															C320.5,148.6,320.7,148.6,320.7,148.6z"/>
														<path class="st24" d="M319.9,148.6c0.2-0.1,0.3-0.1,0.5-0.1c0.1,0,0.2,0,0.3,0c-0.1,0.1-0.2,0.1-0.2,0.1
															c-0.2,0.1-0.4,0.1-0.6,0.2c-0.1,0.1-0.2,0.1-0.2,0.1C319.7,148.8,319.9,148.7,319.9,148.6z"/>
														<path class="st20" d="M320.5,148.9c0.2,0,0.3-0.1,0.5-0.1c0.1,0,0.3,0,0.5,0c0.2,0,0.5,0.1,0.7,0.1
															c0.1,0,0.2,0,0.3,0.1v0.1V149c-0.1,0.1-0.1,0.1-0.2,0.1c-0.2,0-0.3,0-0.5,0c-0.1,0-0.3-0.1-0.4-0.1
															c-0.2,0-0.5,0-0.7,0c-0.2,0.1-0.5,0-0.7,0c-0.3,0.1-0.7,0.2-1,0.3c0,0-0.1,0-0.1-0.1c0,0,0,0,0-0.1
															c0.1,0,0.1-0.1,0.2-0.1c0.2-0.1,0.3-0.1,0.5-0.2c0.2-0.1,0.3-0.1,0.5-0.1C320.4,148.9,320.4,148.9,320.5,148.9z"/>
														<path class="st18" d="M322.3,149c0.1,0,0.2,0,0.2-0.1l0,0l0,0c-0.1,0.1-0.2,0.2-0.3,0.3c-0.2,0.2-0.5,0.3-0.7,0.3
															c-0.2,0.1-0.5,0.1-0.7,0.1c-0.2,0.1-0.5,0-0.7-0.1c-0.2-0.1-0.5-0.1-0.7-0.2c-0.1-0.1-0.2-0.1-0.2-0.1
															c0.3-0.1,0.7-0.2,1-0.3c0.2,0,0.5,0,0.7,0c0.2-0.1,0.5,0,0.7,0c0.1,0,0.3,0.1,0.4,0.1C322,149,322.1,149,322.3,149z"
															/>
														<path class="st21" d="M321.7,149c0.1-0.1,0.2,0,0.3,0c0.1,0,0.2,0,0.2,0v0.1c-0.1,0.1-0.2,0-0.3,0.1
															c-0.1,0-0.2,0-0.3,0C321.7,149,321.7,149,321.7,149z"/>
														<path class="st25" d="M320.4,149.2C320.5,149.2,320.5,149.2,320.4,149.2C320.5,149.3,320.4,149.3,320.4,149.2z"/>
														<path class="st15" d="M320.7,150.7c0.2-0.1,0.3-0.1,0.5-0.1s0.4,0,0.6,0.1v0.1c-0.1,0-0.2-0.1-0.3-0.1
															c-0.2,0-0.5,0-0.7,0C320.7,150.8,320.7,150.8,320.7,150.7C320.7,150.8,320.7,150.7,320.7,150.7z"/>
														<g>
															<path class="st26" d="M317.3,150.7C317.3,150.7,317.4,150.7,317.3,150.7c0.1,0,0.1,0,0.2,0.1h0.1
																c-0.1-0.2-0.1-0.5-0.2-0.7c-0.1,0-0.1,0.1-0.2,0.1c0,0.1-0.1,0.1-0.1,0.1v0.1c0,0.1-0.1,0.1-0.1,0.1
																c-0.1,0-0.1,0.1-0.1,0.1c-0.2,0.3-0.3,0.7-0.3,1c0.1-0.1,0.1-0.1,0.1-0.2c0.1-0.3,0.2-0.7,0.5-1
																C317.3,150.5,317.3,150.5,317.3,150.7C317.4,150.6,317.3,150.6,317.3,150.7c-0.1,0-0.1,0.1-0.1,0.2
																c-0.1,0.2-0.1,0.4-0.2,0.6c-0.1,0.1-0.1,0.3-0.1,0.5h0.1c0-0.1,0-0.2,0-0.3C317,151.4,317.2,151.1,317.3,150.7z"/>
															<path class="st26" d="M317.6,151c-0.2,0.3-0.3,0.7-0.3,1.2v0.1c0.1-0.3,0.1-0.6,0.2-0.9
																C317.5,151.2,317.6,151.1,317.6,151C317.6,150.8,317.6,150.8,317.6,151z"/>
														</g>
														<g>
															<path class="st27" d="M316.6,148.6c0-0.1,0-0.1,0-0.1s-0.1-0.1-0.1-0.1C316.6,148.6,316.5,148.6,316.6,148.6
																c-0.1,0.2,0,0.4,0,0.5c0.1,0.3,0.1,0.6,0.2,0.9h0.1C316.8,149.6,316.8,149.1,316.6,148.6z"/>
															<path class="st27" d="M316.5,150.4c0-0.1,0-0.2-0.1-0.2c-0.2-0.7-0.2-1.5-0.3-2.3c0-0.1,0-0.2-0.1-0.2
																c0-0.1,0-0.2,0-0.3c-0.1,0.1-0.1,0.1-0.1,0.2c0,0.1,0,0.2,0,0.3c0.1,0.3,0.1,0.7,0.1,1c0.1,0.5,0.2,1.1,0.3,1.6
																c0,0.1,0,0.1,0.1,0.1C316.6,150.6,316.5,150.5,316.5,150.4L316.5,150.4z"/>
															<path class="st27" d="M316.1,152.5L316.1,152.5c-0.2-1.1-0.3-2.1-0.5-3.1c-0.1-0.7-0.1-1.4-0.2-2.1
																c0-0.1,0-0.2-0.1-0.3c-0.1,0.2,0,0.3,0,0.5c0.1,0.7,0.1,1.4,0.2,2.1C315.6,150.6,315.8,151.6,316.1,152.5
																L316.1,152.5c-0.1,0.2,0,0.3,0,0.4c0.1,0.2,0.1,0.3,0.2,0.5c0,0,0,0,0.1-0.1C316.2,153,316.2,152.7,316.1,152.5
																L316.1,152.5z"/>
															<path class="st27" d="M315.6,152.7L315.6,152.7c0-0.1-0.1-0.3-0.1-0.5c-0.3-1.1-0.3-2.3-0.4-3.3c0-0.6,0-1.2-0.1-1.8
																c0-0.1-0.1-0.2-0.1-0.3s0-0.1-0.1-0.1c0,0,0,0,0,0.1c0,0.1,0,0.2,0.1,0.3c0,0.2,0.1,0.4,0.1,0.6
																c0.1,0.6,0.1,1.3,0.1,1.9c0.1,0.6,0.1,1.1,0.2,1.7C315.3,151.8,315.4,152.3,315.6,152.7L315.6,152.7L315.6,152.7
																c0,0.1,0.1,0.2,0.1,0.3c0.1,0.2,0.1,0.3,0.2,0.5c0.1,0.3,0.2,0.7,0.3,1.1h0.1c-0.1-0.2-0.1-0.3-0.2-0.5
																C315.8,153.6,315.7,153.1,315.6,152.7z"/>
														</g>
														<g>
															<path class="st27" d="M327.8,149.6c0-0.4-0.1-0.9-0.2-1.2c-0.1-0.2-0.1-0.5-0.1-0.6c-0.1-0.3-0.1-0.5-0.1-0.8h-0.1
																c0,0.1,0,0.1,0,0.2c0,0.3,0.1,0.6,0.1,0.9c0.1,0.2,0.1,0.3,0.1,0.5c0,0.2,0.1,0.5,0.1,0.6c0.1,0.5,0.1,0.9,0.1,1.4
																c0,0.9-0.1,1.9-0.2,2.9c0,0.1-0.1,0.2-0.1,0.3l0,0c-0.1,0.3-0.1,0.5-0.1,0.7c0,0.1-0.1,0.1-0.1,0.2
																c0.1-0.1,0.1-0.2,0.1-0.3c0.1-0.2,0.1-0.3,0.1-0.5l0,0c0.2-0.9,0.3-1.8,0.3-2.7C327.8,150.6,327.8,150,327.8,149.6z"
																/>
															<path class="st27" d="M326.6,150.3c-0.1-0.7-0.2-1.4-0.2-2.1c0-0.5,0-1,0.1-1.5c0-0.1,0.1-0.3,0.1-0.4
																c0.1-0.3,0.1-0.5,0.1-0.8l0,0c-0.1,0.3-0.2,0.7-0.2,1c-0.1,0.5-0.1,1.1-0.1,1.6c0,0.3,0.1,0.5,0.1,0.8
																C326.4,149.4,326.4,149.9,326.6,150.3c0,0.8,0.1,1.5,0.1,2.1c0,0.5,0,0.9,0,1.4c0,0.1,0,0.2-0.1,0.3h0.1
																c0.1-0.2,0.1-0.5,0.1-0.7c0-0.1,0-0.2,0-0.3s0-0.1,0-0.1c0-0.2,0-0.3,0-0.5C326.8,151.8,326.7,151.1,326.6,150.3z"/>
															<path class="st27" d="M327.3,151.1c-0.1-0.2-0.1-0.5-0.1-0.7l0,0c0-0.1,0-0.1,0-0.1c-0.1-0.5-0.1-1-0.2-1.5
																c-0.1-0.7,0-1.3,0-2.1c0-0.5,0.1-1,0.2-1.5v-0.1c0.1-0.3,0.2-0.6,0.2-0.9c0.1-0.2,0.1-0.5,0.2-0.7c0-0.1,0-0.1,0-0.1
																c0.1-0.3,0.1-0.7,0.2-1.1l-0.1-0.1c-0.1,0.6-0.2,1.2-0.3,1.8c-0.1,0.4-0.2,0.8-0.3,1.2c-0.1,0.3-0.1,0.6-0.1,0.9
																c-0.1,0.5-0.1,0.9-0.1,1.3s0,0.9,0.1,1.5c0,0.1,0,0.2,0.1,0.3c0.1,0.4,0.1,0.9,0.2,1.3
																C327.2,150.7,327.2,150.8,327.3,151.1L327.3,151.1z"/>
															<path class="st27" d="M328.3,150.6c0-0.1,0-0.1,0-0.1c-0.1-0.2-0.1-0.3-0.1-0.5C328.2,150.2,328.3,150.4,328.3,150.6
																c0,0,0,0.1,0.1,0.1c0,0.1,0,0.2,0,0.2c0,0.3,0,0.6-0.1,0.9c-0.1,0.5-0.1,1-0.2,1.5c-0.1,0.5-0.2,0.9-0.3,1.3v0.1l0,0
																c-0.1,0.2-0.1,0.5-0.2,0.6h0.1c0.1-0.2,0.1-0.3,0.2-0.5c0.1-0.5,0.2-0.9,0.3-1.3c0.1-0.5,0.1-1,0.2-1.5
																C328.4,151.6,328.4,151.1,328.3,150.6z"/>
															<path class="st27" d="M326.2,151.9c0.1-0.5,0-1.1,0-1.6c-0.1-0.5-0.1-1-0.2-1.5c0-0.2,0-0.3-0.1-0.5
																c0-0.1,0-0.2,0-0.3c0-0.2,0-0.3,0-0.5c0-0.1,0.1-0.2,0.1-0.3c-0.1,0.2-0.1,0.4-0.1,0.6l0,0c0,0.1,0,0.1,0,0.2
																c-0.1,0.5,0,0.9,0.1,1.4c0.1,0.5,0.2,1,0.2,1.5c0,0.4,0,0.9,0,1.2c0,0.2,0,0.4,0,0.6c0,0.1,0,0.2,0,0.3
																c0,0.3,0.1,0.5,0.1,0.7c0,0.1,0,0.1,0.1,0.1c-0.1-0.5-0.1-1.1-0.1-1.7C326.2,152.1,326.2,152.1,326.2,151.9z"/>
														</g>
														<g>
															<path class="st26" d="M317,155.5c-0.1,0.2-0.1,0.3-0.2,0.5h0.1c0.1-0.2,0.2-0.3,0.3-0.5c0.2-0.3,0.3-0.7,0.4-1.1
																c0-0.2,0.1-0.3,0-0.5h-0.1c0,0.2,0,0.3-0.1,0.4C317.4,154.7,317.2,155.1,317,155.5z"/>
															<path class="st26" d="M317,156.3c0.1-0.1,0.1-0.2,0.2-0.3c0.2-0.5,0.5-1,0.5-1.5h-0.1c-0.1,0.2-0.1,0.3-0.2,0.5
																c-0.1,0.3-0.3,0.7-0.5,1.1C317.2,156.2,317.1,156.3,317,156.3z"/>
															<path class="st26" d="M317.4,156.5c0.1-0.1,0.1-0.2,0.2-0.2c0.2-0.3,0.3-0.7,0.4-1.1c0.1-0.2,0.1-0.3,0.1-0.5
																l-0.1,0.1c-0.1,0.5-0.3,0.9-0.5,1.4C317.5,156.4,317.4,156.4,317.4,156.5z"/>
															<path class="st26" d="M316.5,155.3c0.2-0.2,0.3-0.5,0.3-0.8c0.1-0.3,0.1-0.5,0.1-0.8s0-0.5,0-0.7s-0.1-0.3-0.1-0.5
																h-0.1c-0.1,0.2,0,0.3,0,0.5c0,0.3,0,0.6,0,0.9c0,0.2-0.1,0.4-0.1,0.6c-0.1,0.2-0.1,0.5-0.2,0.6
																C316.6,155.3,316.5,155.3,316.5,155.3c-0.1,0.1-0.2,0.2-0.3,0.3h0.1C316.4,155.6,316.5,155.5,316.5,155.3z"/>
														</g>
														<g>
															<path class="st26" d="M325.2,150c0.1,0.1,0.1,0.1,0.1,0.1c0.1,0.2,0.2,0.5,0.2,0.7c0,0.1,0,0.2-0.1,0.2
																c-0.1,0.2-0.1,0.5-0.1,0.7c0,0.1-0.1,0.2,0,0.3c0,0.1,0,0.2,0,0.3c0,0.1,0,0.3,0,0.4c0,0.2,0.1,0.5,0.1,0.7
																c0.1,0.2,0.1,0.3,0.1,0.5s0.2,0.3,0.3,0.5c0.1,0.1,0.2,0.2,0.3,0.3c0.1,0.1,0.1,0.1,0.2,0.2c0-0.1-0.1-0.1-0.1-0.2
																c-0.1-0.2-0.3-0.3-0.4-0.5c-0.2-0.3-0.3-0.6-0.3-0.9c-0.1-0.2-0.1-0.5-0.1-0.6c0-0.3,0-0.5,0-0.8
																c0-0.3,0.1-0.7,0.1-1.1c0-0.2,0-0.4-0.1-0.6c-0.1-0.1-0.1-0.3-0.2-0.3c0,0-0.1,0-0.1-0.1l0.1-0.1
																c0.1-0.1,0.1-0.2,0-0.3c0.1,0.1,0.2,0.1,0.3,0.2v-0.1c0-0.1-0.1-0.1-0.1-0.1c-0.1-0.1-0.1-0.1-0.2-0.1
																c-0.1-0.1-0.2-0.2-0.2-0.2c-0.1,0.1-0.1,0.2-0.1,0.3c0,0.2,0,0.3-0.1,0.5C325,150.2,325.1,150.1,325.2,150z"/>
															<path class="st26" d="M325.2,150.5c0.1,0.2,0.1,0.4,0.1,0.6c0,0.3-0.1,0.6-0.1,0.9c0,0.3-0.1,0.5-0.1,0.8
																c0,0.2,0,0.4,0.1,0.6c0,0.2,0.1,0.5,0.1,0.7s0.1,0.3,0.2,0.5c0.1,0.2,0.2,0.3,0.3,0.5c0.1,0.1,0.2,0.2,0.3,0.3
																c0.1,0.1,0.1,0.1,0.2,0.2c0-0.1-0.1-0.1-0.1-0.2c-0.1-0.1-0.1-0.1-0.2-0.2c-0.2-0.2-0.4-0.5-0.5-0.9
																c-0.1-0.2-0.1-0.3-0.1-0.5c-0.1-0.2-0.1-0.5-0.1-0.7c0-0.2-0.1-0.3,0-0.5c0.1-0.4,0.1-0.8,0.1-1.2c0-0.2,0-0.3,0-0.5
																c0-0.2,0-0.3-0.1-0.5c-0.1-0.1-0.2-0.2-0.2-0.2v0.1C325,150.4,325.1,150.4,325.2,150.5z"/>
															<path class="st26" d="M324.9,150.8c0.1,0.2,0.1,0.4,0.1,0.6c0,0.3-0.1,0.5-0.1,0.7c-0.1,0.3-0.1,0.5-0.1,0.7
																s0,0.3,0,0.5l0,0c0,0.5,0.2,1.1,0.4,1.5c0.2,0.3,0.3,0.5,0.6,0.8h0.1c-0.2-0.2-0.3-0.4-0.4-0.6
																c-0.2-0.3-0.3-0.6-0.4-0.9c-0.1-0.3-0.1-0.5-0.1-0.8c0-0.2,0-0.4,0-0.6c0-0.6,0.2-1.1,0.2-1.7c0-0.1-0.1-0.2-0.1-0.3
																c-0.1-0.1-0.2-0.2-0.3-0.2v0.1C324.8,150.6,324.9,150.7,324.9,150.8z"/>
															<path class="st26" d="M324.6,154.9c0.2,0.4,0.3,0.8,0.5,1.1c0,0.1,0.1,0.1,0.1,0.1v-0.1c-0.2-0.3-0.3-0.7-0.5-1.1
																c-0.1-0.3-0.2-0.7-0.2-1.1c0-0.1,0-0.2,0-0.3c-0.1,0.1-0.1,0.2-0.1,0.3C324.5,154.2,324.5,154.5,324.6,154.9z"/>
															<path class="st26" d="M326.6,155.1L326.6,155.1c-0.1,0.1-0.1,0.1-0.1,0.2c-0.2,0.3-0.5,0.6-0.7,0.9
																c-0.2,0.2-0.5,0.5-0.8,0.6c-0.3,0.2-0.6,0.3-0.9,0.5c-0.3,0.2-0.7,0.3-1.1,0.4c-0.3,0.1-0.5,0.1-0.8,0.1
																c-0.5,0.1-1.1,0.1-1.5,0h-0.1h-0.1h0.1h0.1c-0.3-0.1-0.5-0.1-0.8-0.2c-0.2-0.1-0.4-0.1-0.6-0.2
																c-0.2-0.1-0.4-0.1-0.6-0.2c-0.2-0.1-0.3-0.2-0.5-0.2c-0.2-0.1-0.3-0.2-0.5-0.3c-0.1-0.1-0.3-0.2-0.4-0.2
																c-0.1-0.1-0.2-0.2-0.3-0.3c-0.1-0.1-0.2-0.2-0.3-0.3c0.3-0.3,0.5-0.7,0.6-1.1c0.1-0.3,0.2-0.6,0.2-0.9
																c0-0.2,0.1-0.5,0-0.7c-0.1,0.1-0.1,0.2-0.1,0.2c0,0.1,0,0.2,0,0.3c0,0.3-0.1,0.5-0.2,0.9c-0.1,0.5-0.3,1-0.6,1.4
																c-0.1-0.1-0.2-0.1-0.2-0.2c-0.1-0.1-0.1-0.1-0.2-0.2c-0.1,0-0.1,0-0.1,0.1c0.1,0.1,0.3,0.2,0.4,0.3
																c0.1,0.1,0.2,0.1,0.2,0.2c0.1,0.1,0.3,0.2,0.4,0.3c0.2,0.2,0.5,0.3,0.7,0.4c0.2,0.2,0.5,0.3,0.8,0.4
																c0.2,0.1,0.4,0.1,0.6,0.2c0.2,0.1,0.5,0.1,0.7,0.2c0.2,0.1,0.5,0.1,0.7,0.1c0.3,0.1,0.7,0.1,1.1,0.1
																c0.5,0,0.9-0.1,1.3-0.2c0.4-0.1,0.8-0.2,1.1-0.4c0.4-0.2,0.7-0.3,1.1-0.6c0.2-0.2,0.5-0.3,0.7-0.6l0,0
																C326.2,155.7,326.4,155.5,326.6,155.1C326.6,155.3,326.6,155.2,326.6,155.1z"/>
														</g>
														<g>
															<path class="st26" d="M314.8,164c-0.1-0.1-0.2-0.2-0.3-0.2c-0.4-0.3-0.7-0.8-1.1-1.1c-0.1-0.1-0.3-0.2-0.5-0.3v0.1
																c0.1,0.1,0.3,0.2,0.4,0.3c0.1,0.1,0.3,0.2,0.3,0.3C314,163.4,314.4,163.8,314.8,164L314.8,164z"/>
															<path class="st26" d="M308.5,164c0,0.1,0.1,0.2,0.1,0.2c0.1,0.2,0.1,0.3,0.1,0.6c0.1,0.2,0.1,0.5,0.2,0.7
																c0.1,0.2,0.2,0.5,0.3,0.7c0.2,0.3,0.4,0.6,0.6,0.9c0.1,0.2,0.2,0.5,0.2,0.7c0.1,0.2,0.1,0.3,0.1,0.5
																c-0.1,0.2-0.2,0.5-0.2,0.7h0.1c0-0.1,0-0.1,0-0.1c0.1-0.2,0.1-0.4,0.2-0.6c0.1-0.1,0.1-0.2,0.1-0.3
																c0-0.1,0-0.1,0-0.2c0-0.2,0-0.3-0.1-0.5c-0.1-0.2-0.1-0.5-0.2-0.7c-0.1-0.2-0.2-0.4-0.3-0.6
																c-0.2-0.3-0.3-0.6-0.4-0.9c-0.1-0.1-0.1-0.2-0.1-0.3h-0.1c0,0.1,0.1,0.3,0.1,0.4l0,0c0,0.2,0.1,0.3,0.1,0.5
																c0.1,0.2,0.2,0.5,0.3,0.7c0.1,0.2,0.2,0.3,0.2,0.5c0.1,0.3,0.2,0.7,0.3,1.1c0,0.1,0,0.3-0.1,0.4l0,0
																c0-0.2-0.1-0.4-0.1-0.6c-0.1-0.1-0.1-0.3-0.2-0.3c-0.1-0.2-0.2-0.3-0.3-0.6c-0.2-0.3-0.3-0.6-0.5-0.9
																c-0.2-0.3-0.2-0.7-0.3-1c-0.1-0.2-0.1-0.4-0.1-0.6C308.5,164.2,308.5,164.1,308.5,164c-0.1,0-0.1-0.1-0.1,0
																C308.4,163.9,308.5,164,308.5,164L308.5,164z"/>
															<path class="st26" d="M325.3,165.5c-0.3,0.2-0.7,0.3-1.1,0.5c-0.2,0.1-0.3,0.2-0.5,0.3c0,0,0,0.1-0.1,0.1
																c0.1,0,0.1-0.1,0.2-0.1c0.1-0.1,0.2-0.2,0.4-0.2c0.4-0.1,0.7-0.3,1.1-0.5c0.2-0.1,0.3-0.2,0.5-0.3
																c-0.1,0-0.1,0-0.1,0.1C325.6,165.4,325.4,165.4,325.3,165.5z"/>
															<path class="st26" d="M310.7,168.4c-0.1,0.2-0.1,0.4-0.1,0.6h0.1c0-0.1,0.1-0.2,0.1-0.3c0.1-0.3,0.2-0.7,0.3-1.1
																c0.1-0.3,0.1-0.7-0.1-1.1c-0.1-0.2-0.1-0.5-0.2-0.7c0-0.1,0-0.1,0-0.2l0,0c0,0.1,0,0.2,0,0.3c0,0.2,0.1,0.3,0.1,0.5
																c0.1,0.3,0.1,0.7,0.1,1.1C310.9,167.9,310.9,168.2,310.7,168.4z"/>
															<path class="st26" d="M332.7,167.3c0-0.2,0.1-0.3,0-0.5c0-0.2-0.1-0.3-0.1-0.5s-0.1-0.5-0.2-0.7
																c-0.1-0.3-0.3-0.6-0.4-0.9c-0.2-0.3-0.3-0.6-0.4-0.9c-0.1-0.2-0.2-0.4-0.2-0.6h-0.1c0,0.1,0,0.2,0.1,0.2
																c0.1,0.2,0.1,0.3,0.2,0.5s0.2,0.4,0.3,0.6c0.2,0.3,0.3,0.7,0.5,1.1c0.2,0.3,0.2,0.7,0.3,1
																C332.6,166.8,332.7,167.1,332.7,167.3c-0.1,0.3-0.1,0.5-0.1,0.7c-0.1-0.2-0.1-0.3-0.1-0.5c-0.1-0.2-0.1-0.5-0.1-0.7
																s-0.1-0.5-0.2-0.6c-0.1-0.3-0.3-0.5-0.5-0.8c-0.1-0.1-0.2-0.2-0.2-0.3h-0.1c0,0.2,0.1,0.3,0.1,0.4s0.2,0.2,0.2,0.3
																c0.2,0.2,0.3,0.5,0.3,0.8c0.1,0.3,0.1,0.5,0.1,0.9c0.1,0.3,0.1,0.6,0.2,0.9c0.1,0.1,0,0.2,0.1,0.3
																c0,0.1,0.1,0.2,0.1,0.2c0.1-0.1,0-0.2,0-0.2c0-0.1-0.1-0.2,0-0.2c0-0.2,0-0.5,0-0.6
																C332.7,167.5,332.7,167.4,332.7,167.3z"/>
														</g>
													</g>
												</g>
											</g>
										</g>
									</g>
								</g>
							</g>
						</g>
					</g>
				</g>
			</g>
		</g>
	</g>
</g>
<g>
	<g>
		<g>
			<g>
				<g>
					<defs>
						<circle id="SVGID_00000031911606992208250560000011363071883261671569_" cx="321.4" cy="209" r="16.7"/>
					</defs>
					<clipPath id="SVGID_00000096040667351977428980000002035958530103435703_">
						<use xlink:href="#SVGID_00000031911606992208250560000011363071883261671569_"  style="overflow:visible;"/>
					</clipPath>
					<g style="clip-path:url(#SVGID_00000096040667351977428980000002035958530103435703_);">
						<g>
							<g>
								<rect id="SVGID_1_" x="304.7" y="192.2" class="st29" width="33.5" height="33.5"/>
							</g>
							<g>
								<g>
									<g>
										<g>
											<g>
												<defs>
													
														<rect id="SVGID_00000126313065385295109810000017842790850269986200_" x="304.7" y="192.2" width="33.5" height="33.5"/>
												</defs>
												<clipPath id="SVGID_00000103256204512179014220000000248064678183463346_">
													<use xlink:href="#SVGID_00000126313065385295109810000017842790850269986200_"  style="overflow:visible;"/>
												</clipPath>
												<g style="clip-path:url(#SVGID_00000103256204512179014220000000248064678183463346_);">
													<g>
														<path class="st31" d="M338.4,232.9c0-0.1,0.1-0.2,0.1-0.2c0.1-0.9-0.1-1.8-0.4-2.6c-0.1-0.6-0.1-1.1-0.3-1.7
															c0-0.1-0.1-0.1-0.1-0.2c-0.1-0.4-0.2-0.8-0.3-1.2c-0.1-0.5-0.2-1-0.4-1.5c-0.1-0.2-0.2-0.4-0.3-0.6
															c-0.1-0.2-0.2-0.3-0.3-0.5c-0.3-0.3-0.5-0.6-0.9-0.9c-0.2-0.1-0.3-0.2-0.5-0.3c-0.5-0.2-0.9-0.5-1.4-0.6
															c-0.5-0.2-0.9-0.5-1.4-0.6c-0.5-0.2-1-0.5-1.5-0.6c-0.5-0.2-1-0.5-1.5-0.7c-0.2-0.2-0.5-0.2-0.7-0.3
															c-0.2-0.1-0.3-0.2-0.5-0.3c-0.1-0.1-0.3-0.1-0.4-0.2c-0.3,0-0.5,0-0.9,0c-0.6,0-1.3,0-1.9,0c-0.5,0-1,0-1.5,0
															c-0.5,0-0.9,0.1-1.4,0.1c-1,0.1-2.1,0.1-3.1,0.3c-0.5,0.1-1.1,0.2-1.7,0.3c-0.5,0.1-0.9,0.2-1.4,0.3
															c-0.1,0-0.2,0.1-0.3,0.1c0,0,0.1,0,0.1-0.1c0-0.1,0-0.1-0.1-0.1c-0.2-0.1-0.4-0.1-0.5,0.1c-0.4,0.2-0.7,0.5-1.1,0.7
															c-0.3,0.3-0.7,0.6-1,0.9c-0.2,0.2-0.4,0.3-0.6,0.5c-0.1,0.1-0.3,0.2-0.5,0.3c-0.4,0.3-0.9,0.6-1.3,0.9
															c-0.7,0.5-1.3,1.1-1.9,1.7c-0.1,0.1-0.2,0.3-0.3,0.4c-0.1,0.1-0.2,0.2-0.3,0.2c-0.4,0.3-0.7,0.8-0.9,1.3
															c-0.1,0.2-0.2,0.4-0.2,0.6c-0.5,0.9-0.9,2-1.1,3c-0.1,0.5-0.2,0.9-0.3,1.3c0,0.1,0,0.1,0,0.1h33.1V232.9L338.4,232.9
															L338.4,232.9z"/>
														<path class="st32" d="M320,196.4c0.1-0.1,0.1-0.1,0.1-0.1l0.1,0.1c0,0.1-0.1,0.2-0.1,0.3c0.2-0.1,0.3-0.2,0.5-0.3
															c0.1-0.1,0.1,0,0.2,0c0.1,0.1-0.1,0.2-0.1,0.3c0.2-0.1,0.3-0.3,0.5-0.3c0.1,0,0.1,0,0.1,0c0.1,0.1,0,0.2,0,0.3
															c0.1,0,0.2-0.1,0.3-0.2c0.1-0.1,0.2-0.1,0.2,0.1c0,0.1,0,0.1,0,0.1c0.5,0.1,0.9,0.2,1.4,0.5c0.4,0.2,0.7,0.5,1.1,0.7
															c0.1,0.1,0.3,0.2,0.3,0.3c0.4,0.3,0.9,0.6,1.2,0.9c0.2,0.2,0.3,0.3,0.5,0.5c0.2,0.2,0.3,0.3,0.5,0.5
															c0.2,0.3,0.3,0.7,0.5,1.1c0.1,0.3,0.2,0.6,0.2,0.9c0.1,0.3,0.1,0.6,0.1,0.9s0,0.6,0,0.9c0,0.5-0.1,1-0.2,1.5
															c-0.1,0.2-0.1,0.3-0.1,0.5c0,0.1-0.1,0.3-0.1,0.4c0,0.2,0,0.5-0.1,0.7c-0.1,0.5-0.1,1-0.2,1.5
															c-0.1,0.3-0.2,0.6-0.3,0.9c-0.2,0.2-0.3,0.3-0.5,0.5c-0.2,0.2-0.5,0.2-0.8,0.3c-0.5,0.2-0.9,0.3-1.4,0.5
															c-0.3,0.1-0.7,0.2-1.1,0.3c-0.3,0.1-0.7,0.2-1,0.2c-0.3,0.1-0.5,0.1-0.8,0.1c-0.5,0.1-1.1,0.1-1.7,0
															c-0.3,0-0.6-0.1-0.9-0.1c-0.5-0.1-0.9-0.2-1.3-0.3c-0.2-0.1-0.5-0.2-0.6-0.5c-0.2-0.3-0.3-0.7-0.5-1.1
															c-0.1-0.3-0.1-0.5-0.1-0.9c-0.1-0.3,0-0.7,0-1c0-0.3,0-0.6,0-0.9c-0.1-0.5-0.3-0.9-0.5-1.3c-0.1-0.3-0.2-0.7-0.3-1.1
															c-0.1-0.3-0.1-0.5-0.1-0.8c0-0.3,0-0.5,0.1-0.9c0.1-0.3,0.1-0.6,0.2-0.9c0.1-0.4,0.3-0.8,0.5-1.2
															c0.1-0.3,0.2-0.5,0.3-0.7c0.2-0.3,0.5-0.6,0.7-0.9c0.3-0.4,0.7-0.7,1.1-1c0.3-0.3,0.7-0.5,1.1-0.9
															c0.2-0.1,0.4-0.2,0.6-0.3c0.1,0,0.1-0.1,0.2-0.1C319.7,196.6,319.9,196.4,320,196.4z"/>
													</g>
													<g>
														<path class="st7" d="M324.4,199.4c0.2-0.1,0.3-0.2,0.5-0.1c0.1,0,0.2,0.1,0.3,0.2c0.3,0.3,0.6,0.5,0.8,0.9
															c0.1,0.2,0.3,0.4,0.3,0.6c0.2,0.4,0.3,0.8,0.3,1.3c0,0.2,0.1,0.5,0.1,0.6c0.1,0.3,0.1,0.6,0.1,0.9
															c0,0.3,0,0.7-0.1,1.1c-0.1,0.5-0.2,0.9-0.3,1.3c-0.1,0.2-0.1,0.3-0.1,0.5c-0.1,0.3-0.1,0.5-0.1,0.8
															c0,0.2,0,0.3-0.1,0.5c0-0.1,0-0.1,0-0.1c-0.1,0.5-0.2,1-0.2,1.5c0,0.2,0,0.4,0,0.6c0,0.2,0.1,0.4,0.1,0.6
															c0,0.1,0,0.2,0.1,0.2l0,0H326c0.1,0.3,0,0.6-0.1,0.9c-0.2-0.1-0.3-0.2-0.5-0.2c-0.2-0.1-0.3-0.2-0.5-0.2
															c-0.3-0.1-0.6-0.2-0.9-0.3c-0.2-0.1-0.5-0.1-0.6-0.2c-0.2,0-0.4,0-0.6-0.1c-0.3-0.1-0.7-0.1-1-0.1c-0.2,0-0.3,0-0.5,0
															c-0.3,0.1-0.6,0.1-0.9,0.1c-0.2,0-0.5,0.1-0.7,0.1c-0.6,0.2-1.3,0.5-1.8,0.9c-0.1,0.1-0.2,0.3-0.3,0.3
															c-0.2,0.2-0.3,0.4-0.5,0.6c-0.1,0.1-0.1,0.1-0.1,0.2c-0.1-0.1-0.1-0.2-0.2-0.2c-0.1-0.1-0.1-0.2-0.2-0.2v0.1
															c-0.1-0.2-0.1-0.3-0.1-0.5s-0.1-0.4-0.1-0.6l0,0c0.1-0.1,0.1-0.1,0.1-0.2c0-0.3,0-0.5-0.1-0.8c-0.1-0.3,0-0.6-0.1-0.9
															c0-0.3,0.1-0.5,0.1-0.8c0-0.2,0-0.5-0.1-0.6c0-0.3-0.1-0.5-0.1-0.9c-0.1-0.5-0.2-0.9-0.3-1.4
															c-0.1-0.3-0.1-0.6-0.2-0.9c-0.1-0.6-0.2-1.1-0.3-1.7c-0.1-0.2-0.1-0.5-0.1-0.7c0-0.3,0.1-0.6,0.2-0.9
															c0.1-0.3,0.3-0.6,0.6-0.9c0.2-0.2,0.3-0.3,0.5-0.5c0.2-0.2,0.3-0.3,0.5-0.3c0.2-0.1,0.3-0.2,0.6-0.2
															c0.2,0.1,0.3,0.1,0.5,0.1c0.2,0.1,0.4,0.1,0.6,0.1s0.3-0.1,0.6-0.1c0.2,0,0.3,0.1,0.4,0.1c0.1,0,0.2-0.1,0.3-0.1
															c0.1,0,0.2,0.1,0.3,0.1c0.1,0,0.2,0,0.3,0s0.2,0.1,0.3,0.1c0.1,0,0.3,0,0.4-0.1c0.1,0,0.2,0.1,0.3,0.1
															s0.2-0.1,0.3-0.1c0.2,0,0.3-0.1,0.5-0.1c0.1,0,0.1-0.1,0.1-0.1c0.3,0.1,0.6-0.2,0.9-0.3c0.2-0.1,0.3-0.1,0.4-0.1
															C324.1,199.5,324.3,199.4,324.4,199.4z"/>
														<path class="st18" d="M327.9,205.6c0.3-0.1,0.6-0.2,0.9-0.1c0.2,0.1,0.5,0.2,0.5,0.3c0.1,0.2,0.2,0.5,0.2,0.7
															c0.1,0.3-0.1,0.7-0.2,1c-0.1,0.3-0.2,0.5-0.3,0.8c-0.3,0.6-0.7,1.1-1.3,1.5c-0.3,0.3-0.6,0.5-0.9,0.6
															c-0.2,0.1-0.5,0.1-0.6,0.2c-0.1,0-0.1-0.1-0.1-0.2c0-0.2-0.1-0.4-0.1-0.6c0-0.2,0-0.4,0-0.6c0.1-0.5,0.1-1,0.2-1.5
															c0,0.1,0,0.1,0,0.1c0,0.1,0,0.2,0,0.2c0.2-0.7,0.5-1.4,0.6-2.1c0-0.1,0.1-0.1,0.2-0.1c0.1-0.1,0.2-0.1,0.4-0.1
															C327.6,205.8,327.7,205.6,327.9,205.6z"/>
														<path class="st18" d="M313.4,206.1c0.2-0.1,0.3-0.2,0.5-0.2s0.5,0.1,0.7,0.1c0.1,0.1,0.3,0.1,0.5,0.2
															c0.2,0.1,0.5,0.2,0.7,0.3c0.1,0.1,0.1,0.3,0.1,0.5c0.2,0.7,0.3,1.5,0.4,2.2c0.1,0.3,0.1,0.5,0.2,0.9
															c0-0.1,0-0.2,0.1-0.3c0.1,0.3,0,0.6,0.1,0.9c0.1,0.3,0.1,0.5,0.1,0.8c0,0.1,0,0.1-0.1,0.2c0-0.1-0.1-0.2-0.1-0.3
															c-0.5-0.1-0.9-0.3-1.2-0.5c-0.2-0.1-0.4-0.2-0.6-0.4c-0.2-0.1-0.3-0.3-0.5-0.5s-0.3-0.3-0.5-0.5
															c-0.1-0.2-0.2-0.3-0.3-0.5c-0.2-0.3-0.3-0.6-0.5-0.9c-0.1-0.2-0.1-0.3-0.1-0.5c-0.1-0.3,0-0.6,0.1-0.9
															C313.1,206.6,313.2,206.2,313.4,206.1z"/>
														<path class="st33" d="M321.5,210.7c0.2,0,0.3-0.1,0.5-0.1c0.3-0.1,0.7,0,1,0.1c0.2,0.1,0.4,0.1,0.6,0.1
															c0.2,0.1,0.5,0.1,0.6,0.2c0.3,0.1,0.6,0.2,0.9,0.3c0.2,0.1,0.3,0.1,0.5,0.2c0.2,0.1,0.3,0.1,0.5,0.2
															c-0.1,0.5-0.2,0.9-0.3,1.3c-0.1,0.1-0.1,0.2-0.2,0.3c0,0,0,0-0.1-0.1c-0.1,0.2-0.3,0.3-0.4,0.5s-0.2,0.3-0.3,0.4
															c-0.1,0.1-0.2,0.3-0.3,0.5c-0.1,0.1-0.2,0.2-0.3,0.3c-0.2,0.3-0.3,0.5-0.5,0.7c-0.1,0.1-0.2,0.3-0.3,0.3
															c-0.1,0.1-0.3,0.2-0.4,0.3c-0.2,0.1-0.3,0.2-0.5,0.3c-0.1,0.1-0.3,0.1-0.3,0.1c-0.2,0-0.3,0-0.5-0.1
															c-0.3-0.1-0.5-0.1-0.8-0.2c-0.1-0.1-0.3-0.1-0.4-0.2c-0.2-0.2-0.5-0.3-0.7-0.5c-0.2-0.1-0.3-0.3-0.5-0.4
															c-0.1-0.1-0.3-0.2-0.3-0.3c-0.2-0.1-0.3-0.3-0.5-0.5c-0.2-0.2-0.4-0.5-0.6-0.7c-0.1-0.1-0.3-0.2-0.3-0.4
															c-0.1-0.1-0.2-0.2-0.3-0.3c-0.1,0-0.1-0.1-0.1-0.1c0.1-0.1,0.1-0.1,0.1-0.2c0.2-0.2,0.3-0.5,0.5-0.6
															c0.1-0.1,0.2-0.2,0.3-0.3c0.5-0.5,1.1-0.7,1.8-0.9c0.2-0.1,0.5-0.1,0.7-0.1C320.9,210.8,321.1,210.8,321.5,210.7z"/>
														<path class="st34" d="M316.8,212.5c0.1,0.1,0.1,0.2,0.2,0.2c0.1,0.1,0.1,0.2,0.2,0.2c0,0.1,0.1,0.1,0.1,0.1
															c0.1,0.1,0.2,0.2,0.3,0.3c0.1,0.2,0.2,0.3,0.3,0.4c0.2,0.2,0.4,0.5,0.6,0.7c0.2,0.1,0.3,0.3,0.5,0.5
															c0.1,0.1,0.3,0.2,0.3,0.3c0.2,0.1,0.3,0.3,0.5,0.4c0.2,0.2,0.5,0.3,0.7,0.5c0.1,0.1,0.3,0.2,0.4,0.2
															c0.2,0.1,0.5,0.2,0.8,0.2c0.2,0.1,0.3,0.1,0.5,0.1c0.1,0,0.3,0,0.3-0.1c0.2-0.1,0.3-0.2,0.5-0.3
															c0.1-0.1,0.3-0.2,0.4-0.3c0.1-0.1,0.2-0.2,0.3-0.3c0.2-0.2,0.4-0.5,0.5-0.7c0.1-0.1,0.2-0.2,0.3-0.3s0.2-0.3,0.3-0.5
															c0.1-0.2,0.2-0.3,0.3-0.4c0.1-0.2,0.3-0.3,0.4-0.5c0,0,0,0,0.1,0.1c0,0.2,0,0.5,0,0.7c-0.1,0.2-0.2,0.3-0.3,0.5
															c-0.2,0.2-0.2,0.5-0.3,0.6c-0.2,0.3-0.3,0.5-0.5,0.9c-0.2,0.3-0.4,0.5-0.6,0.9c-0.1,0.1-0.2,0.3-0.3,0.4
															c-0.2,0.2-0.3,0.3-0.5,0.5c-0.3,0.2-0.6,0.5-0.9,0.6c-0.5,0.3-1.1,0.6-1.7,0.8c-0.3,0.1-0.6,0.2-0.9,0.3
															c-0.2,0.1-0.3,0.1-0.5,0.1c-0.3,0-0.6,0-0.9-0.1c-0.2-0.1-0.3-0.2-0.5-0.3c-0.1-0.1-0.2-0.2-0.3-0.4
															c-0.1-0.1-0.2-0.2-0.2-0.3c0.1-0.2,0.1-0.5,0.2-0.7s0.1-0.5,0.2-0.9c0.1-0.5,0.1-0.9,0.1-1.4
															c-0.1-0.5-0.1-1.1-0.2-1.7c-0.1-0.3-0.1-0.6-0.2-0.9C316.8,212.6,316.8,212.5,316.8,212.5z"/>
														<path class="st7" d="M325.6,213.9c0.1,0.4,0.1,0.9,0.2,1.2c0.1,0.5,0.2,1.1,0.3,1.5c0.1,0.2,0.1,0.3,0.1,0.5
															s0.1,0.4,0.2,0.6c0.2,0.3,0.3,0.7,0.6,1.1c0.1,0.2,0.3,0.3,0.5,0.5c0.2,0.2,0.3,0.3,0.5,0.5c0.1,0.1,0.1,0.1,0.2,0.2
															c0.1,0.2-0.1,0.3-0.1,0.4c-0.2,0.2-0.3,0.5-0.5,0.7s-0.4,0.5-0.7,0.7c-0.2,0.2-0.4,0.3-0.6,0.5
															c-0.3,0.2-0.6,0.5-0.9,0.6c-0.2,0.2-0.5,0.2-0.7,0.3c-0.3,0.1-0.7,0.2-1.1,0.3c-0.7,0.2-1.4,0.3-2.1,0.3
															c-0.2,0.1-0.4,0-0.6,0.1c-0.2,0-0.5,0.1-0.6,0c-0.3,0-0.5-0.1-0.8-0.1c-0.2-0.1-0.5-0.1-0.7-0.2
															c-0.4-0.1-0.8-0.2-1.1-0.3c-0.5-0.2-0.9-0.4-1.3-0.6c-0.1-0.1-0.3-0.2-0.4-0.2c-0.2-0.2-0.5-0.3-0.6-0.5
															c-0.1-0.1-0.2-0.2-0.3-0.3c-0.1-0.1-0.1-0.2-0.2-0.3c-0.1,0-0.1-0.1-0.1-0.2c0.2-0.1,0.3-0.3,0.5-0.5
															c0.1-0.2,0.3-0.3,0.4-0.5c0.2-0.3,0.5-0.5,0.7-0.9c0.3-0.4,0.5-0.9,0.6-1.3c0.1,0.1,0.1,0.2,0.2,0.3
															c0.1,0.2,0.2,0.3,0.3,0.4c0.2,0.2,0.3,0.3,0.5,0.3c0.3,0.1,0.6,0.1,0.9,0.1c0.2,0,0.3-0.1,0.5-0.1
															c0.3-0.1,0.6-0.2,0.9-0.3c0.6-0.2,1.2-0.5,1.7-0.8c0.3-0.2,0.6-0.3,0.9-0.6c0.2-0.2,0.3-0.3,0.5-0.5
															c0.1-0.1,0.3-0.2,0.3-0.4c0.2-0.3,0.5-0.5,0.6-0.9c0.2-0.3,0.3-0.5,0.5-0.9c0.1-0.2,0.2-0.5,0.3-0.6
															C325.4,214.2,325.4,214,325.6,213.9z"/>
													</g>
													<g>
														<path class="st7" d="M323.1,211.8c0.1,0,0.2-0.1,0.3,0c0,0.1,0,0.1-0.1,0.1c-0.1,0.1-0.2,0.2-0.3,0.3
															c-0.2,0.2-0.3,0.3-0.5,0.3s-0.3,0.2-0.5,0.2c-0.3,0.1-0.6,0.1-0.9,0.2c-0.3,0-0.7-0.1-1-0.2c-0.2-0.1-0.3-0.2-0.5-0.2
															c-0.1,0-0.1-0.1-0.2-0.1c0.1-0.1,0.1-0.1,0.2-0.1c0.1-0.1,0.2-0.1,0.2-0.1c0.3-0.1,0.7-0.1,1-0.1
															c0.1,0,0.2-0.1,0.3-0.1c0.1-0.1,0.3-0.1,0.4-0.1c0.3-0.1,0.6-0.1,0.9-0.1c0.1,0,0.3,0,0.3,0
															C322.8,211.8,322.9,211.8,323.1,211.8z"/>
														<path class="st23" d="M321.4,203.1L321.4,203.1c0.2,0.4,0.2,0.9,0.2,1.3c0,0.2,0.1,0.3,0.1,0.5
															c-0.1,0-0.1-0.1-0.1-0.2c-0.1-0.3-0.1-0.7-0.2-1C321.5,203.5,321.4,203.3,321.4,203.1z"/>
														<path class="st23" d="M320.9,203.3L320.9,203.3c0.1,0.3,0.2,0.5,0.2,0.7c0,0.3,0.1,0.7,0.1,1h-0.1
															c-0.1-0.3-0.2-0.8-0.2-1.2C320.9,203.7,320.8,203.5,320.9,203.3z"/>
														<path class="st35" d="M318.3,204.4c0.2-0.1,0.5-0.1,0.6-0.1c0.2,0,0.5,0.1,0.6,0.2c0.1,0,0,0.1,0,0.1
															c-0.1-0.1-0.2-0.1-0.3-0.1c-0.3-0.1-0.5,0-0.7,0.1C318.4,204.4,318.3,204.4,318.3,204.4L318.3,204.4z"/>
														<path class="st32" d="M322.4,205.1c0.5-0.3,1-0.3,1.5-0.3c0.3-0.1,0.5,0,0.9,0c0.5,0,0.9,0,1.3,0.2
															c0.1,0.1,0.2,0.2,0.3,0.2l-0.1,0.1c-0.2,0-0.3,0-0.5,0c-0.3,0-0.6,0-0.9,0.1c-0.3,0.1-0.5,0.2-0.7,0.2
															c-0.5,0.2-0.9,0.4-1.4,0.5c-0.2,0.1-0.3,0-0.5,0.1c-0.1,0-0.1,0-0.1,0c0-0.1,0-0.2-0.1-0.3c0.1-0.2,0-0.3,0.1-0.5
															C322.1,205.2,322.3,205.1,322.4,205.1z M317.6,205.1c-0.2,0.1-0.5,0.1-0.7,0.3s-0.3,0.3-0.5,0.5c-0.1,0-0.1,0.1,0,0.2
															c0.2,0,0.3-0.1,0.6-0.1c0.3,0,0.6-0.1,0.9-0.1c0.2,0,0.3,0,0.5,0.1c0.1,0,0.2,0.1,0.3,0.1c0.2,0.1,0.5,0.1,0.7,0.2
															c0.3,0.1,0.7,0.1,1,0c0.1,0,0.2,0,0.3,0c0,0,0-0.1,0.1-0.1c-0.1-0.1-0.1-0.1-0.2-0.1c0.1,0,0.1,0,0.1,0
															c0-0.2-0.1-0.3-0.1-0.5c0-0.1-0.1-0.1-0.1-0.2c0,0.1,0,0.2,0.1,0.2c-0.2-0.2-0.4-0.3-0.6-0.3
															c-0.2-0.1-0.5-0.1-0.7-0.2C318.9,204.9,318.3,204.9,317.6,205.1z M322,205.2c-0.1,0.2-0.1,0.3-0.1,0.5
															c0,0.1,0,0.3,0.1,0.5c0.1,0,0.1,0,0.2-0.1c-0.1,0-0.1,0-0.1,0c0-0.1,0-0.2-0.1-0.3c0-0.1,0-0.1,0-0.1
															C321.9,205.5,322,205.3,322,205.2C322.1,205.2,322,205.2,322,205.2z M321.7,205.6c0,0.2,0,0.4,0.1,0.5
															c0.1,0,0.1-0.1,0.1-0.1c0-0.2,0-0.3,0-0.5c0-0.1,0-0.2,0-0.2C321.7,205.4,321.7,205.5,321.7,205.6z M320.9,205.5
															c0.1,0.2,0.1,0.3,0.1,0.5c0,0.1,0,0.1-0.1,0.1v0.1c0.1,0,0.1,0,0.1,0c0.1-0.2,0.1-0.3,0.1-0.5
															C321.1,205.5,321,205.4,320.9,205.5C320.9,205.5,320.9,205.5,320.9,205.5z M321.1,205.6c0,0.2,0,0.3,0,0.6h0.1
															c0-0.1,0.1-0.2,0.1-0.3C321.3,205.8,321.2,205.6,321.1,205.6z M321.6,205.6c0,0.1-0.1,0.2,0,0.3
															c0,0.1,0.1,0.2,0.1,0.3C321.6,206,321.6,205.8,321.6,205.6L321.6,205.6z M321.3,205.7c0,0.1,0,0.3,0,0.4h0.1
															C321.3,206,321.4,205.8,321.3,205.7L321.3,205.7z"/>
														<path class="st36" d="M324.5,206.1c0.1,0,0.2,0.1,0.2,0.1c0.1,0.2,0.1,0.3,0,0.5c0,0.1-0.1,0.2-0.1,0.2
															s-0.1,0-0.2-0.1c-0.1-0.2-0.2-0.3-0.1-0.5C324.3,206.2,324.3,206.1,324.5,206.1z"/>
														<path class="st37" d="M313.7,206.4c0-0.1,0.1-0.1,0.1-0.1c0.2,0,0.5,0.1,0.6,0.1c0.2,0.1,0.3,0.2,0.5,0.3h-0.1
															c-0.1-0.1-0.2-0.2-0.3-0.2c-0.2-0.1-0.5-0.1-0.7-0.1C313.8,206.4,313.7,206.4,313.7,206.4z"/>
														<path class="st36" d="M318.3,206.3c0.1-0.1,0.2,0,0.2,0.1c0,0.1,0.1,0.2,0.1,0.3c0,0.1,0,0.2-0.1,0.3
															c-0.1,0.1-0.2,0.1-0.3,0c-0.1-0.1-0.2-0.3-0.1-0.5C318.3,206.5,318.3,206.3,318.3,206.3z"/>
														<path class="st38" d="M324.2,207c0.3,0,0.5,0,0.8-0.1v0.1c-0.2,0.1-0.3,0.1-0.5,0.2c-0.2,0-0.3,0.1-0.5-0.1v-0.1
															C324.1,206.9,324.1,207,324.2,207z"/>
														<path class="st39" d="M318.1,207.2c0.1,0,0.1,0,0.2,0c0.2,0.1,0.5,0.1,0.7,0.1c0.1,0,0.1,0,0.1,0
															c-0.1,0.1-0.2,0.1-0.3,0.2c-0.2,0-0.5,0.1-0.6-0.1C318.1,207.3,318.1,207.2,318.1,207.2z"/>
														<path class="st40" d="M317.8,207.6c0.2,0,0.5,0.1,0.6,0.1s0.3,0,0.5,0v0.1c-0.2,0.1-0.4,0.1-0.6,0.1
															c-0.2,0-0.3,0-0.5-0.1C317.8,207.7,317.8,207.7,317.8,207.6z"/>
														<path class="st18" d="M324.5,207.7c0.4-0.1,0.8,0.1,1,0.4c0.2,0.2,0.2,0.6,0.2,0.9c-0.1,0.2-0.1,0.3-0.1,0.5
															s-0.2,0.3-0.3,0.5c-0.3,0.3-0.7,0.4-1.1,0.2c-0.3-0.1-0.6-0.3-0.8-0.7c-0.1-0.2-0.1-0.3-0.1-0.5
															c0-0.1,0.1-0.3,0.1-0.4c0.1-0.3,0.3-0.6,0.5-0.8C324.1,207.9,324.3,207.7,324.5,207.7z"/>
														<path class="st41" d="M322.1,208.2C322.1,208.2,322.1,208.1,322.1,208.2c0.1,0.1,0.1,0.2,0.2,0.2
															c0.1,0.2,0.2,0.3,0.3,0.5c0.1,0.2,0.2,0.5,0.2,0.6c0,0.2,0,0.3-0.1,0.5c-0.1,0.1-0.1,0.1-0.2,0.1
															c-0.1,0-0.1-0.1-0.1-0.1c0.1-0.1,0.1-0.1,0.2-0.2c0.1-0.2,0-0.5-0.1-0.6c-0.1-0.2-0.1-0.3-0.2-0.5
															C322.2,208.6,322.1,208.4,322.1,208.2z"/>
														<path class="st18" d="M318.1,208.3c0.2-0.1,0.5,0,0.6,0.1c0.3,0.2,0.5,0.5,0.6,0.7c0.1,0.5,0.1,1-0.2,1.4
															c-0.2,0.2-0.4,0.3-0.7,0.4c-0.2,0.1-0.3,0.1-0.5,0c-0.3-0.1-0.6-0.3-0.7-0.6c-0.2-0.5-0.2-0.9,0.1-1.3
															C317.3,208.6,317.7,208.3,318.1,208.3z"/>
														<path class="st23" d="M320.3,208.6c0-0.1,0-0.2,0.1-0.2c0.1,0.2,0,0.5-0.1,0.7s-0.2,0.3-0.2,0.5
															c-0.1,0.2-0.1,0.5,0,0.7c0.1,0.1,0.2,0.2,0.3,0.2c0.1,0,0.2-0.1,0.2-0.1c-0.1,0-0.1,0-0.1,0.1l0.1,0.1
															c-0.2,0-0.3,0.1-0.5,0c-0.2-0.1-0.2-0.3-0.2-0.5s0.1-0.5,0.2-0.7S320.2,208.8,320.3,208.6z"/>
														<path class="st42" d="M321.3,208.6L321.3,208.6c0.1,0.1,0.1,0.2,0.1,0.3c0,0.3,0,0.6,0,0.9h-0.1
															c-0.1-0.2,0-0.3-0.1-0.5C321.3,209,321.2,208.8,321.3,208.6z"/>
														<path class="st43" d="M325.3,208.6c0.1,0.1,0.1,0.3,0,0.5C325.3,208.9,325.3,208.7,325.3,208.6z"/>
														<path class="st44" d="M318.6,208.5c0.1,0.1,0.2,0.2,0.3,0.3C318.7,208.8,318.6,208.7,318.6,208.5z"/>
														<path class="st14" d="M328.4,206.3c0.1-0.1,0.3-0.2,0.5-0.2v0.1c-0.3,0.2-0.5,0.3-0.8,0.6c-0.3,0.3-0.5,0.6-0.7,1
															c-0.2,0.5-0.5,1-0.5,1.5h-0.1c0-0.2,0.1-0.3,0.1-0.5c0.1-0.4,0.3-0.8,0.5-1.2C327.6,207.1,328,206.6,328.4,206.3z
															 M313.9,206.9L313.9,206.9c0.1,0.1,0.3,0.2,0.4,0.3c0.3,0.2,0.5,0.5,0.6,0.7c0.3,0.5,0.5,0.9,0.7,1.4
															c0-0.1,0-0.1,0-0.2c0-0.1-0.1-0.2-0.1-0.3c-0.2-0.5-0.4-0.9-0.6-1.3c-0.2-0.3-0.4-0.6-0.7-0.7
															C314.1,207,314,206.9,313.9,206.9z M315.7,209.4c0,0.1,0,0.1,0,0.2c0,0.1,0.1,0.1,0.1,0.1
															C315.7,209.5,315.7,209.4,315.7,209.4z"/>
														<path class="st45" d="M322.1,210.3c0.1-0.1,0.3-0.2,0.5-0.2l0.1,0.1c0,0,0,0.1-0.1,0.1c-0.1,0.1-0.2,0.1-0.3,0.2
															c-0.2,0.1-0.3,0.2-0.6,0.2c-0.3,0.1-0.6,0-0.9-0.1c-0.1,0-0.1,0-0.2-0.1c-0.1,0-0.1-0.1-0.1-0.1
															c0.1,0,0.1-0.1,0.1-0.1c0.3,0.1,0.6,0.1,0.9,0.1C321.7,210.4,321.8,210.4,322.1,210.3z"/>
														<path class="st46" d="M322.7,211.8c0.2,0,0.3-0.1,0.6-0.1c0,0,0,0.1,0.1,0.1c-0.1,0-0.1,0-0.2,0.1
															c-0.2,0.1-0.5,0.1-0.7,0.1c-0.4,0.1-0.9,0-1.2,0.1c-0.3,0.1-0.5,0.2-0.8,0.2c-0.2,0-0.3,0-0.5,0.1
															c-0.2,0.1-0.3,0.2-0.5,0.2c-0.1,0-0.1,0.1-0.2,0.1c0.1-0.2,0.3-0.2,0.5-0.3c0.2-0.1,0.4-0.1,0.6-0.1
															c0.3,0,0.5-0.1,0.8-0.1c0.2-0.1,0.5-0.1,0.7-0.1C322.1,211.8,322.4,211.8,322.7,211.8z"/>
														<path class="st47" d="M320.8,212.6c0.3-0.1,0.7-0.1,1.1-0.2v0.1c-0.2,0.1-0.4,0.1-0.6,0.2c-0.2,0.1-0.3,0.1-0.5,0.1
															C320.8,212.6,320.8,212.6,320.8,212.6z"/>
														<path class="st23" d="M322.1,217.2L322.1,217.2c0.2,0.2,0.2,0.4,0.3,0.6c0.1,0.3,0.1,0.6,0.1,0.9
															c0,0.1-0.1,0.2-0.1,0.3h-0.1c0.1-0.2,0.1-0.5,0.1-0.6c-0.1-0.3-0.1-0.7-0.2-1.1C322.1,217.3,322.1,217.3,322.1,217.2z
															"/>
														<path class="st23" d="M320.7,217.4L320.7,217.4c0.1,0.2,0.1,0.5,0.1,0.7c0,0.3,0.1,0.6,0.3,0.9
															c0.1,0.1,0.1,0.2,0.2,0.3c-0.1,0-0.1-0.1-0.2-0.1c-0.2-0.2-0.3-0.5-0.3-0.7c-0.1-0.2-0.1-0.5-0.1-0.7
															C320.6,217.7,320.6,217.5,320.7,217.4z"/>
														<path class="st48" d="M330.8,230.9c0.1-0.1,0.1-0.2,0.1-0.3c0.1-0.2,0.2-0.4,0.2-0.6c0.2-0.6,0.5-1.3,0.7-1.9
															c0.2-0.5,0.3-1,0.5-1.5c0.1-0.2,0.1-0.5,0.2-0.6h-0.1c-0.1,0.2-0.1,0.3-0.2,0.5c-0.1,0.3-0.2,0.6-0.3,1
															c-0.3,1-0.7,1.9-1,2.9c-0.1,0.1-0.1,0.2-0.1,0.3C330.8,230.6,330.8,230.7,330.8,230.9c-0.1,0.1-0.1,0.2-0.1,0.3
															C330.7,231,330.8,231,330.8,230.9z"/>
														<path class="st48" d="M330.2,232.1c0-0.1,0-0.2,0-0.3c0-0.4,0.1-0.8,0.1-1.2c0.1-0.5,0.3-1,0.3-1.5
															c0.1-0.3,0.1-0.5,0.1-0.9h-0.1c0,0.5-0.1,0.9-0.2,1.3c-0.2,0.6-0.3,1.2-0.3,1.8C330.2,231.7,330.2,231.9,330.2,232.1
															C330.2,232.1,330.2,232.1,330.2,232.1z"/>
														<path class="st48" d="M331.3,231.4c0.2-0.5,0.3-1.1,0.5-1.6c0,0-0.1,0-0.1-0.1c-0.1,0.1-0.1,0.2-0.2,0.3
															c-0.2,0.6-0.5,1.3-0.6,1.9c0,0.1,0,0.2,0,0.3h0.1C331.1,231.9,331.2,231.7,331.3,231.4z"/>
														<path class="st48" d="M328,224.8c0.2-0.2,0.4-0.3,0.6-0.6c0.1-0.2,0.2-0.3,0.2-0.5h-0.1c-0.1,0.1-0.1,0.1-0.1,0.2
															c-0.2,0.4-0.5,0.7-0.9,1c-0.2,0.2-0.4,0.4-0.6,0.5c-0.1,0.1-0.1,0.1-0.2,0.2c-0.1,0.1-0.1,0.1-0.2,0.2
															c0.1,0,0.1-0.1,0.2-0.1c0.1-0.1,0.2-0.2,0.3-0.2C327.4,225.3,327.7,225,328,224.8z"/>
														<path class="st48" d="M318.9,228.2c-0.3-0.2-0.6-0.5-0.9-0.7c-0.2-0.2-0.4-0.4-0.6-0.6c-0.2-0.2-0.5-0.3-0.7-0.4
															c-0.1-0.1-0.1-0.1-0.2-0.1c0,0.1,0.1,0.1,0.1,0.1c0.2,0.2,0.5,0.3,0.8,0.5c0.2,0.1,0.3,0.2,0.4,0.3
															c0.3,0.3,0.7,0.6,1.1,0.9c0.1,0.1,0.2,0.2,0.4,0.2C319,228.2,318.9,228.2,318.9,228.2z"/>
														<path class="st48" d="M318.1,229.6c0.1,0.1,0.2,0.2,0.3,0.3c0.3,0.3,0.6,0.5,0.9,0.7c0.3,0.2,0.5,0.3,0.9,0.3v-0.1
															c-0.2-0.1-0.3-0.1-0.5-0.2c-0.3-0.2-0.6-0.3-0.9-0.6c-0.2-0.2-0.3-0.3-0.5-0.5C318.2,229.6,318.1,229.4,318.1,229.6z"
															/>
														<path class="st48" d="M327.6,228c-0.1,0.1-0.2,0.2-0.2,0.3c0.1,0,0.1,0,0.1-0.1c0.1-0.1,0.2-0.3,0.3-0.5
															c0.2-0.3,0.5-0.7,0.7-1c0.3-0.3,0.5-0.6,0.7-0.9c0.1-0.1,0.1-0.2,0.2-0.3c-0.1,0-0.1,0.1-0.2,0.2
															c-0.3,0.3-0.5,0.7-0.9,1.1C328.2,227.2,327.9,227.6,327.6,228z"/>
														<path class="st48" d="M311,228.9c0.3,0.6,0.6,1.2,1,1.8h0.1c-0.3-0.5-0.6-1.1-0.9-1.6c-0.2-0.3-0.3-0.7-0.6-1.1h-0.1
															c0,0.1,0,0.1,0.1,0.1C310.7,228.4,310.9,228.7,311,228.9z"/>
														<path class="st48" d="M309.5,228c0.2,0.3,0.4,0.7,0.6,1.1s0.4,0.8,0.6,1.1c0.1,0.1,0.2,0.2,0.2,0.3
															c0.1,0.1,0.2,0.2,0.3,0.3c0-0.1-0.1-0.2-0.2-0.2c-0.1-0.1-0.2-0.3-0.3-0.5c-0.2-0.3-0.4-0.7-0.5-1.1
															c-0.2-0.3-0.3-0.7-0.5-1c-0.2-0.2-0.3-0.5-0.5-0.7c-0.1-0.1-0.1-0.1-0.1-0.2c0,0.1,0,0.1,0,0.1
															C309.2,227.6,309.4,227.8,309.5,228z"/>
														<path class="st48" d="M311.9,231.5c0,0.1,0.1,0.2,0.1,0.3c0.2,0.3,0.3,0.7,0.4,1.1h0.1l0,0c-0.1-0.3-0.2-0.5-0.2-0.8
															s-0.1-0.4-0.2-0.5C312,231.5,311.9,231.5,311.9,231.5z"/>
														<path class="st48" d="M313.7,222.2c0.2,0.1,0.2,0.3,0.3,0.5c0.2,0.2,0.3,0.3,0.5,0.5c0.2,0.1,0.3,0.3,0.5,0.5
															c0.3,0.2,0.6,0.5,0.9,0.7c0.2,0.1,0.4,0.3,0.6,0.4c0.5,0.3,1.1,0.5,1.7,0.6c0.1,0,0.2,0.1,0.3,0.1
															c0.1,0.1,0.3,0.1,0.4,0.1c0.5,0.1,1,0.1,1.5,0.1c0.5-0.1,0.9,0,1.3-0.1c0.4-0.1,0.8-0.2,1.2-0.3
															c0.5-0.2,1.1-0.4,1.7-0.6c0.3-0.1,0.5-0.3,0.7-0.3c0.3-0.2,0.6-0.3,0.9-0.5c0.2-0.2,0.5-0.3,0.7-0.5s0.4-0.3,0.6-0.5
															s0.5-0.5,0.7-0.7c0.2-0.2,0.3-0.5,0.5-0.6c0.1-0.1,0.2-0.2,0.2-0.3c-0.1,0-0.2,0.1-0.3,0.2c-0.2,0.3-0.5,0.6-0.7,0.9
															c-0.3,0.3-0.7,0.7-1.1,0.9c-0.5,0.4-1,0.9-1.6,1.1c-0.2,0.1-0.5,0.2-0.7,0.3c-0.6,0.2-1.2,0.5-1.7,0.6
															c-0.6,0.2-1.2,0.3-1.9,0.3c-0.3,0-0.5,0.1-0.8,0.1c-0.5,0-1,0-1.5-0.1c-0.2-0.1-0.5-0.1-0.6-0.2
															c-0.5-0.2-0.9-0.3-1.3-0.5c-0.2-0.1-0.3-0.2-0.5-0.3c-0.2-0.1-0.5-0.3-0.6-0.5c-0.2-0.1-0.3-0.3-0.5-0.4
															c-0.2-0.2-0.4-0.2-0.5-0.5c-0.1-0.2-0.3-0.3-0.5-0.5c-0.1-0.2-0.2-0.3-0.3-0.4c-0.1-0.1-0.1-0.1-0.2-0.1
															C313.7,222.1,313.7,222.1,313.7,222.2z"/>
													</g>
												</g>
											</g>
										</g>
									</g>
								</g>
							</g>
						</g>
					</g>
				</g>
			</g>
		</g>
	</g>
</g>
<g>
	<g>
		<g>
			<g>
				<g>
					<defs>
						<circle id="SVGID_00000163038564613926062370000008004704907261747105_" cx="321.4" cy="273.1" r="16.9"/>
					</defs>
					<clipPath id="SVGID_00000145034596170413280400000011970366966575739835_">
						<use xlink:href="#SVGID_00000163038564613926062370000008004704907261747105_"  style="overflow:visible;"/>
					</clipPath>
					<g style="clip-path:url(#SVGID_00000145034596170413280400000011970366966575739835_);">
						<g>
							<g>
								<rect id="SVGID_4_" x="304.5" y="256.1" class="st50" width="33.8" height="33.8"/>
							</g>
							<g>
								<g>
									<g>
										<g>
											<g>
												<defs>
													
														<rect id="SVGID_00000099630607554465968300000013556169507003178396_" x="304.5" y="256.1" width="33.8" height="33.8"/>
												</defs>
												<clipPath id="SVGID_00000025439566423417001000000009925994309144869517_">
													<use xlink:href="#SVGID_00000099630607554465968300000013556169507003178396_"  style="overflow:visible;"/>
												</clipPath>
												<g style="clip-path:url(#SVGID_00000025439566423417001000000009925994309144869517_);">
													<g>
														<g>
															<path class="st52" d="M336.5,292L336.5,292c-0.1-0.6-0.3-1.3-0.7-1.8c-0.3-0.6-0.7-1.1-1.1-1.5
																c-0.4-0.5-0.9-0.9-1.3-1.3c-0.2-0.2-0.3-0.3-0.5-0.4c-0.5-0.6-1.2-1.1-1.9-1.5c-0.5-0.3-1-0.7-1.4-1.1
																c-0.3-0.3-0.8-0.6-1.2-1c-0.3-0.3-0.7-0.7-1.1-1c-0.5-0.3-1-0.7-1.5-1c-0.3-0.2-0.7-0.3-1.1-0.3
																c-0.8-0.1-1.6-0.1-2.4-0.1c-1.5,0.1-3,0.3-4.6,0.5c-0.3,0.1-0.6,0.1-0.9,0.1c-0.2,0-0.5,0.1-0.7,0.2
																c-0.3,0.1-0.5,0.2-0.7,0.3c-0.2,0.2-0.3,0.3-0.5,0.5c-0.4,0.4-0.9,0.8-1.3,1.1c-0.3,0.3-0.7,0.5-1.1,0.9
																c-0.5,0.5-1,0.9-1.5,1.3c-0.5,0.3-1.1,0.7-1.7,1.1c-0.1,0.1-0.1,0.1-0.1,0.1c-0.1,0.1-0.1,0.1-0.2,0.1
																c-0.3,0.1-0.5,0.3-0.8,0.5c-0.5,0.3-1.1,0.7-1.5,1.2c-0.5,0.5-0.9,1.1-1.2,1.6c-0.3,0.5-0.5,1.1-0.8,1.7L336.5,292
																L336.5,292z"/>
															<path class="st32" d="M324.2,261.9c0.3-0.1,0.7-0.2,1.1-0.2c0.2,0,0.5,0.1,0.5,0.2c0.1,0.2,0,0.3-0.1,0.5
																c-0.2,0.3-0.6,0.5-0.9,0.7c0.3-0.2,0.7-0.4,1.1-0.5c0.2,0,0.3,0,0.5,0.1c0.1,0.1,0.1,0.3,0.1,0.5
																c-0.1,0.2-0.2,0.3-0.3,0.5c0.2-0.1,0.5-0.2,0.8-0.3c0.1,0,0.2,0,0.3,0.1c0,0.2-0.1,0.3-0.2,0.4
																c-0.3,0.3-0.8,0.6-1.3,0.7c0.2,0.2,0.3,0.3,0.5,0.5c0.5,0.5,0.9,1.1,1,1.9c0.1,0.3,0.2,0.7,0.2,1.1
																c0,0.5-0.1,0.9-0.1,1.3c-0.1,0.3-0.2,0.5-0.3,0.8c-0.1,0.2-0.1,0.3-0.1,0.5c-0.1,0.3-0.1,0.6-0.3,0.9
																c-0.1,0.2-0.2,0.3-0.3,0.4c-0.4,0.4-0.9,0.8-1.4,1.1c-0.5,0.2-0.9,0.3-1.5,0.3c-0.6,0-1.2,0-1.8,0
																c-0.3,0-0.7-0.1-1.1-0.1c-0.3-0.1-0.7-0.1-1.1-0.2c-0.3-0.1-0.7-0.1-1.1-0.1s-0.7,0-1-0.1c-0.3-0.1-0.5-0.3-0.6-0.5
																c-0.5-0.7-0.9-1.7-1.1-2.6c-0.1-0.5-0.2-1-0.1-1.5c0.1-0.6,0.1-1.2,0.2-1.7c0.1-0.3,0.3-0.7,0.5-1.1
																c0.1-0.2,0.3-0.4,0.5-0.5c0.3-0.2,0.5-0.3,0.9-0.3c0-0.3,0.1-0.5,0.2-0.7c0.1-0.3,0.2-0.5,0.4-0.7
																c0.2-0.2,0.3-0.3,0.6-0.4c0.3-0.1,0.5-0.2,0.9-0.2c0.6,0,1.3,0,1.9-0.1c0.3-0.1,0.7-0.1,1.1-0.2
																C323.4,262.2,323.9,262.1,324.2,261.9z"/>
														</g>
														<g>
															<path class="st7" d="M320.4,264.5c0.9-0.3,1.8-0.5,2.6-0.5c0.2,0.1,0.5,0.1,0.7,0.2c0.1,0.1,0.3,0.1,0.3,0.2
																c0.3,0.2,0.5,0.3,0.9,0.3c0.1,0.1,0.3,0.1,0.3,0.1c0.2,0.1,0.3,0.2,0.3,0.2c0,0.2,0,0.5,0,0.7
																c-0.1,0.3,0,0.7,0.1,1.1c0.1,0.5,0.2,1.1,0.2,1.7c0.1,0.2,0.1,0.5,0.2,0.7c0,0.5,0.2,0.9,0.2,1.3
																c0,0.3-0.2,0.7-0.2,1.1v0.1c-0.2,0.3-0.3,0.7-0.3,1.1c-0.1,0.5-0.2,0.9-0.3,1.3c-0.1,0.2-0.2,0.5-0.3,0.7
																c-0.1,0.1-0.1,0.1-0.1,0.2c-0.2,0.1-0.3,0.2-0.5,0.3c-0.2,0.1-0.5,0.2-0.7,0.3c-0.5,0.2-1,0.1-1.5,0.1
																c-0.5-0.1-1,0.1-1.5,0.1c-0.5,0-1.1,0-1.7-0.2c-0.5-0.2-1-0.5-1.3-0.9c-0.2-0.2-0.3-0.4-0.5-0.6
																c0.1,0.2,0.1,0.3,0.2,0.5c0.1,0.3,0.2,0.5,0.3,0.9c0.1,0.2,0.3,0.5,0.3,0.7c0.1,0.2,0.3,0.4,0.4,0.6s0.2,0.5,0.3,0.7
																c0.1,0.2,0.3,0.5,0.5,0.5c0.3,0.1,0.5-0.1,0.7-0.1c0.3-0.1,0.6-0.1,0.9-0.1c0.5,0.1,1.1,0.3,1.6,0.3
																c0.1,0.1,0.2,0.1,0.3,0.1c0.5,0.1,0.9,0.3,1.3,0.5c0.2,0.1,0.4,0.2,0.6,0.2c0-0.1,0-0.2,0-0.3c0,0.5,0,0.9,0.1,1.3
																c0.1,0.7,0.1,1.4,0.1,2.1c0.1,0.4-0.1,0.9-0.1,1.2c-0.1,0.5-0.3,1-0.5,1.4c-0.2,0.3-0.3,0.6-0.5,0.9
																c-0.2,0.2-0.3,0.5-0.5,0.7c-0.2,0.2-0.4,0.4-0.6,0.6c-0.2,0.2-0.5,0.4-0.7,0.6c-0.2,0.2-0.4,0.3-0.7,0.4
																c-0.2,0.1-0.3,0.2-0.5,0.2c-0.2,0.1-0.3,0-0.5,0c-0.3-0.1-0.6-0.2-0.9-0.3c-0.2-0.2-0.5-0.3-0.7-0.5
																c-0.4-0.5-0.8-0.9-1.1-1.4c-0.2-0.3-0.4-0.6-0.6-0.9c-0.2-0.3-0.3-0.6-0.5-0.9c-0.2-0.5-0.1-1.2-0.1-1.8
																c0-0.3,0.1-0.7,0.1-1c0.1-0.7,0.1-1.4,0.2-2.1c0.1-0.7,0.1-1.4,0.1-2.1c-0.1-0.6,0.1-1.2,0-1.8
																c0.1-0.2,0.1-0.3,0.1-0.5c0.1-0.7,0.1-1.5,0.1-2.3c0-0.2,0-0.4-0.1-0.6c0.1-0.2,0-0.5,0-0.6c-0.1-0.5,0-0.9,0.1-1.3
																c0.2-0.5,0.3-0.9,0.3-1.4c0.1-0.6,0.1-1.2,0.2-1.9c0.1-0.3,0.1-0.5,0.2-0.9c0-0.1,0.1-0.2,0.2-0.2
																c0.3-0.1,0.5-0.3,0.7-0.5C319.3,264.8,319.9,264.6,320.4,264.5z"/>
															<path class="st18" d="M327.2,270.3c0.3,0,0.6,0.2,0.8,0.5c0.2,0.3,0.2,0.7,0.2,1.1s-0.1,0.6-0.2,0.9
																c-0.1,0.3-0.2,0.6-0.3,0.9c-0.3,0.5-0.6,0.9-1,1.1c-0.3,0.2-0.7,0.3-1.1,0.2c-0.1,0-0.2-0.1-0.3-0.1h-0.1
																c0-0.1,0.1-0.1,0.1-0.2c0.1-0.2,0.2-0.5,0.3-0.7c0.1-0.5,0.2-0.9,0.3-1.3c0.1-0.3,0.2-0.7,0.3-1.1c0,0,0,0,0.1,0
																c0.2-0.2,0.3-0.5,0.5-0.7C326.8,270.7,327,270.5,327.2,270.3z"/>
															<path class="st18" d="M315.7,270.9c0.2-0.1,0.4-0.1,0.6,0.1c0.3,0.2,0.5,0.5,0.7,0.9c0.1,0.2,0.1,0.4,0.1,0.6
																c0,0.7,0.1,1.5-0.1,2.3c0,0.2,0,0.3-0.1,0.5c-0.1-0.1-0.3,0-0.3-0.1c-0.3-0.1-0.6-0.3-0.9-0.6
																c-0.3-0.4-0.5-0.9-0.7-1.4c-0.2-0.5-0.1-0.9,0.1-1.4C315.2,271.3,315.4,271,315.7,270.9z"/>
															<path class="st34" d="M317.2,274c0.2,0.2,0.3,0.4,0.5,0.6c0.3,0.3,0.9,0.6,1.3,0.9c0.5,0.2,1.1,0.2,1.7,0.2
																c0.5,0,1-0.1,1.5-0.1s1,0.1,1.5-0.1c0.2-0.1,0.5-0.2,0.7-0.3c0.2-0.1,0.3-0.3,0.5-0.3h0.1c0,0.2,0,0.4,0,0.6
																c0,0.2-0.1,0.3-0.1,0.5c0.1,0,0.1,0,0.2,0c-0.1,0.9,0,1.7,0,2.6c0,0.1,0,0.2,0,0.3c-0.2-0.1-0.4-0.2-0.6-0.2
																c-0.5-0.2-0.9-0.3-1.3-0.5c-0.1-0.1-0.2-0.1-0.3-0.1c-0.5-0.1-1.1-0.3-1.6-0.3c-0.3,0-0.6,0-0.9,0.1
																c-0.2,0.1-0.5,0.2-0.7,0.1c-0.2-0.1-0.4-0.3-0.5-0.5c-0.1-0.2-0.2-0.5-0.3-0.7c-0.1-0.2-0.3-0.4-0.4-0.6
																c-0.1-0.2-0.3-0.5-0.3-0.7c-0.2-0.3-0.2-0.5-0.3-0.9C317.4,274.4,317.3,274.2,317.2,274z"/>
														</g>
														<g>
															<path class="st34" d="M322.3,267.9c0.1-0.2,0.3-0.5,0.5-0.5v0.1l0.1,0.1c0-0.1,0-0.1,0-0.1c0.2-0.1,0.3,0,0.5,0
																c-0.2,0.2-0.3,0.3-0.5,0.5s-0.3,0.5-0.3,0.7c0,0.1-0.1,0.3,0,0.3c0.1,0.2,0.3,0.4,0.2,0.6c-0.1,0.1-0.1,0.2-0.2,0.2
																c0-0.1,0.1-0.2,0.1-0.2c0-0.2-0.1-0.3-0.2-0.5c-0.1-0.2-0.2-0.3-0.3-0.5C322.2,268.4,322.2,268.1,322.3,267.9z"/>
															<path class="st34" d="M325,276c0.1-0.2,0.1-0.3,0.1-0.5c0,0.2,0,0.3,0,0.5H325z"/>
															<path class="st53" d="M323.9,262.6c0.3-0.2,0.7-0.3,1.1-0.5c-0.1,0.1-0.3,0.2-0.5,0.2
																C324.3,262.4,324.1,262.5,323.9,262.6c-0.3,0.2-0.7,0.3-1.1,0.3c-0.3,0.1-0.5,0.1-0.8,0.1
																C322.7,262.9,323.3,262.8,323.9,262.6z"/>
															<path class="st53" d="M325,262.6c0.1,0,0.1-0.1,0.2-0.1c-0.2,0.2-0.5,0.3-0.7,0.4c-0.2,0.1-0.5,0.2-0.8,0.2
																C324.1,263,324.5,262.8,325,262.6z"/>
															<path class="st53" d="M319.1,263.6c0.3-0.3,0.6-0.5,1-0.6h0.1C319.8,263.1,319.5,263.3,319.1,263.6
																c-0.2,0.2-0.3,0.5-0.4,0.7c-0.1,0.2-0.1,0.3-0.1,0.5c0-0.1,0-0.2,0-0.3C318.6,264.2,318.9,263.8,319.1,263.6z"/>
															<path class="st53" d="M320.1,263.5c0.3-0.2,0.5-0.3,0.9-0.3c-0.1,0.1-0.1,0.1-0.2,0.1c-0.3,0.1-0.6,0.3-0.9,0.5
																c-0.3,0.2-0.5,0.5-0.7,0.9c0-0.2,0.1-0.4,0.3-0.6C319.6,263.8,319.9,263.7,320.1,263.5z"/>
															<path class="st53" d="M324.7,263.6c0.5-0.2,0.9-0.3,1.3-0.5c-0.1,0.2-0.3,0.2-0.4,0.3c-0.2,0.1-0.5,0.2-0.7,0.3
																C324.9,263.7,324.8,263.7,324.7,263.6z"/>
															<path class="st53" d="M321.7,263.5c0.3-0.1,0.7-0.1,1.1-0.1c-0.1,0.1-0.1,0.1-0.2,0.1c-0.5,0-0.9,0.1-1.3,0.2
																c-0.2,0.1-0.3,0.2-0.5,0.2C321.1,263.7,321.4,263.6,321.7,263.5z"/>
															<path class="st53" d="M317.1,265.6c0.1-0.1,0.2-0.1,0.2-0.1C317.2,265.6,317.1,265.6,317.1,265.6
																c-0.3,0.4-0.5,0.9-0.7,1.4c-0.1,0.3-0.1,0.5-0.1,0.8c-0.1-0.5,0.1-0.9,0.3-1.4C316.7,266.2,316.8,265.8,317.1,265.6z
																"/>
															<path class="st53" d="M326.1,265.5c0.1,0.1,0.1,0.1,0.1,0.2c0.1,0.3,0.2,0.7,0.2,1c0,0.4-0.1,0.8-0.1,1.2
																c0,0.1-0.1,0.2-0.1,0.3c0.1-0.5,0.2-1,0.1-1.5C326.3,266.2,326.2,265.9,326.1,265.5z"/>
															<path class="st54" d="M319.4,266c0.3-0.2,0.6-0.2,0.9-0.1c-0.2,0-0.3,0-0.5,0.1C319.7,265.9,319.6,266,319.4,266z"/>
															<path class="st53" d="M317.2,266.1c0.1-0.1,0.2-0.2,0.2-0.2c-0.1,0.2-0.2,0.3-0.3,0.4c-0.2,0.5-0.3,0.9-0.5,1.3
																c-0.1,0.2-0.1,0.3-0.1,0.6c-0.1-0.2-0.1-0.3-0.1-0.5c0.1-0.3,0.2-0.6,0.2-0.9C317,266.6,317.2,266.3,317.2,266.1z"/>
															<path class="st53" d="M326.7,266c0.1,0.1,0.1,0.2,0.2,0.3c0.1,0.5,0.1,0.9,0.1,1.4c0,0.2,0,0.5-0.1,0.6
																c0,0.1-0.1,0.2-0.1,0.3c0.1-0.4,0.1-0.9,0.1-1.3C326.8,266.9,326.8,266.4,326.7,266z"/>
															<path class="st55" d="M319.9,266.2c0.3-0.1,0.6-0.1,0.9,0.1c0.3,0.2,0.5,0.5,0.3,0.8c-0.1,0-0.1,0-0.2,0
																c-0.2-0.1-0.5-0.1-0.7-0.1c-0.5,0.1-0.9,0.1-1.3,0.2c-0.3,0.1-0.6,0.3-0.9,0.4c0-0.1,0.1-0.2,0.1-0.3
																c0.2-0.3,0.5-0.5,0.7-0.7C319.2,266.4,319.5,266.2,319.9,266.2z"/>
															<path class="st55" d="M322.5,266.5c0.2-0.1,0.4-0.2,0.6-0.1c0.7,0.1,1.3,0.3,1.9,0.6c0.2,0.1,0.3,0.2,0.4,0.3
																c-0.1,0-0.1,0-0.1,0c-0.7-0.1-1.4-0.3-2.1-0.3c-0.3,0-0.5,0-0.9,0.1c-0.1,0-0.1,0-0.2-0.1
																C322.3,266.9,322.4,266.6,322.5,266.5z"/>
															<path class="st36" d="M319,268c0.1-0.1,0.2-0.1,0.2,0.1c0.1,0.2,0.1,0.3-0.1,0.5c-0.1,0.1-0.2,0.1-0.2-0.1
																C318.9,268.4,318.9,268.1,319,268z"/>
															<path class="st53" d="M316.9,268.7c0.1-0.2,0.1-0.5,0.2-0.6c-0.1,0.5-0.3,0.9-0.3,1.5
																C316.8,269.2,316.8,268.9,316.9,268.7z"/>
															<path class="st53" d="M327.4,268c0.2,0.3,0.1,0.7-0.1,1.1c-0.1,0.3-0.2,0.7-0.3,0.9c0.2-0.4,0.3-0.9,0.3-1.3
																C327.4,268.5,327.4,268.3,327.4,268z"/>
															<path class="st36" d="M324,268.1c0.1-0.1,0.2,0,0.2,0.1c0,0.2-0.1,0.3-0.1,0.5c-0.1,0.1-0.3,0.1-0.3-0.1
																C323.9,268.4,323.9,268.2,324,268.1z"/>
															<path class="st56" d="M321.3,268.7c0.2-0.1,0.3-0.1,0.5-0.1c0.1,0,0.1,0.1,0.1,0.1
																C321.7,268.7,321.5,268.7,321.3,268.7z"/>
															<path class="st53" d="M316.4,269.3c0-0.2-0.1-0.5,0.1-0.6c0,0.3,0.1,0.7,0.1,1.1c0.1,0.2,0.1,0.5,0.1,0.7
																C316.5,270.1,316.4,269.7,316.4,269.3z"/>
															<path class="st57" d="M318.6,268.8c0.2,0,0.3,0,0.5,0c0.2,0,0.3,0,0.5,0c-0.2,0.1-0.5,0.1-0.7,0.1
																C318.8,268.9,318.7,268.8,318.6,268.8z"/>
															<path class="st22" d="M323.7,268.9c0.3,0.1,0.5,0.1,0.8,0c-0.1,0.1-0.1,0.1-0.2,0.1C324.1,269,324,269,323.7,268.9
																C323.8,268.9,323.7,268.9,323.7,268.9z"/>
															<path class="st53" d="M326.6,269.1c0.1,0.1,0.1,0.1,0.1,0.1c0.1,0.3,0,0.6-0.1,0.9l0,0
																C326.6,269.7,326.6,269.4,326.6,269.1z"/>
															<path class="st58" d="M318.5,269.3c0.3,0,0.6,0,0.9,0c-0.2,0.1-0.3,0.1-0.5,0.1C318.7,269.3,318.6,269.3,318.5,269.3
																z"/>
															<path class="st59" d="M320.7,269.7c0-0.2,0.3-0.3,0.5-0.2c0.1,0.1,0.1,0.1,0.1,0.2c-0.1,0.2-0.3,0.2-0.5,0.2
																C320.9,269.8,320.7,269.7,320.7,269.7z"/>
															<path class="st59" d="M322.1,269.5c0.1-0.1,0.2,0,0.3,0.1c0.1,0.1,0.1,0.1,0.1,0.2s-0.1,0.1-0.2,0.1
																c-0.1,0-0.3,0-0.3-0.1C321.9,269.6,322,269.5,322.1,269.5z"/>
															<path class="st60" d="M323.7,269.9c0.2-0.1,0.3-0.1,0.5-0.1c0.2,0,0.3,0,0.5,0.1c-0.2,0-0.3-0.1-0.5-0.1
																C324.1,269.9,323.9,269.9,323.7,269.9z"/>
															<path class="st18" d="M318.5,269.9c0.3-0.1,0.7,0,0.9,0.2c0.3,0.3,0.3,0.9-0.1,1.2c-0.3,0.2-0.6,0.3-0.9,0.3
																c-0.2-0.1-0.5-0.2-0.6-0.3c-0.1-0.2-0.1-0.5-0.1-0.6c0.1-0.3,0.3-0.5,0.5-0.6C318.3,270,318.4,269.9,318.5,269.9z"/>
															<path class="st18" d="M324.2,270.2c0.2-0.1,0.5,0,0.7,0.1c0.3,0.1,0.5,0.3,0.5,0.6c0.1,0.5-0.3,0.9-0.7,1
																c-0.3,0.1-0.6,0-0.9-0.2c-0.2-0.2-0.4-0.4-0.4-0.7c0-0.3,0.2-0.5,0.3-0.7C323.9,270.3,324.1,270.3,324.2,270.2z"/>
															<path class="st61" d="M324.1,270.5L324.1,270.5L324.1,270.5z"/>
															<path class="st34" d="M320.3,270.8c0.2-0.1,0.3-0.2,0.6-0.3c0.2-0.1,0.3,0,0.5,0c0.1,0,0.3-0.1,0.4,0
																c0.2,0.1,0.4,0.2,0.6,0.3c0.2,0.2,0.5,0.4,0.6,0.7c0.1,0.1,0.1,0.3,0.1,0.5L323,272l-0.1,0.1
																c-0.6-0.2-1.2-0.3-1.8-0.3c-0.5,0-0.9,0.1-1.3,0.1c-0.1,0.1-0.3,0.1-0.4,0.1c0.1-0.2,0.2-0.3,0.3-0.5
																C319.9,271.1,320,270.9,320.3,270.8z"/>
															<path class="st62" d="M320.6,271c0.2-0.1,0.5-0.1,0.7-0.2c0.1,0,0.2,0,0.3,0.1c0.3,0.1,0.6,0.3,0.9,0.5
																c0.2,0.2,0.3,0.3,0.3,0.5c-0.4-0.2-0.9-0.2-1.2-0.3c-0.7-0.1-1.4,0-2.1,0.1C319.9,271.5,320.2,271.1,320.6,271z"/>
															<path class="st14" d="M327.2,271.7c0.1-0.1,0.1-0.1,0.2-0.1c-0.2,0.2-0.4,0.5-0.6,0.9c-0.1,0.2-0.3,0.5-0.3,0.7
																c-0.1,0.1-0.1,0.2-0.2,0.3c0.1-0.5,0.3-0.9,0.5-1.2C327,272.1,327,271.9,327.2,271.7z"/>
															<path class="st63" d="M320.7,271.9c0.1-0.1,0.2-0.1,0.3-0.1c0.2,0,0.5,0,0.7,0.1c-0.1,0-0.3,0-0.4,0
																C321.2,271.9,321.1,271.9,320.7,271.9z"/>
															<path class="st14" d="M315.8,272c0.2,0.1,0.3,0.3,0.4,0.6c0.2,0.5,0.3,0.9,0.3,1.4c-0.1-0.5-0.2-1.1-0.5-1.5
																C316,272.3,315.8,272.1,315.8,272z"/>
															<path class="st34" d="M320.4,272.2c0.1-0.1,0.2-0.1,0.2-0.1c0.3,0,0.7-0.1,1.1,0c0.1,0,0.2,0.1,0.2,0.1
																c-0.1,0.2-0.2,0.3-0.2,0.5c-0.1,0-0.2,0-0.3,0c-0.3,0-0.5,0-0.9,0.1C320.5,272.6,320.5,272.4,320.4,272.2z"/>
															<path class="st64" d="M320.4,273.6c0.1-0.1,0.2-0.1,0.3-0.1c0.3-0.1,0.5-0.1,0.9,0c0.1,0,0.2,0.1,0.2,0.1
																c-0.2,0-0.5-0.1-0.7,0C320.8,273.5,320.6,273.6,320.4,273.6z"/>
															<path class="st54" d="M319.9,279.9c0.1,0.4,0.1,0.8,0.1,1.2c0,0.3,0,0.7-0.1,1.1c0-0.2,0.1-0.3,0.1-0.5
																c0-0.3,0-0.7-0.1-1.1C319.9,280.3,319.8,280.1,319.9,279.9z"/>
															<path class="st65" d="M315.4,283.1c0.1,0.3,0,0.5,0,0.8c0,0.5,0.2,1.1,0.5,1.5c0.2,0.3,0.3,0.7,0.5,1
																c-0.2-0.3-0.5-0.8-0.6-1.2c-0.2-0.3-0.3-0.7-0.3-1.2C315.3,283.7,315.3,283.4,315.4,283.1z"/>
															<path class="st65" d="M325.8,283.7c0-0.1,0-0.1,0-0.2C325.8,283.5,325.8,283.5,325.8,283.7c0.1,0.3,0.1,0.6,0,0.9
																c-0.1,0.3-0.2,0.7-0.5,1c0,0.1-0.1,0.1-0.1,0.1c0.1-0.2,0.2-0.3,0.3-0.5C325.7,284.6,325.8,284.1,325.8,283.7z"/>
															<path class="st65" d="M314.8,283.7L314.8,283.7c0.1,0.2,0.1,0.4,0.1,0.5c0.2,0.6,0.5,1.3,0.7,1.8
																c0.1,0.1,0.2,0.2,0.2,0.3c-0.1-0.1-0.2-0.2-0.2-0.3c-0.3-0.4-0.5-0.9-0.7-1.3C314.8,284.5,314.6,284.1,314.8,283.7z"
																/>
															<path class="st65" d="M323.9,286.5c0.2-0.2,0.3-0.3,0.5-0.6c0,0.1,0.1,0.1,0,0.2c-0.1,0.2-0.3,0.4-0.5,0.6
																c-0.2,0.2-0.5,0.5-0.7,0.7c-0.1,0.1-0.1,0.2-0.2,0.2c0-0.1,0-0.1,0.1-0.1C323.2,287.1,323.5,286.8,323.9,286.5z"/>
															<path class="st65" d="M324.3,287.6c0.1-0.1,0.2-0.2,0.3-0.2c-0.1,0.2-0.2,0.2-0.3,0.3c-0.2,0.2-0.3,0.4-0.5,0.6
																c-0.1,0.1-0.1,0.1-0.2,0.1C323.9,288.2,324.1,287.8,324.3,287.6z"/>
															<path class="st65" d="M320.5,288c-0.2,0-0.3,0-0.5-0.1c0,0-0.1,0-0.1-0.1h-0.1c-0.1-0.1-0.1-0.1-0.1-0.1l0,0
																c0.2,0.1,0.3,0.3,0.5,0.5c0.1,0.1,0.2,0.2,0.3,0.3l0,0l0,0c0.1,0,0.1-0.1,0.1-0.1l0,0l0,0c0.2-0.1,0.3-0.2,0.5-0.3
																c0.1-0.1,0.2-0.1,0.2-0.2C321.1,288,320.9,288,320.5,288z"/>
															<path class="st65" d="M322,288.3c0.1-0.1,0.2-0.2,0.2-0.2c-0.1,0.2-0.2,0.3-0.3,0.5c-0.1,0.1-0.1,0.3-0.2,0.3h-0.1
																C321.7,288.7,321.8,288.4,322,288.3z"/>
															<path class="st65" d="M320.5,288.2C320.5,288.1,320.6,288.2,320.5,288.2C320.5,288.3,320.4,288.2,320.5,288.2z"/>
															<path class="st65" d="M329.4,292c0-0.3,0.1-0.7,0.2-1c0.2-0.9,0.5-1.7,0.9-2.5c0-0.1,0.1-0.1,0-0.1
																c-0.1,0-0.1,0.1-0.2,0.1c-0.2,0.3-0.4,0.8-0.6,1.2c-0.2,0.5-0.3,0.9-0.3,1.3C329.3,291.4,329.3,291.8,329.4,292
																C329.3,292,329.3,292,329.4,292L329.4,292L329.4,292z"/>
															<path class="st65" d="M318.5,288.7c0.1-0.1,0.1,0,0.2,0c0.3,0.2,0.5,0.3,0.9,0.5c0.2,0.1,0.3,0.3,0.3,0.5
																c-0.1-0.1-0.2-0.2-0.3-0.2C319.3,289.2,318.9,289,318.5,288.7z"/>
															<path class="st65" d="M329.9,292c0-0.1,0.1-0.2,0.1-0.3c0.2-0.7,0.3-1.5,0.7-2.3c0.1-0.1,0.1-0.2,0.1-0.3
																c-0.1,0.1-0.1,0.1-0.1,0.2c-0.2,0.3-0.3,0.7-0.5,1.2s-0.2,1-0.3,1.5L329.9,292L329.9,292z"/>
															<path class="st65" d="M309.1,292h0.1c-0.1-0.7-0.3-1.5-0.5-2.3c-0.1-0.1-0.1-0.2-0.2-0.3h-0.1c0,0.1,0.1,0.2,0.1,0.3
																C308.8,290.6,309,291.3,309.1,292z"/>
															<path class="st65" d="M309.6,292h0.2c0-0.1,0-0.2-0.1-0.2c-0.1-0.4-0.2-0.8-0.3-1.2c-0.1-0.2-0.1-0.5-0.2-0.7
																c0-0.1-0.1-0.1-0.1-0.1C309.3,290.5,309.5,291.2,309.6,292L309.6,292z"/>
															<path class="st65" d="M319.2,289.9c0.1,0,0.2,0.1,0.2,0.1c0.2,0.2,0.3,0.3,0.5,0.6c0,0.1,0.1,0.2-0.1,0.1
																c-0.1-0.1-0.1-0.2-0.2-0.3c-0.1-0.2-0.3-0.2-0.3-0.3C319.2,290,319.2,290,319.2,289.9z"/>
															<path class="st65" d="M320.5,290.4L320.5,290.4c0.2,0.2,0.3,0.5,0.3,0.8c0,0.1,0.1,0.2,0,0.3
																c-0.1-0.2-0.1-0.3-0.2-0.5C320.7,290.7,320.6,290.5,320.5,290.4z"/>
														</g>
													</g>
												</g>
											</g>
										</g>
									</g>
								</g>
							</g>
						</g>
					</g>
				</g>
			</g>
		</g>
	</g>
</g>
<path class="st66" d="M447.9,141.6H351c-0.7,0-1.3-1-1.3-2.3V137c0-1.3,0.6-2.3,1.3-2.3h97c0.7,0,1.3,1,1.3,2.3v2.3
	C449,140.5,448.5,141.6,447.9,141.6z"/>
<path class="st66" d="M410.4,152.9h-60c-0.4,0-0.8-1-0.8-2.3v-2.3c0-1.3,0.3-2.3,0.8-2.3h60c0.4,0,0.8,1,0.8,2.3v2.3
	C411.2,151.9,410.9,152.9,410.4,152.9z"/>
<path class="st66" d="M447.9,207H351c-0.7,0-1.3-1-1.3-2.3v-2.3c0-1.3,0.6-2.3,1.3-2.3h97c0.7,0,1.3,1,1.3,2.3v2.3
	C449,206,448.5,207,447.9,207z"/>
<path class="st66" d="M410.4,218.4h-60c-0.4,0-0.8-1-0.8-2.3v-2.3c0-1.3,0.3-2.3,0.8-2.3h60c0.4,0,0.8,1,0.8,2.3v2.3
	C411.2,217.4,410.9,218.4,410.4,218.4z"/>
<path class="st66" d="M447.9,269.3H351c-0.7,0-1.3-1-1.3-2.3v-2.3c0-1.3,0.6-2.3,1.3-2.3h97c0.7,0,1.3,1,1.3,2.3v2.3
	C449,268.2,448.5,269.3,447.9,269.3z"/>
<path class="st66" d="M410.4,280.7h-60c-0.4,0-0.8-1-0.8-2.3v-2.3c0-1.3,0.3-2.3,0.8-2.3h60c0.4,0,0.8,1,0.8,2.3v2.3
	C411.2,279.7,410.9,280.7,410.4,280.7z"/>
<path class="st0" d="M491.5,81.4H418c-2.9,0-5.3-2.4-5.3-5.3v-20c0-2.9,2.4-5.3,5.3-5.3h73.5c2.9,0,5.3,2.4,5.3,5.3v20.1
	C496.8,79.1,494.5,81.4,491.5,81.4z"/>
<path class="st66" d="M479.7,70.2h-49.9c-0.4,0-0.6-1.2-0.6-2.7v-2.7c0-1.5,0.3-2.7,0.6-2.7h49.9c0.4,0,0.6,1.2,0.6,2.7v2.7
	C480.4,69,480.1,70.2,479.7,70.2z"/>
<path class="st67" d="M526.5,350.2h-285c-9.6,0-17.4-7.8-17.4-17.4v-285c0-9.6,7.8-17.4,17.4-17.4h285c9.6,0,17.4,7.8,17.4,17.4v285
	C543.9,342.4,536.1,350.2,526.5,350.2z"/>
</svg>
