<?xml version="1.0" encoding="utf-8"?>
<!-- Generator: Adobe Illustrator 28.1.0, SVG Export Plug-In . SVG Version: 6.00 Build 0)  -->
<svg version="1.1" id="b0dc27b4-ac01-4bcf-8250-299b18238fa0"
	 xmlns="http://www.w3.org/2000/svg" xmlns:xlink="http://www.w3.org/1999/xlink" x="0px" y="0px" viewBox="0 0 768 384"
	 style="enable-background:new 0 0 768 384;" xml:space="preserve">
<style type="text/css">
	.st0{fill:none;stroke:#CBD5E1;stroke-dasharray:12.08,12.08;}
	.st1{opacity:0.5;fill:#94A3B8;enable-background:new    ;}
</style>
<path class="st0" d="M198.8,97h370.4c14.8,0,26.8,12,26.8,26.8v136.4c0,14.8-12,26.8-26.8,26.8H198.8c-14.8,0-26.8-12-26.8-26.8
	V123.8C172,109,184,97,198.8,97z"/>
<g>
	<path class="st1" d="M267.4,159.5h-29c-2.7,0-5.1,1.4-6.4,3.7l-14.5,25.1c-1.3,2.3-1.3,5.1,0,7.4l14.5,25.1
		c1.3,2.3,3.8,3.7,6.4,3.7h29c2.7,0,5.1-1.4,6.4-3.7l14.5-25.1c1.3-2.3,1.3-5.1,0-7.4l-14.5-25.1C272.5,160.9,270,159.5,267.4,159.5
		z"/>
	<path class="st1" d="M376.1,206.5v-29c0-2.7-1.4-5.1-3.7-6.4l-25.1-14.5c-2.3-1.3-5.1-1.3-7.4,0l-25.1,14.5
		c-2.3,1.3-3.7,3.8-3.7,6.4v29c0,2.7,1.4,5.1,3.7,6.4l25.1,14.5c2.3,1.3,5.1,1.3,7.4,0l25.1-14.5
		C374.7,211.6,376.1,209.1,376.1,206.5z"/>
	<polygon class="st1" points="442.8,160.7 422.5,160.7 406,172.6 399.7,192 406,211.4 422.5,223.3 442.8,223.3 459.3,211.4 
		465.6,192 459.3,172.6 	"/>
	
		<rect x="493.9" y="168.2" transform="matrix(0.7071 0.7071 -0.7071 0.7071 287.4137 -309.878)" class="st1" width="47.7" height="47.7"/>
</g>
</svg>
