<?xml version="1.0" encoding="utf-8"?>
<!-- Generator: Adobe Illustrator 28.1.0, SVG Export Plug-In . SVG Version: 6.00 Build 0)  -->
<svg version="1.1" id="Layer_1" xmlns="http://www.w3.org/2000/svg" xmlns:xlink="http://www.w3.org/1999/xlink" x="0px" y="0px"
	 viewBox="0 0 768 384" style="enable-background:new 0 0 768 384;" xml:space="preserve">
<style type="text/css">
	.st0{fill:none;stroke:#CBD5E1;stroke-dasharray:12.08,12.08;}
	.st1{opacity:0.5;enable-background:new    ;}
	.st2{fill-rule:evenodd;clip-rule:evenodd;fill:#94A3B8;}
	.st3{opacity:0.5;fill:#94A3B8;enable-background:new    ;}
</style>
<g>
	<path class="st0" d="M611.2,315.6H156.8c-7.9,0-14.3-10.9-14.3-24.4V92.8c0-13.5,6.4-24.4,14.3-24.4h454.3
		c7.9,0,14.3,10.9,14.3,24.4v198.4C625.5,304.5,619.1,315.6,611.2,315.6z"/>
</g>
<g class="st1">
	<path class="st2" d="M382.8,163.9l-6,7.4l-1.8-1.6l9-11l9.1,11.1l-1.8,1.6l-6-7.4v18.9h-2.4C382.8,182.9,382.8,163.9,382.8,163.9z
		 M399.7,187.7h-31.5c-6,0-10.9-4.9-10.9-10.9c0-5.3,3.8-9.8,8.9-10.7l1.9-0.3l0.1-1.9c0.4-8.3,7.3-14.9,15.7-14.9
		s15.2,6.5,15.7,14.9l0.1,1.9l1.9,0.3c5.2,0.9,8.9,5.4,8.9,10.7C410.6,182.8,405.7,187.7,399.7,187.7 M402.1,163.7
		c-0.5-9.6-8.4-17.2-18.1-17.2s-17.6,7.6-18.1,17.2c-6.2,1.1-10.9,6.5-10.9,13.1c0,7.3,6,13.3,13.3,13.3h31.5
		c7.3,0,13.3-6,13.3-13.3C413,170.3,408.3,164.9,402.1,163.7"/>
	<path class="st3" d="M461,215.9H307c-1.2,0-2.2-1.5-2.2-3.3v-3.3c0-1.8,1-3.3,2.2-3.3h154c1.2,0,2.2,1.5,2.2,3.3v3.3
		C463.2,214.4,462.2,215.9,461,215.9z"/>
	<path class="st3" d="M441.7,237.4H326.3c-0.9,0-1.6-1.5-1.6-3.3v-3.3c0-1.8,0.7-3.3,1.6-3.3h115.5c0.9,0,1.6,1.5,1.6,3.3v3.3
		C443.4,235.9,442.6,237.4,441.7,237.4z"/>
</g>
</svg>
