<?xml version="1.0" encoding="utf-8"?>
<!-- Generator: Adobe Illustrator 28.1.0, SVG Export Plug-In . SVG Version: 6.00 Build 0)  -->
<svg version="1.1" id="b0dc27b4-ac01-4bcf-8250-299b18238fa0"
	 xmlns="http://www.w3.org/2000/svg" xmlns:xlink="http://www.w3.org/1999/xlink" x="0px" y="0px" viewBox="0 0 768 384"
	 style="enable-background:new 0 0 768 384;" xml:space="preserve">
<style type="text/css">
	.st0{opacity:0.5;fill:#94A3B8;enable-background:new    ;}
	.st1{fill:none;stroke:#212121;stroke-dasharray:12.08,12.08;}
</style>
<path class="st0" d="M503.4,186.6H264.6c-2.3,0-4.1-1.8-4.1-4.1v-12.8c0-2.3,1.8-4.1,4.1-4.1h238.8c2.3,0,4.1,1.8,4.1,4.1v12.8
	C507.5,184.7,505.7,186.6,503.4,186.6z"/>
<path class="st1" d="M506.8,203H262.1c-8.3,0-15-6.7-15-15v-21.9c0-8.3,6.7-15,15-15h244.7c8.3,0,15,6.7,15,15v21.9
	C521.8,196.3,515.1,203,506.8,203z"/>
</svg>
