<?xml version="1.0" encoding="utf-8"?>
<!-- Generator: Adobe Illustrator 28.1.0, SVG Export Plug-In . SVG Version: 6.00 Build 0)  -->
<svg version="1.1" id="ba19cdc5-2f4a-4ce1-8a61-4f7e2c1df4b1"
	 xmlns="http://www.w3.org/2000/svg" xmlns:xlink="http://www.w3.org/1999/xlink" x="0px" y="0px" viewBox="0 0 768 384"
	 style="enable-background:new 0 0 768 384;" xml:space="preserve">
<style type="text/css">
	.st0{fill:none;stroke:#212121;stroke-dasharray:12.08,12.08;}
	.st1{fill:#FFFFFF;stroke:#212121;}
	.st2{fill:#212121;}
</style>
<path class="st0" d="M198.8,97h370.4c14.8,0,26.8,12,26.8,26.8v136.4c0,14.8-12,26.8-26.8,26.8H198.8c-14.8,0-26.8-12-26.8-26.8
	V123.8C172,109,184,97,198.8,97z"/>
<path class="st1" d="M244.5,147.3h53c10,0,18,8.1,18,18v53.3c0,10-8.1,18-18,18h-53c-10,0-18-8.1-18-18v-53.3
	C226.4,155.4,234.5,147.3,244.5,147.3z"/>
<path class="st1" d="M357.5,147.3h53c10,0,18,8.1,18,18v53.3c0,10-8.1,18-18,18h-53c-10,0-18-8.1-18-18v-53.3
	C339.5,155.4,347.5,147.3,357.5,147.3z"/>
<path class="st1" d="M470.5,147.3h53c10,0,18,8.1,18,18v53.3c0,10-8.1,18-18,18h-53c-10,0-18-8.1-18-18v-53.3
	C452.5,155.4,460.5,147.3,470.5,147.3z"/>
<g>
	<path class="st2" d="M268.5,195.3h-13.2l-2.9,7.7h-3.2l10.6-27.7h4l11.1,27.7h-3.4L268.5,195.3z M267.5,192.6l-5.6-14.3h-0.2
		l-5.4,14.3H267.5z"/>
	<path class="st2" d="M292,195.9c0,4.4-2.8,7.3-6.8,7.3c-2.2,0.1-4.3-1-5.4-2.8l0,0l-0.2,2.5h-2v-20.3h2.3v8.9
		c1.2-1.8,3.2-2.9,5.4-2.9C289.2,188.6,292,191.5,292,195.9z M284.8,201.4c2.9,0,4.8-2.2,4.8-5.5s-2-5.5-4.8-5.5c-2.8,0-5,2.2-5,5
		c0,0.1,0,0.1,0,0.2v0.7c-0.1,2.8,2.1,5.1,4.8,5.2C284.7,201.4,284.7,201.4,284.8,201.4z"/>
</g>
<g>
	<path class="st2" d="M373.6,190.5v-14.2h2.8v14.2c0,5.9,3.1,8.2,7.2,8.2c3.9,0,6.9-2.2,6.9-8.2v-14.2h2.8v14.2
		c0,8.1-4.6,10.6-9.8,10.6S373.6,198.6,373.6,190.5z"/>
	<rect x="370" y="207.1" class="st2" width="27" height="2.4"/>
</g>
<g>
	<path class="st2" d="M495.7,179.1h-9.3v-2.6H508v2.6h-9.3v23.6h-3L495.7,179.1z"/>
</g>
</svg>
