<?xml version="1.0" encoding="utf-8"?>
<!-- Generator: Adobe Illustrator 28.1.0, SVG Export Plug-In . SVG Version: 6.00 Build 0)  -->
<svg version="1.1" id="ee7a62de-edf2-44ae-b7f2-4ad4f289ad73"
	 xmlns="http://www.w3.org/2000/svg" xmlns:xlink="http://www.w3.org/1999/xlink" x="0px" y="0px" viewBox="0 0 768 384"
	 style="enable-background:new 0 0 768 384;" xml:space="preserve">
<style type="text/css">
	.st0{fill:none;stroke:#CBD5E1;stroke-dasharray:12.08,12.08;}
	.st1{fill:#020617;stroke:#1E293B;}
	.st2{opacity:0.5;fill:#94A3B8;enable-background:new    ;}
	.st3{fill:none;stroke:#FFFFFF;stroke-width:2;}
</style>
<path class="st0" d="M198.8,97h370.4c14.8,0,26.8,12,26.8,26.8v136.4c0,14.8-12,26.8-26.8,26.8H198.8c-14.8,0-26.8-12-26.8-26.8
	V123.8C172,109,184,97,198.8,97z"/>
<path class="st1" d="M226.4,147.3h315.1c10,0,18,8.1,18,18v53.3c0,10-8.1,18-18,18H226.4c-10,0-18-8.1-18-18v-53.3
	C208.4,155.4,216.5,147.3,226.4,147.3z"/>
<path class="st2" d="M412.2,185.1h-173c-1.4-0.1-2.5-1.3-2.4-2.7v-2.7c-0.1-1.4,1-2.6,2.4-2.7h173c1.4,0.1,2.5,1.3,2.4,2.7v2.7
	c0.1,1.4-0.9,2.6-2.2,2.7C412.3,185.1,412.2,185.1,412.2,185.1z"/>
<path class="st2" d="M366.2,206.4H238.5c-0.9,0-1.8-1.2-1.8-2.7v-2.7c0-1.5,0.8-2.7,1.8-2.7h127.7c1,0,1.8,1.2,1.8,2.7v2.7
	C368.1,205.2,367.3,206.4,366.2,206.4z"/>
<polyline class="st3" points="522.5,186.5 512.5,196.5 502.5,186.5 "/>
</svg>
