<?xml version="1.0" encoding="utf-8"?>
<!-- Generator: Adobe Illustrator 28.1.0, SVG Export Plug-In . SVG Version: 6.00 Build 0)  -->
<svg version="1.1" id="Layer_1" xmlns="http://www.w3.org/2000/svg" xmlns:xlink="http://www.w3.org/1999/xlink" x="0px" y="0px"
	 viewBox="0 0 768 384" style="enable-background:new 0 0 768 384;" xml:space="preserve">
<style type="text/css">
	.st0{fill:none;stroke:#212121;stroke-dasharray:12.0753,12.0753;}
	.st1{fill:#FFFFFF;stroke:#212121;}
	.st2{opacity:0.5;fill:#94A3B8;enable-background:new    ;}
</style>
<g>
	<path class="st0" d="M611.2,264.6H156.8c-7.9,0-14.3-6.4-14.3-14.3V133.8c0-7.9,6.4-14.3,14.3-14.3h454.3c7.9,0,14.3,6.4,14.3,14.3
		v116.5C625.5,258.1,619.1,264.6,611.2,264.6z"/>
</g>
<path class="st1" d="M200.4,164.4h367.1c9.2,0,16.7,7.5,16.7,16.7V203c0,9.2-7.5,16.7-16.7,16.7H200.4c-9.2,0-16.7-7.5-16.7-16.7
	v-21.9C183.7,171.9,191.2,164.4,200.4,164.4z"/>
<path class="st2" d="M522.5,197H331.7c-1.5,0-2.7-1.5-2.7-3.3v-3.3c0-1.8,1.2-3.3,2.7-3.3h190.9c1.5,0,2.7,1.5,2.7,3.3v3.3
	C525.2,195.5,524,197,522.5,197z"/>
<line class="st1" x1="298.1" y1="164.4" x2="298.1" y2="219.7"/>
<g>
	<path d="M247.8,205.3h-18.7c-2.2,0-4-1.8-4-4V196c0-0.7,0.6-1.3,1.3-1.3s1.3,0.6,1.3,1.3v5.3c0,0.7,0.6,1.3,1.3,1.3h18.7
		c0.7,0,1.3-0.6,1.3-1.3V196c0-0.7,0.6-1.3,1.3-1.3s1.3,0.6,1.3,1.3v5.3C251.8,203.5,250,205.3,247.8,205.3z M238.5,197.3
		c-0.7,0-1.3-0.6-1.3-1.3v-12.8l-4.4,4.4c-0.5,0.5-1.4,0.5-1.9,0c-0.5-0.5-0.5-1.4,0-1.9l6.7-6.7c0.1-0.1,0.3-0.2,0.4-0.3
		c0.1-0.1,0.3-0.1,0.5-0.1c0,0,0,0,0.1,0c0.2,0,0.3,0,0.5,0.1c0.2,0.1,0.3,0.2,0.4,0.3l6.7,6.7c0.5,0.5,0.5,1.4,0,1.9
		c-0.5,0.5-1.4,0.5-1.9,0l-4.4-4.4V196C239.8,196.7,239.2,197.3,238.5,197.3z"/>
</g>
</svg>
