<?xml version="1.0" encoding="utf-8"?>
<!-- Generator: Adobe Illustrator 28.1.0, SVG Export Plug-In . SVG Version: 6.00 Build 0)  -->
<svg version="1.1" id="Layer_1" xmlns="http://www.w3.org/2000/svg" xmlns:xlink="http://www.w3.org/1999/xlink" x="0px" y="0px"
	 viewBox="0 0 768 384" style="enable-background:new 0 0 768 384;" xml:space="preserve">
<style type="text/css">
	.st0{fill:none;stroke:#CBD5E1;stroke-dasharray:12.08,12.08;}
	.st1{fill:#FFFFFF;stroke:#1E293B;}
	.st2{fill:#FFFFFF;}
</style>
<g>
	<path class="st0" d="M598.5,235.1H169.6c-7.5,0-13.5-3.8-13.5-8.5v-69.3c0-4.7,6-8.5,13.5-8.5h428.8c7.5,0,13.5,3.8,13.5,8.5v69.3
		C612,231.3,605.9,235.1,598.5,235.1z"/>
</g>
<g>
	<path class="st1" d="M575.3,201.4H192.7c-5.2,0-9.4-4.2-9.4-9.4v0c0-5.2,4.2-9.4,9.4-9.4h382.7c5.2,0,9.4,4.2,9.4,9.4v0
		C584.7,197.2,580.5,201.4,575.3,201.4z"/>
	<path class="st2" d="M475.3,198.3H192.9c-3.5,0-6.3-2.8-6.3-6.3l0,0c0-3.5,2.8-6.3,6.3-6.3h282.3c3.5,0,6.3,2.8,6.3,6.3l0,0
		C481.6,195.5,478.8,198.3,475.3,198.3z"/>
</g>
</svg>
