<?xml version="1.0" encoding="utf-8"?>
<!-- Generator: Adobe Illustrator 28.1.0, SVG Export Plug-In . SVG Version: 6.00 Build 0)  -->
<svg version="1.1" id="Layer_1" xmlns="http://www.w3.org/2000/svg" xmlns:xlink="http://www.w3.org/1999/xlink" x="0px" y="0px"
	 viewBox="0 0 768 384" style="enable-background:new 0 0 768 384;" xml:space="preserve">
<style type="text/css">
	.st0{fill:none;stroke:#CBD5E1;stroke-dasharray:12.08,12.08;}
	.st1{fill:#020617;stroke:#1E293B;}
	.st2{opacity:0.5;fill:#94A3B8;enable-background:new    ;}
</style>
<g>
	<path class="st0" d="M611.2,275.3H156.8c-7.9,0-14.3-7.3-14.3-16.4V125.1c0-9.1,6.4-16.4,14.3-16.4h454.3c7.9,0,14.3,7.3,14.3,16.4
		v133.8C625.5,267.8,619.1,275.3,611.2,275.3z"/>
</g>
<rect x="314.5" y="163.9" class="st1" width="139.1" height="56.1"/>
<path class="st2" d="M435.6,197H332.4c-0.7,0-1.3-1.5-1.3-3.3v-3.3c0-1.8,0.6-3.3,1.3-3.3h103.3c0.7,0,1.3,1.5,1.3,3.3v3.3
	C436.9,195.5,436.3,197,435.6,197z"/>
<path class="st1" d="M580,220H453.5v-56.1H580c7,0,12.6,5.6,12.6,12.6v30.9C592.6,214.4,587,220,580,220z"/>
<path class="st2" d="M574.7,197H471.4c-0.7,0-1.3-1.5-1.3-3.3v-3.3c0-1.8,0.6-3.3,1.3-3.3h103.3c0.7,0,1.3,1.5,1.3,3.3v3.3
	C576,195.5,575.4,197,574.7,197z"/>
<path class="st1" d="M314.5,220H188.9c-7.5,0-13.6-6.1-13.6-13.6v-28.9c0-7.5,6.1-13.6,13.6-13.6h125.5V220z"/>
<path class="st2" d="M296.6,197H193.3c-0.7,0-1.3-1.5-1.3-3.3v-3.3c0-1.8,0.6-3.3,1.3-3.3h103.3c0.7,0,1.3,1.5,1.3,3.3v3.3
	C297.8,195.5,297.3,197,296.6,197z"/>
</svg>
