<?xml version="1.0" encoding="utf-8"?>
<!-- Generator: Adobe Illustrator 28.1.0, SVG Export Plug-In . SVG Version: 6.00 Build 0)  -->
<svg version="1.1" id="Layer_1" xmlns="http://www.w3.org/2000/svg" xmlns:xlink="http://www.w3.org/1999/xlink" x="0px" y="0px"
	 viewBox="0 0 768 384" style="enable-background:new 0 0 768 384;" xml:space="preserve">
<style type="text/css">
	.st0{fill:#FFFFFF;stroke:#212121;}
	.st1{fill:none;stroke:#212121;stroke-dasharray:12.0753,12.0753;}
	.st2{opacity:0.5;fill:#94A3B8;enable-background:new    ;}
</style>
<path class="st0" d="M592.2,246.8H175.8c-7.9,0-14.3-6.4-14.3-14.3v-80.9c0-7.9,6.4-14.3,14.3-14.3h416.3c7.9,0,14.3,6.4,14.3,14.3
	v80.9C606.5,240.4,600.1,246.8,592.2,246.8z"/>
<g>
	<path class="st1" d="M611.2,264.6H156.8c-7.9,0-14.3-6.4-14.3-14.3V133.8c0-7.9,6.4-14.3,14.3-14.3h454.3c7.9,0,14.3,6.4,14.3,14.3
		v116.5C625.5,258.1,619.1,264.6,611.2,264.6z"/>
</g>
<path class="st2" d="M527.7,186.5H268.6c-1.8,0-3.3-1.5-3.3-3.3v-3.3c0-1.8,1.5-3.3,3.3-3.3h259.1c1.8,0,3.3,1.5,3.3,3.3v3.3
	C531,185,529.5,186.5,527.7,186.5z"/>
<path class="st2" d="M504.8,207.5H268.6c-1.8,0-3.3-1.5-3.3-3.3v-3.3c0-1.8,1.5-3.3,3.3-3.3h236.2c1.8,0,3.3,1.5,3.3,3.3v3.3
	C508.1,206,506.6,207.5,504.8,207.5z"/>
<circle class="st2" cx="215.7" cy="192" r="29.8"/>
</svg>
