<?xml version="1.0" encoding="utf-8"?>
<!-- Generator: Adobe Illustrator 28.1.0, SVG Export Plug-In . SVG Version: 6.00 Build 0)  -->
<svg version="1.1" id="Layer_1" xmlns="http://www.w3.org/2000/svg" xmlns:xlink="http://www.w3.org/1999/xlink" x="0px" y="0px"
	 viewBox="0 0 768 384" style="enable-background:new 0 0 768 384;" xml:space="preserve">
<style type="text/css">
	.st0{fill:none;stroke:#212121;stroke-dasharray:12.0753,12.0753;}
	.st1{fill:#FFFFFF;stroke:#212121;}
	.st2{opacity:0.5;fill:#94A3B8;enable-background:new    ;}
</style>
<g>
	<path class="st0" d="M611.2,275.3H156.8c-7.9,0-14.3-7.3-14.3-16.4V125.1c0-9.1,6.4-16.4,14.3-16.4h454.3c7.9,0,14.3,7.3,14.3,16.4
		v133.8C625.5,267.8,619.1,275.3,611.2,275.3z"/>
</g>
<g>
	<g>
		<path class="st1" d="M193.6,163.9h166.8c8.3,0,15,6.7,15,15V205c0,8.3-6.7,15-15,15H193.6c-8.3,0-15-6.7-15-15v-26.2
			C178.6,170.6,185.3,163.9,193.6,163.9z"/>
		<path class="st2" d="M343.2,197H210.6c-0.9,0-1.7-1.5-1.7-3.3v-3.3c0-1.8,0.8-3.3,1.7-3.3h132.6c0.9,0,1.7,1.5,1.7,3.3v3.3
			C344.8,195.5,344.1,197,343.2,197z"/>
	</g>
	<g>
		<path class="st1" d="M407.7,163.9h166.8c8.3,0,15,6.7,15,15V205c0,8.3-6.7,15-15,15H407.7c-8.3,0-15-6.7-15-15v-26.2
			C392.7,170.6,399.4,163.9,407.7,163.9z"/>
		<path class="st2" d="M557.4,197H424.8c-0.9,0-1.7-1.5-1.7-3.3v-3.3c0-1.8,0.8-3.3,1.7-3.3h132.6c0.9,0,1.7,1.5,1.7,3.3v3.3
			C559,195.5,558.3,197,557.4,197z"/>
	</g>
</g>
</svg>
