<?xml version="1.0" encoding="utf-8"?>
<!-- Generator: Adobe Illustrator 28.1.0, SVG Export Plug-In . SVG Version: 6.00 Build 0)  -->
<svg version="1.1" id="b0dc27b4-ac01-4bcf-8250-299b18238fa0"
	 xmlns="http://www.w3.org/2000/svg" xmlns:xlink="http://www.w3.org/1999/xlink" x="0px" y="0px" viewBox="0 0 768 384"
	 style="enable-background:new 0 0 768 384;" xml:space="preserve">
<style type="text/css">
	.st0{fill:none;stroke:#CBD5E1;stroke-dasharray:12.08,12.08;}
	.st1{opacity:0.5;fill:#94A3B8;enable-background:new    ;}
</style>
<path class="st0" d="M198.8,97h370.4c14.8,0,26.8,12,26.8,26.8v136.4c0,14.8-12,26.8-26.8,26.8H198.8c-14.8,0-26.8-12-26.8-26.8
	V123.8C172,109,184,97,198.8,97z"/>
<path class="st1" d="M494.9,186.6H256.1c-2.3,0-4.1-1.8-4.1-4.1v-12.8c0-2.3,1.8-4.1,4.1-4.1h238.8c2.3,0,4.1,1.8,4.1,4.1v12.8
	C499,184.7,497.2,186.6,494.9,186.6z"/>
<path class="st1" d="M446.2,218.4H256.1c-2.3,0-4.1-1.8-4.1-4.1v-12.8c0-2.3,1.8-4.1,4.1-4.1h190.1c2.3,0,4.1,1.8,4.1,4.1v12.8
	C450.3,216.6,448.5,218.4,446.2,218.4z"/>
</svg>
