<?xml version="1.0" encoding="utf-8"?>
<!-- Generator: Adobe Illustrator 28.1.0, SVG Export Plug-In . SVG Version: 6.00 Build 0)  -->
<svg version="1.1" id="b0dc27b4-ac01-4bcf-8250-299b18238fa0"
	 xmlns="http://www.w3.org/2000/svg" xmlns:xlink="http://www.w3.org/1999/xlink" x="0px" y="0px" viewBox="0 0 768 384"
	 style="enable-background:new 0 0 768 384;" xml:space="preserve">
<style type="text/css">
	.st0{fill:none;stroke:#CBD5E1;stroke-dasharray:12.08,12.08;}
	.st1{opacity:0.5;fill:#94A3B8;enable-background:new    ;}
	.st2{fill:#020617;stroke:#1E293B;}
</style>
<path class="st0" d="M198.8,97h370.4c14.8,0,26.8,12,26.8,26.8v136.4c0,14.8-12,26.8-26.8,26.8H198.8c-14.8,0-26.8-12-26.8-26.8
	V123.8C172,109,184,97,198.8,97z"/>
<path class="st1" d="M503.4,232H264.6c-2.3,0-4.1-1.8-4.1-4.1v-12.8c0-2.3,1.8-4.1,4.1-4.1h238.8c2.3,0,4.1,1.8,4.1,4.1v12.8
	C507.5,230.1,505.7,232,503.4,232z"/>
<path class="st2" d="M428,142.9h-85.8c-2.6,0-4.7,2.1-4.7,4.7v32.9c0,2.6,2.1,4.7,4.7,4.7h31.9l9.9,9.9l9.9-9.9H428
	c2.6,0,4.7-2.1,4.7-4.7v-32.9C432.7,145,430.6,142.9,428,142.9z"/>
<path class="st1" d="M413,167.6h-56.7c-1.1,0-2.1-0.9-2.1-2.1v-5.1c0-1.1,0.9-2.1,2.1-2.1H413c1.1,0,2.1,0.9,2.1,2.1v5.1
	C415.1,166.7,414.1,167.6,413,167.6z"/>
</svg>
