<?xml version="1.0" encoding="utf-8"?>
<!-- Generator: Adobe Illustrator 28.1.0, SVG Export Plug-In . SVG Version: 6.00 Build 0)  -->
<svg version="1.1" id="Layer_1" xmlns="http://www.w3.org/2000/svg" xmlns:xlink="http://www.w3.org/1999/xlink" x="0px" y="0px"
	 viewBox="0 0 768 384" style="enable-background:new 0 0 768 384;" xml:space="preserve">
<style type="text/css">
	.st0{fill:none;stroke:#212121;stroke-dasharray:12.0753,12.0753;}
	.st1{fill:#FFFFFF;stroke:#212121;}
	.st2{opacity:0.5;fill:#94A3B8;enable-background:new    ;}
</style>
<g>
	<path class="st0" d="M611.2,264.6H156.8c-7.9,0-14.3-6.4-14.3-14.3V133.8c0-7.9,6.4-14.3,14.3-14.3h454.3c7.9,0,14.3,6.4,14.3,14.3
		v116.5C625.5,258.1,619.1,264.6,611.2,264.6z"/>
</g>
<path class="st1" d="M200.4,164.4h367.1c9.2,0,16.7,7.5,16.7,16.7V203c0,9.2-7.5,16.7-16.7,16.7H200.4c-9.2,0-16.7-7.5-16.7-16.7
	v-21.9C183.7,171.9,191.2,164.4,200.4,164.4z"/>
<path class="st2" d="M443.1,197H206.9c-1.8,0-3.3-1.5-3.3-3.3v-3.3c0-1.8,1.5-3.3,3.3-3.3h236.2c1.8,0,3.3,1.5,3.3,3.3v3.3
	C446.4,195.5,444.9,197,443.1,197z"/>
</svg>
