<?xml version="1.0" encoding="utf-8"?>
<!-- Generator: Adobe Illustrator 28.1.0, SVG Export Plug-In . SVG Version: 6.00 Build 0)  -->
<svg version="1.1" id="Layer_1" xmlns="http://www.w3.org/2000/svg" xmlns:xlink="http://www.w3.org/1999/xlink" x="0px" y="0px"
	 viewBox="0 0 768 384" style="enable-background:new 0 0 768 384;" xml:space="preserve">
<style type="text/css">
	.st0{fill:none;stroke:#212121;stroke-dasharray:12.0753,12.0753;}
	.st1{opacity:0.5;enable-background:new    ;}
	.st2{opacity:0.5;fill:#94A3B8;enable-background:new    ;}
	.st3{fill:none;stroke:#212121;stroke-width:3;}
</style>
<path class="st0" d="M563.4,300.9H204.6c-10,0-18.2-8.2-18.2-18.2V101.3c0-10,8.1-18.2,18.2-18.2h358.7c10,0,18.2,8.2,18.2,18.2
	v181.4C581.6,292.7,573.4,300.9,563.4,300.9z"/>
<g class="st1">
	<path class="st2" d="M503.5,188.3H236.8c-1.9,0-3.4-1.2-3.4-2.7v-2.7c0-1.5,1.6-2.7,3.4-2.7h266.7c1.9,0,3.4,1.2,3.4,2.7v2.7
		C506.9,187.1,505.4,188.3,503.5,188.3z"/>
	<path class="st2" d="M479.9,205.6H236.8c-1.9,0-3.4-1.2-3.4-2.7v-2.7c0-1.5,1.6-2.7,3.4-2.7h243.1c1.9,0,3.4,1.2,3.4,2.7v2.7
		C483.3,204.5,481.8,205.6,479.9,205.6z"/>
	<path class="st2" d="M495.2,222.9H236.8c-1.8,0-3.3-1.2-3.3-2.7v-2.7c0-1.5,1.5-2.7,3.3-2.7h258.4c1.8,0,3.3,1.2,3.3,2.7v2.7
		C498.5,221.7,497,222.9,495.2,222.9z"/>
	<path class="st2" d="M490.3,240.2H236.9c-1.9,0-3.5-1.2-3.5-2.7v-2.7c0-1.5,1.6-2.7,3.5-2.7h253.3c1.9,0,3.5,1.2,3.5,2.7v2.7
		C493.8,239,492.2,240.2,490.3,240.2z"/>
	<path class="st2" d="M423,257.5H236c-1.4,0-2.6-1.2-2.6-2.7v-2.7c0-1.5,1.2-2.7,2.6-2.7h187c1.4,0,2.6,1.2,2.6,2.7v2.7
		C425.7,256.3,424.5,257.5,423,257.5z"/>
</g>
<path class="st2" d="M295.1,144.6h-48.6c-0.3,0-0.6-1.2-0.6-2.7v-2.7c0-1.5,0.3-2.7,0.6-2.7h48.6c0.3,0,0.6,1.2,0.6,2.7v2.7
	C295.7,143.4,295.5,144.6,295.1,144.6z"/>
<path class="st2" d="M381.3,144.6h-48.6c-0.3,0-0.6-1.2-0.6-2.7v-2.7c0-1.5,0.3-2.7,0.6-2.7h48.6c0.3,0,0.6,1.2,0.6,2.7v2.7
	C381.9,143.4,381.6,144.6,381.3,144.6z"/>
<path class="st2" d="M456.9,144.6h-48.6c-0.3,0-0.6-1.2-0.6-2.7v-2.7c0-1.5,0.3-2.7,0.6-2.7h48.6c0.3,0,0.6,1.2,0.6,2.7v2.7
	C457.5,143.4,457.2,144.6,456.9,144.6z"/>
<path class="st2" d="M534,144.6h-48.6c-0.3,0-0.6-1.2-0.6-2.7v-2.7c0-1.5,0.3-2.7,0.6-2.7H534c0.3,0,0.6,1.2,0.6,2.7v2.7
	C534.6,143.4,534.3,144.6,534,144.6z"/>
<line class="st3" x1="237.5" y1="156.1" x2="304.1" y2="156.1"/>
</svg>
