<?xml version="1.0" encoding="utf-8"?>
<!-- Generator: Adobe Illustrator 28.1.0, SVG Export Plug-In . SVG Version: 6.00 Build 0)  -->
<svg version="1.1" id="b0dc27b4-ac01-4bcf-8250-299b18238fa0"
	 xmlns="http://www.w3.org/2000/svg" xmlns:xlink="http://www.w3.org/1999/xlink" x="0px" y="0px" viewBox="0 0 768 384"
	 style="enable-background:new 0 0 768 384;" xml:space="preserve">
<style type="text/css">
	.st0{fill:none;stroke:#212121;stroke-dasharray:12.08,12.08;}
	.st1{opacity:0.5;fill:#94A3B8;enable-background:new    ;}
</style>
<path class="st0" d="M198.8,97h370.4c14.8,0,26.8,12,26.8,26.8v136.4c0,14.8-12,26.8-26.8,26.8H198.8c-14.8,0-26.8-12-26.8-26.8
	V123.8C172,109,184,97,198.8,97z"/>
<g>
	<path class="st1" d="M493.8,190.5H250.6c-1.9,0-3.4-1.2-3.4-2.7v-2.7c0-1.5,1.6-2.7,3.4-2.7h243.1c1.9,0,3.4,1.2,3.4,2.7v2.7
		C497.1,189.3,495.6,190.5,493.8,190.5z"/>
	<path class="st1" d="M509,208.8H250.6c-1.8,0-3.3-1.2-3.3-2.7v-2.7c0-1.5,1.5-2.7,3.3-2.7H509c1.8,0,3.3,1.2,3.3,2.7v2.7
		C512.3,207.6,510.9,208.8,509,208.8z"/>
	<path class="st1" d="M504.1,229.1H250.8c-1.9,0-3.5-1.2-3.5-2.7v-2.7c0-1.5,1.6-2.7,3.5-2.7H504c1.9,0,3.5,1.2,3.5,2.7v2.7
		C507.6,227.8,506,229.1,504.1,229.1z"/>
	<path class="st1" d="M436.9,250.3h-187c-1.5,0-2.6-1.2-2.6-2.7v-2.7c0-1.5,1.1-2.7,2.6-2.7h187c1.5,0,2.6,1.2,2.6,2.7v2.8
		c0.1,1.4-1,2.6-2.4,2.6C437,250.4,436.9,250.4,436.9,250.3z"/>
	<path class="st1" d="M490.1,154.7H251.3c-2.3,0-4.1-1.8-4.1-4.1v-12.8c0-2.3,1.8-4.1,4.1-4.1h238.8c2.3,0,4.1,1.8,4.1,4.1v12.8
		C494.2,152.8,492.4,154.7,490.1,154.7z"/>
</g>
</svg>
