<?xml version="1.0" encoding="utf-8"?>
<!-- Generator: Adobe Illustrator 28.1.0, SVG Export Plug-In . SVG Version: 6.00 Build 0)  -->
<svg version="1.1" id="Layer_1" xmlns="http://www.w3.org/2000/svg" xmlns:xlink="http://www.w3.org/1999/xlink" x="0px" y="0px"
	 viewBox="0 0 768 384" style="enable-background:new 0 0 768 384;" xml:space="preserve">
<style type="text/css">
	.st0{fill:none;stroke:#212121;stroke-dasharray:12.0753,12.0753;}
	.st1{fill:#EAEFF4;stroke:#212121;}
	.st2{fill:#FFFFFF;stroke:#212121;}
	.st3{fill:#FFFFFF;stroke:#212121;stroke-width:5;stroke-linecap:round;stroke-linejoin:round;}
</style>
<g>
	<path class="st0" d="M611.2,315.6H156.8c-7.9,0-14.3-10.9-14.3-24.4V92.8c0-13.5,6.4-24.4,14.3-24.4h454.3
		c7.9,0,14.3,10.9,14.3,24.4v198.4C625.5,304.5,619.1,315.6,611.2,315.6z"/>
</g>
<g>
	<path class="st1" d="M247.6,199.7h-40.8c-5.7,0-10.2-4.6-10.2-10.2l0,0c0-5.7,4.6-10.2,10.2-10.2h40.8c5.7,0,10.2,4.6,10.2,10.2
		l0,0C257.8,195.1,253.2,199.7,247.6,199.7z"/>
	<path class="st1" d="M347.2,199.7h-40.8c-5.7,0-10.2-4.6-10.2-10.2l0,0c0-5.7,4.6-10.2,10.2-10.2h40.8c5.7,0,10.2,4.6,10.2,10.2
		l0,0C357.4,195.1,352.8,199.7,347.2,199.7z"/>
	<path class="st1" d="M445.4,199.7h-40.8c-5.7,0-10.2-4.6-10.2-10.2l0,0c0-5.7,4.6-10.2,10.2-10.2h40.8c5.7,0,10.2,4.6,10.2,10.2
		l0,0C455.7,195.1,451.1,199.7,445.4,199.7z"/>
	<path class="st1" d="M543.7,199.8h-40.8c-5.7,0-10.2-4.6-10.2-10.2l0,0c0-5.7,4.6-10.2,10.2-10.2h40.8c5.7,0,10.2,4.6,10.2,10.2
		l0,0C553.9,195.2,549.4,199.8,543.7,199.8z"/>
	<path class="st2" d="M252.2,213.5L252.2,213.5c-13.3,0-24.1-10.8-24.1-24.1l0,0c0-13.3,10.8-24.1,24.1-24.1l0,0
		c13.3,0,24.1,10.8,24.1,24.1l0,0C276.3,202.8,265.6,213.5,252.2,213.5z"/>
	
		<ellipse transform="matrix(0.1602 -0.9871 0.9871 0.1602 24.8477 408.0049)" class="st3" cx="252.2" cy="189.4" rx="5.6" ry="5.6"/>
	<path class="st2" d="M350.9,213.5L350.9,213.5c-13.3,0-24.1-10.8-24.1-24.1l0,0c0-13.3,10.8-24.1,24.1-24.1l0,0
		c13.3,0,24.1,10.8,24.1,24.1l0,0C375,202.8,364.2,213.5,350.9,213.5z"/>
	<circle class="st3" cx="350.9" cy="189.4" r="5.6"/>
	<path class="st2" d="M449.1,213.5L449.1,213.5c-13.3,0-24.1-10.8-24.1-24.1l0,0c0-13.3,10.8-24.1,24.1-24.1l0,0
		c13.3,0,24.1,10.8,24.1,24.1l0,0C473.2,202.7,462.5,213.5,449.1,213.5z"/>
	<circle class="st3" cx="449.1" cy="189.3" r="5.6"/>
	<path class="st2" d="M547.4,213.5L547.4,213.5c-13.3,0-24.1-10.8-24.1-24.1l0,0c0-13.3,10.8-24.1,24.1-24.1l0,0
		c13.3,0,24.1,10.8,24.1,24.1l0,0C571.5,202.8,560.7,213.5,547.4,213.5z"/>
	<circle class="st3" cx="547.4" cy="189.4" r="5.6"/>
</g>
</svg>
