<?xml version="1.0" encoding="utf-8"?>
<!-- Generator: Adobe Illustrator 28.1.0, SVG Export Plug-In . SVG Version: 6.00 Build 0)  -->
<svg version="1.1" id="Layer_1" xmlns="http://www.w3.org/2000/svg" xmlns:xlink="http://www.w3.org/1999/xlink" x="0px" y="0px"
	 viewBox="0 0 768 384" style="enable-background:new 0 0 768 384;" xml:space="preserve">
<style type="text/css">
	.st0{fill:none;stroke:#CBD5E1;stroke-dasharray:12.08,12.08;}
	.st1{fill:#020617;stroke:#1E293B;}
	.st2{opacity:0.5;fill:#94A3B8;enable-background:new    ;}
</style>
<g>
	<path class="st0" d="M611.2,264.6H156.8c-7.9,0-14.3-6.4-14.3-14.3V133.8c0-7.9,6.4-14.3,14.3-14.3h454.3c7.9,0,14.3,6.4,14.3,14.3
		v116.5C625.5,258.1,619.1,264.6,611.2,264.6z"/>
</g>
<path class="st1" d="M200.4,164.4h367.1c9.2,0,16.7,7.5,16.7,16.7V203c0,9.2-7.5,16.7-16.7,16.7H200.4c-9.2,0-16.7-7.5-16.7-16.7
	v-21.9C183.7,171.9,191.2,164.4,200.4,164.4z"/>
<path class="st2" d="M486.2,197H250c-1.8,0-3.3-1.5-3.3-3.3v-3.3c0-1.8,1.5-3.3,3.3-3.3h236.2c1.8,0,3.3,1.5,3.3,3.3v3.3
	C489.5,195.5,488,197,486.2,197z"/>
<path class="st2" d="M227.6,203.3l-5-5c1.7-2.1,2.7-4.8,2.7-7.6c0-6.8-5.5-12.3-12.3-12.3s-12.3,5.5-12.3,12.3S206.2,203,213,203
	c2.9,0,5.5-1,7.6-2.7l5,5c0.3,0.3,0.6,0.4,1,0.4s0.7-0.1,1-0.4C228.1,204.7,228.1,203.8,227.6,203.3z M203.5,190.6
	c0-5.3,4.3-9.5,9.5-9.5s9.5,4.3,9.5,9.5c0,2.6-1.1,5-2.8,6.7l0,0l0,0c-1.7,1.7-4.1,2.8-6.7,2.8C207.8,200.2,203.5,195.9,203.5,190.6
	z"/>
</svg>
