<?xml version="1.0" encoding="utf-8"?>
<!-- Generator: Adobe Illustrator 28.1.0, SVG Export Plug-In . SVG Version: 6.00 Build 0)  -->
<svg version="1.1" id="Layer_1" xmlns="http://www.w3.org/2000/svg" xmlns:xlink="http://www.w3.org/1999/xlink" x="0px" y="0px"
	 viewBox="0 0 768 384" style="enable-background:new 0 0 768 384;" xml:space="preserve">
<style type="text/css">
	.st0{fill:#020617;stroke:#1E293B;}
	.st1{fill:none;stroke:#CBD5E1;stroke-dasharray:12.08,12.08;}
	.st2{fill:#020617;}
	.st3{clip-path:url(#SVGID_00000053541051807992105390000018327073590620968843_);}
	.st4{fill:#C72DE2;}
	.st5{clip-path:url(#SVGID_00000044858820901994466930000004487481758339993782_);}
	.st6{fill:#D0434E;}
	.st7{fill:#FEF3DB;}
	.st8{fill:#88B5BD;}
	.st9{fill:#F2844F;}
	.st10{fill:#ED5E2D;}
	.st11{fill:#FCB492;}
	.st12{fill:#91332E;}
	.st13{fill:#453730;}
	.st14{fill:#BA6442;}
	.st15{fill:#16100D;}
	.st16{fill:#CC492F;}
	.st17{fill:#FCBB9C;}
	.st18{fill:#B75D38;}
	.st19{fill:#FCB897;}
	.st20{fill:#F95939;}
	.st21{fill:#FCBEA3;}
	.st22{fill:#8C2B26;}
	.st23{fill:#FBA886;}
	.st24{fill:#B65B36;}
	.st25{fill:#B95D38;}
	.st26{fill:#FBAF8D;}
	.st27{fill:#FA7A60;}
	.st28{fill:#76A1A9;}
	.st29{fill:#A3343E;}
	.st30{clip-path:url(#SVGID_00000062885851804605255210000017352789828469619342_);}
	.st31{fill:#806AEA;}
	.st32{clip-path:url(#SVGID_00000167363917727742446690000014749007628137666434_);}
	.st33{fill:#DFAF33;}
	.st34{fill:#38312D;}
	.st35{fill:#CA7852;}
	.st36{fill:#E56324;}
	.st37{fill:#FCB692;}
	.st38{fill:#160E0B;}
	.st39{fill:#FDB694;}
	.st40{fill:#BF6948;}
	.st41{fill:#BB613E;}
	.st42{fill:#FDB693;}
	.st43{fill:#BA5F3B;}
	.st44{fill:#FEB797;}
	.st45{fill:#FB9980;}
	.st46{fill:#FF8066;}
	.st47{fill:#B85C37;}
	.st48{fill:#B75B37;}
	.st49{fill:#FCB693;}
	.st50{fill:#B08C29;}
	.st51{clip-path:url(#SVGID_00000062883307936852261990000013691315240698365876_);}
	.st52{fill:#EDBD43;}
	.st53{clip-path:url(#SVGID_00000055672078140579171370000015693121005471532716_);}
	.st54{fill:#764074;}
	.st55{fill:#150F0C;}
	.st56{fill:#FDB697;}
	.st57{fill:#45362F;}
	.st58{fill:#FCB48E;}
	.st59{fill:#BE6547;}
	.st60{fill:#FBB38E;}
	.st61{fill:#B65A35;}
	.st62{fill:#FBB48F;}
	.st63{fill:#FBA187;}
	.st64{fill:#FFFFFF;}
	.st65{fill:#FBB898;}
	.st66{fill:#FFB18D;}
	.st67{fill:#4F2A4D;}
	.st68{fill:#444954;}
</style>
<path class="st0" d="M592.2,258.9H175.8c-7.9,0-14.3-7.8-14.3-17.5v-98.9c0-9.7,6.4-17.5,14.3-17.5h416.3c7.9,0,14.3,7.8,14.3,17.5
	v98.9C606.5,251.1,600.1,258.9,592.2,258.9z"/>
<g>
	<path class="st1" d="M611.2,275.3H156.8c-7.9,0-14.3-7.3-14.3-16.4V125.1c0-9.1,6.4-16.4,14.3-16.4h454.3c7.9,0,14.3,7.3,14.3,16.4
		v133.8C625.5,267.8,619.1,275.3,611.2,275.3z"/>
</g>
<g>
	<g>
		
			<ellipse transform="matrix(0.1602 -0.9871 0.9871 0.1602 47.3711 437.6781)" class="st2" cx="280.9" cy="191" rx="43.2" ry="43.2"/>
		<g>
			<g>
				<g>
					<g>
						<defs>
							<circle id="SVGID_00000046334538409199916340000015284646179027637418_" cx="280.9" cy="191" r="38.4"/>
						</defs>
						<clipPath id="SVGID_00000114051911511198342510000010314768224069900944_">
							<use xlink:href="#SVGID_00000046334538409199916340000015284646179027637418_"  style="overflow:visible;"/>
						</clipPath>
						<g style="clip-path:url(#SVGID_00000114051911511198342510000010314768224069900944_);">
							<g>
								<g>
									<rect id="SVGID_2_" x="242.4" y="152.6" class="st4" width="76.8" height="76.8"/>
								</g>
								<g>
									<g>
										<g>
											<g>
												<defs>
													
														<rect id="SVGID_00000088832180998340274510000009826126652527555240_" x="242.4" y="152.6" width="76.8" height="76.8"/>
												</defs>
												<clipPath id="SVGID_00000070110696105106734000000005792227463899664565_">
													<use xlink:href="#SVGID_00000088832180998340274510000009826126652527555240_"  style="overflow:visible;"/>
												</clipPath>
												<g style="clip-path:url(#SVGID_00000070110696105106734000000005792227463899664565_);">
													<g>
														<path class="st6" d="M281,165.1c0.7-0.1,1.3,0,2.1,0c0.6,0,1.2,0.1,1.7,0.2c0.8,0.1,1.5,0.4,2.2,0.8
															c0.4,0.2,0.8,0.4,1.2,0.6c0.6,0.4,1.3,0.6,1.8,1.1c0.5,0.4,1,0.7,1.4,1.1c0.8,0.7,1.6,1.5,2.3,2.4
															c0.3,0.4,0.5,0.8,0.8,1.3c0.4,0.6,0.6,1.3,1,2c0.4,1,0.8,2.1,1,3.1c0.2,0.9,0.2,1.8,0.3,2.8c0,1.2,0,2.3-0.1,3.5
															c0,0.4-0.1,0.9-0.1,1.4c-0.1,0.7-0.2,1.4-0.4,2.2c-0.2,0.9-0.4,1.8-0.5,2.8c-0.1,0.5-0.2,1-0.2,1.6
															c-0.1,0.7-0.1,1.3-0.1,2s0,1.2,0.1,1.8c0.1,0.5,0.1,1.2,0.3,1.7c0.5,1.7,1.1,3.4,1.4,5.2c0.1,0.8,0.3,1.7,0.3,2.5
															c0,0.6,0,1.3,0,1.9c0,0.4,0,0.9,0,1.4c0,0.4,0,0.8,0,1.1c0,1.1-0.2,2.2-0.4,3.3c-0.2,1-0.3,2.1-0.5,3.1
															c-0.1,0.4-0.1,0.7-0.1,1.1h-0.1c-0.4-0.1-0.8-0.4-1.3-0.6c-0.6-0.3-1.2-0.7-1.7-1c-0.7-0.4-1.3-0.9-1.7-1.5
															c-0.2-0.3-0.4-0.6-0.5-0.9c-0.2-0.4-0.3-0.8-0.4-1.3c-0.2-0.5-0.3-1.1-0.3-1.6c-0.1-0.5,0-1.1,0-1.7
															c0-1.1,0.2-2.1,0.3-3.1c0-0.6,0-1.3-0.1-1.8c-0.1-0.4-0.3-0.7-0.4-1c-0.2-0.3-0.4-0.6-0.6-0.8
															c-0.4-0.3-0.7-0.6-1.1-0.8c-0.5-0.3-1.2-0.4-1.7-0.6c-0.5-0.1-1.2,0-1.7,0c-1.1,0.1-2.2,0.2-3.2,0.3
															c-1.7,0.2-3.3,0.4-4.9,0.7c-0.4,0-0.8,0.1-1.3,0.2c-0.5,0.2-1.1,0.4-1.7,0.6c-1,0.4-1.9,1.1-2.6,1.9
															c-0.3,0.4-0.5,0.8-0.7,1.2c-0.3,0.8-0.4,1.6-0.4,2.4c0,1.3,0.3,2.4,0.3,3.7c0,0.6,0,1.2-0.1,1.7c0,0.2,0,0.4-0.1,0.6
															c-0.2,0.4-0.4,0.8-0.7,1.3c-0.2,0.4-0.4,0.6-0.6,0.9c-0.1,0.1-0.2,0.3-0.3,0.4c-0.1,0.1-0.3,0.2-0.4,0.3
															c-0.2-0.4-0.3-0.8-0.4-1.2c-0.2-0.4-0.4-1-0.5-1.4c-0.3-0.7-0.5-1.5-0.7-2.2c-0.2-0.5-0.3-1.2-0.4-1.7
															c-0.1-0.4-0.2-0.9-0.4-1.4c-0.1-0.5-0.1-1-0.2-1.5c-0.2-1.5-0.4-3.1-0.4-4.7c-0.1-1,0-2.1,0-3.1c0-0.9,0-1.7,0.1-2.6
															c0-0.7,0.1-1.3,0.2-2c0.1-1.6,0.1-3.1,0-4.8c0-1-0.2-2-0.2-3c0-0.7-0.1-1.4-0.2-2.1c0-0.4,0-0.9,0-1.4
															c0-0.7,0-1.4,0-2.1c0-1.3,0.1-2.5,0.4-3.7c0.2-0.7,0.3-1.4,0.4-2.1c0.2-0.8,0.4-1.6,0.7-2.2c0.4-0.7,0.7-1.3,1.2-2
															c0.8-1.2,1.9-2.2,3.1-3.1c0.7-0.5,1.4-1,2.2-1.4c0.8-0.4,1.5-0.6,2.3-0.8c0.6-0.2,1.3-0.2,2-0.4
															c0.4-0.1,0.8-0.1,1.2-0.1c0.3,0,0.5,0,0.8,0c0.4-0.2,0.8-0.3,1.2-0.4C280.3,165.1,280.6,165.1,281,165.1z"/>
														<path class="st7" d="M318,246.9c0.2-0.3,0.3-0.6,0.3-1c-0.2-3.3-0.8-6.6-1.8-9.8c-0.5-1.6-1.2-3.2-2-4.8
															c-0.7-1.5-1.6-2.9-2.6-4.1c-0.2-0.2-0.4-0.4-0.5-0.5c0,0,0-0.1-0.1-0.1c-0.7-1-1.6-1.8-2.6-2.4
															c-0.1-0.1-0.3-0.3-0.4-0.4c-0.3-0.3-0.5-0.4-0.9-0.4c-0.1-0.1-0.2-0.2-0.3-0.2c-0.8-0.5-1.6-1-2.5-1.4
															c-0.6-0.3-1.2-0.6-1.7-0.9c-0.7-0.4-1.5-0.8-2.2-1.2c-0.6-0.3-1.2-0.6-1.7-0.9c-0.6-0.4-1.3-0.6-1.9-1.1
															c-0.2-0.1-0.4-0.2-0.5-0.4h-0.1c-0.4-0.1-0.8-0.4-1.3-0.6c-0.6-0.3-1.2-0.7-1.7-1c-0.7-0.4-1.3-0.9-1.7-1.5
															c-0.2-0.3-0.4-0.6-0.5-0.9c-0.2-0.4-0.3-0.8-0.4-1.3c-0.2-0.5-0.3-1.1-0.3-1.6c-0.1-0.5,0-1.1,0-1.7
															c0-1.1,0.2-2.1,0.3-3.1c0-0.6,0-1.3-0.1-1.8c-0.1-0.4-0.3-0.7-0.4-1s-0.4-0.6-0.6-0.8c-0.4-0.3-0.7-0.5-1.1-0.8
															c-0.5-0.3-1.2-0.4-1.7-0.6c-0.5-0.1-1.2,0-1.7,0c-1.1,0-2.2,0.2-3.2,0.3c-1.7,0.2-3.3,0.4-4.9,0.7
															c-0.4,0-0.8,0.1-1.3,0.2c-0.5,0.2-1.1,0.4-1.7,0.6c-1,0.4-1.9,1.1-2.6,1.9c-0.3,0.4-0.5,0.8-0.7,1.2
															c-0.3,0.8-0.4,1.6-0.4,2.4c0,1.3,0.3,2.4,0.3,3.7c0,0.6,0,1.2-0.1,1.7c0,0.2,0,0.4-0.1,0.6c-0.2,0.4-0.4,0.8-0.7,1.3
															c-0.2,0.4-0.4,0.6-0.6,0.9c-0.1,0.1-0.2,0.3-0.3,0.4s-0.3,0.2-0.4,0.3c-0.5,0.6-1.2,1.2-1.9,1.6
															c-1.2,0.9-2.5,1.7-3.8,2.4c-0.8,0.5-1.7,1-2.6,1.4c-1.4,0.8-2.7,1.7-4,2.7c-0.7,0.5-1.3,1-2,1.5s-1.2,1.1-1.7,1.7
															c-0.5,0.5-1.1,1-1.5,1.6c-0.1,0.2-0.3,0.3-0.4,0.4c-0.3,0.2-0.6,0.4-0.9,0.7c-0.4,0.4-0.8,0.9-1.3,1.4
															s-0.8,1.2-1.2,1.7c-0.7,1.3-1.2,2.6-1.5,4c-0.4,1.5-0.6,3-0.8,4.5s-0.4,3.1-0.6,4.6h74.2v-0.1L318,246.9L318,246.9z"
															/>
														<path class="st8" d="M289,204c0.1-0.1,0.2-0.2,0.4-0.3c0,0.2-0.2,0.3-0.3,0.4c-0.1,0.1-0.1,0.3-0.2,0.4
															c-0.6,0.6-1.3,1.2-1.9,1.8c-0.8,0.8-1.6,1.6-2.1,2.6c-0.4,0.6-0.8,1.3-1.3,1.9c-1,1.2-2.4,2.1-4,2.2
															c-0.4,0-0.8,0-1.3-0.1c-0.7-0.2-1.3-0.5-1.9-1c-0.4-0.3-0.6-0.6-0.9-1c-0.2-0.3-0.5-0.4-0.8-0.7
															c-0.6-0.5-1.3-1.1-2-1.7c-0.6-0.5-1.1-1.3-1.3-2c-0.1-0.4-0.1-0.6-0.2-1c0-0.3-0.1-0.5,0-0.8c0-0.1,0.1-0.1,0.1-0.1
															s0,0.1,0.1,0.2c0.4,0.1,0.4,0.5,0.7,0.5c0.1,0.3,0.4,0.4,0.5,0.5s0.2,0.1,0.3,0.1c0.1,0.1,0.2,0.3,0.3,0.4
															c0.1,0.2,0.3,0.2,0.4,0.3c0.3,0.2,0.5,0.4,0.8,0.5s0.6,0.3,0.9,0.5c0.2,0.1,0.4,0.2,0.5,0.3c0.2,0.3,0.5,0.4,0.8,0.5
															c0.1,0.1,0.1,0.2,0.3,0.3c0.4,0.1,0.8,0.3,1.1,0.4c0.3,0.1,0.5,0.1,0.8,0.3c0.2,0,0.4,0,0.4,0c0.6,0,1.2,0,1.8,0
															c0.8-0.3,1.5-0.5,2.2-0.9c0.4-0.2,0.7-0.4,1-0.7c0.1-0.2,0.3-0.3,0.4-0.4c0.1-0.1,0.2-0.1,0.3-0.3
															c0.1-0.2,0.2-0.4,0.4-0.5c0.4-0.4,0.7-0.6,1.1-0.8s0.6-0.4,0.8-0.7c0.3-0.3,0.5-0.4,0.8-0.7
															C288.6,204.4,288.8,204.2,289,204z"/>
													</g>
													<g>
														<path class="st9" d="M278.4,171.2c0.2-0.1,0.4-0.3,0.5-0.4c0.4,0.5,1,1,1.6,1.3h-0.1c0.2,0.4,0.4,0.6,0.7,0.9
															c0.4,0.5,0.9,1,1.4,1.5c1.1,0.9,2.3,1.7,3.6,2.3c1.3,0.6,2.5,1.3,3.7,2.1c1.2,0.9,2.2,1.9,2.9,3.2
															c0.2,0.4,0.4,0.7,0.5,1c0,0.1,0.1,0.3,0.2,0.4c0.1,0.1,0,0.3,0,0.4c0,0.5,0,1.2,0,1.7c0,0.6-0.1,1.3-0.1,2
															c0,0.5-0.1,1-0.2,1.5c-0.1,0.6-0.3,1.3-0.4,1.8c-0.2,0.8-0.4,1.7-0.7,2.5c-0.1,0.4-0.3,0.9-0.4,1.4
															c-0.2,0.4-0.3,0.8-0.4,1.3c-0.2,0.7-0.4,1.3-0.7,2c-0.4,1-0.9,2-1.3,3V201c-0.1,0.2-0.2,0.3-0.3,0.4
															c-0.4,0.7-0.6,1.3-1.1,2c-0.3,0.5-0.6,1-0.9,1.5c-0.2,0.4-0.4,0.7-0.7,1c-0.1,0.2-0.3,0.4-0.4,0.5
															c-0.2,0.3-0.4,0.5-0.7,0.8c-0.4,0.4-0.8,0.6-1.1,1c-0.2,0.2-0.4,0.4-0.6,0.4c-0.4,0.2-0.7,0.4-1.1,0.5
															c-0.6,0.2-1.2,0.3-1.8,0.3c-0.5,0-1,0-1.5,0c-0.8-0.1-1.5-0.3-2.2-0.7c-0.4-0.3-0.8-0.5-1.3-0.8c0,0-0.1,0-0.2-0.1
															c0,0,0.1,0,0.2,0v-0.1c-0.3-0.1-0.4-0.4-0.6-0.5c-0.8-0.8-1.6-1.8-2.2-2.8c-0.1-0.2-0.3-0.4-0.4-0.7
															c-0.2-0.3-0.4-0.4-0.4-0.8c0,0.1-0.1,0.2-0.1,0.3c-0.3-0.4-0.5-0.9-0.7-1.3c-0.3-0.5-0.4-1.1-0.8-1.6
															c-0.5-1.1-1.1-2.2-1.4-3.3c0,0,0-0.1-0.1-0.2c-0.1-0.3-0.1-0.6-0.3-0.8c-0.3-0.9-0.5-1.8-0.8-2.7
															c-0.1-0.4-0.2-0.6-0.2-1c0.2,0.3,0.3,0.5,0.4,0.8c0.4,0.8,0.6,1.6,0.9,2.4c0,0.1,0,0.2,0,0.3c0,0,0,0,0.1,0
															c0-0.4-0.1-0.6-0.2-1s-0.2-0.8-0.3-1.3c-0.1-0.4-0.3-1-0.4-1.4c-0.4-0.8-0.6-1.6-0.8-2.5c-0.1-0.5-0.2-1.1-0.2-1.6
															c0-0.4,0-1,0-1.4c0-0.6,0.1-1.3,0.2-1.8c0,0,0,0.1,0,0.2c0.1-0.3,0.2-0.5,0.4-0.8c0.3-0.6,0.6-1.3,1-1.9
															c0.4-0.7,0.9-1.4,1.5-2.1c1-1.1,2.2-2.1,3.3-3.1c0.4-0.4,1-0.8,1.4-1.3c0.7-0.7,1.4-1.3,2.1-2.1
															c0.4-0.5,0.9-1.1,1.3-1.7C278.2,171.8,278.4,171.5,278.4,171.2C278.5,171.2,278.4,171.2,278.4,171.2z"/>
														<path class="st10" d="M276.7,172.2c0.6-0.3,1.2-0.7,1.7-1h0.1c-0.1,0.3-0.4,0.5-0.5,0.8c-0.4,0.5-0.8,1.1-1.3,1.7
															c-0.6,0.8-1.4,1.4-2.1,2.1c-0.4,0.4-1,0.8-1.4,1.3c-1.1,1-2.3,1.9-3.3,3.1c-0.5,0.6-1.1,1.3-1.5,2.1
															c-0.4,0.6-0.7,1.3-1,1.9c-0.1,0.3-0.2,0.5-0.4,0.8c0,0,0-0.1,0-0.2c0.1-0.6,0.2-1.2,0.3-1.8c0.3-1.3,0.8-2.5,1.5-3.6
															c0.4-0.7,1-1.4,1.5-2c0.4-0.4,0.8-0.9,1.3-1.3c0.4-0.4,0.7-0.6,1.1-1C274,173.9,275.3,172.9,276.7,172.2z"/>
														<path class="st10" d="M280.4,172L280.4,172c0.4,0.2,0.8,0.4,1.1,0.5c0.6,0.3,1.2,0.6,1.9,0.8c0.4,0.1,0.7,0.3,1.1,0.4
															c0.8,0.3,1.5,0.5,2.2,0.8c0.8,0.3,1.5,0.6,2.2,1.2c0.4,0.2,0.6,0.5,0.9,0.8c0.4,0.4,0.7,0.8,1,1.2
															c0.4,0.4,0.7,0.8,0.9,1.3c0.5,0.8,1,1.7,1.3,2.7c0.1,0.5,0.4,1,0.4,1.6c-0.1-0.1-0.1-0.3-0.2-0.4
															c-0.1-0.4-0.4-0.7-0.5-1c-0.7-1.3-1.7-2.3-2.9-3.2c-1.2-0.8-2.4-1.5-3.7-2.1c-1.3-0.6-2.5-1.4-3.6-2.3
															c-0.5-0.4-1-1-1.4-1.5C280.9,172.6,280.6,172.3,280.4,172z"/>
														<path class="st10" d="M294.7,188c0.1-0.6,0.2-1.2,0.2-1.8c0.4,0,0.9,0.1,1.3,0.4c0.3,0.2,0.4,0.5,0.5,0.8
															c0.1,0.4,0.1,1,0.1,1.5c0,0.9-0.2,1.9-0.4,2.7c-0.2,0.7-0.4,1.3-0.8,1.9c-0.5,0.9-1.3,1.8-2.1,2.4
															c0-0.6,0-1.2,0.1-1.8c0.1-1,0.3-2.1,0.5-3.1C294.3,190.1,294.5,189.1,294.7,188z"/>
														<path class="st10" d="M286,186.5c0.8,0,1.6,0,2.4,0c0.3,0,0.6,0.1,0.9,0.2c0.1,0,0.3,0,0.3,0.2
															c-0.1,0-0.2,0.1-0.3,0.2c-0.2,0.2-0.4,0.3-0.7,0.4c-0.8,0.5-1.8,1-2.8,1.3c-0.4,0.1-0.9,0.1-1.4,0c-0.3,0-0.5,0-0.8,0
															c-0.4,0-0.8,0-1.2,0s-0.8,0-1.2-0.1c-0.1,0-0.2-0.1-0.2-0.2c0-0.5,0.4-0.9,0.8-1.3c0.1-0.1,0.3,0,0.4-0.1
															c0.1,0,0.2-0.1,0.3-0.1c0.6-0.1,1.2-0.2,1.7-0.3C284.8,186.6,285.5,186.5,286,186.5z"/>
														<path class="st10" d="M272.1,186.7c0.4,0,0.8,0,1.3,0s1,0.1,1.5,0.2c0.4,0.1,1,0.2,1.4,0.4c0.3,0.2,0.5,0.4,0.8,0.6
															c0,0,0,0.1,0,0.2c0,0-0.1,0-0.2,0.1c-0.9,0.1-1.7,0.2-2.6,0.4c-0.4,0-0.9,0.2-1.4,0.3c-0.4,0-0.7,0-1.1,0
															c-0.5,0-1.1-0.1-1.6-0.2c-0.4-0.1-0.7-0.2-1.1-0.3c-0.3-0.1-0.5-0.2-0.8-0.3c-0.2-0.1-0.4-0.1-0.6-0.2
															c-0.1,0-0.1-0.2,0-0.2s0.3,0,0.4-0.1c0.1,0,0.2-0.2,0.3-0.2c0.4-0.1,0.8-0.1,1.3-0.2
															C270.4,186.9,271.3,186.8,272.1,186.7z"/>
														<path class="st10" d="M264.1,187.5c0.3-0.4,0.6-0.6,1.1-0.7c0.2,0,0.4,0,0.7,0c0,0.5,0.1,1,0.2,1.5s0.3,1.1,0.4,1.6
															c0.1,0.4,0.3,0.7,0.4,1.1c0.2,0.4,0.4,0.8,0.5,1.2c0,0.4,0.1,0.6,0.2,1c0.2,0.9,0.4,1.8,0.8,2.7
															c0.1,0.3,0.2,0.5,0.3,0.8v0.1c-0.4,0-0.7-0.1-1-0.2c-0.4,0-0.7-0.1-1-0.3c-0.4-0.2-0.8-0.6-1.3-0.9
															c-0.5-0.4-0.8-1.1-1.2-1.7s-0.6-1.3-0.8-2.2c-0.1-0.4-0.1-1-0.1-1.4c0.1-0.6,0.1-1.3,0.3-1.9
															C263.7,188.1,263.8,187.8,264.1,187.5z"/>
														<path class="st9" d="M296.3,190.3C296.5,190.3,296.3,190.4,296.3,190.3L296.3,190.3z"/>
														<path class="st10" d="M278.7,197.4c0.1,0,0.3,0,0.4,0c0.2,0,0.1,0.2,0.1,0.3c-0.1,0.2-0.2,0.4-0.3,0.5
															c-0.2,0.3-0.4,0.5-0.6,0.8c-0.1,0.1-0.3,0-0.4,0c-0.1-0.2-0.1-0.4-0.1-0.5c0-0.3-0.1-0.5,0-0.8c0-0.1,0.1-0.1,0.2-0.1
															C278.3,197.5,278.5,197.4,278.7,197.4z"/>
														<path class="st10" d="M288.9,201.4c0.1-0.1,0.2-0.3,0.3-0.4v0.1c0,0.4-0.1,0.8-0.1,1.3c-0.1,0.5-0.1,1.2-0.2,1.7
															c-0.1,0.2-0.4,0.4-0.5,0.5c-0.6,0.5-1.3,1.1-2.1,1.6c-0.1,0.1-0.3,0.2-0.4,0.2c0-0.2,0.2-0.4,0.4-0.5
															c0.3-0.4,0.5-0.6,0.7-1c0.3-0.5,0.6-1,0.9-1.5C288.2,202.9,288.6,202.2,288.9,201.4z"/>
														<path class="st10" d="M271.6,203.1c0-0.1,0-0.2,0.1-0.3c0.1,0.3,0.3,0.5,0.4,0.8c0.2,0.2,0.3,0.4,0.4,0.7
															c0.6,1,1.3,2,2.2,2.8c0.2,0.2,0.4,0.4,0.6,0.5v0.1c0,0-0.1,0-0.2,0c-0.3,0-0.4-0.2-0.7-0.4c-0.8-0.4-1.4-0.9-2.2-1.4
															c-0.1-0.1-0.3-0.2-0.4-0.4l-0.1-0.1c0-0.1-0.1-0.3-0.1-0.4c0-0.4-0.1-0.8-0.2-1.1
															C271.7,203.7,271.6,203.4,271.6,203.1L271.6,203.1z"/>
														<path class="st10" d="M278.5,203.4c0.4-0.1,0.8-0.2,1.3-0.1c0.5,0,1,0.1,1.4,0.4c0.3,0.1,0.5,0.2,0.8,0.4
															c0.1,0,0.2,0.2,0.3,0.3c-0.1,0-0.2-0.1-0.4-0.1s-0.4,0-0.4,0c-0.4,0-0.9-0.1-1.3-0.1c-0.5,0-1.1,0-1.6,0
															c-0.4,0.1-0.8,0.2-1.3,0.3C277.6,203.9,278.1,203.5,278.5,203.4z"/>
													</g>
													<g>
														<path class="st11" d="M273.2,178.7c0.1-0.1,0.3-0.2,0.4-0.2c0,0.1,0,0.2-0.1,0.2c-0.9,0.5-1.6,1.3-2.3,2
															c0,0-0.1,0-0.2,0c0-0.3,0.2-0.4,0.4-0.5C272,179.6,272.5,179.1,273.2,178.7z"/>
														<g>
															<path class="st12" d="M295.9,179.7c-0.2-0.9-0.4-1.9-0.7-2.8c-0.4-0.9-0.8-1.9-1.3-2.7c-0.6-0.8-1.3-1.7-1.9-2.5
																c-0.8-0.8-1.5-1.7-2.4-2.3c-0.6-0.4-1.2-0.9-1.8-1.3s-1.3-0.8-2-1.1c-0.5-0.2-1.1-0.4-1.6-0.5
																c-0.5-0.2-1.1-0.3-1.6-0.4c-0.4-0.1-0.8-0.2-1.3-0.2c-0.2-0.1-0.4,0-0.7-0.1v0.1c0.1,0,0.2,0.1,0.3,0.1
																c0.7,0.1,1.4,0.2,2.1,0.4c1.5,0.4,3,0.8,4.2,1.6c0.5,0.4,1.1,0.7,1.6,1.1c0.5,0.4,1.1,0.8,1.6,1.3
																c0.8,0.7,1.5,1.5,2.2,2.4c0.6,0.8,1.3,1.6,1.7,2.5c0.4,0.8,0.8,1.6,1,2.5c0.2,0.8,0.4,1.6,0.5,2.3
																c0.1,0.6,0.2,1.3,0.2,1.9c0,0.5-0.1,1.1-0.1,1.7c0,0.2-0.1,0.4,0,0.6l0,0c0,0.2-0.1,0.4-0.1,0.7
																c0,0.2-0.1,0.4-0.1,0.5c0,0,0,0,0.1,0c0.1-0.4,0.3-0.8,0.3-1.3l0,0c0.1-0.4,0.2-0.9,0.2-1.4
																C296.1,181.7,296.1,180.7,295.9,179.7z"/>
															<path class="st12" d="M280.4,167.6L280.4,167.6c-0.1,0.2,0.1,0.3,0.2,0.4c0.5,0.6,1.2,1.1,1.9,1.6
																c0.6,0.4,1.3,0.8,2,1.2c0.9,0.4,1.9,0.9,2.8,1.4c1.2,0.6,2.2,1.2,3.3,2c0.6,0.4,1.3,0.9,1.8,1.5c0,0,0.1,0.1,0.2,0.1
																l0,0c0.1,0.1,0.2,0.2,0.3,0.3l0,0c0,0.1,0,0.1,0.1,0.1c-0.1-0.1-0.2-0.2-0.3-0.4s-0.3-0.4-0.4-0.4
																c-1.2-1.1-2.4-2-3.8-2.8c-0.8-0.4-1.6-0.8-2.4-1.3c-0.6-0.4-1.3-0.6-2-1c-0.6-0.4-1.3-0.8-1.9-1.2
																c-0.5-0.4-1-0.8-1.4-1.2l0,0C280.6,167.7,280.5,167.6,280.4,167.6z"/>
															<path class="st12" d="M272,174c1.3-1,2.8-1.8,4.2-2.7c0.8-0.5,1.6-1,2.2-1.7c0.1-0.1,0.3-0.3,0.2-0.5
																c-0.4,0.5-0.8,0.9-1.3,1.3c-0.6,0.4-1.3,0.9-1.9,1.3c-0.8,0.4-1.6,1-2.4,1.5c-0.7,0.4-1.3,1-2,1.5
																c-1.8,1.6-3.3,3.5-4,5.8c0,0.1,0,0.2,0,0.3l0,0c-0.4,1.3-0.6,2.5-0.6,3.9c0,0.4,0,0.7,0,1.1c0,0.2,0,0.4,0,0.5
																c0.1-1.1,0.1-2.2,0.3-3.3c0.1-0.6,0.3-1.3,0.4-1.8c0.3-1.1,0.8-2.1,1.4-3.1C269.3,176.5,270.5,175.1,272,174z"/>
															<path class="st12" d="M294.2,183.6c0-0.6,0-1.3-0.2-1.9c-0.2-0.8-0.4-1.7-0.7-2.4c-0.4-0.9-0.9-1.8-1.6-2.7
																c-0.3-0.4-0.7-0.8-1.1-1.2s-0.8-0.7-1.3-1c-0.4-0.4-1-0.6-1.4-0.8c-0.8-0.4-1.7-0.7-2.5-1.1
																c-0.7-0.3-1.5-0.6-2.2-0.9c-0.7-0.4-1.4-0.8-2.1-1.3c-0.4-0.3-0.7-0.7-0.9-1.1c-0.3-0.4-0.4-0.8-0.5-1.3
																c0-0.1,0-0.2,0-0.3c-0.2,0-0.1,0.2-0.1,0.3c0.1,0.5,0.3,1,0.5,1.4c0.3,0.4,0.5,0.8,1,1.2c0.4,0.4,0.8,0.6,1.3,0.8
																c0.4,0.2,0.7,0.4,1,0.5c0.4,0.2,0.9,0.4,1.3,0.6c0.4,0.2,0.9,0.4,1.3,0.5c1.3,0.5,2.7,1.2,3.9,2.1
																c0.4,0.4,0.8,0.7,1.2,1.2c1.7,1.8,2.6,4.2,2.8,6.7c0,0.5,0,1,0,1.5c0,0.2,0,0.4,0,0.5c-0.1,1.1-0.1,2.1-0.4,3.1
																c0.1,0,0.1-0.1,0.1-0.2c0.2-0.9,0.3-1.9,0.4-2.9c0-0.2,0-0.4,0-0.5C294.3,184.3,294.2,184,294.2,183.6z"/>
															<path class="st12" d="M278.6,170.6c-0.2,0.3-0.5,0.5-0.8,0.8c-0.4,0.4-0.9,0.5-1.4,0.8c-0.4,0.2-0.7,0.4-1,0.5
																c-0.4,0.3-0.8,0.5-1.2,0.8s-0.7,0.5-1.1,0.8c-0.1,0.1-0.2,0.1-0.3,0.2c-0.3,0.2-0.4,0.4-0.7,0.5
																c-0.4,0.4-0.8,0.7-1.3,1.1c-0.5,0.6-1,1.3-1.4,1.9c-0.4,0.7-0.8,1.3-1.2,2.1c-0.2,0.3-0.3,0.6-0.4,0.9
																c-0.3,0.7-0.5,1.3-0.7,2.2c0,0.1,0,0.2,0,0.3c0.1-0.9,0.5-1.8,0.9-2.6c0.1-0.3,0.3-0.4,0.4-0.7
																c0.6-1.1,1.3-2.1,2-3.1c0.5-0.7,1.2-1.3,1.8-1.8l0,0c0.5-0.5,1.2-0.9,1.8-1.3c1.1-0.7,2.2-1.3,3.3-2
																C277.8,171.7,278.3,171.2,278.6,170.6c0.3-0.1,0.3-0.3,0.3-0.5C278.7,170.3,278.7,170.4,278.6,170.6z"/>
															<path class="st12" d="M267.3,176c-0.1,0.3-0.3,0.5-0.3,0.8c0,0,0,0,0.1,0c0.1-0.3,0.2-0.5,0.4-0.8
																c0.4-0.8,0.8-1.5,1.3-2.2c0.7-1,1.4-2,2.3-2.9c1.2-1.3,2.6-2.2,4.2-2.9c1-0.4,2.1-0.7,3-1.2c0,0,0,0,0-0.1
																c-0.5,0.2-1.1,0.4-1.7,0.5c-0.4,0.1-0.7,0.2-1.1,0.4c-0.7,0.3-1.4,0.6-2.1,1c-1.5,0.9-2.8,2.2-3.9,3.7
																c-0.3,0.4-0.6,0.8-0.9,1.3c0,0,0,0,0,0.1l0,0C268.2,174.5,267.8,175.2,267.3,176z"/>
															<path class="st12" d="M265.8,180.2c0-0.4,0.1-0.9,0.2-1.4c0-0.2,0-0.4,0.1-0.4c0.1-0.6,0.3-1.3,0.4-1.9
																c0.3-1,0.6-2,1.2-2.9c0.7-1.3,1.5-2.4,2.5-3.3c0.6-0.6,1.3-1.1,2-1.6c0.5-0.4,1.1-0.7,1.6-0.9
																c0.7-0.4,1.4-0.6,2.2-0.9c0.7-0.3,1.5-0.4,2.2-0.6c-0.1,0-0.3,0-0.4,0c-1.4,0.3-2.7,0.8-4,1.4
																c-0.6,0.3-1.3,0.7-1.8,1.1c-1.2,0.8-2.2,1.7-3.1,2.7c-0.6,0.7-1.1,1.5-1.6,2.4c-0.4,0.7-0.7,1.4-0.9,2.2
																c-0.2,0.7-0.4,1.4-0.4,2.2c0,0.2-0.1,0.4-0.1,0.6c0,0.1,0,0.2,0,0.2c0,0.5-0.1,1-0.1,1.5
																C265.8,180.5,265.8,180.3,265.8,180.2z"/>
															<path class="st12" d="M295.2,180.9L295.2,180.9c0-0.1,0-0.3-0.1-0.4c-0.1-0.6-0.2-1.2-0.4-1.7
																c-0.2-0.9-0.6-1.7-1-2.5c-0.4-0.9-1-1.7-1.7-2.5c-0.6-0.7-1.3-1.3-2.2-2c-1.1-0.8-2.2-1.6-3.4-2.2
																c-0.1-0.1-0.3-0.2-0.4-0.2l0,0c-0.6-0.4-1.3-0.7-1.9-1c-0.8-0.4-1.7-0.8-2.5-1.2c-0.5-0.2-1-0.4-1.5-0.4
																c0,0,0,0,0,0.1c0.4,0.1,0.9,0.3,1.3,0.4c0.8,0.4,1.7,0.7,2.5,1.2c0.6,0.4,1.3,0.7,1.9,1c1,0.6,2,1.3,3,1.9
																c0.9,0.6,1.7,1.3,2.5,2.2s1.4,1.6,2,2.6c0.4,0.8,0.8,1.5,1,2.3c0.3,0.8,0.4,1.7,0.6,2.6L295.2,180.9
																c-0.1,0.2-0.1,0.3-0.1,0.4c0.1,0.4,0.1,0.9,0.1,1.4c0,0,0.1-0.1,0.1-0.2C295.3,182,295.2,181.6,295.2,180.9z"/>
															<path class="st12" d="M293.2,182.6c-0.1-0.5-0.3-1.1-0.4-1.6c-0.4-0.8-0.7-1.7-1.3-2.4c-0.4-0.4-0.7-1-1.1-1.4l0,0
																c0-0.1-0.1-0.2-0.2-0.3c-0.6-0.8-1.4-1.4-2.3-1.9c-0.8-0.4-1.7-0.8-2.5-1.2c-0.9-0.3-1.7-0.7-2.6-1
																c-0.8-0.4-1.5-0.7-2.3-1.1c-0.4-0.2-0.5-0.2-0.8-0.5l-0.3-0.2c0-0.2-0.2-0.4-0.3-0.5c-0.1-0.4-0.2-0.8-0.2-1.3
																c0-1.2,0.1-1.3,0-2c0-0.1,0-0.3,0-0.4h-0.1c-0.1,0.3,0,0.5,0,0.8c0,0.4,0,0.6,0,0.9c0,0.3,0,0.5,0,0.8
																c0,0.2,0,0.4,0,0.5s0,0.4,0.1,0.6l0,0c0,0.1,0,0.3,0.1,0.4c0.2,0.4,0.6,0.8,1.1,1.1c0.8,0.4,1.6,0.8,2.4,1.2
																c0.4,0.2,0.9,0.4,1.4,0.5c0.8,0.4,1.7,0.6,2.5,0.9c0.7,0.3,1.3,0.6,2,1s1.3,1,1.8,1.7s1.1,1.4,1.6,2.2
																c0.3,0.4,0.4,0.9,0.6,1.4c0.1,0.3,0.3,0.5,0.4,0.9s0.2,0.7,0.3,1.1c0,0.4,0.1,0.8,0.2,1.2c0.1,0.7,0.1,1.5,0.1,2.2
																c0,0.9-0.1,1.8-0.2,2.8c0.1-0.1,0-0.2,0.1-0.4c0-0.4,0.1-0.8,0.1-1.3c0.1-1,0.2-2.1,0.1-3.1
																C293.4,183.6,293.3,183.1,293.2,182.6z"/>
															<path class="st12" d="M295.2,184c0,0.2-0.1,0.4-0.1,0.5c0,0.2-0.1,0.4,0,0.6c0,0.3,0,0.6-0.1,1c0,0,0.1,0.1,0.2,0.1
																c0-0.3,0-0.6,0-0.8C295.2,184.9,295.2,184.5,295.2,184z"/>
															<path class="st12" d="M265.7,184.6c0-1.1,0.1-2.2,0.3-3.2c0.1-0.8,0.4-1.5,0.6-2.2c0.1-0.3,0.2-0.4,0.4-0.7
																c0.1-0.3,0.3-0.5,0.4-0.8l0,0c0.3-0.5,0.7-1.1,1.1-1.6c0.5-0.6,1.1-1.3,1.7-1.8c0.5-0.5,1.1-1,1.7-1.5
																c0.1-0.1,0.3-0.2,0.4-0.4l0,0c0.7-0.5,1.4-1,2.2-1.5c0.9-0.5,1.8-1.1,2.6-1.7c0.5-0.4,1.1-0.8,1.5-1.4v-0.1
																c-0.2,0-0.3,0.2-0.4,0.3c-0.5,0.5-1.2,1.1-1.8,1.5c-0.6,0.4-1.3,0.8-1.9,1.2c-0.8,0.5-1.6,1.1-2.4,1.7
																c-0.6,0.5-1.3,1.1-1.9,1.6c-0.6,0.6-1.2,1.3-1.7,1.9c-0.4,0.5-0.8,1.1-1.2,1.7c-0.3,0.5-0.5,1-0.8,1.5
																c-0.2,0.4-0.3,0.9-0.4,1.3c-0.3,0.9-0.4,2-0.4,3C265.7,183.8,265.7,184.1,265.7,184.6c0,0.1,0,0.3,0,0.6
																c0,0.4,0,0.6,0,1h0.1C265.6,185.6,265.7,185.1,265.7,184.6z"/>
														</g>
														<path class="st13" d="M270.1,186.5c0.5-0.1,1.1-0.2,1.6-0.2c0.6,0,1.3,0,2,0.1c0.8,0.1,1.7,0.3,2.5,0.7
															c0.2,0.1,0.4,0.2,0.5,0.4c-0.2,0-0.4,0-0.5,0c-0.4-0.1-0.8-0.1-1.1-0.2c-0.4-0.1-0.9-0.2-1.4-0.2c-0.6,0-1.3,0-1.9,0
															c-0.8,0-1.5,0.1-2.3,0.2c-0.4,0.1-0.8,0.1-1.3,0.1c0,0-0.1,0-0.2,0c0-0.2,0.2-0.4,0.4-0.4
															C268.9,187,269.5,186.7,270.1,186.5z"/>
														<path class="st13" d="M289.7,186.8c-0.3-0.1-0.5-0.3-0.8-0.4c-0.5-0.2-1.1-0.3-1.7-0.4c-0.6-0.1-1.3-0.1-1.9-0.1
															c-0.8,0.1-1.6,0.1-2.4,0.5c-0.4,0.2-0.9,0.5-1.3,0.9c-0.1,0.1,0,0.2,0,0.3c0.2-0.1,0.4-0.1,0.6-0.2
															c0.5-0.1,1.1-0.3,1.7-0.4c1.4-0.4,3-0.3,4.5-0.3c0.3,0.1,0.6,0.1,0.9,0.1c0.2,0,0.4,0,0.5,0c0,0,0,0,0-0.1
															C289.8,186.9,289.7,186.8,289.7,186.8z"/>
														<path class="st14" d="M276.9,187.9L276.9,187.9c0.2,0.1,0.3,0.3,0.4,0.4c0.2,0.4,0.2,1,0.3,1.5
															c0.1,0.7,0.3,1.3,0.3,2.1s0,1.6-0.1,2.4c-0.1,0.7-0.3,1.4-0.4,2.2c0,0.3-0.1,0.4-0.1,0.7c0,0.1,0.2,0.2,0.3,0.2
															c0.4,0,0.7,0,1.1,0c0.3,0,0.5,0,0.8,0v0.1c-0.2,0.1-0.4,0.1-0.7,0.2c-0.4,0-0.7,0-1.1,0c-0.2,0-0.5-0.1-0.6-0.3
															c-0.1-0.4,0.1-0.9,0.2-1.3c0.2-0.8,0.3-1.5,0.4-2.3c0-0.5,0-1.2,0-1.7c0-0.8-0.2-1.7-0.3-2.6c0-0.4-0.1-0.9-0.4-1.3
															C276.9,188,276.9,188,276.9,187.9z"/>
														<path class="st15" d="M271.8,188.3c0.2,0,0.4,0,0.4,0.2c0.1,0.2,0.1,0.4,0.1,0.6c0,0.2-0.1,0.4-0.3,0.4
															c-0.1,0.1-0.4,0.2-0.5,0c-0.2-0.2-0.2-0.4-0.2-0.5c0-0.2,0-0.4,0.1-0.6C271.6,188.4,271.7,188.4,271.8,188.3z"/>
														<path class="st15" d="M285.1,188.4c0.1-0.1,0.3,0,0.4,0c0.2,0.2,0.3,0.4,0.3,0.7s-0.1,0.5-0.3,0.7
															c-0.2,0.1-0.4,0-0.5-0.1c-0.1-0.2-0.1-0.4-0.1-0.7C284.8,188.7,284.9,188.5,285.1,188.4z"/>
														<path class="st16" d="M294.7,188.9c0-0.1,0-0.2,0-0.3c0,0.1,0.1,0.2,0.2,0.3c0.2,0.4,0.1,0.9,0,1.4
															c-0.2,0.8-0.4,1.7-0.9,2.4h-0.1c0,0,0-0.1,0-0.2c0.2-0.3,0.3-0.5,0.4-0.8c0.2-0.5,0.4-1.1,0.4-1.7
															C294.8,189.8,294.8,189.3,294.7,188.9z"/>
														<path class="st16" d="M265.2,189.7c0.1-0.3,0.3-0.5,0.6-0.6h0.1c0,0,0,0,0,0.1c-0.3,0.1-0.4,0.4-0.5,0.8
															c-0.1,0.7,0,1.5,0.4,2.2c0.4,0.6,0.8,1.2,1.4,1.7c0,0,0.1,0.1,0.1,0.2c0,0-0.1,0-0.2,0c-0.4-0.2-0.7-0.5-1-0.8
															c-0.5-0.6-1-1.3-1.1-2.2C265.1,190.5,265.1,190.1,265.2,189.7z"/>
														<path class="st17" d="M270.8,189.6c0.2,0,0.4,0.1,0.6,0.2c0.4,0.1,0.8,0.2,1.2,0.3v0.1c-0.4,0-0.8-0.1-1.3-0.1
															c-0.2,0-0.4-0.1-0.5-0.2C270.8,189.8,270.8,189.7,270.8,189.6z"/>
														<g>
															<path class="st18" d="M287.7,190.1c-0.1,0.1-0.3,0.2-0.4,0.4c-0.6,0.4-1.2,0.6-1.9,0.7c-0.3,0-0.6,0-0.9,0
																s-0.5,0-0.8-0.2l0,0c-0.1,0-0.2-0.1-0.3,0c-0.1,0.1,0,0.3,0.2,0.4c0.3,0.1,0.5,0.2,0.8,0.3c0.6,0.1,1.3,0,1.9-0.3
																c0.4-0.2,0.7-0.4,1-0.6c0.2-0.1,0.4-0.3,0.5-0.4C287.8,190.1,287.8,190,287.7,190.1z"/>
															<path class="st18" d="M274,190.2c-0.1,0.1-0.2,0.2-0.3,0.3c-0.6,0.4-1.3,0.6-2,0.5c-0.4-0.1-1-0.2-1.3-0.5
																c0,0-0.1,0-0.2,0c0,0.1,0.1,0.2,0.2,0.3c0.4,0.3,0.8,0.4,1.2,0.5c0.4,0.1,0.9,0.1,1.3-0.1c0.4-0.2,0.7-0.4,1.1-0.6
																c0.1-0.1,0.2-0.2,0.3-0.3v-0.1C274.1,190.2,274,190.2,274,190.2z"/>
														</g>
														<path class="st19" d="M278.4,192.4L278.4,192.4c0.2,0.2,0.2,0.4,0.2,0.7c0,0.5-0.1,1.1-0.2,1.7
															c-0.1,0.4-0.1,0.8-0.3,1.2H278c0-0.2,0.1-0.3,0.1-0.4C278.4,194.4,278.4,193.4,278.4,192.4z"/>
														<path class="st20" d="M286,192.8c0.5-0.1,1.2,0,1.7,0.3c0.4,0.3,0.8,0.7,1,1.2c0.4,0.9,0.3,2.1-0.2,3
															c-0.3,0.4-0.6,0.8-1.1,1.1s-1.2,0.4-1.7,0.4c-0.5-0.1-1.1-0.3-1.4-0.6c-0.4-0.3-0.6-0.6-0.7-1s-0.3-0.8-0.2-1.2
															c0-0.3,0.1-0.4,0.2-0.7s0.3-0.6,0.4-0.8c0.2-0.4,0.5-0.7,0.8-1C285.1,193.1,285.5,192.9,286,192.8z"/>
														<path class="st21" d="M265.7,192.9C265.7,192.9,265.8,192.9,265.7,192.9c0.4,0.4,0.8,0.7,1.2,1v0.1
															c-0.4-0.2-0.6-0.4-0.9-0.7C265.8,193.3,265.7,193.2,265.7,192.9z"/>
														<path class="st17" d="M270.3,193.3c0.3,0,0.4,0.4,0.6,0.5c0,0,0,0,0.1,0l0,0c0,0-0.1,0.1-0.2,0.1l0,0
															c-0.1-0.2-0.3-0.3-0.4-0.4C270.2,193.3,270.3,193.3,270.3,193.3z"/>
														<path class="st22" d="M294.2,193.4c0.1-0.1,0.2-0.1,0.4-0.1c0.1,0,0.1,0.2,0.1,0.3c-0.1,0.2-0.2,0.3-0.4,0.3l-0.1-0.1
															C294.1,193.6,294.1,193.5,294.2,193.4z"/>
														<path class="st20" d="M271,193.7c0.6-0.3,1.3-0.3,1.9-0.2c0.4,0.1,0.7,0.3,1,0.4c0.7,0.5,1.3,1.3,1.3,2.2
															c0,0.8-0.4,1.6-0.9,2.2c-0.4,0.4-0.9,0.6-1.4,0.7c-0.6,0.1-1.3,0-1.9-0.3c-0.7-0.4-1.3-1-1.5-1.8
															c-0.1-0.5,0-1.1,0.1-1.7c0.2-0.6,0.5-1.2,1.1-1.5l0,0c0.3,0.3,0.6,0.6,0.9,0.9c0,0,0-0.1,0.1-0.1
															C271.4,194.4,271.2,194.2,271,193.7C270.9,193.8,271,193.7,271,193.7z"/>
														<path class="st16" d="M267.3,193.8c0.2,0.1,0.4,0.3,0.6,0.4v0.1c-0.1,0-0.3-0.1-0.4-0.1s-0.2-0.1-0.3-0.2
															c0,0,0.1,0,0.2,0C267.4,193.9,267.3,193.8,267.3,193.8z"/>
														<path class="st23" d="M270.7,193.9c0,0,0.1-0.1,0.2-0.1c0.3,0.3,0.5,0.6,0.8,0.9c0,0,0,0.1-0.1,0.1
															C271.3,194.4,271,194.2,270.7,193.9z"/>
														<path class="st11" d="M266.9,194.9c0.1,0,0.3-0.1,0.4,0c0.1,0,0.1,0.2,0.1,0.3s-0.1,0.2-0.2,0.3l0,0
															c-0.1,0-0.1-0.1-0.2-0.1C266.9,195.1,266.9,195.1,266.9,194.9C267,194.8,266.9,194.9,266.9,194.9z"/>
														<path class="st22" d="M266.9,195.3c-0.1-0.2,0-0.4,0.1-0.5h0.1c0,0.1,0,0.3,0,0.4c0.1,0,0.1,0.1,0.2,0.1
															C267.1,195.4,266.9,195.4,266.9,195.3z"/>
														<path class="st19" d="M279.5,196c0.3-0.2,0.7,0,0.8,0.3c0,0.1,0,0.2,0,0.3c-0.1-0.1-0.2-0.3-0.3-0.3
															c-0.2,0-0.3,0-0.4-0.1C279.5,196.1,279.5,196,279.5,196z"/>
														<path class="st17" d="M277.7,196.7C277.7,196.6,277.7,196.5,277.7,196.7c0.3,0,0.4,0.2,0.5,0.3v0.1
															C278.1,197,277.8,196.9,277.7,196.7z"/>
														<path class="st24" d="M279.3,196.7c0.2,0,0.4-0.1,0.5,0c0,0,0,0.1,0,0.2c-0.2,0.2-0.5,0.2-0.8,0.1
															C279,196.9,279.1,196.7,279.3,196.7z"/>
														<path class="st25" d="M291.1,197c-0.1,0.2-0.2,0.4-0.3,0.6c-0.2,0.4-0.3,0.7-0.5,1.1c-0.4,0.8-0.7,1.7-1.2,2.6
															c-0.2,0.4-0.4,0.7-0.6,1.1s-0.4,0.7-0.6,1c-0.2,0.4-0.4,0.7-0.6,1s-0.4,0.5-0.6,0.8c-0.4,0.4-0.6,0.9-1,1.3
															c-0.3,0.4-0.5,0.6-0.8,1c-0.3,0.3-0.6,0.4-0.9,0.7c-0.2,0.1-0.4,0.2-0.5,0.4l0,0c-0.6,0.4-1.3,0.5-2,0.7
															c-0.3,0.1-0.5,0.1-0.7,0.1s-0.4,0-0.6,0c-0.5,0-1.1-0.2-1.6-0.4c-0.3-0.1-0.5-0.1-0.8-0.3c-0.4-0.1-0.6-0.3-0.9-0.4
															c-0.4-0.3-0.8-0.6-1.2-0.9c-0.3-0.2-0.5-0.5-0.8-0.8s-0.6-0.6-0.9-1c-0.6-0.7-1.1-1.5-1.6-2.2
															c-0.3-0.4-0.6-0.9-0.9-1.3c-0.3-0.4-0.4-0.8-0.7-1.3c-0.5-1-1.1-2.1-1.6-3.1c-0.1-0.3-0.2-0.5-0.4-0.8
															c0,0-0.1,0.1,0,0.2c0,0.3,0.1,0.5,0.3,0.8c0.3,0.8,0.6,1.6,1,2.3c0,0,0.1,0.1,0.1,0.2c0.1,0.3,0.3,0.5,0.4,0.8
															c0.4,0.6,0.6,1.3,1.1,1.8c0.2,0.2,0.3,0.4,0.4,0.6c0.3,0.4,0.6,0.9,0.9,1.3c0.4,0.6,0.9,1.2,1.4,1.7
															c0.3,0.3,0.6,0.6,0.9,0.9c0.4,0.3,0.7,0.7,1.1,0.9c0.3,0.2,0.6,0.4,0.9,0.5c0.4,0.2,0.8,0.3,1.1,0.4
															c0.4,0.2,0.8,0.2,1.3,0.3c0.3,0,0.5,0,0.8,0c0.4,0,0.8-0.1,1.2-0.2c0.4-0.2,0.9-0.2,1.3-0.4c0.1,0,0.3-0.1,0.4-0.2
															c0.4-0.3,0.8-0.5,1.2-0.8c0.3-0.2,0.5-0.4,0.7-0.6c0.4-0.5,0.9-1,1.3-1.6c0.4-0.5,0.8-1.2,1.2-1.7
															c0.3-0.4,0.5-1,0.9-1.5c0.4-0.6,0.8-1.3,1.2-2c0.2-0.4,0.3-0.7,0.4-1.1c0.2-0.4,0.4-0.8,0.5-1.3
															c0-0.2,0.1-0.4,0.2-0.5C290.8,197.6,290.9,197.2,291.1,197C291.2,197,291.1,197,291.1,197z"/>
														<path class="st25" d="M279.2,198.6C279.3,198.6,279.3,198.6,279.2,198.6c0.2,0.4,0.1,0.8,0,1.3h-0.1
															C279.2,199.5,279.2,199,279.2,198.6z"/>
														<path class="st20" d="M279.2,200.4c0.2,0,0.4,0,0.6,0c1,0,2,0.3,2.9,0.8c-0.5,0-1,0-1.5-0.1c-0.4,0-0.8-0.1-1.2,0
															c-0.4,0-0.7,0.1-1.1,0.1c-0.3,0-0.5,0-0.8,0c-0.4,0-0.7,0.1-1,0.2c-0.4,0.1-0.8,0.3-1.2,0.4c0-0.2,0.2-0.3,0.3-0.4
															c0.2-0.1,0.4-0.2,0.5-0.3c0.2,0,0.4,0,0.5-0.1c0.4-0.1,0.9-0.3,1.3-0.4C278.8,200.4,279.1,200.4,279.2,200.4z"/>
														<path class="st26" d="M277.4,200.6c0.4-0.2,0.8-0.3,1.2-0.3c0.2,0,0.4,0,0.6,0c-0.1,0.2-0.4,0.2-0.5,0.2
															c-0.4,0.1-0.9,0.3-1.3,0.4c-0.2,0.1-0.4,0.1-0.5,0.1C276.9,200.9,277.2,200.8,277.4,200.6z"/>
														<path class="st22" d="M278.8,201.2c0.4,0,0.7-0.1,1.1-0.1s0.8,0,1.2,0c0.5,0,1,0.1,1.5,0.1c0.3,0,0.4,0,0.7,0.1v0.1
															v-0.1c-0.1,0.1-0.3,0.1-0.4,0.1c-0.4,0-0.7,0-1,0s-0.6-0.1-0.9-0.1c-0.5,0-1,0-1.5,0c-0.4,0.1-1,0-1.5,0
															c-0.8,0.2-1.5,0.4-2.2,0.6c0,0-0.1,0-0.1-0.1c0,0,0,0,0-0.1c0.1,0,0.2-0.1,0.4-0.1c0.4-0.1,0.8-0.2,1.2-0.4
															c0.4-0.1,0.6-0.3,1-0.2C278.4,201.2,278.5,201.2,278.8,201.2z"/>
														<path class="st20" d="M282.8,201.3c0.2,0,0.4,0,0.4-0.1l0,0l0,0c-0.3,0.2-0.4,0.4-0.7,0.6c-0.4,0.4-1.1,0.6-1.6,0.7
															s-1,0.2-1.5,0.2c-0.5,0.1-1.1,0-1.6-0.1s-1.2-0.3-1.7-0.4c-0.2-0.1-0.4-0.2-0.5-0.3c0.7-0.3,1.5-0.4,2.2-0.6
															c0.4,0,1,0,1.5,0c0.4-0.1,1,0,1.5,0c0.3,0,0.6,0.1,0.9,0.1C282.1,201.3,282.5,201.3,282.8,201.3z"/>
														<path class="st23" d="M281.4,201.5c0.2-0.1,0.4,0,0.7,0c0.2,0,0.4,0,0.5,0v0.1c-0.2,0.1-0.4,0-0.6,0.1
															c-0.3,0-0.4,0-0.7,0C281.4,201.6,281.4,201.5,281.4,201.5z"/>
														<path class="st27" d="M278.5,202c0.1,0,0.2,0,0.2,0C278.7,202.1,278.5,202.1,278.5,202z"/>
														<path class="st17" d="M279.1,205.4c0.4-0.1,0.8-0.1,1.3-0.1c0.4,0,0.9,0,1.3,0.2v0.1c-0.3,0-0.5-0.1-0.8-0.1
															c-0.5,0-1,0-1.5,0C279.3,205.5,279.2,205.5,279.1,205.4C279.1,205.5,279.1,205.4,279.1,205.4z"/>
														<g>
															<path class="st28" d="M271.5,205.4c0-0.1,0.1-0.1,0.2-0.2c0.1,0.1,0.2,0.2,0.3,0.4h0.1c-0.2-0.5-0.2-1.1-0.4-1.6
																c-0.2,0-0.3,0.2-0.4,0.3c0,0.1-0.1,0.2-0.2,0.3c0,0,0,0.1,0,0.2c0,0.1-0.1,0.1-0.2,0.2c-0.1,0-0.2,0.2-0.2,0.3
																c-0.4,0.7-0.7,1.5-0.6,2.3c0.1-0.1,0.1-0.3,0.1-0.4c0.1-0.8,0.4-1.6,1-2.2C271.3,205.1,271.4,205.2,271.5,205.4
																c0,0.1-0.2,0.2-0.2,0.4c-0.1,0.1-0.2,0.3-0.2,0.4c-0.2,0.4-0.3,0.9-0.4,1.4c-0.1,0.3-0.1,0.6-0.1,1h0.1
																c0-0.2,0-0.4,0-0.6C270.9,206.8,271.2,206.1,271.5,205.4z"/>
															<path class="st28" d="M272,205.8c-0.4,0.8-0.6,1.7-0.8,2.7v0.1c0.2-0.7,0.3-1.4,0.5-2.1c0.1-0.4,0.3-0.7,0.5-1
																C272.1,205.5,272,205.7,272,205.8z"/>
														</g>
														<g>
															<path class="st29" d="M270,200.6c0-0.1,0-0.2,0-0.3s-0.1-0.1-0.1-0.2c0,0.1-0.1,0.2,0,0.3c0,0.5,0.1,1,0.2,1.4
																c0.1,0.6,0.3,1.3,0.4,2h0.1C270.4,202.8,270.3,201.7,270,200.6z"/>
															<path class="st29" d="M269.6,204.7c0-0.2,0-0.4-0.1-0.5c-0.4-1.7-0.5-3.5-0.8-5.2c0-0.2,0-0.4-0.1-0.5
																c0-0.3,0-0.5,0-0.8c-0.1,0.1-0.1,0.3-0.1,0.4c0,0.3,0,0.5,0,0.8c0.1,0.8,0.2,1.5,0.3,2.3c0.2,1.3,0.4,2.5,0.8,3.7
																c0,0.1,0,0.3,0.2,0.3C269.8,205,269.7,204.8,269.6,204.7L269.6,204.7z"/>
															<path class="st29" d="M268.7,209.3c0,0,0-0.1,0-0.2c-0.5-2.3-0.8-4.7-1-7c-0.1-1.5-0.1-3.1-0.4-4.7
																c0-0.2,0-0.4-0.1-0.6c-0.1,0.4,0,0.8,0,1.3c0.1,1.6,0.2,3.2,0.4,4.8c0.2,2.2,0.5,4.5,1.1,6.6l0,0
																c0,0.3,0.1,0.4,0.2,0.7c0.1,0.4,0.3,0.8,0.5,1.2c0,0,0,0,0.1-0.1c-0.4-0.7-0.4-1.4-0.7-2.2L268.7,209.3z"/>
															<path class="st29" d="M267.5,209.8L267.5,209.8c0-0.3-0.2-0.6-0.3-1c-0.6-2.5-0.8-5.1-0.9-7.6c0-1.3,0-2.7-0.3-4
																c0-0.2-0.1-0.4-0.1-0.6c0-0.1,0-0.2-0.1-0.3c0,0,0,0,0,0.1c0,0.2,0,0.4,0.1,0.6c0,0.4,0.1,0.9,0.1,1.4
																c0.1,1.4,0.1,3,0.2,4.4c0.1,1.3,0.2,2.6,0.4,4C266.9,207.8,267.1,208.9,267.5,209.8v0.2l0,0c0,0.2,0.1,0.4,0.1,0.5
																c0.1,0.4,0.3,0.8,0.4,1.3c0.3,0.8,0.4,1.6,0.8,2.4h0.1c-0.2-0.4-0.3-0.8-0.4-1.2
																C268.1,211.9,267.8,210.9,267.5,209.8z"/>
														</g>
														<g>
															<path class="st29" d="M295.2,202.8c0-0.9-0.2-1.9-0.4-2.8c-0.1-0.4-0.2-1-0.3-1.4c-0.1-0.6-0.3-1.3-0.2-1.8h-0.1
																c0,0.1,0,0.3,0,0.4c0,0.7,0.2,1.4,0.3,2.1c0.1,0.4,0.1,0.8,0.3,1.1c0,0.4,0.2,1,0.2,1.4c0.1,1.1,0.2,2.2,0.2,3.2
																c0,2.2-0.3,4.4-0.5,6.6c0,0.3-0.1,0.4-0.1,0.7l0,0c-0.1,0.6-0.2,1.2-0.3,1.7c0,0.1-0.1,0.3-0.1,0.4
																c0.2-0.2,0.2-0.4,0.3-0.7c0.1-0.4,0.2-0.8,0.3-1.3l0,0c0.4-2.1,0.6-4.1,0.7-6.2C295.3,205,295.3,203.9,295.2,202.8z"
																/>
															<path class="st29" d="M292.6,204.4c-0.2-1.6-0.4-3.1-0.5-4.8c0-1.2,0-2.3,0.1-3.4c0-0.3,0.1-0.6,0.1-0.9
																c0.1-0.6,0.1-1.3,0.3-1.8l0,0c-0.2,0.7-0.4,1.5-0.4,2.3c-0.2,1.3-0.2,2.5-0.2,3.7c0,0.6,0.1,1.2,0.2,1.8
																c0.1,1.1,0.2,2.2,0.4,3.2c0.2,1.6,0.4,3.1,0.4,4.8c0,1.1,0,2.2,0,3.2c0,0.3,0,0.5-0.1,0.8h0.1c0.1-0.5,0.1-1,0.1-1.5
																c0-0.2,0-0.4,0-0.6c0-0.1,0-0.2,0-0.3c0-0.4,0-0.8,0-1.3C292.9,207.8,292.8,206.1,292.6,204.4z"/>
															<path class="st29" d="M294.1,206c-0.1-0.5-0.2-1-0.3-1.5l0,0c0-0.1,0-0.2,0-0.3c-0.2-1.1-0.3-2.2-0.4-3.3
																c-0.1-1.5,0-3.1,0-4.7c0-1.2,0.2-2.3,0.4-3.4c0,0,0-0.1,0-0.2c0.1-0.7,0.4-1.4,0.4-2.2c0.1-0.5,0.3-1,0.4-1.5
																c0-0.1,0-0.2,0-0.3c0.2-0.8,0.3-1.7,0.4-2.5c0,0-0.1-0.1-0.2-0.1c-0.2,1.3-0.4,2.7-0.7,4c-0.2,0.9-0.4,1.8-0.6,2.7
																c-0.2,0.7-0.2,1.4-0.3,2.2c-0.1,1-0.1,2-0.1,3c0,1.1,0,2.2,0.1,3.3c0,0.3,0,0.4,0.1,0.7c0.1,0.9,0.3,1.9,0.4,2.9
																C293.9,205.3,294,205.7,294.1,206L294.1,206z"/>
															<path class="st29" d="M296.4,205.1c0-0.1,0-0.2,0-0.3c-0.1-0.4-0.1-0.7-0.2-1.1c0,0.4,0.1,0.8,0.1,1.2
																c0,0.1,0,0.3,0.1,0.4c0,0.2,0,0.4,0,0.5c0,0.7,0,1.4-0.1,2.2c-0.1,1.2-0.2,2.3-0.4,3.5c-0.2,1-0.4,2-0.6,3
																c0,0,0,0.1,0,0.2l0,0c-0.1,0.4-0.2,1-0.4,1.4h0.1c0.2-0.4,0.3-0.8,0.4-1.2c0.3-1,0.4-2,0.7-3
																c0.2-1.2,0.3-2.3,0.4-3.4C296.5,207.3,296.6,206.2,296.4,205.1z"/>
															<path class="st29" d="M291.6,208.1c0.1-1.3,0-2.5,0-3.7c-0.1-1.1-0.3-2.2-0.4-3.3c0-0.4,0-0.8-0.1-1.2
																c0-0.3,0-0.5,0-0.8c0-0.4,0-0.7,0-1c0-0.2,0.1-0.4,0.1-0.7c-0.2,0.4-0.3,0.9-0.3,1.4l0,0c0,0.1,0,0.3,0,0.4
																c-0.1,1.1,0,2.2,0.2,3.2c0.2,1.2,0.4,2.3,0.4,3.4c0,0.9,0,1.9,0,2.8c0,0.4,0,0.9,0,1.3c0,0.3,0,0.5,0,0.7
																c0,0.6,0.1,1.2,0.2,1.7c0,0.1,0,0.2,0.1,0.3c-0.2-1.3-0.2-2.5-0.2-3.8C291.6,208.6,291.6,208.4,291.6,208.1z"/>
														</g>
														<g>
															<path class="st28" d="M270.9,216.3c-0.2,0.4-0.3,0.7-0.5,1h0.1c0.3-0.4,0.4-0.7,0.6-1.2c0.4-0.8,0.7-1.7,0.9-2.6
																c0-0.4,0.1-0.7,0-1h-0.1c0,0.4,0,0.6-0.1,0.9C271.7,214.4,271.3,215.3,270.9,216.3z"/>
															<path class="st28" d="M270.9,218.1c0.2-0.2,0.3-0.5,0.4-0.8c0.5-1.1,1-2.2,1.2-3.4h-0.1c-0.1,0.4-0.2,0.8-0.4,1.3
																c-0.3,0.8-0.6,1.7-1,2.5C271.1,217.8,271,217.9,270.9,218.1z"/>
															<path class="st28" d="M271.6,218.5c0.2-0.1,0.3-0.4,0.4-0.5c0.4-0.8,0.7-1.6,0.9-2.4c0.1-0.4,0.2-0.7,0.2-1
																c0,0-0.1,0.1-0.1,0.2c-0.2,1.1-0.6,2.2-1.1,3.2C271.9,218.2,271.7,218.3,271.6,218.5z"/>
															<path class="st28" d="M269.7,215.9c0.4-0.5,0.7-1.2,0.8-1.8c0.1-0.6,0.3-1.2,0.3-1.8s0-1.2,0-1.7
																c0-0.4-0.1-0.8-0.1-1.3h-0.1c-0.1,0.4,0,0.7,0,1c0,0.7,0,1.4,0,2.2c0,0.4-0.1,0.9-0.2,1.3c-0.1,0.5-0.3,1-0.4,1.4
																C269.9,215.5,269.7,215.7,269.7,215.9c-0.3,0.2-0.4,0.4-0.6,0.7h0.1C269.4,216.4,269.5,216.2,269.7,215.9z"/>
														</g>
														<g>
															<path class="st28" d="M289.3,203.8c0.1,0.1,0.2,0.2,0.3,0.3c0.3,0.5,0.4,1.1,0.4,1.7c0,0.2,0,0.4-0.1,0.5
																c-0.1,0.5-0.1,1-0.1,1.6c0,0.2-0.1,0.4,0,0.6c0,0.3,0,0.5,0,0.8s0,0.6,0,0.9c0,0.5,0.1,1,0.2,1.5
																c0.1,0.4,0.2,0.8,0.3,1.2c0.2,0.4,0.4,0.8,0.7,1.2c0.2,0.3,0.4,0.5,0.7,0.8c0.1,0.1,0.3,0.3,0.4,0.4
																c0-0.1-0.1-0.3-0.2-0.4c-0.3-0.4-0.6-0.7-0.9-1c-0.4-0.6-0.6-1.4-0.8-2.2c-0.1-0.4-0.2-1-0.2-1.4c0-0.6,0-1.2,0-1.8
																c0-0.8,0.1-1.7,0.2-2.5c0-0.4,0-0.9-0.2-1.4c-0.1-0.3-0.2-0.6-0.4-0.8c0,0-0.1,0-0.1-0.1c0,0,0.1-0.1,0.1-0.2
																c0.1-0.2,0.1-0.5,0-0.8c0.3,0.1,0.5,0.3,0.6,0.5v-0.1c0-0.1-0.1-0.1-0.2-0.2c-0.1-0.1-0.3-0.2-0.4-0.3
																c-0.2-0.1-0.4-0.4-0.5-0.4c-0.2,0.3-0.1,0.5-0.1,0.8c0,0.4,0,0.8-0.2,1.2C289,204.1,289.1,204,289.3,203.8z"/>
															<path class="st28" d="M289.2,204.8c0.2,0.4,0.1,0.9,0.2,1.3c0,0.6-0.1,1.3-0.1,2c0,0.6-0.1,1.2-0.1,1.8
																c0,0.4,0,0.9,0.1,1.4c0,0.5,0.1,1,0.3,1.5c0.1,0.4,0.3,0.7,0.4,1c0.2,0.4,0.4,0.8,0.7,1.2c0.2,0.3,0.4,0.4,0.7,0.6
																c0.1,0.1,0.2,0.2,0.4,0.4c0-0.2-0.1-0.3-0.2-0.4c-0.1-0.1-0.2-0.3-0.4-0.4c-0.5-0.5-0.9-1.3-1.3-2
																c-0.2-0.4-0.2-0.7-0.3-1.1c-0.1-0.5-0.2-1.1-0.2-1.6c0-0.4-0.1-0.8,0-1.2c0.1-0.9,0.1-1.8,0.2-2.7c0-0.4,0-0.7,0-1.1
																c0-0.4,0-0.7-0.2-1c-0.1-0.2-0.4-0.4-0.5-0.4v0.1C289,204.6,289.1,204.7,289.2,204.8z"/>
															<path class="st28" d="M288.7,205.5c0.2,0.4,0.3,0.9,0.2,1.3c0,0.6-0.2,1.2-0.3,1.7c-0.1,0.6-0.2,1.2-0.2,1.7
																c0,0.4,0,0.8,0,1.3l0,0c0,1.2,0.4,2.4,0.9,3.4c0.4,0.7,0.8,1.3,1.3,1.8h0.1c-0.4-0.4-0.6-0.9-0.9-1.4
																c-0.4-0.7-0.7-1.4-0.9-2.2c-0.2-0.6-0.2-1.3-0.3-1.8c0-0.4,0-0.9,0-1.3c0-1.3,0.5-2.5,0.4-3.9c0-0.3-0.1-0.5-0.2-0.8
																s-0.4-0.5-0.8-0.5c0,0,0,0.1,0,0.2C288.4,205,288.7,205.2,288.7,205.5z"/>
															<path class="st28" d="M288.1,214.6c0.4,0.9,0.7,1.8,1.2,2.6c0,0.1,0.1,0.2,0.2,0.3c0,0,0-0.1,0-0.2
																c-0.4-0.8-0.8-1.6-1.1-2.5c-0.3-0.8-0.4-1.7-0.5-2.5c0-0.3,0-0.5,0-0.8c-0.1,0.3-0.1,0.5-0.1,0.8
																C287.7,213.1,287.9,213.9,288.1,214.6z"/>
															<path class="st28" d="M292.6,215.4L292.6,215.4c-0.1,0.1-0.1,0.3-0.2,0.4c-0.4,0.7-1,1.3-1.6,1.9
																c-0.5,0.5-1.2,1-1.8,1.4c-0.7,0.4-1.4,0.7-2.2,1.1c-0.8,0.4-1.7,0.7-2.6,0.9c-0.6,0.1-1.2,0.3-1.8,0.3
																c-1.2,0.1-2.4,0.1-3.6,0h-0.1h-0.1h0.1h0.1c-0.6-0.1-1.2-0.2-1.8-0.4c-0.4-0.1-0.9-0.2-1.4-0.4
																c-0.4-0.1-0.9-0.2-1.3-0.4s-0.8-0.4-1.2-0.5s-0.7-0.4-1.1-0.6c-0.3-0.2-0.6-0.4-0.9-0.4c-0.3-0.2-0.5-0.4-0.8-0.6
																c-0.2-0.2-0.4-0.4-0.7-0.6c0.6-0.8,1.1-1.7,1.3-2.6c0.2-0.7,0.4-1.4,0.5-2.2c0-0.5,0.1-1.1,0-1.6
																c-0.1,0.2-0.1,0.4-0.1,0.5c0,0.2,0,0.4,0,0.6c0,0.6-0.2,1.3-0.4,1.9c-0.3,1.2-0.8,2.2-1.4,3.2
																c-0.2-0.1-0.4-0.3-0.4-0.4c-0.1-0.1-0.2-0.3-0.4-0.4c-0.1,0-0.1,0-0.1,0.1c0.3,0.3,0.6,0.5,0.9,0.8
																c0.1,0.1,0.4,0.3,0.4,0.4c0.3,0.2,0.6,0.5,0.9,0.7c0.4,0.4,1,0.6,1.5,0.9c0.5,0.4,1.2,0.6,1.8,0.9
																c0.4,0.2,0.9,0.3,1.3,0.4c0.5,0.1,1.1,0.3,1.7,0.4c0.5,0.1,1.1,0.2,1.6,0.3c0.8,0.1,1.6,0.2,2.4,0.2
																c1,0,2.1-0.1,3.1-0.4c0.9-0.2,1.8-0.5,2.6-0.9c0.9-0.4,1.7-0.7,2.5-1.3c0.5-0.4,1.1-0.8,1.5-1.3l0,0
																C291.6,216.8,292.2,216.2,292.6,215.4C292.6,215.5,292.6,215.5,292.6,215.4z"/>
														</g>
														<g>
															<path class="st28" d="M265.7,235.6c-0.3-0.2-0.4-0.4-0.7-0.5c-0.9-0.8-1.5-1.8-2.5-2.5c-0.3-0.3-0.7-0.4-1-0.6v0.1
																c0.3,0.3,0.6,0.4,0.9,0.6c0.3,0.3,0.6,0.5,0.8,0.8C264,234.2,264.7,235.1,265.7,235.6
																C265.8,235.7,265.8,235.7,265.7,235.6z"/>
															<path class="st28" d="M251.3,235.6c0,0.2,0.1,0.4,0.1,0.5c0.1,0.4,0.1,0.8,0.2,1.3c0.1,0.5,0.3,1.1,0.4,1.6
																c0.2,0.5,0.5,1.1,0.8,1.6c0.4,0.7,0.9,1.3,1.3,2c0.3,0.4,0.4,1,0.5,1.5c0.1,0.4,0.1,0.8,0.1,1.2
																c-0.2,0.5-0.4,1-0.4,1.5h0.3c0-0.1,0-0.2,0-0.3c0.1-0.4,0.3-0.9,0.4-1.3c0.2-0.2,0.3-0.5,0.3-0.8c0-0.1,0-0.3,0-0.4
																c0-0.4,0-0.8-0.1-1.1c-0.1-0.5-0.3-1-0.4-1.5c-0.2-0.4-0.4-0.9-0.6-1.3c-0.4-0.7-0.6-1.4-0.9-2.2
																c-0.1-0.3-0.2-0.4-0.2-0.7H253c0,0.3,0.1,0.6,0.1,0.9l0,0c0,0.4,0.2,0.7,0.3,1c0.2,0.5,0.4,1.1,0.7,1.5
																c0.2,0.4,0.4,0.6,0.4,1c0.3,0.8,0.4,1.7,0.6,2.6c0,0.3,0,0.6-0.1,0.9l0,0c0-0.4-0.1-0.9-0.3-1.3
																c-0.1-0.3-0.2-0.6-0.4-0.8c-0.3-0.4-0.5-0.8-0.8-1.3c-0.4-0.7-0.8-1.4-1.2-2.2c-0.4-0.7-0.5-1.5-0.7-2.2
																c-0.1-0.4-0.1-0.9-0.3-1.4c0-0.1,0-0.3-0.1-0.4c0,0-0.1-0.1-0.1,0C251.2,235.3,251.3,235.5,251.3,235.6L251.3,235.6z
																"/>
															<path class="st28" d="M289.5,239c-0.8,0.4-1.6,0.7-2.4,1.1c-0.4,0.2-0.7,0.4-1,0.8c0,0,0,0.1-0.1,0.2
																c0.2,0,0.3-0.2,0.4-0.3c0.3-0.3,0.5-0.4,0.9-0.5c0.9-0.3,1.7-0.8,2.5-1.2c0.4-0.2,0.8-0.4,1-0.8
																c-0.1,0-0.1,0-0.2,0.1C290.3,238.6,289.9,238.7,289.5,239z"/>
															<path class="st28" d="M256.6,245.5c-0.1,0.4-0.2,0.9-0.3,1.4h0.3c0-0.2,0.1-0.4,0.1-0.6c0.2-0.8,0.5-1.6,0.6-2.4
																c0.2-0.8,0.1-1.7-0.1-2.4c-0.1-0.5-0.2-1.1-0.4-1.6c0-0.1,0-0.2,0-0.4h-0.1c0,0.2,0,0.4,0,0.7c0,0.4,0.1,0.7,0.2,1
																c0.2,0.8,0.3,1.7,0.1,2.6C257.1,244.4,256.8,244.9,256.6,245.5z"/>
															<path class="st28" d="M306.5,242.9c0-0.4,0.1-0.8,0-1.3c0-0.4-0.2-0.8-0.3-1.3c-0.1-0.5-0.2-1-0.4-1.5
																c-0.3-0.7-0.6-1.3-0.9-2c-0.4-0.6-0.6-1.3-0.9-2c-0.2-0.4-0.4-0.9-0.5-1.3h-0.1c0,0.2,0,0.4,0.1,0.5
																c0.1,0.4,0.3,0.8,0.4,1.2c0.2,0.4,0.4,0.9,0.6,1.4c0.4,0.8,0.8,1.6,1.2,2.4c0.4,0.7,0.4,1.6,0.7,2.3
																c-0.3,0.5-0.1,1.1-0.1,1.6c-0.1,0.4,0,1-0.1,1.4c-0.1-0.4-0.2-0.6-0.3-1c-0.1-0.5-0.1-1.2-0.1-1.7s-0.2-1-0.4-1.4
																c-0.3-0.6-0.7-1.2-1.1-1.8c-0.1-0.2-0.4-0.4-0.4-0.7h0.1c0,0.4,0.1,0.6,0.3,0.9c0.2,0.3,0.4,0.5,0.5,0.8
																c0.4,0.5,0.6,1.2,0.8,1.8c0.1,0.6,0.1,1.3,0.2,1.9c0.1,0.7,0.3,1.3,0.5,1.9c0.1,0.2,0,0.4,0.1,0.6
																c0,0.2,0.1,0.4,0.3,0.4c0.1-0.2,0-0.4,0-0.5c0-0.2-0.1-0.4,0-0.5c0-0.4,0-1,0-1.4
																C306.4,243.6,306.5,243.2,306.5,242.9z"/>
														</g>
													</g>
												</g>
											</g>
										</g>
									</g>
								</g>
							</g>
						</g>
					</g>
				</g>
			</g>
		</g>
	</g>
	<g>
		<circle class="st2" cx="348.6" cy="190.8" r="43.2"/>
		<g>
			<g>
				<g>
					<g>
						<defs>
							<circle id="SVGID_00000179610780515627030290000007714509380691583167_" cx="348.6" cy="190.8" r="38.1"/>
						</defs>
						<clipPath id="SVGID_00000115510941262617775850000016277219911542032011_">
							<use xlink:href="#SVGID_00000179610780515627030290000007714509380691583167_"  style="overflow:visible;"/>
						</clipPath>
						<g style="clip-path:url(#SVGID_00000115510941262617775850000016277219911542032011_);">
							<g>
								<g>
									<rect id="SVGID_1_" x="310.6" y="152.7" class="st31" width="76.1" height="76.1"/>
								</g>
								<g>
									<g>
										<g>
											<g>
												<defs>
													
														<rect id="SVGID_00000018208762112274701570000017323333441563048588_" x="310.6" y="152.7" width="76.1" height="76.1"/>
												</defs>
												<clipPath id="SVGID_00000006698117965447576220000011887368001194065323_">
													<use xlink:href="#SVGID_00000018208762112274701570000017323333441563048588_"  style="overflow:visible;"/>
												</clipPath>
												<g style="clip-path:url(#SVGID_00000006698117965447576220000011887368001194065323_);">
													<g>
														<path class="st33" d="M387.2,245.2c0-0.2,0.1-0.4,0.1-0.5c0.1-2.1-0.2-4-0.9-6c-0.1-1.3-0.3-2.6-0.6-3.9
															c0-0.1-0.1-0.2-0.1-0.4c-0.2-0.9-0.4-1.8-0.6-2.7c-0.3-1.1-0.4-2.2-0.9-3.3c-0.2-0.4-0.5-0.9-0.7-1.3
															c-0.3-0.4-0.5-0.8-0.8-1.3c-0.6-0.7-1.3-1.3-2-2c-0.4-0.3-0.8-0.5-1.3-0.7c-1.1-0.5-2.1-1-3.1-1.4
															c-1.1-0.4-2.2-1-3.1-1.4c-1.1-0.5-2.2-1-3.3-1.4c-1.2-0.5-2.2-1.1-3.3-1.6c-0.5-0.4-1.1-0.5-1.6-0.8
															c-0.4-0.2-0.7-0.4-1.1-0.6c-0.3-0.2-0.6-0.3-0.9-0.4c-0.6,0-1.3,0-2,0c-1.4,0-2.9,0-4.3,0c-1.2,0-2.2,0-3.4,0
															c-1.1,0-2.2,0.1-3.2,0.1c-2.3,0.1-4.7,0.3-7,0.6c-1.3,0.2-2.5,0.5-3.8,0.8c-1.1,0.3-2.2,0.5-3.2,0.7
															c-0.3,0-0.5,0.1-0.8,0.1c0,0,0.1,0,0.1-0.1s0-0.2-0.1-0.3c-0.4-0.2-0.9-0.1-1.3,0.1c-0.9,0.4-1.6,1-2.4,1.5
															c-0.8,0.6-1.5,1.3-2.2,2.1c-0.4,0.4-0.9,0.7-1.3,1.1c-0.3,0.3-0.6,0.5-1,0.8c-0.9,0.7-2,1.4-2.9,2.2
															c-1.5,1.3-3.1,2.4-4.4,3.9c-0.3,0.3-0.5,0.6-0.7,0.9c-0.2,0.2-0.4,0.4-0.6,0.5c-0.9,0.8-1.5,1.8-2.1,2.9
															c-0.2,0.4-0.4,0.9-0.5,1.3c-1.1,2.2-1.9,4.6-2.5,6.9c-0.3,1-0.5,2-0.8,3c0,0.1,0,0.2,0,0.3h75.2v0.4h-0.6V245.2z"/>
														<path class="st34" d="M345.2,162.1c0.1-0.1,0.2-0.1,0.3-0.1c0,0,0.1,0.1,0.1,0.2c0,0.3-0.1,0.4-0.2,0.7
															c0.4-0.3,0.7-0.5,1.1-0.8c0.1-0.1,0.2,0,0.4,0c0.1,0.3-0.2,0.5-0.3,0.8c0.4-0.3,0.7-0.6,1.3-0.8c0.1,0,0.3,0,0.3,0
															c0.1,0.2,0,0.4,0,0.6c0.3,0,0.4-0.3,0.7-0.4c0.1-0.1,0.4-0.1,0.4,0.1c0,0.1,0,0.2,0,0.3c1.2,0.1,2.2,0.5,3.2,1.1
															c0.9,0.4,1.7,1.1,2.4,1.7c0.3,0.3,0.6,0.4,0.8,0.7c0.9,0.8,1.9,1.4,2.8,2.2c0.4,0.4,0.7,0.7,1.2,1
															c0.4,0.4,0.8,0.7,1.1,1.3c0.4,0.7,0.8,1.5,1.1,2.4c0.2,0.7,0.4,1.3,0.5,2.1c0.1,0.7,0.3,1.4,0.3,2.2s0,1.3,0,2.1
															c0,1.2-0.1,2.3-0.4,3.6c-0.1,0.4-0.2,0.8-0.3,1.3c0,0.3-0.2,0.6-0.2,0.9c0,0.5,0,1.1-0.2,1.6
															c-0.2,1.2-0.2,2.2-0.5,3.4c-0.2,0.7-0.4,1.4-0.8,2.1c-0.4,0.4-0.7,0.7-1.2,1c-0.5,0.4-1.2,0.5-1.8,0.8
															c-1,0.4-2.1,0.8-3.1,1.2c-0.8,0.3-1.6,0.4-2.5,0.7c-0.7,0.2-1.5,0.4-2.3,0.5c-0.6,0.1-1.2,0.3-1.8,0.3
															c-1.3,0.1-2.5,0.1-3.8,0c-0.7,0-1.4-0.2-2.2-0.3c-1.1-0.1-2.1-0.4-3.1-0.7c-0.5-0.2-1.1-0.4-1.4-1
															c-0.4-0.7-0.8-1.6-1-2.5c-0.2-0.6-0.3-1.3-0.3-2c-0.1-0.7,0-1.5,0-2.3c0-0.7,0-1.4,0-2.2c-0.1-1-0.7-1.9-1-2.9
															c-0.3-0.8-0.5-1.6-0.6-2.5c-0.1-0.6-0.2-1.2-0.3-1.8c0-0.6,0-1.3,0.1-1.9c0.1-0.7,0.2-1.3,0.4-2.1
															c0.3-0.9,0.6-1.8,1-2.7c0.3-0.6,0.5-1.2,0.8-1.7c0.4-0.7,1-1.4,1.5-2.2c0.7-0.9,1.6-1.5,2.5-2.2
															c0.8-0.6,1.7-1.3,2.5-1.9c0.4-0.3,0.9-0.5,1.4-0.7c0.2,0,0.3-0.2,0.4-0.3C344.6,162.7,344.9,162.3,345.2,162.1z"/>
													</g>
													<g>
														<path class="st9" d="M355.4,169c0.4-0.1,0.6-0.4,1-0.3c0.3,0,0.4,0.2,0.6,0.4c0.7,0.6,1.4,1.3,1.8,2.1
															c0.3,0.4,0.6,0.9,0.8,1.4c0.4,0.9,0.7,1.8,0.8,2.9c0,0.4,0.1,1,0.2,1.4c0.1,0.7,0.2,1.3,0.3,2.1c0,0.8,0,1.7-0.1,2.5
															c-0.2,1-0.4,1.9-0.6,2.9c-0.1,0.4-0.2,0.8-0.3,1.3c-0.1,0.6-0.2,1.2-0.3,1.8c0,0.4,0,0.8-0.1,1.3c0-0.1,0-0.2,0-0.2
															c-0.2,1.2-0.4,2.2-0.5,3.5c0,0.4,0,0.9,0,1.4c0,0.4,0.1,0.9,0.2,1.3c0,0.1,0,0.4,0.2,0.4l0,0c0,0-0.1,0-0.2,0
															c0.1,0.7,0,1.3-0.1,2c-0.4-0.3-0.7-0.4-1.1-0.5c-0.4-0.2-0.8-0.4-1.3-0.5c-0.6-0.3-1.3-0.5-2-0.6
															c-0.5-0.1-1-0.3-1.4-0.4c-0.4,0-0.9,0-1.3-0.1c-0.7-0.1-1.5-0.2-2.3-0.1c-0.4,0-0.7,0-1.1,0c-0.7,0.1-1.4,0.2-2.2,0.2
															c-0.5,0-1.1,0.1-1.6,0.2c-1.4,0.4-3,1-4,2.2c-0.3,0.3-0.5,0.6-0.8,0.8c-0.4,0.4-0.8,0.9-1.3,1.4
															c-0.1,0.1-0.2,0.3-0.3,0.4c-0.1-0.2-0.2-0.4-0.4-0.5c-0.1-0.2-0.2-0.4-0.4-0.5c0,0,0,0.1,0,0.2
															c-0.1-0.4-0.1-0.7-0.2-1.2c-0.1-0.4-0.2-0.9-0.3-1.4l0,0c0.1-0.1,0.1-0.3,0.1-0.4c0-0.6,0-1.3-0.1-1.8
															c-0.1-0.6,0-1.3-0.1-2c0-0.6,0.2-1.2,0.2-1.8c0-0.5,0-1-0.1-1.4c0-0.6-0.2-1.3-0.3-1.9c-0.2-1.1-0.5-2.2-0.8-3.1
															c-0.2-0.6-0.3-1.3-0.4-2c-0.1-1.3-0.4-2.6-0.6-3.9c-0.1-0.5-0.1-1.1-0.1-1.6c0-0.7,0.1-1.4,0.4-2.2
															c0.3-0.7,0.8-1.4,1.3-2.1c0.4-0.4,0.7-0.7,1.2-1c0.4-0.4,0.7-0.6,1.2-0.8c0.4-0.2,0.8-0.5,1.3-0.4
															c0.4,0.1,0.7,0.2,1.1,0.3s0.9,0.2,1.4,0.2c0.4,0,0.8-0.3,1.3-0.3c0.4,0,0.6,0.3,0.9,0.3c0.2,0,0.4-0.1,0.6-0.1
															c0.3,0,0.4,0.3,0.7,0.3c0.3,0,0.5,0,0.7,0c0.3,0,0.5,0.1,0.8,0.1s0.6,0,0.9-0.1c0.2,0,0.4,0.1,0.6,0.1
															s0.4-0.2,0.6-0.1c0.4,0,0.6-0.1,1-0.2c0.1,0,0.2-0.1,0.2-0.1c0.7,0.1,1.3-0.4,2.1-0.7c0.4-0.1,0.6-0.2,0.9-0.3
															C354.7,169.3,355.1,169,355.4,169z"/>
														<path class="st20" d="M363.3,183.1c0.7-0.2,1.4-0.4,2.2-0.3c0.5,0.1,1,0.4,1.3,0.8c0.3,0.5,0.4,1.1,0.4,1.6
															c0.1,0.8-0.2,1.5-0.4,2.2c-0.2,0.6-0.5,1.2-0.8,1.8c-0.7,1.4-1.7,2.6-2.9,3.6c-0.6,0.6-1.3,1-2.1,1.3
															c-0.4,0.3-1,0.3-1.4,0.4c-0.2,0-0.2-0.3-0.2-0.4c0-0.4-0.2-0.9-0.2-1.3c0-0.4,0-0.9,0-1.4c0.1-1.2,0.3-2.3,0.5-3.5
															c0,0.1,0,0.2,0,0.2c0,0.2,0,0.4,0,0.5c0.4-1.6,1-3.2,1.4-4.9c0-0.2,0.2-0.3,0.4-0.3c0.3-0.1,0.5-0.2,0.9-0.3
															C362.6,183.4,362.9,183.1,363.3,183.1z"/>
														<path class="st20" d="M330.5,184.1c0.4-0.3,0.7-0.4,1.3-0.5c0.5,0,1.1,0.1,1.6,0.3c0.3,0.2,0.7,0.2,1,0.4
															c0.5,0.3,1.1,0.4,1.6,0.7c0.2,0.3,0.1,0.7,0.2,1c0.4,1.6,0.6,3.3,0.9,5c0.1,0.6,0.2,1.3,0.4,1.9c0-0.2,0-0.4,0.1-0.6
															c0.1,0.6,0,1.3,0.1,2c0.1,0.6,0.1,1.3,0.1,1.8c0,0.1,0,0.3-0.1,0.4c0-0.2-0.1-0.4-0.1-0.6c-1-0.2-1.9-0.6-2.7-1.1
															c-0.4-0.3-0.9-0.5-1.3-0.9c-0.4-0.3-0.8-0.6-1.2-1c-0.4-0.4-0.7-0.8-1-1.3c-0.3-0.4-0.5-0.7-0.7-1.1
															c-0.4-0.7-0.7-1.3-1-2.1c-0.1-0.4-0.2-0.7-0.2-1.1c-0.1-0.6,0-1.3,0.2-2C329.7,184.9,329.9,184.5,330.5,184.1z"/>
														<path class="st35" d="M348.7,194.7c0.4,0,0.7-0.1,1-0.1c0.7-0.1,1.5,0,2.3,0.1c0.4,0.1,0.9,0.1,1.3,0.1
															c0.5,0.1,1,0.2,1.4,0.4c0.7,0.1,1.3,0.4,2,0.6c0.4,0.2,0.8,0.3,1.3,0.5c0.4,0.2,0.7,0.3,1.1,0.5c-0.2,1-0.4,2-0.8,2.9
															c-0.1,0.3-0.3,0.4-0.4,0.7c0,0,0,0-0.1-0.1c-0.3,0.4-0.7,0.7-0.9,1.1c-0.2,0.4-0.4,0.6-0.7,0.9
															c-0.3,0.3-0.5,0.6-0.7,1c-0.2,0.3-0.4,0.5-0.6,0.7c-0.4,0.6-0.8,1.2-1.3,1.7c-0.3,0.3-0.5,0.6-0.8,0.8
															c-0.3,0.3-0.6,0.5-0.9,0.7c-0.4,0.2-0.7,0.4-1.2,0.6c-0.3,0.1-0.6,0.1-0.8,0.1c-0.4,0-0.7,0-1.2-0.1
															c-0.6-0.1-1.3-0.2-1.8-0.5c-0.3-0.2-0.6-0.3-0.9-0.5c-0.5-0.4-1-0.7-1.5-1.2c-0.4-0.3-0.6-0.6-1-0.9
															c-0.3-0.3-0.6-0.4-0.8-0.7c-0.4-0.3-0.6-0.7-1-1c-0.5-0.4-0.9-1.1-1.4-1.5c-0.3-0.3-0.6-0.5-0.8-0.9
															c-0.2-0.3-0.4-0.5-0.6-0.7c-0.1,0-0.1-0.1-0.1-0.2c0.1-0.1,0.1-0.3,0.3-0.4c0.4-0.4,0.8-1,1.3-1.4
															c0.3-0.3,0.5-0.5,0.8-0.8c1.1-1.1,2.6-1.7,4-2.2c0.5-0.1,1.1-0.2,1.6-0.2C347.4,194.8,348,194.8,348.7,194.7z"/>
														<path class="st36" d="M338,198.8c0.1,0.2,0.2,0.4,0.4,0.5c0.1,0.2,0.3,0.4,0.4,0.5c0,0.1,0.1,0.2,0.1,0.2
															c0.3,0.2,0.4,0.4,0.6,0.7c0.3,0.4,0.5,0.6,0.8,0.9c0.4,0.5,0.9,1.1,1.4,1.5c0.4,0.3,0.6,0.7,1,1
															c0.3,0.3,0.6,0.5,0.8,0.7c0.4,0.3,0.6,0.6,1,0.9c0.5,0.4,1,0.7,1.5,1.2c0.3,0.2,0.6,0.4,0.9,0.5
															c0.5,0.3,1.2,0.4,1.8,0.5c0.4,0.1,0.7,0.1,1.2,0.1c0.3,0,0.6,0,0.8-0.1c0.4-0.2,0.7-0.4,1.2-0.6
															c0.3-0.3,0.7-0.4,0.9-0.7c0.3-0.3,0.5-0.5,0.8-0.8c0.4-0.5,0.9-1.1,1.3-1.7c0.2-0.3,0.4-0.5,0.6-0.7
															c0.3-0.3,0.4-0.7,0.7-1c0.2-0.4,0.5-0.6,0.7-0.9c0.3-0.4,0.6-0.7,0.9-1.1c0,0,0,0,0.1,0.1c0,0.5,0,1.1,0,1.5
															c-0.3,0.4-0.4,0.7-0.7,1.1c-0.4,0.4-0.5,1-0.8,1.4c-0.4,0.6-0.8,1.3-1.3,1.9c-0.4,0.6-0.9,1.3-1.4,1.9
															c-0.3,0.3-0.5,0.6-0.8,0.9c-0.4,0.4-0.8,0.7-1.3,1.1c-0.7,0.5-1.4,1-2.2,1.4c-1.3,0.7-2.6,1.3-4,1.8
															c-0.7,0.2-1.4,0.4-2.2,0.6c-0.4,0.1-0.7,0.2-1.2,0.2c-0.7,0-1.3,0-2-0.1c-0.4-0.1-0.8-0.4-1.2-0.7
															c-0.3-0.3-0.5-0.5-0.7-0.9c-0.2-0.3-0.4-0.5-0.4-0.7c0.1-0.5,0.3-1.1,0.4-1.6c0.1-0.6,0.3-1.3,0.4-1.9
															c0.2-1.1,0.2-2.2,0.1-3.1c-0.1-1.3-0.2-2.6-0.4-3.9c-0.1-0.7-0.3-1.3-0.4-2.1C337.9,198.9,338,198.8,338,198.8z"/>
														<path class="st9" d="M358,201.9c0.1,0.9,0.2,1.9,0.4,2.8c0.2,1.3,0.4,2.4,0.6,3.6c0.1,0.4,0.1,0.8,0.3,1.3
															c0.1,0.4,0.3,0.9,0.4,1.3c0.4,0.8,0.7,1.7,1.3,2.4c0.3,0.4,0.7,0.8,1,1.3c0.4,0.4,0.8,0.8,1.3,1.2
															c0.1,0.1,0.2,0.3,0.4,0.4c0.1,0.4-0.1,0.6-0.3,0.9c-0.4,0.5-0.7,1.1-1.2,1.6c-0.4,0.6-0.9,1.2-1.5,1.5
															c-0.4,0.4-0.9,0.7-1.4,1c-0.6,0.5-1.3,1-2.1,1.4c-0.5,0.4-1.1,0.5-1.7,0.7c-0.8,0.3-1.6,0.5-2.4,0.7
															c-1.5,0.4-3.1,0.7-4.8,0.7c-0.4,0.1-0.9,0-1.4,0.1c-0.4,0-1,0.1-1.4,0c-0.6,0-1.3-0.1-1.8-0.2s-1.1-0.2-1.6-0.4
															c-0.9-0.2-1.8-0.5-2.6-0.8c-1-0.4-2-0.9-2.9-1.4c-0.3-0.2-0.6-0.4-0.9-0.5c-0.5-0.4-1-0.7-1.4-1.2
															c-0.3-0.3-0.5-0.5-0.7-0.8c-0.1-0.3-0.3-0.5-0.4-0.8c-0.2,0-0.3-0.3-0.1-0.4c0.4-0.3,0.7-0.6,1-1s0.6-0.6,0.9-1
															c0.5-0.6,1.2-1.3,1.6-2c0.6-0.9,1.1-1.9,1.3-2.9c0.1,0.3,0.3,0.5,0.4,0.7c0.2,0.4,0.4,0.6,0.7,0.9
															c0.4,0.4,0.7,0.6,1.2,0.7c0.6,0.1,1.3,0.2,2,0.1c0.4,0,0.7-0.1,1.2-0.2c0.7-0.2,1.4-0.4,2.2-0.6
															c1.4-0.4,2.7-1.1,4-1.8c0.7-0.4,1.4-0.8,2.2-1.4c0.4-0.4,0.8-0.7,1.3-1.1c0.3-0.3,0.6-0.5,0.8-0.9
															c0.5-0.6,1-1.3,1.4-1.9c0.4-0.6,0.8-1.3,1.3-1.9c0.3-0.4,0.5-1,0.8-1.4C357.5,202.6,357.7,202.3,358,201.9z"/>
													</g>
													<g>
														<path class="st9" d="M352.2,197.2c0.2,0,0.5-0.2,0.7,0c0,0.1,0,0.2-0.1,0.3c-0.3,0.2-0.4,0.4-0.7,0.6
															c-0.4,0.4-0.8,0.6-1.3,0.8c-0.4,0.2-0.7,0.4-1.1,0.4c-0.7,0.2-1.4,0.3-2.2,0.4c-0.8,0-1.6-0.2-2.3-0.4
															c-0.4-0.2-0.7-0.4-1.2-0.4c-0.1,0-0.3-0.1-0.4-0.2c0.1-0.1,0.3-0.2,0.4-0.3c0.1-0.2,0.4-0.2,0.5-0.3
															c0.7-0.2,1.5-0.3,2.2-0.3c0.3,0,0.5-0.1,0.7-0.2c0.3-0.1,0.6-0.1,0.9-0.2c0.6-0.1,1.3-0.2,2-0.3c0.3,0,0.6,0,0.8,0
															C351.6,197.2,351.9,197.2,352.2,197.2z"/>
														<path class="st25" d="M348.6,177.4L348.6,177.4c0.4,0.9,0.4,1.9,0.5,2.9c0,0.4,0.1,0.7,0.1,1c-0.1,0-0.1-0.2-0.2-0.4
															c-0.1-0.8-0.2-1.6-0.4-2.3C348.8,178.2,348.6,177.8,348.6,177.4z"/>
														<path class="st25" d="M347.3,177.8L347.3,177.8c0.2,0.6,0.4,1.2,0.4,1.7c0,0.8,0.1,1.6,0.3,2.3h-0.1
															c-0.3-0.8-0.4-1.8-0.4-2.7C347.5,178.7,347.2,178.3,347.3,177.8z"/>
														<path class="st37" d="M341.4,180.4c0.4-0.2,1-0.3,1.4-0.3s1,0.1,1.3,0.4c0.1,0,0,0.2,0,0.2c-0.3-0.1-0.4-0.2-0.7-0.3
															c-0.6-0.1-1.2,0-1.7,0.1C341.7,180.5,341.5,180.5,341.4,180.4C341.4,180.5,341.4,180.5,341.4,180.4z"/>
														<path class="st34" d="M350.8,181.8c1.1-0.6,2.3-0.7,3.5-0.8c0.6-0.1,1.3,0,1.9,0c1,0,2,0,2.9,0.4
															c0.2,0.2,0.4,0.4,0.6,0.5c0,0-0.1,0.1-0.2,0.1c-0.4,0-0.8,0-1.2,0c-0.7,0-1.4,0-2.2,0.2c-0.6,0.1-1.2,0.4-1.7,0.5
															c-1,0.4-2.1,0.9-3.1,1.2c-0.4,0.1-0.7,0-1.1,0.3c-0.1,0-0.2,0-0.3,0c0-0.2,0-0.4-0.1-0.6c0.1-0.4,0-0.7,0.3-1
															C350.2,182.3,350.5,182,350.8,181.8z M340,181.9c-0.5,0.1-1.1,0.3-1.5,0.6s-0.8,0.6-1.3,1c-0.1,0-0.1,0.3,0,0.4
															c0.4,0,0.8-0.1,1.3-0.1c0.7,0,1.4-0.2,2.2-0.1c0.4,0,0.8,0,1.3,0.1c0.3,0,0.5,0.1,0.8,0.2c0.5,0.1,1.1,0.3,1.6,0.4
															c0.7,0.1,1.5,0.1,2.3,0c0.3,0,0.5,0,0.7,0c0,0,0-0.1,0.1-0.1c-0.1-0.1-0.2-0.1-0.4-0.1c0.1,0,0.2,0,0.3,0
															c0-0.4-0.1-0.8-0.2-1.2c0-0.1-0.1-0.3-0.2-0.4c0,0.2,0,0.4,0.1,0.4c-0.4-0.4-0.9-0.6-1.4-0.7
															c-0.5-0.2-1.2-0.3-1.7-0.4C342.7,181.6,341.3,181.5,340,181.9z M349.9,182.3c-0.2,0.4-0.3,0.7-0.3,1.1
															c0,0.4,0,0.7,0.2,1c0.1,0,0.3,0,0.4-0.1c-0.1,0-0.2,0-0.3,0c0-0.2,0-0.4-0.1-0.6c0-0.1,0-0.2,0-0.3
															c0-0.4,0.2-0.8,0.3-1.3C350,182.2,349.9,182.2,349.9,182.3z M349.3,183.1c0,0.4,0,0.9,0.1,1.3c0.1,0,0.1-0.2,0.1-0.3
															c0-0.4,0-0.7,0-1c0-0.2,0-0.4,0-0.5C349.3,182.6,349.3,182.9,349.3,183.1z M347.5,182.9c0.1,0.4,0.1,0.6,0.1,1
															c0,0.1,0,0.2-0.1,0.3v0.1c0.1,0,0.1,0,0.2,0c0.1-0.4,0.1-0.7,0.1-1.2c0-0.2-0.1-0.4-0.3-0.4
															C347.5,182.7,347.5,182.8,347.5,182.9z M347.9,183.1c0,0.4,0,0.8,0,1.3h0.1c0-0.3,0.1-0.4,0.1-0.7
															C348.1,183.4,348.1,183.1,347.9,183.1z M348.9,183.1c0,0.2-0.1,0.4,0,0.6c0,0.2,0.1,0.4,0.3,0.6
															C349,184,349,183.6,348.9,183.1C349,183.1,348.9,183.1,348.9,183.1z M348.3,183.3c0,0.3,0,0.6,0,0.9h0.1
															C348.4,184,348.4,183.6,348.3,183.3C348.4,183.3,348.3,183.3,348.3,183.3z"/>
														<path class="st38" d="M355.5,184.1c0.2,0,0.4,0.1,0.4,0.3c0.2,0.4,0.1,0.7,0,1.1c0,0.2-0.1,0.4-0.3,0.4
															c-0.1,0-0.3,0-0.4-0.1c-0.3-0.4-0.4-0.8-0.2-1.3C355.1,184.4,355.3,184.2,355.5,184.1z"/>
														<path class="st39" d="M331,184.9c0-0.1,0.1-0.3,0.3-0.3c0.5,0,1,0.1,1.4,0.3c0.4,0.1,0.7,0.4,1,0.6h-0.1
															c-0.3-0.1-0.4-0.4-0.7-0.4c-0.5-0.2-1-0.3-1.5-0.3C331.2,184.9,331.1,184.9,331,184.9z"/>
														<path class="st38" d="M341.5,184.7c0.2-0.1,0.4,0,0.4,0.1c0.1,0.2,0.2,0.4,0.2,0.6c0,0.3,0,0.5-0.1,0.7
															s-0.4,0.2-0.6,0c-0.3-0.3-0.4-0.7-0.3-1.2C341.3,184.9,341.3,184.8,341.5,184.7z"/>
														<path class="st40" d="M354.9,186.3c0.6,0,1.2,0,1.8-0.2v0.1c-0.4,0.2-0.8,0.3-1.3,0.4c-0.4,0-0.7,0.1-1-0.1
															c0,0,0-0.1,0-0.2C354.6,186.2,354.7,186.3,354.9,186.3z"/>
														<path class="st41" d="M340.9,186.7c0.1,0,0.2,0,0.4,0c0.5,0.2,1.1,0.2,1.6,0.1c0.1,0,0.1,0,0.2,0
															c-0.1,0.3-0.4,0.3-0.6,0.4c-0.4,0-1,0.1-1.4-0.2C340.9,186.9,340.9,186.8,340.9,186.7z"/>
														<path class="st42" d="M340.4,187.7c0.4,0,1,0.2,1.4,0.2s0.7,0,1.1,0v0.1c-0.4,0.2-0.9,0.2-1.3,0.2s-0.7,0-1.1-0.1
															C340.3,188,340.4,187.8,340.4,187.7z"/>
														<path class="st20" d="M355.5,187.9c0.9-0.1,1.8,0.3,2.3,0.9c0.4,0.5,0.5,1.3,0.4,2c-0.1,0.4-0.1,0.8-0.3,1.3
															c-0.2,0.4-0.4,0.8-0.7,1.2c-0.6,0.6-1.6,0.9-2.5,0.5c-0.8-0.3-1.4-0.8-1.8-1.6c-0.1-0.4-0.1-0.7-0.1-1.1
															c0-0.3,0.2-0.6,0.3-0.9c0.1-0.7,0.6-1.3,1.3-1.8C354.6,188.2,355.1,188,355.5,187.9z"/>
														<path class="st43" d="M350.2,189C350.2,189,350.2,188.9,350.2,189c0.3,0.1,0.3,0.4,0.4,0.5c0.2,0.4,0.4,0.7,0.6,1.1
															c0.2,0.4,0.4,1,0.4,1.4s0,0.7-0.2,1c-0.1,0.1-0.2,0.3-0.4,0.3c-0.1,0-0.1-0.1-0.1-0.2c0.1-0.1,0.3-0.3,0.4-0.4
															c0.1-0.4,0-1-0.3-1.4c-0.2-0.4-0.3-0.7-0.4-1.1C350.4,189.8,350.2,189.4,350.2,189z"/>
														<path class="st20" d="M341,189.1c0.4-0.1,1,0,1.4,0.3c0.6,0.4,1.1,1,1.3,1.7c0.3,1.1,0.1,2.2-0.5,3.1
															c-0.4,0.4-0.9,0.7-1.5,0.9c-0.4,0.1-0.7,0.1-1,0c-0.7-0.2-1.4-0.7-1.7-1.3c-0.4-1-0.4-2.2,0.1-3.1
															C339.3,189.9,340.1,189.3,341,189.1z"/>
														<path class="st25" d="M345.8,189.8c0-0.2,0-0.4,0.1-0.4c0.1,0.5,0,1.1-0.2,1.5c-0.1,0.4-0.4,0.8-0.4,1.2
															c-0.2,0.5-0.3,1.1,0,1.5c0.1,0.3,0.4,0.4,0.7,0.4c0.2,0,0.4-0.1,0.5-0.1c-0.1,0-0.1,0-0.2,0.1c0,0,0.1,0.1,0.2,0.2
															c-0.4,0-0.7,0.2-1.2,0c-0.4-0.3-0.5-0.7-0.5-1.2s0.1-1,0.4-1.5C345.5,190.9,345.7,190.3,345.8,189.8z"/>
														<path class="st44" d="M348.2,189.9c0,0,0.1,0,0.2,0c0.1,0.2,0.1,0.4,0.1,0.7c0,0.7,0,1.3,0,2h-0.1
															c-0.1-0.4,0-0.8-0.1-1.2C348.2,190.9,348.1,190.3,348.2,189.9z"/>
														<path class="st45" d="M357.4,189.9c0.1,0.3,0.1,0.7,0,1C357.4,190.5,357.4,190.2,357.4,189.9z"/>
														<path class="st46" d="M342.1,189.7c0.3,0.2,0.5,0.4,0.6,0.7C342.3,190.3,342.2,190.1,342.1,189.7z"/>
														<path class="st16" d="M364.4,184.7c0.3-0.2,0.6-0.5,1-0.4v0.1c-0.6,0.4-1.3,0.8-1.8,1.4c-0.6,0.7-1.2,1.4-1.5,2.2
															c-0.5,1.2-1.1,2.3-1.3,3.6c0,0-0.1,0-0.2,0c0-0.4,0.1-0.8,0.2-1.3c0.3-0.9,0.6-1.8,1.1-2.7
															C362.5,186.5,363.4,185.4,364.4,184.7z M331.5,186.2c0,0,0,0.1,0,0.2c0.3,0.2,0.7,0.3,0.9,0.5c0.6,0.4,1,1.1,1.4,1.7
															c0.6,1.1,1.2,2.2,1.6,3.2c0-0.1,0-0.2,0-0.4s-0.1-0.4-0.2-0.6c-0.4-1-0.9-2.1-1.4-3c-0.4-0.7-0.9-1.3-1.7-1.6
															C331.9,186.3,331.7,186.2,331.5,186.2z M335.5,191.6c0,0.1,0,0.2,0,0.4c0,0.1,0.1,0.2,0.2,0.3
															C335.6,192,335.5,191.8,335.5,191.6z"/>
														<path class="st47" d="M350,193.7c0.3-0.2,0.6-0.4,1-0.4c0,0,0.1,0.1,0.2,0.1c0,0,0,0.1-0.1,0.1
															c-0.3,0.1-0.5,0.2-0.8,0.4c-0.4,0.3-0.8,0.4-1.3,0.5c-0.7,0.1-1.3,0-2-0.1c-0.1,0-0.2,0-0.4-0.1
															c-0.1,0-0.1-0.1-0.2-0.2c0.1,0,0.1-0.1,0.2-0.1c0.7,0.1,1.3,0.2,2.1,0.2C349.1,194,349.5,193.9,350,193.7z"/>
														<path class="st48" d="M351.5,197c0.4,0,0.8-0.2,1.3-0.1c0,0,0,0.1,0.1,0.1c-0.1,0-0.2,0-0.4,0.1
															c-0.5,0.1-1.2,0.3-1.7,0.3c-0.9,0.1-1.9,0-2.8,0.2c-0.6,0.2-1.2,0.4-1.8,0.4c-0.4,0-0.8,0-1.3,0.1
															c-0.4,0.1-0.8,0.4-1.3,0.5c-0.1,0-0.2,0.1-0.4,0.1c0.3-0.4,0.6-0.5,1-0.7s0.9-0.3,1.3-0.3c0.6,0,1.3-0.1,1.8-0.3
															s1.1-0.3,1.6-0.3C350.1,197.2,350.8,197.2,351.5,197z"/>
														<path class="st49" d="M347.2,198.9c0.8-0.2,1.6-0.3,2.4-0.4c0,0,0,0.1,0,0.2c-0.4,0.2-0.9,0.2-1.3,0.4
															c-0.4,0.1-0.7,0.2-1.1,0.1C347.2,199,347.2,199,347.2,198.9z"/>
														<path class="st25" d="M350.2,209.4c0,0,0.1,0,0.2,0c0.3,0.4,0.4,0.9,0.4,1.4c0.1,0.7,0.2,1.4,0.1,2.2
															c0,0.3-0.1,0.5-0.2,0.7c0,0-0.1,0-0.2,0c0.1-0.5,0.1-1,0.1-1.4c-0.1-0.8-0.3-1.6-0.4-2.4
															C350.2,209.6,350.2,209.5,350.2,209.4z"/>
														<path class="st25" d="M346.7,209.9L346.7,209.9c0.2,0.5,0.2,1,0.2,1.5c0,0.7,0.3,1.4,0.6,2.1c0.1,0.2,0.3,0.4,0.4,0.6
															c-0.2,0-0.3-0.1-0.4-0.3c-0.4-0.4-0.6-1-0.8-1.6c-0.2-0.5-0.2-1.2-0.1-1.7C346.6,210.4,346.6,210.2,346.7,209.9z"/>
														<path class="st50" d="M369.8,240.5c0.1-0.2,0.2-0.4,0.3-0.7c0.2-0.4,0.4-0.9,0.5-1.4c0.5-1.4,1.2-2.9,1.7-4.4
															c0.4-1.2,0.8-2.3,1.2-3.6c0.1-0.5,0.3-1,0.4-1.4h-0.1c-0.1,0.4-0.3,0.7-0.4,1.1c-0.3,0.7-0.5,1.4-0.7,2.2
															c-0.7,2.2-1.6,4.4-2.3,6.6c-0.1,0.2-0.2,0.4-0.2,0.6c-0.1,0.2-0.2,0.4-0.3,0.7c-0.1,0.3-0.2,0.4-0.3,0.7
															C369.7,240.8,369.7,240.7,369.8,240.5z"/>
														<path class="st50" d="M368.6,243.2c0-0.2,0-0.4,0-0.6c0-0.9,0.1-1.8,0.3-2.7c0.2-1.2,0.6-2.2,0.8-3.3
															c0.1-0.6,0.2-1.3,0.1-1.9c0,0-0.1,0-0.2,0c0,1-0.3,2-0.5,2.9c-0.4,1.3-0.6,2.7-0.7,4c0,0.5,0,1,0.1,1.5
															C368.4,243.2,368.5,243.2,368.6,243.2z"/>
														<path class="st50" d="M371,241.6c0.4-1.3,0.8-2.4,1.2-3.7c0,0-0.1,0-0.2-0.1c-0.2,0.2-0.3,0.4-0.4,0.7
															c-0.5,1.4-1,2.9-1.3,4.3c0,0.2,0,0.4,0,0.7c0,0,0.1,0,0.2,0C370.5,242.8,370.8,242.2,371,241.6z"/>
														<path class="st50" d="M363.5,226.6c0.4-0.4,0.9-0.8,1.3-1.4c0.2-0.4,0.4-0.7,0.5-1.1h-0.1c-0.1,0.1-0.2,0.3-0.3,0.4
															c-0.5,0.9-1.3,1.6-2,2.3c-0.4,0.4-0.9,0.9-1.3,1.3c-0.2,0.1-0.3,0.3-0.4,0.4c-0.1,0.1-0.3,0.2-0.4,0.4
															c0.1,0,0.2-0.1,0.4-0.2c0.2-0.2,0.4-0.4,0.6-0.5C362.3,227.8,362.9,227.3,363.5,226.6z"/>
														<path class="st50" d="M342.8,234.4c-0.8-0.4-1.4-1-2.2-1.6c-0.4-0.4-0.9-0.9-1.4-1.3c-0.5-0.4-1.2-0.6-1.7-0.9
															c-0.1-0.1-0.3-0.1-0.4-0.1c0,0.1,0.1,0.1,0.1,0.2c0.5,0.4,1.2,0.6,1.8,1c0.4,0.2,0.6,0.4,0.9,0.7
															c0.8,0.7,1.5,1.4,2.4,2c0.3,0.2,0.5,0.4,0.9,0.4C343.1,234.5,342.9,234.5,342.8,234.4z"/>
														<path class="st50" d="M340.9,237.4c0.2,0.2,0.4,0.4,0.6,0.6c0.6,0.7,1.4,1.2,2.2,1.7c0.6,0.4,1.3,0.6,1.9,0.8v-0.1
															c-0.4-0.2-0.7-0.3-1-0.4c-0.7-0.4-1.4-0.8-2.1-1.3c-0.4-0.4-0.7-0.7-1.3-1.1C341.2,237.4,341,237.2,340.9,237.4z"/>
														<path class="st50" d="M362.6,233.9c-0.2,0.3-0.4,0.4-0.5,0.7c0.1,0,0.2,0,0.2-0.1c0.3-0.3,0.5-0.7,0.8-1
															c0.5-0.7,1.2-1.5,1.7-2.2c0.6-0.7,1.3-1.4,1.7-2.2c0.1-0.2,0.3-0.4,0.4-0.6c-0.2,0-0.3,0.3-0.4,0.4
															c-0.6,0.8-1.3,1.5-1.9,2.4C363.9,232.1,363.3,233,362.6,233.9z"/>
														<path class="st50" d="M324.9,236.1c0.7,1.3,1.4,2.8,2.2,4h0.1c-0.7-1.3-1.3-2.5-1.9-3.7c-0.4-0.8-0.8-1.7-1.3-2.4
															h-0.1c0,0.1,0,0.2,0.1,0.3C324.3,234.9,324.5,235.5,324.9,236.1z"/>
														<path class="st50" d="M321.6,234c0.5,0.7,0.9,1.5,1.3,2.4s0.9,1.8,1.4,2.6c0.2,0.3,0.4,0.5,0.5,0.7
															c0.2,0.3,0.4,0.5,0.7,0.7c0-0.2-0.2-0.4-0.4-0.5c-0.3-0.3-0.5-0.6-0.7-1c-0.5-0.7-0.9-1.6-1.3-2.4s-0.6-1.6-1.1-2.3
															c-0.4-0.5-0.8-1-1.1-1.5c-0.1-0.1-0.2-0.3-0.3-0.4c0,0.1,0,0.2,0,0.3C320.9,233.1,321.2,233.6,321.6,234z"/>
														<path class="st50" d="M326.9,241.9c0,0.3,0.1,0.4,0.2,0.7c0.4,0.8,0.6,1.6,0.9,2.5h0.1l0,0c-0.1-0.6-0.4-1.3-0.5-1.8
															c-0.2-0.4-0.3-0.9-0.5-1.3C327,241.9,326.9,241.9,326.9,241.9z"/>
														<path class="st50" d="M331.1,220.7c0.4,0.3,0.5,0.7,0.8,1c0.4,0.4,0.6,0.7,1,1.1s0.8,0.6,1.3,1c0.7,0.5,1.4,1,2.2,1.5
															c0.4,0.3,0.9,0.6,1.4,0.9c1.3,0.7,2.6,1,4,1.4c0.3,0,0.5,0.2,0.7,0.2c0.3,0.1,0.6,0.2,0.9,0.3
															c1.2,0.2,2.3,0.1,3.5,0.1c1-0.1,2.1,0,3.1-0.3c0.9-0.2,1.8-0.4,2.7-0.6c1.3-0.4,2.5-0.9,3.8-1.4
															c0.6-0.3,1.2-0.6,1.7-0.8c0.7-0.4,1.3-0.8,2.1-1.3c0.5-0.4,1.1-0.7,1.5-1.2c0.4-0.4,0.9-0.7,1.3-1.2
															c0.5-0.5,1.1-1,1.6-1.5c0.4-0.4,0.7-1,1.1-1.4c0.2-0.3,0.4-0.5,0.5-0.8c-0.3,0-0.4,0.3-0.7,0.4
															c-0.5,0.6-1,1.3-1.5,1.9c-0.8,0.7-1.6,1.5-2.5,2.2c-1.2,0.9-2.3,2-3.7,2.6c-0.5,0.3-1,0.5-1.5,0.7
															c-1.3,0.5-2.7,1-4,1.4c-1.4,0.4-2.8,0.7-4.2,0.7c-0.6,0-1.2,0.1-1.8,0.1c-1.2,0-2.3,0-3.6-0.3c-0.5-0.1-1-0.2-1.4-0.4
															c-1.1-0.4-2.2-0.7-3.1-1.2c-0.4-0.2-0.8-0.5-1.3-0.7c-0.5-0.3-1-0.6-1.4-1c-0.4-0.3-0.8-0.6-1.3-0.9
															c-0.4-0.4-0.9-0.5-1.3-1c-0.3-0.4-0.6-0.7-1-1.1c-0.2-0.4-0.4-0.6-0.7-0.9c-0.1-0.1-0.3-0.3-0.5-0.2
															C330.9,220.4,331,220.5,331.1,220.7z"/>
													</g>
												</g>
											</g>
										</g>
									</g>
								</g>
							</g>
						</g>
					</g>
				</g>
			</g>
		</g>
	</g>
	<g>
		<circle class="st2" cx="419.4" cy="193.2" r="43.2"/>
		<g>
			<g>
				<g>
					<g>
						<defs>
							<circle id="SVGID_00000057839146581309087520000015421300314235606658_" cx="419.4" cy="193.2" r="38.4"/>
						</defs>
						<clipPath id="SVGID_00000145045439173717160960000005610163917315839935_">
							<use xlink:href="#SVGID_00000057839146581309087520000015421300314235606658_"  style="overflow:visible;"/>
						</clipPath>
						<g style="clip-path:url(#SVGID_00000145045439173717160960000005610163917315839935_);">
							<g>
								<g>
									<rect id="SVGID_4_" x="380.9" y="154.8" class="st52" width="76.8" height="76.8"/>
								</g>
								<g>
									<g>
										<g>
											<g>
												<defs>
													
														<rect id="SVGID_00000088124089666440544740000009389312110323900348_" x="380.9" y="154.8" width="76.8" height="76.8"/>
												</defs>
												<clipPath id="SVGID_00000096051071261716248170000007893210652299940495_">
													<use xlink:href="#SVGID_00000088124089666440544740000009389312110323900348_"  style="overflow:visible;"/>
												</clipPath>
												<g style="clip-path:url(#SVGID_00000096051071261716248170000007893210652299940495_);">
													<g>
														<g>
															<path class="st54" d="M453.7,236.3L453.7,236.3c-0.3-1.4-0.8-2.9-1.5-4.1c-0.7-1.3-1.5-2.5-2.5-3.6
																c-0.9-1.1-1.9-2-3-2.9c-0.4-0.4-0.8-0.6-1.3-0.9c-1.2-1.3-2.7-2.5-4.2-3.4c-1.2-0.7-2.2-1.6-3.2-2.5
																c-0.8-0.8-1.8-1.4-2.7-2.2c-0.8-0.7-1.5-1.7-2.5-2.2c-1.2-0.7-2.2-1.5-3.3-2.2c-0.7-0.5-1.6-0.7-2.5-0.8
																c-1.8-0.3-3.7-0.3-5.5-0.3c-3.4,0.1-6.9,0.6-10.3,1.3c-0.6,0.1-1.3,0.3-2,0.1c-0.5,0-1,0.2-1.5,0.4
																c-0.6,0.1-1.2,0.4-1.6,0.7c-0.4,0.4-0.8,0.8-1.2,1.3c-0.9,0.9-2,1.8-3.1,2.6c-0.8,0.6-1.7,1.3-2.5,1.9
																c-1.2,1-2.2,2.2-3.4,3.1c-1.3,0.8-2.5,1.7-3.8,2.5c-0.1,0.1-0.2,0.1-0.3,0.2c-0.1,0.1-0.3,0.1-0.4,0.2
																c-0.6,0.3-1.3,0.6-1.8,1c-1.3,0.8-2.4,1.7-3.4,2.8c-1.1,1.1-2.1,2.4-2.8,3.7c-0.7,1.2-1.3,2.5-1.8,3.8L453.7,236.3
																L453.7,236.3z"/>
															<path class="st34" d="M425.7,167.9c0.8-0.3,1.7-0.4,2.6-0.4c0.4,0,1,0.1,1.3,0.5c0.2,0.4,0,0.8-0.2,1.2
																c-0.5,0.7-1.3,1.2-2,1.7c0.7-0.4,1.5-0.9,2.5-1c0.4,0,0.8,0,1.1,0.2s0.3,0.7,0.2,1c-0.2,0.4-0.5,0.8-0.8,1.2
																c0.5-0.3,1.2-0.5,1.8-0.6c0.2,0,0.5,0,0.6,0.2c0,0.4-0.2,0.6-0.4,0.9c-0.7,0.8-1.8,1.3-2.9,1.6
																c0.4,0.4,0.8,0.7,1.3,1.2c1.2,1.2,1.9,2.6,2.3,4.2c0.3,0.8,0.4,1.7,0.4,2.5c0,1-0.1,2-0.3,2.9
																c-0.1,0.6-0.4,1.2-0.6,1.8c-0.2,0.4-0.2,0.7-0.3,1.2c-0.1,0.7-0.3,1.4-0.6,2.1c-0.1,0.4-0.4,0.6-0.6,0.9
																c-0.9,0.9-2,1.8-3.1,2.4c-1,0.5-2.2,0.8-3.3,0.8c-1.3,0-2.7,0-4.1,0c-0.8,0-1.7-0.1-2.5-0.2
																c-0.8-0.1-1.7-0.3-2.6-0.4c-0.8-0.1-1.6-0.1-2.4-0.1c-0.7,0-1.5,0-2.2-0.2c-0.6-0.2-1-0.7-1.3-1.2
																c-1.2-1.7-1.9-3.8-2.4-5.8c-0.3-1.2-0.4-2.3-0.3-3.5c0.1-1.3,0.1-2.7,0.5-4c0.3-0.8,0.6-1.7,1.1-2.4
																c0.3-0.4,0.6-0.9,1.1-1.3c0.6-0.4,1.3-0.8,2-0.7c0-0.6,0.1-1.2,0.4-1.7c0.3-0.6,0.5-1.3,0.9-1.7s0.8-0.7,1.3-0.9
																c0.6-0.3,1.3-0.5,1.9-0.5c1.4,0,3,0,4.4-0.1c0.8-0.1,1.7-0.1,2.5-0.4C423.8,168.7,424.8,168.2,425.7,167.9z"/>
														</g>
														<g>
															<path class="st9" d="M417,173.7c1.9-0.7,4-1.2,6-1.2c0.5,0.1,1.1,0.1,1.6,0.4c0.3,0.1,0.6,0.3,0.8,0.4
																c0.6,0.4,1.3,0.6,1.9,0.8c0.3,0.1,0.6,0.2,0.8,0.3c0.4,0.1,0.6,0.4,0.8,0.5c0,0.5,0,1.1,0,1.7
																c-0.1,0.8,0,1.7,0.1,2.6c0.1,1.3,0.4,2.5,0.5,3.8c0.1,0.5,0.2,1.2,0.4,1.7c0,1,0.4,1.9,0.4,2.9
																c0,0.8-0.4,1.6-0.4,2.4v0.1c-0.4,0.7-0.6,1.6-0.8,2.4c-0.3,1-0.5,2.1-0.8,3.1c-0.2,0.5-0.4,1.1-0.6,1.5
																c-0.1,0.1-0.1,0.3-0.2,0.4c-0.4,0.2-0.8,0.5-1.2,0.7c-0.5,0.3-1.1,0.4-1.6,0.7c-1.1,0.4-2.2,0.2-3.4,0.2
																c-1.2-0.1-2.3,0.1-3.5,0.1c-1.3,0-2.6,0-3.9-0.4c-1.2-0.4-2.2-1.1-3.1-1.9c-0.4-0.4-0.8-0.9-1.1-1.4
																c0.1,0.4,0.3,0.8,0.4,1.3c0.3,0.6,0.5,1.3,0.8,1.9c0.3,0.5,0.6,1,0.8,1.5c0.3,0.4,0.7,0.9,0.9,1.4
																c0.2,0.5,0.5,1,0.7,1.5c0.3,0.5,0.6,1.1,1.2,1.3s1.2-0.1,1.7-0.3c0.7-0.2,1.3-0.2,2.1-0.2c1.3,0.1,2.4,0.7,3.7,0.8
																c0.3,0.1,0.5,0.3,0.8,0.3c1.1,0.3,2.1,0.6,3.1,1c0.4,0.1,0.9,0.4,1.4,0.4c0-0.3,0-0.5,0-0.7c0,1,0,2.1,0.1,3.1
																c0.2,1.5,0.1,3.1,0.2,4.7c0.2,0.9-0.1,1.9-0.3,2.8c-0.3,1.1-0.6,2.2-1.2,3.2c-0.4,0.7-0.7,1.3-1.2,2
																c-0.4,0.5-0.8,1.1-1.3,1.5c-0.4,0.5-0.9,0.9-1.4,1.3c-0.5,0.4-1.1,0.9-1.6,1.4c-0.4,0.4-0.9,0.7-1.5,0.9
																c-0.4,0.2-0.8,0.4-1.3,0.5c-0.4,0.1-0.7,0-1.1,0c-0.7-0.1-1.3-0.4-1.9-0.8c-0.5-0.4-1.1-0.8-1.5-1.3
																c-0.9-1-1.8-2-2.5-3.1c-0.5-0.7-0.9-1.4-1.4-2.1c-0.4-0.7-0.8-1.3-1.2-2.1c-0.4-1.3-0.3-2.7-0.2-4
																c0-0.8,0.1-1.5,0.3-2.2c0.3-1.5,0.3-3.1,0.4-4.7c0.2-1.5,0.3-3.1,0.3-4.7c-0.1-1.3,0.1-2.7,0-4
																c0.1-0.4,0.1-0.7,0.1-1.1c0.2-1.7,0.1-3.4,0.1-5.1c0-0.4,0-0.9-0.2-1.3c0.1-0.4,0-1,0-1.4c-0.1-1,0-2,0.2-3
																c0.4-1,0.6-2.1,0.7-3.1c0.3-1.4,0.3-2.8,0.4-4.2c0.1-0.6,0.3-1.3,0.4-1.9c0-0.2,0.1-0.4,0.4-0.4
																c0.6-0.3,1.2-0.6,1.7-1C414.5,174.6,415.8,174.1,417,173.7z"/>
															<path class="st20" d="M432.3,187c0.7,0,1.4,0.4,1.8,1c0.4,0.7,0.5,1.6,0.5,2.4c0,0.7-0.3,1.3-0.4,2
																c-0.2,0.7-0.4,1.4-0.8,2c-0.6,1-1.3,1.9-2.3,2.5c-0.7,0.4-1.7,0.8-2.5,0.5c-0.3,0-0.4-0.1-0.7-0.2h-0.1
																c0-0.2,0.1-0.3,0.2-0.4c0.3-0.4,0.4-1,0.6-1.5c0.3-1,0.5-2,0.8-3.1c0.2-0.8,0.4-1.7,0.8-2.4c0,0,0,0,0.1,0
																c0.4-0.5,0.7-1.1,1.1-1.6C431.6,187.9,431.9,187.5,432.3,187z"/>
															<path class="st20" d="M406.3,188.3c0.4-0.2,0.9-0.1,1.3,0.2c0.8,0.4,1.3,1.3,1.7,2.1c0.1,0.4,0.1,0.9,0.2,1.3
																c0,1.7,0.1,3.4-0.1,5.1c0,0.4,0,0.7-0.1,1.1c-0.3-0.1-0.6,0-0.8-0.1c-0.8-0.3-1.4-0.8-2-1.4
																c-0.8-0.9-1.3-2.1-1.6-3.2c-0.4-1-0.3-2.2,0.1-3.2C405.3,189.3,405.6,188.5,406.3,188.3z"/>
															<path class="st36" d="M409.9,195.4c0.4,0.4,0.7,0.9,1.1,1.4c0.8,0.8,1.9,1.4,3.1,1.9c1.3,0.4,2.5,0.4,3.9,0.4
																c1.2,0,2.3-0.1,3.5-0.1s2.3,0.2,3.4-0.2c0.5-0.2,1.1-0.4,1.6-0.7c0.4-0.2,0.8-0.6,1.2-0.7h0.1c0,0.4,0,0.9,0,1.3
																c0,0.4-0.1,0.7-0.3,1.1c0.1,0,0.2,0,0.4,0c-0.1,1.9,0,3.9,0,5.8c0,0.3,0,0.5,0,0.7c-0.4-0.1-0.9-0.4-1.4-0.4
																c-1-0.4-2.1-0.7-3.1-1c-0.3-0.1-0.5-0.3-0.8-0.3c-1.3-0.2-2.4-0.8-3.7-0.8c-0.7,0-1.4,0-2.1,0.2
																c-0.5,0.2-1.2,0.4-1.7,0.3c-0.5-0.2-0.9-0.7-1.2-1.3s-0.5-1-0.7-1.5s-0.6-0.9-0.9-1.4s-0.6-1-0.8-1.5
																c-0.4-0.6-0.5-1.3-0.8-1.9C410.2,196.2,410,195.8,409.9,195.4z"/>
														</g>
														<g>
															<path class="st36" d="M421.3,181.4c0.3-0.4,0.6-1,1.3-1.1v0.1l0.1,0.1c0-0.1,0-0.2,0-0.2c0.4-0.1,0.8,0,1.3,0
																c-0.4,0.4-0.8,0.7-1.2,1.2c-0.4,0.5-0.6,1.1-0.7,1.7c0,0.3-0.1,0.6,0,0.8c0.3,0.4,0.6,0.9,0.4,1.4
																c-0.1,0.2-0.3,0.4-0.4,0.4c0-0.2,0.3-0.4,0.3-0.5c0-0.4-0.3-0.8-0.4-1.2c-0.2-0.4-0.5-0.8-0.7-1.2
																C421.2,182.5,421.1,182,421.3,181.4z"/>
															<path class="st36" d="M427.5,199.8c0.2-0.4,0.3-0.7,0.3-1.1c0,0.4,0,0.7,0,1.1C427.7,199.8,427.5,199.8,427.5,199.8z
																"/>
															<path class="st55" d="M424.9,169.4c0.8-0.4,1.7-0.8,2.6-1c-0.3,0.2-0.7,0.4-1,0.5c-0.5,0.3-1,0.5-1.5,0.7
																c-0.8,0.3-1.6,0.4-2.4,0.6c-0.6,0.1-1.3,0.2-1.8,0.1C422.1,170.1,423.6,169.9,424.9,169.4z"/>
															<path class="st55" d="M427.5,169.4c0.1,0,0.2-0.1,0.4-0.1c-0.5,0.4-1.2,0.7-1.7,0.9s-1.2,0.4-1.8,0.4
																C425.4,170.3,426.5,169.9,427.5,169.4z"/>
															<path class="st55" d="M414,171.7c0.7-0.6,1.4-1.2,2.3-1.4h0.1c-0.8,0.4-1.5,0.8-2.2,1.4c-0.5,0.4-0.9,1.1-1.1,1.7
																c-0.1,0.4-0.1,0.7-0.3,1c0-0.2,0-0.4,0-0.6C413,173,413.4,172.3,414,171.7z"/>
															<path class="st55" d="M416.3,171.6c0.6-0.4,1.3-0.7,1.9-0.8c-0.1,0.1-0.3,0.2-0.4,0.3c-0.7,0.3-1.4,0.7-2.1,1.2
																s-1.3,1.3-1.6,2c0-0.5,0.3-0.9,0.6-1.3C415.1,172.3,415.8,171.9,416.3,171.6z"/>
															<path class="st55" d="M426.7,171.8c1-0.4,2-0.7,2.9-1.2c-0.2,0.4-0.6,0.4-0.9,0.6c-0.5,0.2-1,0.4-1.5,0.6
																C427.1,171.9,426.9,171.9,426.7,171.8z"/>
															<path class="st55" d="M419.9,171.6c0.8-0.1,1.6-0.2,2.4-0.1c-0.1,0.1-0.3,0.1-0.4,0.1c-1,0-1.9,0.2-2.9,0.4
																c-0.4,0.1-0.8,0.4-1.2,0.5C418.4,171.9,419.2,171.6,419.9,171.6z"/>
															<path class="st55" d="M409.5,176.2c0.2-0.1,0.4-0.3,0.5-0.3c-0.1,0.3-0.4,0.4-0.5,0.5c-0.8,0.8-1.2,2-1.5,3.1
																c-0.2,0.6-0.3,1.2-0.3,1.8c-0.1-1.1,0.2-2.2,0.6-3.1C408.6,177.6,408.9,176.9,409.5,176.2z"/>
															<path class="st55" d="M430,176.1c0.1,0.1,0.3,0.3,0.3,0.4c0.2,0.8,0.4,1.5,0.4,2.3c0,0.9-0.1,1.8-0.3,2.7
																c0,0.3-0.1,0.4-0.2,0.7c0.3-1.2,0.4-2.3,0.3-3.5C430.4,177.8,430.1,176.9,430,176.1z"/>
															<path class="st56" d="M414.7,177.1c0.6-0.4,1.4-0.4,2.1-0.3c-0.4,0-0.8,0-1.2,0.1C415.4,177,415,177.1,414.7,177.1z"
																/>
															<path class="st55" d="M409.9,177.4c0.1-0.2,0.4-0.4,0.5-0.4c-0.2,0.4-0.4,0.6-0.6,0.9c-0.4,1-0.8,2-1,3.1
																c-0.1,0.4-0.1,0.8-0.1,1.3c-0.2-0.4-0.1-0.8-0.1-1.2c0.1-0.7,0.4-1.4,0.5-2.2C409.4,178.5,409.6,177.9,409.9,177.4z"
																/>
															<path class="st55" d="M431.2,177.1c0.2,0.2,0.3,0.4,0.4,0.7c0.3,1,0.2,2.2,0.2,3.2c0,0.5,0,1-0.1,1.4
																c0,0.3-0.1,0.5-0.3,0.7c0.3-0.9,0.3-1.9,0.3-2.9C431.6,179.2,431.4,178.1,431.2,177.1z"/>
															<path class="st57" d="M415.9,177.7c0.6-0.1,1.3-0.2,2,0.1c0.6,0.4,1,1.1,0.8,1.8c-0.1,0-0.3,0-0.4,0
																c-0.5-0.1-1.2-0.2-1.7-0.2c-1,0.1-2.1,0.1-3.1,0.4c-0.7,0.2-1.3,0.6-2,0.9c0-0.3,0.1-0.4,0.2-0.6
																c0.4-0.7,1-1.3,1.7-1.6C414.2,178.1,415,177.8,415.9,177.7z"/>
															<path class="st57" d="M421.9,178.3c0.4-0.3,0.9-0.4,1.4-0.3c1.5,0.2,3,0.7,4.2,1.4c0.4,0.2,0.6,0.4,0.9,0.8
																c-0.1,0-0.2,0-0.3,0c-1.6-0.3-3.1-0.7-4.8-0.8c-0.6,0-1.3,0-1.9,0.1c-0.1,0-0.3,0-0.4-0.1
																C421.3,179.1,421.5,178.7,421.9,178.3z"/>
															<path class="st38" d="M413.8,181.8c0.2-0.1,0.4-0.1,0.4,0.2c0.1,0.4,0.1,0.8-0.1,1.1c-0.2,0.2-0.5,0.1-0.5-0.2
																C413.6,182.5,413.4,182,413.8,181.8z"/>
															<path class="st55" d="M409.1,183.2c0.1-0.4,0.2-1,0.5-1.4c-0.3,1.1-0.6,2.2-0.7,3.3
																C408.8,184.5,409,183.9,409.1,183.2z"/>
															<path class="st55" d="M432.7,181.7c0.4,0.8,0.2,1.7-0.1,2.5c-0.3,0.7-0.4,1.5-0.8,2.1c0.4-0.9,0.7-1.9,0.8-2.9
																C432.7,183,432.7,182.3,432.7,181.7z"/>
															<path class="st38" d="M425.2,182c0.2-0.1,0.5,0,0.5,0.2c0,0.4-0.1,0.7-0.3,1c-0.2,0.2-0.6,0.1-0.6-0.2
																C424.8,182.6,424.9,182.2,425.2,182z"/>
															<path class="st58" d="M419,183.3c0.4-0.3,0.8-0.3,1.2-0.2c0.1,0,0.2,0.1,0.3,0.2C420,183.2,419.5,183.3,419,183.3z"
																/>
															<path class="st55" d="M407.8,184.6c0-0.4-0.1-1,0.1-1.4c0,0.8,0.1,1.7,0.3,2.5c0.1,0.5,0.3,1.1,0.3,1.6
																C408.1,186.4,407.9,185.5,407.8,184.6z"/>
															<path class="st59" d="M412.9,183.5c0.4,0,0.8,0,1.2,0c0.4,0,0.7,0,1,0c-0.4,0.2-1,0.2-1.5,0.2
																C413.3,183.7,413.1,183.6,412.9,183.5z"/>
															<path class="st24" d="M424.5,183.7c0.6,0.1,1.2,0.1,1.8,0c-0.1,0.1-0.2,0.2-0.4,0.2c-0.4,0.1-0.8,0.1-1.2,0
																C424.7,183.9,424.6,183.8,424.5,183.7z"/>
															<path class="st55" d="M431,184.2c0.1,0.1,0.3,0.1,0.3,0.3c0.1,0.7,0,1.3-0.1,2H431C431,185.7,431,184.9,431,184.2z"
																/>
															<path class="st60" d="M412.5,184.6c0.6,0,1.3,0,2,0c-0.4,0.2-0.8,0.2-1.2,0.2C413.1,184.8,412.8,184.8,412.5,184.6z"
																/>
															<path class="st61" d="M417.8,185.5c0-0.5,0.7-0.7,1.2-0.5c0.1,0.1,0.1,0.3,0.2,0.4c-0.1,0.4-0.6,0.5-1,0.5
																C418,185.8,417.8,185.7,417.8,185.5z"/>
															<path class="st61" d="M420.8,185c0.3-0.1,0.5,0,0.8,0.1c0.1,0.1,0.3,0.3,0.3,0.4s-0.3,0.2-0.4,0.2
																c-0.3,0-0.6,0-0.8-0.2C420.4,185.4,420.5,185.1,420.8,185z"/>
															<path class="st62" d="M424.5,186.1c0.4-0.3,0.8-0.3,1.3-0.3c0.4,0,0.8,0,1.1,0.3c-0.4,0-0.8-0.1-1.2-0.1
																C425.3,185.9,424.8,186,424.5,186.1z"/>
															<path class="st20" d="M412.6,186.1c0.7-0.1,1.5,0,2.1,0.5c0.7,0.7,0.6,2.1-0.2,2.7c-0.6,0.5-1.4,0.8-2.2,0.7
																c-0.5-0.1-1.1-0.4-1.4-0.8c-0.3-0.4-0.3-1-0.2-1.4c0.2-0.6,0.7-1.1,1.2-1.4C412.2,186.2,412.4,186.1,412.6,186.1z"/>
															<path class="st20" d="M425.7,186.7c0.5-0.1,1.1,0,1.6,0.3s1,0.7,1.1,1.3c0.1,1-0.6,2.1-1.6,2.3
																c-0.7,0.2-1.4,0-2.1-0.4c-0.5-0.4-0.9-0.9-0.9-1.5s0.4-1.2,0.8-1.5C425,187,425.4,186.8,425.7,186.7z"/>
															<path class="st63" d="M425.4,187.3C425.5,187.3,425.5,187.3,425.4,187.3L425.4,187.3z"/>
															<path class="st36" d="M416.6,188.1c0.4-0.3,0.8-0.5,1.3-0.6c0.4-0.1,0.7,0,1.1,0c0.3,0,0.6-0.1,0.9,0
																c0.5,0.1,0.9,0.4,1.4,0.8s1,0.9,1.3,1.6c0.1,0.3,0.2,0.7,0.3,1c0,0-0.2-0.1-0.2-0.2l-0.1,0.1
																c-1.3-0.5-2.7-0.7-4.1-0.8c-1,0-1.9,0.1-2.9,0.3c-0.3,0.1-0.6,0.1-0.9,0.1c0.2-0.4,0.4-0.8,0.7-1.2
																C415.7,188.8,416.1,188.4,416.6,188.1z"/>
															<path class="st64" d="M417.4,188.5c0.5-0.2,1.2-0.3,1.7-0.4c0.3,0,0.5,0,0.8,0.1c0.7,0.3,1.3,0.6,1.9,1.2
																c0.4,0.4,0.6,0.7,0.8,1.1c-0.9-0.4-1.9-0.5-2.8-0.6c-1.6-0.2-3.2,0-4.8,0.3C415.8,189.5,416.5,189,417.4,188.5z"/>
															<path class="st16" d="M432.5,190.2c0.1-0.1,0.3-0.1,0.4-0.1c-0.5,0.5-0.9,1.3-1.3,2c-0.3,0.5-0.6,1.2-0.8,1.7
																c-0.1,0.3-0.2,0.5-0.4,0.7c0.2-1,0.6-1.9,1.1-2.8C431.8,191.1,432,190.6,432.5,190.2z"/>
															<path class="st65" d="M417.8,190.4c0.2-0.2,0.5-0.2,0.8-0.2c0.5,0,1.1,0,1.6,0.2c-0.3,0-0.6,0-0.9,0
																C418.8,190.4,418.4,190.5,417.8,190.4z"/>
															<path class="st16" d="M406.5,190.8c0.4,0.3,0.7,0.8,0.9,1.3c0.4,1,0.7,2.1,0.8,3.1c-0.2-1.2-0.5-2.4-1-3.4
																C407,191.5,406.7,191.1,406.5,190.8z"/>
															<path class="st36" d="M416.8,191.4c0.2-0.1,0.4-0.1,0.5-0.1c0.8,0,1.7-0.1,2.5,0c0.2,0,0.4,0.1,0.5,0.2
																c-0.2,0.4-0.4,0.7-0.5,1.1c-0.2,0-0.4,0-0.6,0c-0.6,0-1.3,0-1.9,0.1C417.3,192.2,417.1,191.8,416.8,191.4z"/>
															<path class="st66" d="M416.9,194.4c0.3-0.1,0.4-0.3,0.8-0.3c0.6-0.1,1.3-0.1,1.9,0c0.2,0,0.4,0.1,0.4,0.2
																c-0.5,0-1-0.1-1.5,0C417.9,194.3,417.4,194.4,416.9,194.4z"/>
															<path class="st56" d="M415.7,208.7c0.3,0.9,0.3,1.8,0.3,2.7c0,0.8,0,1.7-0.3,2.5c0-0.4,0.1-0.8,0.1-1.3
																c0-0.8,0-1.7-0.1-2.5C415.7,209.7,415.6,209.2,415.7,208.7z"/>
															<path class="st67" d="M405.5,216c0.1,0.6,0,1.2,0,1.8c0,1.3,0.4,2.5,1,3.6c0.4,0.8,0.8,1.5,1.2,2.3
																c-0.5-0.8-1-1.8-1.4-2.7c-0.4-0.8-0.8-1.7-0.8-2.7C405.3,217.6,405.4,216.8,405.5,216z"/>
															<path class="st67" d="M429.2,217.2c0-0.1,0-0.2,0-0.4c0.1,0.1,0.2,0.2,0.2,0.4c0.1,0.7,0,1.3-0.2,2
																c-0.2,0.8-0.5,1.6-1,2.3c0,0.1-0.2,0.1-0.3,0.1c0.2-0.4,0.4-0.8,0.6-1.3C429,219.5,429.2,218.3,429.2,217.2z"/>
															<path class="st67" d="M404.1,217.2c0,0,0.1,0.1,0.2,0.1c0.1,0.4,0.1,0.8,0.2,1.2c0.4,1.4,1,2.9,1.7,4.1
																c0.1,0.3,0.4,0.5,0.4,0.8c-0.2-0.2-0.4-0.4-0.5-0.7c-0.6-0.9-1.1-1.9-1.5-2.9C404.3,219.1,403.9,218.2,404.1,217.2z"
																/>
															<path class="st67" d="M424.8,223.7c0.4-0.4,0.7-0.8,1-1.3c0,0.1,0.1,0.3,0,0.4c-0.2,0.5-0.6,0.9-1,1.3
																c-0.5,0.5-1.1,1.1-1.5,1.7c-0.1,0.2-0.3,0.4-0.4,0.5c0-0.1,0-0.2,0.1-0.3C423.4,225.2,424,224.4,424.8,223.7z"/>
															<path class="st67" d="M425.9,226.1c0.2-0.2,0.4-0.4,0.7-0.4c-0.1,0.4-0.4,0.5-0.6,0.8c-0.4,0.4-0.8,0.9-1.1,1.4
																c-0.1,0.1-0.2,0.3-0.4,0.3C424.9,227.4,425.4,226.7,425.9,226.1z"/>
															<path class="st67" d="M417.3,227.2c-0.4,0-0.7,0-1-0.2c0,0-0.1,0-0.1-0.1c0,0-0.1,0-0.2,0c-0.1-0.1-0.2-0.1-0.3-0.2
																l0,0c0.4,0.3,0.6,0.7,1,1c0.2,0.2,0.4,0.4,0.7,0.6l0,0l0,0c0.1,0,0.1-0.1,0.2-0.1l0,0l0,0c0.4-0.1,0.7-0.5,1-0.8
																c0.1-0.1,0.4-0.3,0.4-0.4C418.6,227.2,418,227.2,417.3,227.2z"/>
															<path class="st67" d="M420.6,227.8c0.1-0.2,0.4-0.4,0.5-0.4c-0.1,0.4-0.4,0.6-0.6,1c-0.2,0.3-0.3,0.6-0.4,0.8
																c0,0-0.1,0-0.2,0C420,228.7,420.3,228.2,420.6,227.8z"/>
															<path class="st67" d="M417.1,227.5c0.1-0.1,0.3,0,0.2,0.1C417.2,227.7,417,227.6,417.1,227.5z"/>
															<path class="st67" d="M437.3,236.3c0-0.8,0.1-1.6,0.4-2.3c0.4-2,1.2-3.9,2.2-5.7c0-0.1,0.1-0.2,0-0.3
																c-0.2,0-0.3,0.2-0.4,0.3c-0.5,0.8-0.9,1.8-1.3,2.8s-0.7,2-0.8,3.1C437.3,234.9,437.3,235.5,437.3,236.3
																c-0.1,0-0.1,0-0.1,0.1L437.3,236.3L437.3,236.3z"/>
															<path class="st67" d="M412.7,228.8c0.1-0.1,0.3,0,0.4,0c0.7,0.4,1.3,0.8,1.9,1.3c0.4,0.3,0.8,0.6,0.8,1.1
																c-0.3-0.1-0.4-0.4-0.6-0.5C414.4,230,413.6,229.3,412.7,228.8z"/>
															<path class="st67" d="M438.6,236.3c0-0.2,0.1-0.4,0.1-0.6c0.4-1.7,0.8-3.4,1.5-5.1c0.1-0.3,0.2-0.4,0.2-0.7
																c-0.1,0.1-0.2,0.2-0.3,0.4c-0.5,0.8-0.8,1.7-1.2,2.7c-0.4,1.1-0.5,2.2-0.7,3.4L438.6,236.3L438.6,236.3z"/>
															<path class="st67" d="M391.3,236.3h0.3c-0.2-1.7-0.6-3.4-1-5.2c-0.1-0.3-0.2-0.5-0.4-0.7c0,0-0.1,0-0.2,0
																c0,0.3,0.1,0.5,0.2,0.8C390.7,232.9,391.1,234.6,391.3,236.3z"/>
															<path class="st67" d="M392.5,236.3h0.4c0-0.2,0-0.4-0.1-0.5c-0.2-0.9-0.4-1.8-0.6-2.7c-0.2-0.5-0.3-1.2-0.5-1.7
																c0-0.1-0.2-0.2-0.3-0.3C391.8,232.8,392.2,234.5,392.5,236.3L392.5,236.3z"/>
															<path class="st67" d="M414.2,231.5c0.2,0,0.4,0.1,0.5,0.2c0.5,0.4,0.8,0.8,1,1.4c0,0.1,0.1,0.4-0.1,0.3
																c-0.1-0.3-0.3-0.5-0.4-0.8c-0.2-0.4-0.6-0.5-0.8-0.8C414.2,231.8,414.2,231.7,414.2,231.5z"/>
															<path class="st67" d="M417.3,232.4c0,0,0.1-0.1,0.2-0.1c0.4,0.6,0.4,1.3,0.6,1.9c0,0.2,0.1,0.4,0,0.7
																c-0.3-0.4-0.3-0.8-0.4-1.3C417.6,233.2,417.4,232.8,417.3,232.4z"/>
														</g>
													</g>
												</g>
											</g>
										</g>
									</g>
								</g>
							</g>
						</g>
					</g>
				</g>
			</g>
		</g>
	</g>
	<g>
		<g>
			
				<ellipse transform="matrix(0.7071 -0.7071 0.7071 0.7071 6.7624 400.7258)" class="st2" cx="487.1" cy="192.2" rx="43.2" ry="43.2"/>
			<circle class="st68" cx="487.1" cy="192.3" r="38.4"/>
		</g>
		<g>
			<path class="st64" d="M466.2,190.9h4.9v-5h4.1v5h5v3.7h-5v5h-4.1v-5h-4.9V190.9z"/>
			<path class="st64" d="M492.9,181h6.7v14.7h2.8v4.3h-2.8v4.5h-4.4V200h-12.5l-0.4-4.5L492.9,181z M487.4,195.7h7.9v-10.9
				L487.4,195.7z"/>
		</g>
	</g>
</g>
</svg>
