<?xml version="1.0" encoding="utf-8"?>
<!-- Generator: Adobe Illustrator 28.1.0, SVG Export Plug-In . SVG Version: 6.00 Build 0)  -->
<svg version="1.1" id="Layer_1" xmlns="http://www.w3.org/2000/svg" xmlns:xlink="http://www.w3.org/1999/xlink" x="0px" y="0px"
	 viewBox="0 0 768 384" style="enable-background:new 0 0 768 384;" xml:space="preserve">
<style type="text/css">
	.st0{fill:#FFFFFF;stroke:#212121;}
	.st1{fill:none;stroke:#212121;stroke-dasharray:12.0753,12.0753;}
	.st2{fill:#F8D7FF;}
	.st3{fill:#D7D4FC;}
	.st4{fill:#FFEDC5;}
	.st5{fill:#F4DCA6;}
	.st6{fill:#EDBD43;}
	.st7{opacity:0.51;fill:#806AEA;enable-background:new    ;}
	.st8{fill:#806AEA;}
	.st9{fill:#DB7FEF;}
	.st10{fill:#C72DE2;}
</style>
<path class="st0" d="M592.2,258.9H175.8c-7.9,0-14.3-7.8-14.3-17.5v-98.9c0-9.7,6.4-17.5,14.3-17.5h416.3c7.9,0,14.3,7.8,14.3,17.5
	v98.9C606.5,251.1,600.1,258.9,592.2,258.9z"/>
<g>
	<path class="st1" d="M611.2,275.3H156.8c-7.9,0-14.3-7.3-14.3-16.4V125.1c0-9.1,6.4-16.4,14.3-16.4h454.3c7.9,0,14.3,7.3,14.3,16.4
		v133.8C625.5,267.8,619.1,275.3,611.2,275.3z"/>
</g>
<circle class="st2" cx="229" cy="192" r="42.4"/>
<circle class="st3" cx="378.6" cy="192" r="42.4"/>
<ellipse transform="matrix(0.3162 -0.9487 0.9487 0.3162 186.2737 642.4384)" class="st4" cx="538.8" cy="192" rx="42.4" ry="42.4"/>
<path class="st5" d="M552.3,187.8l-3.2,13.5c-0.1,0.5-0.7,0.9-1.2,0.7l0,0c-6-1.6-12.3-1.6-18.2,0c-0.5,0.1-1.1-0.2-1.2-0.7l0,0
	l-3.2-13.5c-0.1-0.5,0.2-1.1,0.7-1.2c0.2-0.1,0.4,0,0.6,0.1l6.3,2.8c0.5,0.2,1,0,1.3-0.4l3.7-6.6c0.3-0.5,0.9-0.7,1.4-0.4
	c0.2,0.1,0.3,0.2,0.4,0.4l3.7,6.6c0.3,0.5,0.8,0.6,1.3,0.4l6.3-2.8c0.5-0.2,1.1,0,1.3,0.5C552.4,187.4,552.4,187.6,552.3,187.8z"/>
<path class="st6" d="M552.6,186c-0.6-0.5-1.4-0.6-2.1-0.3l-6.3,2.8l-3.7-6.6c-0.5-1-1.8-1.3-2.7-0.8c-0.3,0.2-0.6,0.4-0.8,0.8
	l-3.7,6.6l-6.3-2.8c-1-0.5-2.2,0-2.6,1c-0.2,0.4-0.2,0.9-0.1,1.3l3.2,13.5c0.1,0.5,0.5,1,0.9,1.3c0.3,0.2,0.7,0.3,1,0.3
	c0.2,0,0.4,0,0.5-0.1c5.8-1.6,11.9-1.6,17.7,0c0.5,0.1,1.1,0.1,1.6-0.2s0.8-0.7,0.9-1.3l3.2-13.5C553.5,187.3,553.2,186.5,552.6,186
	z M548.2,201.1c-6.1-1.7-12.6-1.7-18.8,0l-3.2-13.5l6.3,2.8c0.9,0.4,2.1,0.1,2.5-0.9l3.7-6.6l3.7,6.6c0.5,0.9,1.6,1.3,2.6,0.9
	l6.3-2.8L548.2,201.1z M543.8,197.1c-0.1,0.5-0.5,0.9-1,0.9h-0.1c-2.6-0.3-5.2-0.3-7.8,0c-0.5,0.1-1-0.3-1.1-0.9
	c-0.1-0.6,0.3-1,0.9-1.1c2.7-0.3,5.5-0.3,8.2,0C543.4,196.1,543.8,196.6,543.8,197.1z"/>
<path class="st7" d="M368.3,198.1c-3.4-5.7-1.5-13,4.2-16.4s13-1.5,16.4,4.2s1.5,13-4.2,16.4c-3.8,2.2-8.5,2.2-12.2,0l-4.1,1.2
	c-0.5,0.2-1.1-0.1-1.2-0.7c-0.1-0.2-0.1-0.4,0-0.6L368.3,198.1z"/>
<path class="st8" d="M378.6,205c-2.2,0-4.3-0.5-6.2-1.6l-3.8,1.1c-1.1,0.3-2.2-0.3-2.5-1.4c-0.1-0.4-0.1-0.7,0-1.1l1.1-3.8
	c-3.5-6.3-1.1-14.2,5.1-17.6s14.2-1.1,17.6,5.1c3.5,6.3,1.1,14.2-5.1,17.6C382.9,204.4,380.8,205,378.6,205z M372.5,201.3
	c0.2,0,0.4,0.1,0.5,0.1c5.2,3.1,12,1.4,15.1-3.9c3.1-5.2,1.4-12-3.9-15.1s-12-1.4-15.1,3.9c-2.1,3.5-2.1,7.8,0,11.2
	c0.1,0.2,0.2,0.5,0.1,0.8l-1.2,4.1l4.1-1.2C372.3,201.3,372.4,201.3,372.5,201.3z"/>
<path class="st9" d="M222.2,190.7l-3.9,4.7c-0.2,0.2-0.3,0.6-0.2,0.9l1.5,7c0.1,0.5,0.7,0.9,1.2,0.8c0.1,0,0.3-0.1,0.4-0.2l3.8-3
	C222.8,197,222.1,193.6,222.2,190.7z M235.7,190.7l3.9,4.7c0.2,0.2,0.3,0.6,0.2,0.9l-1.5,6.9c-0.1,0.5-0.6,0.9-1.2,0.8
	c-0.2,0-0.3-0.1-0.4-0.2l-3.8-3C235.1,196.9,235.8,193.5,235.7,190.7z"/>
<path class="st10" d="M231,203.8h-4c-0.6,0-1,0.4-1,1s0.4,1,1,1h4c0.6,0,1-0.4,1-1C232,204.3,231.6,203.8,231,203.8z"/>
<circle class="st10" cx="229" cy="188.8" r="1.5"/>
<path class="st10" d="M240.4,194.8l-3.8-4.5c-0.1-1.5-0.5-3-1-4.4c-1.4-3.8-4-6.2-5.4-7.4c-0.7-0.6-1.8-0.6-2.5,0
	c-1.4,1.1-4,3.6-5.5,7.4c-0.6,1.4-0.9,2.9-1,4.5l-3.7,4.4c-0.4,0.5-0.6,1.1-0.4,1.7l1.6,6.9c0.1,0.7,0.6,1.2,1.3,1.4
	c0.2,0.1,0.4,0.1,0.7,0.1c0.4,0,0.9-0.2,1.2-0.4l3.5-2.8h7.3l3.5,2.8c0.4,0.3,0.8,0.4,1.2,0.4c0.2,0,0.5,0,0.7-0.1
	c0.7-0.2,1.1-0.8,1.3-1.4l1.6-6.9C241,195.9,240.8,195.3,240.4,194.8z M229,180.1c8.8,7.1,5.2,16.4,3.4,19.8h-6.8
	C219.6,188.9,226.6,181.9,229,180.1z M220.6,203l-1.5-6.9l2.2-2.7c0.3,2.3,1.1,4.7,2.4,7.2L220.6,203z M237.4,203l-3.1-2.5
	c1.3-2.5,2.1-4.9,2.4-7.2l2.3,2.8L237.4,203z"/>
</svg>
