<?xml version="1.0" encoding="utf-8"?>
<!-- Generator: Adobe Illustrator 28.1.0, SVG Export Plug-In . SVG Version: 6.00 Build 0)  -->
<svg version="1.1" id="a0de72b9-1adf-4f88-b5a5-0dba6270f190"
	 xmlns="http://www.w3.org/2000/svg" xmlns:xlink="http://www.w3.org/1999/xlink" x="0px" y="0px" viewBox="0 0 768 384"
	 style="enable-background:new 0 0 768 384;" xml:space="preserve">
<style type="text/css">
	.st0{fill:none;stroke:#212121;stroke-dasharray:12.08,12.08;}
	.st1{opacity:0.5;fill:#94A3B8;enable-background:new    ;}
	.st2{fill:none;stroke:#212121;}
</style>
<path class="st0" d="M701.5,334.3h-635c-11,0-20-12.5-20-28V77.8c0-15.5,8.9-28,20-28h634.9c11,0,20,12.5,20,28.1v228.5
	C721.5,321.5,712.6,334.3,701.5,334.3z"/>
<path class="st1" d="M498,205.8H270c-1.7,0-3.2-3.1-3.2-6.9V192c0-3.8,1.5-6.9,3.2-6.9h228.1c1.7,0,3.2,3.1,3.2,6.9v6.9
	C501.2,202.6,499.8,205.8,498,205.8z"/>
<path class="st1" d="M476.9,233.1H291.1c-1.6-0.2-2.7-1.5-2.6-3.1v-3.1c-0.1-1.6,1-2.9,2.6-3.1h185.8c1.6,0.2,2.7,1.5,2.6,3.1v3.1
	C479.6,231.6,478.5,232.9,476.9,233.1z"/>
<path class="st1" d="M408.2,137.4h-48.3c-0.4,0-0.7-1.1-0.7-2.4v-2.4c0-1.3,0.3-2.4,0.7-2.4h48.3c0.4,0,0.7,1.1,0.7,2.4v2.4
	C408.8,136.3,408.5,137.4,408.2,137.4z"/>
<path class="st1" d="M464.4,253.8H303.6c-1.2,0-2.2-1.4-2.2-3.1v-3.1c0-1.7,1-3.1,2.2-3.1h160.7c1.2,0,2.2,1.4,2.2,3.1v3.1
	C466.6,252.4,465.6,253.8,464.4,253.8z"/>
<line class="st2" x1="334.9" y1="159.2" x2="443.2" y2="159.2"/>
</svg>
