<?xml version="1.0" encoding="utf-8"?>
<!-- Generator: Adobe Illustrator 28.1.0, SVG Export Plug-In . SVG Version: 6.00 Build 0)  -->
<svg version="1.1" id="Layer_1" xmlns="http://www.w3.org/2000/svg" xmlns:xlink="http://www.w3.org/1999/xlink" x="0px" y="0px"
	 viewBox="0 0 768 384" style="enable-background:new 0 0 768 384;" xml:space="preserve">
<style type="text/css">
	.st0{fill:none;stroke:#212121;stroke-dasharray:12.0753,12.0753;}
	.st1{fill:#FFFFFF;stroke:#212121;stroke-miterlimit:10;}
	.st2{fill:#FFFFFF;stroke:#212121;stroke-width:3;stroke-linecap:round;stroke-linejoin:round;}
	.st3{opacity:0.5;fill:#94A3B8;enable-background:new    ;}
</style>
<g>
	<path class="st0" d="M611.2,315.6H156.8c-7.9,0-14.3-10.9-14.3-24.4V92.8c0-13.5,6.4-24.4,14.3-24.4h454.3
		c7.9,0,14.3,10.9,14.3,24.4v198.4C625.5,304.5,619.1,315.6,611.2,315.6z"/>
</g>
<path class="st1" d="M285.2,250.4h-84.8c-10.1,0-18.3-8.2-18.3-18.3v-80.2c0-10.1,8.2-18.3,18.3-18.3h84.8
	c10.1,0,18.3,8.2,18.3,18.3v80.2C303.5,242.2,295.3,250.4,285.2,250.4z"/>
<path class="st1" d="M426.4,250.4h-84.8c-10.1,0-18.3-8.2-18.3-18.3v-80.2c0-10.1,8.2-18.3,18.3-18.3h84.8
	c10.1,0,18.3,8.2,18.3,18.3v80.2C444.6,242.2,436.5,250.4,426.4,250.4z"/>
<path class="st1" d="M567.5,250.4h-84.8c-10.1,0-18.3-8.2-18.3-18.3v-80.2c0-10.1,8.2-18.3,18.3-18.3h84.8
	c10.1,0,18.3,8.2,18.3,18.3v80.2C585.8,242.2,577.6,250.4,567.5,250.4z"/>
<circle class="st2" cx="283.6" cy="153.9" r="6.9"/>
<circle class="st2" cx="425.4" cy="153.9" r="6.9"/>
<circle class="st2" cx="566.6" cy="153.9" r="6.9"/>
<path class="st3" d="M275.7,202.6h-76.9c-0.6-0.1-1.1-1.3-1.1-2.7v-2.7c0-1.4,0.4-2.6,1.1-2.7h76.9c0.6,0.1,1.1,1.3,1.1,2.7v2.7
	C276.8,201.3,276.3,202.5,275.7,202.6C275.7,202.6,275.7,202.6,275.7,202.6z"/>
<path class="st3" d="M255.2,217.7h-56.7c-0.4,0-0.8-1.2-0.8-2.7v-2.7c0-1.5,0.4-2.7,0.8-2.7h56.7c0.4,0,0.8,1.2,0.8,2.7v2.7
	C256.1,216.5,255.7,217.7,255.2,217.7z"/>
<path class="st3" d="M420.4,202.6h-76.9c-0.6-0.1-1.1-1.3-1.1-2.7v-2.7c0-1.4,0.4-2.6,1.1-2.7h76.9c0.6,0.1,1.1,1.3,1.1,2.7v2.7
	C421.5,201.3,421.1,202.5,420.4,202.6C420.5,202.6,420.4,202.6,420.4,202.6z"/>
<path class="st3" d="M400,217.7h-56.7c-0.4,0-0.8-1.2-0.8-2.7v-2.7c0-1.5,0.4-2.7,0.8-2.7H400c0.4,0,0.8,1.2,0.8,2.7v2.7
	C400.8,216.5,400.5,217.7,400,217.7z"/>
<path class="st3" d="M558.6,202.6h-76.9c-0.6-0.1-1.1-1.3-1.1-2.7v-2.7c0-1.4,0.4-2.6,1.1-2.7h76.9c0.6,0.1,1.1,1.3,1.1,2.7v2.7
	C559.7,201.3,559.3,202.5,558.6,202.6C558.7,202.6,558.6,202.6,558.6,202.6z"/>
<path class="st3" d="M538.2,217.7h-56.7c-0.4,0-0.8-1.2-0.8-2.7v-2.7c0-1.5,0.4-2.7,0.8-2.7h56.7c0.4,0,0.8,1.2,0.8,2.7v2.7
	C539,216.5,538.7,217.7,538.2,217.7z"/>
</svg>
