<?xml version="1.0" encoding="utf-8"?>
<!-- Generator: Adobe Illustrator 28.1.0, SVG Export Plug-In . SVG Version: 6.00 Build 0)  -->
<svg version="1.1" id="Layer_1" xmlns="http://www.w3.org/2000/svg" xmlns:xlink="http://www.w3.org/1999/xlink" x="0px" y="0px"
	 viewBox="0 0 768 384" style="enable-background:new 0 0 768 384;" xml:space="preserve">
<style type="text/css">
	.st0{fill:none;stroke:#CBD5E1;stroke-dasharray:12.08,12.08;}
	.st1{opacity:0.5;fill:#94A3B8;enable-background:new    ;}
	.st2{fill:#CBD5E1;}
</style>
<g>
	<path class="st0" d="M611.2,264.6H156.8c-7.9,0-14.3-6.4-14.3-14.3V133.8c0-7.9,6.4-14.3,14.3-14.3h454.3c7.9,0,14.3,6.4,14.3,14.3
		v116.5C625.5,258.1,619.1,264.6,611.2,264.6z"/>
</g>
<g>
	<path class="st1" d="M305.7,197h-57.1c-0.4,0-0.7-1.5-0.7-3.3v-3.3c0-1.8,0.3-3.3,0.7-3.3h57.1c0.4,0,0.7,1.5,0.7,3.3v3.3
		C306.4,195.5,306.1,197,305.7,197z"/>
	<path class="st1" d="M410,197h-57.1c-0.4,0-0.7-1.5-0.7-3.3v-3.3c0-1.8,0.3-3.3,0.7-3.3H410c0.4,0,0.7,1.5,0.7,3.3v3.3
		C410.7,195.5,410.4,197,410,197z"/>
	<g>
		<path class="st2" d="M321.4,206.1l10.9-28.3h2.7l-11,28.3H321.4z"/>
	</g>
	<path class="st1" d="M519.4,197h-57.1c-0.4,0-0.7-1.5-0.7-3.3v-3.3c0-1.8,0.3-3.3,0.7-3.3h57.1c0.4,0,0.7,1.5,0.7,3.3v3.3
		C520.2,195.5,519.8,197,519.4,197z"/>
	<g>
		<path class="st2" d="M430.8,206.1l10.9-28.3h2.7l-10.9,28.3H430.8z"/>
	</g>
</g>
</svg>
