<?xml version="1.0" encoding="utf-8"?>
<!-- Generator: Adobe Illustrator 28.1.0, SVG Export Plug-In . SVG Version: 6.00 Build 0)  -->
<svg version="1.1" id="ba19cdc5-2f4a-4ce1-8a61-4f7e2c1df4b1"
	 xmlns="http://www.w3.org/2000/svg" xmlns:xlink="http://www.w3.org/1999/xlink" x="0px" y="0px" viewBox="0 0 768 384"
	 style="enable-background:new 0 0 768 384;" xml:space="preserve">
<style type="text/css">
	.st0{fill:none;stroke:#CBD5E1;stroke-dasharray:12.08,12.08;}
	.st1{fill:#020617;stroke:#1E293B;}
	.st2{fill-rule:evenodd;clip-rule:evenodd;fill:#FFFFFF;}
	.st3{fill:#FFFFFF;}
</style>
<path class="st0" d="M198.8,97h370.4c14.8,0,26.8,12,26.8,26.8v136.4c0,14.8-12,26.8-26.8,26.8H198.8c-14.8,0-26.8-12-26.8-26.8
	V123.8C172,109,184,97,198.8,97z"/>
<path class="st1" d="M244.5,147.3h53c10,0,18,8.1,18,18v53.3c0,10-8.1,18-18,18h-53c-10,0-18-8.1-18-18v-53.3
	C226.4,155.4,234.5,147.3,244.5,147.3z"/>
<path class="st1" d="M357.5,147.3h53c10,0,18,8.1,18,18v53.3c0,10-8.1,18-18,18h-53c-10,0-18-8.1-18-18v-53.3
	C339.5,155.4,347.5,147.3,357.5,147.3z"/>
<path class="st1" d="M470.5,147.3h53c10,0,18,8.1,18,18v53.3c0,10-8.1,18-18,18h-53c-10,0-18-8.1-18-18v-53.3
	C452.5,155.4,460.5,147.3,470.5,147.3z"/>
<g>
	<path class="st2" d="M254.9,181.1c0-3.7,3-6.6,6.6-6.6c3.7,0,6.6,3,6.6,6.6v2.8h7.6v-2.8c0-3.7,3-6.6,6.6-6.6c3.7,0,6.6,3,6.6,6.6
		c0,3.7-3,6.6-6.6,6.6h-2.8v7.6h2.8c3.7,0,6.6,3,6.6,6.6c0,3.7-3,6.6-6.6,6.6c-3.7,0-6.6-3-6.6-6.6v-2.8h-7.6v2.8
		c0,3.7-3,6.6-6.6,6.6c-3.7,0-6.6-3-6.6-6.6c0-3.7,3-6.6,6.6-6.6h2.8v-7.6h-2.8C257.9,187.7,254.9,184.8,254.9,181.1 M264.4,183.9
		v-2.8c0-1.6-1.3-2.8-2.8-2.8c-1.6,0-2.8,1.3-2.8,2.8c0,1.6,1.3,2.8,2.8,2.8H264.4z M268.2,187.7v7.6h7.6v-7.6H268.2z M264.4,199.1
		h-2.8c-1.6,0-2.8,1.3-2.8,2.8c0,1.6,1.3,2.8,2.8,2.8c1.6,0,2.8-1.3,2.8-2.8V199.1z M279.6,199.1v2.8c0,1.6,1.3,2.8,2.8,2.8
		c1.6,0,2.8-1.3,2.8-2.8c0-1.6-1.3-2.8-2.8-2.8H279.6z M279.6,183.9h2.8c1.6,0,2.8-1.3,2.8-2.8c0-1.6-1.3-2.8-2.8-2.8
		c-1.6,0-2.8,1.3-2.8,2.8V183.9z"/>
</g>
<path class="st3" d="M360.5,180.9h12.8v4.3h-8.6v4.3h8.6v4.3h-8.6v4.3h8.6v4.3h-12.8V180.9z M381.9,180.9h8.6v4.3h-8.6v4.3h4.3
	c2.4,0,4.3,1.9,4.3,4.3v4.3c0,2.4-1.9,4.3-4.3,4.3h-8.6V198h8.6v-4.3h-4.3c-2.4,0-4.3-1.9-4.3-4.3v-4.3
	C377.6,182.8,379.5,180.9,381.9,180.9 M399,180.9h4.3c2.4,0,4.3,1.9,4.3,4.3v2.1h-4.3v-2.1H399V198h4.3v-2.1h4.3v2.1
	c0,2.4-1.9,4.3-4.3,4.3H399c-2.4,0-4.3-1.9-4.3-4.3v-12.8C394.7,182.8,396.6,180.9,399,180.9"/>
<path class="st3" d="M482.2,181h12.7v4.2h-8.5v4.2h6.4v4.2h-6.4v8.5h-4.2V181z M499.1,181h8.5c2.3,0,4.2,1.9,4.2,4.2v4.2
	c0,2.4-1.9,4.2-4.2,4.2h-4.2v4.2h8.5v4.2h-12.7v-8.5c0-2.3,1.9-4.2,4.2-4.2h4.2v-4.2h-8.5V181z"/>
</svg>
