<?xml version="1.0" encoding="utf-8"?>
<!-- Generator: Adobe Illustrator 28.1.0, SVG Export Plug-In . SVG Version: 6.00 Build 0)  -->
<svg version="1.1" id="Layer_1" xmlns="http://www.w3.org/2000/svg" xmlns:xlink="http://www.w3.org/1999/xlink" x="0px" y="0px"
	 viewBox="0 0 768 384" style="enable-background:new 0 0 768 384;" xml:space="preserve">
<style type="text/css">
	.st0{fill:none;stroke:#CBD5E1;stroke-dasharray:12.08,12.08;}
	.st1{fill:#020617;stroke:#1E293B;}
	.st2{opacity:0.5;fill:#94A3B8;enable-background:new    ;}
	.st3{fill:none;stroke:#FFFFFF;stroke-width:2;}
</style>
<g>
	<path class="st0" d="M611.2,275.3H156.8c-7.9,0-14.3-7.3-14.3-16.4V125.1c0-9.1,6.4-16.4,14.3-16.4h454.3c7.9,0,14.3,7.3,14.3,16.4
		v133.8C625.5,267.8,619.1,275.3,611.2,275.3z"/>
</g>
<g>
	<circle class="st1" cx="219.5" cy="192" r="28.2"/>
	<circle class="st1" cx="299.3" cy="192" r="28.2"/>
	<circle class="st1" cx="379" cy="192" r="28.2"/>
	<circle class="st1" cx="458.8" cy="192" r="28.2"/>
	<circle class="st1" cx="538.5" cy="192" r="28.2"/>
	<path class="st2" d="M314.9,195.5h-31.2c-0.2,0-0.4-1.1-0.4-2.3v-2.3c0-1.2,0.2-2.3,0.4-2.3h31.2c0.2,0,0.4,1.1,0.4,2.3v2.3
		C315.3,194.4,315.1,195.5,314.9,195.5z"/>
	<path class="st2" d="M394.6,195.5h-31.2c-0.2,0-0.4-1.1-0.4-2.3v-2.3c0-1.2,0.2-2.3,0.4-2.3h31.2c0.2,0,0.4,1.1,0.4,2.3v2.3
		C395,194.4,394.8,195.5,394.6,195.5z"/>
	<path class="st2" d="M474.2,195.6H443c-0.2,0-0.4-1.1-0.4-2.3V191c0-1.2,0.2-2.3,0.4-2.3h31.2c0.2,0,0.4,1.1,0.4,2.3v2.3
		C474.6,194.5,474.5,195.6,474.2,195.6z"/>
	<polyline class="st3" points="220.3,197.4 213.8,190.9 220.3,184.3 	"/>
	<polyline class="st3" points="537.5,184.3 544,190.9 537.5,197.4 	"/>
</g>
</svg>
