<?xml version="1.0" encoding="utf-8"?>
<!-- Generator: Adobe Illustrator 28.1.0, SVG Export Plug-In . SVG Version: 6.00 Build 0)  -->
<svg version="1.1" id="Layer_1" xmlns="http://www.w3.org/2000/svg" xmlns:xlink="http://www.w3.org/1999/xlink" x="0px" y="0px"
	 viewBox="0 0 768 384" style="enable-background:new 0 0 768 384;" xml:space="preserve">
<style type="text/css">
	.st0{fill:none;stroke:#CBD5E1;stroke-dasharray:12.08,12.08;}
	.st1{fill:#020617;stroke:#1E293B;}
	.st2{opacity:0.5;fill:#94A3B8;enable-background:new    ;}
	.st3{fill:#353B4C;stroke:#1E293B;}
	.st4{fill:#FFFFFF;}
</style>
<g>
	<path class="st0" d="M611.2,264.6H156.8c-7.9,0-14.3-6.4-14.3-14.3V133.8c0-7.9,6.4-14.3,14.3-14.3h454.3c7.9,0,14.3,6.4,14.3,14.3
		v116.5C625.5,258.1,619.1,264.6,611.2,264.6z"/>
</g>
<path class="st1" d="M200.4,164.4h367.1c9.2,0,16.7,7.5,16.7,16.7V203c0,9.2-7.5,16.7-16.7,16.7H200.4c-9.2,0-16.7-7.5-16.7-16.7
	v-21.9C183.7,171.9,191.2,164.4,200.4,164.4z"/>
<path class="st2" d="M443.1,197H206.9c-1.8,0-3.3-1.5-3.3-3.3v-3.3c0-1.8,1.5-3.3,3.3-3.3h236.2c1.8,0,3.3,1.5,3.3,3.3v3.3
	C446.4,195.5,444.9,197,443.1,197z"/>
<path class="st3" d="M514.6,214.3h-20c-6.9,0-12.5-5.6-12.5-12.5v-20c0-6.9,5.6-12.5,12.5-12.5h20c6.9,0,12.5,5.6,12.5,12.5v20
	C527,208.7,521.5,214.3,514.6,214.3z"/>
<path class="st3" d="M565.8,214.3h-20c-6.9,0-12.5-5.6-12.5-12.5v-20c0-6.9,5.6-12.5,12.5-12.5h20c6.9,0,12.5,5.6,12.5,12.5v20
	C578.3,208.7,572.7,214.3,565.8,214.3z"/>
<g>
	<path class="st4" d="M555.8,200.4c-0.6,0-1.1-0.5-1.1-1.1v-6.4h-6.4c-0.6,0-1.1-0.5-1.1-1.1s0.5-1.1,1.1-1.1h6.4v-6.4
		c0-0.6,0.5-1.1,1.1-1.1c0.6,0,1.1,0.5,1.1,1.1v6.4h6.4c0.6,0,1.1,0.5,1.1,1.1s-0.5,1.1-1.1,1.1h-6.4v6.4
		C556.8,199.9,556.4,200.4,555.8,200.4z"/>
</g>
<g>
	<path class="st4" d="M512,192.9h-15c-0.6,0-1.1-0.5-1.1-1.1s0.5-1.1,1.1-1.1h15c0.6,0,1.1,0.5,1.1,1.1S512.6,192.9,512,192.9z"/>
</g>
</svg>
