<?xml version="1.0" encoding="utf-8"?>
<!-- Generator: Adobe Illustrator 28.1.0, SVG Export Plug-In . SVG Version: 6.00 Build 0)  -->
<svg version="1.1" id="b0dc27b4-ac01-4bcf-8250-299b18238fa0"
	 xmlns="http://www.w3.org/2000/svg" xmlns:xlink="http://www.w3.org/1999/xlink" x="0px" y="0px" viewBox="0 0 768 384"
	 style="enable-background:new 0 0 768 384;" xml:space="preserve">
<style type="text/css">
	.st0{fill:#FFFFFF;stroke:#212121;}
	.st1{fill:none;stroke:#212121;stroke-dasharray:12.08,12.08;}
	.st2{opacity:0.5;fill:#94A3B8;enable-background:new    ;}
</style>
<path class="st0" d="M226.4,111.1h315.1c10,0,18,6.1,18,13.5v134.9c0,7.5-8.1,13.5-18,13.5H226.4c-10,0-18-6.1-18-13.5V124.5
	C208.4,117.1,216.5,111.1,226.4,111.1z"/>
<path class="st1" d="M198.8,73.4h370.4c14.8,0,26.8,10.4,26.8,23.2v190.9c0,12.8-12,23.1-26.8,23.1H198.8
	c-14.8,0-26.8-10.4-26.8-23.1V96.6C172,83.8,184,73.4,198.8,73.4z"/>
<path class="st2" d="M457.2,156.4H273.5c-1.3,0-2.3-1.2-2.3-2.7V151c0-1.5,1.1-2.7,2.3-2.7h183.7c1.3,0,2.3,1.2,2.3,2.7v2.7
	C459.6,155.2,458.5,156.4,457.2,156.4z"/>
<path class="st2" d="M496.2,175.8H274.3c-1.7,0-3.1-1.2-3.1-2.7v-2.7c0-1.5,1.5-2.7,3.1-2.7h221.8c1.7,0,3.1,1.2,3.1,2.7v2.7
	C499.2,174.6,497.8,175.8,496.2,175.8z"/>
<path class="st2" d="M468.8,194.1H273.8c-1.4,0-2.5-1.2-2.5-2.7v-2.7c0-1.5,1.1-2.7,2.5-2.7h195.1c1.4,0,2.5,1.2,2.5,2.7v2.7
	C471.3,192.9,470.2,194.1,468.8,194.1z"/>
<path class="st2" d="M421.7,214.4H273.3c-1.1,0-2.1-1.1-2.1-2.6v-2.6c0-1.4,0.9-2.6,2.1-2.6h148.3c1.1,0,2.1,1.1,2.1,2.6v2.6
	C423.7,213.2,422.8,214.4,421.7,214.4z"/>
<path class="st2" d="M444.2,235.6H273.6c-1.4,0-2.4-1.2-2.4-2.7v-2.7c0-1.5,1-2.7,2.4-2.7h170.6c1.4,0,2.4,1.2,2.4,2.7v2.8
	c0.1,1.4-0.9,2.6-2.2,2.6C444.3,235.7,444.2,235.7,444.2,235.6z"/>
<circle class="st2" cx="250.5" cy="152.4" r="5.1"/>
<circle class="st2" cx="250.5" cy="171.8" r="5.1"/>
<circle class="st2" cx="250.5" cy="190.1" r="5.1"/>
<circle class="st2" cx="250.5" cy="210.6" r="5.1"/>
<circle class="st2" cx="250.5" cy="231.6" r="5.1"/>
</svg>
