<?xml version="1.0" encoding="utf-8"?>
<!-- Generator: Adobe Illustrator 28.1.0, SVG Export Plug-In . SVG Version: 6.00 Build 0)  -->
<svg version="1.1" id="Layer_1" xmlns="http://www.w3.org/2000/svg" xmlns:xlink="http://www.w3.org/1999/xlink" x="0px" y="0px"
	 viewBox="0 0 768 384" style="enable-background:new 0 0 768 384;" xml:space="preserve">
<style type="text/css">
	.st0{fill:#FFFFFF;stroke:#212121;}
	.st1{fill:none;stroke:#212121;stroke-dasharray:12.0753,12.0753;}
	.st2{clip-path:url(#SVGID_00000098939377877564149290000007493142809573751940_);}
	.st3{fill:#C72DE2;}
	.st4{clip-path:url(#SVGID_00000099645645385477297860000011612044167081608595_);}
	.st5{fill:#D0434E;}
	.st6{fill:#FEF3DB;}
	.st7{fill:#88B5BD;}
	.st8{fill:#F2844F;}
	.st9{fill:#ED5E2D;}
	.st10{fill:#FCB492;}
	.st11{fill:#91332E;}
	.st12{fill:#453730;}
	.st13{fill:#BA6442;}
	.st14{fill:#16100D;}
	.st15{fill:#CC492F;}
	.st16{fill:#FCBB9C;}
	.st17{fill:#B75D38;}
	.st18{fill:#FCB897;}
	.st19{fill:#F95939;}
	.st20{fill:#FCBEA3;}
	.st21{fill:#8C2B26;}
	.st22{fill:#FBA886;}
	.st23{fill:#B65B36;}
	.st24{fill:#B95D38;}
	.st25{fill:#FBAF8D;}
	.st26{fill:#FA7A60;}
	.st27{fill:#76A1A9;}
	.st28{fill:#A3343E;}
	.st29{clip-path:url(#SVGID_00000031169345601489833210000005151944972402250642_);}
	.st30{fill:#806AEA;}
	.st31{clip-path:url(#SVGID_00000041255420325169861290000008182175269075350166_);}
	.st32{fill:#DFAF33;}
	.st33{fill:#38312D;}
	.st34{fill:#CA7852;}
	.st35{fill:#E56324;}
	.st36{fill:#FCB692;}
	.st37{fill:#160E0B;}
	.st38{fill:#FDB694;}
	.st39{fill:#BF6948;}
	.st40{fill:#BB613E;}
	.st41{fill:#FDB693;}
	.st42{fill:#BA5F3B;}
	.st43{fill:#FEB797;}
	.st44{fill:#FB9980;}
	.st45{fill:#FF8066;}
	.st46{fill:#B85C37;}
	.st47{fill:#B75B37;}
	.st48{fill:#FCB693;}
	.st49{fill:#B08C29;}
	.st50{clip-path:url(#SVGID_00000114061225082745289230000015048791784402004136_);}
	.st51{fill:#EDBD43;}
	.st52{clip-path:url(#SVGID_00000000210289012468571820000007286300821251450804_);}
	.st53{fill:#764074;}
	.st54{fill:#150F0C;}
	.st55{fill:#FDB697;}
	.st56{fill:#45362F;}
	.st57{fill:#FCB48E;}
	.st58{fill:#BE6547;}
	.st59{fill:#FBB38E;}
	.st60{fill:#B65A35;}
	.st61{fill:#FBB48F;}
	.st62{fill:#FBA187;}
	.st63{fill:#FFFFFF;}
	.st64{fill:#FBB898;}
	.st65{fill:#FFB18D;}
	.st66{fill:#4F2A4D;}
</style>
<path class="st0" d="M592.2,258.9H175.8c-7.9,0-14.3-7.8-14.3-17.5v-98.9c0-9.7,6.4-17.5,14.3-17.5h416.3c7.9,0,14.3,7.8,14.3,17.5
	v98.9C606.5,251.1,600.1,258.9,592.2,258.9z"/>
<g>
	<path class="st1" d="M611.2,275.3H156.8c-7.9,0-14.3-7.3-14.3-16.4V125.1c0-9.1,6.4-16.4,14.3-16.4h454.3c7.9,0,14.3,7.3,14.3,16.4
		v133.8C625.5,267.8,619.1,275.3,611.2,275.3z"/>
</g>
<g>
	<g>
		<g>
			<defs>
				<circle id="SVGID_00000004505036969860848530000011917162513644567485_" cx="229.3" cy="192.5" r="42.7"/>
			</defs>
			<clipPath id="SVGID_00000018942888448159788260000014030790612213067924_">
				<use xlink:href="#SVGID_00000004505036969860848530000011917162513644567485_"  style="overflow:visible;"/>
			</clipPath>
			<g style="clip-path:url(#SVGID_00000018942888448159788260000014030790612213067924_);">
				<g>
					<g>
						<rect id="SVGID_2_" x="186.5" y="149.8" class="st3" width="85.5" height="85.5"/>
					</g>
					<g>
						<g>
							<g>
								<defs>
									<rect id="SVGID_00000183942382606823278590000006275283333047509650_" x="186.5" y="149.8" width="85.5" height="85.5"/>
								</defs>
								<clipPath id="SVGID_00000130636229906677371750000012505682254912849341_">
									<use xlink:href="#SVGID_00000183942382606823278590000006275283333047509650_"  style="overflow:visible;"/>
								</clipPath>
								<g style="clip-path:url(#SVGID_00000130636229906677371750000012505682254912849341_);">
									<g>
										<path class="st5" d="M229.4,163.7c0.8-0.1,1.5,0,2.3,0c0.7,0,1.3,0.1,1.9,0.2c0.9,0.1,1.7,0.5,2.5,0.9
											c0.4,0.2,0.9,0.4,1.3,0.7c0.7,0.4,1.4,0.7,2,1.2c0.6,0.4,1.1,0.8,1.6,1.2c0.9,0.8,1.8,1.7,2.6,2.7
											c0.3,0.5,0.6,0.9,0.9,1.5c0.4,0.7,0.7,1.5,1.1,2.2c0.5,1.1,0.9,2.3,1.1,3.5c0.2,1,0.2,2,0.3,3.1c0,1.3,0,2.6-0.1,3.9
											c0,0.5-0.1,1-0.1,1.6c-0.1,0.8-0.2,1.6-0.4,2.4c-0.2,1-0.4,2-0.6,3.1c-0.1,0.6-0.2,1.1-0.2,1.8c-0.1,0.8-0.1,1.5-0.1,2.2
											s0,1.3,0.1,2c0.1,0.6,0.1,1.3,0.3,1.9c0.6,1.9,1.2,3.8,1.6,5.8c0.1,0.9,0.3,1.9,0.3,2.8c0,0.7,0,1.4,0,2.1
											c0,0.5,0,1,0,1.6c0,0.4,0,0.9,0,1.2c0,1.2-0.2,2.4-0.4,3.7c-0.2,1.1-0.3,2.3-0.6,3.5c-0.1,0.4-0.1,0.8-0.1,1.2h-0.1
											c-0.5-0.1-0.9-0.4-1.4-0.7c-0.7-0.3-1.3-0.8-1.9-1.1c-0.8-0.5-1.4-1-1.9-1.7c-0.2-0.3-0.4-0.7-0.6-1
											c-0.2-0.5-0.3-0.9-0.5-1.4c-0.2-0.6-0.3-1.2-0.3-1.8c-0.1-0.6,0-1.2,0-1.9c0-1.2,0.2-2.3,0.3-3.5c0-0.7,0-1.4-0.1-2
											c-0.1-0.4-0.3-0.8-0.5-1.1s-0.4-0.7-0.7-0.9c-0.4-0.3-0.8-0.7-1.2-0.9c-0.6-0.3-1.3-0.5-1.9-0.7c-0.6-0.1-1.3,0-1.9,0
											c-1.2,0.1-2.4,0.2-3.6,0.3c-1.9,0.2-3.7,0.5-5.5,0.8c-0.5,0-0.9,0.1-1.4,0.2c-0.6,0.2-1.2,0.4-1.9,0.7
											c-1.1,0.5-2.1,1.2-2.9,2.1c-0.3,0.4-0.6,0.9-0.8,1.3c-0.3,0.9-0.5,1.8-0.5,2.7c0,1.4,0.3,2.7,0.3,4.1c0,0.7,0,1.3-0.1,1.9
											c0,0.2,0,0.5-0.1,0.7c-0.2,0.5-0.5,0.9-0.8,1.4c-0.2,0.4-0.5,0.7-0.7,1c-0.1,0.1-0.2,0.3-0.3,0.4
											c-0.1,0.1-0.3,0.2-0.4,0.3c-0.2-0.4-0.3-0.9-0.5-1.3c-0.2-0.5-0.4-1.1-0.6-1.6c-0.3-0.8-0.6-1.7-0.8-2.5
											c-0.2-0.6-0.3-1.3-0.4-1.9c-0.1-0.5-0.2-1-0.4-1.6c-0.1-0.6-0.1-1.1-0.2-1.7c-0.2-1.7-0.4-3.5-0.5-5.2
											c-0.1-1.1,0-2.3,0-3.4c0-1,0-1.9,0.1-2.9c0-0.8,0.1-1.5,0.2-2.2c0.1-1.8,0.1-3.5,0-5.3c0-1.1-0.2-2.2-0.2-3.3
											c0-0.8-0.1-1.6-0.2-2.3c0-0.5,0-1,0-1.6c0-0.8,0-1.6,0-2.3c0-1.4,0.1-2.8,0.4-4.1c0.2-0.8,0.3-1.6,0.5-2.3
											c0.2-0.9,0.4-1.8,0.8-2.5c0.4-0.8,0.8-1.5,1.3-2.2c0.9-1.3,2.1-2.4,3.4-3.4c0.8-0.6,1.6-1.1,2.5-1.6
											c0.9-0.4,1.7-0.7,2.6-0.9c0.7-0.2,1.5-0.2,2.2-0.4c0.4-0.1,0.9-0.1,1.3-0.1c0.3,0,0.6,0,0.9,0c0.4-0.2,0.9-0.3,1.3-0.4
											C228.7,163.7,229,163.7,229.4,163.7z"/>
										<path class="st6" d="M270.6,254.7c0.2-0.3,0.3-0.7,0.3-1.1c-0.2-3.7-0.9-7.4-2-10.9c-0.6-1.8-1.3-3.6-2.2-5.3
											c-0.8-1.7-1.8-3.2-2.9-4.6c-0.2-0.2-0.4-0.4-0.6-0.6c0,0,0-0.1-0.1-0.1c-0.8-1.1-1.8-2-2.9-2.7c-0.1-0.1-0.3-0.3-0.4-0.4
											c-0.3-0.3-0.6-0.5-1-0.5c-0.1-0.1-0.2-0.2-0.3-0.2c-0.9-0.6-1.8-1.1-2.8-1.6c-0.7-0.3-1.3-0.7-1.9-1
											c-0.8-0.4-1.7-0.9-2.5-1.3c-0.7-0.3-1.3-0.7-1.9-1c-0.7-0.4-1.5-0.7-2.1-1.2c-0.2-0.1-0.5-0.2-0.6-0.4h-0.1
											c-0.5-0.1-0.9-0.4-1.4-0.7c-0.7-0.3-1.3-0.8-1.9-1.1c-0.8-0.5-1.5-1-1.9-1.7c-0.2-0.3-0.4-0.7-0.6-1
											c-0.2-0.5-0.3-0.9-0.5-1.4c-0.2-0.6-0.3-1.2-0.3-1.8c-0.1-0.6,0-1.2,0-1.9c0-1.2,0.2-2.3,0.3-3.5c0-0.7,0-1.4-0.1-2
											c-0.1-0.4-0.3-0.8-0.5-1.1s-0.4-0.7-0.7-0.9c-0.4-0.3-0.8-0.6-1.2-0.9c-0.6-0.3-1.3-0.5-1.9-0.7c-0.6-0.1-1.3,0-1.9,0
											c-1.2,0-2.4,0.2-3.6,0.3c-1.9,0.2-3.7,0.5-5.5,0.8c-0.5,0-0.9,0.1-1.4,0.2c-0.6,0.2-1.2,0.4-1.9,0.7
											c-1.1,0.5-2.1,1.2-2.9,2.1c-0.3,0.4-0.6,0.9-0.8,1.3c-0.3,0.9-0.5,1.8-0.5,2.7c0,1.4,0.3,2.7,0.3,4.1c0,0.7,0,1.3-0.1,1.9
											c0,0.2,0,0.5-0.1,0.7c-0.2,0.5-0.5,0.9-0.8,1.4c-0.2,0.4-0.5,0.7-0.7,1c-0.1,0.1-0.2,0.3-0.3,0.4
											c-0.1,0.1-0.3,0.2-0.4,0.3c-0.6,0.7-1.3,1.3-2.1,1.8c-1.3,1-2.8,1.9-4.2,2.7c-0.9,0.6-1.9,1.1-2.9,1.6
											c-1.6,0.9-3,1.9-4.5,3c-0.8,0.6-1.5,1.1-2.2,1.7c-0.7,0.6-1.3,1.2-1.9,1.9c-0.6,0.6-1.2,1.1-1.7,1.8
											c-0.1,0.2-0.3,0.3-0.4,0.5c-0.3,0.2-0.7,0.5-1,0.8c-0.5,0.4-0.9,1-1.4,1.6s-0.9,1.3-1.3,1.9c-0.8,1.4-1.3,2.9-1.7,4.4
											c-0.4,1.7-0.7,3.3-0.9,5s-0.5,3.4-0.7,5.1H271v-0.1H270.6z"/>
										<path class="st7" d="M238.3,207c0.1-0.1,0.2-0.2,0.4-0.3c0,0.2-0.2,0.3-0.3,0.5c-0.1,0.1-0.1,0.3-0.2,0.4
											c-0.7,0.7-1.4,1.3-2.1,2c-0.9,0.9-1.8,1.8-2.3,2.9c-0.4,0.7-0.9,1.4-1.4,2.1c-1.1,1.3-2.7,2.3-4.4,2.4
											c-0.5,0-0.9,0-1.4-0.1c-0.8-0.2-1.5-0.6-2.1-1.1c-0.4-0.3-0.7-0.7-1-1.1c-0.2-0.3-0.6-0.5-0.9-0.8
											c-0.7-0.6-1.5-1.2-2.2-1.9c-0.7-0.6-1.2-1.4-1.5-2.2c-0.1-0.4-0.1-0.7-0.2-1.1c0-0.3-0.1-0.6,0-0.9c0-0.1,0.1-0.1,0.1-0.1
											s0,0.1,0.1,0.2c0.4,0.1,0.4,0.6,0.8,0.6c0.1,0.3,0.4,0.4,0.6,0.6c0.1,0.1,0.2,0.1,0.3,0.1c0.1,0.1,0.2,0.3,0.3,0.4
											c0.1,0.2,0.3,0.2,0.5,0.3c0.3,0.2,0.6,0.5,0.9,0.6c0.3,0.1,0.7,0.3,1,0.6c0.2,0.1,0.4,0.2,0.6,0.3
											c0.2,0.3,0.6,0.4,0.9,0.6c0.1,0.1,0.1,0.2,0.3,0.3c0.4,0.1,0.9,0.3,1.2,0.4c0.3,0.1,0.6,0.1,0.9,0.3c0.2,0,0.4,0,0.5,0
											c0.7,0,1.3,0,2,0c0.9-0.3,1.7-0.6,2.5-1c0.4-0.2,0.8-0.5,1.1-0.8c0.1-0.2,0.3-0.3,0.5-0.5c0.1-0.1,0.2-0.1,0.3-0.3
											s0.2-0.4,0.4-0.6c0.4-0.4,0.8-0.7,1.2-0.9s0.7-0.5,0.9-0.8c0.3-0.3,0.6-0.5,0.9-0.8C237.9,207.4,238.1,207.2,238.3,207z"
											/>
									</g>
									<g>
										<path class="st8" d="M226.6,170.4c0.2-0.1,0.4-0.3,0.6-0.5c0.5,0.6,1.1,1.1,1.8,1.5h-0.1c0.2,0.4,0.5,0.7,0.8,1
											c0.5,0.6,1,1.1,1.6,1.7c1.2,1,2.6,1.9,4,2.6c1.4,0.7,2.8,1.4,4.1,2.3c1.3,1,2.4,2.1,3.2,3.6c0.2,0.4,0.4,0.8,0.6,1.1
											c0,0.1,0.1,0.3,0.2,0.4s0,0.3,0,0.4c0,0.6,0,1.3,0,1.9c0,0.7-0.1,1.5-0.1,2.2c0,0.6-0.1,1.1-0.2,1.7
											c-0.1,0.7-0.3,1.4-0.4,2c-0.2,0.9-0.5,1.9-0.8,2.8c-0.1,0.5-0.3,1-0.5,1.6c-0.2,0.5-0.3,0.9-0.5,1.5
											c-0.2,0.8-0.5,1.5-0.8,2.2c-0.5,1.1-1,2.2-1.5,3.3v-0.1c-0.1,0.2-0.2,0.3-0.3,0.5c-0.4,0.8-0.7,1.5-1.2,2.2
											c-0.3,0.6-0.7,1.1-1,1.7c-0.2,0.4-0.5,0.8-0.8,1.1c-0.1,0.2-0.3,0.4-0.4,0.6c-0.2,0.3-0.5,0.6-0.8,0.9
											c-0.4,0.4-0.9,0.7-1.2,1.1c-0.2,0.2-0.4,0.4-0.7,0.5c-0.4,0.2-0.8,0.4-1.2,0.6c-0.7,0.2-1.3,0.3-2,0.3c-0.6,0-1.1,0-1.7,0
											c-0.9-0.1-1.7-0.3-2.5-0.8c-0.5-0.3-0.9-0.6-1.4-0.9c0,0-0.1,0-0.2-0.1c0,0,0.1,0,0.2,0v-0.1c-0.3-0.1-0.5-0.4-0.7-0.6
											c-0.9-0.9-1.8-2-2.5-3.1c-0.1-0.2-0.3-0.5-0.5-0.8s-0.4-0.5-0.5-0.9c0,0.1-0.1,0.2-0.1,0.3c-0.3-0.5-0.6-1-0.8-1.5
											c-0.3-0.6-0.5-1.2-0.9-1.8c-0.6-1.2-1.2-2.4-1.6-3.7c0,0,0-0.1-0.1-0.2c-0.1-0.3-0.1-0.7-0.3-0.9c-0.3-1-0.6-2-0.9-3
											c-0.1-0.4-0.2-0.7-0.2-1.1c0.2,0.3,0.3,0.6,0.5,0.9c0.4,0.9,0.7,1.8,1,2.7c0,0.1,0,0.2,0,0.3c0,0,0,0,0.1,0
											c0-0.4-0.1-0.7-0.2-1.1c-0.1-0.5-0.2-0.9-0.3-1.4s-0.3-1.1-0.5-1.6c-0.4-0.9-0.7-1.8-0.9-2.8c-0.1-0.6-0.2-1.2-0.2-1.8
											c0-0.5,0-1.1,0-1.6c0-0.7,0.1-1.4,0.2-2c0,0,0,0.1,0,0.2c0.1-0.3,0.2-0.6,0.4-0.9c0.3-0.7,0.7-1.4,1.1-2.1
											c0.5-0.8,1-1.6,1.7-2.3c1.1-1.2,2.4-2.3,3.7-3.4c0.5-0.5,1.1-0.9,1.6-1.4c0.8-0.8,1.6-1.5,2.3-2.3c0.5-0.6,1-1.2,1.5-1.9
											C226.3,171.1,226.5,170.8,226.6,170.4C226.7,170.4,226.6,170.4,226.6,170.4z"/>
										<path class="st9" d="M224.7,171.6c0.7-0.3,1.3-0.8,1.9-1.1h0.1c-0.1,0.3-0.4,0.6-0.6,0.9c-0.5,0.6-0.9,1.2-1.5,1.9
											c-0.7,0.9-1.6,1.6-2.3,2.3c-0.5,0.5-1.1,0.9-1.6,1.4c-1.2,1.1-2.6,2.1-3.7,3.4c-0.6,0.7-1.2,1.5-1.7,2.3
											c-0.4,0.7-0.8,1.4-1.1,2.1c-0.1,0.3-0.2,0.6-0.4,0.9c0,0,0-0.1,0-0.2c0.1-0.7,0.2-1.3,0.3-2c0.3-1.4,0.9-2.8,1.7-4
											c0.5-0.8,1.1-1.6,1.7-2.2c0.4-0.5,0.9-1,1.4-1.4c0.4-0.4,0.8-0.7,1.2-1.1C221.7,173.5,223.1,172.4,224.7,171.6z"/>
										<path class="st9" d="M228.8,171.3h0.1c0.4,0.2,0.8,0.4,1.1,0.6c0.7,0.3,1.3,0.7,2.1,0.9c0.4,0.1,0.8,0.3,1.2,0.4
											c0.9,0.3,1.7,0.6,2.5,0.9c0.9,0.3,1.7,0.7,2.5,1.3c0.4,0.2,0.7,0.6,1,0.9c0.4,0.4,0.8,0.9,1.1,1.3c0.4,0.5,0.8,0.9,1,1.5
											c0.6,0.9,1.1,1.9,1.4,3c0.1,0.6,0.4,1.1,0.5,1.8c-0.1-0.1-0.1-0.3-0.2-0.4c-0.1-0.4-0.4-0.8-0.6-1.1
											c-0.8-1.4-1.9-2.6-3.2-3.6c-1.3-0.9-2.7-1.7-4.1-2.3c-1.4-0.7-2.8-1.6-4-2.6c-0.6-0.5-1.1-1.1-1.6-1.7
											C229.3,172,229,171.7,228.8,171.3z"/>
										<path class="st9" d="M244.7,189.2c0.1-0.7,0.2-1.3,0.2-2c0.5,0,1,0.1,1.5,0.4c0.3,0.2,0.5,0.6,0.6,0.9
											c0.1,0.5,0.1,1.1,0.1,1.7c0,1-0.2,2.1-0.5,3c-0.2,0.8-0.5,1.4-0.9,2.1c-0.6,1-1.4,2-2.3,2.7c0-0.7,0-1.3,0.1-2
											c0.1-1.1,0.3-2.3,0.6-3.4C244.2,191.5,244.5,190.4,244.7,189.2z"/>
										<path class="st9" d="M235,187.5c0.9,0,1.8,0,2.7,0c0.3,0,0.7,0.1,1,0.2c0.1,0,0.3,0,0.3,0.2c-0.1,0-0.2,0.1-0.3,0.2
											c-0.2,0.2-0.5,0.3-0.8,0.5c-0.9,0.6-2,1.1-3.1,1.4c-0.5,0.1-1,0.1-1.6,0c-0.3,0-0.6,0-0.9,0c-0.4,0-0.9,0-1.3,0
											c-0.4,0-0.9,0-1.3-0.1c-0.1,0-0.2-0.1-0.2-0.2c0-0.6,0.5-1,0.9-1.4c0.1-0.1,0.3,0,0.4-0.1c0.1,0,0.2-0.1,0.3-0.1
											c0.7-0.1,1.3-0.2,1.9-0.3C233.7,187.6,234.4,187.5,235,187.5z"/>
										<path class="st9" d="M219.5,187.7c0.5,0,0.9,0,1.4,0c0.6,0,1.1,0.1,1.7,0.2c0.5,0.1,1.1,0.2,1.6,0.5
											c0.3,0.2,0.6,0.4,0.9,0.7c0,0,0,0.1,0,0.2c0,0-0.1,0-0.2,0.1c-1,0.1-1.9,0.2-2.9,0.4c-0.5,0-1,0.2-1.6,0.3
											c-0.4,0-0.8,0-1.2,0c-0.6,0-1.2-0.1-1.8-0.2c-0.4-0.1-0.8-0.2-1.2-0.3c-0.3-0.1-0.6-0.2-0.9-0.3c-0.2-0.1-0.5-0.1-0.7-0.2
											c-0.1,0-0.1-0.2,0-0.2s0.3,0,0.4-0.1c0.1,0,0.2-0.2,0.3-0.2c0.4-0.1,0.9-0.1,1.4-0.2C217.7,187.9,218.6,187.8,219.5,187.7
											z"/>
										<path class="st9" d="M210.6,188.6c0.3-0.4,0.7-0.7,1.2-0.8c0.2,0,0.5,0,0.8,0c0,0.6,0.1,1.1,0.2,1.7
											c0.1,0.6,0.3,1.2,0.4,1.8c0.1,0.4,0.3,0.8,0.4,1.2c0.2,0.4,0.4,0.9,0.6,1.3c0,0.4,0.1,0.7,0.2,1.1c0.2,1,0.5,2,0.9,3
											c0.1,0.3,0.2,0.6,0.3,0.9v0.1c-0.4,0-0.8-0.1-1.1-0.2c-0.4,0-0.8-0.1-1.1-0.3c-0.5-0.2-0.9-0.7-1.4-1
											c-0.6-0.5-0.9-1.2-1.3-1.9c-0.4-0.7-0.7-1.5-0.9-2.4c-0.1-0.5-0.1-1.1-0.1-1.6c0.1-0.7,0.1-1.4,0.3-2.1
											C210.2,189.3,210.3,188.9,210.6,188.6z"/>
										<path class="st8" d="M246.5,191.7C246.7,191.7,246.5,191.8,246.5,191.7L246.5,191.7z"/>
										<path class="st9" d="M226.9,199.6c0.1,0,0.3,0,0.5,0s0.1,0.2,0.1,0.3c-0.1,0.2-0.2,0.4-0.3,0.6c-0.2,0.3-0.4,0.6-0.7,0.9
											c-0.1,0.1-0.3,0-0.4,0c-0.1-0.2-0.1-0.4-0.1-0.6c0-0.3-0.1-0.6,0-0.9c0-0.1,0.1-0.1,0.2-0.1
											C226.4,199.7,226.7,199.6,226.9,199.6z"/>
										<path class="st9" d="M238.2,204.1c0.1-0.1,0.2-0.3,0.3-0.5v0.1c0,0.5-0.1,0.9-0.1,1.4c-0.1,0.6-0.1,1.3-0.2,1.9
											c-0.1,0.2-0.4,0.4-0.6,0.6c-0.7,0.6-1.5,1.2-2.3,1.8c-0.1,0.1-0.3,0.2-0.5,0.2c0-0.2,0.2-0.4,0.4-0.6
											c0.3-0.4,0.6-0.7,0.8-1.1c0.3-0.6,0.7-1.1,1-1.7C237.5,205.7,237.9,204.9,238.2,204.1z"/>
										<path class="st9" d="M219,206c0-0.1,0-0.2,0.1-0.3c0.1,0.3,0.3,0.6,0.5,0.9c0.2,0.2,0.3,0.5,0.5,0.8
											c0.7,1.1,1.5,2.2,2.5,3.1c0.2,0.2,0.4,0.5,0.7,0.6v0.1c0,0-0.1,0-0.2,0c-0.3,0-0.5-0.2-0.8-0.4c-0.9-0.4-1.6-1-2.4-1.6
											c-0.1-0.1-0.3-0.2-0.4-0.4l-0.1-0.1c0-0.1-0.1-0.3-0.1-0.5c0-0.4-0.1-0.9-0.2-1.2C219.1,206.6,219,206.3,219,206L219,206z
											"/>
										<path class="st9" d="M226.7,206.3c0.5-0.1,0.9-0.2,1.4-0.1c0.6,0,1.1,0.1,1.6,0.4c0.3,0.1,0.6,0.2,0.9,0.4
											c0.1,0,0.2,0.2,0.3,0.3c-0.1,0-0.2-0.1-0.4-0.1s-0.4,0-0.5,0c-0.5,0-1-0.1-1.5-0.1c-0.6,0-1.2,0-1.8,0
											c-0.5,0.1-0.9,0.2-1.4,0.3C225.7,206.8,226.2,206.4,226.7,206.3z"/>
									</g>
									<g>
										<path class="st10" d="M220.8,178.8c0.1-0.1,0.3-0.2,0.4-0.2c0,0.1,0,0.2-0.1,0.2c-1,0.6-1.8,1.4-2.6,2.2c0,0-0.1,0-0.2,0
											c0-0.3,0.2-0.5,0.4-0.6C219.4,179.8,220,179.2,220.8,178.8z"/>
										<g>
											<path class="st11" d="M246,179.9c-0.2-1-0.4-2.1-0.8-3.1c-0.4-1-0.9-2.1-1.5-3c-0.7-0.9-1.4-1.9-2.1-2.8
												c-0.9-0.9-1.7-1.9-2.7-2.6c-0.7-0.5-1.3-1-2-1.4s-1.4-0.9-2.2-1.2c-0.6-0.2-1.2-0.4-1.8-0.6c-0.6-0.2-1.2-0.3-1.8-0.5
												c-0.4-0.1-0.9-0.2-1.4-0.2c-0.2-0.1-0.5,0-0.8-0.1v0.1c0.1,0,0.2,0.1,0.3,0.1c0.8,0.1,1.6,0.2,2.3,0.5
												c1.7,0.4,3.3,0.9,4.7,1.8c0.6,0.4,1.2,0.8,1.8,1.2s1.2,0.9,1.8,1.4c0.9,0.8,1.7,1.7,2.4,2.7c0.7,0.9,1.4,1.8,1.9,2.8
												c0.5,0.9,0.9,1.8,1.1,2.8c0.2,0.9,0.4,1.8,0.6,2.6c0.1,0.7,0.2,1.4,0.2,2.1c0,0.6-0.1,1.2-0.1,1.9c0,0.2-0.1,0.4,0,0.7
												l0,0c0,0.2-0.1,0.5-0.1,0.8c0,0.2-0.1,0.4-0.1,0.6c0,0,0,0,0.1,0c0.1-0.5,0.3-0.9,0.3-1.4l0,0c0.1-0.5,0.2-1,0.2-1.6
												C246.3,182.1,246.2,181,246,179.9z"/>
											<path class="st11" d="M228.8,166.4h-0.1c0,0.2,0.2,0.3,0.3,0.4c0.6,0.7,1.3,1.2,2.1,1.8c0.7,0.5,1.4,0.9,2.2,1.3
												c1,0.5,2.1,1,3.1,1.6c1.3,0.7,2.5,1.3,3.7,2.2c0.7,0.5,1.4,1,2,1.7c0,0,0.1,0.1,0.2,0.1l0,0c0.1,0.1,0.2,0.2,0.3,0.3l0,0
												c0,0.1,0,0.1,0.1,0.1c-0.1-0.1-0.2-0.2-0.3-0.4s-0.3-0.4-0.5-0.5c-1.3-1.2-2.7-2.2-4.2-3.1c-0.9-0.5-1.8-0.9-2.7-1.4
												c-0.7-0.4-1.5-0.7-2.2-1.1c-0.7-0.4-1.4-0.9-2.1-1.3c-0.6-0.4-1.1-0.9-1.6-1.3l0,0C229,166.6,228.9,166.5,228.8,166.4z"
												/>
											<path class="st11" d="M219.4,173.6c1.5-1.1,3.1-2,4.7-3c0.9-0.6,1.8-1.1,2.5-1.9c0.1-0.1,0.3-0.3,0.2-0.6
												c-0.4,0.6-0.9,1-1.5,1.5c-0.7,0.5-1.4,1-2.1,1.4c-0.9,0.5-1.8,1.1-2.7,1.7c-0.8,0.5-1.5,1.1-2.2,1.7
												c-2,1.8-3.7,3.9-4.5,6.5c0,0.1,0,0.2,0,0.3l0,0c-0.4,1.4-0.7,2.8-0.7,4.3c0,0.4,0,0.8,0,1.2c0,0.2,0,0.4,0,0.6
												c0.1-1.2,0.1-2.5,0.3-3.7c0.1-0.7,0.3-1.4,0.4-2c0.3-1.2,0.9-2.3,1.6-3.4C216.4,176.3,217.8,174.8,219.4,173.6z"/>
											<path class="st11" d="M244.1,184.3c0-0.7,0-1.4-0.2-2.1c-0.2-0.9-0.4-1.9-0.8-2.7c-0.5-1-1-2-1.8-3
												c-0.3-0.5-0.8-0.9-1.2-1.3c-0.4-0.4-0.9-0.8-1.4-1.1c-0.5-0.4-1.1-0.7-1.6-0.9c-0.9-0.5-1.9-0.8-2.8-1.2
												c-0.8-0.3-1.7-0.7-2.4-1c-0.8-0.4-1.6-0.9-2.3-1.4c-0.4-0.3-0.8-0.8-1-1.2c-0.3-0.5-0.4-0.9-0.6-1.5c0-0.1,0-0.2,0-0.3
												c-0.2,0-0.1,0.2-0.1,0.3c0.1,0.6,0.3,1.1,0.6,1.6s0.6,0.9,1.1,1.3s0.9,0.7,1.5,0.9c0.4,0.2,0.8,0.4,1.1,0.6
												c0.5,0.2,1,0.4,1.5,0.7c0.5,0.2,1,0.4,1.5,0.6c1.5,0.6,3,1.3,4.3,2.3c0.5,0.4,0.9,0.8,1.3,1.3c1.9,2,2.9,4.7,3.1,7.5
												c0,0.6,0,1.1,0,1.7c0,0.2,0,0.4,0,0.6c-0.1,1.2-0.1,2.3-0.4,3.5c0.1,0,0.1-0.1,0.1-0.2c0.2-1,0.3-2.1,0.4-3.2
												c0-0.2,0-0.4,0-0.6C244.2,185,244.1,184.7,244.1,184.3z"/>
											<path class="st11" d="M226.8,169.8c-0.2,0.3-0.6,0.6-0.9,0.9c-0.5,0.4-1,0.6-1.6,0.9c-0.4,0.2-0.8,0.4-1.1,0.6
												c-0.5,0.3-0.9,0.6-1.3,0.9c-0.4,0.3-0.8,0.6-1.2,0.9c-0.1,0.1-0.2,0.1-0.3,0.2c-0.3,0.2-0.5,0.4-0.8,0.6
												c-0.5,0.4-0.9,0.8-1.4,1.2c-0.6,0.7-1.1,1.4-1.6,2.1c-0.5,0.8-0.9,1.5-1.3,2.3c-0.2,0.3-0.3,0.7-0.5,1
												c-0.3,0.8-0.6,1.5-0.8,2.4c0,0.1,0,0.2,0,0.3c0.1-1,0.6-2,1-2.9c0.1-0.3,0.3-0.5,0.4-0.8c0.7-1.2,1.4-2.3,2.2-3.4
												c0.6-0.8,1.3-1.4,2-2l0,0c0.6-0.6,1.3-1,2-1.5c1.2-0.8,2.5-1.4,3.7-2.2c0.6-0.3,1.1-0.8,1.6-1.4c0.2-0.2,0.2-0.4,0.2-0.7
												C226.9,169.4,226.9,169.6,226.8,169.8z"/>
											<path class="st11" d="M214.2,175.8c-0.1,0.3-0.3,0.6-0.3,0.9c0,0,0,0,0.1,0c0.1-0.3,0.2-0.6,0.4-0.9
												c0.4-0.9,0.9-1.7,1.5-2.5c0.8-1.1,1.6-2.2,2.6-3.2c1.3-1.4,2.9-2.5,4.7-3.2c1.1-0.5,2.3-0.8,3.3-1.3c0,0,0,0,0-0.1
												c-0.6,0.2-1.2,0.4-1.9,0.6c-0.4,0.1-0.8,0.2-1.2,0.4c-0.8,0.3-1.6,0.7-2.3,1.1c-1.7,1-3.1,2.5-4.3,4.1
												c-0.3,0.4-0.7,0.9-1,1.4c0,0,0,0,0,0.1l0,0C215.2,174.1,214.7,174.9,214.2,175.8z"/>
											<path class="st11" d="M212.5,180.5c0-0.5,0.1-1,0.2-1.6c0-0.2,0-0.4,0.1-0.5c0.1-0.7,0.3-1.4,0.5-2.1
												c0.3-1.1,0.7-2.2,1.3-3.2c0.8-1.4,1.7-2.7,2.8-3.7c0.7-0.7,1.4-1.2,2.2-1.8c0.6-0.4,1.2-0.8,1.8-1c0.8-0.4,1.6-0.7,2.4-1
												s1.7-0.5,2.5-0.7c-0.1,0-0.3,0-0.4,0c-1.6,0.3-3,0.9-4.4,1.6c-0.7,0.3-1.4,0.8-2,1.2c-1.3,0.9-2.5,1.9-3.4,3
												c-0.7,0.8-1.2,1.7-1.8,2.7c-0.4,0.8-0.8,1.6-1,2.5c-0.2,0.8-0.4,1.6-0.5,2.5c0,0.2-0.1,0.5-0.1,0.7c0,0.1,0,0.2,0,0.2
												c0,0.6-0.1,1.1-0.1,1.7C212.5,180.8,212.5,180.6,212.5,180.5z"/>
											<path class="st11" d="M245.2,181.3L245.2,181.3c0-0.1,0-0.3-0.1-0.4c-0.1-0.7-0.2-1.3-0.4-1.9c-0.2-1-0.7-1.9-1.1-2.8
												c-0.5-1-1.1-1.9-1.9-2.8c-0.7-0.8-1.5-1.5-2.4-2.2c-1.2-0.9-2.5-1.8-3.8-2.5c-0.1-0.1-0.3-0.2-0.5-0.2l0,0
												c-0.7-0.4-1.4-0.8-2.1-1.1c-0.9-0.5-1.9-0.9-2.8-1.3c-0.6-0.2-1.1-0.4-1.7-0.5c0,0,0,0,0,0.1c0.5,0.1,1,0.3,1.5,0.5
												c0.9,0.4,1.9,0.8,2.8,1.3c0.7,0.4,1.4,0.8,2.1,1.1c1.1,0.7,2.2,1.4,3.3,2.1c1,0.7,1.9,1.5,2.8,2.4
												c0.9,0.9,1.6,1.8,2.2,2.9c0.5,0.9,0.9,1.7,1.1,2.6c0.3,0.9,0.5,1.9,0.7,2.9L245.2,181.3c-0.1,0.2-0.1,0.3-0.1,0.4
												c0.1,0.5,0.1,1,0.1,1.6c0,0,0.1-0.1,0.1-0.2C245.4,182.5,245.3,182,245.2,181.3z"/>
											<path class="st11" d="M243,183.1c-0.1-0.6-0.3-1.2-0.5-1.8c-0.4-0.9-0.8-1.9-1.4-2.7c-0.4-0.5-0.8-1.1-1.2-1.6l0,0
												c0-0.1-0.1-0.2-0.2-0.3c-0.7-0.9-1.6-1.6-2.6-2.1c-0.9-0.5-1.9-0.9-2.8-1.3c-1-0.3-1.9-0.8-2.9-1.1
												c-0.9-0.4-1.7-0.8-2.6-1.2c-0.4-0.2-0.6-0.2-0.9-0.6l-0.3-0.2c0-0.2-0.2-0.4-0.3-0.6c-0.1-0.5-0.2-0.9-0.2-1.5
												c0-1.3,0.1-1.4,0-2.2c0-0.1,0-0.3,0-0.4H227c-0.1,0.3,0,0.6,0,0.9c0,0.4,0,0.7,0,1s0,0.6,0,0.9c0,0.2,0,0.4,0,0.6
												s0,0.5,0.1,0.7l0,0c0,0.1,0,0.3,0.1,0.4c0.2,0.5,0.7,0.9,1.2,1.2c0.9,0.5,1.8,0.9,2.7,1.3c0.5,0.2,1,0.4,1.6,0.6
												c0.9,0.4,1.9,0.7,2.8,1c0.8,0.3,1.5,0.7,2.2,1.1c0.8,0.5,1.4,1.1,2,1.9c0.6,0.8,1.2,1.6,1.8,2.5c0.3,0.5,0.5,1,0.7,1.6
												c0.1,0.3,0.3,0.6,0.4,1c0.1,0.4,0.2,0.8,0.3,1.2c0,0.4,0.1,0.9,0.2,1.3c0.1,0.8,0.1,1.7,0.1,2.5c0,1-0.1,2-0.2,3.1
												c0.1-0.1,0-0.2,0.1-0.4c0-0.5,0.1-0.9,0.1-1.4c0.1-1.1,0.2-2.3,0.1-3.5C243.2,184.3,243.1,183.7,243,183.1z"/>
											<path class="st11" d="M245.2,184.7c0,0.2-0.1,0.4-0.1,0.6c0,0.2-0.1,0.5,0,0.7c0,0.3,0,0.7-0.1,1.1c0,0,0.1,0.1,0.2,0.1
												c0-0.3,0-0.7,0-0.9C245.3,185.7,245.3,185.2,245.2,184.7z"/>
											<path class="st11" d="M212.4,185.4c0-1.2,0.1-2.4,0.3-3.6c0.1-0.9,0.4-1.7,0.7-2.5c0.1-0.3,0.2-0.5,0.4-0.8
												c0.1-0.3,0.3-0.6,0.5-0.9l0,0c0.3-0.6,0.8-1.2,1.2-1.8c0.6-0.7,1.2-1.4,1.9-2c0.6-0.6,1.2-1.1,1.9-1.7
												c0.1-0.1,0.3-0.2,0.5-0.4l0,0c0.8-0.6,1.6-1.1,2.5-1.7c1-0.6,2-1.2,2.9-1.9c0.6-0.4,1.2-0.9,1.7-1.6v-0.1
												c-0.2,0-0.3,0.2-0.4,0.3c-0.6,0.6-1.3,1.2-2,1.7s-1.4,0.9-2.1,1.3c-0.9,0.6-1.8,1.2-2.7,1.9c-0.7,0.6-1.4,1.2-2.1,1.8
												c-0.7,0.7-1.3,1.4-1.9,2.1c-0.5,0.6-0.9,1.2-1.3,1.9c-0.3,0.6-0.6,1.1-0.9,1.7c-0.2,0.5-0.3,1-0.5,1.5
												c-0.3,1-0.4,2.2-0.5,3.3c0,0.4,0,0.8,0,1.2c0,0.2,0,0.5,0,0.8c0,0.4,0,0.7,0,1.1h0.1
												C212.3,186.5,212.4,185.9,212.4,185.4z"/>
										</g>
										<path class="st12" d="M217.3,187.5c0.6-0.1,1.2-0.2,1.8-0.2c0.7,0,1.5,0,2.2,0.1c0.9,0.1,1.9,0.3,2.8,0.8
											c0.2,0.1,0.5,0.2,0.6,0.5c-0.2,0-0.4,0-0.6,0c-0.4-0.1-0.9-0.1-1.2-0.2c-0.5-0.1-1-0.2-1.6-0.2c-0.7,0-1.4,0-2.1,0
											c-0.9,0-1.7,0.1-2.6,0.2c-0.5,0.1-0.9,0.1-1.5,0.1c0,0-0.1,0-0.2,0c0-0.2,0.2-0.4,0.4-0.4
											C216,188,216.6,187.7,217.3,187.5z"/>
										<path class="st12" d="M239.1,187.8c-0.3-0.1-0.6-0.3-0.9-0.4c-0.6-0.2-1.2-0.3-1.9-0.4c-0.7-0.1-1.4-0.1-2.1-0.1
											c-0.9,0.1-1.8,0.1-2.7,0.6c-0.5,0.2-1,0.6-1.4,1c-0.1,0.1,0,0.2,0,0.3c0.2-0.1,0.5-0.1,0.7-0.2c0.6-0.1,1.2-0.3,1.9-0.4
											c1.6-0.4,3.3-0.3,5-0.3c0.3,0.1,0.7,0.1,1,0.1c0.2,0,0.4,0,0.6,0c0,0,0,0,0-0.1C239.2,187.9,239.1,187.8,239.1,187.8z"/>
										<path class="st13" d="M224.9,189h0.1c0.1,0.1,0.2,0.3,0.3,0.5c0.2,0.5,0.2,1.1,0.3,1.7c0.1,0.8,0.3,1.5,0.3,2.3
											c0,0.9,0,1.8-0.1,2.7c-0.1,0.8-0.3,1.6-0.5,2.4c0,0.3-0.1,0.5-0.1,0.8c0,0.1,0.2,0.2,0.3,0.2c0.4,0,0.8,0,1.2,0
											c0.3,0,0.6,0,0.9,0v0.1c-0.2,0.1-0.5,0.1-0.8,0.2c-0.4,0-0.8,0-1.2,0c-0.2,0-0.6-0.1-0.7-0.3c-0.1-0.5,0.1-1,0.2-1.5
											c0.2-0.9,0.3-1.7,0.4-2.6c0-0.6,0-1.3,0-1.9c0-0.9-0.2-1.9-0.3-2.9c0-0.5-0.1-1-0.4-1.4
											C224.9,189.2,224.9,189.1,224.9,189z"/>
										<path class="st14" d="M219.2,189.5c0.2,0,0.4,0,0.5,0.2s0.1,0.5,0.1,0.7s-0.1,0.4-0.3,0.5c-0.1,0.1-0.4,0.2-0.6,0
											s-0.2-0.4-0.2-0.6c0-0.2,0-0.5,0.1-0.7C219,189.6,219.1,189.6,219.2,189.5z"/>
										<path class="st14" d="M234,189.6c0.1-0.1,0.3,0,0.4,0c0.2,0.2,0.3,0.5,0.3,0.8s-0.1,0.6-0.3,0.8c-0.2,0.1-0.5,0-0.6-0.1
											c-0.1-0.2-0.1-0.5-0.1-0.8C233.7,189.9,233.8,189.7,234,189.6z"/>
										<path class="st15" d="M244.7,190.2c0-0.1,0-0.2,0-0.3c0,0.1,0.1,0.2,0.2,0.3c0.2,0.5,0.1,1,0,1.6c-0.2,0.9-0.5,1.9-1,2.7
											h-0.1c0,0,0-0.1,0-0.2c0.2-0.3,0.3-0.6,0.4-0.9c0.2-0.6,0.4-1.2,0.5-1.9C244.8,191.1,244.8,190.6,244.7,190.2z"/>
										<path class="st15" d="M211.9,191c0.1-0.3,0.3-0.6,0.7-0.7h0.1c0,0,0,0,0,0.1c-0.3,0.1-0.5,0.5-0.6,0.9
											c-0.1,0.8,0,1.7,0.5,2.4c0.4,0.7,0.9,1.3,1.6,1.9c0,0,0.1,0.1,0.1,0.2c0,0-0.1,0-0.2,0c-0.4-0.2-0.8-0.6-1.1-0.9
											c-0.6-0.7-1.1-1.5-1.2-2.4C211.7,191.9,211.7,191.5,211.9,191z"/>
										<path class="st16" d="M218.1,190.9c0.2,0,0.5,0.1,0.7,0.2c0.4,0.1,0.9,0.2,1.3,0.3v0.1c-0.5,0-0.9-0.1-1.4-0.1
											c-0.2,0-0.4-0.1-0.6-0.2C218.1,191.1,218.1,191,218.1,190.9z"/>
										<g>
											<path class="st17" d="M236.9,191.5c-0.1,0.1-0.3,0.2-0.5,0.4c-0.7,0.4-1.3,0.7-2.1,0.8c-0.3,0-0.7,0-1,0s-0.6,0-0.9-0.2
												l0,0c-0.1,0-0.2-0.1-0.3,0s0,0.3,0.2,0.4c0.3,0.1,0.6,0.2,0.9,0.3c0.7,0.1,1.4,0,2.1-0.3c0.4-0.2,0.8-0.4,1.1-0.7
												c0.2-0.1,0.4-0.3,0.6-0.5C237,191.5,237,191.4,236.9,191.5z"/>
											<path class="st17" d="M221.7,191.6c-0.1,0.1-0.2,0.2-0.3,0.3c-0.7,0.4-1.5,0.7-2.2,0.6c-0.5-0.1-1.1-0.2-1.5-0.6
												c0,0-0.1,0-0.2,0c0,0.1,0.1,0.2,0.2,0.3c0.4,0.3,0.9,0.5,1.3,0.6c0.5,0.1,1,0.1,1.5-0.1c0.4-0.2,0.8-0.4,1.2-0.7
												c0.1-0.1,0.2-0.2,0.3-0.3v-0.1C221.8,191.6,221.7,191.6,221.7,191.6z"/>
										</g>
										<path class="st18" d="M226.6,194.1h0.1c0.1,0.2,0.1,0.5,0.1,0.8c0,0.6-0.1,1.2-0.2,1.9c-0.1,0.4-0.1,0.9-0.3,1.3h-0.1
											c0-0.2,0.1-0.3,0.1-0.5C226.5,196.3,226.5,195.2,226.6,194.1z"/>
										<path class="st19" d="M235,194.5c0.6-0.1,1.3,0,1.9,0.3c0.5,0.3,0.9,0.8,1.1,1.3c0.4,1,0.3,2.3-0.2,3.3
											c-0.3,0.5-0.7,0.9-1.2,1.2c-0.6,0.3-1.3,0.5-1.9,0.4c-0.6-0.1-1.2-0.3-1.6-0.7c-0.4-0.3-0.7-0.7-0.8-1.1
											c-0.1-0.4-0.3-0.9-0.2-1.3c0-0.3,0.1-0.5,0.2-0.8c0.1-0.3,0.3-0.7,0.5-0.9c0.2-0.4,0.6-0.8,0.9-1.1
											C234,194.8,234.4,194.6,235,194.5z"/>
										<path class="st20" d="M212.4,194.6C212.4,194.6,212.5,194.6,212.4,194.6c0.5,0.4,0.9,0.8,1.3,1.1v0.1
											c-0.4-0.2-0.7-0.5-1-0.8C212.5,195,212.4,194.9,212.4,194.6z"/>
										<path class="st16" d="M217.5,195c0.3,0,0.5,0.4,0.7,0.6c0,0,0,0,0.1,0l0,0c0,0-0.1,0.1-0.2,0.1l0,0
											c-0.1-0.2-0.3-0.3-0.5-0.5C217.4,195.1,217.5,195.1,217.5,195z"/>
										<path class="st21" d="M244.1,195.2c0.1-0.1,0.2-0.1,0.4-0.1c0.1,0,0.1,0.2,0.1,0.3c-0.1,0.2-0.2,0.3-0.4,0.3l-0.1-0.1
											C244,195.4,244,195.3,244.1,195.2z"/>
										<path class="st19" d="M218.3,195.5c0.7-0.3,1.4-0.3,2.1-0.2c0.4,0.1,0.8,0.3,1.1,0.5c0.8,0.6,1.4,1.5,1.4,2.5
											c0,0.9-0.4,1.8-1,2.4c-0.4,0.4-1,0.7-1.6,0.8c-0.7,0.1-1.5,0-2.1-0.3c-0.8-0.4-1.4-1.1-1.7-2c-0.1-0.6,0-1.2,0.1-1.9
											c0.2-0.7,0.6-1.3,1.2-1.7l0,0c0.3,0.3,0.7,0.7,1,1c0,0,0-0.1,0.1-0.1C218.8,196.3,218.5,196,218.3,195.5
											C218.2,195.6,218.3,195.5,218.3,195.5z"/>
										<path class="st15" d="M214.2,195.6c0.2,0.1,0.5,0.3,0.7,0.4v0.1c-0.1,0-0.3-0.1-0.4-0.1c-0.1,0-0.2-0.1-0.3-0.2
											c0,0,0.1,0,0.2,0C214.3,195.7,214.2,195.6,214.2,195.6z"/>
										<path class="st22" d="M218,195.7c0,0,0.1-0.1,0.2-0.1c0.3,0.3,0.6,0.7,0.9,1c0,0,0,0.1-0.1,0.1
											C218.7,196.3,218.3,196,218,195.7z"/>
										<path class="st10" d="M213.8,196.8c0.1,0,0.3-0.1,0.4,0c0.1,0,0.1,0.2,0.1,0.3s-0.1,0.2-0.2,0.3l0,0
											c-0.1,0-0.1-0.1-0.2-0.1C213.8,197.1,213.8,197,213.8,196.8C213.9,196.7,213.8,196.8,213.8,196.8z"/>
										<path class="st21" d="M213.7,197.3c-0.1-0.2,0-0.4,0.1-0.6h0.1c0,0.1,0,0.3,0,0.4c0.1,0,0.1,0.1,0.2,0.1
											C214,197.4,213.8,197.4,213.7,197.3z"/>
										<path class="st18" d="M227.8,198c0.3-0.2,0.8,0,0.9,0.3c0,0.1,0,0.2,0,0.3c-0.1-0.1-0.2-0.3-0.3-0.3c-0.2,0-0.3,0-0.5-0.1
											C227.8,198.2,227.8,198.1,227.8,198z"/>
										<path class="st16" d="M225.8,198.8c0-0.1,0-0.2,0.1-0.1c0.2,0.1,0.3,0.3,0.5,0.4v0.1C226.2,199.2,225.9,199.1,225.8,198.8
											z"/>
										<path class="st23" d="M227.5,198.8c0.2,0,0.4-0.1,0.6,0c0,0,0,0.1,0,0.2c-0.2,0.2-0.6,0.2-0.9,0.1
											C227.2,199,227.3,198.8,227.5,198.8z"/>
										<path class="st24" d="M240.7,199.2c-0.1,0.2-0.2,0.4-0.3,0.7c-0.2,0.4-0.3,0.8-0.6,1.2c-0.5,0.9-0.8,1.9-1.3,2.9
											c-0.2,0.4-0.5,0.8-0.7,1.2s-0.5,0.8-0.7,1.1c-0.2,0.4-0.4,0.8-0.7,1.1c-0.2,0.3-0.4,0.6-0.7,0.9c-0.4,0.5-0.7,1-1.1,1.5
											c-0.3,0.4-0.6,0.7-0.9,1.1c-0.3,0.3-0.7,0.5-1,0.8c-0.2,0.1-0.4,0.2-0.6,0.4l0,0c-0.7,0.4-1.5,0.6-2.2,0.8
											c-0.3,0.1-0.6,0.1-0.8,0.1s-0.4,0-0.7,0c-0.6,0-1.2-0.2-1.8-0.4c-0.3-0.1-0.6-0.1-0.9-0.3c-0.4-0.1-0.7-0.3-1-0.5
											c-0.5-0.3-0.9-0.7-1.3-1c-0.3-0.2-0.6-0.6-0.9-0.9c-0.3-0.3-0.7-0.7-1-1.1c-0.7-0.8-1.2-1.7-1.8-2.5c-0.3-0.5-0.7-1-1-1.5
											s-0.5-0.9-0.8-1.4c-0.6-1.1-1.2-2.3-1.8-3.4c-0.1-0.3-0.2-0.6-0.4-0.9c0,0-0.1,0.1,0,0.2c0,0.3,0.1,0.6,0.3,0.9
											c0.3,0.9,0.7,1.8,1.1,2.6c0,0,0.1,0.1,0.1,0.2c0.1,0.3,0.3,0.6,0.5,0.9c0.4,0.7,0.7,1.4,1.2,2c0.2,0.2,0.3,0.5,0.5,0.7
											c0.3,0.5,0.7,1,1,1.5c0.5,0.7,1,1.3,1.6,1.9c0.3,0.3,0.7,0.7,1,1c0.4,0.3,0.8,0.8,1.2,1c0.3,0.2,0.7,0.4,1,0.6
											c0.4,0.2,0.9,0.3,1.2,0.4c0.5,0.2,0.9,0.2,1.4,0.3c0.3,0,0.6,0,0.9,0c0.4,0,0.9-0.1,1.3-0.2c0.5-0.2,1-0.2,1.5-0.5
											c0.1,0,0.3-0.1,0.4-0.2c0.5-0.3,0.9-0.6,1.3-0.9c0.3-0.2,0.6-0.5,0.8-0.7c0.5-0.6,1-1.1,1.4-1.8c0.5-0.6,0.9-1.3,1.3-1.9
											c0.3-0.5,0.6-1.1,1-1.7c0.5-0.7,0.9-1.5,1.3-2.2c0.2-0.4,0.3-0.8,0.5-1.2s0.4-0.9,0.6-1.4c0-0.2,0.1-0.4,0.2-0.6
											C240.4,199.8,240.5,199.4,240.7,199.2C240.8,199.2,240.7,199.2,240.7,199.2z"/>
										<path class="st24" d="M227.4,200.9C227.5,200.9,227.5,200.9,227.4,200.9c0.2,0.5,0.1,0.9,0,1.4h-0.1
											C227.4,201.9,227.4,201.4,227.4,200.9z"/>
										<path class="st19" d="M227.4,202.9c0.2,0,0.5,0,0.7,0c1.1,0,2.2,0.3,3.2,0.9c-0.6,0-1.1,0-1.7-0.1c-0.4,0-0.9-0.1-1.3,0
											c-0.4,0-0.8,0.1-1.2,0.1c-0.3,0-0.6,0-0.9,0c-0.4,0-0.8,0.1-1.1,0.2c-0.4,0.1-0.9,0.3-1.3,0.4c0-0.2,0.2-0.3,0.3-0.4
											c0.2-0.1,0.4-0.2,0.6-0.3c0.2,0,0.4,0,0.6-0.1c0.5-0.1,1-0.3,1.5-0.4C227,203,227.3,203,227.4,202.9z"/>
										<path class="st25" d="M225.4,203.2c0.4-0.2,0.9-0.3,1.3-0.3c0.2,0,0.5,0,0.7,0c-0.1,0.2-0.4,0.2-0.6,0.2
											c-0.5,0.1-1,0.3-1.5,0.4c-0.2,0.1-0.4,0.1-0.6,0.1C224.9,203.5,225.2,203.4,225.4,203.2z"/>
										<path class="st21" d="M227,203.8c0.4,0,0.8-0.1,1.2-0.1s0.9,0,1.3,0c0.6,0,1.1,0.1,1.7,0.1c0.3,0,0.5,0,0.8,0.1v0.1v-0.1
											c-0.1,0.1-0.3,0.1-0.5,0.1c-0.4,0-0.8,0-1.1,0s-0.7-0.1-1-0.1c-0.6,0-1.1,0-1.7,0c-0.5,0.1-1.1,0-1.7,0
											c-0.9,0.2-1.7,0.4-2.5,0.7c0,0-0.1,0-0.1-0.1c0,0,0,0,0-0.1c0.1,0,0.2-0.1,0.4-0.1c0.4-0.1,0.9-0.2,1.3-0.4
											c0.4-0.1,0.7-0.3,1.1-0.2C226.5,203.8,226.7,203.8,227,203.8z"/>
										<path class="st19" d="M231.5,204c0.2,0,0.4,0,0.5-0.1l0,0l0,0c-0.3,0.2-0.5,0.5-0.8,0.7c-0.5,0.4-1.2,0.7-1.8,0.8
											s-1.1,0.2-1.7,0.2c-0.6,0.1-1.2,0-1.8-0.1s-1.3-0.3-1.9-0.5c-0.2-0.1-0.4-0.2-0.6-0.3c0.8-0.3,1.7-0.5,2.5-0.7
											c0.5,0,1.1,0,1.7,0c0.5-0.1,1.1,0,1.7,0c0.3,0,0.7,0.1,1,0.1C230.7,203.9,231.1,203.9,231.5,204z"/>
										<path class="st22" d="M229.9,204.2c0.2-0.1,0.5,0,0.8,0c0.2,0,0.4,0,0.6,0v0.1c-0.2,0.1-0.5,0-0.7,0.1c-0.3,0-0.5,0-0.8,0
											C229.9,204.3,229.9,204.2,229.9,204.2z"/>
										<path class="st26" d="M226.7,204.7c0.1,0,0.2,0,0.2,0C226.9,204.8,226.7,204.8,226.7,204.7z"/>
										<path class="st16" d="M227.3,208.5c0.4-0.1,0.9-0.1,1.4-0.1s1,0,1.5,0.2v0.1c-0.3,0-0.6-0.1-0.9-0.1c-0.6,0-1.1,0-1.7,0
											C227.5,208.6,227.4,208.6,227.3,208.5C227.3,208.6,227.3,208.5,227.3,208.5z"/>
										<g>
											<path class="st27" d="M218.9,208.5c0-0.1,0.1-0.1,0.2-0.2c0.1,0.1,0.2,0.2,0.3,0.4h0.1c-0.2-0.6-0.2-1.2-0.4-1.8
												c-0.2,0-0.3,0.2-0.4,0.3c0,0.1-0.1,0.2-0.2,0.3c0,0,0,0.1,0,0.2c0,0.1-0.1,0.1-0.2,0.2c-0.1,0-0.2,0.2-0.2,0.3
												c-0.4,0.8-0.8,1.7-0.7,2.6c0.1-0.1,0.1-0.3,0.1-0.5c0.1-0.9,0.5-1.8,1.1-2.5c0.1,0.1,0.2,0.2,0.3,0.4
												c0,0.1-0.2,0.2-0.2,0.4c-0.1,0.1-0.2,0.3-0.2,0.5c-0.2,0.5-0.3,1-0.4,1.6c-0.1,0.3-0.1,0.7-0.1,1.1h0.1
												c0-0.2,0-0.5,0-0.7C218.2,210.1,218.5,209.3,218.9,208.5z"/>
											<path class="st27" d="M219.4,209c-0.4,0.9-0.7,1.9-0.9,3v0.1c0.2-0.8,0.3-1.6,0.6-2.3c0.1-0.4,0.3-0.8,0.6-1.1
												C219.5,208.6,219.4,208.8,219.4,209z"/>
										</g>
										<g>
											<path class="st28" d="M217.2,203.2c0-0.1,0-0.2,0-0.3s-0.1-0.1-0.1-0.2c0,0.1-0.1,0.2,0,0.3c0,0.6,0.1,1.1,0.2,1.6
												c0.1,0.7,0.3,1.5,0.5,2.2h0.1C217.7,205.6,217.5,204.4,217.2,203.2z"/>
											<path class="st28" d="M216.8,207.7c0-0.2,0-0.4-0.1-0.6c-0.4-1.9-0.6-3.9-0.9-5.8c0-0.2,0-0.4-0.1-0.6c0-0.3,0-0.6,0-0.9
												c-0.1,0.1-0.1,0.3-0.1,0.5c0,0.3,0,0.6,0,0.9c0.1,0.9,0.2,1.7,0.3,2.6c0.2,1.4,0.5,2.8,0.9,4.1c0,0.1,0,0.3,0.2,0.3
												C217,208.1,216.9,207.9,216.8,207.7L216.8,207.7z"/>
											<path class="st28" d="M215.8,212.9c0,0,0-0.1,0-0.2c-0.6-2.6-0.9-5.2-1.1-7.8c-0.1-1.7-0.1-3.5-0.4-5.2
												c0-0.2,0-0.5-0.1-0.7c-0.1,0.5,0,0.9,0,1.4c0.1,1.8,0.2,3.6,0.4,5.3c0.2,2.5,0.6,5,1.2,7.4l0,0c0,0.3,0.1,0.5,0.2,0.8
												c0.1,0.5,0.3,0.9,0.6,1.3c0,0,0,0,0.1-0.1c-0.4-0.8-0.5-1.6-0.8-2.4L215.8,212.9z"/>
											<path class="st28" d="M214.4,213.4L214.4,213.4c0-0.3-0.2-0.7-0.3-1.1c-0.7-2.8-0.9-5.7-1-8.5c0-1.5,0-3-0.3-4.5
												c0-0.2-0.1-0.4-0.1-0.7c0-0.1,0-0.2-0.1-0.3c0,0,0,0,0,0.1c0,0.2,0,0.5,0.1,0.7c0,0.5,0.1,1,0.1,1.6
												c0.1,1.6,0.1,3.3,0.2,4.9c0.1,1.5,0.2,2.9,0.5,4.4C213.7,211.2,214,212.4,214.4,213.4v0.2l0,0c0,0.2,0.1,0.4,0.1,0.6
												c0.1,0.5,0.3,0.9,0.4,1.4c0.3,0.9,0.5,1.8,0.9,2.7h0.1c-0.2-0.4-0.3-0.9-0.4-1.3C215.1,215.8,214.7,214.6,214.4,213.4z"
												/>
										</g>
										<g>
											<path class="st28" d="M245.3,205.6c0-1-0.2-2.1-0.4-3.1c-0.1-0.5-0.2-1.1-0.3-1.6c-0.1-0.7-0.3-1.4-0.2-2h-0.1
												c0,0.1,0,0.3,0,0.5c0,0.8,0.2,1.6,0.3,2.3c0.1,0.4,0.1,0.9,0.3,1.2c0,0.5,0.2,1.1,0.2,1.6c0.1,1.2,0.2,2.4,0.2,3.6
												c0,2.4-0.3,4.9-0.6,7.3c0,0.3-0.1,0.5-0.1,0.8l0,0c-0.1,0.7-0.2,1.3-0.3,1.9c0,0.1-0.1,0.3-0.1,0.5
												c0.2-0.2,0.2-0.5,0.3-0.8c0.1-0.5,0.2-0.9,0.3-1.4l0,0c0.5-2.3,0.7-4.6,0.8-6.9C245.4,208.1,245.4,206.8,245.3,205.6z"/>
											<path class="st28" d="M242.3,207.4c-0.2-1.8-0.4-3.5-0.6-5.3c0-1.3,0-2.6,0.1-3.8c0-0.3,0.1-0.7,0.1-1
												c0.1-0.7,0.1-1.4,0.3-2l0,0c-0.2,0.8-0.4,1.7-0.5,2.6c-0.2,1.4-0.2,2.8-0.2,4.1c0,0.7,0.1,1.3,0.2,2
												c0.1,1.2,0.2,2.4,0.4,3.6c0.2,1.8,0.4,3.5,0.4,5.3c0,1.2,0,2.4,0,3.6c0,0.3,0,0.6-0.1,0.9h0.1c0.1-0.6,0.1-1.1,0.1-1.7
												c0-0.2,0-0.5,0-0.7c0-0.1,0-0.2,0-0.3c0-0.5,0-0.9,0-1.4C242.7,211.2,242.6,209.3,242.3,207.4z"/>
											<path class="st28" d="M244,209.2c-0.1-0.6-0.2-1.1-0.3-1.7l0,0c0-0.1,0-0.2,0-0.3c-0.2-1.2-0.3-2.5-0.4-3.7
												c-0.1-1.7,0-3.4,0-5.2c0-1.3,0.2-2.6,0.4-3.8c0,0,0-0.1,0-0.2c0.1-0.8,0.4-1.6,0.5-2.4c0.1-0.6,0.3-1.1,0.4-1.7
												c0-0.1,0-0.2,0-0.3c0.2-0.9,0.3-1.9,0.4-2.8c0,0-0.1-0.1-0.2-0.1c-0.2,1.5-0.4,3-0.8,4.5c-0.2,1-0.5,2-0.7,3
												c-0.2,0.8-0.2,1.6-0.3,2.4c-0.1,1.1-0.1,2.2-0.1,3.3c0,1.2,0,2.4,0.1,3.7c0,0.3,0,0.5,0.1,0.8c0.1,1,0.3,2.1,0.4,3.2
												C243.8,208.4,243.9,208.8,244,209.2L244,209.2z"/>
											<path class="st28" d="M246.6,208.2c0-0.1,0-0.2,0-0.3c-0.1-0.4-0.1-0.8-0.2-1.2c0,0.4,0.1,0.9,0.1,1.3
												c0,0.1,0,0.3,0.1,0.4c0,0.2,0,0.4,0,0.6c0,0.8,0,1.6-0.1,2.4c-0.1,1.3-0.2,2.6-0.4,3.9c-0.2,1.1-0.4,2.2-0.7,3.3
												c0,0,0,0.1,0,0.2l0,0c-0.1,0.5-0.2,1.1-0.4,1.6h0.1c0.2-0.4,0.3-0.9,0.4-1.3c0.3-1.1,0.5-2.2,0.8-3.3
												c0.2-1.3,0.3-2.6,0.5-3.8C246.7,210.6,246.8,209.4,246.6,208.2z"/>
											<path class="st28" d="M241.2,211.5c0.1-1.4,0-2.8,0-4.1c-0.1-1.2-0.3-2.5-0.5-3.7c0-0.4,0-0.9-0.1-1.3c0-0.3,0-0.6,0-0.9
												c0-0.4,0-0.8,0-1.1c0-0.2,0.1-0.5,0.1-0.8c-0.2,0.5-0.3,1-0.3,1.6l0,0c0,0.1,0,0.3,0,0.4c-0.1,1.2,0,2.4,0.2,3.6
												c0.2,1.3,0.4,2.6,0.4,3.8c0,1,0,2.1,0,3.1c0,0.5,0,1,0,1.5c0,0.3,0,0.6,0,0.8c0,0.7,0.1,1.3,0.2,1.9c0,0.1,0,0.2,0.1,0.3
												c-0.2-1.4-0.2-2.8-0.2-4.2C241.2,212.1,241.2,211.8,241.2,211.5z"/>
										</g>
										<g>
											<path class="st27" d="M218.2,220.6c-0.2,0.4-0.3,0.8-0.6,1.1h0.1c0.3-0.4,0.5-0.8,0.7-1.3c0.4-0.9,0.8-1.9,1-2.9
												c0-0.4,0.1-0.8,0-1.1h-0.1c0,0.4,0,0.7-0.1,1C219.1,218.5,218.7,219.5,218.2,220.6z"/>
											<path class="st27" d="M218.2,222.6c0.2-0.2,0.3-0.6,0.5-0.9c0.6-1.2,1.1-2.5,1.3-3.8h-0.1c-0.1,0.5-0.2,0.9-0.4,1.4
												c-0.3,0.9-0.7,1.9-1.1,2.8C218.4,222.3,218.3,222.4,218.2,222.6z"/>
											<path class="st27" d="M219,223.1c0.2-0.1,0.3-0.4,0.5-0.6c0.4-0.9,0.8-1.8,1-2.7c0.1-0.4,0.2-0.8,0.2-1.1
												c0,0-0.1,0.1-0.1,0.2c-0.2,1.2-0.7,2.4-1.2,3.6C219.3,222.8,219.1,222.9,219,223.1z"/>
											<path class="st27" d="M216.9,220.2c0.4-0.6,0.8-1.3,0.9-2c0.1-0.7,0.3-1.3,0.3-2s0-1.3,0-1.9c0-0.5-0.1-0.9-0.1-1.4h-0.1
												c-0.1,0.4,0,0.8,0,1.1c0,0.8,0,1.6,0,2.4c0,0.5-0.1,1-0.2,1.5c-0.1,0.6-0.3,1.1-0.5,1.6
												C217.1,219.8,216.9,220,216.9,220.2c-0.3,0.2-0.4,0.5-0.7,0.8h0.1C216.5,220.8,216.7,220.5,216.9,220.2z"/>
										</g>
										<g>
											<path class="st27" d="M238.7,206.7c0.1,0.1,0.2,0.2,0.3,0.3c0.3,0.6,0.4,1.2,0.5,1.9c0,0.2,0,0.4-0.1,0.6
												c-0.1,0.6-0.1,1.1-0.1,1.8c0,0.2-0.1,0.5,0,0.7c0,0.3,0,0.6,0,0.9c0,0.3,0,0.7,0,1c0,0.6,0.1,1.1,0.2,1.7
												c0.1,0.5,0.2,0.9,0.3,1.3c0.2,0.5,0.4,0.9,0.8,1.3c0.2,0.3,0.5,0.6,0.8,0.9c0.1,0.1,0.3,0.3,0.5,0.4
												c0-0.1-0.1-0.3-0.2-0.4c-0.3-0.4-0.7-0.8-1-1.1c-0.5-0.7-0.7-1.6-0.9-2.4c-0.1-0.5-0.2-1.1-0.2-1.6c0-0.7,0-1.3,0-2
												c0-0.9,0.1-1.9,0.2-2.8c0-0.5,0-1-0.2-1.6c-0.1-0.3-0.2-0.7-0.5-0.9c0,0-0.1,0-0.1-0.1c0,0,0.1-0.1,0.1-0.2
												c0.1-0.2,0.1-0.6,0-0.9c0.3,0.1,0.6,0.3,0.7,0.6V206c0-0.1-0.1-0.1-0.2-0.2c-0.1-0.1-0.3-0.2-0.5-0.3s-0.4-0.4-0.6-0.5
												c-0.2,0.3-0.1,0.6-0.1,0.9c0,0.4,0,0.9-0.2,1.3C238.4,207.1,238.5,206.9,238.7,206.7z"/>
											<path class="st27" d="M238.6,207.9c0.2,0.5,0.1,1,0.2,1.5c0,0.7-0.1,1.5-0.1,2.2s-0.1,1.3-0.1,2c0,0.5,0,1,0.1,1.6
												c0,0.6,0.1,1.1,0.3,1.7c0.1,0.4,0.3,0.8,0.5,1.1c0.2,0.5,0.5,0.9,0.8,1.3c0.2,0.3,0.5,0.5,0.8,0.7
												c0.1,0.1,0.2,0.2,0.4,0.4c0-0.2-0.1-0.3-0.2-0.4c-0.1-0.1-0.2-0.3-0.4-0.4c-0.6-0.6-1-1.4-1.4-2.2
												c-0.2-0.4-0.2-0.8-0.3-1.2c-0.1-0.6-0.2-1.2-0.2-1.8c0-0.4-0.1-0.9,0-1.3c0.1-1,0.1-2,0.2-3c0-0.4,0-0.8,0-1.2
												s0-0.8-0.2-1.1c-0.1-0.2-0.4-0.4-0.6-0.4v0.1C238.3,207.6,238.5,207.7,238.6,207.9z"/>
											<path class="st27" d="M238,208.6c0.2,0.5,0.3,1,0.2,1.5c0,0.7-0.2,1.3-0.3,1.9c-0.1,0.7-0.2,1.3-0.2,1.9
												c0,0.5,0,0.9,0,1.4l0,0c0,1.3,0.4,2.7,1,3.8c0.4,0.8,0.9,1.4,1.5,2h0.1c-0.4-0.5-0.7-1-1-1.6c-0.5-0.8-0.8-1.6-1-2.4
												c-0.2-0.7-0.2-1.4-0.3-2c0-0.5,0-1,0-1.5c0-1.5,0.6-2.8,0.5-4.3c0-0.3-0.1-0.6-0.2-0.9c-0.1-0.3-0.5-0.6-0.9-0.6
												c0,0,0,0.1,0,0.2C237.7,208.1,238,208.3,238,208.6z"/>
											<path class="st27" d="M237.3,218.8c0.4,1,0.8,2,1.3,2.9c0,0.1,0.1,0.2,0.2,0.3c0,0,0-0.1,0-0.2c-0.4-0.9-0.9-1.8-1.2-2.8
												c-0.3-0.9-0.5-1.9-0.6-2.8c0-0.3,0-0.6,0-0.9c-0.1,0.3-0.1,0.6-0.1,0.9C236.9,217.1,237.1,218,237.3,218.8z"/>
											<path class="st27" d="M242.3,219.6h-0.1c0,0.1,0,0.3-0.1,0.4c-0.5,0.8-1.1,1.5-1.8,2.1c-0.6,0.6-1.3,1.1-2,1.6
												c-0.8,0.5-1.6,0.8-2.4,1.2c-0.9,0.4-1.9,0.8-2.9,1c-0.7,0.1-1.3,0.3-2,0.3c-1.3,0.1-2.7,0.1-4,0h-0.1h-0.1h0.1h0.1
												c-0.7-0.1-1.3-0.2-2-0.4c-0.5-0.1-1-0.2-1.6-0.4c-0.5-0.1-1-0.2-1.5-0.5c-0.4-0.2-0.9-0.4-1.3-0.6
												c-0.4-0.2-0.8-0.5-1.2-0.7c-0.3-0.2-0.7-0.4-1-0.5c-0.3-0.2-0.6-0.4-0.9-0.7c-0.2-0.2-0.5-0.4-0.8-0.7
												c0.7-0.9,1.2-1.9,1.5-2.9c0.2-0.8,0.5-1.6,0.6-2.4c0-0.6,0.1-1.2,0-1.8c-0.1,0.2-0.1,0.4-0.1,0.6c0,0.2,0,0.5,0,0.7
												c0,0.7-0.2,1.4-0.4,2.1c-0.3,1.3-0.9,2.5-1.6,3.6c-0.2-0.1-0.4-0.3-0.5-0.5c-0.1-0.1-0.2-0.3-0.4-0.4
												c-0.1,0-0.1,0-0.1,0.1c0.3,0.3,0.7,0.6,1,0.9c0.1,0.1,0.4,0.3,0.5,0.4c0.3,0.2,0.7,0.6,1,0.8c0.5,0.4,1.1,0.7,1.7,1
												c0.6,0.4,1.3,0.7,2,1c0.5,0.2,1,0.3,1.5,0.5c0.6,0.1,1.2,0.3,1.9,0.4c0.6,0.1,1.2,0.2,1.8,0.3c0.9,0.1,1.8,0.2,2.7,0.2
												c1.1,0,2.3-0.1,3.4-0.4c1-0.2,2-0.6,2.9-1c1-0.4,1.9-0.8,2.8-1.5c0.6-0.4,1.2-0.9,1.7-1.5l0,0c0.6-0.7,1.3-1.4,1.8-2.2
												C242.3,219.8,242.3,219.7,242.3,219.6z"/>
										</g>
										<g>
											<path class="st27" d="M212.4,242.1c-0.3-0.2-0.5-0.4-0.8-0.6c-1-0.9-1.7-2-2.8-2.8c-0.3-0.3-0.8-0.4-1.1-0.7v0.1
												c0.3,0.3,0.7,0.4,1,0.7s0.7,0.6,0.9,0.9C210.5,240.6,211.3,241.6,212.4,242.1C212.5,242.2,212.5,242.2,212.4,242.1z"/>
											<path class="st27" d="M196.4,242.1c0,0.2,0.1,0.4,0.1,0.6c0.1,0.5,0.1,0.9,0.2,1.5c0.1,0.6,0.3,1.2,0.5,1.8
												s0.6,1.2,0.9,1.8c0.4,0.8,1,1.5,1.5,2.2c0.3,0.5,0.4,1.1,0.6,1.7c0.1,0.4,0.1,0.9,0.1,1.3c-0.2,0.6-0.4,1.1-0.5,1.7h0.3
												c0-0.1,0-0.2,0-0.3c0.1-0.5,0.3-1,0.5-1.5c0.2-0.2,0.3-0.6,0.3-0.9c0-0.1,0-0.3,0-0.5c0-0.4,0-0.9-0.1-1.2
												c-0.1-0.6-0.3-1.1-0.5-1.7c-0.2-0.5-0.5-1-0.7-1.5c-0.4-0.8-0.7-1.6-1-2.4c-0.1-0.3-0.2-0.5-0.2-0.8h-0.1
												c0,0.3,0.1,0.7,0.1,1l0,0c0,0.4,0.2,0.8,0.3,1.1c0.2,0.6,0.5,1.2,0.8,1.7c0.2,0.4,0.4,0.7,0.5,1.1
												c0.3,0.9,0.5,1.9,0.7,2.9c0,0.3,0,0.7-0.1,1l0,0c0-0.5-0.1-1-0.3-1.5c-0.1-0.3-0.2-0.7-0.4-0.9c-0.3-0.5-0.6-0.9-0.9-1.5
												c-0.5-0.8-0.9-1.6-1.3-2.4c-0.4-0.8-0.6-1.7-0.8-2.5c-0.1-0.5-0.1-1-0.3-1.6c0-0.1,0-0.3-0.1-0.4c0,0-0.1-0.1-0.1,0
												C196.3,241.8,196.4,242,196.4,242.1L196.4,242.1z"/>
											<path class="st27" d="M238.9,245.9c-0.9,0.4-1.8,0.8-2.7,1.2c-0.4,0.2-0.8,0.5-1.1,0.9c0,0,0,0.1-0.1,0.2
												c0.2,0,0.3-0.2,0.4-0.3c0.3-0.3,0.6-0.5,1-0.6c1-0.3,1.9-0.9,2.8-1.3c0.4-0.2,0.9-0.4,1.1-0.9c-0.1,0-0.1,0-0.2,0.1
												C239.8,245.5,239.3,245.6,238.9,245.9z"/>
											<path class="st27" d="M202.3,253.1c-0.1,0.5-0.2,1-0.3,1.6h0.3c0-0.2,0.1-0.5,0.1-0.7c0.2-0.9,0.6-1.8,0.7-2.7
												c0.2-0.9,0.1-1.9-0.1-2.7c-0.1-0.6-0.2-1.2-0.4-1.8c0-0.1,0-0.2,0-0.4h-0.1c0,0.2,0,0.5,0,0.8c0,0.4,0.1,0.8,0.2,1.1
												c0.2,0.9,0.3,1.9,0.1,2.9C202.8,251.9,202.5,252.5,202.3,253.1z"/>
											<path class="st27" d="M257.8,250.2c0-0.5,0.1-0.9,0-1.4c0-0.5-0.2-0.9-0.3-1.4c-0.1-0.6-0.2-1.1-0.5-1.7
												c-0.3-0.8-0.7-1.5-1-2.2c-0.4-0.7-0.7-1.5-1-2.2c-0.2-0.5-0.4-1-0.6-1.5h-0.1c0,0.2,0,0.4,0.1,0.6
												c0.1,0.4,0.3,0.9,0.5,1.3c0.2,0.5,0.4,1,0.7,1.6c0.4,0.9,0.9,1.8,1.3,2.7c0.4,0.8,0.5,1.8,0.8,2.6
												c-0.3,0.6-0.1,1.2-0.1,1.8c-0.1,0.5,0,1.1-0.1,1.6c-0.1-0.4-0.2-0.7-0.3-1.1c-0.1-0.6-0.1-1.3-0.1-1.9
												c0-0.6-0.2-1.1-0.4-1.6c-0.3-0.7-0.8-1.3-1.2-2c-0.1-0.2-0.4-0.5-0.4-0.8H255c0,0.4,0.1,0.7,0.3,1s0.4,0.6,0.6,0.9
												c0.4,0.6,0.7,1.3,0.9,2c0.1,0.7,0.1,1.4,0.2,2.1c0.1,0.8,0.3,1.5,0.6,2.1c0.1,0.2,0,0.5,0.1,0.7c0,0.2,0.1,0.4,0.3,0.4
												c0.1-0.2,0-0.4,0-0.6s-0.1-0.4,0-0.6c0-0.5,0-1.1,0-1.6C257.7,251,257.8,250.6,257.8,250.2z"/>
										</g>
									</g>
								</g>
							</g>
						</g>
					</g>
				</g>
			</g>
		</g>
	</g>
</g>
<g>
	<g>
		<g>
			<defs>
				<circle id="SVGID_00000183207492236768229180000011351548066367139716_" cx="378.6" cy="192.6" r="42.4"/>
			</defs>
			<clipPath id="SVGID_00000042733818116029096840000010738816403652277943_">
				<use xlink:href="#SVGID_00000183207492236768229180000011351548066367139716_"  style="overflow:visible;"/>
			</clipPath>
			<g style="clip-path:url(#SVGID_00000042733818116029096840000010738816403652277943_);">
				<g>
					<g>
						<rect id="SVGID_1_" x="336.3" y="150.2" class="st30" width="84.7" height="84.7"/>
					</g>
					<g>
						<g>
							<g>
								<defs>
									<rect id="SVGID_00000108989458104512374850000016707542251270959503_" x="336.3" y="150.2" width="84.7" height="84.7"/>
								</defs>
								<clipPath id="SVGID_00000070812297921123704390000010367094447118065851_">
									<use xlink:href="#SVGID_00000108989458104512374850000016707542251270959503_"  style="overflow:visible;"/>
								</clipPath>
								<g style="clip-path:url(#SVGID_00000070812297921123704390000010367094447118065851_);">
									<g>
										<path class="st32" d="M421.5,253.1c0-0.2,0.1-0.4,0.1-0.6c0.1-2.3-0.2-4.5-1-6.7c-0.1-1.5-0.3-2.9-0.7-4.3
											c0-0.1-0.1-0.2-0.1-0.4c-0.2-1-0.4-2-0.7-3c-0.3-1.2-0.5-2.5-1-3.7c-0.2-0.5-0.6-1-0.8-1.5c-0.3-0.5-0.6-0.9-0.9-1.4
											c-0.7-0.8-1.4-1.5-2.2-2.2c-0.4-0.3-0.9-0.6-1.4-0.8c-1.2-0.6-2.3-1.1-3.5-1.6s-2.4-1.1-3.5-1.6c-1.2-0.6-2.5-1.1-3.7-1.6
											c-1.3-0.6-2.5-1.2-3.7-1.8c-0.6-0.4-1.2-0.6-1.8-0.9c-0.4-0.2-0.8-0.5-1.2-0.7c-0.3-0.2-0.7-0.3-1-0.4c-0.7,0-1.4,0-2.2,0
											c-1.6,0-3.2,0-4.8,0c-1.3,0-2.5,0-3.8,0c-1.2,0-2.4,0.1-3.6,0.1c-2.6,0.1-5.2,0.3-7.8,0.7c-1.4,0.2-2.8,0.6-4.2,0.9
											c-1.2,0.3-2.4,0.6-3.6,0.8c-0.3,0-0.6,0.1-0.9,0.1c0,0,0.1,0,0.1-0.1s0-0.2-0.1-0.3c-0.5-0.2-1-0.1-1.4,0.1
											c-1,0.4-1.8,1.1-2.7,1.7c-0.9,0.7-1.7,1.5-2.5,2.3c-0.5,0.4-1,0.8-1.5,1.2c-0.3,0.3-0.7,0.6-1.1,0.9
											c-1,0.8-2.2,1.6-3.2,2.4c-1.7,1.4-3.4,2.7-4.9,4.3c-0.3,0.3-0.6,0.7-0.8,1c-0.2,0.2-0.5,0.4-0.7,0.6c-1,0.9-1.7,2-2.3,3.2
											c-0.2,0.5-0.4,1-0.6,1.5c-1.2,2.4-2.1,5.1-2.8,7.7c-0.3,1.1-0.6,2.2-0.9,3.3c0,0.1,0,0.2,0,0.3h83.7v0.5H421.5z"/>
										<path class="st33" d="M374.8,160.7c0.1-0.1,0.2-0.1,0.3-0.1c0,0,0.1,0.1,0.1,0.2c0,0.3-0.1,0.5-0.2,0.8
											c0.4-0.3,0.8-0.6,1.2-0.9c0.1-0.1,0.2,0,0.4,0c0.1,0.3-0.2,0.6-0.3,0.9c0.5-0.3,0.8-0.7,1.4-0.9c0.1,0,0.3,0,0.3,0
											c0.1,0.2,0,0.5,0,0.7c0.3,0,0.5-0.3,0.8-0.4c0.1-0.1,0.4-0.1,0.5,0.1c0,0.1,0,0.2,0,0.3c1.3,0.1,2.4,0.6,3.6,1.2
											c1,0.5,1.9,1.2,2.7,1.9c0.3,0.3,0.7,0.5,0.9,0.8c1,0.9,2.1,1.6,3.1,2.4c0.4,0.4,0.8,0.8,1.3,1.1c0.5,0.4,0.9,0.8,1.2,1.4
											c0.5,0.8,0.9,1.7,1.2,2.7c0.2,0.8,0.5,1.5,0.6,2.3s0.3,1.6,0.3,2.4c0,0.8,0,1.5,0,2.3c0,1.3-0.1,2.6-0.4,4
											c-0.1,0.5-0.2,0.9-0.3,1.4c0,0.3-0.2,0.7-0.2,1c0,0.6,0,1.2-0.2,1.8c-0.2,1.3-0.2,2.5-0.6,3.8c-0.2,0.8-0.4,1.6-0.9,2.3
											c-0.4,0.4-0.8,0.8-1.3,1.1c-0.6,0.4-1.3,0.6-2,0.9c-1.1,0.5-2.3,0.9-3.5,1.3c-0.9,0.3-1.8,0.5-2.8,0.8
											c-0.8,0.2-1.7,0.4-2.6,0.6c-0.7,0.1-1.3,0.3-2,0.3c-1.4,0.1-2.8,0.1-4.2,0c-0.8,0-1.6-0.2-2.4-0.3
											c-1.2-0.1-2.3-0.4-3.4-0.8c-0.6-0.2-1.2-0.5-1.6-1.1c-0.5-0.8-0.9-1.8-1.1-2.8c-0.2-0.7-0.3-1.4-0.3-2.2
											c-0.1-0.8,0-1.7,0-2.6c0-0.8,0-1.6,0-2.4c-0.1-1.1-0.8-2.1-1.1-3.2c-0.3-0.9-0.6-1.8-0.7-2.8c-0.1-0.7-0.2-1.3-0.3-2
											c0-0.7,0-1.4,0.1-2.1c0.1-0.8,0.2-1.5,0.4-2.3c0.3-1,0.7-2,1.1-3c0.3-0.7,0.6-1.3,0.9-1.9c0.5-0.8,1.1-1.6,1.7-2.4
											c0.8-1,1.8-1.7,2.8-2.5c0.9-0.7,1.9-1.4,2.8-2.1c0.5-0.3,1-0.6,1.6-0.8c0.2,0,0.3-0.2,0.5-0.3
											C374.1,161.3,374.5,160.9,374.8,160.7z"/>
									</g>
									<g>
										<path class="st8" d="M386.1,168.3c0.4-0.1,0.7-0.4,1.1-0.3c0.3,0,0.5,0.2,0.7,0.4c0.8,0.7,1.6,1.4,2,2.3
											c0.3,0.5,0.7,1,0.9,1.6c0.4,1,0.8,2,0.9,3.2c0,0.5,0.1,1.1,0.2,1.6c0.1,0.8,0.2,1.5,0.3,2.3c0,0.9,0,1.9-0.1,2.8
											c-0.2,1.1-0.4,2.1-0.7,3.2c-0.1,0.5-0.2,0.9-0.3,1.4c-0.1,0.7-0.2,1.3-0.3,2c0,0.5,0,0.9-0.1,1.4c0-0.1,0-0.2,0-0.2
											c-0.2,1.3-0.5,2.5-0.6,3.9c0,0.5,0,1,0,1.6c0,0.5,0.1,1,0.2,1.5c0,0.1,0,0.4,0.2,0.5l0,0c0,0-0.1,0-0.2,0
											c0.1,0.8,0,1.5-0.1,2.2c-0.4-0.3-0.8-0.4-1.2-0.6c-0.4-0.2-0.9-0.4-1.4-0.6c-0.7-0.3-1.5-0.6-2.2-0.7
											c-0.6-0.1-1.1-0.3-1.6-0.4c-0.5,0-1,0-1.5-0.1c-0.8-0.1-1.7-0.2-2.6-0.1c-0.4,0-0.8,0-1.2,0c-0.8,0.1-1.6,0.2-2.4,0.2
											c-0.6,0-1.2,0.1-1.8,0.2c-1.6,0.4-3.3,1.1-4.5,2.4c-0.3,0.3-0.6,0.7-0.9,0.9c-0.5,0.5-0.9,1-1.4,1.6
											c-0.1,0.1-0.2,0.3-0.3,0.4c-0.1-0.2-0.2-0.4-0.4-0.6c-0.1-0.2-0.2-0.4-0.4-0.6c0,0,0,0.1,0,0.2c-0.1-0.4-0.1-0.8-0.2-1.3
											s-0.2-1-0.3-1.6l0,0c0.1-0.1,0.1-0.3,0.1-0.4c0-0.7,0-1.4-0.1-2c-0.1-0.7,0-1.5-0.1-2.2c0-0.7,0.2-1.3,0.2-2
											c0-0.6,0-1.1-0.1-1.6c0-0.7-0.2-1.4-0.3-2.1c-0.2-1.2-0.6-2.4-0.9-3.5c-0.2-0.7-0.3-1.5-0.4-2.2c-0.1-1.5-0.5-2.9-0.7-4.3
											c-0.1-0.6-0.1-1.2-0.1-1.8c0-0.8,0.1-1.6,0.4-2.4c0.3-0.8,0.9-1.6,1.5-2.3c0.4-0.4,0.8-0.8,1.3-1.1
											c0.4-0.4,0.8-0.7,1.3-0.9s0.9-0.6,1.5-0.5c0.4,0.1,0.8,0.2,1.2,0.3c0.5,0.1,1,0.2,1.6,0.2c0.5,0,0.9-0.3,1.5-0.3
											c0.4,0,0.7,0.3,1,0.3c0.2,0,0.4-0.1,0.7-0.1c0.3,0,0.5,0.3,0.8,0.3s0.6,0,0.8,0c0.3,0,0.6,0.1,0.9,0.1s0.7,0,1-0.1
											c0.2,0,0.5,0.1,0.7,0.1s0.5-0.2,0.7-0.1c0.4,0,0.7-0.1,1.1-0.2c0.1,0,0.2-0.1,0.2-0.1c0.8,0.1,1.5-0.5,2.3-0.8
											c0.4-0.1,0.7-0.2,1-0.3C385.4,168.7,385.8,168.4,386.1,168.3z"/>
										<path class="st19" d="M394.9,184.1c0.8-0.2,1.6-0.4,2.4-0.3c0.6,0.1,1.1,0.4,1.4,0.9c0.3,0.6,0.4,1.2,0.5,1.8
											c0.1,0.9-0.2,1.7-0.5,2.5c-0.2,0.7-0.6,1.3-0.9,2c-0.8,1.6-1.9,2.9-3.2,4c-0.7,0.7-1.5,1.1-2.3,1.5
											c-0.5,0.3-1.1,0.3-1.6,0.4c-0.2,0-0.2-0.3-0.2-0.5c0-0.5-0.2-1-0.2-1.5s0-1,0-1.6c0.1-1.3,0.3-2.6,0.6-3.9
											c0,0.1,0,0.2,0,0.2c0,0.2,0,0.4,0,0.6c0.4-1.8,1.1-3.6,1.6-5.4c0-0.2,0.2-0.3,0.4-0.3c0.3-0.1,0.6-0.2,1-0.3
											C394.1,184.4,394.5,184.1,394.9,184.1z"/>
										<path class="st19" d="M358.4,185.2c0.4-0.3,0.8-0.5,1.4-0.6c0.6,0,1.2,0.1,1.8,0.3c0.3,0.2,0.8,0.2,1.1,0.4
											c0.6,0.3,1.2,0.5,1.8,0.8c0.2,0.3,0.1,0.8,0.2,1.1c0.5,1.8,0.7,3.7,1,5.6c0.1,0.7,0.2,1.4,0.4,2.1c0-0.2,0-0.5,0.1-0.7
											c0.1,0.7,0,1.5,0.1,2.2s0.1,1.4,0.1,2c0,0.1,0,0.3-0.1,0.4c0-0.2-0.1-0.5-0.1-0.7c-1.1-0.2-2.1-0.7-3-1.2
											c-0.5-0.3-1-0.6-1.5-1c-0.5-0.3-0.9-0.7-1.3-1.1c-0.4-0.4-0.8-0.9-1.1-1.4c-0.3-0.4-0.6-0.8-0.8-1.2
											c-0.4-0.8-0.8-1.5-1.1-2.3c-0.1-0.4-0.2-0.8-0.2-1.2c-0.1-0.7,0-1.5,0.2-2.2C357.5,186.1,357.8,185.6,358.4,185.2z"/>
										<path class="st34" d="M378.7,197c0.4,0,0.8-0.1,1.1-0.1c0.8-0.1,1.7,0,2.6,0.1c0.5,0.1,1,0.1,1.5,0.1
											c0.6,0.1,1.1,0.2,1.6,0.4c0.8,0.1,1.5,0.4,2.2,0.7c0.5,0.2,0.9,0.3,1.4,0.6c0.4,0.2,0.8,0.3,1.2,0.6
											c-0.2,1.1-0.4,2.2-0.9,3.2c-0.1,0.3-0.3,0.5-0.4,0.8c0,0,0,0-0.1-0.1c-0.3,0.4-0.8,0.8-1,1.2s-0.5,0.7-0.8,1
											s-0.6,0.7-0.8,1.1c-0.2,0.3-0.5,0.6-0.7,0.8c-0.5,0.7-0.9,1.3-1.4,1.9c-0.3,0.3-0.6,0.7-0.9,0.9c-0.3,0.3-0.7,0.6-1,0.8
											c-0.4,0.2-0.8,0.5-1.3,0.7c-0.3,0.1-0.7,0.1-0.9,0.1c-0.4,0-0.8,0-1.3-0.1c-0.7-0.1-1.4-0.2-2-0.6c-0.3-0.2-0.7-0.3-1-0.6
											c-0.6-0.4-1.1-0.8-1.7-1.3c-0.4-0.3-0.7-0.7-1.1-1c-0.3-0.3-0.7-0.5-0.9-0.8c-0.4-0.3-0.7-0.8-1.1-1.1
											c-0.6-0.5-1-1.2-1.6-1.7c-0.3-0.3-0.7-0.6-0.9-1c-0.2-0.3-0.4-0.6-0.7-0.8c-0.1,0-0.1-0.1-0.1-0.2
											c0.1-0.1,0.1-0.3,0.3-0.4c0.4-0.5,0.9-1.1,1.4-1.6c0.3-0.3,0.6-0.6,0.9-0.9c1.2-1.2,2.9-1.9,4.5-2.4
											c0.6-0.1,1.2-0.2,1.8-0.2C377.2,197.1,377.9,197.1,378.7,197z"/>
										<path class="st35" d="M366.8,201.5c0.1,0.2,0.2,0.4,0.4,0.6c0.1,0.2,0.3,0.4,0.4,0.6c0,0.1,0.1,0.2,0.1,0.2
											c0.3,0.2,0.5,0.5,0.7,0.8c0.3,0.4,0.6,0.7,0.9,1c0.5,0.6,1,1.2,1.6,1.7c0.4,0.3,0.7,0.8,1.1,1.1c0.3,0.3,0.7,0.6,0.9,0.8
											c0.4,0.3,0.7,0.7,1.1,1c0.6,0.4,1.1,0.8,1.7,1.3c0.3,0.2,0.7,0.4,1,0.6c0.6,0.3,1.3,0.5,2,0.6c0.4,0.1,0.8,0.1,1.3,0.1
											c0.3,0,0.7,0,0.9-0.1c0.5-0.2,0.8-0.4,1.3-0.7c0.3-0.3,0.8-0.5,1-0.8c0.3-0.3,0.6-0.6,0.9-0.9c0.5-0.6,1-1.2,1.4-1.9
											c0.2-0.3,0.4-0.6,0.7-0.8c0.3-0.3,0.5-0.8,0.8-1.1c0.2-0.4,0.6-0.7,0.8-1c0.3-0.5,0.7-0.8,1-1.2c0,0,0,0,0.1,0.1
											c0,0.6,0,1.2,0,1.7c-0.3,0.4-0.5,0.8-0.8,1.2c-0.4,0.5-0.6,1.1-0.9,1.6c-0.5,0.7-0.9,1.4-1.4,2.1c-0.5,0.7-1,1.4-1.6,2.1
											c-0.3,0.3-0.6,0.7-0.9,1c-0.4,0.4-0.9,0.8-1.4,1.2c-0.8,0.6-1.6,1.1-2.4,1.6c-1.4,0.8-2.9,1.5-4.4,2
											c-0.8,0.2-1.6,0.5-2.4,0.7c-0.4,0.1-0.8,0.2-1.3,0.2c-0.8,0-1.5,0-2.2-0.1c-0.5-0.1-0.9-0.5-1.3-0.8
											c-0.3-0.3-0.6-0.6-0.8-1c-0.2-0.3-0.4-0.6-0.5-0.8c0.1-0.6,0.3-1.2,0.4-1.8c0.1-0.7,0.3-1.4,0.4-2.1
											c0.2-1.2,0.2-2.4,0.1-3.5c-0.1-1.4-0.2-2.9-0.5-4.3c-0.1-0.8-0.3-1.5-0.4-2.3C366.7,201.6,366.8,201.5,366.8,201.5z"/>
										<path class="st8" d="M389,205c0.1,1,0.2,2.1,0.4,3.1c0.2,1.4,0.4,2.7,0.7,4c0.1,0.5,0.1,0.9,0.3,1.4
											c0.1,0.5,0.3,1,0.5,1.5c0.4,0.9,0.8,1.9,1.5,2.7c0.3,0.5,0.8,0.9,1.1,1.4c0.4,0.5,0.9,0.9,1.4,1.3
											c0.1,0.1,0.2,0.3,0.4,0.4c0.1,0.4-0.1,0.7-0.3,1c-0.4,0.6-0.8,1.2-1.3,1.8c-0.5,0.7-1,1.3-1.7,1.7c-0.5,0.4-1,0.8-1.6,1.1
											c-0.7,0.6-1.5,1.1-2.3,1.6c-0.6,0.4-1.2,0.6-1.9,0.8c-0.9,0.3-1.8,0.6-2.7,0.8c-1.7,0.4-3.5,0.8-5.3,0.8
											c-0.5,0.1-1,0-1.6,0.1c-0.5,0-1.1,0.1-1.6,0c-0.7,0-1.4-0.1-2-0.2c-0.6-0.1-1.2-0.2-1.8-0.4c-1-0.2-2-0.6-2.9-0.9
											c-1.1-0.4-2.2-1-3.2-1.6c-0.3-0.2-0.7-0.4-1-0.6c-0.6-0.4-1.1-0.8-1.6-1.3c-0.3-0.3-0.6-0.6-0.8-0.9
											c-0.1-0.3-0.3-0.6-0.4-0.9c-0.2,0-0.3-0.3-0.1-0.4c0.4-0.3,0.8-0.7,1.1-1.1c0.3-0.4,0.7-0.7,1-1.1
											c0.6-0.7,1.3-1.4,1.8-2.2c0.7-1,1.2-2.1,1.5-3.2c0.1,0.3,0.3,0.6,0.5,0.8c0.2,0.4,0.5,0.7,0.8,1c0.4,0.4,0.8,0.7,1.3,0.8
											c0.7,0.1,1.5,0.2,2.2,0.1c0.4,0,0.8-0.1,1.3-0.2c0.8-0.2,1.6-0.4,2.4-0.7c1.6-0.5,3-1.2,4.4-2c0.8-0.5,1.6-0.9,2.4-1.6
											c0.5-0.4,0.9-0.8,1.4-1.2c0.3-0.3,0.7-0.6,0.9-1c0.6-0.7,1.1-1.4,1.6-2.1c0.5-0.7,0.9-1.4,1.4-2.1
											c0.3-0.5,0.6-1.1,0.9-1.6C388.5,205.8,388.7,205.4,389,205z"/>
									</g>
									<g>
										<path class="st8" d="M382.6,199.7c0.2,0,0.6-0.2,0.8,0c0,0.1,0,0.2-0.1,0.3c-0.3,0.2-0.5,0.5-0.8,0.7
											c-0.4,0.4-0.9,0.7-1.4,0.9c-0.4,0.2-0.8,0.4-1.2,0.5c-0.8,0.2-1.6,0.3-2.4,0.4c-0.9,0-1.8-0.2-2.6-0.5
											c-0.4-0.2-0.8-0.4-1.3-0.4c-0.1,0-0.3-0.1-0.4-0.2c0.1-0.1,0.3-0.2,0.4-0.3c0.1-0.2,0.4-0.2,0.6-0.3
											c0.8-0.2,1.7-0.3,2.5-0.3c0.3,0,0.6-0.1,0.8-0.2c0.3-0.1,0.7-0.1,1-0.2c0.7-0.1,1.5-0.2,2.2-0.3c0.3,0,0.7,0,0.9,0
											C381.9,199.7,382.3,199.7,382.6,199.7z"/>
										<path class="st24" d="M378.6,177.7h0.1c0.4,1,0.4,2.1,0.5,3.2c0,0.4,0.1,0.8,0.1,1.1c-0.1,0-0.1-0.2-0.2-0.4
											c-0.1-0.9-0.2-1.8-0.4-2.6C378.8,178.6,378.6,178.2,378.6,177.7z"/>
										<path class="st24" d="M377.1,178.1l0.1,0.1c0.1,0.6,0.3,1.2,0.3,1.8c0,0.9,0.1,1.8,0.3,2.6h-0.1c-0.3-0.9-0.4-2-0.5-3
											C377.3,179.2,377,178.7,377.1,178.1z"/>
										<path class="st36" d="M370.6,181c0.5-0.2,1.1-0.3,1.6-0.3s1.1,0.1,1.5,0.4c0.1,0,0,0.2,0,0.2c-0.3-0.1-0.5-0.2-0.8-0.3
											c-0.7-0.1-1.3,0-1.9,0.1C370.9,181.1,370.7,181.1,370.6,181C370.6,181.1,370.6,181.1,370.6,181z"/>
										<path class="st33" d="M381,182.6c1.2-0.7,2.6-0.8,3.9-0.9c0.7-0.1,1.4,0,2.1,0c1.1,0,2.2,0,3.2,0.5
											c0.2,0.2,0.5,0.4,0.7,0.6c0,0-0.1,0.1-0.2,0.1c-0.4,0-0.9,0-1.3,0c-0.8,0-1.6,0-2.4,0.2c-0.7,0.1-1.3,0.4-1.9,0.6
											c-1.1,0.5-2.3,1-3.5,1.3c-0.4,0.1-0.8,0-1.2,0.3c-0.1,0-0.2,0-0.3,0c0-0.2,0-0.4-0.1-0.7c0.1-0.4,0-0.8,0.3-1.1
											C380.4,183.1,380.7,182.8,381,182.6z M369,182.7c-0.6,0.1-1.2,0.3-1.7,0.7c-0.5,0.3-0.9,0.7-1.4,1.1c-0.1,0-0.1,0.3,0,0.4
											c0.5,0,0.9-0.1,1.5-0.1c0.8,0,1.6-0.2,2.4-0.1c0.5,0,0.9,0,1.4,0.1c0.3,0,0.6,0.1,0.9,0.2c0.6,0.1,1.2,0.3,1.8,0.4
											c0.8,0.1,1.7,0.1,2.6,0c0.3,0,0.6,0,0.8,0c0,0,0-0.1,0.1-0.1c-0.1-0.1-0.2-0.1-0.4-0.1c0.1,0,0.2,0,0.3,0
											c0-0.5-0.1-0.9-0.2-1.3c0-0.1-0.1-0.3-0.2-0.4c0,0.2,0,0.4,0.1,0.5c-0.5-0.4-1-0.7-1.6-0.8c-0.6-0.2-1.3-0.3-1.9-0.4
											C372,182.4,370.5,182.3,369,182.7z M380,183.1c-0.2,0.4-0.3,0.8-0.3,1.2s0,0.8,0.2,1.1c0.1,0,0.3,0,0.5-0.1
											c-0.1,0-0.2,0-0.3,0c0-0.2,0-0.4-0.1-0.7c0-0.1,0-0.2,0-0.3c0-0.5,0.2-0.9,0.3-1.4C380.1,183,380,183,380,183.1z
											 M379.3,184c0,0.5,0,1,0.1,1.4c0.1,0,0.1-0.2,0.1-0.3c0-0.4,0-0.8,0-1.1c0-0.2,0-0.4,0-0.6
											C379.3,183.5,379.3,183.8,379.3,184z M377.3,183.8c0.1,0.4,0.1,0.7,0.1,1.1c0,0.1,0,0.2-0.1,0.3v0.1c0.1,0,0.1,0,0.2,0
											c0.1-0.4,0.1-0.8,0.1-1.3c0-0.2-0.1-0.4-0.3-0.5C377.3,183.6,377.3,183.7,377.3,183.8z M377.8,184c0,0.5,0,0.9,0,1.5h0.1
											c0-0.3,0.1-0.5,0.1-0.8S378,184.1,377.8,184z M378.9,184.1c0,0.2-0.1,0.4,0,0.7c0,0.2,0.1,0.5,0.3,0.7
											C379,185,379,184.6,378.9,184.1C379,184.1,378.9,184.1,378.9,184.1z M378.2,184.3c0,0.3,0,0.7,0,1h0.1c0-0.3,0.1-0.7,0-1
											C378.3,184.3,378.2,184.3,378.2,184.3z"/>
										<path class="st37" d="M386.2,185.2c0.2,0,0.4,0.1,0.5,0.3c0.2,0.4,0.1,0.8,0,1.2c0,0.2-0.1,0.4-0.3,0.5
											c-0.1,0-0.3,0-0.5-0.1c-0.3-0.4-0.4-0.9-0.2-1.4C385.8,185.5,386,185.3,386.2,185.2z"/>
										<path class="st38" d="M359,186c0-0.1,0.1-0.3,0.3-0.3c0.6,0,1.1,0.1,1.6,0.3c0.4,0.1,0.8,0.4,1.1,0.7h-0.1
											c-0.3-0.1-0.5-0.4-0.8-0.5c-0.6-0.2-1.1-0.3-1.7-0.3C359.2,186,359.1,186,359,186z"/>
										<path class="st37" d="M370.7,185.8c0.2-0.1,0.4,0,0.5,0.1c0.1,0.2,0.2,0.5,0.2,0.7c0,0.3,0,0.6-0.1,0.8s-0.5,0.2-0.7,0
											c-0.3-0.3-0.4-0.8-0.3-1.3C370.5,186.1,370.5,185.9,370.7,185.8z"/>
										<path class="st39" d="M385.6,187.6c0.7,0,1.3,0,2-0.2v0.1c-0.4,0.2-0.9,0.3-1.4,0.4c-0.4,0-0.8,0.1-1.1-0.1
											c0,0,0-0.1,0-0.2C385.2,187.5,385.4,187.6,385.6,187.6z"/>
										<path class="st40" d="M370,188.1c0.1,0,0.2,0,0.4,0c0.6,0.2,1.2,0.2,1.8,0.1c0.1,0,0.1,0,0.2,0c-0.1,0.3-0.5,0.3-0.7,0.4
											c-0.5,0-1.1,0.1-1.6-0.2C370,188.3,370,188.2,370,188.1z"/>
										<path class="st41" d="M369.4,189.2c0.5,0,1.1,0.2,1.6,0.2c0.4,0,0.8,0,1.2,0v0.1c-0.5,0.2-1,0.2-1.5,0.2
											c-0.4,0-0.8,0-1.2-0.1C369.3,189.5,369.4,189.3,369.4,189.2z"/>
										<path class="st19" d="M386.3,189.4c1-0.1,2,0.3,2.6,1c0.5,0.6,0.6,1.5,0.5,2.2c-0.1,0.5-0.1,0.9-0.3,1.4s-0.4,0.9-0.8,1.3
											c-0.7,0.7-1.8,1-2.8,0.6c-0.9-0.3-1.6-0.9-2-1.8c-0.1-0.4-0.1-0.8-0.1-1.2c0-0.3,0.2-0.7,0.3-1c0.1-0.8,0.7-1.5,1.4-2
											C385.3,189.7,385.8,189.5,386.3,189.4z"/>
										<path class="st42" d="M380.3,190.6C380.4,190.6,380.4,190.5,380.3,190.6c0.3,0.1,0.3,0.4,0.5,0.6c0.2,0.4,0.5,0.8,0.7,1.2
											c0.2,0.5,0.4,1.1,0.5,1.6c0,0.4,0,0.8-0.2,1.1c-0.1,0.1-0.2,0.3-0.4,0.3c-0.1,0-0.1-0.1-0.1-0.2c0.1-0.1,0.3-0.3,0.4-0.5
											c0.1-0.5,0-1.1-0.3-1.6c-0.2-0.4-0.3-0.8-0.5-1.2C380.6,191.5,380.4,191.1,380.3,190.6z"/>
										<path class="st19" d="M370.1,190.7c0.5-0.1,1.1,0,1.6,0.3c0.7,0.4,1.2,1.1,1.5,1.9c0.3,1.2,0.1,2.5-0.6,3.5
											c-0.4,0.5-1,0.8-1.7,1c-0.4,0.1-0.8,0.1-1.1,0c-0.8-0.2-1.6-0.8-1.9-1.5c-0.5-1.1-0.5-2.4,0.1-3.4
											C368.2,191.6,369.1,190.9,370.1,190.7z"/>
										<path class="st24" d="M375.5,191.5c0-0.2,0-0.4,0.1-0.5c0.1,0.6,0,1.2-0.2,1.7c-0.1,0.5-0.4,0.9-0.5,1.3
											c-0.2,0.6-0.3,1.2,0,1.7c0.1,0.3,0.5,0.4,0.8,0.4c0.2,0,0.4-0.1,0.6-0.1c-0.1,0-0.1,0-0.2,0.1c0,0,0.1,0.1,0.2,0.2
											c-0.4,0-0.8,0.2-1.3,0c-0.4-0.3-0.6-0.8-0.6-1.3c0-0.6,0.1-1.1,0.4-1.7C375.1,192.7,375.4,192.1,375.5,191.5z"/>
										<path class="st43" d="M378.1,191.6c0,0,0.1,0,0.2,0c0.1,0.2,0.1,0.5,0.1,0.8c0,0.8,0,1.5,0,2.2h-0.1
											c-0.1-0.4,0-0.9-0.1-1.3C378.1,192.7,378,192.1,378.1,191.6z"/>
										<path class="st44" d="M388.4,191.6c0.1,0.3,0.1,0.8,0,1.1C388.4,192.3,388.4,192,388.4,191.6z"/>
										<path class="st45" d="M371.3,191.4c0.3,0.2,0.6,0.5,0.7,0.8C371.6,192.1,371.4,191.8,371.3,191.4z"/>
										<path class="st15" d="M396.2,185.8c0.3-0.2,0.7-0.6,1.1-0.5v0.1c-0.7,0.5-1.4,0.9-2,1.6c-0.7,0.8-1.3,1.6-1.7,2.5
											c-0.6,1.3-1.2,2.6-1.4,4c0,0-0.1,0-0.2,0c0-0.5,0.1-0.9,0.2-1.4c0.3-1,0.7-2,1.2-3C394,187.8,395,186.6,396.2,185.8z
											 M359.5,187.5c0,0,0,0.1,0,0.2c0.3,0.2,0.8,0.3,1,0.6c0.7,0.5,1.1,1.2,1.6,1.9c0.7,1.2,1.3,2.4,1.8,3.6c0-0.1,0-0.2,0-0.4
											s-0.1-0.5-0.2-0.7c-0.5-1.1-1-2.3-1.6-3.3c-0.5-0.8-1-1.5-1.9-1.8C360,187.6,359.8,187.5,359.5,187.5z M364,193.5
											c0,0.1,0,0.2,0,0.4c0,0.1,0.1,0.2,0.2,0.3C364.1,193.9,364,193.7,364,193.5z"/>
										<path class="st46" d="M380.1,195.8c0.3-0.2,0.7-0.4,1.1-0.5c0,0,0.1,0.1,0.2,0.1c0,0,0,0.1-0.1,0.1
											c-0.3,0.1-0.6,0.2-0.9,0.4c-0.4,0.3-0.9,0.5-1.5,0.6c-0.8,0.1-1.5,0-2.2-0.1c-0.1,0-0.2,0-0.4-0.1c-0.1,0-0.1-0.1-0.2-0.2
											c0.1,0,0.1-0.1,0.2-0.1c0.8,0.1,1.5,0.2,2.3,0.2C379.1,196.2,379.6,196.1,380.1,195.8z"/>
										<path class="st47" d="M381.8,199.5c0.5,0,0.9-0.2,1.5-0.1c0,0,0,0.1,0.1,0.1c-0.1,0-0.2,0-0.4,0.1
											c-0.6,0.1-1.3,0.3-1.9,0.3c-1,0.1-2.1,0-3.1,0.2c-0.7,0.2-1.3,0.4-2,0.4c-0.5,0-0.9,0-1.4,0.1s-0.9,0.4-1.4,0.6
											c-0.1,0-0.2,0.1-0.4,0.1c0.3-0.4,0.7-0.6,1.1-0.8c0.5-0.2,1-0.3,1.5-0.3c0.7,0,1.4-0.1,2-0.3s1.2-0.3,1.8-0.3
											C380.2,199.7,381,199.7,381.8,199.5z"/>
										<path class="st48" d="M377,201.6c0.9-0.2,1.8-0.3,2.7-0.4c0,0,0,0.1,0,0.2c-0.5,0.2-1,0.2-1.5,0.4
											c-0.4,0.1-0.8,0.2-1.2,0.1C377,201.7,377,201.7,377,201.6z"/>
										<path class="st24" d="M380.3,213.3c0,0,0.1,0,0.2,0c0.3,0.5,0.4,1,0.5,1.6c0.1,0.8,0.2,1.6,0.1,2.4c0,0.3-0.1,0.6-0.2,0.8
											c0,0-0.1,0-0.2,0c0.1-0.6,0.1-1.1,0.1-1.6c-0.1-0.9-0.3-1.8-0.5-2.7C380.3,213.5,380.3,213.4,380.3,213.3z"/>
										<path class="st24" d="M376.5,213.9h0.1c0.1,0.6,0.1,1.1,0.1,1.7c0,0.8,0.3,1.6,0.7,2.3c0.1,0.2,0.3,0.4,0.4,0.7
											c-0.2,0-0.3-0.1-0.4-0.3c-0.4-0.5-0.7-1.1-0.9-1.8c-0.2-0.6-0.2-1.3-0.1-1.9C376.4,214.4,376.4,214.2,376.5,213.9z"/>
										<path class="st49" d="M402.2,247.9c0.1-0.2,0.2-0.5,0.3-0.8c0.2-0.5,0.4-1,0.6-1.6c0.6-1.6,1.3-3.2,1.9-4.9
											c0.5-1.3,0.9-2.6,1.3-4c0.1-0.6,0.3-1.1,0.4-1.6h-0.1c-0.1,0.4-0.3,0.8-0.4,1.2c-0.3,0.8-0.6,1.6-0.8,2.5
											c-0.8,2.5-1.8,4.9-2.6,7.4c-0.1,0.2-0.2,0.5-0.2,0.7c-0.1,0.2-0.2,0.5-0.3,0.8c-0.1,0.3-0.2,0.5-0.3,0.8
											C402,248.3,402.1,248.1,402.2,247.9z"/>
										<path class="st49" d="M400.8,250.9c0-0.2,0-0.4,0-0.7c0-1,0.1-2,0.3-3c0.2-1.3,0.7-2.5,0.9-3.7c0.1-0.7,0.2-1.4,0.1-2.1
											c0,0-0.1,0-0.2,0c0,1.1-0.3,2.2-0.6,3.2c-0.5,1.5-0.7,3-0.8,4.5c0,0.6,0,1.1,0.1,1.7C400.6,250.9,400.7,250.9,400.8,250.9
											z"/>
										<path class="st49" d="M403.5,249.2c0.5-1.4,0.9-2.7,1.3-4.1c0,0-0.1,0-0.2-0.1c-0.2,0.2-0.3,0.5-0.4,0.8
											c-0.6,1.6-1.1,3.2-1.5,4.8c0,0.2,0,0.5,0,0.8c0,0,0.1,0,0.2,0C403,250.5,403.3,249.8,403.5,249.2z"/>
										<path class="st49" d="M395.1,232.5c0.5-0.5,1-0.9,1.5-1.6c0.2-0.4,0.5-0.8,0.6-1.2h-0.1c-0.1,0.1-0.2,0.3-0.3,0.5
											c-0.6,1-1.4,1.8-2.2,2.6c-0.5,0.5-1,1-1.5,1.4c-0.2,0.1-0.3,0.3-0.5,0.4c-0.1,0.1-0.3,0.2-0.4,0.5c0.1,0,0.2-0.1,0.4-0.2
											c0.2-0.2,0.5-0.4,0.7-0.6C393.8,233.8,394.5,233.2,395.1,232.5z"/>
										<path class="st49" d="M372.1,241.1c-0.9-0.4-1.6-1.1-2.4-1.8c-0.5-0.5-1-1-1.6-1.5c-0.6-0.4-1.3-0.7-1.9-1
											c-0.1-0.1-0.3-0.1-0.5-0.1c0,0.1,0.1,0.1,0.1,0.2c0.6,0.4,1.3,0.7,2,1.1c0.4,0.2,0.7,0.5,1,0.8c0.9,0.8,1.7,1.6,2.7,2.2
											c0.3,0.2,0.6,0.4,1,0.4C372.4,241.2,372.2,241.2,372.1,241.1z"/>
										<path class="st49" d="M370,244.5c0.2,0.2,0.4,0.4,0.7,0.7c0.7,0.8,1.6,1.3,2.4,1.9c0.7,0.4,1.4,0.7,2.1,0.9v-0.1
											c-0.4-0.2-0.8-0.3-1.1-0.5c-0.8-0.4-1.6-0.9-2.3-1.5c-0.5-0.4-0.8-0.8-1.4-1.2C370.3,244.5,370.1,244.3,370,244.5z"/>
										<path class="st49" d="M394.2,240.6c-0.2,0.3-0.4,0.5-0.6,0.8c0.1,0,0.2,0,0.2-0.1c0.3-0.3,0.6-0.8,0.9-1.1
											c0.6-0.8,1.3-1.7,1.9-2.5c0.7-0.8,1.4-1.6,1.9-2.4c0.1-0.2,0.3-0.5,0.4-0.7c-0.2,0-0.3,0.3-0.5,0.4
											c-0.7,0.9-1.4,1.7-2.1,2.7C395.6,238.6,394.9,239.6,394.2,240.6z"/>
										<path class="st49" d="M352.2,243c0.8,1.5,1.6,3.1,2.5,4.5h0.1c-0.8-1.4-1.5-2.8-2.1-4.1c-0.4-0.9-0.9-1.9-1.5-2.7h-0.1
											c0,0.1,0,0.2,0.1,0.3C351.5,241.7,351.8,242.4,352.2,243z"/>
										<path class="st49" d="M348.5,240.7c0.6,0.8,1,1.7,1.5,2.7s1,2,1.6,2.9c0.2,0.3,0.4,0.6,0.6,0.8c0.2,0.3,0.5,0.6,0.8,0.8
											c0-0.2-0.2-0.4-0.4-0.6c-0.3-0.3-0.6-0.7-0.8-1.1c-0.6-0.8-1-1.8-1.4-2.7s-0.7-1.8-1.2-2.6c-0.4-0.6-0.9-1.1-1.2-1.7
											c-0.1-0.1-0.2-0.3-0.3-0.4c0,0.1,0,0.2,0,0.3C347.7,239.7,348.1,240.2,348.5,240.7z"/>
										<path class="st49" d="M354.4,249.5c0,0.3,0.1,0.5,0.2,0.8c0.4,0.9,0.7,1.8,1,2.8h0.1l0,0c-0.1-0.7-0.4-1.4-0.6-2
											c-0.2-0.5-0.3-1-0.6-1.4C354.5,249.5,354.4,249.5,354.4,249.5z"/>
										<path class="st49" d="M359.1,225.9c0.4,0.3,0.6,0.8,0.9,1.1c0.4,0.4,0.7,0.8,1.1,1.2s0.9,0.7,1.4,1.1
											c0.8,0.6,1.6,1.1,2.4,1.7c0.5,0.3,1,0.7,1.6,1c1.4,0.8,2.9,1.1,4.4,1.6c0.3,0,0.6,0.2,0.8,0.2c0.3,0.1,0.7,0.2,1,0.3
											c1.3,0.2,2.6,0.1,3.9,0.1c1.1-0.1,2.3,0,3.4-0.3c1-0.2,2-0.4,3-0.7c1.4-0.5,2.8-1,4.2-1.6c0.7-0.3,1.3-0.7,1.9-0.9
											c0.8-0.4,1.5-0.9,2.3-1.4c0.6-0.4,1.2-0.8,1.7-1.3c0.5-0.4,1-0.8,1.5-1.3c0.6-0.6,1.2-1.1,1.8-1.7
											c0.4-0.5,0.8-1.1,1.2-1.6c0.2-0.3,0.5-0.6,0.6-0.9c-0.3,0-0.5,0.3-0.8,0.5c-0.6,0.7-1.1,1.5-1.7,2.1
											c-0.9,0.8-1.8,1.7-2.8,2.4c-1.3,1-2.6,2.2-4.1,2.9c-0.6,0.3-1.1,0.6-1.7,0.8c-1.5,0.6-3,1.1-4.4,1.6
											c-1.6,0.4-3.1,0.8-4.7,0.8c-0.7,0-1.3,0.1-2,0.1c-1.3,0-2.6,0-4-0.3c-0.6-0.1-1.1-0.2-1.6-0.5c-1.2-0.4-2.4-0.8-3.4-1.3
											c-0.5-0.2-0.9-0.6-1.4-0.8c-0.6-0.3-1.1-0.7-1.6-1.1c-0.5-0.3-0.9-0.7-1.4-1c-0.5-0.4-1-0.6-1.4-1.1
											c-0.3-0.4-0.7-0.8-1.1-1.2c-0.2-0.4-0.5-0.7-0.8-1c-0.1-0.1-0.3-0.3-0.6-0.2C358.9,225.6,359,225.7,359.1,225.9z"/>
									</g>
								</g>
							</g>
						</g>
					</g>
				</g>
			</g>
		</g>
	</g>
</g>
<g>
	<g>
		<g>
			<defs>
				<circle id="SVGID_00000072965110837915718380000009406442962259156892_" cx="538.8" cy="192.5" r="42.7"/>
			</defs>
			<clipPath id="SVGID_00000016783038721717905300000017849453646376887424_">
				<use xlink:href="#SVGID_00000072965110837915718380000009406442962259156892_"  style="overflow:visible;"/>
			</clipPath>
			<g style="clip-path:url(#SVGID_00000016783038721717905300000017849453646376887424_);">
				<g>
					<g>
						<rect id="SVGID_4_" x="496" y="149.8" class="st51" width="85.5" height="85.5"/>
					</g>
					<g>
						<g>
							<g>
								<defs>
									<rect id="SVGID_00000163769034842117300980000011291118640564913803_" x="496" y="149.8" width="85.5" height="85.5"/>
								</defs>
								<clipPath id="SVGID_00000116922373988107265300000009087708052918013330_">
									<use xlink:href="#SVGID_00000163769034842117300980000011291118640564913803_"  style="overflow:visible;"/>
								</clipPath>
								<g style="clip-path:url(#SVGID_00000116922373988107265300000009087708052918013330_);">
									<g>
										<g>
											<path class="st53" d="M577,240.5L577,240.5c-0.3-1.6-0.9-3.2-1.7-4.6c-0.8-1.5-1.7-2.8-2.8-4c-1-1.2-2.1-2.2-3.3-3.2
												c-0.4-0.4-0.9-0.7-1.4-1c-1.3-1.5-3-2.8-4.7-3.8c-1.3-0.8-2.5-1.8-3.6-2.8c-0.9-0.9-2-1.6-3-2.5
												c-0.9-0.8-1.7-1.9-2.8-2.5c-1.3-0.8-2.5-1.7-3.7-2.5c-0.8-0.6-1.8-0.8-2.8-0.9c-2-0.3-4.1-0.3-6.1-0.3
												c-3.8,0.1-7.7,0.7-11.5,1.4c-0.7,0.1-1.5,0.3-2.2,0.1c-0.6,0-1.1,0.2-1.7,0.4c-0.7,0.1-1.3,0.4-1.8,0.8
												c-0.5,0.4-0.9,0.9-1.3,1.4c-1,1-2.2,2-3.4,2.9c-0.9,0.7-1.9,1.4-2.8,2.1c-1.3,1.1-2.5,2.4-3.8,3.4
												c-1.4,0.9-2.8,1.9-4.2,2.8c-0.1,0.1-0.2,0.1-0.3,0.2c-0.1,0.1-0.3,0.1-0.4,0.2c-0.7,0.3-1.4,0.7-2,1.1
												c-1.4,0.9-2.7,1.9-3.8,3.1c-1.2,1.2-2.3,2.7-3.1,4.1c-0.8,1.3-1.4,2.8-2,4.2L577,240.5L577,240.5z"/>
											<path class="st33" d="M545.8,164.3c0.9-0.3,1.9-0.5,2.9-0.5c0.5,0,1.1,0.1,1.4,0.6c0.2,0.4,0,0.9-0.2,1.3
												c-0.6,0.8-1.5,1.3-2.2,1.9c0.8-0.5,1.7-1,2.8-1.1c0.4,0,0.9,0,1.2,0.2s0.3,0.8,0.2,1.1c-0.2,0.5-0.6,0.9-0.9,1.3
												c0.6-0.3,1.3-0.6,2-0.7c0.2,0,0.6,0,0.7,0.2c0,0.4-0.2,0.7-0.5,1c-0.8,0.9-2,1.5-3.2,1.8c0.4,0.4,0.9,0.8,1.4,1.3
												c1.3,1.3,2.1,2.9,2.6,4.7c0.3,0.9,0.5,1.9,0.4,2.8c0,1.1-0.1,2.2-0.3,3.2c-0.1,0.7-0.4,1.3-0.7,2
												c-0.2,0.4-0.2,0.8-0.3,1.3c-0.1,0.8-0.3,1.6-0.7,2.3c-0.1,0.4-0.4,0.7-0.7,1c-1,1-2.2,2-3.5,2.7
												c-1.1,0.6-2.4,0.9-3.7,0.9c-1.5,0-3,0-4.6,0c-0.9,0-1.9-0.1-2.8-0.2c-0.9-0.1-1.9-0.3-2.9-0.4c-0.9-0.1-1.8-0.1-2.7-0.1
												c-0.8,0-1.7,0-2.5-0.2c-0.7-0.2-1.1-0.8-1.5-1.3c-1.3-1.9-2.1-4.2-2.7-6.5c-0.3-1.3-0.4-2.6-0.3-3.9
												c0.1-1.5,0.1-3,0.6-4.4c0.3-0.9,0.7-1.9,1.2-2.7c0.3-0.5,0.7-1,1.2-1.4c0.7-0.4,1.4-0.9,2.2-0.8c0-0.7,0.1-1.3,0.4-1.9
												c0.3-0.7,0.6-1.4,1-1.9c0.4-0.4,0.9-0.8,1.5-1c0.7-0.3,1.4-0.6,2.1-0.6c1.6,0,3.3,0,4.9-0.1c0.9-0.1,1.9-0.1,2.8-0.4
												C543.7,165.2,544.8,164.7,545.8,164.3z"/>
										</g>
										<g>
											<path class="st8" d="M536.2,170.8c2.1-0.8,4.5-1.3,6.7-1.3c0.6,0.1,1.2,0.1,1.8,0.4c0.3,0.1,0.7,0.3,0.9,0.4
												c0.7,0.4,1.4,0.7,2.1,0.9c0.3,0.1,0.7,0.2,0.9,0.3c0.4,0.1,0.7,0.4,0.9,0.6c0,0.6,0,1.2,0,1.9c-0.1,0.9,0,1.9,0.1,2.9
												c0.1,1.4,0.4,2.8,0.6,4.2c0.1,0.6,0.2,1.3,0.4,1.9c0,1.1,0.5,2.1,0.4,3.2c0,0.9-0.5,1.8-0.5,2.7v0.1
												c-0.5,0.8-0.7,1.8-0.9,2.7c-0.3,1.1-0.6,2.3-0.9,3.4c-0.2,0.6-0.4,1.2-0.7,1.7c-0.1,0.1-0.1,0.3-0.2,0.5
												c-0.5,0.2-0.9,0.6-1.3,0.8c-0.6,0.3-1.2,0.5-1.8,0.8c-1.2,0.4-2.5,0.2-3.8,0.2c-1.3-0.1-2.6,0.1-3.9,0.1
												c-1.4,0-2.9,0-4.3-0.5c-1.3-0.5-2.5-1.2-3.4-2.1c-0.4-0.5-0.9-1-1.2-1.6c0.1,0.5,0.3,0.9,0.5,1.4
												c0.3,0.7,0.6,1.4,0.9,2.1c0.3,0.6,0.7,1.1,0.9,1.7c0.3,0.5,0.8,1,1,1.6s0.6,1.1,0.8,1.7c0.3,0.6,0.7,1.2,1.3,1.4
												c0.7,0.2,1.3-0.1,1.9-0.3c0.8-0.2,1.5-0.2,2.3-0.2c1.4,0.1,2.7,0.8,4.1,0.9c0.3,0.1,0.6,0.3,0.9,0.3
												c1.2,0.3,2.3,0.7,3.4,1.1c0.5,0.1,1,0.4,1.6,0.5c0-0.3,0-0.6,0-0.8c0,1.1,0,2.3,0.1,3.4c0.2,1.7,0.1,3.5,0.2,5.2
												c0.2,1-0.1,2.1-0.3,3.1c-0.3,1.2-0.7,2.5-1.3,3.6c-0.4,0.8-0.8,1.5-1.3,2.2c-0.4,0.6-0.9,1.2-1.4,1.7
												c-0.5,0.6-1,1-1.6,1.5s-1.2,1-1.8,1.6c-0.5,0.4-1,0.8-1.7,1c-0.4,0.2-0.9,0.5-1.4,0.6c-0.4,0.1-0.8,0-1.2,0
												c-0.8-0.1-1.5-0.4-2.1-0.9c-0.6-0.4-1.2-0.9-1.7-1.4c-1-1.1-2-2.2-2.8-3.5c-0.6-0.8-1-1.6-1.6-2.3
												c-0.4-0.8-0.9-1.5-1.3-2.3c-0.5-1.4-0.3-3-0.2-4.5c0-0.9,0.1-1.7,0.3-2.5c0.3-1.7,0.3-3.5,0.5-5.2s0.3-3.5,0.3-5.2
												c-0.1-1.5,0.1-3,0-4.5c0.1-0.4,0.1-0.8,0.1-1.2c0.2-1.9,0.1-3.8,0.1-5.7c0-0.5,0-1-0.2-1.5c0.1-0.5,0-1.1,0-1.6
												c-0.1-1.1,0-2.2,0.2-3.3c0.4-1.1,0.7-2.3,0.8-3.5c0.3-1.6,0.3-3.1,0.5-4.7c0.1-0.7,0.3-1.4,0.5-2.1
												c0-0.2,0.1-0.4,0.4-0.5c0.7-0.3,1.3-0.7,1.9-1.1C533.4,171.8,534.8,171.2,536.2,170.8z"/>
											<path class="st19" d="M553.2,185.6c0.8,0,1.6,0.4,2,1.1c0.5,0.8,0.6,1.8,0.6,2.7c0,0.8-0.3,1.5-0.5,2.2
												c-0.2,0.8-0.5,1.6-0.9,2.2c-0.7,1.1-1.5,2.1-2.6,2.8c-0.8,0.5-1.9,0.9-2.8,0.6c-0.3,0-0.5-0.1-0.8-0.2h-0.1
												c0-0.2,0.1-0.3,0.2-0.5c0.3-0.5,0.5-1.1,0.7-1.7c0.3-1.1,0.6-2.2,0.9-3.4c0.2-0.9,0.4-1.9,0.9-2.7c0,0,0,0,0.1,0
												c0.4-0.6,0.8-1.2,1.2-1.8C552.4,186.6,552.8,186.1,553.2,185.6z"/>
											<path class="st19" d="M524.3,187c0.5-0.2,1-0.1,1.5,0.2c0.9,0.5,1.4,1.4,1.9,2.3c0.1,0.5,0.1,1,0.2,1.5
												c0,1.9,0.1,3.8-0.1,5.7c0,0.4,0,0.8-0.1,1.2c-0.3-0.1-0.7,0-0.9-0.1c-0.9-0.3-1.6-0.9-2.2-1.6c-0.9-1-1.4-2.3-1.8-3.6
												c-0.4-1.1-0.3-2.4,0.1-3.6C523.1,188.2,523.5,187.3,524.3,187z"/>
											<path class="st35" d="M528.3,194.9c0.4,0.5,0.8,1,1.2,1.6c0.9,0.9,2.1,1.6,3.4,2.1c1.4,0.5,2.8,0.5,4.3,0.5
												c1.3,0,2.6-0.1,3.9-0.1c1.3,0,2.6,0.2,3.8-0.2c0.6-0.2,1.2-0.4,1.8-0.8c0.5-0.2,0.9-0.7,1.3-0.8h0.1c0,0.5,0,1,0,1.5
												c0,0.4-0.1,0.8-0.3,1.2c0.1,0,0.2,0,0.4,0c-0.1,2.1,0,4.3,0,6.5c0,0.3,0,0.6,0,0.8c-0.5-0.1-1-0.4-1.6-0.5
												c-1.1-0.4-2.3-0.8-3.4-1.1c-0.3-0.1-0.6-0.3-0.9-0.3c-1.4-0.2-2.7-0.9-4.1-0.9c-0.8,0-1.6,0-2.3,0.2
												c-0.6,0.2-1.3,0.5-1.9,0.3c-0.6-0.2-1-0.8-1.3-1.4c-0.3-0.6-0.6-1.1-0.8-1.7c-0.2-0.6-0.7-1-1-1.6s-0.7-1.1-0.9-1.7
												c-0.4-0.7-0.6-1.4-0.9-2.1C528.6,195.8,528.4,195.4,528.3,194.9z"/>
										</g>
										<g>
											<path class="st35" d="M541,179.4c0.3-0.5,0.7-1.1,1.4-1.2v0.1l0.1,0.1c0-0.1,0-0.2,0-0.2c0.5-0.1,0.9,0,1.4,0
												c-0.5,0.4-0.9,0.8-1.3,1.3c-0.4,0.6-0.7,1.2-0.8,1.9c0,0.3-0.1,0.7,0,0.9c0.3,0.5,0.7,1,0.5,1.6
												c-0.1,0.2-0.3,0.4-0.5,0.4c0-0.2,0.3-0.4,0.3-0.6c0-0.5-0.3-0.9-0.5-1.3c-0.2-0.5-0.6-0.9-0.8-1.3
												C540.8,180.6,540.7,180,541,179.4z"/>
											<path class="st35" d="M547.8,199.8c0.2-0.4,0.3-0.8,0.3-1.2c0,0.4,0,0.8,0,1.2C548.1,199.8,547.9,199.8,547.8,199.8z"/>
											<path class="st54" d="M545,166c0.9-0.4,1.9-0.9,2.9-1.1c-0.3,0.2-0.8,0.4-1.1,0.6c-0.6,0.3-1.1,0.6-1.7,0.8
												c-0.9,0.3-1.8,0.5-2.7,0.7c-0.7,0.1-1.4,0.2-2,0.1C541.9,166.8,543.5,166.6,545,166z"/>
											<path class="st54" d="M547.8,166c0.1,0,0.2-0.1,0.4-0.1c-0.6,0.5-1.3,0.8-1.9,1c-0.6,0.2-1.3,0.5-2,0.4
												C545.5,167,546.7,166.6,547.8,166z"/>
											<path class="st54" d="M532.8,168.6c0.8-0.7,1.6-1.3,2.6-1.6h0.1c-0.9,0.4-1.7,0.9-2.5,1.6c-0.6,0.5-1,1.2-1.2,1.9
												c-0.1,0.4-0.1,0.8-0.3,1.1c0-0.2,0-0.5,0-0.7C531.7,170,532.2,169.2,532.8,168.6z"/>
											<path class="st54" d="M535.4,168.4c0.7-0.4,1.4-0.8,2.1-0.9c-0.1,0.1-0.3,0.2-0.5,0.3c-0.8,0.3-1.6,0.8-2.3,1.3
												c-0.8,0.6-1.4,1.4-1.8,2.2c0-0.6,0.3-1,0.7-1.5C534.1,169.2,534.8,168.8,535.4,168.4z"/>
											<path class="st54" d="M547,168.7c1.1-0.4,2.2-0.8,3.2-1.3c-0.2,0.4-0.7,0.5-1,0.7c-0.6,0.2-1.1,0.5-1.7,0.7
												C547.4,168.8,547.2,168.8,547,168.7z"/>
											<path class="st54" d="M539.4,168.4c0.9-0.1,1.8-0.2,2.7-0.1c-0.1,0.1-0.3,0.1-0.5,0.1c-1.1,0-2.1,0.2-3.2,0.5
												c-0.5,0.1-0.9,0.4-1.3,0.6C537.7,168.8,538.6,168.5,539.4,168.4z"/>
											<path class="st54" d="M527.8,173.6c0.2-0.1,0.4-0.3,0.6-0.3c-0.1,0.3-0.4,0.4-0.6,0.6c-0.9,0.9-1.3,2.2-1.7,3.4
												c-0.2,0.7-0.3,1.3-0.3,2c-0.1-1.2,0.2-2.4,0.7-3.5C526.8,175.1,527.2,174.3,527.8,173.6z"/>
											<path class="st54" d="M550.6,173.4c0.1,0.1,0.3,0.3,0.3,0.5c0.2,0.9,0.4,1.7,0.4,2.6c0,1-0.1,2-0.3,3
												c0,0.3-0.1,0.5-0.2,0.8c0.3-1.3,0.4-2.6,0.3-3.9C551.1,175.4,550.8,174.4,550.6,173.4z"/>
											<path class="st55" d="M533.6,174.6c0.7-0.4,1.6-0.4,2.3-0.3c-0.4,0-0.9,0-1.3,0.1C534.4,174.5,534,174.6,533.6,174.6z"/>
											<path class="st54" d="M528.3,174.9c0.1-0.2,0.4-0.4,0.6-0.5c-0.2,0.4-0.5,0.7-0.7,1c-0.5,1.1-0.9,2.2-1.1,3.4
												c-0.1,0.5-0.1,0.9-0.1,1.5c-0.2-0.4-0.1-0.9-0.1-1.3c0.1-0.8,0.4-1.6,0.6-2.4C527.7,176.1,527.9,175.5,528.3,174.9z"/>
											<path class="st54" d="M552,174.6c0.2,0.2,0.3,0.5,0.4,0.8c0.3,1.1,0.2,2.4,0.2,3.6c0,0.6,0,1.1-0.1,1.6
												c0,0.3-0.1,0.6-0.3,0.8c0.3-1,0.3-2.1,0.3-3.2C552.4,176.9,552.2,175.7,552,174.6z"/>
											<path class="st56" d="M534.9,175.2c0.7-0.1,1.5-0.2,2.2,0.1c0.7,0.4,1.1,1.2,0.9,2c-0.1,0-0.3,0-0.5,0
												c-0.6-0.1-1.3-0.2-1.9-0.2c-1.1,0.1-2.3,0.1-3.4,0.5c-0.8,0.2-1.5,0.7-2.2,1c0-0.3,0.1-0.5,0.2-0.7
												c0.5-0.8,1.1-1.4,1.9-1.8C533,175.7,533.9,175.4,534.9,175.2z"/>
											<path class="st56" d="M541.6,175.9c0.4-0.3,1-0.4,1.6-0.3c1.7,0.2,3.3,0.8,4.7,1.6c0.4,0.2,0.7,0.5,1,0.9
												c-0.1,0-0.2,0-0.3,0c-1.8-0.3-3.5-0.8-5.3-0.9c-0.7,0-1.4,0-2.1,0.1c-0.1,0-0.3,0-0.4-0.1
												C541,176.8,541.2,176.3,541.6,175.9z"/>
											<path class="st37" d="M532.6,179.8c0.2-0.1,0.5-0.1,0.5,0.2c0.1,0.4,0.1,0.9-0.1,1.2c-0.2,0.2-0.6,0.1-0.6-0.2
												C532.4,180.6,532.2,180,532.6,179.8z"/>
											<path class="st54" d="M527.4,181.4c0.1-0.5,0.2-1.1,0.6-1.6c-0.3,1.2-0.7,2.4-0.8,3.7
												C527.1,182.8,527.3,182.1,527.4,181.4z"/>
											<path class="st54" d="M553.6,179.7c0.5,0.9,0.2,1.9-0.1,2.8c-0.3,0.8-0.4,1.7-0.9,2.3c0.4-1,0.8-2.1,0.9-3.2
												C553.6,181.1,553.6,180.4,553.6,179.7z"/>
											<path class="st37" d="M545.3,180c0.2-0.1,0.6,0,0.6,0.2c0,0.4-0.1,0.8-0.3,1.1c-0.2,0.2-0.7,0.1-0.7-0.2
												C544.9,180.7,545,180.2,545.3,180z"/>
											<path class="st57" d="M538.4,181.5c0.4-0.3,0.9-0.3,1.3-0.2c0.1,0,0.2,0.1,0.3,0.2C539.5,181.4,539,181.5,538.4,181.5z"
												/>
											<path class="st54" d="M525.9,182.9c0-0.5-0.1-1.1,0.1-1.6c0,0.9,0.1,1.9,0.3,2.8c0.1,0.6,0.3,1.2,0.3,1.8
												C526.3,184.9,526,183.9,525.9,182.9z"/>
											<path class="st58" d="M531.6,181.7c0.4,0,0.9,0,1.3,0c0.4,0,0.8,0,1.1,0c-0.5,0.2-1.1,0.2-1.7,0.2
												C532.1,181.9,531.8,181.8,531.6,181.7z"/>
											<path class="st23" d="M544.5,181.9c0.7,0.1,1.3,0.1,2,0c-0.1,0.1-0.2,0.2-0.4,0.2c-0.4,0.1-0.9,0.1-1.3,0
												C544.7,182.1,544.6,182,544.5,181.9z"/>
											<path class="st54" d="M551.7,182.5c0.1,0.1,0.3,0.1,0.3,0.3c0.1,0.8,0,1.5-0.1,2.2h-0.1
												C551.8,184.1,551.8,183.3,551.7,182.5z"/>
											<path class="st59" d="M531.2,182.9c0.7,0,1.5,0,2.2,0c-0.4,0.2-0.9,0.2-1.3,0.2C531.8,183.1,531.5,183.1,531.2,182.9z"/>
											<path class="st60" d="M537.1,183.9c0-0.6,0.8-0.8,1.3-0.6c0.1,0.1,0.1,0.3,0.2,0.4c-0.1,0.4-0.7,0.6-1.1,0.6
												C537.3,184.3,537.1,184.1,537.1,183.9z"/>
											<path class="st60" d="M540.4,183.4c0.3-0.1,0.6,0,0.9,0.1c0.1,0.1,0.3,0.3,0.3,0.5s-0.3,0.2-0.5,0.2
												c-0.3,0-0.7,0-0.9-0.2S540.1,183.5,540.4,183.4z"/>
											<path class="st61" d="M544.5,184.6c0.4-0.3,0.9-0.3,1.4-0.3c0.4,0,0.9,0,1.2,0.3c-0.4,0-0.9-0.1-1.3-0.1
												C545.4,184.4,544.9,184.5,544.5,184.6z"/>
											<path class="st19" d="M531.3,184.6c0.8-0.1,1.7,0,2.3,0.6c0.8,0.8,0.7,2.3-0.2,3c-0.7,0.6-1.6,0.9-2.4,0.8
												c-0.6-0.1-1.2-0.4-1.6-0.9c-0.3-0.4-0.3-1.1-0.2-1.6c0.2-0.7,0.8-1.2,1.3-1.6C530.8,184.7,531.1,184.6,531.3,184.6z"/>
											<path class="st19" d="M545.9,185.3c0.6-0.1,1.2,0,1.8,0.3s1.1,0.8,1.2,1.5c0.1,1.1-0.7,2.3-1.8,2.6
												c-0.8,0.2-1.6,0-2.3-0.5c-0.6-0.4-1-1-1-1.7s0.4-1.3,0.9-1.7C545.1,185.6,545.5,185.4,545.9,185.3z"/>
											<path class="st62" d="M545.5,185.9C545.6,185.9,545.6,185.9,545.5,185.9L545.5,185.9z"/>
											<path class="st35" d="M535.7,186.8c0.5-0.3,0.9-0.6,1.5-0.7c0.4-0.1,0.8,0,1.2,0c0.3,0,0.7-0.1,1,0
												c0.6,0.1,1,0.5,1.6,0.9s1.1,1,1.5,1.8c0.1,0.3,0.2,0.8,0.3,1.1c0,0-0.2-0.1-0.2-0.2l-0.1,0.1c-1.5-0.6-3-0.8-4.6-0.9
												c-1.1,0-2.1,0.1-3.2,0.3c-0.3,0.1-0.7,0.1-1,0.1c0.2-0.5,0.5-0.9,0.8-1.3C534.7,187.6,535.2,187.1,535.7,186.8z"/>
											<path class="st63" d="M536.6,187.3c0.6-0.2,1.3-0.3,1.9-0.4c0.3,0,0.6,0,0.9,0.1c0.8,0.3,1.5,0.7,2.1,1.3
												c0.4,0.4,0.7,0.8,0.9,1.2c-1-0.4-2.1-0.6-3.1-0.7c-1.8-0.2-3.6,0-5.3,0.3C534.8,188.4,535.6,187.8,536.6,187.3z"/>
											<path class="st15" d="M553.4,189.1c0.1-0.1,0.3-0.1,0.4-0.1c-0.6,0.6-1,1.4-1.5,2.2c-0.3,0.6-0.7,1.3-0.9,1.9
												c-0.1,0.3-0.2,0.6-0.4,0.8c0.2-1.1,0.7-2.1,1.2-3.1C552.6,190.2,552.9,189.6,553.4,189.1z"/>
											<path class="st64" d="M537.1,189.4c0.2-0.2,0.6-0.2,0.9-0.2c0.6,0,1.2,0,1.8,0.2c-0.3,0-0.7,0-1,0
												C538.2,189.4,537.7,189.5,537.1,189.4z"/>
											<path class="st15" d="M524.5,189.8c0.5,0.3,0.8,0.9,1,1.5c0.4,1.1,0.8,2.3,0.9,3.5c-0.2-1.3-0.6-2.7-1.1-3.8
												C525,190.6,524.7,190.2,524.5,189.8z"/>
											<path class="st35" d="M536,190.5c0.2-0.1,0.4-0.1,0.6-0.1c0.9,0,1.9-0.1,2.8,0c0.2,0,0.4,0.1,0.6,0.2
												c-0.2,0.4-0.5,0.8-0.6,1.2c-0.2,0-0.4,0-0.7,0c-0.7,0-1.4,0-2.1,0.1C536.5,191.4,536.3,190.9,536,190.5z"/>
											<path class="st65" d="M536.1,193.8c0.3-0.1,0.5-0.3,0.9-0.3c0.7-0.1,1.4-0.1,2.1,0c0.2,0,0.4,0.1,0.5,0.2
												c-0.6,0-1.1-0.1-1.7,0C537.2,193.7,536.6,193.8,536.1,193.8z"/>
											<path class="st55" d="M534.7,209.7c0.3,1,0.3,2,0.3,3c0,0.9,0,1.9-0.3,2.8c0-0.5,0.1-0.9,0.1-1.4c0-0.9,0-1.9-0.1-2.8
												C534.7,210.9,534.6,210.3,534.7,209.7z"/>
											<path class="st66" d="M523.4,217.9c0.1,0.7,0,1.3,0,2c0,1.4,0.5,2.8,1.1,4c0.4,0.9,0.9,1.7,1.3,2.6c-0.6-0.9-1.1-2-1.6-3
												c-0.5-0.9-0.9-1.9-0.9-3C523.2,219.6,523.3,218.7,523.4,217.9z"/>
											<path class="st66" d="M549.7,219.2c0-0.1,0-0.2,0-0.4c0.1,0.1,0.2,0.2,0.2,0.4c0.1,0.8,0,1.5-0.2,2.2
												c-0.2,0.9-0.6,1.8-1.1,2.6c0,0.1-0.2,0.1-0.3,0.1c0.2-0.4,0.5-0.9,0.7-1.4C549.5,221.7,549.7,220.4,549.7,219.2z"/>
											<path class="st66" d="M521.8,219.2c0,0,0.1,0.1,0.2,0.1c0.1,0.4,0.1,0.9,0.2,1.3c0.4,1.6,1.1,3.2,1.9,4.6
												c0.1,0.3,0.4,0.6,0.5,0.9c-0.2-0.2-0.4-0.5-0.6-0.8c-0.7-1-1.2-2.1-1.7-3.2C522,221.3,521.6,220.3,521.8,219.2z"/>
											<path class="st66" d="M544.9,226.4c0.4-0.4,0.8-0.9,1.1-1.5c0,0.1,0.1,0.3,0,0.5c-0.2,0.6-0.7,1-1.1,1.5
												c-0.6,0.6-1.2,1.2-1.7,1.9c-0.1,0.2-0.3,0.4-0.5,0.6c0-0.1,0-0.2,0.1-0.3C543.3,228.1,544,227.2,544.9,226.4z"/>
											<path class="st66" d="M546.1,229.1c0.2-0.2,0.4-0.4,0.8-0.5c-0.1,0.4-0.4,0.6-0.7,0.9c-0.4,0.5-0.9,1-1.2,1.6
												c-0.1,0.1-0.2,0.3-0.4,0.3C545,230.6,545.5,229.8,546.1,229.1z"/>
											<path class="st66" d="M536.5,230.3c-0.4,0-0.8,0-1.1-0.2c0,0-0.1,0-0.1-0.1c0,0-0.1,0-0.2,0c-0.1-0.1-0.2-0.1-0.3-0.2
												l0,0c0.4,0.3,0.7,0.8,1.1,1.1c0.2,0.2,0.5,0.4,0.8,0.7l0,0l0,0c0.1,0,0.1-0.1,0.2-0.1l0,0l0,0c0.5-0.1,0.8-0.6,1.1-0.9
												c0.1-0.1,0.4-0.3,0.4-0.5C537.9,230.3,537.3,230.3,536.5,230.3z"/>
											<path class="st66" d="M540.2,231c0.1-0.2,0.4-0.4,0.6-0.4c-0.1,0.4-0.5,0.7-0.7,1.1c-0.2,0.3-0.3,0.7-0.5,0.9
												c0,0-0.1,0-0.2,0C539.5,232,539.8,231.4,540.2,231z"/>
											<path class="st66" d="M536.3,230.7c0.1-0.1,0.3,0,0.2,0.1C536.4,230.9,536.2,230.8,536.3,230.7z"/>
											<path class="st66" d="M558.8,240.5c0-0.9,0.1-1.8,0.4-2.6c0.5-2.2,1.3-4.3,2.4-6.3c0-0.1,0.1-0.2,0-0.3
												c-0.2,0-0.3,0.2-0.4,0.3c-0.6,0.9-1,2-1.5,3.1c-0.4,1.1-0.8,2.2-0.9,3.4c-0.1,0.8-0.1,1.5-0.2,2.2c0,0.1,0,0.1,0,0.2
												L558.8,240.5L558.8,240.5z"/>
											<path class="st66" d="M531.4,232.1c0.1-0.1,0.3,0,0.4,0c0.8,0.4,1.4,0.9,2.1,1.4c0.4,0.3,0.9,0.7,0.9,1.2
												c-0.3-0.1-0.4-0.4-0.7-0.6C533.3,233.4,532.4,232.7,531.4,232.1z"/>
											<path class="st66" d="M560.2,240.5c0-0.2,0.1-0.4,0.1-0.7c0.4-1.9,0.9-3.8,1.7-5.7c0.1-0.3,0.2-0.5,0.2-0.8
												c-0.1,0.1-0.2,0.2-0.3,0.4c-0.6,0.9-0.9,1.9-1.3,3c-0.4,1.2-0.6,2.5-0.8,3.8H560.2L560.2,240.5z"/>
											<path class="st66" d="M507.6,240.5h0.3c-0.2-1.9-0.7-3.8-1.1-5.8c-0.1-0.3-0.2-0.6-0.4-0.8c0,0-0.1,0-0.2,0
												c0,0.3,0.1,0.6,0.2,0.9C506.9,236.7,507.3,238.6,507.6,240.5z"/>
											<path class="st66" d="M508.9,240.5h0.4c0-0.2,0-0.4-0.1-0.6c-0.2-1-0.4-2-0.7-3c-0.2-0.6-0.3-1.3-0.6-1.9
												c0-0.1-0.2-0.2-0.3-0.3C508.1,236.6,508.6,238.5,508.9,240.5L508.9,240.5z"/>
											<path class="st66" d="M533.1,235.1c0.2,0,0.4,0.1,0.6,0.2c0.6,0.4,0.9,0.9,1.1,1.6c0,0.1,0.1,0.5-0.1,0.3
												c-0.1-0.3-0.3-0.6-0.5-0.9c-0.2-0.4-0.7-0.6-0.9-0.9C533.1,235.4,533,235.3,533.1,235.1z"/>
											<path class="st66" d="M536.5,236.1c0,0,0.1-0.1,0.2-0.1c0.4,0.7,0.5,1.4,0.7,2.1c0,0.2,0.1,0.5,0,0.8
												c-0.3-0.4-0.3-0.9-0.5-1.4C536.8,237,536.6,236.6,536.5,236.1z"/>
										</g>
									</g>
								</g>
							</g>
						</g>
					</g>
				</g>
			</g>
		</g>
	</g>
</g>
</svg>
