<?xml version="1.0" encoding="utf-8"?>
<!-- Generator: Adobe Illustrator 28.1.0, SVG Export Plug-In . SVG Version: 6.00 Build 0)  -->
<svg version="1.1" id="b0dc27b4-ac01-4bcf-8250-299b18238fa0"
	 xmlns="http://www.w3.org/2000/svg" xmlns:xlink="http://www.w3.org/1999/xlink" x="0px" y="0px" viewBox="0 0 768 384"
	 style="enable-background:new 0 0 768 384;" xml:space="preserve">
<style type="text/css">
	.st0{fill:none;stroke:#CBD5E1;stroke-dasharray:12.08,12.08;}
	.st1{opacity:0.5;fill:#94A3B8;enable-background:new    ;}
	.st2{fill:none;stroke:#FFFFFF;stroke-width:3;}
</style>
<path class="st0" d="M198.8,97h370.4c14.8,0,26.8,12,26.8,26.8v136.4c0,14.8-12,26.8-26.8,26.8H198.8c-14.8,0-26.8-12-26.8-26.8
	V123.8C172,109,184,97,198.8,97z"/>
<g>
	<path class="st1" d="M517.3,188.8H250.6c-1.9,0-3.4-1.2-3.4-2.7v-2.7c0-1.5,1.6-2.7,3.4-2.7h266.7c1.9,0,3.4,1.2,3.4,2.7v2.7
		C520.8,187.6,519.2,188.8,517.3,188.8z"/>
	<line class="st2" x1="247.2" y1="203.3" x2="520.7" y2="203.3"/>
</g>
</svg>
