<?xml version="1.0" encoding="UTF-8"?>
<svg id="a" data-name="Layer 1" xmlns="http://www.w3.org/2000/svg" xmlns:xlink="http://www.w3.org/1999/xlink" viewBox="0 0 1569 544">
  <defs>
    <filter id="b" data-name="drop-shadow-1" filterUnits="userSpaceOnUse">
      <feOffset dx="2" dy="7"/>
      <feGaussianBlur result="c" stdDeviation="20"/>
      <feFlood flood-color="#030712" flood-opacity=".35"/>
      <feComposite in2="c" operator="in"/>
      <feComposite in="SourceGraphic"/>
    </filter>
    <filter id="d" data-name="drop-shadow-2" filterUnits="userSpaceOnUse">
      <feOffset dx="2" dy="7"/>
      <feGaussianBlur result="e" stdDeviation="20"/>
      <feFlood flood-color="#030712" flood-opacity=".35"/>
      <feComposite in2="e" operator="in"/>
      <feComposite in="SourceGraphic"/>
    </filter>
    <filter id="f" data-name="drop-shadow-3" filterUnits="userSpaceOnUse">
      <feOffset dx="2" dy="7"/>
      <feGaussianBlur result="g" stdDeviation="20"/>
      <feFlood flood-color="#030712" flood-opacity=".35"/>
      <feComposite in2="g" operator="in"/>
      <feComposite in="SourceGraphic"/>
    </filter>
    <filter id="h" data-name="drop-shadow-4" filterUnits="userSpaceOnUse">
      <feOffset dx="2" dy="7"/>
      <feGaussianBlur result="i" stdDeviation="20"/>
      <feFlood flood-color="#030712" flood-opacity=".35"/>
      <feComposite in2="i" operator="in"/>
      <feComposite in="SourceGraphic"/>
    </filter>
    <filter id="j" data-name="drop-shadow-5" filterUnits="userSpaceOnUse">
      <feOffset dx="2" dy="7"/>
      <feGaussianBlur result="k" stdDeviation="20"/>
      <feFlood flood-color="#030712" flood-opacity=".35"/>
      <feComposite in2="k" operator="in"/>
      <feComposite in="SourceGraphic"/>
    </filter>
    <filter id="l" data-name="drop-shadow-6" filterUnits="userSpaceOnUse">
      <feOffset dx="2" dy="7"/>
      <feGaussianBlur result="m" stdDeviation="20"/>
      <feFlood flood-color="#030712" flood-opacity=".35"/>
      <feComposite in2="m" operator="in"/>
      <feComposite in="SourceGraphic"/>
    </filter>
    <filter id="n" data-name="drop-shadow-7" filterUnits="userSpaceOnUse">
      <feOffset dx="2" dy="7"/>
      <feGaussianBlur result="o" stdDeviation="20"/>
      <feFlood flood-color="#030712" flood-opacity=".35"/>
      <feComposite in2="o" operator="in"/>
      <feComposite in="SourceGraphic"/>
    </filter>
    <filter id="p" data-name="drop-shadow-8" filterUnits="userSpaceOnUse">
      <feOffset dx="2" dy="7"/>
      <feGaussianBlur result="q" stdDeviation="20"/>
      <feFlood flood-color="#030712" flood-opacity=".35"/>
      <feComposite in2="q" operator="in"/>
      <feComposite in="SourceGraphic"/>
    </filter>
    <filter id="r" data-name="drop-shadow-9" filterUnits="userSpaceOnUse">
      <feOffset dx="2" dy="7"/>
      <feGaussianBlur result="s" stdDeviation="20"/>
      <feFlood flood-color="#030712" flood-opacity=".35"/>
      <feComposite in2="s" operator="in"/>
      <feComposite in="SourceGraphic"/>
    </filter>
    <filter id="t" data-name="drop-shadow-10" filterUnits="userSpaceOnUse">
      <feOffset dx="2" dy="7"/>
      <feGaussianBlur result="u" stdDeviation="20"/>
      <feFlood flood-color="#030712" flood-opacity=".35"/>
      <feComposite in2="u" operator="in"/>
      <feComposite in="SourceGraphic"/>
    </filter>
    <filter id="v" data-name="drop-shadow-11" filterUnits="userSpaceOnUse">
      <feOffset dx="2" dy="7"/>
      <feGaussianBlur result="w" stdDeviation="20"/>
      <feFlood flood-color="#030712" flood-opacity=".35"/>
      <feComposite in2="w" operator="in"/>
      <feComposite in="SourceGraphic"/>
    </filter>
    <filter id="x" data-name="drop-shadow-12" filterUnits="userSpaceOnUse">
      <feOffset dx="2" dy="7"/>
      <feGaussianBlur result="y" stdDeviation="20"/>
      <feFlood flood-color="#030712" flood-opacity=".35"/>
      <feComposite in2="y" operator="in"/>
      <feComposite in="SourceGraphic"/>
    </filter>
    <clipPath id="z">
      <circle cx="1037" cy="177" r="26" fill="none" stroke-width="0"/>
    </clipPath>
    <clipPath id="aa">
      <path d="M829.86,251.3l-5.12-2.96c-4.61-2.67-9.89-2.67-14.51,0l-9,5.2-9,5.2c-4.62,2.67-7.26,7.24-7.26,12.57v20.79c0,5.33,2.64,9.9,7.25,12.56l9,5.2,9,5.2c4.61,2.67,9.89,2.67,14.51,0l9-5.2,3.89-2.24,5.12-2.96c4.61-2.67,7.25-7.24,7.25-12.56v-20.79c0-5.33-2.64-9.9-7.25-12.56l-9-5.2-3.89-2.24h0ZM817.49,273.11c4.74,0,8.59,3.85,8.59,8.59s-3.85,8.59-8.59,8.59-8.59-3.85-8.59-8.59,3.85-8.59,8.59-8.59ZM797.34,293.33l-12.38-7.14,12.37-.15v-4.49c.05-7.25,3.94-13.6,9.74-17.1l10.4-6.01,12.37-7.14-6.06,10.79,4.09,2.36c5.84,3.53,9.74,9.94,9.74,17.25v25.92l-6.32-10.64-4.11,2.37c-2.88,1.59-6.19,2.49-9.72,2.49s-6.83-.9-9.71-2.49l-10.44-6.03h0Z" fill="none" stroke-width="0"/>
    </clipPath>
    <linearGradient id="ab" x1="796.73" y1="-555.39" x2="840.89" y2="-504.99" gradientTransform="translate(0 -250) scale(1 -1)" gradientUnits="userSpaceOnUse">
      <stop offset="0" stop-color="#5b21b6"/>
      <stop offset="1" stop-color="#8fa0ed"/>
    </linearGradient>
    <linearGradient id="ac" x1="76.59" y1="384.64" x2="77.3" y2="385" gradientTransform="translate(-2192.16 12614.07) scale(30.23 -32)" gradientUnits="userSpaceOnUse">
      <stop offset="0" stop-color="#e40035"/>
      <stop offset=".24" stop-color="#f60a48"/>
      <stop offset=".35" stop-color="#f20755"/>
      <stop offset=".49" stop-color="#dc087d"/>
      <stop offset=".74" stop-color="#9717e7"/>
      <stop offset="1" stop-color="#6c00f5"/>
    </linearGradient>
    <linearGradient id="ad" x1="76.71" y1="385.19" x2="77.18" y2="384.63" gradientTransform="translate(-2192.16 12614.07) scale(30.23 -32)" gradientUnits="userSpaceOnUse">
      <stop offset="0" stop-color="#ff31d9"/>
      <stop offset="1" stop-color="#ff5be1" stop-opacity="0"/>
    </linearGradient>
  </defs>
  <circle cx="817" cy="282" r="66.5" fill="#020617" filter="url(#b)" stroke="#1f2937" stroke-miterlimit="10"/>
  <circle cx="1037" cy="177" r="31.5" fill="#020617" filter="url(#d)" stroke="#1f2937" stroke-miterlimit="10"/>
  <circle cx="966" cy="395" r="37.5" fill="#020617" filter="url(#f)" stroke="#1f2937" stroke-miterlimit="10"/>
  <circle cx="231.5" cy="483.5" r="36" fill="#020617" filter="url(#h)" stroke="#1f2937" stroke-miterlimit="10"/>
  <circle cx="134.5" cy="301.5" r="31" fill="#020617" filter="url(#j)" stroke="#1f2937" stroke-miterlimit="10"/>
  <circle cx="611" cy="153" r="37.5" fill="#020617" filter="url(#l)" stroke="#1f2937" stroke-miterlimit="10"/>
  <circle cx="1375" cy="466" r="33.5" fill="#020617" filter="url(#n)" stroke="#1f2937" stroke-miterlimit="10"/>
  <circle cx="1420" cy="164" r="44.5" fill="#020617" filter="url(#p)" stroke="#1f2937" stroke-miterlimit="10"/>
  <circle cx="656" cy="433" r="44.5" fill="#020617" filter="url(#r)" stroke="#1f2937" stroke-miterlimit="10"/>
  <circle cx="1240" cy="283" r="47.5" fill="#020617" filter="url(#t)" stroke="#1f2937" stroke-miterlimit="10"/>
  <circle cx="432" cy="327" r="47.5" fill="#020617" filter="url(#v)" stroke="#1f2937" stroke-miterlimit="10"/>
  <circle cx="298" cy="120" r="47.5" fill="#020617" filter="url(#x)" stroke="#1f2937" stroke-miterlimit="10"/>
  <g>
    <path d="M952.58,410.47l-3.07-34.47h33.8l-3.09,34.47-13.87,3.89" fill="#e34f26" stroke-width="0"/>
    <path d="M966.42,411.37l11.16-3.07,2.63-29.52h-13.79" fill="#efefef" isolation="isolate" opacity=".29" stroke-width="0"/>
    <path d="M966.42,391.57h-5.62l-.39-4.36h6.01v-4.2h-10.65l.08,1.13,1.06,11.7h9.51s0-4.28,0-4.28ZM966.42,402.61h-.08l-4.72-1.26-.31-3.38h-4.2l.52,6.68,8.69,2.4h.08l.03-4.43h0Z" fill="#020617" stroke-width="0"/>
    <path d="M966.37,391.57v4.28h5.26l-.52,5.47-4.72,1.26v4.43l8.69-2.4.08-.75.98-11.16.15-1.13h-9.93ZM966.37,383.04v4.2h10.26l.08-.9.23-2.17.08-1.13h-10.65Z" fill="#020617" stroke-width="0"/>
  </g>
  <g clip-path="url(#z)">
    <g>
      <path d="M1010.97,151.06h52v52h-52v-52Z" fill="#f7df1e" stroke-width="0"/>
      <path d="M1022.56,192.43l3.97-2.41c.77,1.35,1.46,2.52,3.14,2.52s2.62-.62,2.62-3.08v-16.62h4.89v16.68c0,5.05-2.97,7.36-7.3,7.36-3.89.02-6.16-2-7.32-4.45M1039.84,191.91l3.97-2.31c1.04,1.71,2.41,2.97,4.83,2.97,2.02,0,3.31-1.02,3.31-2.41,0-1.68-1.33-2.27-3.56-3.24l-1.23-.52c-3.54-1.5-5.87-3.39-5.87-7.36,0-3.66,2.79-6.45,7.16-6.45,3.1,0,5.35,1.08,6.95,3.91l-3.81,2.43c-.83-1.5-1.75-2.1-3.14-2.1s-2.33.92-2.33,2.1c0,1.46.92,2.06,3,2.97l1.23.52c4.16,1.79,6.49,3.6,6.49,7.68,0,4.39-3.45,6.8-8.09,6.8s-7.47-2.16-8.9-4.99" stroke-width="0"/>
    </g>
  </g>
  <path d="M1242.79,298.02h19.38c.62,0,1.22-.16,1.75-.46.53-.3.97-.72,1.28-1.25.31-.51.47-1.1.47-1.7,0-.6-.16-1.18-.47-1.7l-13.02-21.87c-.31-.52-.75-.95-1.28-1.24-.54-.3-1.14-.46-1.75-.46-.62,0-1.22.16-1.75.46-.53.3-.97.72-1.28,1.24l-3.33,5.59-6.51-10.94c-.31-.52-.75-.95-1.28-1.24-.54-.3-1.14-.46-1.75-.46-.62,0-1.22.16-1.75.46-.53.3-.97.72-1.28,1.24l-16.2,27.21c-.31.51-.47,1.1-.47,1.7,0,.6.16,1.18.47,1.7.31.52.75.95,1.28,1.25.54.3,1.14.46,1.75.46h12.17c4.82,0,8.37-2.05,10.82-6.06l5.94-9.98,3.18-5.34,9.55,16.04h-12.73l-3.18,5.34ZM1229.02,292.67h-8.49s12.73-21.38,12.73-21.38l6.35,10.69-4.25,7.14c-1.62,2.6-3.47,3.55-6.33,3.55" fill="#00dc82" stroke-width="0"/>
  <g>
    <path d="M460,326.64c0-3.69-4.63-7.17-11.7-9.33,1.64-7.21.91-12.95-2.3-14.8-.73-.42-1.6-.63-2.54-.63v2.54c.52,0,.94.1,1.29.28,1.53.87,2.23,4.25,1.71,8.6-.14,1.08-.31,2.19-.59,3.34-2.23-.56-4.67-.97-7.21-1.25-1.53-2.09-3.13-4-4.74-5.68,3.69-3.45,7.17-5.33,9.54-5.33v-2.54c-3.13,0-7.21,2.23-11.35,6.09-4.14-3.83-8.22-6.02-11.35-6.02v2.54c2.33,0,5.82,1.88,9.54,5.29-1.6,1.67-3.17,3.55-4.7,5.68-2.58.28-4.98.7-7.21,1.25-.24-1.15-.45-2.23-.59-3.27-.52-4.32.14-7.7,1.67-8.6.35-.21.77-.28,1.29-.28v-2.61c-.94,0-1.81.21-2.58.63-3.2,1.85-3.9,7.56-2.26,14.76-7.07,2.19-11.66,5.68-11.66,9.33s4.63,7.17,11.7,9.33c-1.64,7.21-.91,12.95,2.3,14.8.73.42,1.6.63,2.54.63,3.13,0,7.21-2.23,11.35-6.09,4.14,3.83,8.22,6.02,11.35,6.02.94,0,1.81-.21,2.58-.63,3.2-1.85,3.9-7.56,2.26-14.76,7.07-2.12,11.66-5.61,11.66-9.3h0ZM445.24,319.08c-.42,1.46-.94,2.96-1.53,4.49-.45-.91-.94-1.81-1.5-2.72-.52-.91-1.08-1.78-1.64-2.65,1.64.21,3.17.49,4.67.87ZM440.05,331.17c-.87,1.53-1.78,2.99-2.75,4.32-1.71.14-3.41.24-5.12.24s-3.41-.07-5.12-.21c-.94-1.36-1.85-2.79-2.75-4.32-.87-1.5-1.64-2.99-2.37-4.53.7-1.53,1.5-3.03,2.33-4.53.87-1.53,1.78-2.99,2.75-4.32,1.71-.14,3.41-.24,5.12-.24s3.41.07,5.12.21c.94,1.36,1.85,2.79,2.75,4.32.87,1.5,1.64,2.99,2.37,4.53-.7,1.5-1.5,3.03-2.33,4.53ZM443.7,329.67c.63,1.53,1.15,3.03,1.57,4.53-1.5.35-3.06.66-4.67.91.56-.87,1.11-1.78,1.64-2.68.52-.91,1.01-1.81,1.46-2.75ZM432.21,341.79c-1.04-1.08-2.12-2.3-3.17-3.62,1.01.03,2.05.07,3.13.07s2.12-.03,3.17-.07c-1.04,1.32-2.09,2.54-3.13,3.62ZM423.75,335.1c-1.6-.24-3.17-.52-4.67-.91.42-1.46.94-2.96,1.53-4.49.45.91.94,1.81,1.5,2.72.56.94,1.08,1.81,1.64,2.68ZM432.14,311.49c1.04,1.08,2.12,2.3,3.17,3.62-1.01-.03-2.05-.07-3.13-.07s-2.12.03-3.17.07c1.04-1.32,2.09-2.54,3.13-3.62ZM423.75,318.18c-.56.87-1.11,1.78-1.64,2.68s-1.01,1.81-1.46,2.72c-.63-1.53-1.15-3.03-1.57-4.53,1.46-.31,3.03-.63,4.67-.87ZM413.48,332.38c-4-1.71-6.62-3.97-6.62-5.75s2.61-4.04,6.62-5.75c.97-.42,2.05-.8,3.13-1.15.66,2.23,1.5,4.53,2.54,6.89-1.04,2.37-1.88,4.67-2.51,6.86-1.11-.31-2.19-.7-3.17-1.11ZM419.57,348.61c-1.53-.87-2.23-4.25-1.71-8.6.14-1.08.31-2.19.59-3.34,2.23.56,4.67.97,7.21,1.25,1.53,2.09,3.13,4,4.74,5.68-3.69,3.45-7.17,5.33-9.54,5.33-.52-.03-.94-.14-1.29-.31h0ZM446.49,339.94c.52,4.32-.14,7.7-1.67,8.6-.35.21-.77.28-1.29.28-2.33,0-5.82-1.88-9.54-5.29,1.6-1.67,3.17-3.55,4.7-5.68,2.58-.28,4.98-.7,7.21-1.25.28,1.18.49,2.3.59,3.34ZM450.88,332.38c-.97.42-2.05.8-3.13,1.15-.66-2.23-1.5-4.53-2.54-6.89,1.04-2.37,1.88-4.67,2.51-6.86,1.11.35,2.19.73,3.2,1.15,4,1.71,6.62,3.97,6.62,5.75-.03,1.74-2.65,4-6.65,5.71h0Z" fill="#61dafb" stroke-width="0"/>
    <circle cx="432.18" cy="326.64" r="5.19" fill="#61dafb" stroke-width="0"/>
  </g>
  <path d="M655.78,396c-20.19,0-36.6,16.41-36.6,36.6s16.41,36.6,36.6,36.6c6.4,0,12.41-1.66,17.61-4.52l-26.53-37.06v20.93h-3.89v-28.65h3.89l28.88,43.35c10.01-6.52,16.64-17.78,16.64-30.65,0-20.19-16.41-36.6-36.6-36.6M668.42,444.38l-4.29-6.46v-18.01h4.29v24.48Z" fill="#fff" stroke-width="0"/>
  <path d="M219.4,463.04c-.06.02-1.84,1.04-3.96,2.25-2.56,1.47-3.88,2.25-3.95,2.32-.06.07-.11.15-.14.24-.05.18-.06,26.3,0,26.49.02.07.08.18.14.24.14.15,15.42,8.93,15.61,8.98.09.02.18.02.28,0,.21-.05,15.45-8.82,15.59-8.97.06-.06.12-.17.14-.24.03-.09.04-1.45.04-4.33v-4.2l3.72-2.13c3.5-2.01,3.72-2.14,3.81-2.28l.09-.15v-4.53c0-4.93,0-4.65-.19-4.83-.05-.05-1.84-1.09-3.97-2.32l-3.88-2.23h-.43l-3.79,2.18c-2.09,1.2-3.86,2.23-3.95,2.28-.09.06-.19.16-.23.24l-.08.13-.02,4.26-.02,4.27-3.13,1.8c-1.72.99-3.16,1.81-3.19,1.82-.06.02-.06-.39-.06-8.23v-8.25l-.08-.14c-.1-.17.36.1-4.29-2.57-3.9-2.24-3.81-2.2-4.07-2.1h0ZM222.99,466.3c1.63.94,2.97,1.71,2.97,1.72s-1.43.84-3.18,1.84l-3.18,1.83-3.18-1.83c-1.75-1.01-3.18-1.83-3.18-1.84s1.43-.84,3.17-1.84l3.17-1.82.22.12c1.06.6,2.13,1.21,3.19,1.82M245.7,470.5c1.72.99,3.14,1.81,3.15,1.82.04.03-6.27,3.66-6.35,3.65-.09,0-6.31-3.59-6.31-3.64,0-.05,6.27-3.65,6.33-3.64.03,0,1.46.82,3.18,1.81M215.92,471.03l3.03,1.74.02,8.64.02,8.64.07.12c.04.06.11.15.16.18.05.04,1.74,1,3.75,2.13l3.65,2.06v3.65c0,2-.01,3.65-.03,3.65-.01,0-3.17-1.81-7.01-4.02l-6.99-4.02v-12.35s-.02-12.35-.02-12.35l.16.09c.09.05,1.52.87,3.19,1.83h0ZM226.62,477.11v7.96l-.12.08c-.17.11-6.23,3.59-6.25,3.59,0,0-.02-3.59-.02-7.98v-7.98s3.17-1.82,3.17-1.82c1.74-1,3.18-1.82,3.2-1.81.01,0,.02,3.59.02,7.97M238.71,475.28l3.18,1.83v3.62c0,3.44,0,3.62-.06,3.6-.03-.01-1.47-.84-3.2-1.83l-3.14-1.8v-3.62c0-1.99.01-3.62.02-3.62.01,0,1.45.82,3.2,1.83M249.54,477.05c0,1.98-.01,3.62-.03,3.63-.02.04-6.31,3.66-6.35,3.66,0,0-.02-1.63-.02-3.62v-3.62l3.17-1.82c1.75-1,3.18-1.82,3.2-1.82.02,0,.03,1.62.03,3.6M241.18,485.48l-13.94,7.96-6.32-3.6s13.93-8.06,13.98-8.03l6.28,3.67ZM241.88,490.18v3.63s-6.99,4.02-6.99,4.02c-3.84,2.21-7,4.02-7.01,4.02-.02,0-.03-1.48-.03-3.65v-3.65l7-3.99c3.85-2.19,7-3.99,7.02-3.99.01,0,.02,1.63.02,3.63h0Z" fill="#f0513f" stroke-width="0"/>
  <g clip-path="url(#aa)">
    <rect x="784.97" y="245.68" width="65.04" height="72.05" fill="url(#ab)" stroke-width="0"/>
  </g>
  <path d="M1407.46,159.36c1.66-6.67,5.84-10.01,12.51-10.01,10.01,0,11.27,7.51,16.26,8.75,3.34.84,6.26-.42,8.76-3.75-1.66,6.67-5.84,10.01-12.51,10.01-10.01,0-11.27-7.51-16.26-8.76-3.34-.83-6.26.42-8.76,3.76ZM1394.95,174.37c1.66-6.67,5.84-10.01,12.51-10.01,10.01,0,11.25,7.51,16.26,8.76,3.34.84,6.26-.42,8.76-3.75-1.66,6.67-5.84,10.01-12.51,10.01-10.01,0-11.25-7.51-16.26-8.76-3.34-.84-6.26.41-8.76,3.75Z" fill="#29c8ed" fill-rule="evenodd" stroke-width="0"/>
  <path d="M1388.33,452.87c-3.41-4.89-10.16-6.34-15.03-3.23l-8.56,5.46c-2.34,1.47-3.95,3.86-4.44,6.58-.41,2.27-.05,4.6,1.02,6.64-.73,1.11-1.23,2.36-1.47,3.67-.49,2.77.15,5.63,1.79,7.92,3.42,4.89,10.16,6.34,15.03,3.23l8.56-5.46c2.34-1.47,3.95-3.86,4.44-6.58.41-2.27.05-4.6-1.02-6.64.73-1.11,1.23-2.36,1.47-3.67.49-2.77-.15-5.63-1.79-7.92" fill="#ff3e00" stroke-width="0"/>
  <path d="M1372.46,480.37c-2.76.72-5.68-.36-7.3-2.71-.98-1.38-1.37-3.1-1.08-4.76.05-.27.12-.54.2-.8l.16-.49.44.32c1.01.74,2.15,1.31,3.35,1.67l.32.1-.03.32c-.04.45.08.9.35,1.27.49.71,1.37,1.03,2.2.82.19-.05.36-.13.53-.23l8.57-5.46c.42-.27.72-.7.8-1.19.09-.5-.03-1.02-.32-1.44-.49-.71-1.37-1.03-2.2-.82-.19.05-.36.13-.53.23l-3.27,2.08c-.54.34-1.12.6-1.74.76-2.76.72-5.68-.36-7.3-2.71-.98-1.38-1.37-3.1-1.08-4.76.29-1.64,1.26-3.07,2.67-3.96l8.57-5.46c.54-.34,1.12-.6,1.74-.76,2.76-.72,5.68.36,7.3,2.71.98,1.38,1.37,3.1,1.08,4.76-.05.27-.12.54-.2.8l-.16.49-.44-.32c-1.01-.75-2.15-1.31-3.35-1.67l-.32-.1.03-.32c.04-.45-.08-.9-.35-1.27-.49-.71-1.37-1.03-2.2-.82-.19.05-.36.13-.53.23l-8.57,5.46c-.42.27-.72.7-.8,1.19-.09.5.03,1.02.32,1.44.49.71,1.37,1.03,2.2.82.19-.05.36-.13.53-.23l3.27-2.08c.54-.34,1.12-.6,1.74-.76,2.76-.72,5.68.36,7.3,2.71.98,1.38,1.37,3.1,1.08,4.76-.29,1.64-1.26,3.07-2.67,3.96l-8.57,5.46c-.54.34-1.12.6-1.74.76" fill="#020617" stroke-width="0"/>
  <path d="M149.63,290.98l-1.09,17.14-10.44-22.48,11.53,5.33ZM142.4,313.15l-7.89,4.5-7.89-4.5,1.6-3.89h12.56l1.6,3.89ZM134.51,294.18l4.13,10.05h-8.26l4.13-10.05ZM120.48,308.12l-1.08-17.14,11.53-5.33-10.45,22.48Z" fill="url(#ac)" stroke-width="0"/>
  <path d="M149.63,290.98l-1.09,17.14-10.44-22.48,11.53,5.33ZM142.4,313.15l-7.89,4.5-7.89-4.5,1.6-3.89h12.56l1.6,3.89ZM134.51,294.18l4.13,10.05h-8.26l4.13-10.05ZM120.48,308.12l-1.08-17.14,11.53-5.33-10.45,22.48Z" fill="url(#ad)" stroke-width="0"/>
  <g>
    <path d="M591.31,139.44l15.46.05,4.39,7.59,4.47-7.59,15.36-.05-19.79,34.15-19.89-34.15ZM630.68,139.64h-7.55s-11.93,20.49-11.93,20.49l-11.92-20.48h-7.67s19.6,33.44,19.6,33.44l19.48-33.45ZM622.89,139.63l-7.05.05-4.67,7.64-4.59-7.64-7.07-.05,11.7,19.99,11.68-19.99ZM599.38,139.58h7.13M599.38,139.58h7.13" fill="none" stroke-width="0"/>
    <path d="M599.38,139.58h7.13s4.66,7.74,4.66,7.74l4.65-7.74h7.13s-11.73,20.35-11.73,20.35l-11.83-20.36Z" fill="#35495e" stroke-width="0"/>
    <path d="M591.6,139.63l7.77-.05,11.83,20.36,11.74-20.36h7.79s-19.52,33.51-19.52,33.51l-19.6-33.46Z" fill="#41b883" stroke-width="0"/>
  </g>
  <g>
    <path d="M278.96,120.45v-10.83c0-4.78,3.87-8.62,8.62-8.62h21.68c4.78,0,8.62,3.87,8.62,8.62v21.68c0,4.78-3.87,8.62-8.62,8.62h-30.3" fill="#007acc" stroke-width="0"/>
    <path d="M284.8,113.26v1.59h5.07v14.41h3.58v-14.41h5.07v-1.57c0-.88,0-1.59-.03-1.59,0-.03-3.08-.03-6.82-.03l-6.82.03v1.59l-.05-.03ZM307.54,111.64c.98.24,1.75.69,2.44,1.38.37.4.9,1.06.93,1.25,0,.05-1.67,1.19-2.71,1.83-.03.03-.19-.13-.34-.4-.5-.72-1.01-1.03-1.83-1.09-1.17-.08-1.94.53-1.94,1.57,0,.32.05.48.19.74.27.53.74.85,2.26,1.51,2.79,1.19,3.98,1.99,4.72,3.1.82,1.27,1.01,3.24.45,4.75-.61,1.62-2.15,2.73-4.3,3.08-.69.11-2.23.11-2.97-.03-1.57-.29-3.05-1.06-3.95-2.07-.37-.4-1.06-1.43-1.01-1.49l.37-.24,1.46-.85,1.09-.64.27.34c.32.5,1.03,1.19,1.46,1.43,1.27.66,2.95.56,3.79-.19.37-.32.5-.69.5-1.17,0-.45-.08-.66-.29-.98-.32-.42-.93-.77-2.68-1.57-2.02-.85-2.87-1.41-3.66-2.23-.45-.5-.88-1.3-1.06-1.94-.13-.56-.19-1.94-.05-2.49.42-1.94,1.88-3.32,3.98-3.69.64-.21,2.26-.13,2.89.05h0Z" fill="#020617" stroke-width="0"/>
  </g>
</svg>